%TF.GenerationSoftware,KiCad,Pcbnew,8.0.0*%
%TF.CreationDate,2024-03-22T20:52:57+01:00*%
%TF.ProjectId,rotatror,726f7461-7472-46f7-922e-6b696361645f,rev?*%
%TF.SameCoordinates,Original*%
%TF.FileFunction,Copper,L2,Bot*%
%TF.FilePolarity,Positive*%
%FSLAX46Y46*%
G04 Gerber Fmt 4.6, Leading zero omitted, Abs format (unit mm)*
G04 Created by KiCad (PCBNEW 8.0.0) date 2024-03-22 20:52:57*
%MOMM*%
%LPD*%
G01*
G04 APERTURE LIST*
G04 Aperture macros list*
%AMRoundRect*
0 Rectangle with rounded corners*
0 $1 Rounding radius*
0 $2 $3 $4 $5 $6 $7 $8 $9 X,Y pos of 4 corners*
0 Add a 4 corners polygon primitive as box body*
4,1,4,$2,$3,$4,$5,$6,$7,$8,$9,$2,$3,0*
0 Add four circle primitives for the rounded corners*
1,1,$1+$1,$2,$3*
1,1,$1+$1,$4,$5*
1,1,$1+$1,$6,$7*
1,1,$1+$1,$8,$9*
0 Add four rect primitives between the rounded corners*
20,1,$1+$1,$2,$3,$4,$5,0*
20,1,$1+$1,$4,$5,$6,$7,0*
20,1,$1+$1,$6,$7,$8,$9,0*
20,1,$1+$1,$8,$9,$2,$3,0*%
%AMFreePoly0*
4,1,19,0.500000,-0.750000,0.000000,-0.750000,0.000000,-0.744911,-0.071157,-0.744911,-0.207708,-0.704816,-0.327430,-0.627875,-0.420627,-0.520320,-0.479746,-0.390866,-0.500000,-0.250000,-0.500000,0.250000,-0.479746,0.390866,-0.420627,0.520320,-0.327430,0.627875,-0.207708,0.704816,-0.071157,0.744911,0.000000,0.744911,0.000000,0.750000,0.500000,0.750000,0.500000,-0.750000,0.500000,-0.750000,
$1*%
%AMFreePoly1*
4,1,19,0.000000,0.744911,0.071157,0.744911,0.207708,0.704816,0.327430,0.627875,0.420627,0.520320,0.479746,0.390866,0.500000,0.250000,0.500000,-0.250000,0.479746,-0.390866,0.420627,-0.520320,0.327430,-0.627875,0.207708,-0.704816,0.071157,-0.744911,0.000000,-0.744911,0.000000,-0.750000,-0.500000,-0.750000,-0.500000,0.750000,0.000000,0.750000,0.000000,0.744911,0.000000,0.744911,
$1*%
G04 Aperture macros list end*
%TA.AperFunction,SMDPad,CuDef*%
%ADD10R,2.500000X0.350000*%
%TD*%
%TA.AperFunction,SMDPad,CuDef*%
%ADD11RoundRect,0.200000X0.275000X-0.200000X0.275000X0.200000X-0.275000X0.200000X-0.275000X-0.200000X0*%
%TD*%
%TA.AperFunction,SMDPad,CuDef*%
%ADD12RoundRect,0.150000X0.587500X0.150000X-0.587500X0.150000X-0.587500X-0.150000X0.587500X-0.150000X0*%
%TD*%
%TA.AperFunction,SMDPad,CuDef*%
%ADD13RoundRect,0.250000X0.450000X-0.350000X0.450000X0.350000X-0.450000X0.350000X-0.450000X-0.350000X0*%
%TD*%
%TA.AperFunction,SMDPad,CuDef*%
%ADD14R,1.500000X1.500000*%
%TD*%
%TA.AperFunction,ComponentPad*%
%ADD15O,1.200000X2.000000*%
%TD*%
%TA.AperFunction,ComponentPad*%
%ADD16O,1.200000X1.800000*%
%TD*%
%TA.AperFunction,ComponentPad*%
%ADD17R,1.700000X1.700000*%
%TD*%
%TA.AperFunction,ComponentPad*%
%ADD18O,1.700000X1.700000*%
%TD*%
%TA.AperFunction,HeatsinkPad*%
%ADD19C,0.600000*%
%TD*%
%TA.AperFunction,SMDPad,CuDef*%
%ADD20RoundRect,0.250000X-0.350000X-0.450000X0.350000X-0.450000X0.350000X0.450000X-0.350000X0.450000X0*%
%TD*%
%TA.AperFunction,SMDPad,CuDef*%
%ADD21R,1.500000X0.900000*%
%TD*%
%TA.AperFunction,SMDPad,CuDef*%
%ADD22RoundRect,0.250000X-0.475000X0.337500X-0.475000X-0.337500X0.475000X-0.337500X0.475000X0.337500X0*%
%TD*%
%TA.AperFunction,SMDPad,CuDef*%
%ADD23RoundRect,0.250000X-0.450000X0.350000X-0.450000X-0.350000X0.450000X-0.350000X0.450000X0.350000X0*%
%TD*%
%TA.AperFunction,SMDPad,CuDef*%
%ADD24R,0.600000X1.000000*%
%TD*%
%TA.AperFunction,ComponentPad*%
%ADD25C,2.100000*%
%TD*%
%TA.AperFunction,SMDPad,CuDef*%
%ADD26FreePoly0,90.000000*%
%TD*%
%TA.AperFunction,SMDPad,CuDef*%
%ADD27FreePoly1,90.000000*%
%TD*%
%TA.AperFunction,SMDPad,CuDef*%
%ADD28RoundRect,0.250000X0.475000X-0.337500X0.475000X0.337500X-0.475000X0.337500X-0.475000X-0.337500X0*%
%TD*%
%TA.AperFunction,SMDPad,CuDef*%
%ADD29RoundRect,0.243750X-0.456250X0.243750X-0.456250X-0.243750X0.456250X-0.243750X0.456250X0.243750X0*%
%TD*%
%TA.AperFunction,ViaPad*%
%ADD30C,0.600000*%
%TD*%
%TA.AperFunction,Conductor*%
%ADD31C,0.500000*%
%TD*%
%TA.AperFunction,Conductor*%
%ADD32C,0.300000*%
%TD*%
%TA.AperFunction,Conductor*%
%ADD33C,0.250000*%
%TD*%
%TA.AperFunction,Conductor*%
%ADD34C,0.400000*%
%TD*%
%TA.AperFunction,Conductor*%
%ADD35C,0.200000*%
%TD*%
G04 APERTURE END LIST*
D10*
%TO.P,U5,12,GND*%
%TO.N,GND*%
X123675000Y-85850000D03*
%TO.P,U5,11,~{RESET}*%
%TO.N,Net-(U5-~{RESET})*%
X123675000Y-85150000D03*
%TO.P,U5,10,SDI*%
%TO.N,/MOSI*%
X123675000Y-84450000D03*
%TO.P,U5,9,SCK*%
%TO.N,/SCK*%
X123675000Y-83750000D03*
%TO.P,U5,8,~{CS}*%
%TO.N,/TFT_CS*%
X123675000Y-83050000D03*
%TO.P,U5,7,D/C*%
%TO.N,/TFT_DC*%
X123675000Y-82350000D03*
%TO.P,U5,1,GND*%
%TO.N,GND*%
X123675000Y-78150000D03*
%TO.P,U5,2,LEDK*%
%TO.N,/LEDK*%
X123675000Y-78850000D03*
%TO.P,U5,3,LEDA*%
%TO.N,Net-(U5-LEDA)*%
X123675000Y-79550000D03*
%TO.P,U5,4,VDD*%
%TO.N,+3.3VP*%
X123675000Y-80250000D03*
%TO.P,U5,5,GND*%
%TO.N,GND*%
X123675000Y-80950000D03*
%TO.P,U5,6,GND*%
X123675000Y-81650000D03*
%TD*%
D11*
%TO.P,R18,1*%
%TO.N,+3.3VP*%
X121200000Y-82125000D03*
%TO.P,R18,2*%
%TO.N,Net-(U5-LEDA)*%
X121200000Y-80475000D03*
%TD*%
%TO.P,R17,1*%
%TO.N,GND*%
X115425000Y-82625000D03*
%TO.P,R17,2*%
%TO.N,Net-(Q1-G)*%
X115425000Y-80975000D03*
%TD*%
%TO.P,R16,1*%
%TO.N,Net-(Q1-G)*%
X117375000Y-78025000D03*
%TO.P,R16,2*%
%TO.N,/BLK*%
X117375000Y-76375000D03*
%TD*%
D12*
%TO.P,Q1,1,G*%
%TO.N,Net-(Q1-G)*%
X119475000Y-79450000D03*
%TO.P,Q1,2,S*%
%TO.N,GND*%
X119475000Y-81350000D03*
%TO.P,Q1,3,D*%
%TO.N,/LEDK*%
X117600000Y-80400000D03*
%TD*%
D13*
%TO.P,R15,1*%
%TO.N,Net-(U1-GPIO4{slash}TOUCH4{slash}ADC1_CH3)*%
X100200000Y-77800000D03*
%TO.P,R15,2*%
%TO.N,GND*%
X100200000Y-75800000D03*
%TD*%
%TO.P,R14,1*%
%TO.N,+BATT*%
X100200000Y-81600000D03*
%TO.P,R14,2*%
%TO.N,Net-(U1-GPIO4{slash}TOUCH4{slash}ADC1_CH3)*%
X100200000Y-79600000D03*
%TD*%
D14*
%TO.P,TP1,1,1*%
%TO.N,/BLK*%
X119400000Y-77000000D03*
%TD*%
%TO.P,TP6,1,1*%
%TO.N,Net-(U1-GPIO17{slash}U1TXD{slash}ADC2_CH6)*%
X107400000Y-82600000D03*
%TD*%
%TO.P,TP5,1,1*%
%TO.N,Net-(U1-GPIO18{slash}U1RXD{slash}ADC2_CH7{slash}CLK_OUT3)*%
X110600000Y-82600000D03*
%TD*%
D15*
%TO.P,U3,0,0*%
%TO.N,GND*%
X112425000Y-92645500D03*
D16*
X112425000Y-96845500D03*
D15*
X121075000Y-92645500D03*
D16*
X121075000Y-96845500D03*
%TD*%
D17*
%TO.P,J1,1,Pin_1*%
%TO.N,+3.3VP*%
X126600000Y-73180000D03*
D18*
%TO.P,J1,2,Pin_2*%
%TO.N,GND*%
X126600000Y-75720000D03*
%TO.P,J1,3,Pin_3*%
%TO.N,/GPIO43*%
X126600000Y-78260000D03*
%TO.P,J1,4,Pin_4*%
%TO.N,/GPIO44*%
X126600000Y-80800000D03*
%TO.P,J1,5,Pin_5*%
%TO.N,/GPIO40*%
X126600000Y-83340000D03*
%TO.P,J1,6,Pin_6*%
%TO.N,/GPIO39*%
X126600000Y-85880000D03*
%TD*%
D19*
%TO.P,U1,41,GND*%
%TO.N,GND*%
X111100000Y-78510000D03*
X111100000Y-79910000D03*
X111800000Y-79210000D03*
X111800000Y-80610000D03*
X112500000Y-78510000D03*
X112500000Y-79910000D03*
%TD*%
D20*
%TO.P,R12,1*%
%TO.N,Net-(D3-K)*%
X112460000Y-87400000D03*
%TO.P,R12,2*%
%TO.N,Net-(U4-CHRG)*%
X114460000Y-87400000D03*
%TD*%
D21*
%TO.P,D2,1,VDD*%
%TO.N,+3.3VP*%
X109550000Y-74650000D03*
%TO.P,D2,2,DOUT*%
%TO.N,Net-(D2-DOUT)*%
X109550000Y-71350000D03*
%TO.P,D2,3,VSS*%
%TO.N,GND*%
X114450000Y-71350000D03*
%TO.P,D2,4,DIN*%
%TO.N,Net-(D1-DOUT)*%
X114450000Y-74650000D03*
%TD*%
D22*
%TO.P,C3,1*%
%TO.N,+5VD*%
X115200000Y-93162500D03*
%TO.P,C3,2*%
%TO.N,GND*%
X115200000Y-95237500D03*
%TD*%
D23*
%TO.P,R13,1*%
%TO.N,Net-(U4-PROG)*%
X117800000Y-91800000D03*
%TO.P,R13,2*%
%TO.N,GND*%
X117800000Y-93800000D03*
%TD*%
D14*
%TO.P,LED,1,1*%
%TO.N,Net-(D2-DOUT)*%
X107200000Y-65600000D03*
%TD*%
D24*
%TO.P,U4,1,CHRG*%
%TO.N,Net-(U4-CHRG)*%
X116250000Y-87100000D03*
%TO.P,U4,2,GND*%
%TO.N,GND*%
X117200000Y-87100000D03*
%TO.P,U4,3,BAT*%
%TO.N,+BATT*%
X118150000Y-87100000D03*
%TO.P,U4,4,VCC*%
%TO.N,+5VD*%
X118150000Y-89700000D03*
%TO.P,U4,5,PROG*%
%TO.N,Net-(U4-PROG)*%
X116250000Y-89700000D03*
%TD*%
D25*
%TO.P,S1,A*%
%TO.N,Net-(R10-Pad2)*%
X120595620Y-86345620D03*
%TO.P,S1,B*%
%TO.N,Net-(R11-Pad2)*%
X107500000Y-86345620D03*
%TO.P,S1,COM_A*%
%TO.N,GND*%
X107500000Y-73250000D03*
%TO.P,S1,COM_B*%
X130127410Y-76545120D03*
%TO.P,S1,S1*%
%TO.N,/S_1*%
X115157970Y-78687650D03*
%TO.P,S1,S2*%
%TO.N,/S_2*%
X129158710Y-87526480D03*
%TO.P,S1,S3*%
%TO.N,/S_3*%
X110441570Y-95948110D03*
%TO.P,S1,S4*%
%TO.N,/S_4*%
X98936910Y-72069140D03*
%TO.P,S1,S5*%
%TO.N,/S_5*%
X117300500Y-63718210D03*
%TD*%
D14*
%TO.P,GND,1,1*%
%TO.N,GND*%
X106600000Y-93800000D03*
%TD*%
%TO.P,+BAT,1,1*%
%TO.N,+BATT*%
X108200000Y-90600000D03*
%TD*%
D26*
%TO.P,JP2,1,A*%
%TO.N,+5VD*%
X120850000Y-90250000D03*
D27*
%TO.P,JP2,2,B*%
%TO.N,+BATT*%
X120850000Y-88950000D03*
%TD*%
D28*
%TO.P,C5,1*%
%TO.N,GND*%
X99400000Y-87037500D03*
%TO.P,C5,2*%
%TO.N,+BATT*%
X99400000Y-84962500D03*
%TD*%
D14*
%TO.P,RES,1,1*%
%TO.N,Net-(U1-EN)*%
X102600000Y-77600000D03*
%TD*%
D21*
%TO.P,D1,1,VDD*%
%TO.N,+3.3VP*%
X117000000Y-74650000D03*
%TO.P,D1,2,DOUT*%
%TO.N,Net-(D1-DOUT)*%
X117000000Y-71350000D03*
%TO.P,D1,3,VSS*%
%TO.N,GND*%
X121900000Y-71350000D03*
%TO.P,D1,4,DIN*%
%TO.N,/LED_IO42*%
X121900000Y-74650000D03*
%TD*%
D29*
%TO.P,D3,1,K*%
%TO.N,Net-(D3-K)*%
X114420000Y-89482500D03*
%TO.P,D3,2,A*%
%TO.N,+5VD*%
X114420000Y-91357500D03*
%TD*%
D30*
%TO.N,Net-(U5-~{RESET})*%
X125727032Y-84647968D03*
%TO.N,GND*%
X129200000Y-74000000D03*
X127600000Y-71000000D03*
%TO.N,/SCK*%
X121475000Y-84825000D03*
%TO.N,+3.3VP*%
X127800000Y-79600000D03*
%TO.N,/TFT_DC*%
X120800000Y-83400000D03*
%TO.N,/TFT_CS*%
X120800000Y-84200000D03*
%TO.N,/MOSI*%
X122400000Y-86800000D03*
%TO.N,/BLK*%
X121000000Y-78800000D03*
%TO.N,Net-(U1-GPIO4{slash}TOUCH4{slash}ADC1_CH3)*%
X103999998Y-77544912D03*
%TO.N,Net-(U1-GPIO18{slash}U1RXD{slash}ADC2_CH7{slash}CLK_OUT3)*%
X109000000Y-84600000D03*
%TO.N,Net-(U1-GPIO17{slash}U1TXD{slash}ADC2_CH6)*%
X105250000Y-82920000D03*
%TO.N,GND*%
X119400000Y-75000000D03*
%TO.N,/S_4*%
X107000000Y-76600000D03*
%TO.N,/S_3*%
X110800000Y-89600000D03*
%TO.N,/S_ROTB*%
X103200000Y-82287500D03*
X106200000Y-77800000D03*
%TO.N,/S_2*%
X124000000Y-74400000D03*
%TO.N,Net-(U1-EN)*%
X102600000Y-77600000D03*
%TO.N,GND*%
X109800000Y-92400000D03*
X97600000Y-74800000D03*
X118800000Y-71000000D03*
X122000000Y-71000000D03*
X114450000Y-71350000D03*
X117200000Y-86800000D03*
X100000000Y-76200000D03*
X102000000Y-81200000D03*
X111400000Y-71000000D03*
%TO.N,+3.3VP*%
X101800000Y-74600000D03*
%TO.N,+5VD*%
X114349998Y-91577500D03*
X119149998Y-91577500D03*
%TO.N,Net-(R10-Pad2)*%
X101487500Y-85800000D03*
%TO.N,Net-(R11-Pad2)*%
X103200000Y-84112500D03*
%TO.N,/LED_IO42*%
X121400000Y-77800000D03*
%TO.N,+BATT*%
X98925000Y-81600000D03*
%TD*%
D31*
%TO.N,Net-(Q1-G)*%
X117375000Y-79025000D02*
X117375000Y-78025000D01*
D32*
X117375000Y-79025000D02*
X119050000Y-79025000D01*
X119050000Y-79025000D02*
X119475000Y-79450000D01*
X115425000Y-80975000D02*
X117375000Y-79025000D01*
X119475000Y-79450000D02*
X119475000Y-79650000D01*
D31*
%TO.N,GND*%
X127375000Y-88200000D02*
X127775000Y-88600000D01*
X123675000Y-85850000D02*
X126025000Y-88200000D01*
X126025000Y-88200000D02*
X127375000Y-88200000D01*
D33*
X127775000Y-88600000D02*
X127775000Y-90642577D01*
X127775000Y-82853299D02*
X127775000Y-88600000D01*
D32*
%TO.N,Net-(U5-~{RESET})*%
X125000000Y-85150000D02*
X125225000Y-85150000D01*
X125000000Y-85150000D02*
X123675000Y-85150000D01*
X125727032Y-84647968D02*
X125225000Y-85150000D01*
D33*
%TO.N,GND*%
X116850000Y-81200000D02*
X115425000Y-82625000D01*
X119125000Y-81200000D02*
X116850000Y-81200000D01*
D32*
%TO.N,/LEDK*%
X120100000Y-80300000D02*
X117600000Y-80300000D01*
X120950000Y-79450000D02*
X120100000Y-80300000D01*
X122350000Y-78850000D02*
X121750000Y-79450000D01*
X121750000Y-79450000D02*
X120950000Y-79450000D01*
X123675000Y-78850000D02*
X122350000Y-78850000D01*
D33*
%TO.N,/SCK*%
X121475648Y-84449352D02*
X121475648Y-84824352D01*
X121475648Y-84824352D02*
X121475000Y-84825000D01*
%TO.N,GND*%
X124950000Y-81650000D02*
X125200000Y-81400000D01*
X123675000Y-81650000D02*
X124950000Y-81650000D01*
X125200000Y-81400000D02*
X125800000Y-82000000D01*
X124750000Y-80950000D02*
X125200000Y-81400000D01*
X123675000Y-80950000D02*
X123675000Y-81650000D01*
X121429500Y-93000000D02*
X121075000Y-92645500D01*
X127775000Y-90642577D02*
X125417577Y-93000000D01*
X126921701Y-82000000D02*
X127775000Y-82853299D01*
X125800000Y-82000000D02*
X126921701Y-82000000D01*
X125417577Y-93000000D02*
X121429500Y-93000000D01*
X123675000Y-80950000D02*
X124750000Y-80950000D01*
%TO.N,+3.3VP*%
X126138299Y-79600000D02*
X127800000Y-79600000D01*
X125488299Y-80250000D02*
X126138299Y-79600000D01*
X123675000Y-80250000D02*
X125488299Y-80250000D01*
%TO.N,GND*%
X124170000Y-78150000D02*
X123675000Y-78150000D01*
X126600000Y-75720000D02*
X124170000Y-78150000D01*
%TO.N,/TFT_DC*%
X121148004Y-83400000D02*
X120800000Y-83400000D01*
X122198004Y-82350000D02*
X121148004Y-83400000D01*
X123675000Y-82350000D02*
X122198004Y-82350000D01*
%TO.N,/TFT_CS*%
X121088604Y-84200000D02*
X120800000Y-84200000D01*
X122238604Y-83050000D02*
X121088604Y-84200000D01*
X123675000Y-83050000D02*
X122238604Y-83050000D01*
%TO.N,/SCK*%
X122175000Y-83750000D02*
X121475648Y-84449352D01*
X123675000Y-83750000D02*
X122175000Y-83750000D01*
%TO.N,/MOSI*%
X122100000Y-86500000D02*
X122400000Y-86800000D01*
X122100000Y-84525000D02*
X122100000Y-86500000D01*
X122175000Y-84450000D02*
X122100000Y-84525000D01*
X123675000Y-84450000D02*
X122175000Y-84450000D01*
D32*
%TO.N,/TFT_CS*%
X123675000Y-83050000D02*
X122440464Y-83050000D01*
%TO.N,/SCK*%
X123675000Y-83750000D02*
X122450000Y-83750000D01*
%TO.N,/TFT_DC*%
X123675000Y-82350000D02*
X122433358Y-82350000D01*
%TO.N,/BLK*%
X119400000Y-77200000D02*
X121000000Y-78800000D01*
X119400000Y-77000000D02*
X119400000Y-77200000D01*
X118975000Y-76575000D02*
X119400000Y-77000000D01*
X117375000Y-76575000D02*
X118975000Y-76575000D01*
%TO.N,+3.3VP*%
X122425000Y-80250000D02*
X123675000Y-80250000D01*
X122075000Y-80600000D02*
X122425000Y-80250000D01*
X122075000Y-81450000D02*
X122075000Y-80600000D01*
X121200000Y-82325000D02*
X122075000Y-81450000D01*
%TO.N,Net-(U5-LEDA)*%
X122357106Y-79550000D02*
X121232106Y-80675000D01*
X121232106Y-80675000D02*
X121200000Y-80675000D01*
X123675000Y-79550000D02*
X122357106Y-79550000D01*
D34*
%TO.N,/S_2*%
X128600000Y-75952233D02*
X128600000Y-86967770D01*
X124030000Y-74430000D02*
X127077767Y-74430000D01*
X127077767Y-74430000D02*
X128600000Y-75952233D01*
X124000000Y-74400000D02*
X124030000Y-74430000D01*
X128600000Y-86967770D02*
X129158710Y-87526480D01*
D35*
%TO.N,Net-(U1-GPIO4{slash}TOUCH4{slash}ADC1_CH3)*%
X103800000Y-76750000D02*
X103600000Y-76550000D01*
X103800000Y-77344914D02*
X103800000Y-76750000D01*
X103999998Y-77544912D02*
X103800000Y-77344914D01*
X101450000Y-76550000D02*
X103600000Y-76550000D01*
X100200000Y-77800000D02*
X101450000Y-76550000D01*
D34*
X100200000Y-77800000D02*
X100200000Y-79600000D01*
%TO.N,GND*%
X101400000Y-80600000D02*
X102000000Y-81200000D01*
X98225000Y-81310050D02*
X98935050Y-80600000D01*
X98225000Y-85862500D02*
X98225000Y-81310050D01*
X99400000Y-87037500D02*
X98225000Y-85862500D01*
X98935050Y-80600000D02*
X101400000Y-80600000D01*
D31*
%TO.N,Net-(U1-GPIO18{slash}U1RXD{slash}ADC2_CH7{slash}CLK_OUT3)*%
X110600000Y-83000000D02*
X109000000Y-84600000D01*
X110600000Y-82600000D02*
X110600000Y-83000000D01*
%TO.N,Net-(U1-GPIO17{slash}U1TXD{slash}ADC2_CH6)*%
X105570000Y-82600000D02*
X105250000Y-82920000D01*
X107400000Y-82600000D02*
X105570000Y-82600000D01*
%TO.N,GND*%
X106490000Y-79910000D02*
X111100000Y-79910000D01*
X103950000Y-82450000D02*
X106490000Y-79910000D01*
X103950000Y-82598161D02*
X103950000Y-82450000D01*
X103348161Y-83200000D02*
X103950000Y-82598161D01*
X102000000Y-82148161D02*
X103051839Y-83200000D01*
X102000000Y-81200000D02*
X102000000Y-82148161D01*
X103051839Y-83200000D02*
X103348161Y-83200000D01*
%TO.N,Net-(D2-DOUT)*%
X107200000Y-70400000D02*
X107200000Y-65600000D01*
X109550000Y-71350000D02*
X108150000Y-71350000D01*
X108150000Y-71350000D02*
X107200000Y-70400000D01*
%TO.N,+BATT*%
X104200000Y-87200000D02*
X101637500Y-87200000D01*
X107600000Y-90600000D02*
X104200000Y-87200000D01*
X101637500Y-87200000D02*
X99400000Y-84962500D01*
X108200000Y-90600000D02*
X107600000Y-90600000D01*
%TO.N,Net-(R10-Pad2)*%
X104200000Y-85800000D02*
X101487500Y-85800000D01*
X111900000Y-84400000D02*
X108150000Y-88150000D01*
X118650000Y-84400000D02*
X111900000Y-84400000D01*
X106550000Y-88150000D02*
X104200000Y-85800000D01*
X120595620Y-86345620D02*
X118650000Y-84400000D01*
X108150000Y-88150000D02*
X106550000Y-88150000D01*
%TO.N,+BATT*%
X99400000Y-82075000D02*
X99400000Y-84962500D01*
X99400000Y-82075000D02*
X98925000Y-81600000D01*
%TO.N,/S_4*%
X102469140Y-72069140D02*
X107000000Y-76600000D01*
X98936910Y-72069140D02*
X102469140Y-72069140D01*
%TO.N,/S_3*%
X111200000Y-95189680D02*
X110441570Y-95948110D01*
X110800000Y-89600000D02*
X111200000Y-90000000D01*
X111200000Y-90000000D02*
X111200000Y-95189680D01*
%TO.N,/S_ROTB*%
X106200000Y-77800000D02*
X106200000Y-78600000D01*
X103200000Y-81600000D02*
X103200000Y-82287500D01*
X106200000Y-78600000D02*
X103200000Y-81600000D01*
%TO.N,/S_2*%
X129158710Y-87526480D02*
X128839570Y-87845620D01*
D35*
%TO.N,GND*%
X108400000Y-93800000D02*
X106600000Y-93800000D01*
X109800000Y-92400000D02*
X108400000Y-93800000D01*
D31*
%TO.N,+3.3VP*%
X116000000Y-75600000D02*
X117000000Y-74600000D01*
X112300000Y-75600000D02*
X116000000Y-75600000D01*
D34*
X103989950Y-74600000D02*
X101800000Y-74600000D01*
D31*
X109550000Y-74650000D02*
X111350000Y-74650000D01*
D34*
X107389950Y-77510050D02*
X106900000Y-77510050D01*
D31*
X111350000Y-74650000D02*
X112300000Y-75600000D01*
X118420000Y-73180000D02*
X117000000Y-74600000D01*
D34*
X109550000Y-75350000D02*
X107389950Y-77510050D01*
D31*
X118800000Y-73180000D02*
X118420000Y-73180000D01*
D34*
X106900000Y-77510050D02*
X103989950Y-74600000D01*
D31*
X118800000Y-73180000D02*
X126600000Y-73180000D01*
D34*
X109550000Y-74650000D02*
X109550000Y-75350000D01*
%TO.N,+5VD*%
X119149998Y-90699998D02*
X119149998Y-91577500D01*
X118526166Y-92800000D02*
X115562500Y-92800000D01*
X115562500Y-92800000D02*
X115200000Y-93162500D01*
D31*
X120850000Y-90250000D02*
X119599996Y-90250000D01*
D34*
X119149998Y-91577500D02*
X119149998Y-92176168D01*
X118150000Y-89700000D02*
X119149998Y-90699998D01*
D31*
X119599996Y-90250000D02*
X119149998Y-90699998D01*
D34*
X119149998Y-92176168D02*
X118526166Y-92800000D01*
X114349998Y-92312498D02*
X115200000Y-93162500D01*
X114349998Y-91577500D02*
X114349998Y-92312498D01*
D31*
%TO.N,Net-(R11-Pad2)*%
X107500000Y-86345620D02*
X105266880Y-84112500D01*
X105266880Y-84112500D02*
X103200000Y-84112500D01*
%TO.N,/LED_IO42*%
X121900000Y-74600000D02*
X121900000Y-77300000D01*
X121900000Y-77300000D02*
X121400000Y-77800000D01*
%TO.N,Net-(D1-DOUT)*%
X114450000Y-73850000D02*
X117000000Y-71300000D01*
X114450000Y-74650000D02*
X114450000Y-73850000D01*
%TO.N,+BATT*%
X120000000Y-88950000D02*
X118150000Y-87100000D01*
X108200000Y-89400000D02*
X112200000Y-85400000D01*
X120850000Y-88950000D02*
X120000000Y-88950000D01*
X117200000Y-85400000D02*
X118150000Y-86350000D01*
X108200000Y-90600000D02*
X108200000Y-89400000D01*
X118150000Y-86350000D02*
X118150000Y-87100000D01*
X112200000Y-85400000D02*
X117200000Y-85400000D01*
D34*
%TO.N,Net-(D3-K)*%
X114420000Y-89482500D02*
X114420000Y-89360000D01*
X114420000Y-89360000D02*
X112460000Y-87400000D01*
%TO.N,Net-(U4-CHRG)*%
X114460000Y-87400000D02*
X115950000Y-87400000D01*
X115950000Y-87400000D02*
X116250000Y-87100000D01*
%TO.N,Net-(U4-PROG)*%
X117800000Y-91800000D02*
X116250000Y-90250000D01*
X116250000Y-90250000D02*
X116250000Y-89700000D01*
%TD*%
%TA.AperFunction,Conductor*%
%TO.N,GND*%
G36*
X123793039Y-85845184D02*
G01*
X123838794Y-85897988D01*
X123850000Y-85949499D01*
X123850000Y-86525000D01*
X124972828Y-86525000D01*
X124972844Y-86524999D01*
X125032372Y-86518598D01*
X125032379Y-86518596D01*
X125167086Y-86468354D01*
X125167089Y-86468352D01*
X125205863Y-86439326D01*
X125271327Y-86414908D01*
X125339600Y-86429759D01*
X125389006Y-86479163D01*
X125392557Y-86486187D01*
X125423306Y-86552128D01*
X125425965Y-86557829D01*
X125425967Y-86557834D01*
X125534281Y-86712521D01*
X125561505Y-86751401D01*
X125728599Y-86918495D01*
X125807868Y-86974000D01*
X125922165Y-87054032D01*
X125922167Y-87054033D01*
X125922170Y-87054035D01*
X126136337Y-87153903D01*
X126364592Y-87215063D01*
X126552918Y-87231539D01*
X126599999Y-87235659D01*
X126600000Y-87235659D01*
X126600001Y-87235659D01*
X126639234Y-87232226D01*
X126835408Y-87215063D01*
X127063663Y-87153903D01*
X127277830Y-87054035D01*
X127471401Y-86918495D01*
X127475972Y-86913923D01*
X127537291Y-86880436D01*
X127606983Y-86885417D01*
X127662919Y-86927285D01*
X127687340Y-86992748D01*
X127679574Y-87040743D01*
X127681047Y-87041222D01*
X127679540Y-87045858D01*
X127622563Y-87283182D01*
X127603416Y-87526480D01*
X127622563Y-87769777D01*
X127622563Y-87769780D01*
X127622564Y-87769782D01*
X127679279Y-88006015D01*
X127679540Y-88007099D01*
X127772932Y-88232569D01*
X127900447Y-88440653D01*
X127900448Y-88440656D01*
X127922831Y-88466863D01*
X128058951Y-88626239D01*
X128187103Y-88735691D01*
X128244533Y-88784741D01*
X128244536Y-88784742D01*
X128452620Y-88912257D01*
X128678091Y-89005649D01*
X128678088Y-89005649D01*
X128678094Y-89005650D01*
X128678098Y-89005652D01*
X128915408Y-89062626D01*
X129147985Y-89080929D01*
X129213272Y-89105813D01*
X129254743Y-89162043D01*
X129259230Y-89231769D01*
X129244660Y-89268217D01*
X129226047Y-89299323D01*
X129222946Y-89304241D01*
X128759367Y-90002458D01*
X128756038Y-90007225D01*
X128260246Y-90682937D01*
X128256698Y-90687542D01*
X127729781Y-91339272D01*
X127726025Y-91343701D01*
X127504960Y-91592328D01*
X127169129Y-91970028D01*
X127165165Y-91974280D01*
X126579536Y-92573803D01*
X126575377Y-92577866D01*
X125962277Y-93149293D01*
X125957932Y-93153156D01*
X125318732Y-93695208D01*
X125314211Y-93698863D01*
X124650307Y-94210358D01*
X124645620Y-94213797D01*
X123958475Y-94693609D01*
X123953632Y-94696825D01*
X123244733Y-95143914D01*
X123239744Y-95146899D01*
X122510695Y-95560252D01*
X122505572Y-95563001D01*
X122016612Y-95810696D01*
X121947912Y-95823431D01*
X121883234Y-95797003D01*
X121872895Y-95787760D01*
X121791602Y-95706467D01*
X121651524Y-95604695D01*
X121497257Y-95526091D01*
X121332589Y-95472587D01*
X121332581Y-95472585D01*
X121325000Y-95471384D01*
X121325000Y-96056014D01*
X121305315Y-96123053D01*
X121252511Y-96168808D01*
X121251789Y-96169135D01*
X121235659Y-96176376D01*
X121229394Y-96172759D01*
X121127661Y-96145500D01*
X121022339Y-96145500D01*
X120920606Y-96172759D01*
X120839941Y-96219330D01*
X120829802Y-96203330D01*
X120825000Y-96169157D01*
X120825000Y-95471384D01*
X120824999Y-95471384D01*
X120817418Y-95472585D01*
X120817410Y-95472587D01*
X120652742Y-95526091D01*
X120498475Y-95604695D01*
X120358397Y-95706467D01*
X120235967Y-95828897D01*
X120134195Y-95968975D01*
X120055591Y-96123242D01*
X120002085Y-96287915D01*
X119975000Y-96458928D01*
X119975000Y-96585838D01*
X119955315Y-96652877D01*
X119902511Y-96698632D01*
X119890973Y-96703218D01*
X119404131Y-96869009D01*
X119398585Y-96870754D01*
X118593442Y-97103442D01*
X118587821Y-97104925D01*
X117772634Y-97299624D01*
X117766949Y-97300841D01*
X116943572Y-97457108D01*
X116937837Y-97458058D01*
X116108016Y-97575565D01*
X116102241Y-97576245D01*
X115267838Y-97654724D01*
X115262039Y-97655133D01*
X114424853Y-97694417D01*
X114419041Y-97694553D01*
X113580959Y-97694553D01*
X113575132Y-97694416D01*
X113568160Y-97694088D01*
X113502119Y-97671275D01*
X113458897Y-97616379D01*
X113452214Y-97546830D01*
X113456056Y-97531906D01*
X113497914Y-97403084D01*
X113525000Y-97232071D01*
X113525000Y-97095500D01*
X112825000Y-97095500D01*
X112825000Y-96595500D01*
X113525000Y-96595500D01*
X113525000Y-96458928D01*
X113497914Y-96287915D01*
X113444408Y-96123242D01*
X113365804Y-95968975D01*
X113264032Y-95828897D01*
X113141602Y-95706467D01*
X113001524Y-95604695D01*
X112847257Y-95526091D01*
X112728486Y-95487500D01*
X113975001Y-95487500D01*
X113975001Y-95624986D01*
X113985494Y-95727697D01*
X114040641Y-95894119D01*
X114040643Y-95894124D01*
X114132684Y-96043345D01*
X114256654Y-96167315D01*
X114405875Y-96259356D01*
X114405880Y-96259358D01*
X114572302Y-96314505D01*
X114572309Y-96314506D01*
X114675019Y-96324999D01*
X114949999Y-96324999D01*
X114950000Y-96324998D01*
X114950000Y-95487500D01*
X115450000Y-95487500D01*
X115450000Y-96324999D01*
X115724972Y-96324999D01*
X115724986Y-96324998D01*
X115827697Y-96314505D01*
X115994119Y-96259358D01*
X115994124Y-96259356D01*
X116143345Y-96167315D01*
X116267315Y-96043345D01*
X116359356Y-95894124D01*
X116359358Y-95894119D01*
X116414505Y-95727697D01*
X116414506Y-95727690D01*
X116424999Y-95624986D01*
X116425000Y-95624973D01*
X116425000Y-95487500D01*
X115450000Y-95487500D01*
X114950000Y-95487500D01*
X113975001Y-95487500D01*
X112728486Y-95487500D01*
X112682589Y-95472587D01*
X112682581Y-95472585D01*
X112675000Y-95471384D01*
X112675000Y-96229814D01*
X112670606Y-96225420D01*
X112579394Y-96172759D01*
X112477661Y-96145500D01*
X112372339Y-96145500D01*
X112270606Y-96172759D01*
X112179394Y-96225420D01*
X112175000Y-96229814D01*
X112175000Y-95471384D01*
X112174999Y-95471384D01*
X112167418Y-95472585D01*
X112167413Y-95472586D01*
X112092277Y-95496999D01*
X112022435Y-95498993D01*
X111962603Y-95462911D01*
X111931776Y-95400210D01*
X111932342Y-95354877D01*
X111950500Y-95263598D01*
X111950500Y-94218605D01*
X111970185Y-94151566D01*
X112022989Y-94105811D01*
X112092147Y-94095867D01*
X112112819Y-94100674D01*
X112167417Y-94118414D01*
X112174999Y-94119615D01*
X112175000Y-94119614D01*
X112175000Y-93361186D01*
X112179394Y-93365580D01*
X112270606Y-93418241D01*
X112372339Y-93445500D01*
X112477661Y-93445500D01*
X112579394Y-93418241D01*
X112670606Y-93365580D01*
X112675000Y-93361186D01*
X112675000Y-94119615D01*
X112682584Y-94118414D01*
X112847255Y-94064908D01*
X113001524Y-93986304D01*
X113141602Y-93884532D01*
X113264036Y-93762098D01*
X113319090Y-93686321D01*
X113374419Y-93643655D01*
X113444032Y-93637674D01*
X113488300Y-93656103D01*
X113553707Y-93699807D01*
X113553713Y-93699810D01*
X113553714Y-93699811D01*
X113667548Y-93746963D01*
X113788389Y-93770999D01*
X113788393Y-93771000D01*
X113788394Y-93771000D01*
X113911606Y-93771000D01*
X113915069Y-93770311D01*
X113916922Y-93770476D01*
X113917671Y-93770403D01*
X113917684Y-93770544D01*
X113984660Y-93776532D01*
X114039841Y-93819390D01*
X114044808Y-93826827D01*
X114132288Y-93968656D01*
X114256344Y-94092712D01*
X114259628Y-94094737D01*
X114259653Y-94094753D01*
X114261445Y-94096746D01*
X114262011Y-94097193D01*
X114261934Y-94097289D01*
X114306379Y-94146699D01*
X114317603Y-94215661D01*
X114289761Y-94279744D01*
X114259665Y-94305826D01*
X114256660Y-94307679D01*
X114256655Y-94307683D01*
X114132684Y-94431654D01*
X114040643Y-94580875D01*
X114040641Y-94580880D01*
X113985494Y-94747302D01*
X113985493Y-94747309D01*
X113975000Y-94850013D01*
X113975000Y-94987500D01*
X116424999Y-94987500D01*
X116424999Y-94850028D01*
X116424998Y-94850013D01*
X116414505Y-94747302D01*
X116359358Y-94580880D01*
X116359356Y-94580875D01*
X116267315Y-94431654D01*
X116143344Y-94307683D01*
X116143341Y-94307681D01*
X116140339Y-94305829D01*
X116138713Y-94304021D01*
X116137677Y-94303202D01*
X116137817Y-94303024D01*
X116093617Y-94253880D01*
X116082397Y-94184917D01*
X116110243Y-94120836D01*
X116140344Y-94094754D01*
X116143656Y-94092712D01*
X116186368Y-94050000D01*
X116600001Y-94050000D01*
X116600001Y-94199986D01*
X116610494Y-94302697D01*
X116665641Y-94469119D01*
X116665643Y-94469124D01*
X116757684Y-94618345D01*
X116881654Y-94742315D01*
X117030875Y-94834356D01*
X117030880Y-94834358D01*
X117197302Y-94889505D01*
X117197309Y-94889506D01*
X117300019Y-94899999D01*
X117549999Y-94899999D01*
X117550000Y-94899998D01*
X117550000Y-94050000D01*
X118050000Y-94050000D01*
X118050000Y-94899999D01*
X118299972Y-94899999D01*
X118299986Y-94899998D01*
X118402697Y-94889505D01*
X118569119Y-94834358D01*
X118569124Y-94834356D01*
X118718345Y-94742315D01*
X118842315Y-94618345D01*
X118934356Y-94469124D01*
X118934358Y-94469119D01*
X118989505Y-94302697D01*
X118989506Y-94302690D01*
X118999999Y-94199986D01*
X119000000Y-94199973D01*
X119000000Y-94050000D01*
X118050000Y-94050000D01*
X117550000Y-94050000D01*
X116600001Y-94050000D01*
X116186368Y-94050000D01*
X116267712Y-93968656D01*
X116359814Y-93819334D01*
X116414999Y-93652797D01*
X116415153Y-93651282D01*
X116415510Y-93650408D01*
X116416417Y-93646173D01*
X116417171Y-93646334D01*
X116441542Y-93586590D01*
X116498719Y-93546433D01*
X116568530Y-93543562D01*
X116579907Y-93550000D01*
X119002264Y-93550000D01*
X119058593Y-93519241D01*
X119128285Y-93524225D01*
X119172634Y-93552726D01*
X119251263Y-93631355D01*
X119251267Y-93631358D01*
X119353707Y-93699807D01*
X119353713Y-93699810D01*
X119353714Y-93699811D01*
X119467548Y-93746963D01*
X119588389Y-93770999D01*
X119588393Y-93771000D01*
X119588394Y-93771000D01*
X119711607Y-93771000D01*
X119711608Y-93770999D01*
X119832452Y-93746963D01*
X119946286Y-93699811D01*
X119946291Y-93699807D01*
X119946294Y-93699806D01*
X120011698Y-93656104D01*
X120078375Y-93635225D01*
X120145756Y-93653709D01*
X120180909Y-93686320D01*
X120235967Y-93762102D01*
X120358397Y-93884532D01*
X120498475Y-93986304D01*
X120652744Y-94064908D01*
X120817415Y-94118414D01*
X120817414Y-94118414D01*
X120824999Y-94119615D01*
X120825000Y-94119614D01*
X120825000Y-93361186D01*
X120829394Y-93365580D01*
X120920606Y-93418241D01*
X121022339Y-93445500D01*
X121127661Y-93445500D01*
X121229394Y-93418241D01*
X121320606Y-93365580D01*
X121325000Y-93361186D01*
X121325000Y-94119615D01*
X121332584Y-94118414D01*
X121497255Y-94064908D01*
X121651524Y-93986304D01*
X121791602Y-93884532D01*
X121914032Y-93762102D01*
X122015804Y-93622024D01*
X122094408Y-93467757D01*
X122147914Y-93303084D01*
X122175000Y-93132071D01*
X122175000Y-92895500D01*
X121475000Y-92895500D01*
X121475000Y-92395500D01*
X122175000Y-92395500D01*
X122175000Y-92158928D01*
X122147914Y-91987915D01*
X122094408Y-91823242D01*
X122015804Y-91668975D01*
X121914032Y-91528897D01*
X121791602Y-91406467D01*
X121651515Y-91304689D01*
X121649596Y-91303513D01*
X121649020Y-91302876D01*
X121647584Y-91301833D01*
X121647803Y-91301531D01*
X121602723Y-91251699D01*
X121591304Y-91182769D01*
X121618964Y-91118608D01*
X121647349Y-91093476D01*
X121704130Y-91056986D01*
X121812791Y-90962832D01*
X121812794Y-90962829D01*
X121907015Y-90854091D01*
X121984747Y-90733137D01*
X122044517Y-90602259D01*
X122059297Y-90551923D01*
X122403910Y-90551923D01*
X122423340Y-90699500D01*
X122442417Y-90844403D01*
X122518771Y-91129361D01*
X122518774Y-91129371D01*
X122631664Y-91401910D01*
X122631668Y-91401920D01*
X122779171Y-91657403D01*
X122958762Y-91891450D01*
X122958768Y-91891457D01*
X123167362Y-92100051D01*
X123167369Y-92100057D01*
X123401416Y-92279648D01*
X123656899Y-92427151D01*
X123656900Y-92427151D01*
X123656903Y-92427153D01*
X123929458Y-92540049D01*
X124214417Y-92616403D01*
X124506904Y-92654910D01*
X124506911Y-92654910D01*
X124801909Y-92654910D01*
X124801916Y-92654910D01*
X125094403Y-92616403D01*
X125379362Y-92540049D01*
X125651917Y-92427153D01*
X125907404Y-92279648D01*
X126141452Y-92100056D01*
X126350056Y-91891452D01*
X126529648Y-91657404D01*
X126677153Y-91401917D01*
X126790049Y-91129362D01*
X126866403Y-90844403D01*
X126904910Y-90551916D01*
X126904910Y-90256904D01*
X126866403Y-89964417D01*
X126790049Y-89679458D01*
X126775573Y-89644511D01*
X126740384Y-89559556D01*
X126677153Y-89406903D01*
X126648523Y-89357315D01*
X126529648Y-89151416D01*
X126350057Y-88917369D01*
X126350051Y-88917362D01*
X126141457Y-88708768D01*
X126141450Y-88708762D01*
X125907403Y-88529171D01*
X125651920Y-88381668D01*
X125651910Y-88381664D01*
X125379371Y-88268774D01*
X125379364Y-88268772D01*
X125379362Y-88268771D01*
X125094403Y-88192417D01*
X125045523Y-88185981D01*
X124801923Y-88153910D01*
X124801916Y-88153910D01*
X124506904Y-88153910D01*
X124506896Y-88153910D01*
X124228495Y-88190563D01*
X124214417Y-88192417D01*
X124047403Y-88237168D01*
X123929458Y-88268771D01*
X123929448Y-88268774D01*
X123656909Y-88381664D01*
X123656899Y-88381668D01*
X123401416Y-88529171D01*
X123167369Y-88708762D01*
X123167362Y-88708768D01*
X122958768Y-88917362D01*
X122958762Y-88917369D01*
X122779171Y-89151416D01*
X122631668Y-89406899D01*
X122631664Y-89406909D01*
X122518774Y-89679448D01*
X122518771Y-89679458D01*
X122465633Y-89877775D01*
X122442418Y-89964414D01*
X122442416Y-89964425D01*
X122403910Y-90256896D01*
X122403910Y-90551923D01*
X122059297Y-90551923D01*
X122085024Y-90464304D01*
X122105500Y-90321889D01*
X122105500Y-89750000D01*
X122100355Y-89678060D01*
X122099158Y-89673985D01*
X122089397Y-89640741D01*
X122085636Y-89588158D01*
X122105500Y-89450000D01*
X122105500Y-88878111D01*
X122085024Y-88735696D01*
X122044517Y-88597741D01*
X121984747Y-88466863D01*
X121970743Y-88445073D01*
X121910623Y-88351523D01*
X121909802Y-88350081D01*
X121907011Y-88345901D01*
X121812792Y-88237169D01*
X121812789Y-88237166D01*
X121704135Y-88143018D01*
X121704132Y-88143015D01*
X121668604Y-88120183D01*
X121583094Y-88065230D01*
X121583087Y-88065227D01*
X121583081Y-88065223D01*
X121458356Y-88008263D01*
X121454058Y-88006015D01*
X121443095Y-88002796D01*
X121414617Y-87994433D01*
X121314196Y-87964947D01*
X121255419Y-87927172D01*
X121226394Y-87863616D01*
X121236338Y-87794458D01*
X121282093Y-87741654D01*
X121297387Y-87733655D01*
X121297365Y-87733611D01*
X121301578Y-87731463D01*
X121301697Y-87731402D01*
X121301697Y-87731401D01*
X121301709Y-87731397D01*
X121509799Y-87603879D01*
X121695379Y-87445379D01*
X121708643Y-87429847D01*
X121767147Y-87391653D01*
X121837015Y-87391151D01*
X121890617Y-87422695D01*
X121897738Y-87429816D01*
X122050478Y-87525789D01*
X122220745Y-87585368D01*
X122220750Y-87585369D01*
X122399996Y-87605565D01*
X122400000Y-87605565D01*
X122400004Y-87605565D01*
X122579249Y-87585369D01*
X122579252Y-87585368D01*
X122579255Y-87585368D01*
X122749522Y-87525789D01*
X122902262Y-87429816D01*
X123029816Y-87302262D01*
X123125789Y-87149522D01*
X123185368Y-86979255D01*
X123196502Y-86880436D01*
X123205565Y-86800003D01*
X123205565Y-86799997D01*
X123190116Y-86662884D01*
X123202170Y-86594062D01*
X123249519Y-86542682D01*
X123313336Y-86525000D01*
X123500000Y-86525000D01*
X123500000Y-85949499D01*
X123519685Y-85882460D01*
X123572489Y-85836705D01*
X123624000Y-85825499D01*
X123726000Y-85825499D01*
X123793039Y-85845184D01*
G37*
%TD.AperFunction*%
%TA.AperFunction,Conductor*%
G36*
X97540690Y-72784969D02*
G01*
X97582520Y-72826448D01*
X97678647Y-72983314D01*
X97678648Y-72983316D01*
X97732030Y-73045818D01*
X97837151Y-73168899D01*
X97980807Y-73291593D01*
X98022733Y-73327401D01*
X98022736Y-73327402D01*
X98230820Y-73454917D01*
X98456291Y-73548309D01*
X98456288Y-73548309D01*
X98456294Y-73548310D01*
X98456298Y-73548312D01*
X98693608Y-73605286D01*
X98936910Y-73624434D01*
X99180212Y-73605286D01*
X99417522Y-73548312D01*
X99642999Y-73454917D01*
X99851089Y-73327399D01*
X100036669Y-73168899D01*
X100195169Y-72983319D01*
X100259188Y-72878850D01*
X100310999Y-72831975D01*
X100364915Y-72819640D01*
X102106910Y-72819640D01*
X102173949Y-72839325D01*
X102194591Y-72855959D01*
X103026451Y-73687819D01*
X103059936Y-73749142D01*
X103054952Y-73818834D01*
X103013080Y-73874767D01*
X102947616Y-73899184D01*
X102938770Y-73899500D01*
X102225494Y-73899500D01*
X102159523Y-73880494D01*
X102149525Y-73874212D01*
X101979254Y-73814631D01*
X101979249Y-73814630D01*
X101800004Y-73794435D01*
X101799996Y-73794435D01*
X101620750Y-73814630D01*
X101620745Y-73814631D01*
X101450476Y-73874211D01*
X101297737Y-73970184D01*
X101170184Y-74097737D01*
X101074211Y-74250476D01*
X101014631Y-74420745D01*
X101014630Y-74420750D01*
X100994435Y-74599996D01*
X100994435Y-74602310D01*
X100994011Y-74603750D01*
X100993655Y-74606919D01*
X100993099Y-74606856D01*
X100974750Y-74669349D01*
X100921946Y-74715104D01*
X100852788Y-74725048D01*
X100831432Y-74720016D01*
X100802700Y-74710495D01*
X100802690Y-74710493D01*
X100699986Y-74700000D01*
X100450000Y-74700000D01*
X100450000Y-75550000D01*
X101399999Y-75550000D01*
X101399999Y-75482887D01*
X101419684Y-75415848D01*
X101472488Y-75370093D01*
X101541646Y-75360149D01*
X101564952Y-75365845D01*
X101577092Y-75370093D01*
X101620740Y-75385367D01*
X101620750Y-75385369D01*
X101799996Y-75405565D01*
X101800000Y-75405565D01*
X101800004Y-75405565D01*
X101979249Y-75385369D01*
X101979252Y-75385368D01*
X101979255Y-75385368D01*
X102149522Y-75325789D01*
X102150488Y-75325181D01*
X102159523Y-75319506D01*
X102225494Y-75300500D01*
X103648431Y-75300500D01*
X103715470Y-75320185D01*
X103736112Y-75336819D01*
X105549208Y-77149915D01*
X105582693Y-77211238D01*
X105577709Y-77280930D01*
X105566521Y-77303568D01*
X105474211Y-77450476D01*
X105414631Y-77620745D01*
X105414630Y-77620750D01*
X105394435Y-77799996D01*
X105394435Y-77800003D01*
X105414630Y-77979249D01*
X105414631Y-77979254D01*
X105442542Y-78059017D01*
X105449500Y-78099972D01*
X105449500Y-78237769D01*
X105429815Y-78304808D01*
X105413181Y-78325450D01*
X102617050Y-81121580D01*
X102617044Y-81121588D01*
X102567812Y-81195268D01*
X102567813Y-81195269D01*
X102534921Y-81244496D01*
X102534914Y-81244508D01*
X102478342Y-81381086D01*
X102478340Y-81381092D01*
X102449500Y-81526079D01*
X102449500Y-81987528D01*
X102442542Y-82028482D01*
X102414631Y-82108247D01*
X102394435Y-82287496D01*
X102394435Y-82287503D01*
X102414630Y-82466749D01*
X102414631Y-82466754D01*
X102474211Y-82637023D01*
X102545828Y-82751000D01*
X102570184Y-82789762D01*
X102697738Y-82917316D01*
X102850478Y-83013289D01*
X103020745Y-83072868D01*
X103020749Y-83072869D01*
X103055460Y-83076780D01*
X103119873Y-83103846D01*
X103159429Y-83161441D01*
X103161566Y-83231278D01*
X103125608Y-83291185D01*
X103062970Y-83322140D01*
X103055460Y-83323220D01*
X103020749Y-83327130D01*
X103020745Y-83327131D01*
X102850476Y-83386711D01*
X102697737Y-83482684D01*
X102570184Y-83610237D01*
X102474211Y-83762976D01*
X102414631Y-83933245D01*
X102414630Y-83933250D01*
X102394435Y-84112496D01*
X102394435Y-84112503D01*
X102414630Y-84291749D01*
X102414631Y-84291754D01*
X102474211Y-84462023D01*
X102553054Y-84587500D01*
X102570184Y-84614762D01*
X102697738Y-84742316D01*
X102756526Y-84779255D01*
X102822176Y-84820506D01*
X102868467Y-84872841D01*
X102879115Y-84941895D01*
X102850740Y-85005743D01*
X102792350Y-85044115D01*
X102756204Y-85049500D01*
X101787472Y-85049500D01*
X101746517Y-85042542D01*
X101666754Y-85014631D01*
X101666749Y-85014630D01*
X101487504Y-84994435D01*
X101487496Y-84994435D01*
X101308250Y-85014630D01*
X101308245Y-85014631D01*
X101137976Y-85074211D01*
X100985237Y-85170184D01*
X100914826Y-85240596D01*
X100853503Y-85274081D01*
X100783811Y-85269097D01*
X100739464Y-85240596D01*
X100661818Y-85162950D01*
X100628333Y-85101627D01*
X100625499Y-85075269D01*
X100625499Y-84574998D01*
X100625498Y-84574981D01*
X100614999Y-84472203D01*
X100614998Y-84472200D01*
X100597947Y-84420745D01*
X100559814Y-84305666D01*
X100467712Y-84156344D01*
X100343656Y-84032288D01*
X100209402Y-83949480D01*
X100162679Y-83897533D01*
X100150500Y-83843942D01*
X100150500Y-82824499D01*
X100170185Y-82757460D01*
X100222989Y-82711705D01*
X100274500Y-82700499D01*
X100700002Y-82700499D01*
X100700008Y-82700499D01*
X100802797Y-82689999D01*
X100969334Y-82634814D01*
X101118656Y-82542712D01*
X101242712Y-82418656D01*
X101334814Y-82269334D01*
X101389999Y-82102797D01*
X101400500Y-82000009D01*
X101400499Y-81199992D01*
X101400254Y-81197598D01*
X101389999Y-81097203D01*
X101389998Y-81097200D01*
X101357122Y-80997988D01*
X101334814Y-80930666D01*
X101242712Y-80781344D01*
X101149048Y-80687680D01*
X101115564Y-80626358D01*
X101120548Y-80556666D01*
X101149049Y-80512319D01*
X101178532Y-80482836D01*
X101242712Y-80418656D01*
X101334814Y-80269334D01*
X101389999Y-80102797D01*
X101400500Y-80000009D01*
X101400499Y-79199992D01*
X101398473Y-79180163D01*
X101389999Y-79097203D01*
X101389998Y-79097200D01*
X101357303Y-78998533D01*
X101334814Y-78930666D01*
X101293419Y-78863553D01*
X101262267Y-78813047D01*
X101243827Y-78745655D01*
X101264750Y-78678991D01*
X101318392Y-78634222D01*
X101387723Y-78625561D01*
X101450730Y-78655758D01*
X101467071Y-78673639D01*
X101471078Y-78678991D01*
X101492453Y-78707545D01*
X101492455Y-78707547D01*
X101607664Y-78793793D01*
X101607671Y-78793797D01*
X101742517Y-78844091D01*
X101742516Y-78844091D01*
X101749444Y-78844835D01*
X101802127Y-78850500D01*
X103397872Y-78850499D01*
X103457483Y-78844091D01*
X103592331Y-78793796D01*
X103707546Y-78707546D01*
X103793796Y-78592331D01*
X103844091Y-78457483D01*
X103844091Y-78457481D01*
X103845874Y-78449938D01*
X103847330Y-78450282D01*
X103870737Y-78393772D01*
X103928128Y-78353922D01*
X103981174Y-78348356D01*
X103989699Y-78349316D01*
X103999997Y-78350477D01*
X103999998Y-78350477D01*
X104000001Y-78350477D01*
X104179247Y-78330281D01*
X104179250Y-78330280D01*
X104179253Y-78330280D01*
X104349520Y-78270701D01*
X104502260Y-78174728D01*
X104629814Y-78047174D01*
X104725787Y-77894434D01*
X104785366Y-77724167D01*
X104787533Y-77704938D01*
X104805563Y-77544915D01*
X104805563Y-77544908D01*
X104785367Y-77365662D01*
X104785366Y-77365657D01*
X104757313Y-77285487D01*
X104725787Y-77195390D01*
X104713843Y-77176382D01*
X104674287Y-77113428D01*
X104629814Y-77042650D01*
X104502260Y-76915096D01*
X104502258Y-76915094D01*
X104502256Y-76915093D01*
X104458528Y-76887616D01*
X104412237Y-76835281D01*
X104400501Y-76782623D01*
X104400501Y-76670944D01*
X104400501Y-76670943D01*
X104359577Y-76518216D01*
X104342772Y-76489109D01*
X104280524Y-76381290D01*
X104280518Y-76381282D01*
X104097961Y-76198726D01*
X104097959Y-76198723D01*
X103968717Y-76069481D01*
X103968716Y-76069480D01*
X103881904Y-76019360D01*
X103881904Y-76019359D01*
X103881900Y-76019358D01*
X103831785Y-75990423D01*
X103679057Y-75949499D01*
X103520943Y-75949499D01*
X103513347Y-75949499D01*
X103513331Y-75949500D01*
X101536669Y-75949500D01*
X101536653Y-75949499D01*
X101529057Y-75949499D01*
X101370943Y-75949499D01*
X101263587Y-75978265D01*
X101218210Y-75990424D01*
X101218209Y-75990425D01*
X101168096Y-76019359D01*
X101168095Y-76019360D01*
X101143797Y-76033387D01*
X101081800Y-76050000D01*
X99000001Y-76050000D01*
X99000001Y-76199986D01*
X99010494Y-76302697D01*
X99065641Y-76469119D01*
X99065643Y-76469124D01*
X99157684Y-76618345D01*
X99251304Y-76711965D01*
X99284789Y-76773288D01*
X99279805Y-76842980D01*
X99251305Y-76887327D01*
X99157287Y-76981345D01*
X99065187Y-77130663D01*
X99065185Y-77130668D01*
X99042211Y-77200000D01*
X99010001Y-77297203D01*
X99010001Y-77297204D01*
X99010000Y-77297204D01*
X98999500Y-77399983D01*
X98999500Y-78200001D01*
X98999501Y-78200019D01*
X99010000Y-78302796D01*
X99010001Y-78302799D01*
X99026370Y-78352196D01*
X99065186Y-78469334D01*
X99125481Y-78567089D01*
X99157289Y-78618657D01*
X99160795Y-78623091D01*
X99186934Y-78687887D01*
X99173892Y-78756529D01*
X99160795Y-78776909D01*
X99157289Y-78781342D01*
X99065187Y-78930663D01*
X99065185Y-78930668D01*
X99062812Y-78937830D01*
X99010001Y-79097203D01*
X99010001Y-79097204D01*
X99010000Y-79097204D01*
X98999500Y-79199983D01*
X98999500Y-80000001D01*
X98999501Y-80000019D01*
X99010000Y-80102796D01*
X99010001Y-80102799D01*
X99065185Y-80269331D01*
X99065187Y-80269336D01*
X99067513Y-80273107D01*
X99142976Y-80395453D01*
X99157289Y-80418657D01*
X99250950Y-80512318D01*
X99284435Y-80573641D01*
X99279451Y-80643333D01*
X99250950Y-80687680D01*
X99164225Y-80774405D01*
X99102902Y-80807890D01*
X99062661Y-80809944D01*
X98925004Y-80794435D01*
X98924996Y-80794435D01*
X98745750Y-80814630D01*
X98745745Y-80814631D01*
X98575476Y-80874211D01*
X98422737Y-80970184D01*
X98295184Y-81097737D01*
X98199211Y-81250476D01*
X98139631Y-81420745D01*
X98139630Y-81420750D01*
X98119435Y-81599996D01*
X98119435Y-81600000D01*
X98139630Y-81779249D01*
X98139631Y-81779254D01*
X98199211Y-81949523D01*
X98273352Y-82067517D01*
X98295184Y-82102262D01*
X98422738Y-82229816D01*
X98575478Y-82325789D01*
X98575481Y-82325790D01*
X98579302Y-82327631D01*
X98581345Y-82329476D01*
X98581374Y-82329494D01*
X98581370Y-82329498D01*
X98631162Y-82374454D01*
X98649500Y-82439351D01*
X98649500Y-83843942D01*
X98629815Y-83910981D01*
X98590598Y-83949479D01*
X98525971Y-83989342D01*
X98456342Y-84032289D01*
X98332289Y-84156342D01*
X98240187Y-84305663D01*
X98240186Y-84305666D01*
X98185001Y-84472203D01*
X98185001Y-84472204D01*
X98185000Y-84472204D01*
X98174500Y-84574983D01*
X98174500Y-85350001D01*
X98174501Y-85350019D01*
X98185000Y-85452796D01*
X98185001Y-85452799D01*
X98240185Y-85619331D01*
X98240187Y-85619336D01*
X98252645Y-85639534D01*
X98332288Y-85768656D01*
X98456344Y-85892712D01*
X98459628Y-85894737D01*
X98459653Y-85894753D01*
X98461445Y-85896746D01*
X98462011Y-85897193D01*
X98461934Y-85897289D01*
X98506379Y-85946699D01*
X98517603Y-86015661D01*
X98489761Y-86079744D01*
X98459665Y-86105826D01*
X98456660Y-86107679D01*
X98456655Y-86107683D01*
X98332684Y-86231654D01*
X98240643Y-86380875D01*
X98240641Y-86380880D01*
X98185494Y-86547302D01*
X98185493Y-86547309D01*
X98175000Y-86650013D01*
X98175000Y-86787500D01*
X99526000Y-86787500D01*
X99593039Y-86807185D01*
X99638794Y-86859989D01*
X99650000Y-86911500D01*
X99650000Y-88124999D01*
X99924972Y-88124999D01*
X99924986Y-88124998D01*
X100027697Y-88114505D01*
X100194119Y-88059358D01*
X100194124Y-88059356D01*
X100343345Y-87967315D01*
X100467315Y-87843345D01*
X100559356Y-87694124D01*
X100559358Y-87694119D01*
X100614505Y-87527697D01*
X100614506Y-87527689D01*
X100614803Y-87524790D01*
X100615486Y-87523115D01*
X100615924Y-87521071D01*
X100616288Y-87521149D01*
X100641198Y-87460098D01*
X100698378Y-87419946D01*
X100768189Y-87417082D01*
X100825842Y-87449710D01*
X101159086Y-87782954D01*
X101176304Y-87794458D01*
X101232770Y-87832186D01*
X101282005Y-87865084D01*
X101282006Y-87865084D01*
X101282007Y-87865085D01*
X101282009Y-87865086D01*
X101368506Y-87900914D01*
X101418587Y-87921658D01*
X101418591Y-87921658D01*
X101418592Y-87921659D01*
X101563579Y-87950500D01*
X101563582Y-87950500D01*
X101563583Y-87950500D01*
X101711418Y-87950500D01*
X102962192Y-87950500D01*
X103029231Y-87970185D01*
X103074986Y-88022989D01*
X103084930Y-88092147D01*
X103055905Y-88155703D01*
X102997127Y-88193477D01*
X102994330Y-88194262D01*
X102716258Y-88268771D01*
X102716248Y-88268774D01*
X102443709Y-88381664D01*
X102443699Y-88381668D01*
X102188216Y-88529171D01*
X101954169Y-88708762D01*
X101954162Y-88708768D01*
X101745568Y-88917362D01*
X101745562Y-88917369D01*
X101565971Y-89151416D01*
X101418468Y-89406899D01*
X101418464Y-89406909D01*
X101305574Y-89679448D01*
X101305571Y-89679458D01*
X101252433Y-89877775D01*
X101229218Y-89964414D01*
X101229216Y-89964425D01*
X101190710Y-90256896D01*
X101190710Y-90551923D01*
X101210140Y-90699500D01*
X101229217Y-90844403D01*
X101305571Y-91129361D01*
X101305574Y-91129371D01*
X101418464Y-91401910D01*
X101418468Y-91401920D01*
X101565971Y-91657403D01*
X101745562Y-91891450D01*
X101745568Y-91891457D01*
X101954162Y-92100051D01*
X101954169Y-92100057D01*
X102188216Y-92279648D01*
X102443699Y-92427151D01*
X102443700Y-92427151D01*
X102443703Y-92427153D01*
X102716258Y-92540049D01*
X103001217Y-92616403D01*
X103293704Y-92654910D01*
X103293711Y-92654910D01*
X103588709Y-92654910D01*
X103588716Y-92654910D01*
X103881203Y-92616403D01*
X104166162Y-92540049D01*
X104438717Y-92427153D01*
X104694204Y-92279648D01*
X104928252Y-92100056D01*
X105136856Y-91891452D01*
X105316448Y-91657404D01*
X105463953Y-91401917D01*
X105576849Y-91129362D01*
X105653203Y-90844403D01*
X105691710Y-90551916D01*
X105691710Y-90256904D01*
X105663003Y-90038856D01*
X105673768Y-89969822D01*
X105720148Y-89917566D01*
X105787417Y-89898681D01*
X105854218Y-89919161D01*
X105873623Y-89934991D01*
X106913181Y-90974548D01*
X106946666Y-91035871D01*
X106949500Y-91062229D01*
X106949500Y-91397869D01*
X106949501Y-91397876D01*
X106955908Y-91457483D01*
X107006202Y-91592328D01*
X107006206Y-91592335D01*
X107092452Y-91707544D01*
X107092455Y-91707547D01*
X107207664Y-91793793D01*
X107207671Y-91793797D01*
X107342517Y-91844091D01*
X107342516Y-91844091D01*
X107349444Y-91844835D01*
X107402127Y-91850500D01*
X108997872Y-91850499D01*
X109057483Y-91844091D01*
X109192331Y-91793796D01*
X109307546Y-91707546D01*
X109393796Y-91592331D01*
X109444091Y-91457483D01*
X109450500Y-91397873D01*
X109450499Y-89802128D01*
X109444091Y-89742517D01*
X109418530Y-89673985D01*
X109393797Y-89607671D01*
X109393795Y-89607668D01*
X109312584Y-89499185D01*
X109288168Y-89433724D01*
X109303019Y-89365451D01*
X109324168Y-89337198D01*
X111147821Y-87513544D01*
X111209142Y-87480061D01*
X111278834Y-87485045D01*
X111334767Y-87526917D01*
X111359184Y-87592381D01*
X111359500Y-87601227D01*
X111359500Y-87900000D01*
X111359501Y-87900019D01*
X111370000Y-88002796D01*
X111370001Y-88002799D01*
X111425185Y-88169331D01*
X111425187Y-88169336D01*
X111439424Y-88192418D01*
X111517288Y-88318656D01*
X111641344Y-88442712D01*
X111790666Y-88534814D01*
X111957203Y-88589999D01*
X112059991Y-88600500D01*
X112618480Y-88600499D01*
X112685519Y-88620183D01*
X112706161Y-88636818D01*
X113183181Y-89113838D01*
X113216666Y-89175161D01*
X113219500Y-89201519D01*
X113219500Y-89775855D01*
X113229913Y-89877776D01*
X113284637Y-90042922D01*
X113284642Y-90042933D01*
X113375971Y-90190999D01*
X113375974Y-90191003D01*
X113498996Y-90314025D01*
X113499000Y-90314028D01*
X113499703Y-90314462D01*
X113500083Y-90314885D01*
X113504664Y-90318507D01*
X113504045Y-90319289D01*
X113546428Y-90366410D01*
X113557649Y-90435372D01*
X113529806Y-90499454D01*
X113504544Y-90521342D01*
X113504664Y-90521493D01*
X113501315Y-90524140D01*
X113499703Y-90525538D01*
X113499000Y-90525971D01*
X113498996Y-90525974D01*
X113375974Y-90648996D01*
X113375971Y-90649000D01*
X113284642Y-90797066D01*
X113284637Y-90797077D01*
X113229913Y-90962223D01*
X113219500Y-91064144D01*
X113219500Y-91219699D01*
X113199815Y-91286738D01*
X113147011Y-91332493D01*
X113077853Y-91342437D01*
X113022617Y-91320019D01*
X113001527Y-91304697D01*
X112847257Y-91226091D01*
X112682589Y-91172587D01*
X112682581Y-91172585D01*
X112675000Y-91171384D01*
X112675000Y-91929814D01*
X112670606Y-91925420D01*
X112579394Y-91872759D01*
X112477661Y-91845500D01*
X112372339Y-91845500D01*
X112270606Y-91872759D01*
X112179394Y-91925420D01*
X112175000Y-91929814D01*
X112175000Y-91171384D01*
X112174999Y-91171384D01*
X112167418Y-91172585D01*
X112167401Y-91172589D01*
X112112817Y-91190325D01*
X112042976Y-91192320D01*
X111983144Y-91156239D01*
X111952316Y-91093538D01*
X111950500Y-91072394D01*
X111950500Y-89926079D01*
X111921659Y-89781092D01*
X111921658Y-89781091D01*
X111921658Y-89781087D01*
X111919488Y-89775848D01*
X111865087Y-89644511D01*
X111865080Y-89644498D01*
X111782952Y-89521585D01*
X111746205Y-89484838D01*
X111678416Y-89417049D01*
X111618682Y-89357315D01*
X111553306Y-89291938D01*
X111530648Y-89255868D01*
X111528812Y-89256753D01*
X111525792Y-89250483D01*
X111487255Y-89189152D01*
X111429816Y-89097738D01*
X111302262Y-88970184D01*
X111224916Y-88921584D01*
X111149523Y-88874211D01*
X110979254Y-88814631D01*
X110979249Y-88814630D01*
X110800004Y-88794435D01*
X110799996Y-88794435D01*
X110620750Y-88814630D01*
X110620745Y-88814631D01*
X110450476Y-88874211D01*
X110297737Y-88970184D01*
X110170184Y-89097737D01*
X110074211Y-89250476D01*
X110014631Y-89420745D01*
X110014630Y-89420750D01*
X109994435Y-89599996D01*
X109994435Y-89600003D01*
X110014630Y-89779249D01*
X110014631Y-89779254D01*
X110074211Y-89949523D01*
X110170184Y-90102262D01*
X110297740Y-90229818D01*
X110391471Y-90288712D01*
X110437763Y-90341046D01*
X110449500Y-90393706D01*
X110449500Y-94277567D01*
X110429815Y-94344606D01*
X110377011Y-94390361D01*
X110335229Y-94401185D01*
X110198272Y-94411963D01*
X109960950Y-94468940D01*
X109735480Y-94562332D01*
X109527396Y-94689847D01*
X109527393Y-94689848D01*
X109341811Y-94848351D01*
X109183308Y-95033933D01*
X109183307Y-95033936D01*
X109055792Y-95242020D01*
X108962400Y-95467490D01*
X108962398Y-95467497D01*
X108962398Y-95467498D01*
X108961176Y-95472587D01*
X108905423Y-95704812D01*
X108886276Y-95948110D01*
X108905423Y-96191407D01*
X108905423Y-96191410D01*
X108905424Y-96191412D01*
X108934976Y-96314505D01*
X108962400Y-96428729D01*
X109055792Y-96654199D01*
X109147725Y-96804219D01*
X109165970Y-96871665D01*
X109144854Y-96938267D01*
X109091082Y-96982881D01*
X109021726Y-96991341D01*
X109007571Y-96988134D01*
X108601414Y-96870754D01*
X108595868Y-96869009D01*
X107802533Y-96598844D01*
X107797075Y-96596842D01*
X107017232Y-96289771D01*
X107011874Y-96287514D01*
X106247324Y-95944247D01*
X106242077Y-95941742D01*
X105494436Y-95563005D01*
X105489313Y-95560257D01*
X104760255Y-95146899D01*
X104755275Y-95143919D01*
X104046360Y-94696820D01*
X104041524Y-94693609D01*
X104036136Y-94689847D01*
X103354378Y-94213796D01*
X103349692Y-94210358D01*
X103141553Y-94050000D01*
X105350000Y-94050000D01*
X105350000Y-94597844D01*
X105356401Y-94657372D01*
X105356403Y-94657379D01*
X105406645Y-94792086D01*
X105406649Y-94792093D01*
X105492809Y-94907187D01*
X105492812Y-94907190D01*
X105607906Y-94993350D01*
X105607913Y-94993354D01*
X105742620Y-95043596D01*
X105742627Y-95043598D01*
X105802155Y-95049999D01*
X105802172Y-95050000D01*
X106350000Y-95050000D01*
X106350000Y-94050000D01*
X106850000Y-94050000D01*
X106850000Y-95050000D01*
X107397828Y-95050000D01*
X107397844Y-95049999D01*
X107457372Y-95043598D01*
X107457379Y-95043596D01*
X107592086Y-94993354D01*
X107592093Y-94993350D01*
X107707187Y-94907190D01*
X107707190Y-94907187D01*
X107793350Y-94792093D01*
X107793354Y-94792086D01*
X107843596Y-94657379D01*
X107843598Y-94657372D01*
X107849999Y-94597844D01*
X107850000Y-94597827D01*
X107850000Y-94050000D01*
X106850000Y-94050000D01*
X106350000Y-94050000D01*
X105350000Y-94050000D01*
X103141553Y-94050000D01*
X102685784Y-93698859D01*
X102681267Y-93695208D01*
X102635155Y-93656104D01*
X102510035Y-93550000D01*
X105350000Y-93550000D01*
X106350000Y-93550000D01*
X106350000Y-92550000D01*
X106850000Y-92550000D01*
X106850000Y-93550000D01*
X107850000Y-93550000D01*
X107850000Y-93002172D01*
X107849999Y-93002155D01*
X107843598Y-92942627D01*
X107843596Y-92942620D01*
X107793354Y-92807913D01*
X107793350Y-92807906D01*
X107707190Y-92692812D01*
X107707187Y-92692809D01*
X107592093Y-92606649D01*
X107592086Y-92606645D01*
X107457379Y-92556403D01*
X107457372Y-92556401D01*
X107397844Y-92550000D01*
X106850000Y-92550000D01*
X106350000Y-92550000D01*
X105802155Y-92550000D01*
X105742627Y-92556401D01*
X105742620Y-92556403D01*
X105607913Y-92606645D01*
X105607906Y-92606649D01*
X105492812Y-92692809D01*
X105492809Y-92692812D01*
X105406649Y-92807906D01*
X105406645Y-92807913D01*
X105356403Y-92942620D01*
X105356401Y-92942627D01*
X105350000Y-93002155D01*
X105350000Y-93550000D01*
X102510035Y-93550000D01*
X102042053Y-93153143D01*
X102037736Y-93149306D01*
X101424616Y-92577860D01*
X101420463Y-92573803D01*
X101403466Y-92556403D01*
X100951004Y-92093206D01*
X100834834Y-91974280D01*
X100830886Y-91970045D01*
X100273952Y-91343677D01*
X100270218Y-91339272D01*
X100264737Y-91332493D01*
X99870123Y-90844405D01*
X99743301Y-90687542D01*
X99739753Y-90682937D01*
X99563213Y-90442331D01*
X99243950Y-90007209D01*
X99240643Y-90002474D01*
X98777045Y-89304228D01*
X98773952Y-89299324D01*
X98773951Y-89299323D01*
X98343601Y-88580133D01*
X98340738Y-88575081D01*
X97944590Y-87836547D01*
X97941968Y-87831371D01*
X97895292Y-87733611D01*
X97682294Y-87287500D01*
X98175001Y-87287500D01*
X98175001Y-87424986D01*
X98185494Y-87527697D01*
X98240641Y-87694119D01*
X98240643Y-87694124D01*
X98332684Y-87843345D01*
X98456654Y-87967315D01*
X98605875Y-88059356D01*
X98605880Y-88059358D01*
X98772302Y-88114505D01*
X98772309Y-88114506D01*
X98875019Y-88124999D01*
X99149999Y-88124999D01*
X99150000Y-88124998D01*
X99150000Y-87287500D01*
X98175001Y-87287500D01*
X97682294Y-87287500D01*
X97580845Y-87075021D01*
X97578480Y-87069753D01*
X97253213Y-86297325D01*
X97251089Y-86291930D01*
X97242388Y-86268217D01*
X96962388Y-85505114D01*
X96960516Y-85499616D01*
X96913455Y-85350019D01*
X96709018Y-84700152D01*
X96707405Y-84694568D01*
X96679164Y-84587500D01*
X96493652Y-83884178D01*
X96492313Y-83878574D01*
X96316768Y-83059007D01*
X96315693Y-83053340D01*
X96178759Y-82226452D01*
X96177953Y-82220761D01*
X96079924Y-81388343D01*
X96079387Y-81382624D01*
X96020487Y-80546584D01*
X96020215Y-80540781D01*
X96016807Y-80395453D01*
X96000568Y-79702899D01*
X96000568Y-79697093D01*
X96003767Y-79560692D01*
X96020215Y-78859213D01*
X96020488Y-78853411D01*
X96021787Y-78834976D01*
X96079387Y-78017371D01*
X96079924Y-78011660D01*
X96177954Y-77179232D01*
X96178758Y-77173553D01*
X96315694Y-76346652D01*
X96316767Y-76340999D01*
X96486193Y-75550000D01*
X99000000Y-75550000D01*
X99950000Y-75550000D01*
X99950000Y-74700000D01*
X99700029Y-74700000D01*
X99700012Y-74700001D01*
X99597302Y-74710494D01*
X99430880Y-74765641D01*
X99430875Y-74765643D01*
X99281654Y-74857684D01*
X99157684Y-74981654D01*
X99065643Y-75130875D01*
X99065641Y-75130880D01*
X99010494Y-75297302D01*
X99010493Y-75297309D01*
X99000000Y-75400013D01*
X99000000Y-75550000D01*
X96486193Y-75550000D01*
X96492315Y-75521416D01*
X96493649Y-75515831D01*
X96707408Y-74705419D01*
X96709019Y-74699846D01*
X96721525Y-74660093D01*
X96960522Y-73900365D01*
X96962383Y-73894897D01*
X97251100Y-73108040D01*
X97253207Y-73102689D01*
X97362513Y-72843113D01*
X97406671Y-72788969D01*
X97473093Y-72767293D01*
X97540690Y-72784969D01*
G37*
%TD.AperFunction*%
%TA.AperFunction,Conductor*%
G36*
X117292539Y-86869685D02*
G01*
X117338294Y-86922489D01*
X117349500Y-86974000D01*
X117349500Y-87647870D01*
X117349501Y-87647876D01*
X117355908Y-87707483D01*
X117399662Y-87824792D01*
X117406204Y-87842331D01*
X117425266Y-87867794D01*
X117449684Y-87933258D01*
X117450000Y-87942106D01*
X117450000Y-88100000D01*
X117547828Y-88100000D01*
X117547844Y-88099999D01*
X117607372Y-88093598D01*
X117607375Y-88093597D01*
X117630949Y-88084805D01*
X117700640Y-88079819D01*
X117717619Y-88084805D01*
X117742511Y-88094089D01*
X117742517Y-88094091D01*
X117802127Y-88100500D01*
X118037768Y-88100499D01*
X118104808Y-88120183D01*
X118125450Y-88136818D01*
X118476451Y-88487819D01*
X118509936Y-88549142D01*
X118504952Y-88618834D01*
X118463080Y-88674767D01*
X118397616Y-88699184D01*
X118388770Y-88699500D01*
X117802129Y-88699500D01*
X117802123Y-88699501D01*
X117742516Y-88705908D01*
X117607671Y-88756202D01*
X117607664Y-88756206D01*
X117492455Y-88842452D01*
X117492452Y-88842455D01*
X117406206Y-88957664D01*
X117406202Y-88957671D01*
X117355908Y-89092517D01*
X117350966Y-89138490D01*
X117349501Y-89152123D01*
X117349500Y-89152135D01*
X117349500Y-90059481D01*
X117329815Y-90126520D01*
X117277011Y-90172275D01*
X117207853Y-90182219D01*
X117144297Y-90153194D01*
X117137819Y-90147162D01*
X117086818Y-90096161D01*
X117053333Y-90034838D01*
X117050499Y-90008480D01*
X117050499Y-89152129D01*
X117050498Y-89152123D01*
X117050497Y-89152116D01*
X117044091Y-89092517D01*
X117032942Y-89062626D01*
X116993797Y-88957671D01*
X116993793Y-88957664D01*
X116907547Y-88842455D01*
X116907544Y-88842452D01*
X116792335Y-88756206D01*
X116792328Y-88756202D01*
X116657486Y-88705910D01*
X116657485Y-88705909D01*
X116657483Y-88705909D01*
X116597873Y-88699500D01*
X116597863Y-88699500D01*
X115902129Y-88699500D01*
X115902123Y-88699501D01*
X115842516Y-88705908D01*
X115707671Y-88756202D01*
X115707669Y-88756204D01*
X115642100Y-88805289D01*
X115576636Y-88829706D01*
X115508363Y-88814855D01*
X115470009Y-88778475D01*
X115468507Y-88779664D01*
X115464025Y-88773996D01*
X115341004Y-88650975D01*
X115341003Y-88650974D01*
X115307103Y-88630064D01*
X115260381Y-88578118D01*
X115249158Y-88509155D01*
X115277002Y-88445073D01*
X115284499Y-88436868D01*
X115402712Y-88318656D01*
X115494814Y-88169334D01*
X115494815Y-88169331D01*
X115498605Y-88163187D01*
X115500399Y-88164293D01*
X115539687Y-88119663D01*
X115605908Y-88100500D01*
X116070348Y-88100500D01*
X116070357Y-88100499D01*
X116597871Y-88100499D01*
X116597872Y-88100499D01*
X116657483Y-88094091D01*
X116682380Y-88084804D01*
X116752070Y-88079819D01*
X116769049Y-88084805D01*
X116792619Y-88093596D01*
X116792627Y-88093598D01*
X116852155Y-88099999D01*
X116852172Y-88100000D01*
X116950000Y-88100000D01*
X116950000Y-87942106D01*
X116969685Y-87875067D01*
X116974734Y-87867794D01*
X116993796Y-87842331D01*
X117044091Y-87707483D01*
X117050500Y-87647873D01*
X117050499Y-86973998D01*
X117070183Y-86906961D01*
X117122987Y-86861206D01*
X117174499Y-86850000D01*
X117225500Y-86850000D01*
X117292539Y-86869685D01*
G37*
%TD.AperFunction*%
%TA.AperFunction,Conductor*%
G36*
X131388904Y-77453061D02*
G01*
X131388905Y-77453061D01*
X131512741Y-77250980D01*
X131512743Y-77250977D01*
X131576272Y-77097604D01*
X131620113Y-77043200D01*
X131686407Y-77021135D01*
X131754106Y-77038414D01*
X131801717Y-77089551D01*
X131813167Y-77124796D01*
X131821235Y-77173513D01*
X131822050Y-77179270D01*
X131920071Y-78011622D01*
X131920615Y-78017411D01*
X131979511Y-78853411D01*
X131979784Y-78859218D01*
X131999431Y-79697093D01*
X131999431Y-79702907D01*
X131979784Y-80540781D01*
X131979511Y-80546588D01*
X131920615Y-81382588D01*
X131920071Y-81388377D01*
X131822050Y-82220729D01*
X131821235Y-82226485D01*
X131684310Y-83053317D01*
X131683226Y-83059029D01*
X131507692Y-83878549D01*
X131506341Y-83884203D01*
X131292594Y-84694568D01*
X131290980Y-84700153D01*
X131039483Y-85499616D01*
X131037609Y-85505120D01*
X130748913Y-86291922D01*
X130746783Y-86297332D01*
X130627052Y-86581662D01*
X130582893Y-86635807D01*
X130516470Y-86657483D01*
X130448873Y-86639807D01*
X130418481Y-86614070D01*
X130314664Y-86492517D01*
X130258469Y-86426721D01*
X130100649Y-86291930D01*
X130072886Y-86268218D01*
X130072883Y-86268217D01*
X129864799Y-86140702D01*
X129639328Y-86047310D01*
X129639331Y-86047310D01*
X129552764Y-86026527D01*
X129402012Y-85990334D01*
X129402008Y-85990333D01*
X129397274Y-85989197D01*
X129397722Y-85987328D01*
X129341954Y-85960882D01*
X129305031Y-85901565D01*
X129300500Y-85868350D01*
X129300500Y-78065890D01*
X129320185Y-77998851D01*
X129372989Y-77953096D01*
X129442147Y-77943152D01*
X129471953Y-77951329D01*
X129646952Y-78023816D01*
X129884190Y-78080771D01*
X129884189Y-78080771D01*
X130127410Y-78099912D01*
X130370629Y-78080771D01*
X130607867Y-78023816D01*
X130833271Y-77930451D01*
X131035351Y-77806615D01*
X131035351Y-77806614D01*
X130413166Y-77184429D01*
X130458984Y-77165452D01*
X130573634Y-77088846D01*
X130671136Y-76991344D01*
X130747742Y-76876694D01*
X130766719Y-76830876D01*
X131388904Y-77453061D01*
G37*
%TD.AperFunction*%
%TA.AperFunction,Conductor*%
G36*
X127860355Y-84141506D02*
G01*
X127895769Y-84201735D01*
X127899500Y-84231925D01*
X127899500Y-84988074D01*
X127879815Y-85055113D01*
X127827011Y-85100868D01*
X127757853Y-85110812D01*
X127694297Y-85081787D01*
X127673926Y-85059198D01*
X127638495Y-85008598D01*
X127471402Y-84841506D01*
X127471396Y-84841501D01*
X127285842Y-84711575D01*
X127242217Y-84656998D01*
X127235023Y-84587500D01*
X127266546Y-84525145D01*
X127285842Y-84508425D01*
X127337572Y-84472203D01*
X127471401Y-84378495D01*
X127638495Y-84211401D01*
X127673925Y-84160802D01*
X127728502Y-84117177D01*
X127798000Y-84109983D01*
X127860355Y-84141506D01*
G37*
%TD.AperFunction*%
%TA.AperFunction,Conductor*%
G36*
X116605703Y-81063596D02*
G01*
X116609941Y-81067543D01*
X116610632Y-81068078D01*
X116610635Y-81068081D01*
X116752102Y-81151744D01*
X116771257Y-81157309D01*
X116909926Y-81197597D01*
X116909929Y-81197597D01*
X116909931Y-81197598D01*
X116946806Y-81200500D01*
X116946814Y-81200500D01*
X118253186Y-81200500D01*
X118253194Y-81200500D01*
X118290069Y-81197598D01*
X118290071Y-81197597D01*
X118290073Y-81197597D01*
X118331691Y-81185505D01*
X118447898Y-81151744D01*
X118506194Y-81117268D01*
X118569315Y-81100000D01*
X119601000Y-81100000D01*
X119668039Y-81119685D01*
X119713794Y-81172489D01*
X119725000Y-81224000D01*
X119725000Y-82150000D01*
X120100500Y-82150000D01*
X120167539Y-82169685D01*
X120213294Y-82222489D01*
X120224500Y-82274000D01*
X120224500Y-82381616D01*
X120225528Y-82392923D01*
X120230913Y-82452192D01*
X120230913Y-82452194D01*
X120230914Y-82452196D01*
X120267771Y-82570478D01*
X120281523Y-82614608D01*
X120295989Y-82638538D01*
X120313825Y-82706092D01*
X120292307Y-82772566D01*
X120277554Y-82790368D01*
X120170183Y-82897739D01*
X120074211Y-83050476D01*
X120014631Y-83220745D01*
X120014630Y-83220750D01*
X119994435Y-83399996D01*
X119994435Y-83400003D01*
X120014630Y-83579249D01*
X120014633Y-83579262D01*
X120076510Y-83756094D01*
X120074364Y-83756844D01*
X120083962Y-83815144D01*
X120075609Y-83843590D01*
X120076510Y-83843906D01*
X120014633Y-84020737D01*
X120014630Y-84020750D01*
X119994435Y-84199996D01*
X119994435Y-84200003D01*
X120014631Y-84379255D01*
X120014683Y-84379482D01*
X120014673Y-84379631D01*
X120015411Y-84386175D01*
X120014264Y-84386304D01*
X120010400Y-84449220D01*
X119969095Y-84505573D01*
X119903880Y-84530648D01*
X119835460Y-84516484D01*
X119806107Y-84494740D01*
X119128421Y-83817052D01*
X119128414Y-83817046D01*
X119038555Y-83757005D01*
X119038554Y-83757005D01*
X119005500Y-83734919D01*
X119005488Y-83734912D01*
X118868917Y-83678343D01*
X118868907Y-83678340D01*
X118723920Y-83649500D01*
X118723918Y-83649500D01*
X118275019Y-83649500D01*
X118207980Y-83629815D01*
X118162225Y-83577011D01*
X118152281Y-83507853D01*
X118160458Y-83478047D01*
X118168976Y-83457482D01*
X118239920Y-83286210D01*
X118280290Y-83083255D01*
X118280290Y-82876325D01*
X118239920Y-82673370D01*
X118160731Y-82482192D01*
X118045767Y-82310135D01*
X118045765Y-82310132D01*
X117899447Y-82163814D01*
X117759043Y-82070000D01*
X117727388Y-82048849D01*
X117724131Y-82047500D01*
X117536210Y-81969660D01*
X117536202Y-81969658D01*
X117333259Y-81929290D01*
X117333255Y-81929290D01*
X117126325Y-81929290D01*
X117126320Y-81929290D01*
X116923377Y-81969658D01*
X116923369Y-81969660D01*
X116732193Y-82048848D01*
X116560134Y-82163813D01*
X116546187Y-82177760D01*
X116484863Y-82211243D01*
X116415171Y-82206257D01*
X116359239Y-82164384D01*
X116345431Y-82140964D01*
X116343017Y-82135600D01*
X116255072Y-81990122D01*
X116152984Y-81888034D01*
X116119499Y-81826711D01*
X116124483Y-81757019D01*
X116152983Y-81712673D01*
X116255472Y-81610185D01*
X116261628Y-81600001D01*
X118240204Y-81600001D01*
X118240399Y-81602486D01*
X118286218Y-81760198D01*
X118369814Y-81901552D01*
X118369821Y-81901561D01*
X118485938Y-82017678D01*
X118485947Y-82017685D01*
X118627303Y-82101282D01*
X118627306Y-82101283D01*
X118785004Y-82147099D01*
X118785010Y-82147100D01*
X118821850Y-82149999D01*
X118821866Y-82150000D01*
X119225000Y-82150000D01*
X119225000Y-81600000D01*
X118240205Y-81600000D01*
X118240204Y-81600001D01*
X116261628Y-81600001D01*
X116343478Y-81464606D01*
X116394086Y-81302196D01*
X116400500Y-81231616D01*
X116400500Y-81157309D01*
X116420185Y-81090270D01*
X116472989Y-81044515D01*
X116542147Y-81034571D01*
X116605703Y-81063596D01*
G37*
%TD.AperFunction*%
%TA.AperFunction,Conductor*%
G36*
X109765816Y-76227355D02*
G01*
X109821749Y-76269227D01*
X109846166Y-76334691D01*
X109844099Y-76367728D01*
X109815330Y-76512360D01*
X109815330Y-76719299D01*
X109855698Y-76922242D01*
X109855700Y-76922250D01*
X109934429Y-77112319D01*
X109934889Y-77113428D01*
X109976953Y-77176382D01*
X110049854Y-77285487D01*
X110196172Y-77431805D01*
X110196175Y-77431807D01*
X110368232Y-77546771D01*
X110559410Y-77625960D01*
X110600195Y-77634072D01*
X110639655Y-77641922D01*
X110701566Y-77674306D01*
X110736140Y-77735022D01*
X110738684Y-77777422D01*
X110736890Y-77793337D01*
X111100000Y-78156446D01*
X111100001Y-78156446D01*
X111463107Y-77793338D01*
X112136891Y-77793338D01*
X112500000Y-78156446D01*
X112500001Y-78156446D01*
X112863107Y-77793338D01*
X112849304Y-77784665D01*
X112679138Y-77725121D01*
X112500003Y-77704938D01*
X112499997Y-77704938D01*
X112320861Y-77725121D01*
X112320858Y-77725122D01*
X112150701Y-77784662D01*
X112150691Y-77784667D01*
X112136891Y-77793337D01*
X112136891Y-77793338D01*
X111463107Y-77793338D01*
X111449301Y-77784663D01*
X111393842Y-77765257D01*
X111337066Y-77724535D01*
X111311319Y-77659583D01*
X111324776Y-77591021D01*
X111365903Y-77545116D01*
X111535485Y-77431807D01*
X111681807Y-77285485D01*
X111796771Y-77113428D01*
X111875960Y-76922250D01*
X111916330Y-76719295D01*
X111916330Y-76512365D01*
X111905455Y-76457692D01*
X111911682Y-76388100D01*
X111954545Y-76332923D01*
X112020435Y-76309678D01*
X112074525Y-76318939D01*
X112081087Y-76321658D01*
X112081092Y-76321659D01*
X112226079Y-76350500D01*
X112226082Y-76350500D01*
X116073920Y-76350500D01*
X116171462Y-76331096D01*
X116218913Y-76321658D01*
X116228046Y-76317874D01*
X116297514Y-76310405D01*
X116359994Y-76341678D01*
X116395648Y-76401766D01*
X116399500Y-76432435D01*
X116399500Y-76631613D01*
X116405913Y-76702192D01*
X116405913Y-76702194D01*
X116405914Y-76702196D01*
X116456522Y-76864606D01*
X116463829Y-76876694D01*
X116544530Y-77010188D01*
X116646661Y-77112319D01*
X116680146Y-77173642D01*
X116675162Y-77243334D01*
X116646661Y-77287681D01*
X116544531Y-77389810D01*
X116544530Y-77389811D01*
X116456520Y-77535397D01*
X116453443Y-77542235D01*
X116451227Y-77541238D01*
X116419009Y-77589593D01*
X116354982Y-77617561D01*
X116285997Y-77606474D01*
X116258837Y-77588838D01*
X116257731Y-77587893D01*
X116257729Y-77587891D01*
X116132421Y-77480868D01*
X116072146Y-77429388D01*
X116072143Y-77429387D01*
X115864059Y-77301872D01*
X115638588Y-77208480D01*
X115638591Y-77208480D01*
X115516924Y-77179270D01*
X115401272Y-77151504D01*
X115401270Y-77151503D01*
X115401267Y-77151503D01*
X115157970Y-77132356D01*
X114914672Y-77151503D01*
X114914668Y-77151504D01*
X114744448Y-77192371D01*
X114677350Y-77208480D01*
X114451880Y-77301872D01*
X114243796Y-77429387D01*
X114243793Y-77429388D01*
X114058211Y-77587891D01*
X113899708Y-77773473D01*
X113899707Y-77773476D01*
X113772192Y-77981560D01*
X113678800Y-78207030D01*
X113678798Y-78207037D01*
X113678798Y-78207038D01*
X113663639Y-78270178D01*
X113621823Y-78444352D01*
X113602676Y-78687650D01*
X113621823Y-78930947D01*
X113621823Y-78930950D01*
X113621824Y-78930952D01*
X113669948Y-79131401D01*
X113678800Y-79168269D01*
X113772192Y-79393739D01*
X113899707Y-79601823D01*
X113899708Y-79601826D01*
X113899710Y-79601828D01*
X113899711Y-79601829D01*
X114058211Y-79787409D01*
X114243791Y-79945909D01*
X114243793Y-79945910D01*
X114243794Y-79945911D01*
X114451881Y-80073427D01*
X114451884Y-80073429D01*
X114569658Y-80122212D01*
X114624062Y-80166053D01*
X114646127Y-80232347D01*
X114628848Y-80300046D01*
X114609889Y-80324452D01*
X114594530Y-80339811D01*
X114506522Y-80485393D01*
X114455913Y-80647807D01*
X114455052Y-80657288D01*
X114449500Y-80718384D01*
X114449500Y-81231616D01*
X114450671Y-81244505D01*
X114455913Y-81302192D01*
X114455913Y-81302194D01*
X114455914Y-81302196D01*
X114506522Y-81464606D01*
X114589281Y-81601506D01*
X114594530Y-81610188D01*
X114697015Y-81712673D01*
X114730500Y-81773996D01*
X114725516Y-81843688D01*
X114697015Y-81888035D01*
X114594928Y-81990121D01*
X114594927Y-81990122D01*
X114506980Y-82135604D01*
X114456409Y-82297893D01*
X114450000Y-82368427D01*
X114450000Y-82375000D01*
X115551000Y-82375000D01*
X115618039Y-82394685D01*
X115663794Y-82447489D01*
X115675000Y-82499000D01*
X115675000Y-82751000D01*
X115655315Y-82818039D01*
X115602511Y-82863794D01*
X115551000Y-82875000D01*
X114450001Y-82875000D01*
X114450001Y-82881582D01*
X114456408Y-82952102D01*
X114456409Y-82952107D01*
X114506981Y-83114396D01*
X114594927Y-83259877D01*
X114715122Y-83380072D01*
X114780150Y-83419383D01*
X114827338Y-83470911D01*
X114839176Y-83539771D01*
X114811907Y-83604099D01*
X114754188Y-83643473D01*
X114716000Y-83649500D01*
X111951067Y-83649500D01*
X111884028Y-83629815D01*
X111838273Y-83577011D01*
X111828329Y-83507853D01*
X111834885Y-83482168D01*
X111844090Y-83457485D01*
X111844091Y-83457483D01*
X111844903Y-83449932D01*
X111850500Y-83397873D01*
X111850499Y-81802128D01*
X111844844Y-81749525D01*
X111844091Y-81742516D01*
X111793797Y-81607671D01*
X111793793Y-81607664D01*
X111791036Y-81603981D01*
X111766619Y-81538517D01*
X111781471Y-81470244D01*
X111830876Y-81420839D01*
X111876420Y-81406451D01*
X111979137Y-81394878D01*
X111979141Y-81394877D01*
X112149305Y-81335334D01*
X112149306Y-81335334D01*
X112163106Y-81326661D01*
X112163106Y-81326660D01*
X111800001Y-80963553D01*
X111800000Y-80963553D01*
X111450371Y-81313181D01*
X111389048Y-81346666D01*
X111362690Y-81349500D01*
X109802129Y-81349500D01*
X109802123Y-81349501D01*
X109742516Y-81355908D01*
X109607671Y-81406202D01*
X109607664Y-81406206D01*
X109492455Y-81492452D01*
X109492452Y-81492455D01*
X109406206Y-81607664D01*
X109406202Y-81607671D01*
X109355908Y-81742517D01*
X109351959Y-81779254D01*
X109349501Y-81802123D01*
X109349500Y-81802135D01*
X109349500Y-83137769D01*
X109329815Y-83204808D01*
X109313181Y-83225450D01*
X108770130Y-83768500D01*
X108708807Y-83801985D01*
X108639115Y-83797001D01*
X108583182Y-83755129D01*
X108558765Y-83689665D01*
X108573617Y-83621392D01*
X108583185Y-83606505D01*
X108584986Y-83604099D01*
X108593796Y-83592331D01*
X108644091Y-83457483D01*
X108650500Y-83397873D01*
X108650499Y-81802128D01*
X108644844Y-81749525D01*
X108644091Y-81742516D01*
X108593797Y-81607671D01*
X108593793Y-81607664D01*
X108507547Y-81492455D01*
X108507544Y-81492452D01*
X108392335Y-81406206D01*
X108392328Y-81406202D01*
X108257482Y-81355908D01*
X108257483Y-81355908D01*
X108197883Y-81349501D01*
X108197881Y-81349500D01*
X108197873Y-81349500D01*
X108197864Y-81349500D01*
X106602129Y-81349500D01*
X106602123Y-81349501D01*
X106542516Y-81355908D01*
X106407671Y-81406202D01*
X106407664Y-81406206D01*
X106292455Y-81492452D01*
X106292452Y-81492455D01*
X106206206Y-81607664D01*
X106206202Y-81607671D01*
X106155908Y-81742517D01*
X106154126Y-81750062D01*
X106151853Y-81749525D01*
X106129571Y-81803312D01*
X106072177Y-81843157D01*
X106033024Y-81849500D01*
X105496080Y-81849500D01*
X105351092Y-81878340D01*
X105351082Y-81878343D01*
X105214511Y-81934912D01*
X105214498Y-81934919D01*
X105091587Y-82017046D01*
X105091582Y-82017050D01*
X104941935Y-82166695D01*
X104905869Y-82189361D01*
X104906750Y-82191191D01*
X104900475Y-82194212D01*
X104747737Y-82290184D01*
X104620184Y-82417737D01*
X104524211Y-82570476D01*
X104464631Y-82740745D01*
X104464630Y-82740750D01*
X104444435Y-82919996D01*
X104444435Y-82920003D01*
X104464630Y-83099249D01*
X104464632Y-83099257D01*
X104498850Y-83197046D01*
X104502411Y-83266824D01*
X104467682Y-83327452D01*
X104405689Y-83359679D01*
X104381808Y-83362000D01*
X103499972Y-83362000D01*
X103459017Y-83355042D01*
X103379254Y-83327131D01*
X103379249Y-83327130D01*
X103344540Y-83323220D01*
X103280126Y-83296154D01*
X103240571Y-83238559D01*
X103238433Y-83168722D01*
X103274391Y-83108816D01*
X103337029Y-83077860D01*
X103344540Y-83076780D01*
X103379249Y-83072869D01*
X103379252Y-83072868D01*
X103379255Y-83072868D01*
X103549522Y-83013289D01*
X103702262Y-82917316D01*
X103829816Y-82789762D01*
X103925789Y-82637022D01*
X103985368Y-82466755D01*
X103985369Y-82466749D01*
X104005565Y-82287503D01*
X104005565Y-82287496D01*
X103990073Y-82150000D01*
X103985368Y-82108245D01*
X103957458Y-82028482D01*
X103950500Y-81987528D01*
X103950500Y-81962229D01*
X103970185Y-81895190D01*
X103986819Y-81874548D01*
X105234706Y-80626661D01*
X110736892Y-80626661D01*
X110750692Y-80635333D01*
X110750691Y-80635333D01*
X110920862Y-80694878D01*
X110921644Y-80695057D01*
X110922097Y-80695310D01*
X110927431Y-80697177D01*
X110927104Y-80698111D01*
X110982623Y-80729166D01*
X111011952Y-80782874D01*
X111012822Y-80782570D01*
X111014670Y-80787852D01*
X111014940Y-80788346D01*
X111015121Y-80789142D01*
X111074663Y-80959300D01*
X111074663Y-80959301D01*
X111083338Y-80973107D01*
X111416609Y-80639837D01*
X111650000Y-80639837D01*
X111672836Y-80694968D01*
X111715032Y-80737164D01*
X111770163Y-80760000D01*
X111829837Y-80760000D01*
X111884968Y-80737164D01*
X111927164Y-80694968D01*
X111950000Y-80639837D01*
X111950000Y-80610000D01*
X112153553Y-80610000D01*
X112516660Y-80973106D01*
X112516661Y-80973106D01*
X112525334Y-80959306D01*
X112525334Y-80959305D01*
X112584876Y-80789144D01*
X112585056Y-80788358D01*
X112585311Y-80787901D01*
X112587177Y-80782570D01*
X112588110Y-80782896D01*
X112619164Y-80727379D01*
X112672875Y-80698049D01*
X112672570Y-80697177D01*
X112677870Y-80695322D01*
X112678358Y-80695056D01*
X112679144Y-80694876D01*
X112849305Y-80635334D01*
X112849306Y-80635334D01*
X112863106Y-80626661D01*
X112863106Y-80626660D01*
X112500000Y-80263553D01*
X112434240Y-80329314D01*
X112434239Y-80329314D01*
X112153553Y-80609999D01*
X112153553Y-80610000D01*
X111950000Y-80610000D01*
X111950000Y-80580163D01*
X111927164Y-80525032D01*
X111884968Y-80482836D01*
X111829837Y-80460000D01*
X111770163Y-80460000D01*
X111715032Y-80482836D01*
X111672836Y-80525032D01*
X111650000Y-80580163D01*
X111650000Y-80639837D01*
X111416609Y-80639837D01*
X111446446Y-80610000D01*
X111099999Y-80263553D01*
X111099998Y-80263553D01*
X110736892Y-80626660D01*
X110736892Y-80626661D01*
X105234706Y-80626661D01*
X105951365Y-79910002D01*
X110294938Y-79910002D01*
X110315121Y-80089138D01*
X110374665Y-80259304D01*
X110383338Y-80273107D01*
X110716609Y-79939837D01*
X110950000Y-79939837D01*
X110972836Y-79994968D01*
X111015032Y-80037164D01*
X111070163Y-80060000D01*
X111129837Y-80060000D01*
X111184968Y-80037164D01*
X111227164Y-79994968D01*
X111250000Y-79939837D01*
X111250000Y-79910000D01*
X111453553Y-79910000D01*
X111489462Y-79945908D01*
X111800000Y-80256446D01*
X112116609Y-79939837D01*
X112350000Y-79939837D01*
X112372836Y-79994968D01*
X112415032Y-80037164D01*
X112470163Y-80060000D01*
X112529837Y-80060000D01*
X112584968Y-80037164D01*
X112627164Y-79994968D01*
X112650000Y-79939837D01*
X112650000Y-79910000D01*
X112853553Y-79910000D01*
X113216660Y-80273106D01*
X113216661Y-80273106D01*
X113225334Y-80259306D01*
X113225334Y-80259305D01*
X113284877Y-80089141D01*
X113284878Y-80089138D01*
X113305062Y-79910002D01*
X113305062Y-79909997D01*
X113284878Y-79730861D01*
X113225333Y-79560692D01*
X113216661Y-79546892D01*
X113216660Y-79546892D01*
X112853553Y-79910000D01*
X112650000Y-79910000D01*
X112650000Y-79880163D01*
X112627164Y-79825032D01*
X112584968Y-79782836D01*
X112529837Y-79760000D01*
X112470163Y-79760000D01*
X112415032Y-79782836D01*
X112372836Y-79825032D01*
X112350000Y-79880163D01*
X112350000Y-79939837D01*
X112116609Y-79939837D01*
X112146446Y-79910000D01*
X111838274Y-79601828D01*
X111800000Y-79563553D01*
X111761726Y-79601828D01*
X111761725Y-79601829D01*
X111453553Y-79910000D01*
X111250000Y-79910000D01*
X111250000Y-79880163D01*
X111227164Y-79825032D01*
X111184968Y-79782836D01*
X111129837Y-79760000D01*
X111070163Y-79760000D01*
X111015032Y-79782836D01*
X110972836Y-79825032D01*
X110950000Y-79880163D01*
X110950000Y-79939837D01*
X110716609Y-79939837D01*
X110746446Y-79910000D01*
X110746446Y-79909999D01*
X110383338Y-79546891D01*
X110383337Y-79546891D01*
X110374667Y-79560691D01*
X110374662Y-79560701D01*
X110315122Y-79730858D01*
X110315121Y-79730861D01*
X110294938Y-79909997D01*
X110294938Y-79910002D01*
X105951365Y-79910002D01*
X106651366Y-79210001D01*
X110753553Y-79210001D01*
X111099998Y-79556446D01*
X111099999Y-79556446D01*
X111388929Y-79267517D01*
X111416609Y-79239837D01*
X111650000Y-79239837D01*
X111672836Y-79294968D01*
X111715032Y-79337164D01*
X111770163Y-79360000D01*
X111829837Y-79360000D01*
X111884968Y-79337164D01*
X111927164Y-79294968D01*
X111950000Y-79239837D01*
X111950000Y-79210000D01*
X112153553Y-79210000D01*
X112211071Y-79267517D01*
X112500000Y-79556446D01*
X112846446Y-79210000D01*
X112846446Y-79209999D01*
X112500000Y-78863553D01*
X112434240Y-78929314D01*
X112434239Y-78929314D01*
X112153553Y-79210000D01*
X111950000Y-79210000D01*
X111950000Y-79180163D01*
X111927164Y-79125032D01*
X111884968Y-79082836D01*
X111829837Y-79060000D01*
X111770163Y-79060000D01*
X111715032Y-79082836D01*
X111672836Y-79125032D01*
X111650000Y-79180163D01*
X111650000Y-79239837D01*
X111416609Y-79239837D01*
X111446446Y-79210000D01*
X111099999Y-78863553D01*
X111099998Y-78863553D01*
X110753553Y-79209999D01*
X110753553Y-79210001D01*
X106651366Y-79210001D01*
X106782950Y-79078417D01*
X106782952Y-79078415D01*
X106836324Y-78998537D01*
X106865084Y-78955495D01*
X106892213Y-78889999D01*
X106921659Y-78818912D01*
X106950500Y-78673917D01*
X106950500Y-78526082D01*
X106950500Y-78510002D01*
X110294938Y-78510002D01*
X110315121Y-78689138D01*
X110374665Y-78859304D01*
X110383338Y-78873107D01*
X110716609Y-78539837D01*
X110950000Y-78539837D01*
X110972836Y-78594968D01*
X111015032Y-78637164D01*
X111070163Y-78660000D01*
X111129837Y-78660000D01*
X111184968Y-78637164D01*
X111227164Y-78594968D01*
X111250000Y-78539837D01*
X111250000Y-78509999D01*
X111453553Y-78509999D01*
X111800000Y-78856446D01*
X112089358Y-78567089D01*
X112116609Y-78539837D01*
X112350000Y-78539837D01*
X112372836Y-78594968D01*
X112415032Y-78637164D01*
X112470163Y-78660000D01*
X112529837Y-78660000D01*
X112584968Y-78637164D01*
X112627164Y-78594968D01*
X112650000Y-78539837D01*
X112650000Y-78510000D01*
X112853553Y-78510000D01*
X113216660Y-78873106D01*
X113216661Y-78873106D01*
X113225334Y-78859306D01*
X113225334Y-78859305D01*
X113284877Y-78689141D01*
X113284878Y-78689138D01*
X113305062Y-78510002D01*
X113305062Y-78509997D01*
X113284878Y-78330861D01*
X113225333Y-78160692D01*
X113216661Y-78146892D01*
X113216660Y-78146892D01*
X112853553Y-78510000D01*
X112650000Y-78510000D01*
X112650000Y-78480163D01*
X112627164Y-78425032D01*
X112584968Y-78382836D01*
X112529837Y-78360000D01*
X112470163Y-78360000D01*
X112415032Y-78382836D01*
X112372836Y-78425032D01*
X112350000Y-78480163D01*
X112350000Y-78539837D01*
X112116609Y-78539837D01*
X112146446Y-78509999D01*
X112146446Y-78509998D01*
X111800001Y-78163553D01*
X111800000Y-78163553D01*
X111453553Y-78509998D01*
X111453553Y-78509999D01*
X111250000Y-78509999D01*
X111250000Y-78480163D01*
X111227164Y-78425032D01*
X111184968Y-78382836D01*
X111129837Y-78360000D01*
X111070163Y-78360000D01*
X111015032Y-78382836D01*
X110972836Y-78425032D01*
X110950000Y-78480163D01*
X110950000Y-78539837D01*
X110716609Y-78539837D01*
X110746446Y-78510000D01*
X110746446Y-78509999D01*
X110383338Y-78146891D01*
X110383337Y-78146891D01*
X110374667Y-78160691D01*
X110374662Y-78160701D01*
X110315122Y-78330858D01*
X110315121Y-78330861D01*
X110294938Y-78509997D01*
X110294938Y-78510002D01*
X106950500Y-78510002D01*
X106950500Y-78334550D01*
X106970185Y-78267511D01*
X107022989Y-78221756D01*
X107074500Y-78210550D01*
X107458946Y-78210550D01*
X107549990Y-78192439D01*
X107594278Y-78183630D01*
X107663844Y-78154815D01*
X107721757Y-78130827D01*
X107721758Y-78130826D01*
X107721761Y-78130825D01*
X107836493Y-78054164D01*
X109634801Y-76255856D01*
X109696124Y-76222371D01*
X109765816Y-76227355D01*
G37*
%TD.AperFunction*%
%TA.AperFunction,Conductor*%
G36*
X125630203Y-81740545D02*
G01*
X125636681Y-81746577D01*
X125728597Y-81838493D01*
X125728603Y-81838498D01*
X125914158Y-81968425D01*
X125957783Y-82023002D01*
X125964977Y-82092500D01*
X125933454Y-82154855D01*
X125914158Y-82171575D01*
X125728600Y-82301503D01*
X125637180Y-82392923D01*
X125575856Y-82426407D01*
X125506165Y-82421423D01*
X125450231Y-82379551D01*
X125425815Y-82314086D01*
X125425499Y-82305241D01*
X125425499Y-82127129D01*
X125425498Y-82127123D01*
X125422720Y-82101282D01*
X125419091Y-82067517D01*
X125409804Y-82042619D01*
X125404820Y-81972928D01*
X125409804Y-81955951D01*
X125418598Y-81932371D01*
X125424999Y-81872844D01*
X125425000Y-81872827D01*
X125425000Y-81834258D01*
X125444685Y-81767219D01*
X125497489Y-81721464D01*
X125566647Y-81711520D01*
X125630203Y-81740545D01*
G37*
%TD.AperFunction*%
%TA.AperFunction,Conductor*%
G36*
X123793039Y-80945184D02*
G01*
X123838794Y-80997988D01*
X123850000Y-81049499D01*
X123850000Y-81550500D01*
X123830315Y-81617539D01*
X123777511Y-81663294D01*
X123726000Y-81674500D01*
X123624000Y-81674500D01*
X123556961Y-81654815D01*
X123511206Y-81602011D01*
X123500000Y-81550500D01*
X123500000Y-81049499D01*
X123519685Y-80982460D01*
X123572489Y-80936705D01*
X123624000Y-80925499D01*
X123726000Y-80925499D01*
X123793039Y-80945184D01*
G37*
%TD.AperFunction*%
%TA.AperFunction,Conductor*%
G36*
X123355701Y-74887444D02*
G01*
X123365229Y-74897368D01*
X123365260Y-74897338D01*
X123370184Y-74902262D01*
X123497738Y-75029816D01*
X123650478Y-75125789D01*
X123720198Y-75150185D01*
X123820745Y-75185368D01*
X123820750Y-75185369D01*
X123999996Y-75205565D01*
X124000000Y-75205565D01*
X124000004Y-75205565D01*
X124179249Y-75185369D01*
X124179252Y-75185368D01*
X124179255Y-75185368D01*
X124316174Y-75137457D01*
X124357129Y-75130500D01*
X125198733Y-75130500D01*
X125265772Y-75150185D01*
X125311527Y-75202989D01*
X125321471Y-75272147D01*
X125318508Y-75286594D01*
X125269364Y-75469999D01*
X125269364Y-75470000D01*
X126166988Y-75470000D01*
X126134075Y-75527007D01*
X126100000Y-75654174D01*
X126100000Y-75785826D01*
X126134075Y-75912993D01*
X126166988Y-75970000D01*
X125269364Y-75970000D01*
X125326567Y-76183486D01*
X125326570Y-76183492D01*
X125426399Y-76397578D01*
X125561894Y-76591082D01*
X125728917Y-76758105D01*
X125914595Y-76888119D01*
X125958219Y-76942696D01*
X125965412Y-77012195D01*
X125933890Y-77074549D01*
X125914595Y-77091269D01*
X125728594Y-77221508D01*
X125561508Y-77388594D01*
X125433563Y-77571319D01*
X125378986Y-77614943D01*
X125309487Y-77622136D01*
X125257676Y-77599461D01*
X125167089Y-77531647D01*
X125167086Y-77531645D01*
X125032379Y-77481403D01*
X125032372Y-77481401D01*
X124972844Y-77475000D01*
X123850000Y-77475000D01*
X123850000Y-78050500D01*
X123830315Y-78117539D01*
X123777511Y-78163294D01*
X123726000Y-78174500D01*
X123624000Y-78174500D01*
X123556961Y-78154815D01*
X123511206Y-78102011D01*
X123500000Y-78050500D01*
X123500000Y-77475000D01*
X122774500Y-77475000D01*
X122707461Y-77455315D01*
X122661706Y-77402511D01*
X122650500Y-77351000D01*
X122650500Y-75716976D01*
X122670185Y-75649937D01*
X122722989Y-75604182D01*
X122750135Y-75596736D01*
X122749932Y-75595876D01*
X122757479Y-75594092D01*
X122757481Y-75594091D01*
X122757483Y-75594091D01*
X122892331Y-75543796D01*
X123007546Y-75457546D01*
X123093796Y-75342331D01*
X123144091Y-75207483D01*
X123150500Y-75147873D01*
X123150499Y-74981155D01*
X123170183Y-74914118D01*
X123222987Y-74868363D01*
X123292145Y-74858419D01*
X123355701Y-74887444D01*
G37*
%TD.AperFunction*%
%TA.AperFunction,Conductor*%
G36*
X120604783Y-73950185D02*
G01*
X120650538Y-74002989D01*
X120660482Y-74072147D01*
X120657238Y-74084857D01*
X120657693Y-74084965D01*
X120655908Y-74092516D01*
X120649501Y-74152116D01*
X120649500Y-74152135D01*
X120649500Y-75147870D01*
X120649501Y-75147876D01*
X120655908Y-75207483D01*
X120706202Y-75342328D01*
X120706206Y-75342335D01*
X120792452Y-75457544D01*
X120792455Y-75457547D01*
X120907664Y-75543793D01*
X120907671Y-75543797D01*
X121042517Y-75594091D01*
X121050062Y-75595874D01*
X121049523Y-75598151D01*
X121103287Y-75620408D01*
X121143147Y-75677793D01*
X121149500Y-75716975D01*
X121149500Y-76937768D01*
X121129815Y-77004807D01*
X121113179Y-77025451D01*
X121091934Y-77046695D01*
X121055878Y-77069366D01*
X121056756Y-77071188D01*
X121050478Y-77074211D01*
X120897737Y-77170184D01*
X120862180Y-77205742D01*
X120800857Y-77239227D01*
X120731165Y-77234243D01*
X120675232Y-77192371D01*
X120650815Y-77126907D01*
X120650499Y-77118061D01*
X120650499Y-76202129D01*
X120650498Y-76202123D01*
X120650268Y-76199986D01*
X120644091Y-76142517D01*
X120635033Y-76118232D01*
X120593797Y-76007671D01*
X120593793Y-76007664D01*
X120507547Y-75892455D01*
X120507544Y-75892452D01*
X120392335Y-75806206D01*
X120392328Y-75806202D01*
X120257482Y-75755908D01*
X120257483Y-75755908D01*
X120197883Y-75749501D01*
X120197881Y-75749500D01*
X120197873Y-75749500D01*
X120197864Y-75749500D01*
X118602129Y-75749500D01*
X118602123Y-75749501D01*
X118542516Y-75755908D01*
X118407671Y-75806202D01*
X118407663Y-75806206D01*
X118405689Y-75807685D01*
X118403380Y-75808545D01*
X118399886Y-75810454D01*
X118399611Y-75809951D01*
X118340223Y-75832098D01*
X118271951Y-75817241D01*
X118225268Y-75772562D01*
X118215201Y-75755909D01*
X118205472Y-75739815D01*
X118205471Y-75739814D01*
X118205468Y-75739810D01*
X118103056Y-75637398D01*
X118069571Y-75576075D01*
X118074555Y-75506383D01*
X118103056Y-75462036D01*
X118107542Y-75457548D01*
X118107546Y-75457546D01*
X118193796Y-75342331D01*
X118244091Y-75207483D01*
X118250500Y-75147873D01*
X118250499Y-74462228D01*
X118270183Y-74395190D01*
X118286813Y-74374553D01*
X118694548Y-73966819D01*
X118755871Y-73933334D01*
X118782229Y-73930500D01*
X120537744Y-73930500D01*
X120604783Y-73950185D01*
G37*
%TD.AperFunction*%
%TA.AperFunction,Conductor*%
G36*
X114424853Y-61705583D02*
G01*
X115262041Y-61744866D01*
X115267838Y-61745275D01*
X115333551Y-61751455D01*
X116102267Y-61823757D01*
X116107987Y-61824430D01*
X116937837Y-61941941D01*
X116943572Y-61942891D01*
X116996274Y-61952893D01*
X117058467Y-61984732D01*
X117093574Y-62045141D01*
X117090448Y-62114941D01*
X117050082Y-62171970D01*
X117002101Y-62195291D01*
X116868684Y-62227323D01*
X116819880Y-62239040D01*
X116594410Y-62332432D01*
X116386326Y-62459947D01*
X116386323Y-62459948D01*
X116200741Y-62618451D01*
X116042238Y-62804033D01*
X116042237Y-62804036D01*
X115914722Y-63012120D01*
X115821330Y-63237590D01*
X115764353Y-63474912D01*
X115745206Y-63718210D01*
X115764353Y-63961507D01*
X115764353Y-63961510D01*
X115764354Y-63961512D01*
X115815162Y-64173140D01*
X115821330Y-64198829D01*
X115914722Y-64424299D01*
X116042237Y-64632383D01*
X116042238Y-64632386D01*
X116095949Y-64695273D01*
X116200741Y-64817969D01*
X116344397Y-64940663D01*
X116386323Y-64976471D01*
X116386326Y-64976472D01*
X116594410Y-65103987D01*
X116775847Y-65179140D01*
X116801199Y-65189641D01*
X116819881Y-65197379D01*
X116819878Y-65197379D01*
X116819884Y-65197380D01*
X116819888Y-65197382D01*
X117057198Y-65254356D01*
X117300500Y-65273504D01*
X117543802Y-65254356D01*
X117781112Y-65197382D01*
X118006589Y-65103987D01*
X118214679Y-64976469D01*
X118400259Y-64817969D01*
X118558759Y-64632389D01*
X118686277Y-64424299D01*
X118779672Y-64198822D01*
X118836646Y-63961512D01*
X118855794Y-63718210D01*
X118836646Y-63474908D01*
X118779672Y-63237598D01*
X118686277Y-63012121D01*
X118686277Y-63012120D01*
X118558762Y-62804036D01*
X118558761Y-62804033D01*
X118522953Y-62762107D01*
X118400259Y-62618451D01*
X118214679Y-62459951D01*
X118214680Y-62459951D01*
X118214677Y-62459949D01*
X118200484Y-62451252D01*
X118153609Y-62399439D01*
X118142188Y-62330509D01*
X118169845Y-62266347D01*
X118227801Y-62227323D01*
X118294079Y-62224917D01*
X118587830Y-62295076D01*
X118593433Y-62296554D01*
X119398595Y-62529248D01*
X119404122Y-62530987D01*
X120197481Y-62801160D01*
X120202909Y-62803151D01*
X120981530Y-63109740D01*
X120982767Y-63110228D01*
X120988125Y-63112485D01*
X121752675Y-63455752D01*
X121757922Y-63458257D01*
X122505563Y-63836994D01*
X122510686Y-63839742D01*
X123239766Y-64253113D01*
X123244711Y-64256072D01*
X123953649Y-64703185D01*
X123958458Y-64706379D01*
X124645620Y-65186202D01*
X124650298Y-65189634D01*
X124708040Y-65234121D01*
X125314211Y-65701136D01*
X125318722Y-65704783D01*
X125957949Y-66246858D01*
X125962260Y-66250691D01*
X126575377Y-66822133D01*
X126579529Y-66826189D01*
X126606873Y-66854182D01*
X127165165Y-67425719D01*
X127169114Y-67429955D01*
X127726043Y-68056319D01*
X127729781Y-68060727D01*
X128256698Y-68712457D01*
X128260246Y-68717062D01*
X128756038Y-69392774D01*
X128759367Y-69397541D01*
X129222946Y-70095758D01*
X129226046Y-70100673D01*
X129278726Y-70188710D01*
X129656394Y-70819860D01*
X129659261Y-70824918D01*
X130055403Y-71563442D01*
X130058031Y-71568628D01*
X130419146Y-72324960D01*
X130421527Y-72330264D01*
X130746780Y-73102660D01*
X130748910Y-73108069D01*
X131037609Y-73894879D01*
X131039483Y-73900383D01*
X131290980Y-74699846D01*
X131292594Y-74705431D01*
X131496702Y-75479255D01*
X131494767Y-75549098D01*
X131455378Y-75606807D01*
X131392741Y-75633340D01*
X130766719Y-76259362D01*
X130747742Y-76213546D01*
X130671136Y-76098896D01*
X130573634Y-76001394D01*
X130458984Y-75924788D01*
X130413166Y-75905809D01*
X131035351Y-75283624D01*
X130833271Y-75159788D01*
X130607867Y-75066423D01*
X130370629Y-75009468D01*
X130370630Y-75009468D01*
X130127410Y-74990327D01*
X129884190Y-75009468D01*
X129646952Y-75066423D01*
X129421548Y-75159788D01*
X129213528Y-75287264D01*
X129213524Y-75287266D01*
X129145441Y-75345415D01*
X129081680Y-75373985D01*
X129012594Y-75363547D01*
X128977229Y-75338805D01*
X127954751Y-74316327D01*
X127921266Y-74255004D01*
X127926249Y-74185316D01*
X127944091Y-74137483D01*
X127950500Y-74077873D01*
X127950499Y-72282128D01*
X127944091Y-72222517D01*
X127938017Y-72206233D01*
X127893797Y-72087671D01*
X127893793Y-72087664D01*
X127807547Y-71972455D01*
X127807544Y-71972452D01*
X127692335Y-71886206D01*
X127692328Y-71886202D01*
X127557482Y-71835908D01*
X127557483Y-71835908D01*
X127497883Y-71829501D01*
X127497881Y-71829500D01*
X127497873Y-71829500D01*
X127497864Y-71829500D01*
X125702129Y-71829500D01*
X125702123Y-71829501D01*
X125642516Y-71835908D01*
X125507671Y-71886202D01*
X125507664Y-71886206D01*
X125392455Y-71972452D01*
X125392452Y-71972455D01*
X125306206Y-72087664D01*
X125306202Y-72087671D01*
X125255908Y-72222517D01*
X125251646Y-72262167D01*
X125249501Y-72282123D01*
X125249500Y-72282135D01*
X125249500Y-72305500D01*
X125229815Y-72372539D01*
X125177011Y-72418294D01*
X125125500Y-72429500D01*
X123015985Y-72429500D01*
X122948946Y-72409815D01*
X122903191Y-72357011D01*
X122893247Y-72287853D01*
X122922272Y-72224297D01*
X122941674Y-72206233D01*
X123007190Y-72157186D01*
X123093350Y-72042093D01*
X123093354Y-72042086D01*
X123143596Y-71907379D01*
X123143598Y-71907372D01*
X123149999Y-71847844D01*
X123150000Y-71847827D01*
X123150000Y-71600000D01*
X120650000Y-71600000D01*
X120650000Y-71847844D01*
X120656401Y-71907372D01*
X120656403Y-71907379D01*
X120706645Y-72042086D01*
X120706649Y-72042093D01*
X120792809Y-72157186D01*
X120858326Y-72206233D01*
X120900197Y-72262167D01*
X120905181Y-72331859D01*
X120871696Y-72393182D01*
X120810372Y-72426666D01*
X120784015Y-72429500D01*
X118346080Y-72429500D01*
X118201092Y-72458340D01*
X118201082Y-72458343D01*
X118064511Y-72514912D01*
X118064498Y-72514919D01*
X117941584Y-72597048D01*
X117941580Y-72597051D01*
X116875449Y-73663181D01*
X116814126Y-73696666D01*
X116787768Y-73699500D01*
X116202129Y-73699500D01*
X116202123Y-73699501D01*
X116142516Y-73705908D01*
X116007671Y-73756202D01*
X116007664Y-73756206D01*
X115892455Y-73842452D01*
X115892452Y-73842455D01*
X115824266Y-73933540D01*
X115768332Y-73975411D01*
X115698641Y-73980395D01*
X115637318Y-73946909D01*
X115625736Y-73933543D01*
X115613968Y-73917824D01*
X115605398Y-73906376D01*
X115580979Y-73840915D01*
X115595829Y-73772641D01*
X115616979Y-73744386D01*
X117024548Y-72336818D01*
X117085871Y-72303333D01*
X117112229Y-72300499D01*
X117797871Y-72300499D01*
X117797872Y-72300499D01*
X117857483Y-72294091D01*
X117992331Y-72243796D01*
X118107546Y-72157546D01*
X118193796Y-72042331D01*
X118244091Y-71907483D01*
X118250500Y-71847873D01*
X118250499Y-71100000D01*
X120650000Y-71100000D01*
X121650000Y-71100000D01*
X122150000Y-71100000D01*
X123150000Y-71100000D01*
X123160382Y-71089617D01*
X123169685Y-71057937D01*
X123222489Y-71012182D01*
X123291647Y-71002238D01*
X123349487Y-71026601D01*
X123401415Y-71066448D01*
X123656899Y-71213951D01*
X123656900Y-71213951D01*
X123656903Y-71213953D01*
X123862116Y-71298955D01*
X123909639Y-71318640D01*
X123929458Y-71326849D01*
X124214417Y-71403203D01*
X124506904Y-71441710D01*
X124506911Y-71441710D01*
X124801909Y-71441710D01*
X124801916Y-71441710D01*
X125094403Y-71403203D01*
X125379362Y-71326849D01*
X125651917Y-71213953D01*
X125907404Y-71066448D01*
X126141452Y-70886856D01*
X126350056Y-70678252D01*
X126529648Y-70444204D01*
X126677153Y-70188717D01*
X126790049Y-69916162D01*
X126866403Y-69631203D01*
X126904910Y-69338716D01*
X126904910Y-69043704D01*
X126866403Y-68751217D01*
X126790049Y-68466258D01*
X126677153Y-68193703D01*
X126529648Y-67938216D01*
X126350056Y-67704168D01*
X126350051Y-67704162D01*
X126141457Y-67495568D01*
X126141450Y-67495562D01*
X125907403Y-67315971D01*
X125651920Y-67168468D01*
X125651910Y-67168464D01*
X125379371Y-67055574D01*
X125379364Y-67055572D01*
X125379362Y-67055571D01*
X125094403Y-66979217D01*
X125045523Y-66972781D01*
X124801923Y-66940710D01*
X124801916Y-66940710D01*
X124506904Y-66940710D01*
X124506896Y-66940710D01*
X124228495Y-66977363D01*
X124214417Y-66979217D01*
X123960229Y-67047326D01*
X123929458Y-67055571D01*
X123929448Y-67055574D01*
X123656909Y-67168464D01*
X123656899Y-67168468D01*
X123401416Y-67315971D01*
X123167369Y-67495562D01*
X123167362Y-67495568D01*
X122958768Y-67704162D01*
X122958762Y-67704169D01*
X122779171Y-67938216D01*
X122631668Y-68193699D01*
X122631664Y-68193709D01*
X122518774Y-68466248D01*
X122518771Y-68466258D01*
X122442418Y-68751214D01*
X122442416Y-68751225D01*
X122403910Y-69043696D01*
X122403910Y-69338723D01*
X122435981Y-69582323D01*
X122442417Y-69631203D01*
X122518771Y-69916161D01*
X122518774Y-69916171D01*
X122631664Y-70188710D01*
X122631668Y-70188720D01*
X122646264Y-70214000D01*
X122662737Y-70281901D01*
X122639884Y-70347927D01*
X122584963Y-70391118D01*
X122538877Y-70400000D01*
X122150000Y-70400000D01*
X122150000Y-71100000D01*
X121650000Y-71100000D01*
X121650000Y-70400000D01*
X121102155Y-70400000D01*
X121042627Y-70406401D01*
X121042620Y-70406403D01*
X120907913Y-70456645D01*
X120907906Y-70456649D01*
X120792812Y-70542809D01*
X120792809Y-70542812D01*
X120706649Y-70657906D01*
X120706645Y-70657913D01*
X120656403Y-70792620D01*
X120656401Y-70792627D01*
X120650000Y-70852155D01*
X120650000Y-71100000D01*
X118250499Y-71100000D01*
X118250499Y-70852128D01*
X118244091Y-70792517D01*
X118230281Y-70755491D01*
X118193797Y-70657671D01*
X118193793Y-70657664D01*
X118107547Y-70542455D01*
X118107544Y-70542452D01*
X117992335Y-70456206D01*
X117992328Y-70456202D01*
X117857482Y-70405908D01*
X117857483Y-70405908D01*
X117797883Y-70399501D01*
X117797881Y-70399500D01*
X117797873Y-70399500D01*
X117797864Y-70399500D01*
X116202129Y-70399500D01*
X116202123Y-70399501D01*
X116142516Y-70405908D01*
X116007671Y-70456202D01*
X116007664Y-70456206D01*
X115892455Y-70542452D01*
X115823953Y-70633958D01*
X115768019Y-70675828D01*
X115698327Y-70680812D01*
X115637004Y-70647326D01*
X115625420Y-70633957D01*
X115557186Y-70542808D01*
X115442093Y-70456649D01*
X115442086Y-70456645D01*
X115307379Y-70406403D01*
X115307372Y-70406401D01*
X115247844Y-70400000D01*
X114700000Y-70400000D01*
X114700000Y-72300000D01*
X114731635Y-72331635D01*
X114765120Y-72392958D01*
X114760136Y-72462650D01*
X114731635Y-72506997D01*
X113867047Y-73371584D01*
X113867044Y-73371588D01*
X113852402Y-73393503D01*
X113848788Y-73398913D01*
X113823204Y-73437202D01*
X113784915Y-73494505D01*
X113730390Y-73626141D01*
X113686549Y-73680544D01*
X113629083Y-73701978D01*
X113592516Y-73705909D01*
X113457671Y-73756202D01*
X113457664Y-73756206D01*
X113342455Y-73842452D01*
X113342452Y-73842455D01*
X113256206Y-73957664D01*
X113256202Y-73957671D01*
X113205910Y-74092513D01*
X113205909Y-74092517D01*
X113199500Y-74152127D01*
X113199500Y-74462229D01*
X113199501Y-74725500D01*
X113179817Y-74792539D01*
X113127013Y-74838294D01*
X113075501Y-74849500D01*
X112662230Y-74849500D01*
X112595191Y-74829815D01*
X112574549Y-74813181D01*
X111828421Y-74067052D01*
X111828420Y-74067051D01*
X111803616Y-74050478D01*
X111753584Y-74017048D01*
X111753583Y-74017047D01*
X111705501Y-73984919D01*
X111705488Y-73984912D01*
X111568917Y-73928343D01*
X111568907Y-73928340D01*
X111423920Y-73899500D01*
X111423918Y-73899500D01*
X110762320Y-73899500D01*
X110695281Y-73879815D01*
X110663052Y-73849809D01*
X110657548Y-73842457D01*
X110657546Y-73842454D01*
X110655490Y-73840915D01*
X110542335Y-73756206D01*
X110542328Y-73756202D01*
X110407482Y-73705908D01*
X110407483Y-73705908D01*
X110347883Y-73699501D01*
X110347881Y-73699500D01*
X110347873Y-73699500D01*
X110347865Y-73699500D01*
X109143421Y-73699500D01*
X109076382Y-73679815D01*
X109030627Y-73627011D01*
X109020683Y-73557853D01*
X109022847Y-73546552D01*
X109035650Y-73493224D01*
X109054792Y-73249999D01*
X109035651Y-73006780D01*
X108978696Y-72769542D01*
X108885331Y-72544138D01*
X108851719Y-72489289D01*
X108833474Y-72421844D01*
X108854590Y-72355241D01*
X108908362Y-72310627D01*
X108957441Y-72300499D01*
X110347872Y-72300499D01*
X110407483Y-72294091D01*
X110542331Y-72243796D01*
X110657546Y-72157546D01*
X110743796Y-72042331D01*
X110794091Y-71907483D01*
X110800500Y-71847873D01*
X110800500Y-71600000D01*
X113200000Y-71600000D01*
X113200000Y-71847844D01*
X113206401Y-71907372D01*
X113206403Y-71907379D01*
X113256645Y-72042086D01*
X113256649Y-72042093D01*
X113342809Y-72157187D01*
X113342812Y-72157190D01*
X113457906Y-72243350D01*
X113457913Y-72243354D01*
X113592620Y-72293596D01*
X113592627Y-72293598D01*
X113652155Y-72299999D01*
X113652172Y-72300000D01*
X114200000Y-72300000D01*
X114200000Y-71600000D01*
X113200000Y-71600000D01*
X110800500Y-71600000D01*
X110800499Y-71100000D01*
X113200000Y-71100000D01*
X114200000Y-71100000D01*
X114200000Y-70400000D01*
X113652155Y-70400000D01*
X113592627Y-70406401D01*
X113592620Y-70406403D01*
X113457913Y-70456645D01*
X113457906Y-70456649D01*
X113342812Y-70542809D01*
X113342809Y-70542812D01*
X113256649Y-70657906D01*
X113256645Y-70657913D01*
X113206403Y-70792620D01*
X113206401Y-70792627D01*
X113200000Y-70852155D01*
X113200000Y-71100000D01*
X110800499Y-71100000D01*
X110800499Y-70852128D01*
X110794091Y-70792517D01*
X110780281Y-70755491D01*
X110743797Y-70657671D01*
X110743793Y-70657664D01*
X110657547Y-70542455D01*
X110657544Y-70542452D01*
X110542335Y-70456206D01*
X110542328Y-70456202D01*
X110407482Y-70405908D01*
X110407483Y-70405908D01*
X110347883Y-70399501D01*
X110347881Y-70399500D01*
X110347873Y-70399500D01*
X110347864Y-70399500D01*
X108752129Y-70399500D01*
X108752123Y-70399501D01*
X108692516Y-70405908D01*
X108557671Y-70456202D01*
X108557669Y-70456204D01*
X108506376Y-70494602D01*
X108440912Y-70519019D01*
X108372639Y-70504168D01*
X108344384Y-70483016D01*
X107986819Y-70125451D01*
X107953334Y-70064128D01*
X107950500Y-70037770D01*
X107950500Y-66966976D01*
X107970185Y-66899937D01*
X108022989Y-66854182D01*
X108050135Y-66846736D01*
X108049932Y-66845876D01*
X108057479Y-66844092D01*
X108057481Y-66844091D01*
X108057483Y-66844091D01*
X108192331Y-66793796D01*
X108307546Y-66707546D01*
X108393796Y-66592331D01*
X108444091Y-66457483D01*
X108450500Y-66397873D01*
X108450499Y-64802128D01*
X108444091Y-64742517D01*
X108393796Y-64607669D01*
X108393795Y-64607668D01*
X108393793Y-64607664D01*
X108307547Y-64492455D01*
X108307544Y-64492452D01*
X108192335Y-64406206D01*
X108192328Y-64406202D01*
X108057482Y-64355908D01*
X108057483Y-64355908D01*
X107997883Y-64349501D01*
X107997881Y-64349500D01*
X107997873Y-64349500D01*
X107997864Y-64349500D01*
X106402129Y-64349500D01*
X106402123Y-64349501D01*
X106342516Y-64355908D01*
X106207671Y-64406202D01*
X106207664Y-64406206D01*
X106092455Y-64492452D01*
X106092452Y-64492455D01*
X106006206Y-64607664D01*
X106006202Y-64607671D01*
X105955908Y-64742517D01*
X105949501Y-64802116D01*
X105949501Y-64802123D01*
X105949500Y-64802135D01*
X105949500Y-66397870D01*
X105949501Y-66397876D01*
X105955908Y-66457483D01*
X106006202Y-66592328D01*
X106006206Y-66592335D01*
X106092452Y-66707544D01*
X106092455Y-66707547D01*
X106207664Y-66793793D01*
X106207671Y-66793797D01*
X106342517Y-66844091D01*
X106350062Y-66845874D01*
X106349523Y-66848151D01*
X106403287Y-66870408D01*
X106443147Y-66927793D01*
X106449500Y-66966975D01*
X106449500Y-70473918D01*
X106449500Y-70473920D01*
X106449499Y-70473920D01*
X106478340Y-70618907D01*
X106478343Y-70618917D01*
X106505038Y-70683363D01*
X106534916Y-70755495D01*
X106551480Y-70780285D01*
X106559652Y-70792516D01*
X106617049Y-70878418D01*
X107258429Y-71519798D01*
X107291914Y-71581121D01*
X107286930Y-71650813D01*
X107245058Y-71706746D01*
X107199695Y-71728053D01*
X107019542Y-71771303D01*
X106794138Y-71864668D01*
X106592057Y-71988504D01*
X107214243Y-72610690D01*
X107168426Y-72629668D01*
X107053776Y-72706274D01*
X106956274Y-72803776D01*
X106879668Y-72918426D01*
X106860690Y-72964243D01*
X106238504Y-72342057D01*
X106114668Y-72544138D01*
X106021303Y-72769542D01*
X105964348Y-73006780D01*
X105945207Y-73250000D01*
X105964348Y-73493219D01*
X106021303Y-73730457D01*
X106114668Y-73955861D01*
X106238504Y-74157941D01*
X106860689Y-73535755D01*
X106879668Y-73581574D01*
X106956274Y-73696224D01*
X107053776Y-73793726D01*
X107168426Y-73870332D01*
X107214241Y-73889309D01*
X106592057Y-74511494D01*
X106794138Y-74635331D01*
X107019542Y-74728696D01*
X107256780Y-74785651D01*
X107256779Y-74785651D01*
X107500000Y-74804792D01*
X107743219Y-74785651D01*
X107980457Y-74728696D01*
X108128047Y-74667562D01*
X108197516Y-74660093D01*
X108259995Y-74691368D01*
X108295648Y-74751456D01*
X108299500Y-74782123D01*
X108299500Y-75147869D01*
X108299501Y-75147876D01*
X108305908Y-75207483D01*
X108356202Y-75342328D01*
X108356204Y-75342331D01*
X108382062Y-75376873D01*
X108406479Y-75442338D01*
X108391627Y-75510611D01*
X108370476Y-75538865D01*
X107808391Y-76100951D01*
X107747068Y-76134436D01*
X107677377Y-76129452D01*
X107633029Y-76100951D01*
X107502262Y-75970184D01*
X107484135Y-75958794D01*
X107349522Y-75874211D01*
X107349518Y-75874209D01*
X107343244Y-75871188D01*
X107344125Y-75869358D01*
X107308059Y-75846692D01*
X103102155Y-71640786D01*
X103068670Y-71579463D01*
X103073654Y-71509771D01*
X103115526Y-71453838D01*
X103180990Y-71429421D01*
X103206018Y-71430165D01*
X103293704Y-71441710D01*
X103293711Y-71441710D01*
X103588709Y-71441710D01*
X103588716Y-71441710D01*
X103881203Y-71403203D01*
X104166162Y-71326849D01*
X104438717Y-71213953D01*
X104694204Y-71066448D01*
X104928252Y-70886856D01*
X105136856Y-70678252D01*
X105316448Y-70444204D01*
X105463953Y-70188717D01*
X105576849Y-69916162D01*
X105653203Y-69631203D01*
X105691710Y-69338716D01*
X105691710Y-69043704D01*
X105653203Y-68751217D01*
X105576849Y-68466258D01*
X105463953Y-68193703D01*
X105316448Y-67938216D01*
X105136856Y-67704168D01*
X105136851Y-67704162D01*
X104928257Y-67495568D01*
X104928250Y-67495562D01*
X104694203Y-67315971D01*
X104438720Y-67168468D01*
X104438710Y-67168464D01*
X104166171Y-67055574D01*
X104166164Y-67055572D01*
X104166162Y-67055571D01*
X103881203Y-66979217D01*
X103832323Y-66972781D01*
X103588723Y-66940710D01*
X103588716Y-66940710D01*
X103293704Y-66940710D01*
X103293696Y-66940710D01*
X103015295Y-66977363D01*
X103001217Y-66979217D01*
X102747029Y-67047326D01*
X102716258Y-67055571D01*
X102716248Y-67055574D01*
X102443709Y-67168464D01*
X102443699Y-67168468D01*
X102188216Y-67315971D01*
X101954169Y-67495562D01*
X101954162Y-67495568D01*
X101745568Y-67704162D01*
X101745562Y-67704169D01*
X101565971Y-67938216D01*
X101418468Y-68193699D01*
X101418464Y-68193709D01*
X101305574Y-68466248D01*
X101305571Y-68466258D01*
X101229218Y-68751214D01*
X101229216Y-68751225D01*
X101190710Y-69043696D01*
X101190710Y-69338723D01*
X101222781Y-69582323D01*
X101229217Y-69631203D01*
X101305571Y-69916161D01*
X101305574Y-69916171D01*
X101418464Y-70188710D01*
X101418468Y-70188720D01*
X101565971Y-70444203D01*
X101745562Y-70678250D01*
X101745568Y-70678257D01*
X101954162Y-70886851D01*
X101954169Y-70886857D01*
X102188216Y-71066448D01*
X102224251Y-71087253D01*
X102272466Y-71137819D01*
X102285690Y-71206426D01*
X102259722Y-71271291D01*
X102202808Y-71311820D01*
X102162251Y-71318640D01*
X100364915Y-71318640D01*
X100297876Y-71298955D01*
X100259188Y-71259430D01*
X100195172Y-71154965D01*
X100195171Y-71154963D01*
X100119572Y-71066448D01*
X100036669Y-70969381D01*
X99899377Y-70852123D01*
X99851086Y-70810878D01*
X99851083Y-70810877D01*
X99642999Y-70683362D01*
X99417528Y-70589970D01*
X99417531Y-70589970D01*
X99221106Y-70542812D01*
X99180212Y-70532994D01*
X99180210Y-70532993D01*
X99180207Y-70532993D01*
X98964853Y-70516045D01*
X98936910Y-70513846D01*
X98936909Y-70513846D01*
X98745928Y-70528876D01*
X98677551Y-70514511D01*
X98627795Y-70465460D01*
X98612456Y-70397295D01*
X98629795Y-70341587D01*
X98721268Y-70188720D01*
X98773972Y-70100642D01*
X98777032Y-70095790D01*
X99240657Y-69397504D01*
X99243935Y-69392809D01*
X99739765Y-68717045D01*
X99743288Y-68712473D01*
X100270243Y-68060696D01*
X100273934Y-68056343D01*
X100830905Y-67429932D01*
X100834817Y-67425736D01*
X101420491Y-66826168D01*
X101424594Y-66822159D01*
X102037759Y-66250672D01*
X102042029Y-66246876D01*
X102681297Y-65704766D01*
X102685757Y-65701160D01*
X103349721Y-65189619D01*
X103354350Y-65186223D01*
X104041560Y-64706365D01*
X104046330Y-64703197D01*
X104755306Y-64256060D01*
X104760214Y-64253124D01*
X105489327Y-63839734D01*
X105494420Y-63837002D01*
X106242095Y-63458248D01*
X106247306Y-63455760D01*
X107011889Y-63112478D01*
X107017217Y-63110234D01*
X107797104Y-62803146D01*
X107802504Y-62801165D01*
X108595889Y-62530983D01*
X108601392Y-62529251D01*
X109406576Y-62296551D01*
X109412159Y-62295078D01*
X110227378Y-62100372D01*
X110233037Y-62099160D01*
X111056434Y-61942889D01*
X111062154Y-61941942D01*
X111892017Y-61824429D01*
X111897727Y-61823757D01*
X112732162Y-61745274D01*
X112737955Y-61744866D01*
X113575147Y-61705583D01*
X113580959Y-61705447D01*
X114419041Y-61705447D01*
X114424853Y-61705583D01*
G37*
%TD.AperFunction*%
%TD*%
M02*
