%TF.GenerationSoftware,KiCad,Pcbnew,8.0.0*%
%TF.CreationDate,2024-03-22T20:52:57+01:00*%
%TF.ProjectId,rotatror,726f7461-7472-46f7-922e-6b696361645f,rev?*%
%TF.SameCoordinates,Original*%
%TF.FileFunction,Paste,Bot*%
%TF.FilePolarity,Positive*%
%FSLAX46Y46*%
G04 Gerber Fmt 4.6, Leading zero omitted, Abs format (unit mm)*
G04 Created by KiCad (PCBNEW 8.0.0) date 2024-03-22 20:52:57*
%MOMM*%
%LPD*%
G01*
G04 APERTURE LIST*
G04 Aperture macros list*
%AMRoundRect*
0 Rectangle with rounded corners*
0 $1 Rounding radius*
0 $2 $3 $4 $5 $6 $7 $8 $9 X,Y pos of 4 corners*
0 Add a 4 corners polygon primitive as box body*
4,1,4,$2,$3,$4,$5,$6,$7,$8,$9,$2,$3,0*
0 Add four circle primitives for the rounded corners*
1,1,$1+$1,$2,$3*
1,1,$1+$1,$4,$5*
1,1,$1+$1,$6,$7*
1,1,$1+$1,$8,$9*
0 Add four rect primitives between the rounded corners*
20,1,$1+$1,$2,$3,$4,$5,0*
20,1,$1+$1,$4,$5,$6,$7,0*
20,1,$1+$1,$6,$7,$8,$9,0*
20,1,$1+$1,$8,$9,$2,$3,0*%
G04 Aperture macros list end*
%ADD10R,2.500000X0.350000*%
%ADD11RoundRect,0.200000X0.275000X-0.200000X0.275000X0.200000X-0.275000X0.200000X-0.275000X-0.200000X0*%
%ADD12RoundRect,0.150000X0.587500X0.150000X-0.587500X0.150000X-0.587500X-0.150000X0.587500X-0.150000X0*%
%ADD13RoundRect,0.250000X0.450000X-0.350000X0.450000X0.350000X-0.450000X0.350000X-0.450000X-0.350000X0*%
%ADD14O,1.200000X2.000000*%
%ADD15O,1.200000X1.800000*%
%ADD16RoundRect,0.250000X-0.350000X-0.450000X0.350000X-0.450000X0.350000X0.450000X-0.350000X0.450000X0*%
%ADD17R,1.500000X0.900000*%
%ADD18RoundRect,0.250000X-0.475000X0.337500X-0.475000X-0.337500X0.475000X-0.337500X0.475000X0.337500X0*%
%ADD19RoundRect,0.250000X-0.450000X0.350000X-0.450000X-0.350000X0.450000X-0.350000X0.450000X0.350000X0*%
%ADD20R,0.600000X1.000000*%
%ADD21RoundRect,0.250000X0.475000X-0.337500X0.475000X0.337500X-0.475000X0.337500X-0.475000X-0.337500X0*%
%ADD22RoundRect,0.243750X-0.456250X0.243750X-0.456250X-0.243750X0.456250X-0.243750X0.456250X0.243750X0*%
G04 APERTURE END LIST*
D10*
%TO.C,U5*%
X123675000Y-85850000D03*
X123675000Y-85150000D03*
X123675000Y-84450000D03*
X123675000Y-83750000D03*
X123675000Y-83050000D03*
X123675000Y-82350000D03*
X123675000Y-78150000D03*
X123675000Y-78850000D03*
X123675000Y-79550000D03*
X123675000Y-80250000D03*
X123675000Y-80950000D03*
X123675000Y-81650000D03*
%TD*%
D11*
%TO.C,R18*%
X121200000Y-82125000D03*
X121200000Y-80475000D03*
%TD*%
%TO.C,R17*%
X115425000Y-82625000D03*
X115425000Y-80975000D03*
%TD*%
%TO.C,R16*%
X117375000Y-78025000D03*
X117375000Y-76375000D03*
%TD*%
D12*
%TO.C,Q1*%
X119475000Y-79450000D03*
X119475000Y-81350000D03*
X117600000Y-80400000D03*
%TD*%
D13*
%TO.C,R15*%
X100200000Y-77800000D03*
X100200000Y-75800000D03*
%TD*%
%TO.C,R14*%
X100200000Y-81600000D03*
X100200000Y-79600000D03*
%TD*%
D14*
%TO.C,U3*%
X112425000Y-92645500D03*
D15*
X112425000Y-96845500D03*
D14*
X121075000Y-92645500D03*
D15*
X121075000Y-96845500D03*
%TD*%
D16*
%TO.C,R12*%
X112460000Y-87400000D03*
X114460000Y-87400000D03*
%TD*%
D17*
%TO.C,D2*%
X109550000Y-74650000D03*
X109550000Y-71350000D03*
X114450000Y-71350000D03*
X114450000Y-74650000D03*
%TD*%
D18*
%TO.C,C3*%
X115200000Y-93162500D03*
X115200000Y-95237500D03*
%TD*%
D19*
%TO.C,R13*%
X117800000Y-91800000D03*
X117800000Y-93800000D03*
%TD*%
D20*
%TO.C,U4*%
X116250000Y-87100000D03*
X117200000Y-87100000D03*
X118150000Y-87100000D03*
X118150000Y-89700000D03*
X116250000Y-89700000D03*
%TD*%
D21*
%TO.C,C5*%
X99400000Y-87037500D03*
X99400000Y-84962500D03*
%TD*%
D17*
%TO.C,D1*%
X117000000Y-74650000D03*
X117000000Y-71350000D03*
X121900000Y-71350000D03*
X121900000Y-74650000D03*
%TD*%
D22*
%TO.C,D3*%
X114420000Y-89482500D03*
X114420000Y-91357500D03*
%TD*%
M02*
