M48
; DRILL file {KiCad 8.0.0} date 2024-03-22T20:52:53+0100
; FORMAT={-:-/ absolute / inch / decimal}
; #@! TF.CreationDate,2024-03-22T20:52:53+01:00
; #@! TF.GenerationSoftware,Kicad,Pcbnew,8.0.0
; #@! TF.FileFunction,Plated,1,2,PTH
FMAT,2
INCH
; #@! TA.AperFunction,Plated,PTH,ViaDrill
T1C0.0118
; #@! TA.AperFunction,Plated,PTH,ComponentDrill
T2C0.0118
; #@! TA.AperFunction,Plated,PTH,ComponentDrill
T3C0.0315
; #@! TA.AperFunction,Plated,PTH,ComponentDrill
T4C0.0394
; #@! TA.AperFunction,Plated,PTH,ComponentDrill
T5C0.0551
%
G90
G05
T1
X3.8425Y-2.9449
X3.8947Y-3.2126
X3.937Y-3.0
X3.9956Y-3.378
X4.0079Y-2.937
X4.0157Y-3.1969
X4.0394Y-3.0551
X4.063Y-3.2397
X4.063Y-3.3115
X4.0945Y-3.0529
X4.1437Y-3.2646
X4.1811Y-3.063
X4.2126Y-3.0157
X4.2913Y-3.3307
X4.3228Y-3.6378
X4.3622Y-3.5276
X4.3858Y-2.7953
X4.502Y-3.6054
X4.5059Y-2.8091
X4.6142Y-3.4173
X4.6772Y-2.7953
X4.6909Y-3.6054
X4.7008Y-2.9528
X4.7559Y-3.2835
X4.7559Y-3.315
X4.7638Y-3.1024
X4.7795Y-3.063
X4.7825Y-3.3396
X4.8031Y-2.7953
X4.8189Y-3.4173
X4.8819Y-2.9291
X4.9499Y-3.3326
X5.0236Y-2.7953
X5.0315Y-3.1339
X5.0866Y-2.9134
T2
X4.374Y-3.0909
X4.374Y-3.1461
X4.4016Y-3.1185
X4.4016Y-3.1736
X4.4291Y-3.0909
X4.4291Y-3.1461
T4
X4.9843Y-2.8811
X4.9843Y-2.9811
X4.9843Y-3.0811
X4.9843Y-3.1811
X4.9843Y-3.2811
X4.9843Y-3.3811
T5
X3.8952Y-2.8374
X4.2323Y-2.8839
X4.2323Y-3.3994
X4.3481Y-3.7775
X4.5338Y-3.0979
X4.6181Y-2.5086
X4.7479Y-3.3994
X5.085Y-3.4459
X5.1231Y-3.0136
T3
G00X4.4262Y-3.6317
M15
G01X4.4262Y-3.6632
M16
G05
G00X4.4262Y-3.801
M15
G01X4.4262Y-3.8246
M16
G05
G00X4.7667Y-3.6317
M15
G01X4.7667Y-3.6632
M16
G05
G00X4.7667Y-3.801
M15
G01X4.7667Y-3.8246
M16
G05
M30
