%TF.GenerationSoftware,KiCad,Pcbnew,8.0.1*%
%TF.CreationDate,2024-05-06T20:27:01+02:00*%
%TF.ProjectId,SenseLoraCAM,53656e73-654c-46f7-9261-43414d2e6b69,rev?*%
%TF.SameCoordinates,Original*%
%TF.FileFunction,Legend,Top*%
%TF.FilePolarity,Positive*%
%FSLAX46Y46*%
G04 Gerber Fmt 4.6, Leading zero omitted, Abs format (unit mm)*
G04 Created by KiCad (PCBNEW 8.0.1) date 2024-05-06 20:27:01*
%MOMM*%
%LPD*%
G01*
G04 APERTURE LIST*
%ADD10C,0.150000*%
%ADD11C,0.120000*%
%ADD12C,0.010000*%
%ADD13C,0.254000*%
G04 APERTURE END LIST*
D10*
X109593628Y-88544173D02*
X109546009Y-88591792D01*
X109546009Y-88591792D02*
X109498390Y-88687030D01*
X109498390Y-88687030D02*
X109498390Y-88782268D01*
X109498390Y-88782268D02*
X109546009Y-88877506D01*
X109546009Y-88877506D02*
X109593628Y-88925125D01*
X109593628Y-88925125D02*
X109688866Y-88972744D01*
X109688866Y-88972744D02*
X109784104Y-88972744D01*
X109784104Y-88972744D02*
X109879342Y-88925125D01*
X109879342Y-88925125D02*
X109926961Y-88877506D01*
X109926961Y-88877506D02*
X109974580Y-88782268D01*
X109974580Y-88782268D02*
X109974580Y-88687030D01*
X109974580Y-88687030D02*
X109926961Y-88591792D01*
X109926961Y-88591792D02*
X109879342Y-88544173D01*
X109498390Y-88544173D02*
X109879342Y-88544173D01*
X109879342Y-88544173D02*
X109926961Y-88496554D01*
X109926961Y-88496554D02*
X109926961Y-88448935D01*
X109926961Y-88448935D02*
X109879342Y-88353696D01*
X109879342Y-88353696D02*
X109784104Y-88306077D01*
X109784104Y-88306077D02*
X109546009Y-88306077D01*
X109546009Y-88306077D02*
X109403152Y-88401316D01*
X109403152Y-88401316D02*
X109307914Y-88544173D01*
X109307914Y-88544173D02*
X109260295Y-88734649D01*
X109260295Y-88734649D02*
X109307914Y-88925125D01*
X109307914Y-88925125D02*
X109403152Y-89067982D01*
X109403152Y-89067982D02*
X109546009Y-89163220D01*
X109546009Y-89163220D02*
X109736485Y-89210839D01*
X109736485Y-89210839D02*
X109926961Y-89163220D01*
X109926961Y-89163220D02*
X110069819Y-89067982D01*
X110069819Y-89067982D02*
X110165057Y-88925125D01*
X110165057Y-88925125D02*
X110212676Y-88734649D01*
X110212676Y-88734649D02*
X110165057Y-88544173D01*
X110165057Y-88544173D02*
X110069819Y-88401316D01*
X109069819Y-87591792D02*
X109784104Y-87591792D01*
X109784104Y-87591792D02*
X109926961Y-87639411D01*
X109926961Y-87639411D02*
X110022200Y-87734649D01*
X110022200Y-87734649D02*
X110069819Y-87877506D01*
X110069819Y-87877506D02*
X110069819Y-87972744D01*
X110069819Y-86639411D02*
X110069819Y-87115601D01*
X110069819Y-87115601D02*
X109069819Y-87115601D01*
X109974580Y-85734649D02*
X110022200Y-85782268D01*
X110022200Y-85782268D02*
X110069819Y-85925125D01*
X110069819Y-85925125D02*
X110069819Y-86020363D01*
X110069819Y-86020363D02*
X110022200Y-86163220D01*
X110022200Y-86163220D02*
X109926961Y-86258458D01*
X109926961Y-86258458D02*
X109831723Y-86306077D01*
X109831723Y-86306077D02*
X109641247Y-86353696D01*
X109641247Y-86353696D02*
X109498390Y-86353696D01*
X109498390Y-86353696D02*
X109307914Y-86306077D01*
X109307914Y-86306077D02*
X109212676Y-86258458D01*
X109212676Y-86258458D02*
X109117438Y-86163220D01*
X109117438Y-86163220D02*
X109069819Y-86020363D01*
X109069819Y-86020363D02*
X109069819Y-85925125D01*
X109069819Y-85925125D02*
X109117438Y-85782268D01*
X109117438Y-85782268D02*
X109165057Y-85734649D01*
X109069819Y-85020363D02*
X109784104Y-85020363D01*
X109784104Y-85020363D02*
X109926961Y-85067982D01*
X109926961Y-85067982D02*
X110022200Y-85163220D01*
X110022200Y-85163220D02*
X110069819Y-85306077D01*
X110069819Y-85306077D02*
X110069819Y-85401315D01*
X110069819Y-84067982D02*
X110069819Y-84544172D01*
X110069819Y-84544172D02*
X109069819Y-84544172D01*
X109974580Y-83163220D02*
X110022200Y-83210839D01*
X110022200Y-83210839D02*
X110069819Y-83353696D01*
X110069819Y-83353696D02*
X110069819Y-83448934D01*
X110069819Y-83448934D02*
X110022200Y-83591791D01*
X110022200Y-83591791D02*
X109926961Y-83687029D01*
X109926961Y-83687029D02*
X109831723Y-83734648D01*
X109831723Y-83734648D02*
X109641247Y-83782267D01*
X109641247Y-83782267D02*
X109498390Y-83782267D01*
X109498390Y-83782267D02*
X109307914Y-83734648D01*
X109307914Y-83734648D02*
X109212676Y-83687029D01*
X109212676Y-83687029D02*
X109117438Y-83591791D01*
X109117438Y-83591791D02*
X109069819Y-83448934D01*
X109069819Y-83448934D02*
X109069819Y-83353696D01*
X109069819Y-83353696D02*
X109117438Y-83210839D01*
X109117438Y-83210839D02*
X109165057Y-83163220D01*
X109069819Y-82448934D02*
X109784104Y-82448934D01*
X109784104Y-82448934D02*
X109926961Y-82496553D01*
X109926961Y-82496553D02*
X110022200Y-82591791D01*
X110022200Y-82591791D02*
X110069819Y-82734648D01*
X110069819Y-82734648D02*
X110069819Y-82829886D01*
X110069819Y-81496553D02*
X110069819Y-81972743D01*
X110069819Y-81972743D02*
X109069819Y-81972743D01*
X109974580Y-80591791D02*
X110022200Y-80639410D01*
X110022200Y-80639410D02*
X110069819Y-80782267D01*
X110069819Y-80782267D02*
X110069819Y-80877505D01*
X110069819Y-80877505D02*
X110022200Y-81020362D01*
X110022200Y-81020362D02*
X109926961Y-81115600D01*
X109926961Y-81115600D02*
X109831723Y-81163219D01*
X109831723Y-81163219D02*
X109641247Y-81210838D01*
X109641247Y-81210838D02*
X109498390Y-81210838D01*
X109498390Y-81210838D02*
X109307914Y-81163219D01*
X109307914Y-81163219D02*
X109212676Y-81115600D01*
X109212676Y-81115600D02*
X109117438Y-81020362D01*
X109117438Y-81020362D02*
X109069819Y-80877505D01*
X109069819Y-80877505D02*
X109069819Y-80782267D01*
X109069819Y-80782267D02*
X109117438Y-80639410D01*
X109117438Y-80639410D02*
X109165057Y-80591791D01*
X109069819Y-79877505D02*
X109784104Y-79877505D01*
X109784104Y-79877505D02*
X109926961Y-79925124D01*
X109926961Y-79925124D02*
X110022200Y-80020362D01*
X110022200Y-80020362D02*
X110069819Y-80163219D01*
X110069819Y-80163219D02*
X110069819Y-80258457D01*
X110069819Y-78925124D02*
X110069819Y-79401314D01*
X110069819Y-79401314D02*
X109069819Y-79401314D01*
X109974580Y-78020362D02*
X110022200Y-78067981D01*
X110022200Y-78067981D02*
X110069819Y-78210838D01*
X110069819Y-78210838D02*
X110069819Y-78306076D01*
X110069819Y-78306076D02*
X110022200Y-78448933D01*
X110022200Y-78448933D02*
X109926961Y-78544171D01*
X109926961Y-78544171D02*
X109831723Y-78591790D01*
X109831723Y-78591790D02*
X109641247Y-78639409D01*
X109641247Y-78639409D02*
X109498390Y-78639409D01*
X109498390Y-78639409D02*
X109307914Y-78591790D01*
X109307914Y-78591790D02*
X109212676Y-78544171D01*
X109212676Y-78544171D02*
X109117438Y-78448933D01*
X109117438Y-78448933D02*
X109069819Y-78306076D01*
X109069819Y-78306076D02*
X109069819Y-78210838D01*
X109069819Y-78210838D02*
X109117438Y-78067981D01*
X109117438Y-78067981D02*
X109165057Y-78020362D01*
X113955826Y-64193628D02*
X113908207Y-64146009D01*
X113908207Y-64146009D02*
X113812969Y-64098390D01*
X113812969Y-64098390D02*
X113717731Y-64098390D01*
X113717731Y-64098390D02*
X113622493Y-64146009D01*
X113622493Y-64146009D02*
X113574874Y-64193628D01*
X113574874Y-64193628D02*
X113527255Y-64288866D01*
X113527255Y-64288866D02*
X113527255Y-64384104D01*
X113527255Y-64384104D02*
X113574874Y-64479342D01*
X113574874Y-64479342D02*
X113622493Y-64526961D01*
X113622493Y-64526961D02*
X113717731Y-64574580D01*
X113717731Y-64574580D02*
X113812969Y-64574580D01*
X113812969Y-64574580D02*
X113908207Y-64526961D01*
X113908207Y-64526961D02*
X113955826Y-64479342D01*
X113955826Y-64098390D02*
X113955826Y-64479342D01*
X113955826Y-64479342D02*
X114003445Y-64526961D01*
X114003445Y-64526961D02*
X114051064Y-64526961D01*
X114051064Y-64526961D02*
X114146303Y-64479342D01*
X114146303Y-64479342D02*
X114193922Y-64384104D01*
X114193922Y-64384104D02*
X114193922Y-64146009D01*
X114193922Y-64146009D02*
X114098684Y-64003152D01*
X114098684Y-64003152D02*
X113955826Y-63907914D01*
X113955826Y-63907914D02*
X113765350Y-63860295D01*
X113765350Y-63860295D02*
X113574874Y-63907914D01*
X113574874Y-63907914D02*
X113432017Y-64003152D01*
X113432017Y-64003152D02*
X113336779Y-64146009D01*
X113336779Y-64146009D02*
X113289160Y-64336485D01*
X113289160Y-64336485D02*
X113336779Y-64526961D01*
X113336779Y-64526961D02*
X113432017Y-64669819D01*
X113432017Y-64669819D02*
X113574874Y-64765057D01*
X113574874Y-64765057D02*
X113765350Y-64812676D01*
X113765350Y-64812676D02*
X113955826Y-64765057D01*
X113955826Y-64765057D02*
X114098684Y-64669819D01*
X114574874Y-64622200D02*
X114717731Y-64669819D01*
X114717731Y-64669819D02*
X114955826Y-64669819D01*
X114955826Y-64669819D02*
X115051064Y-64622200D01*
X115051064Y-64622200D02*
X115098683Y-64574580D01*
X115098683Y-64574580D02*
X115146302Y-64479342D01*
X115146302Y-64479342D02*
X115146302Y-64384104D01*
X115146302Y-64384104D02*
X115098683Y-64288866D01*
X115098683Y-64288866D02*
X115051064Y-64241247D01*
X115051064Y-64241247D02*
X114955826Y-64193628D01*
X114955826Y-64193628D02*
X114765350Y-64146009D01*
X114765350Y-64146009D02*
X114670112Y-64098390D01*
X114670112Y-64098390D02*
X114622493Y-64050771D01*
X114622493Y-64050771D02*
X114574874Y-63955533D01*
X114574874Y-63955533D02*
X114574874Y-63860295D01*
X114574874Y-63860295D02*
X114622493Y-63765057D01*
X114622493Y-63765057D02*
X114670112Y-63717438D01*
X114670112Y-63717438D02*
X114765350Y-63669819D01*
X114765350Y-63669819D02*
X115003445Y-63669819D01*
X115003445Y-63669819D02*
X115146302Y-63717438D01*
X115574874Y-64669819D02*
X115574874Y-63669819D01*
X115574874Y-63669819D02*
X115955826Y-63669819D01*
X115955826Y-63669819D02*
X116051064Y-63717438D01*
X116051064Y-63717438D02*
X116098683Y-63765057D01*
X116098683Y-63765057D02*
X116146302Y-63860295D01*
X116146302Y-63860295D02*
X116146302Y-64003152D01*
X116146302Y-64003152D02*
X116098683Y-64098390D01*
X116098683Y-64098390D02*
X116051064Y-64146009D01*
X116051064Y-64146009D02*
X115955826Y-64193628D01*
X115955826Y-64193628D02*
X115574874Y-64193628D01*
X116574874Y-64669819D02*
X116574874Y-63669819D01*
X116955826Y-63669819D02*
X117622492Y-63669819D01*
X117622492Y-63669819D02*
X116955826Y-64669819D01*
X116955826Y-64669819D02*
X117622492Y-64669819D01*
X118003445Y-64669819D02*
X118003445Y-63669819D01*
X119003444Y-63717438D02*
X118908206Y-63669819D01*
X118908206Y-63669819D02*
X118765349Y-63669819D01*
X118765349Y-63669819D02*
X118622492Y-63717438D01*
X118622492Y-63717438D02*
X118527254Y-63812676D01*
X118527254Y-63812676D02*
X118479635Y-63907914D01*
X118479635Y-63907914D02*
X118432016Y-64098390D01*
X118432016Y-64098390D02*
X118432016Y-64241247D01*
X118432016Y-64241247D02*
X118479635Y-64431723D01*
X118479635Y-64431723D02*
X118527254Y-64526961D01*
X118527254Y-64526961D02*
X118622492Y-64622200D01*
X118622492Y-64622200D02*
X118765349Y-64669819D01*
X118765349Y-64669819D02*
X118860587Y-64669819D01*
X118860587Y-64669819D02*
X119003444Y-64622200D01*
X119003444Y-64622200D02*
X119051063Y-64574580D01*
X119051063Y-64574580D02*
X119051063Y-64241247D01*
X119051063Y-64241247D02*
X118860587Y-64241247D01*
X114289160Y-62365057D02*
X114336779Y-62317438D01*
X114336779Y-62317438D02*
X114432017Y-62269819D01*
X114432017Y-62269819D02*
X114670112Y-62269819D01*
X114670112Y-62269819D02*
X114765350Y-62317438D01*
X114765350Y-62317438D02*
X114812969Y-62365057D01*
X114812969Y-62365057D02*
X114860588Y-62460295D01*
X114860588Y-62460295D02*
X114860588Y-62555533D01*
X114860588Y-62555533D02*
X114812969Y-62698390D01*
X114812969Y-62698390D02*
X114241541Y-63269819D01*
X114241541Y-63269819D02*
X114860588Y-63269819D01*
X115479636Y-62269819D02*
X115574874Y-62269819D01*
X115574874Y-62269819D02*
X115670112Y-62317438D01*
X115670112Y-62317438D02*
X115717731Y-62365057D01*
X115717731Y-62365057D02*
X115765350Y-62460295D01*
X115765350Y-62460295D02*
X115812969Y-62650771D01*
X115812969Y-62650771D02*
X115812969Y-62888866D01*
X115812969Y-62888866D02*
X115765350Y-63079342D01*
X115765350Y-63079342D02*
X115717731Y-63174580D01*
X115717731Y-63174580D02*
X115670112Y-63222200D01*
X115670112Y-63222200D02*
X115574874Y-63269819D01*
X115574874Y-63269819D02*
X115479636Y-63269819D01*
X115479636Y-63269819D02*
X115384398Y-63222200D01*
X115384398Y-63222200D02*
X115336779Y-63174580D01*
X115336779Y-63174580D02*
X115289160Y-63079342D01*
X115289160Y-63079342D02*
X115241541Y-62888866D01*
X115241541Y-62888866D02*
X115241541Y-62650771D01*
X115241541Y-62650771D02*
X115289160Y-62460295D01*
X115289160Y-62460295D02*
X115336779Y-62365057D01*
X115336779Y-62365057D02*
X115384398Y-62317438D01*
X115384398Y-62317438D02*
X115479636Y-62269819D01*
X116193922Y-62365057D02*
X116241541Y-62317438D01*
X116241541Y-62317438D02*
X116336779Y-62269819D01*
X116336779Y-62269819D02*
X116574874Y-62269819D01*
X116574874Y-62269819D02*
X116670112Y-62317438D01*
X116670112Y-62317438D02*
X116717731Y-62365057D01*
X116717731Y-62365057D02*
X116765350Y-62460295D01*
X116765350Y-62460295D02*
X116765350Y-62555533D01*
X116765350Y-62555533D02*
X116717731Y-62698390D01*
X116717731Y-62698390D02*
X116146303Y-63269819D01*
X116146303Y-63269819D02*
X116765350Y-63269819D01*
X117622493Y-62603152D02*
X117622493Y-63269819D01*
X117384398Y-62222200D02*
X117146303Y-62936485D01*
X117146303Y-62936485D02*
X117765350Y-62936485D01*
X97711401Y-80534443D02*
X98354189Y-79768398D01*
X98354189Y-79768398D02*
X98536580Y-79921443D01*
X98536580Y-79921443D02*
X98615406Y-80049748D01*
X98615406Y-80049748D02*
X98627145Y-80183923D01*
X98627145Y-80183923D02*
X98602405Y-80287488D01*
X98602405Y-80287488D02*
X98516448Y-80464010D01*
X98516448Y-80464010D02*
X98424621Y-80573445D01*
X98424621Y-80573445D02*
X98265707Y-80688750D01*
X98265707Y-80688750D02*
X98168011Y-80731097D01*
X98168011Y-80731097D02*
X98033836Y-80742836D01*
X98033836Y-80742836D02*
X97893793Y-80687488D01*
X97893793Y-80687488D02*
X97711401Y-80534443D01*
X99485016Y-80717275D02*
X99120233Y-80411186D01*
X99120233Y-80411186D02*
X98777665Y-80745360D01*
X98777665Y-80745360D02*
X98844753Y-80739491D01*
X98844753Y-80739491D02*
X98948318Y-80764230D01*
X98948318Y-80764230D02*
X99130710Y-80917275D01*
X99130710Y-80917275D02*
X99173057Y-81014971D01*
X99173057Y-81014971D02*
X99178927Y-81082059D01*
X99178927Y-81082059D02*
X99154187Y-81185624D01*
X99154187Y-81185624D02*
X99001143Y-81368016D01*
X99001143Y-81368016D02*
X98903446Y-81410363D01*
X98903446Y-81410363D02*
X98836359Y-81416233D01*
X98836359Y-81416233D02*
X98732794Y-81391493D01*
X98732794Y-81391493D02*
X98550402Y-81238448D01*
X98550402Y-81238448D02*
X98508054Y-81140752D01*
X98508054Y-81140752D02*
X98502185Y-81073665D01*
X102499808Y-72739996D02*
X102685871Y-72301661D01*
X102725597Y-72939301D02*
X101935336Y-72241735D01*
X101935336Y-72241735D02*
X102986085Y-72325631D01*
X102634159Y-71814127D02*
X102764403Y-71507292D01*
X103302391Y-71580460D02*
X103116328Y-72018796D01*
X103116328Y-72018796D02*
X102195823Y-71628065D01*
X102195823Y-71628065D02*
X102381886Y-71189729D01*
X103674516Y-70703789D02*
X103451241Y-71229792D01*
X103562878Y-70966790D02*
X102642373Y-70576059D01*
X102642373Y-70576059D02*
X102736662Y-70719545D01*
X102736662Y-70719545D02*
X102787116Y-70844425D01*
X102787116Y-70844425D02*
X102793737Y-70950698D01*
X115959580Y-93366666D02*
X116007200Y-93414285D01*
X116007200Y-93414285D02*
X116054819Y-93557142D01*
X116054819Y-93557142D02*
X116054819Y-93652380D01*
X116054819Y-93652380D02*
X116007200Y-93795237D01*
X116007200Y-93795237D02*
X115911961Y-93890475D01*
X115911961Y-93890475D02*
X115816723Y-93938094D01*
X115816723Y-93938094D02*
X115626247Y-93985713D01*
X115626247Y-93985713D02*
X115483390Y-93985713D01*
X115483390Y-93985713D02*
X115292914Y-93938094D01*
X115292914Y-93938094D02*
X115197676Y-93890475D01*
X115197676Y-93890475D02*
X115102438Y-93795237D01*
X115102438Y-93795237D02*
X115054819Y-93652380D01*
X115054819Y-93652380D02*
X115054819Y-93557142D01*
X115054819Y-93557142D02*
X115102438Y-93414285D01*
X115102438Y-93414285D02*
X115150057Y-93366666D01*
X115150057Y-92985713D02*
X115102438Y-92938094D01*
X115102438Y-92938094D02*
X115054819Y-92842856D01*
X115054819Y-92842856D02*
X115054819Y-92604761D01*
X115054819Y-92604761D02*
X115102438Y-92509523D01*
X115102438Y-92509523D02*
X115150057Y-92461904D01*
X115150057Y-92461904D02*
X115245295Y-92414285D01*
X115245295Y-92414285D02*
X115340533Y-92414285D01*
X115340533Y-92414285D02*
X115483390Y-92461904D01*
X115483390Y-92461904D02*
X116054819Y-93033332D01*
X116054819Y-93033332D02*
X116054819Y-92414285D01*
X108266666Y-66654819D02*
X108266666Y-67369104D01*
X108266666Y-67369104D02*
X108219047Y-67511961D01*
X108219047Y-67511961D02*
X108123809Y-67607200D01*
X108123809Y-67607200D02*
X107980952Y-67654819D01*
X107980952Y-67654819D02*
X107885714Y-67654819D01*
X109266666Y-67654819D02*
X108695238Y-67654819D01*
X108980952Y-67654819D02*
X108980952Y-66654819D01*
X108980952Y-66654819D02*
X108885714Y-66797676D01*
X108885714Y-66797676D02*
X108790476Y-66892914D01*
X108790476Y-66892914D02*
X108695238Y-66940533D01*
X97742234Y-83173973D02*
X98385022Y-82407928D01*
X98385022Y-82407928D02*
X98567413Y-82560973D01*
X98567413Y-82560973D02*
X98646239Y-82689278D01*
X98646239Y-82689278D02*
X98657978Y-82823453D01*
X98657978Y-82823453D02*
X98633238Y-82927018D01*
X98633238Y-82927018D02*
X98547281Y-83103540D01*
X98547281Y-83103540D02*
X98455454Y-83212975D01*
X98455454Y-83212975D02*
X98296540Y-83328280D01*
X98296540Y-83328280D02*
X98198844Y-83370627D01*
X98198844Y-83370627D02*
X98064669Y-83382366D01*
X98064669Y-83382366D02*
X97924626Y-83327018D01*
X97924626Y-83327018D02*
X97742234Y-83173973D01*
X99265108Y-83581545D02*
X98836583Y-84092241D01*
X99327588Y-83136674D02*
X98686063Y-83530803D01*
X98686063Y-83530803D02*
X99160281Y-83928720D01*
X129254819Y-82761904D02*
X130064342Y-82761904D01*
X130064342Y-82761904D02*
X130159580Y-82714285D01*
X130159580Y-82714285D02*
X130207200Y-82666666D01*
X130207200Y-82666666D02*
X130254819Y-82571428D01*
X130254819Y-82571428D02*
X130254819Y-82380952D01*
X130254819Y-82380952D02*
X130207200Y-82285714D01*
X130207200Y-82285714D02*
X130159580Y-82238095D01*
X130159580Y-82238095D02*
X130064342Y-82190476D01*
X130064342Y-82190476D02*
X129254819Y-82190476D01*
X129350057Y-81761904D02*
X129302438Y-81714285D01*
X129302438Y-81714285D02*
X129254819Y-81619047D01*
X129254819Y-81619047D02*
X129254819Y-81380952D01*
X129254819Y-81380952D02*
X129302438Y-81285714D01*
X129302438Y-81285714D02*
X129350057Y-81238095D01*
X129350057Y-81238095D02*
X129445295Y-81190476D01*
X129445295Y-81190476D02*
X129540533Y-81190476D01*
X129540533Y-81190476D02*
X129683390Y-81238095D01*
X129683390Y-81238095D02*
X130254819Y-81809523D01*
X130254819Y-81809523D02*
X130254819Y-81190476D01*
X128979819Y-77864285D02*
X128979819Y-78435713D01*
X128979819Y-78149999D02*
X127979819Y-78149999D01*
X127979819Y-78149999D02*
X128122676Y-78245237D01*
X128122676Y-78245237D02*
X128217914Y-78340475D01*
X128217914Y-78340475D02*
X128265533Y-78435713D01*
X128929819Y-85540476D02*
X128929819Y-86111904D01*
X128929819Y-85826190D02*
X127929819Y-85826190D01*
X127929819Y-85826190D02*
X128072676Y-85921428D01*
X128072676Y-85921428D02*
X128167914Y-86016666D01*
X128167914Y-86016666D02*
X128215533Y-86111904D01*
X128025057Y-85159523D02*
X127977438Y-85111904D01*
X127977438Y-85111904D02*
X127929819Y-85016666D01*
X127929819Y-85016666D02*
X127929819Y-84778571D01*
X127929819Y-84778571D02*
X127977438Y-84683333D01*
X127977438Y-84683333D02*
X128025057Y-84635714D01*
X128025057Y-84635714D02*
X128120295Y-84588095D01*
X128120295Y-84588095D02*
X128215533Y-84588095D01*
X128215533Y-84588095D02*
X128358390Y-84635714D01*
X128358390Y-84635714D02*
X128929819Y-85207142D01*
X128929819Y-85207142D02*
X128929819Y-84588095D01*
X109171666Y-75454819D02*
X109171666Y-76169104D01*
X109171666Y-76169104D02*
X109124047Y-76311961D01*
X109124047Y-76311961D02*
X109028809Y-76407200D01*
X109028809Y-76407200D02*
X108885952Y-76454819D01*
X108885952Y-76454819D02*
X108790714Y-76454819D01*
X109647857Y-76454819D02*
X109647857Y-75454819D01*
X109647857Y-75454819D02*
X110028809Y-75454819D01*
X110028809Y-75454819D02*
X110124047Y-75502438D01*
X110124047Y-75502438D02*
X110171666Y-75550057D01*
X110171666Y-75550057D02*
X110219285Y-75645295D01*
X110219285Y-75645295D02*
X110219285Y-75788152D01*
X110219285Y-75788152D02*
X110171666Y-75883390D01*
X110171666Y-75883390D02*
X110124047Y-75931009D01*
X110124047Y-75931009D02*
X110028809Y-75978628D01*
X110028809Y-75978628D02*
X109647857Y-75978628D01*
X111076428Y-75788152D02*
X111076428Y-76454819D01*
X110838333Y-75407200D02*
X110600238Y-76121485D01*
X110600238Y-76121485D02*
X111219285Y-76121485D01*
X117433333Y-69854819D02*
X117100000Y-69378628D01*
X116861905Y-69854819D02*
X116861905Y-68854819D01*
X116861905Y-68854819D02*
X117242857Y-68854819D01*
X117242857Y-68854819D02*
X117338095Y-68902438D01*
X117338095Y-68902438D02*
X117385714Y-68950057D01*
X117385714Y-68950057D02*
X117433333Y-69045295D01*
X117433333Y-69045295D02*
X117433333Y-69188152D01*
X117433333Y-69188152D02*
X117385714Y-69283390D01*
X117385714Y-69283390D02*
X117338095Y-69331009D01*
X117338095Y-69331009D02*
X117242857Y-69378628D01*
X117242857Y-69378628D02*
X116861905Y-69378628D01*
X118338095Y-68854819D02*
X117861905Y-68854819D01*
X117861905Y-68854819D02*
X117814286Y-69331009D01*
X117814286Y-69331009D02*
X117861905Y-69283390D01*
X117861905Y-69283390D02*
X117957143Y-69235771D01*
X117957143Y-69235771D02*
X118195238Y-69235771D01*
X118195238Y-69235771D02*
X118290476Y-69283390D01*
X118290476Y-69283390D02*
X118338095Y-69331009D01*
X118338095Y-69331009D02*
X118385714Y-69426247D01*
X118385714Y-69426247D02*
X118385714Y-69664342D01*
X118385714Y-69664342D02*
X118338095Y-69759580D01*
X118338095Y-69759580D02*
X118290476Y-69807200D01*
X118290476Y-69807200D02*
X118195238Y-69854819D01*
X118195238Y-69854819D02*
X117957143Y-69854819D01*
X117957143Y-69854819D02*
X117861905Y-69807200D01*
X117861905Y-69807200D02*
X117814286Y-69759580D01*
X109133333Y-93354819D02*
X108800000Y-92878628D01*
X108561905Y-93354819D02*
X108561905Y-92354819D01*
X108561905Y-92354819D02*
X108942857Y-92354819D01*
X108942857Y-92354819D02*
X109038095Y-92402438D01*
X109038095Y-92402438D02*
X109085714Y-92450057D01*
X109085714Y-92450057D02*
X109133333Y-92545295D01*
X109133333Y-92545295D02*
X109133333Y-92688152D01*
X109133333Y-92688152D02*
X109085714Y-92783390D01*
X109085714Y-92783390D02*
X109038095Y-92831009D01*
X109038095Y-92831009D02*
X108942857Y-92878628D01*
X108942857Y-92878628D02*
X108561905Y-92878628D01*
X110085714Y-93354819D02*
X109514286Y-93354819D01*
X109800000Y-93354819D02*
X109800000Y-92354819D01*
X109800000Y-92354819D02*
X109704762Y-92497676D01*
X109704762Y-92497676D02*
X109609524Y-92592914D01*
X109609524Y-92592914D02*
X109514286Y-92640533D01*
X120954819Y-76583333D02*
X121669104Y-76583333D01*
X121669104Y-76583333D02*
X121811961Y-76630952D01*
X121811961Y-76630952D02*
X121907200Y-76726190D01*
X121907200Y-76726190D02*
X121954819Y-76869047D01*
X121954819Y-76869047D02*
X121954819Y-76964285D01*
X121954819Y-76107142D02*
X120954819Y-76107142D01*
X120954819Y-76107142D02*
X120954819Y-75726190D01*
X120954819Y-75726190D02*
X121002438Y-75630952D01*
X121002438Y-75630952D02*
X121050057Y-75583333D01*
X121050057Y-75583333D02*
X121145295Y-75535714D01*
X121145295Y-75535714D02*
X121288152Y-75535714D01*
X121288152Y-75535714D02*
X121383390Y-75583333D01*
X121383390Y-75583333D02*
X121431009Y-75630952D01*
X121431009Y-75630952D02*
X121478628Y-75726190D01*
X121478628Y-75726190D02*
X121478628Y-76107142D01*
X120954819Y-74678571D02*
X120954819Y-74869047D01*
X120954819Y-74869047D02*
X121002438Y-74964285D01*
X121002438Y-74964285D02*
X121050057Y-75011904D01*
X121050057Y-75011904D02*
X121192914Y-75107142D01*
X121192914Y-75107142D02*
X121383390Y-75154761D01*
X121383390Y-75154761D02*
X121764342Y-75154761D01*
X121764342Y-75154761D02*
X121859580Y-75107142D01*
X121859580Y-75107142D02*
X121907200Y-75059523D01*
X121907200Y-75059523D02*
X121954819Y-74964285D01*
X121954819Y-74964285D02*
X121954819Y-74773809D01*
X121954819Y-74773809D02*
X121907200Y-74678571D01*
X121907200Y-74678571D02*
X121859580Y-74630952D01*
X121859580Y-74630952D02*
X121764342Y-74583333D01*
X121764342Y-74583333D02*
X121526247Y-74583333D01*
X121526247Y-74583333D02*
X121431009Y-74630952D01*
X121431009Y-74630952D02*
X121383390Y-74678571D01*
X121383390Y-74678571D02*
X121335771Y-74773809D01*
X121335771Y-74773809D02*
X121335771Y-74964285D01*
X121335771Y-74964285D02*
X121383390Y-75059523D01*
X121383390Y-75059523D02*
X121431009Y-75107142D01*
X121431009Y-75107142D02*
X121526247Y-75154761D01*
X115959580Y-91566666D02*
X116007200Y-91614285D01*
X116007200Y-91614285D02*
X116054819Y-91757142D01*
X116054819Y-91757142D02*
X116054819Y-91852380D01*
X116054819Y-91852380D02*
X116007200Y-91995237D01*
X116007200Y-91995237D02*
X115911961Y-92090475D01*
X115911961Y-92090475D02*
X115816723Y-92138094D01*
X115816723Y-92138094D02*
X115626247Y-92185713D01*
X115626247Y-92185713D02*
X115483390Y-92185713D01*
X115483390Y-92185713D02*
X115292914Y-92138094D01*
X115292914Y-92138094D02*
X115197676Y-92090475D01*
X115197676Y-92090475D02*
X115102438Y-91995237D01*
X115102438Y-91995237D02*
X115054819Y-91852380D01*
X115054819Y-91852380D02*
X115054819Y-91757142D01*
X115054819Y-91757142D02*
X115102438Y-91614285D01*
X115102438Y-91614285D02*
X115150057Y-91566666D01*
X116054819Y-90614285D02*
X116054819Y-91185713D01*
X116054819Y-90899999D02*
X115054819Y-90899999D01*
X115054819Y-90899999D02*
X115197676Y-90995237D01*
X115197676Y-90995237D02*
X115292914Y-91090475D01*
X115292914Y-91090475D02*
X115340533Y-91185713D01*
X108933333Y-74554819D02*
X108600000Y-74078628D01*
X108361905Y-74554819D02*
X108361905Y-73554819D01*
X108361905Y-73554819D02*
X108742857Y-73554819D01*
X108742857Y-73554819D02*
X108838095Y-73602438D01*
X108838095Y-73602438D02*
X108885714Y-73650057D01*
X108885714Y-73650057D02*
X108933333Y-73745295D01*
X108933333Y-73745295D02*
X108933333Y-73888152D01*
X108933333Y-73888152D02*
X108885714Y-73983390D01*
X108885714Y-73983390D02*
X108838095Y-74031009D01*
X108838095Y-74031009D02*
X108742857Y-74078628D01*
X108742857Y-74078628D02*
X108361905Y-74078628D01*
X109504762Y-73983390D02*
X109409524Y-73935771D01*
X109409524Y-73935771D02*
X109361905Y-73888152D01*
X109361905Y-73888152D02*
X109314286Y-73792914D01*
X109314286Y-73792914D02*
X109314286Y-73745295D01*
X109314286Y-73745295D02*
X109361905Y-73650057D01*
X109361905Y-73650057D02*
X109409524Y-73602438D01*
X109409524Y-73602438D02*
X109504762Y-73554819D01*
X109504762Y-73554819D02*
X109695238Y-73554819D01*
X109695238Y-73554819D02*
X109790476Y-73602438D01*
X109790476Y-73602438D02*
X109838095Y-73650057D01*
X109838095Y-73650057D02*
X109885714Y-73745295D01*
X109885714Y-73745295D02*
X109885714Y-73792914D01*
X109885714Y-73792914D02*
X109838095Y-73888152D01*
X109838095Y-73888152D02*
X109790476Y-73935771D01*
X109790476Y-73935771D02*
X109695238Y-73983390D01*
X109695238Y-73983390D02*
X109504762Y-73983390D01*
X109504762Y-73983390D02*
X109409524Y-74031009D01*
X109409524Y-74031009D02*
X109361905Y-74078628D01*
X109361905Y-74078628D02*
X109314286Y-74173866D01*
X109314286Y-74173866D02*
X109314286Y-74364342D01*
X109314286Y-74364342D02*
X109361905Y-74459580D01*
X109361905Y-74459580D02*
X109409524Y-74507200D01*
X109409524Y-74507200D02*
X109504762Y-74554819D01*
X109504762Y-74554819D02*
X109695238Y-74554819D01*
X109695238Y-74554819D02*
X109790476Y-74507200D01*
X109790476Y-74507200D02*
X109838095Y-74459580D01*
X109838095Y-74459580D02*
X109885714Y-74364342D01*
X109885714Y-74364342D02*
X109885714Y-74173866D01*
X109885714Y-74173866D02*
X109838095Y-74078628D01*
X109838095Y-74078628D02*
X109790476Y-74031009D01*
X109790476Y-74031009D02*
X109695238Y-73983390D01*
X97842234Y-86673973D02*
X98485022Y-85907928D01*
X98485022Y-85907928D02*
X98667413Y-86060973D01*
X98667413Y-86060973D02*
X98746239Y-86189278D01*
X98746239Y-86189278D02*
X98757978Y-86323453D01*
X98757978Y-86323453D02*
X98733238Y-86427018D01*
X98733238Y-86427018D02*
X98647281Y-86603540D01*
X98647281Y-86603540D02*
X98555454Y-86712975D01*
X98555454Y-86712975D02*
X98396540Y-86828280D01*
X98396540Y-86828280D02*
X98298844Y-86870627D01*
X98298844Y-86870627D02*
X98164669Y-86882366D01*
X98164669Y-86882366D02*
X98024626Y-86827018D01*
X98024626Y-86827018D02*
X97842234Y-86673973D01*
X99178109Y-86489498D02*
X99652327Y-86887414D01*
X99652327Y-86887414D02*
X99152108Y-86964978D01*
X99152108Y-86964978D02*
X99261543Y-87056805D01*
X99261543Y-87056805D02*
X99303890Y-87154501D01*
X99303890Y-87154501D02*
X99309760Y-87221589D01*
X99309760Y-87221589D02*
X99285020Y-87325154D01*
X99285020Y-87325154D02*
X99131976Y-87507546D01*
X99131976Y-87507546D02*
X99034279Y-87549893D01*
X99034279Y-87549893D02*
X98967192Y-87555763D01*
X98967192Y-87555763D02*
X98863627Y-87531023D01*
X98863627Y-87531023D02*
X98644757Y-87347369D01*
X98644757Y-87347369D02*
X98602409Y-87249673D01*
X98602409Y-87249673D02*
X98596540Y-87182586D01*
X116433333Y-68059580D02*
X116385714Y-68107200D01*
X116385714Y-68107200D02*
X116242857Y-68154819D01*
X116242857Y-68154819D02*
X116147619Y-68154819D01*
X116147619Y-68154819D02*
X116004762Y-68107200D01*
X116004762Y-68107200D02*
X115909524Y-68011961D01*
X115909524Y-68011961D02*
X115861905Y-67916723D01*
X115861905Y-67916723D02*
X115814286Y-67726247D01*
X115814286Y-67726247D02*
X115814286Y-67583390D01*
X115814286Y-67583390D02*
X115861905Y-67392914D01*
X115861905Y-67392914D02*
X115909524Y-67297676D01*
X115909524Y-67297676D02*
X116004762Y-67202438D01*
X116004762Y-67202438D02*
X116147619Y-67154819D01*
X116147619Y-67154819D02*
X116242857Y-67154819D01*
X116242857Y-67154819D02*
X116385714Y-67202438D01*
X116385714Y-67202438D02*
X116433333Y-67250057D01*
X117290476Y-67488152D02*
X117290476Y-68154819D01*
X117052381Y-67107200D02*
X116814286Y-67821485D01*
X116814286Y-67821485D02*
X117433333Y-67821485D01*
X115633333Y-97854819D02*
X115300000Y-97378628D01*
X115061905Y-97854819D02*
X115061905Y-96854819D01*
X115061905Y-96854819D02*
X115442857Y-96854819D01*
X115442857Y-96854819D02*
X115538095Y-96902438D01*
X115538095Y-96902438D02*
X115585714Y-96950057D01*
X115585714Y-96950057D02*
X115633333Y-97045295D01*
X115633333Y-97045295D02*
X115633333Y-97188152D01*
X115633333Y-97188152D02*
X115585714Y-97283390D01*
X115585714Y-97283390D02*
X115538095Y-97331009D01*
X115538095Y-97331009D02*
X115442857Y-97378628D01*
X115442857Y-97378628D02*
X115061905Y-97378628D01*
X116490476Y-97188152D02*
X116490476Y-97854819D01*
X116252381Y-96807200D02*
X116014286Y-97521485D01*
X116014286Y-97521485D02*
X116633333Y-97521485D01*
X124880952Y-88854819D02*
X124547619Y-88378628D01*
X124309524Y-88854819D02*
X124309524Y-87854819D01*
X124309524Y-87854819D02*
X124690476Y-87854819D01*
X124690476Y-87854819D02*
X124785714Y-87902438D01*
X124785714Y-87902438D02*
X124833333Y-87950057D01*
X124833333Y-87950057D02*
X124880952Y-88045295D01*
X124880952Y-88045295D02*
X124880952Y-88188152D01*
X124880952Y-88188152D02*
X124833333Y-88283390D01*
X124833333Y-88283390D02*
X124785714Y-88331009D01*
X124785714Y-88331009D02*
X124690476Y-88378628D01*
X124690476Y-88378628D02*
X124309524Y-88378628D01*
X125309524Y-88331009D02*
X125642857Y-88331009D01*
X125785714Y-88854819D02*
X125309524Y-88854819D01*
X125309524Y-88854819D02*
X125309524Y-87854819D01*
X125309524Y-87854819D02*
X125785714Y-87854819D01*
X126166667Y-88807200D02*
X126309524Y-88854819D01*
X126309524Y-88854819D02*
X126547619Y-88854819D01*
X126547619Y-88854819D02*
X126642857Y-88807200D01*
X126642857Y-88807200D02*
X126690476Y-88759580D01*
X126690476Y-88759580D02*
X126738095Y-88664342D01*
X126738095Y-88664342D02*
X126738095Y-88569104D01*
X126738095Y-88569104D02*
X126690476Y-88473866D01*
X126690476Y-88473866D02*
X126642857Y-88426247D01*
X126642857Y-88426247D02*
X126547619Y-88378628D01*
X126547619Y-88378628D02*
X126357143Y-88331009D01*
X126357143Y-88331009D02*
X126261905Y-88283390D01*
X126261905Y-88283390D02*
X126214286Y-88235771D01*
X126214286Y-88235771D02*
X126166667Y-88140533D01*
X126166667Y-88140533D02*
X126166667Y-88045295D01*
X126166667Y-88045295D02*
X126214286Y-87950057D01*
X126214286Y-87950057D02*
X126261905Y-87902438D01*
X126261905Y-87902438D02*
X126357143Y-87854819D01*
X126357143Y-87854819D02*
X126595238Y-87854819D01*
X126595238Y-87854819D02*
X126738095Y-87902438D01*
X105133333Y-74459580D02*
X105085714Y-74507200D01*
X105085714Y-74507200D02*
X104942857Y-74554819D01*
X104942857Y-74554819D02*
X104847619Y-74554819D01*
X104847619Y-74554819D02*
X104704762Y-74507200D01*
X104704762Y-74507200D02*
X104609524Y-74411961D01*
X104609524Y-74411961D02*
X104561905Y-74316723D01*
X104561905Y-74316723D02*
X104514286Y-74126247D01*
X104514286Y-74126247D02*
X104514286Y-73983390D01*
X104514286Y-73983390D02*
X104561905Y-73792914D01*
X104561905Y-73792914D02*
X104609524Y-73697676D01*
X104609524Y-73697676D02*
X104704762Y-73602438D01*
X104704762Y-73602438D02*
X104847619Y-73554819D01*
X104847619Y-73554819D02*
X104942857Y-73554819D01*
X104942857Y-73554819D02*
X105085714Y-73602438D01*
X105085714Y-73602438D02*
X105133333Y-73650057D01*
X106038095Y-73554819D02*
X105561905Y-73554819D01*
X105561905Y-73554819D02*
X105514286Y-74031009D01*
X105514286Y-74031009D02*
X105561905Y-73983390D01*
X105561905Y-73983390D02*
X105657143Y-73935771D01*
X105657143Y-73935771D02*
X105895238Y-73935771D01*
X105895238Y-73935771D02*
X105990476Y-73983390D01*
X105990476Y-73983390D02*
X106038095Y-74031009D01*
X106038095Y-74031009D02*
X106085714Y-74126247D01*
X106085714Y-74126247D02*
X106085714Y-74364342D01*
X106085714Y-74364342D02*
X106038095Y-74459580D01*
X106038095Y-74459580D02*
X105990476Y-74507200D01*
X105990476Y-74507200D02*
X105895238Y-74554819D01*
X105895238Y-74554819D02*
X105657143Y-74554819D01*
X105657143Y-74554819D02*
X105561905Y-74507200D01*
X105561905Y-74507200D02*
X105514286Y-74459580D01*
X100854819Y-79466666D02*
X100378628Y-79799999D01*
X100854819Y-80038094D02*
X99854819Y-80038094D01*
X99854819Y-80038094D02*
X99854819Y-79657142D01*
X99854819Y-79657142D02*
X99902438Y-79561904D01*
X99902438Y-79561904D02*
X99950057Y-79514285D01*
X99950057Y-79514285D02*
X100045295Y-79466666D01*
X100045295Y-79466666D02*
X100188152Y-79466666D01*
X100188152Y-79466666D02*
X100283390Y-79514285D01*
X100283390Y-79514285D02*
X100331009Y-79561904D01*
X100331009Y-79561904D02*
X100378628Y-79657142D01*
X100378628Y-79657142D02*
X100378628Y-80038094D01*
X99854819Y-78609523D02*
X99854819Y-78799999D01*
X99854819Y-78799999D02*
X99902438Y-78895237D01*
X99902438Y-78895237D02*
X99950057Y-78942856D01*
X99950057Y-78942856D02*
X100092914Y-79038094D01*
X100092914Y-79038094D02*
X100283390Y-79085713D01*
X100283390Y-79085713D02*
X100664342Y-79085713D01*
X100664342Y-79085713D02*
X100759580Y-79038094D01*
X100759580Y-79038094D02*
X100807200Y-78990475D01*
X100807200Y-78990475D02*
X100854819Y-78895237D01*
X100854819Y-78895237D02*
X100854819Y-78704761D01*
X100854819Y-78704761D02*
X100807200Y-78609523D01*
X100807200Y-78609523D02*
X100759580Y-78561904D01*
X100759580Y-78561904D02*
X100664342Y-78514285D01*
X100664342Y-78514285D02*
X100426247Y-78514285D01*
X100426247Y-78514285D02*
X100331009Y-78561904D01*
X100331009Y-78561904D02*
X100283390Y-78609523D01*
X100283390Y-78609523D02*
X100235771Y-78704761D01*
X100235771Y-78704761D02*
X100235771Y-78895237D01*
X100235771Y-78895237D02*
X100283390Y-78990475D01*
X100283390Y-78990475D02*
X100331009Y-79038094D01*
X100331009Y-79038094D02*
X100426247Y-79085713D01*
X101854819Y-92183333D02*
X102569104Y-92183333D01*
X102569104Y-92183333D02*
X102711961Y-92230952D01*
X102711961Y-92230952D02*
X102807200Y-92326190D01*
X102807200Y-92326190D02*
X102854819Y-92469047D01*
X102854819Y-92469047D02*
X102854819Y-92564285D01*
X102854819Y-91707142D02*
X101854819Y-91707142D01*
X101854819Y-91707142D02*
X101854819Y-91326190D01*
X101854819Y-91326190D02*
X101902438Y-91230952D01*
X101902438Y-91230952D02*
X101950057Y-91183333D01*
X101950057Y-91183333D02*
X102045295Y-91135714D01*
X102045295Y-91135714D02*
X102188152Y-91135714D01*
X102188152Y-91135714D02*
X102283390Y-91183333D01*
X102283390Y-91183333D02*
X102331009Y-91230952D01*
X102331009Y-91230952D02*
X102378628Y-91326190D01*
X102378628Y-91326190D02*
X102378628Y-91707142D01*
X101854819Y-90230952D02*
X101854819Y-90707142D01*
X101854819Y-90707142D02*
X102331009Y-90754761D01*
X102331009Y-90754761D02*
X102283390Y-90707142D01*
X102283390Y-90707142D02*
X102235771Y-90611904D01*
X102235771Y-90611904D02*
X102235771Y-90373809D01*
X102235771Y-90373809D02*
X102283390Y-90278571D01*
X102283390Y-90278571D02*
X102331009Y-90230952D01*
X102331009Y-90230952D02*
X102426247Y-90183333D01*
X102426247Y-90183333D02*
X102664342Y-90183333D01*
X102664342Y-90183333D02*
X102759580Y-90230952D01*
X102759580Y-90230952D02*
X102807200Y-90278571D01*
X102807200Y-90278571D02*
X102854819Y-90373809D01*
X102854819Y-90373809D02*
X102854819Y-90611904D01*
X102854819Y-90611904D02*
X102807200Y-90707142D01*
X102807200Y-90707142D02*
X102759580Y-90754761D01*
X111854819Y-72633333D02*
X112569104Y-72633333D01*
X112569104Y-72633333D02*
X112711961Y-72680952D01*
X112711961Y-72680952D02*
X112807200Y-72776190D01*
X112807200Y-72776190D02*
X112854819Y-72919047D01*
X112854819Y-72919047D02*
X112854819Y-73014285D01*
X112854819Y-72157142D02*
X111854819Y-72157142D01*
X111854819Y-72157142D02*
X111854819Y-71776190D01*
X111854819Y-71776190D02*
X111902438Y-71680952D01*
X111902438Y-71680952D02*
X111950057Y-71633333D01*
X111950057Y-71633333D02*
X112045295Y-71585714D01*
X112045295Y-71585714D02*
X112188152Y-71585714D01*
X112188152Y-71585714D02*
X112283390Y-71633333D01*
X112283390Y-71633333D02*
X112331009Y-71680952D01*
X112331009Y-71680952D02*
X112378628Y-71776190D01*
X112378628Y-71776190D02*
X112378628Y-72157142D01*
X111854819Y-71252380D02*
X111854819Y-70633333D01*
X111854819Y-70633333D02*
X112235771Y-70966666D01*
X112235771Y-70966666D02*
X112235771Y-70823809D01*
X112235771Y-70823809D02*
X112283390Y-70728571D01*
X112283390Y-70728571D02*
X112331009Y-70680952D01*
X112331009Y-70680952D02*
X112426247Y-70633333D01*
X112426247Y-70633333D02*
X112664342Y-70633333D01*
X112664342Y-70633333D02*
X112759580Y-70680952D01*
X112759580Y-70680952D02*
X112807200Y-70728571D01*
X112807200Y-70728571D02*
X112854819Y-70823809D01*
X112854819Y-70823809D02*
X112854819Y-71109523D01*
X112854819Y-71109523D02*
X112807200Y-71204761D01*
X112807200Y-71204761D02*
X112759580Y-71252380D01*
X112936779Y-96654819D02*
X112936779Y-97464342D01*
X112936779Y-97464342D02*
X112984398Y-97559580D01*
X112984398Y-97559580D02*
X113032017Y-97607200D01*
X113032017Y-97607200D02*
X113127255Y-97654819D01*
X113127255Y-97654819D02*
X113317731Y-97654819D01*
X113317731Y-97654819D02*
X113412969Y-97607200D01*
X113412969Y-97607200D02*
X113460588Y-97559580D01*
X113460588Y-97559580D02*
X113508207Y-97464342D01*
X113508207Y-97464342D02*
X113508207Y-96654819D01*
X113889160Y-96654819D02*
X114508207Y-96654819D01*
X114508207Y-96654819D02*
X114174874Y-97035771D01*
X114174874Y-97035771D02*
X114317731Y-97035771D01*
X114317731Y-97035771D02*
X114412969Y-97083390D01*
X114412969Y-97083390D02*
X114460588Y-97131009D01*
X114460588Y-97131009D02*
X114508207Y-97226247D01*
X114508207Y-97226247D02*
X114508207Y-97464342D01*
X114508207Y-97464342D02*
X114460588Y-97559580D01*
X114460588Y-97559580D02*
X114412969Y-97607200D01*
X114412969Y-97607200D02*
X114317731Y-97654819D01*
X114317731Y-97654819D02*
X114032017Y-97654819D01*
X114032017Y-97654819D02*
X113936779Y-97607200D01*
X113936779Y-97607200D02*
X113889160Y-97559580D01*
X125733333Y-72959580D02*
X125685714Y-73007200D01*
X125685714Y-73007200D02*
X125542857Y-73054819D01*
X125542857Y-73054819D02*
X125447619Y-73054819D01*
X125447619Y-73054819D02*
X125304762Y-73007200D01*
X125304762Y-73007200D02*
X125209524Y-72911961D01*
X125209524Y-72911961D02*
X125161905Y-72816723D01*
X125161905Y-72816723D02*
X125114286Y-72626247D01*
X125114286Y-72626247D02*
X125114286Y-72483390D01*
X125114286Y-72483390D02*
X125161905Y-72292914D01*
X125161905Y-72292914D02*
X125209524Y-72197676D01*
X125209524Y-72197676D02*
X125304762Y-72102438D01*
X125304762Y-72102438D02*
X125447619Y-72054819D01*
X125447619Y-72054819D02*
X125542857Y-72054819D01*
X125542857Y-72054819D02*
X125685714Y-72102438D01*
X125685714Y-72102438D02*
X125733333Y-72150057D01*
X126114286Y-73007200D02*
X126257143Y-73054819D01*
X126257143Y-73054819D02*
X126495238Y-73054819D01*
X126495238Y-73054819D02*
X126590476Y-73007200D01*
X126590476Y-73007200D02*
X126638095Y-72959580D01*
X126638095Y-72959580D02*
X126685714Y-72864342D01*
X126685714Y-72864342D02*
X126685714Y-72769104D01*
X126685714Y-72769104D02*
X126638095Y-72673866D01*
X126638095Y-72673866D02*
X126590476Y-72626247D01*
X126590476Y-72626247D02*
X126495238Y-72578628D01*
X126495238Y-72578628D02*
X126304762Y-72531009D01*
X126304762Y-72531009D02*
X126209524Y-72483390D01*
X126209524Y-72483390D02*
X126161905Y-72435771D01*
X126161905Y-72435771D02*
X126114286Y-72340533D01*
X126114286Y-72340533D02*
X126114286Y-72245295D01*
X126114286Y-72245295D02*
X126161905Y-72150057D01*
X126161905Y-72150057D02*
X126209524Y-72102438D01*
X126209524Y-72102438D02*
X126304762Y-72054819D01*
X126304762Y-72054819D02*
X126542857Y-72054819D01*
X126542857Y-72054819D02*
X126685714Y-72102438D01*
X110838095Y-83054819D02*
X110838095Y-83864342D01*
X110838095Y-83864342D02*
X110885714Y-83959580D01*
X110885714Y-83959580D02*
X110933333Y-84007200D01*
X110933333Y-84007200D02*
X111028571Y-84054819D01*
X111028571Y-84054819D02*
X111219047Y-84054819D01*
X111219047Y-84054819D02*
X111314285Y-84007200D01*
X111314285Y-84007200D02*
X111361904Y-83959580D01*
X111361904Y-83959580D02*
X111409523Y-83864342D01*
X111409523Y-83864342D02*
X111409523Y-83054819D01*
X112409523Y-84054819D02*
X111838095Y-84054819D01*
X112123809Y-84054819D02*
X112123809Y-83054819D01*
X112123809Y-83054819D02*
X112028571Y-83197676D01*
X112028571Y-83197676D02*
X111933333Y-83292914D01*
X111933333Y-83292914D02*
X111838095Y-83340533D01*
D11*
%TO.C,D5*%
X96285375Y-79788466D02*
X99357213Y-82366044D01*
X97570950Y-78256377D02*
X96285375Y-79788466D01*
X97570950Y-78256377D02*
X100642788Y-80833955D01*
%TO.C,AE1*%
X97046984Y-72887130D02*
X96613271Y-73908891D01*
X98137123Y-70318921D02*
X97703412Y-71340680D01*
X100462057Y-74336740D02*
X100028344Y-75358504D01*
X101296548Y-73778418D02*
X101659118Y-74203912D01*
X101552196Y-71768532D02*
X101118484Y-72790293D01*
X101659118Y-74203912D02*
X101854484Y-73743661D01*
X101854484Y-73743661D02*
X101296548Y-73778418D01*
%TO.C,C2*%
X117738748Y-92665000D02*
X118261252Y-92665000D01*
X117738748Y-94135000D02*
X118261252Y-94135000D01*
%TO.C,J1*%
X105490000Y-67810000D02*
X105490000Y-69260000D01*
X105490000Y-69260000D02*
X107290000Y-69260000D01*
X109660000Y-69260000D02*
X109660000Y-70250000D01*
X110190000Y-64990000D02*
X106760000Y-64990000D01*
X111460000Y-67810000D02*
X111460000Y-69260000D01*
X111460000Y-69260000D02*
X109660000Y-69260000D01*
%TO.C,D4*%
X96213321Y-82709666D02*
X99285159Y-85287244D01*
X97498896Y-81177577D02*
X96213321Y-82709666D01*
X97498896Y-81177577D02*
X100570734Y-83755155D01*
D10*
%TO.C,U2*%
X125325000Y-77700000D02*
X125325000Y-76700000D01*
X125325000Y-87300000D02*
X125325000Y-86300000D01*
X128275000Y-76300000D02*
X125675000Y-76300000D01*
X135325000Y-75500000D02*
X129075000Y-75500000D01*
X135325000Y-87700000D02*
X125725000Y-87700000D01*
X135725000Y-75900000D02*
X135725000Y-87300000D01*
X125325000Y-76700000D02*
G75*
G02*
X125725000Y-76300000I399999J1D01*
G01*
X125725000Y-87700000D02*
G75*
G02*
X125325000Y-87300000I0J400000D01*
G01*
X128675000Y-75900000D02*
G75*
G02*
X128275000Y-76300000I-399999J-1D01*
G01*
X128675000Y-75900000D02*
G75*
G02*
X129075000Y-75500000I399999J1D01*
G01*
X135325000Y-75500000D02*
G75*
G02*
X135725000Y-75900000I1J-399999D01*
G01*
X135725000Y-87300000D02*
G75*
G02*
X135325000Y-87700000I-400000J0D01*
G01*
X130075000Y-76700000D02*
G75*
G02*
X129075000Y-76700000I-500000J0D01*
G01*
X129075000Y-76700000D02*
G75*
G02*
X130075000Y-76700000I500000J0D01*
G01*
X130075000Y-86700000D02*
G75*
G02*
X129075000Y-86700000I-500000J0D01*
G01*
X129075000Y-86700000D02*
G75*
G02*
X130075000Y-86700000I500000J0D01*
G01*
D11*
%TO.C,JP4*%
X105550000Y-76000000D02*
X105550000Y-75400000D01*
X106250000Y-74700000D02*
X107650000Y-74700000D01*
X107650000Y-76700000D02*
X106250000Y-76700000D01*
X108350000Y-75400000D02*
X108350000Y-76000000D01*
X105550000Y-75400000D02*
G75*
G02*
X106250000Y-74700000I699999J1D01*
G01*
X106250000Y-76700000D02*
G75*
G02*
X105550000Y-76000000I-1J699999D01*
G01*
X107650000Y-74700000D02*
G75*
G02*
X108350000Y-75400000I0J-700000D01*
G01*
X108350000Y-76000000D02*
G75*
G02*
X107650000Y-76700000I-700000J0D01*
G01*
%TO.C,R5*%
X118772936Y-70265000D02*
X119227064Y-70265000D01*
X118772936Y-71735000D02*
X119227064Y-71735000D01*
%TO.C,R1*%
X108465000Y-95172936D02*
X108465000Y-95627064D01*
X109935000Y-95172936D02*
X109935000Y-95627064D01*
%TO.C,JP6*%
X122300000Y-76450000D02*
X122300000Y-75050000D01*
X123000000Y-74350000D02*
X123600000Y-74350000D01*
X123600000Y-77150000D02*
X123000000Y-77150000D01*
X124300000Y-75050000D02*
X124300000Y-76450000D01*
X122300000Y-75050000D02*
G75*
G02*
X123000000Y-74350000I700000J0D01*
G01*
X123000000Y-77150000D02*
G75*
G02*
X122300000Y-76450000I-1J699999D01*
G01*
X123600000Y-74350000D02*
G75*
G02*
X124300000Y-75050000I0J-700000D01*
G01*
X124300000Y-76450000D02*
G75*
G02*
X123600000Y-77150000I-699999J-1D01*
G01*
D12*
%TO.C,TP3*%
X124993507Y-65472725D02*
X125102381Y-65524613D01*
X125179011Y-65609408D01*
X125193501Y-65638320D01*
X125237797Y-65779836D01*
X125255579Y-65926161D01*
X125246844Y-66062872D01*
X125211585Y-66175543D01*
X125193728Y-66205565D01*
X125140765Y-66251744D01*
X125060576Y-66293267D01*
X124976427Y-66319961D01*
X124922958Y-66323935D01*
X124889845Y-66312271D01*
X124878467Y-66279026D01*
X124884160Y-66210417D01*
X124884278Y-66209568D01*
X124889537Y-66083367D01*
X124877408Y-65931249D01*
X124850708Y-65773907D01*
X124812252Y-65632034D01*
X124801731Y-65602956D01*
X124747840Y-65462877D01*
X124860772Y-65458274D01*
X124993507Y-65472725D01*
G36*
X124993507Y-65472725D02*
G01*
X125102381Y-65524613D01*
X125179011Y-65609408D01*
X125193501Y-65638320D01*
X125237797Y-65779836D01*
X125255579Y-65926161D01*
X125246844Y-66062872D01*
X125211585Y-66175543D01*
X125193728Y-66205565D01*
X125140765Y-66251744D01*
X125060576Y-66293267D01*
X124976427Y-66319961D01*
X124922958Y-66323935D01*
X124889845Y-66312271D01*
X124878467Y-66279026D01*
X124884160Y-66210417D01*
X124884278Y-66209568D01*
X124889537Y-66083367D01*
X124877408Y-65931249D01*
X124850708Y-65773907D01*
X124812252Y-65632034D01*
X124801731Y-65602956D01*
X124747840Y-65462877D01*
X124860772Y-65458274D01*
X124993507Y-65472725D01*
G37*
X121682680Y-69350924D02*
X121704220Y-69510890D01*
X121749138Y-69695654D01*
X121828378Y-69858362D01*
X121885214Y-69934231D01*
X121877134Y-69933681D01*
X121831725Y-69906594D01*
X121753150Y-69855748D01*
X121645564Y-69783928D01*
X121513125Y-69693909D01*
X121359994Y-69588475D01*
X121190330Y-69470405D01*
X121167107Y-69454155D01*
X120996132Y-69333855D01*
X120842157Y-69224383D01*
X120709218Y-69128695D01*
X120601350Y-69049750D01*
X120522588Y-68990505D01*
X120476963Y-68953913D01*
X120468515Y-68942935D01*
X120470375Y-68943550D01*
X120638610Y-68984182D01*
X120824497Y-68985498D01*
X120930088Y-68968837D01*
X121087775Y-68934367D01*
X121682680Y-69350924D01*
G36*
X121682680Y-69350924D02*
G01*
X121704220Y-69510890D01*
X121749138Y-69695654D01*
X121828378Y-69858362D01*
X121885214Y-69934231D01*
X121877134Y-69933681D01*
X121831725Y-69906594D01*
X121753150Y-69855748D01*
X121645564Y-69783928D01*
X121513125Y-69693909D01*
X121359994Y-69588475D01*
X121190330Y-69470405D01*
X121167107Y-69454155D01*
X120996132Y-69333855D01*
X120842157Y-69224383D01*
X120709218Y-69128695D01*
X120601350Y-69049750D01*
X120522588Y-68990505D01*
X120476963Y-68953913D01*
X120468515Y-68942935D01*
X120470375Y-68943550D01*
X120638610Y-68984182D01*
X120824497Y-68985498D01*
X120930088Y-68968837D01*
X121087775Y-68934367D01*
X121682680Y-69350924D01*
G37*
X123484975Y-64395596D02*
X123578651Y-64469644D01*
X123646207Y-64581922D01*
X123658699Y-64616572D01*
X123692998Y-64724268D01*
X123542934Y-64721537D01*
X123402362Y-64729368D01*
X123246400Y-64754498D01*
X123095415Y-64792513D01*
X122969780Y-64838993D01*
X122945154Y-64851187D01*
X122883871Y-64880596D01*
X122843676Y-64894063D01*
X122837364Y-64893611D01*
X122826723Y-64865554D01*
X122814367Y-64805187D01*
X122810159Y-64777918D01*
X122805846Y-64694950D01*
X122814105Y-64623146D01*
X122818112Y-64610136D01*
X122874507Y-64527699D01*
X122969949Y-64457007D01*
X123093140Y-64403067D01*
X123232773Y-64370887D01*
X123371238Y-64365081D01*
X123484975Y-64395596D01*
G36*
X123484975Y-64395596D02*
G01*
X123578651Y-64469644D01*
X123646207Y-64581922D01*
X123658699Y-64616572D01*
X123692998Y-64724268D01*
X123542934Y-64721537D01*
X123402362Y-64729368D01*
X123246400Y-64754498D01*
X123095415Y-64792513D01*
X122969780Y-64838993D01*
X122945154Y-64851187D01*
X122883871Y-64880596D01*
X122843676Y-64894063D01*
X122837364Y-64893611D01*
X122826723Y-64865554D01*
X122814367Y-64805187D01*
X122810159Y-64777918D01*
X122805846Y-64694950D01*
X122814105Y-64623146D01*
X122818112Y-64610136D01*
X122874507Y-64527699D01*
X122969949Y-64457007D01*
X123093140Y-64403067D01*
X123232773Y-64370887D01*
X123371238Y-64365081D01*
X123484975Y-64395596D01*
G37*
X120994024Y-67318484D02*
X121129887Y-67357187D01*
X121251167Y-67431656D01*
X121351522Y-67541130D01*
X121424606Y-67684849D01*
X121459379Y-67825322D01*
X121466709Y-68006482D01*
X121436821Y-68178483D01*
X121374909Y-68336948D01*
X121286171Y-68477496D01*
X121175800Y-68595749D01*
X121048991Y-68687329D01*
X120910938Y-68747854D01*
X120766835Y-68772949D01*
X120621879Y-68758232D01*
X120481264Y-68699325D01*
X120448191Y-68677739D01*
X120381593Y-68616804D01*
X120315014Y-68534114D01*
X120289199Y-68493759D01*
X120219345Y-68323531D01*
X120194305Y-68139109D01*
X120213749Y-67949608D01*
X120277356Y-67764137D01*
X120318030Y-67688179D01*
X120431639Y-67536606D01*
X120562386Y-67424612D01*
X120703930Y-67351434D01*
X120849923Y-67316312D01*
X120994024Y-67318484D01*
G36*
X120994024Y-67318484D02*
G01*
X121129887Y-67357187D01*
X121251167Y-67431656D01*
X121351522Y-67541130D01*
X121424606Y-67684849D01*
X121459379Y-67825322D01*
X121466709Y-68006482D01*
X121436821Y-68178483D01*
X121374909Y-68336948D01*
X121286171Y-68477496D01*
X121175800Y-68595749D01*
X121048991Y-68687329D01*
X120910938Y-68747854D01*
X120766835Y-68772949D01*
X120621879Y-68758232D01*
X120481264Y-68699325D01*
X120448191Y-68677739D01*
X120381593Y-68616804D01*
X120315014Y-68534114D01*
X120289199Y-68493759D01*
X120219345Y-68323531D01*
X120194305Y-68139109D01*
X120213749Y-67949608D01*
X120277356Y-67764137D01*
X120318030Y-67688179D01*
X120431639Y-67536606D01*
X120562386Y-67424612D01*
X120703930Y-67351434D01*
X120849923Y-67316312D01*
X120994024Y-67318484D01*
G37*
X122931594Y-68637763D02*
X123069501Y-68704833D01*
X123180262Y-68805302D01*
X123258026Y-68934511D01*
X123296945Y-69087808D01*
X123299668Y-69180789D01*
X123277539Y-69346031D01*
X123222974Y-69490734D01*
X123128798Y-69633258D01*
X123116981Y-69648027D01*
X122986570Y-69777827D01*
X122838579Y-69873292D01*
X122680442Y-69934141D01*
X122519595Y-69960103D01*
X122363475Y-69950901D01*
X122219514Y-69906257D01*
X122095151Y-69825899D01*
X121997818Y-69709549D01*
X121986543Y-69689954D01*
X121930009Y-69537044D01*
X121918140Y-69376216D01*
X121946996Y-69214342D01*
X122012643Y-69058299D01*
X122111146Y-68914957D01*
X122238569Y-68791193D01*
X122390975Y-68693880D01*
X122564431Y-68629894D01*
X122597744Y-68622414D01*
X122772392Y-68608737D01*
X122931594Y-68637763D01*
G36*
X122931594Y-68637763D02*
G01*
X123069501Y-68704833D01*
X123180262Y-68805302D01*
X123258026Y-68934511D01*
X123296945Y-69087808D01*
X123299668Y-69180789D01*
X123277539Y-69346031D01*
X123222974Y-69490734D01*
X123128798Y-69633258D01*
X123116981Y-69648027D01*
X122986570Y-69777827D01*
X122838579Y-69873292D01*
X122680442Y-69934141D01*
X122519595Y-69960103D01*
X122363475Y-69950901D01*
X122219514Y-69906257D01*
X122095151Y-69825899D01*
X121997818Y-69709549D01*
X121986543Y-69689954D01*
X121930009Y-69537044D01*
X121918140Y-69376216D01*
X121946996Y-69214342D01*
X122012643Y-69058299D01*
X122111146Y-68914957D01*
X122238569Y-68791193D01*
X122390975Y-68693880D01*
X122564431Y-68629894D01*
X122597744Y-68622414D01*
X122772392Y-68608737D01*
X122931594Y-68637763D01*
G37*
X123787660Y-64335412D02*
X123833354Y-64362300D01*
X123904471Y-64408459D01*
X124004412Y-64476077D01*
X124136586Y-64567338D01*
X124304398Y-64684433D01*
X124440222Y-64779664D01*
X124606478Y-64897016D01*
X124755887Y-65003730D01*
X124884253Y-65096710D01*
X124987381Y-65172857D01*
X125061077Y-65229079D01*
X125101145Y-65262280D01*
X125104577Y-65269793D01*
X124938616Y-65236401D01*
X124772322Y-65239867D01*
X124729634Y-65247562D01*
X124657018Y-65260210D01*
X124614317Y-65253691D01*
X124582817Y-65223536D01*
X124573492Y-65210306D01*
X124496806Y-65122658D01*
X124386508Y-65028365D01*
X124257062Y-64937199D01*
X124122927Y-64858929D01*
X123998570Y-64803324D01*
X123948337Y-64787978D01*
X123913799Y-64757085D01*
X123906384Y-64699389D01*
X123891752Y-64599840D01*
X123847011Y-64481927D01*
X123778726Y-64362435D01*
X123769046Y-64348482D01*
X123758912Y-64330689D01*
X123763980Y-64325603D01*
X123787660Y-64335412D01*
G36*
X123787660Y-64335412D02*
G01*
X123833354Y-64362300D01*
X123904471Y-64408459D01*
X124004412Y-64476077D01*
X124136586Y-64567338D01*
X124304398Y-64684433D01*
X124440222Y-64779664D01*
X124606478Y-64897016D01*
X124755887Y-65003730D01*
X124884253Y-65096710D01*
X124987381Y-65172857D01*
X125061077Y-65229079D01*
X125101145Y-65262280D01*
X125104577Y-65269793D01*
X124938616Y-65236401D01*
X124772322Y-65239867D01*
X124729634Y-65247562D01*
X124657018Y-65260210D01*
X124614317Y-65253691D01*
X124582817Y-65223536D01*
X124573492Y-65210306D01*
X124496806Y-65122658D01*
X124386508Y-65028365D01*
X124257062Y-64937199D01*
X124122927Y-64858929D01*
X123998570Y-64803324D01*
X123948337Y-64787978D01*
X123913799Y-64757085D01*
X123906384Y-64699389D01*
X123891752Y-64599840D01*
X123847011Y-64481927D01*
X123778726Y-64362435D01*
X123769046Y-64348482D01*
X123758912Y-64330689D01*
X123763980Y-64325603D01*
X123787660Y-64335412D01*
G37*
X122280850Y-67502626D02*
X122416954Y-67556515D01*
X122535340Y-67641935D01*
X122629390Y-67754261D01*
X122692503Y-67888865D01*
X122718064Y-68041118D01*
X122704062Y-68186863D01*
X122674632Y-68284647D01*
X122629942Y-68347603D01*
X122556631Y-68389570D01*
X122486357Y-68412417D01*
X122292883Y-68486126D01*
X122124970Y-68594324D01*
X121972566Y-68744005D01*
X121924451Y-68803063D01*
X121848348Y-68907455D01*
X121790587Y-68999436D01*
X121758728Y-69066886D01*
X121757478Y-69071017D01*
X121739457Y-69127138D01*
X121726375Y-69154727D01*
X121725362Y-69155275D01*
X121696428Y-69143151D01*
X121637729Y-69109528D01*
X121561130Y-69062015D01*
X121478492Y-69008223D01*
X121401683Y-68955762D01*
X121342569Y-68912245D01*
X121328374Y-68900639D01*
X121278594Y-68854638D01*
X121264745Y-68826579D01*
X121282524Y-68803407D01*
X121293614Y-68795291D01*
X121328084Y-68760725D01*
X121382302Y-68694602D01*
X121447792Y-68607617D01*
X121494244Y-68542282D01*
X121565782Y-68436582D01*
X121613401Y-68356971D01*
X121643922Y-68289100D01*
X121664165Y-68218612D01*
X121675847Y-68160188D01*
X121690417Y-68046347D01*
X121696552Y-67926761D01*
X121694809Y-67858170D01*
X121694361Y-67752536D01*
X121717874Y-67677987D01*
X121773786Y-67617237D01*
X121832300Y-67576450D01*
X121981911Y-67507966D01*
X122133632Y-67484900D01*
X122280850Y-67502626D01*
G36*
X122280850Y-67502626D02*
G01*
X122416954Y-67556515D01*
X122535340Y-67641935D01*
X122629390Y-67754261D01*
X122692503Y-67888865D01*
X122718064Y-68041118D01*
X122704062Y-68186863D01*
X122674632Y-68284647D01*
X122629942Y-68347603D01*
X122556631Y-68389570D01*
X122486357Y-68412417D01*
X122292883Y-68486126D01*
X122124970Y-68594324D01*
X121972566Y-68744005D01*
X121924451Y-68803063D01*
X121848348Y-68907455D01*
X121790587Y-68999436D01*
X121758728Y-69066886D01*
X121757478Y-69071017D01*
X121739457Y-69127138D01*
X121726375Y-69154727D01*
X121725362Y-69155275D01*
X121696428Y-69143151D01*
X121637729Y-69109528D01*
X121561130Y-69062015D01*
X121478492Y-69008223D01*
X121401683Y-68955762D01*
X121342569Y-68912245D01*
X121328374Y-68900639D01*
X121278594Y-68854638D01*
X121264745Y-68826579D01*
X121282524Y-68803407D01*
X121293614Y-68795291D01*
X121328084Y-68760725D01*
X121382302Y-68694602D01*
X121447792Y-68607617D01*
X121494244Y-68542282D01*
X121565782Y-68436582D01*
X121613401Y-68356971D01*
X121643922Y-68289100D01*
X121664165Y-68218612D01*
X121675847Y-68160188D01*
X121690417Y-68046347D01*
X121696552Y-67926761D01*
X121694809Y-67858170D01*
X121694361Y-67752536D01*
X121717874Y-67677987D01*
X121773786Y-67617237D01*
X121832300Y-67576450D01*
X121981911Y-67507966D01*
X122133632Y-67484900D01*
X122280850Y-67502626D01*
G37*
X123409463Y-65790030D02*
X123537107Y-65842300D01*
X123647607Y-65911633D01*
X123773455Y-66012934D01*
X123858271Y-66116598D01*
X123910665Y-66235747D01*
X123934761Y-66349219D01*
X123937833Y-66525471D01*
X123899228Y-66696540D01*
X123823648Y-66851598D01*
X123715793Y-66979816D01*
X123634235Y-67041418D01*
X123508650Y-67098431D01*
X123360529Y-67135198D01*
X123215032Y-67146375D01*
X123160244Y-67142083D01*
X123065137Y-67115467D01*
X122954716Y-67065126D01*
X122846943Y-67001203D01*
X122759779Y-66933834D01*
X122725234Y-66896502D01*
X122638023Y-66741650D01*
X122588221Y-66567337D01*
X122579543Y-66389708D01*
X122590529Y-66310609D01*
X122591407Y-66308217D01*
X123060699Y-66308217D01*
X123096444Y-66425754D01*
X123176032Y-66524080D01*
X123203761Y-66545510D01*
X123321794Y-66599073D01*
X123395190Y-66608769D01*
X123513562Y-66586792D01*
X123591153Y-66544435D01*
X123653041Y-66494240D01*
X123688210Y-66443895D01*
X123714038Y-66368938D01*
X123726081Y-66246819D01*
X123696278Y-66137524D01*
X123633112Y-66046989D01*
X123545071Y-65981161D01*
X123440638Y-65945977D01*
X123328301Y-65947382D01*
X123216541Y-65991313D01*
X123195161Y-66005615D01*
X123133272Y-66055810D01*
X123098104Y-66106156D01*
X123072276Y-66181113D01*
X123060699Y-66308217D01*
X122591407Y-66308217D01*
X122647164Y-66156324D01*
X122745403Y-66018121D01*
X122876680Y-65904120D01*
X122899525Y-65892140D01*
X123032427Y-65822444D01*
X123138198Y-65791460D01*
X123281586Y-65774284D01*
X123409463Y-65790030D01*
G36*
X123409463Y-65790030D02*
G01*
X123537107Y-65842300D01*
X123647607Y-65911633D01*
X123773455Y-66012934D01*
X123858271Y-66116598D01*
X123910665Y-66235747D01*
X123934761Y-66349219D01*
X123937833Y-66525471D01*
X123899228Y-66696540D01*
X123823648Y-66851598D01*
X123715793Y-66979816D01*
X123634235Y-67041418D01*
X123508650Y-67098431D01*
X123360529Y-67135198D01*
X123215032Y-67146375D01*
X123160244Y-67142083D01*
X123065137Y-67115467D01*
X122954716Y-67065126D01*
X122846943Y-67001203D01*
X122759779Y-66933834D01*
X122725234Y-66896502D01*
X122638023Y-66741650D01*
X122588221Y-66567337D01*
X122579543Y-66389708D01*
X122590529Y-66310609D01*
X122591407Y-66308217D01*
X123060699Y-66308217D01*
X123096444Y-66425754D01*
X123176032Y-66524080D01*
X123203761Y-66545510D01*
X123321794Y-66599073D01*
X123395190Y-66608769D01*
X123513562Y-66586792D01*
X123591153Y-66544435D01*
X123653041Y-66494240D01*
X123688210Y-66443895D01*
X123714038Y-66368938D01*
X123726081Y-66246819D01*
X123696278Y-66137524D01*
X123633112Y-66046989D01*
X123545071Y-65981161D01*
X123440638Y-65945977D01*
X123328301Y-65947382D01*
X123216541Y-65991313D01*
X123195161Y-66005615D01*
X123133272Y-66055810D01*
X123098104Y-66106156D01*
X123072276Y-66181113D01*
X123060699Y-66308217D01*
X122591407Y-66308217D01*
X122647164Y-66156324D01*
X122745403Y-66018121D01*
X122876680Y-65904120D01*
X122899525Y-65892140D01*
X123032427Y-65822444D01*
X123138198Y-65791460D01*
X123281586Y-65774284D01*
X123409463Y-65790030D01*
G37*
X123714965Y-64966777D02*
X123931125Y-65023798D01*
X124132343Y-65122183D01*
X124311203Y-65261276D01*
X124347584Y-65298090D01*
X124490889Y-65484603D01*
X124590304Y-65688071D01*
X124646768Y-65902111D01*
X124661230Y-66120348D01*
X124634638Y-66336403D01*
X124567938Y-66543890D01*
X124462078Y-66736432D01*
X124318002Y-66907649D01*
X124136656Y-67051162D01*
X124082661Y-67083635D01*
X123976701Y-67141221D01*
X123910218Y-67169727D01*
X123881578Y-67166948D01*
X123889147Y-67130672D01*
X123931291Y-67058695D01*
X123994991Y-66965056D01*
X124065535Y-66861284D01*
X124111326Y-66784556D01*
X124138695Y-66721742D01*
X124153981Y-66659714D01*
X124159032Y-66625250D01*
X124169844Y-66441820D01*
X124155051Y-66279962D01*
X124121948Y-66165950D01*
X124082013Y-66073150D01*
X124167674Y-66058045D01*
X124235572Y-66035374D01*
X124282506Y-66001196D01*
X124283799Y-65999437D01*
X124301265Y-65939917D01*
X124296692Y-65862475D01*
X124273865Y-65791330D01*
X124245711Y-65755715D01*
X124166997Y-65728317D01*
X124085998Y-65743463D01*
X124023416Y-65795618D01*
X123976893Y-65862058D01*
X123581569Y-65585252D01*
X123628092Y-65518809D01*
X123655886Y-65439767D01*
X123641243Y-65358686D01*
X123589559Y-65296272D01*
X123531431Y-65280743D01*
X123454795Y-65288221D01*
X123383709Y-65313979D01*
X123347508Y-65343839D01*
X123330640Y-65398015D01*
X123331569Y-65469529D01*
X123332150Y-65473006D01*
X123347254Y-65558666D01*
X123246393Y-65552881D01*
X123109168Y-65564148D01*
X122949897Y-65609753D01*
X122802108Y-65675123D01*
X122743921Y-65708598D01*
X122694106Y-65748420D01*
X122642596Y-65804954D01*
X122579318Y-65888563D01*
X122537651Y-65947276D01*
X122475148Y-66035432D01*
X122424468Y-66105124D01*
X122391911Y-66147794D01*
X122383232Y-66156979D01*
X122380909Y-66132076D01*
X122380666Y-66072918D01*
X122381361Y-66037388D01*
X122409951Y-65835299D01*
X122480872Y-65632431D01*
X122587423Y-65441275D01*
X122722901Y-65274327D01*
X122849191Y-65165456D01*
X123050976Y-65050459D01*
X123267477Y-64979450D01*
X123491277Y-64951776D01*
X123714965Y-64966777D01*
G36*
X123714965Y-64966777D02*
G01*
X123931125Y-65023798D01*
X124132343Y-65122183D01*
X124311203Y-65261276D01*
X124347584Y-65298090D01*
X124490889Y-65484603D01*
X124590304Y-65688071D01*
X124646768Y-65902111D01*
X124661230Y-66120348D01*
X124634638Y-66336403D01*
X124567938Y-66543890D01*
X124462078Y-66736432D01*
X124318002Y-66907649D01*
X124136656Y-67051162D01*
X124082661Y-67083635D01*
X123976701Y-67141221D01*
X123910218Y-67169727D01*
X123881578Y-67166948D01*
X123889147Y-67130672D01*
X123931291Y-67058695D01*
X123994991Y-66965056D01*
X124065535Y-66861284D01*
X124111326Y-66784556D01*
X124138695Y-66721742D01*
X124153981Y-66659714D01*
X124159032Y-66625250D01*
X124169844Y-66441820D01*
X124155051Y-66279962D01*
X124121948Y-66165950D01*
X124082013Y-66073150D01*
X124167674Y-66058045D01*
X124235572Y-66035374D01*
X124282506Y-66001196D01*
X124283799Y-65999437D01*
X124301265Y-65939917D01*
X124296692Y-65862475D01*
X124273865Y-65791330D01*
X124245711Y-65755715D01*
X124166997Y-65728317D01*
X124085998Y-65743463D01*
X124023416Y-65795618D01*
X123976893Y-65862058D01*
X123581569Y-65585252D01*
X123628092Y-65518809D01*
X123655886Y-65439767D01*
X123641243Y-65358686D01*
X123589559Y-65296272D01*
X123531431Y-65280743D01*
X123454795Y-65288221D01*
X123383709Y-65313979D01*
X123347508Y-65343839D01*
X123330640Y-65398015D01*
X123331569Y-65469529D01*
X123332150Y-65473006D01*
X123347254Y-65558666D01*
X123246393Y-65552881D01*
X123109168Y-65564148D01*
X122949897Y-65609753D01*
X122802108Y-65675123D01*
X122743921Y-65708598D01*
X122694106Y-65748420D01*
X122642596Y-65804954D01*
X122579318Y-65888563D01*
X122537651Y-65947276D01*
X122475148Y-66035432D01*
X122424468Y-66105124D01*
X122391911Y-66147794D01*
X122383232Y-66156979D01*
X122380909Y-66132076D01*
X122380666Y-66072918D01*
X122381361Y-66037388D01*
X122409951Y-65835299D01*
X122480872Y-65632431D01*
X122587423Y-65441275D01*
X122722901Y-65274327D01*
X122849191Y-65165456D01*
X123050976Y-65050459D01*
X123267477Y-64979450D01*
X123491277Y-64951776D01*
X123714965Y-64966777D01*
G37*
X126782841Y-66415956D02*
X123504851Y-71097410D01*
X122803608Y-70604318D01*
X122614822Y-70471329D01*
X122464527Y-70364771D01*
X122349466Y-70282127D01*
X122266381Y-70220885D01*
X122212018Y-70178528D01*
X122183118Y-70152540D01*
X122176429Y-70140405D01*
X122188687Y-70139612D01*
X122209228Y-70145219D01*
X122411809Y-70185091D01*
X122612711Y-70179517D01*
X122806529Y-70133098D01*
X122987866Y-70050443D01*
X123151310Y-69936151D01*
X123291464Y-69794831D01*
X123402923Y-69631083D01*
X123480283Y-69449515D01*
X123518141Y-69254729D01*
X123511096Y-69051330D01*
X123508921Y-69037725D01*
X123490484Y-68940539D01*
X123471147Y-68858660D01*
X123454966Y-68809183D01*
X123454387Y-68808012D01*
X123448175Y-68769438D01*
X123463804Y-68710877D01*
X123504198Y-68622939D01*
X123523919Y-68585010D01*
X123569001Y-68502035D01*
X123605014Y-68439622D01*
X123625584Y-68408705D01*
X123627538Y-68407182D01*
X123644076Y-68426799D01*
X123683061Y-68482014D01*
X123739589Y-68565622D01*
X123808754Y-68670410D01*
X123853611Y-68739420D01*
X123949259Y-68884104D01*
X124025663Y-68991466D01*
X124088352Y-69068532D01*
X124142855Y-69122329D01*
X124173516Y-69146077D01*
X124303088Y-69209876D01*
X124436386Y-69229448D01*
X124565802Y-69209699D01*
X124683741Y-69155539D01*
X124782597Y-69071877D01*
X124854770Y-68963618D01*
X124892657Y-68835672D01*
X124888656Y-68692949D01*
X124887172Y-68685282D01*
X124868797Y-68628953D01*
X124829980Y-68534767D01*
X124773976Y-68409804D01*
X124704041Y-68261137D01*
X124623437Y-68095843D01*
X124535422Y-67920999D01*
X124533954Y-67918130D01*
X124206265Y-67277583D01*
X124362396Y-67162547D01*
X124435639Y-67106198D01*
X124493257Y-67053704D01*
X124545718Y-66993020D01*
X124603493Y-66912097D01*
X124673172Y-66804978D01*
X124827817Y-66562444D01*
X125010624Y-66529638D01*
X125181316Y-66480423D01*
X125315371Y-66401609D01*
X125394511Y-66317368D01*
X125446385Y-66205626D01*
X125473524Y-66063404D01*
X125476357Y-65904354D01*
X125455314Y-65742123D01*
X125410825Y-65590363D01*
X125368829Y-65502566D01*
X125294894Y-65374689D01*
X126782841Y-66415956D01*
G36*
X126782841Y-66415956D02*
G01*
X123504851Y-71097410D01*
X122803608Y-70604318D01*
X122614822Y-70471329D01*
X122464527Y-70364771D01*
X122349466Y-70282127D01*
X122266381Y-70220885D01*
X122212018Y-70178528D01*
X122183118Y-70152540D01*
X122176429Y-70140405D01*
X122188687Y-70139612D01*
X122209228Y-70145219D01*
X122411809Y-70185091D01*
X122612711Y-70179517D01*
X122806529Y-70133098D01*
X122987866Y-70050443D01*
X123151310Y-69936151D01*
X123291464Y-69794831D01*
X123402923Y-69631083D01*
X123480283Y-69449515D01*
X123518141Y-69254729D01*
X123511096Y-69051330D01*
X123508921Y-69037725D01*
X123490484Y-68940539D01*
X123471147Y-68858660D01*
X123454966Y-68809183D01*
X123454387Y-68808012D01*
X123448175Y-68769438D01*
X123463804Y-68710877D01*
X123504198Y-68622939D01*
X123523919Y-68585010D01*
X123569001Y-68502035D01*
X123605014Y-68439622D01*
X123625584Y-68408705D01*
X123627538Y-68407182D01*
X123644076Y-68426799D01*
X123683061Y-68482014D01*
X123739589Y-68565622D01*
X123808754Y-68670410D01*
X123853611Y-68739420D01*
X123949259Y-68884104D01*
X124025663Y-68991466D01*
X124088352Y-69068532D01*
X124142855Y-69122329D01*
X124173516Y-69146077D01*
X124303088Y-69209876D01*
X124436386Y-69229448D01*
X124565802Y-69209699D01*
X124683741Y-69155539D01*
X124782597Y-69071877D01*
X124854770Y-68963618D01*
X124892657Y-68835672D01*
X124888656Y-68692949D01*
X124887172Y-68685282D01*
X124868797Y-68628953D01*
X124829980Y-68534767D01*
X124773976Y-68409804D01*
X124704041Y-68261137D01*
X124623437Y-68095843D01*
X124535422Y-67920999D01*
X124533954Y-67918130D01*
X124206265Y-67277583D01*
X124362396Y-67162547D01*
X124435639Y-67106198D01*
X124493257Y-67053704D01*
X124545718Y-66993020D01*
X124603493Y-66912097D01*
X124673172Y-66804978D01*
X124827817Y-66562444D01*
X125010624Y-66529638D01*
X125181316Y-66480423D01*
X125315371Y-66401609D01*
X125394511Y-66317368D01*
X125446385Y-66205626D01*
X125473524Y-66063404D01*
X125476357Y-65904354D01*
X125455314Y-65742123D01*
X125410825Y-65590363D01*
X125368829Y-65502566D01*
X125294894Y-65374689D01*
X126782841Y-66415956D01*
G37*
X123588765Y-64180044D02*
X123443313Y-64154304D01*
X123293795Y-64145164D01*
X123133896Y-64164451D01*
X122976589Y-64207899D01*
X122834847Y-64271247D01*
X122721643Y-64350230D01*
X122668865Y-64408850D01*
X122608419Y-64538723D01*
X122587739Y-64696565D01*
X122600693Y-64842186D01*
X122632389Y-65025188D01*
X122457374Y-65253459D01*
X122377496Y-65359759D01*
X122322192Y-65440837D01*
X122283718Y-65510665D01*
X122254330Y-65583215D01*
X122227494Y-65668350D01*
X122172632Y-65854971D01*
X121913096Y-65823700D01*
X121797576Y-65809586D01*
X121646968Y-65790901D01*
X121476565Y-65769554D01*
X121301662Y-65747462D01*
X121199159Y-65734419D01*
X121042722Y-65716427D01*
X120894308Y-65702964D01*
X120765080Y-65694775D01*
X120666205Y-65692604D01*
X120617166Y-65695593D01*
X120480387Y-65738502D01*
X120371677Y-65816196D01*
X120293052Y-65919853D01*
X120246517Y-66040651D01*
X120234087Y-66169770D01*
X120257773Y-66298384D01*
X120319587Y-66417677D01*
X120421539Y-66518822D01*
X120428353Y-66523685D01*
X120486947Y-66557974D01*
X120565179Y-66590344D01*
X120671541Y-66623589D01*
X120814526Y-66660497D01*
X120919900Y-66685213D01*
X121052337Y-66715993D01*
X121165521Y-66743236D01*
X121251013Y-66764837D01*
X121300374Y-66778688D01*
X121309131Y-66782380D01*
X121294112Y-66803783D01*
X121252737Y-66853012D01*
X121193085Y-66920542D01*
X121175200Y-66940341D01*
X121095695Y-67022836D01*
X121038589Y-67068955D01*
X120997116Y-67083921D01*
X120989718Y-67083591D01*
X120940712Y-67085008D01*
X120859154Y-67094579D01*
X120762261Y-67110262D01*
X120757476Y-67111142D01*
X120562124Y-67172215D01*
X120386035Y-67276653D01*
X120234093Y-67419103D01*
X120111168Y-67594210D01*
X120022143Y-67796620D01*
X119980395Y-67964048D01*
X119966552Y-68184277D01*
X120001433Y-68396045D01*
X120083672Y-68593727D01*
X120161292Y-68711238D01*
X120175658Y-68732341D01*
X120175590Y-68741222D01*
X120157611Y-68735683D01*
X120118243Y-68713524D01*
X120054010Y-68672547D01*
X119961431Y-68610548D01*
X119837034Y-68525331D01*
X119677338Y-68414696D01*
X119526590Y-68309726D01*
X118823397Y-67819420D01*
X122101386Y-63137965D01*
X123588765Y-64180044D01*
G36*
X123588765Y-64180044D02*
G01*
X123443313Y-64154304D01*
X123293795Y-64145164D01*
X123133896Y-64164451D01*
X122976589Y-64207899D01*
X122834847Y-64271247D01*
X122721643Y-64350230D01*
X122668865Y-64408850D01*
X122608419Y-64538723D01*
X122587739Y-64696565D01*
X122600693Y-64842186D01*
X122632389Y-65025188D01*
X122457374Y-65253459D01*
X122377496Y-65359759D01*
X122322192Y-65440837D01*
X122283718Y-65510665D01*
X122254330Y-65583215D01*
X122227494Y-65668350D01*
X122172632Y-65854971D01*
X121913096Y-65823700D01*
X121797576Y-65809586D01*
X121646968Y-65790901D01*
X121476565Y-65769554D01*
X121301662Y-65747462D01*
X121199159Y-65734419D01*
X121042722Y-65716427D01*
X120894308Y-65702964D01*
X120765080Y-65694775D01*
X120666205Y-65692604D01*
X120617166Y-65695593D01*
X120480387Y-65738502D01*
X120371677Y-65816196D01*
X120293052Y-65919853D01*
X120246517Y-66040651D01*
X120234087Y-66169770D01*
X120257773Y-66298384D01*
X120319587Y-66417677D01*
X120421539Y-66518822D01*
X120428353Y-66523685D01*
X120486947Y-66557974D01*
X120565179Y-66590344D01*
X120671541Y-66623589D01*
X120814526Y-66660497D01*
X120919900Y-66685213D01*
X121052337Y-66715993D01*
X121165521Y-66743236D01*
X121251013Y-66764837D01*
X121300374Y-66778688D01*
X121309131Y-66782380D01*
X121294112Y-66803783D01*
X121252737Y-66853012D01*
X121193085Y-66920542D01*
X121175200Y-66940341D01*
X121095695Y-67022836D01*
X121038589Y-67068955D01*
X120997116Y-67083921D01*
X120989718Y-67083591D01*
X120940712Y-67085008D01*
X120859154Y-67094579D01*
X120762261Y-67110262D01*
X120757476Y-67111142D01*
X120562124Y-67172215D01*
X120386035Y-67276653D01*
X120234093Y-67419103D01*
X120111168Y-67594210D01*
X120022143Y-67796620D01*
X119980395Y-67964048D01*
X119966552Y-68184277D01*
X120001433Y-68396045D01*
X120083672Y-68593727D01*
X120161292Y-68711238D01*
X120175658Y-68732341D01*
X120175590Y-68741222D01*
X120157611Y-68735683D01*
X120118243Y-68713524D01*
X120054010Y-68672547D01*
X119961431Y-68610548D01*
X119837034Y-68525331D01*
X119677338Y-68414696D01*
X119526590Y-68309726D01*
X118823397Y-67819420D01*
X122101386Y-63137965D01*
X123588765Y-64180044D01*
G37*
X120899451Y-65927934D02*
X121063485Y-65942954D01*
X121268554Y-65966640D01*
X121456598Y-65990502D01*
X122142128Y-66079617D01*
X122186351Y-66321097D01*
X122234629Y-66524969D01*
X122302514Y-66697383D01*
X122398537Y-66856455D01*
X122497672Y-66982010D01*
X122632344Y-67123087D01*
X122769210Y-67229387D01*
X122927135Y-67314117D01*
X123035085Y-67358308D01*
X123229469Y-67419547D01*
X123411292Y-67448179D01*
X123600572Y-67446041D01*
X123761704Y-67424970D01*
X123865485Y-67407875D01*
X123948169Y-67395201D01*
X123998608Y-67388600D01*
X124008750Y-67388238D01*
X124021445Y-67410997D01*
X124054249Y-67473083D01*
X124104105Y-67568616D01*
X124167951Y-67691715D01*
X124242733Y-67836497D01*
X124325391Y-67997083D01*
X124327833Y-68001836D01*
X124437131Y-68216808D01*
X124523183Y-68392367D01*
X124587530Y-68533441D01*
X124631708Y-68644960D01*
X124657259Y-68731858D01*
X124665720Y-68799060D01*
X124658630Y-68851501D01*
X124637528Y-68894107D01*
X124614793Y-68921186D01*
X124547018Y-68971787D01*
X124472055Y-69002918D01*
X124470967Y-69003150D01*
X124416436Y-69007718D01*
X124363812Y-68994681D01*
X124308612Y-68959606D01*
X124246350Y-68898058D01*
X124172543Y-68805604D01*
X124082707Y-68677809D01*
X123972355Y-68510237D01*
X123972120Y-68509873D01*
X123888203Y-68382020D01*
X123810797Y-68267808D01*
X123745125Y-68174659D01*
X123696415Y-68109992D01*
X123670639Y-68081720D01*
X123628176Y-68062908D01*
X123586587Y-68071961D01*
X123540931Y-68113537D01*
X123486267Y-68192290D01*
X123417652Y-68312876D01*
X123409825Y-68327429D01*
X123356883Y-68423675D01*
X123311811Y-68500880D01*
X123280355Y-68549467D01*
X123269398Y-68561347D01*
X123240081Y-68549879D01*
X123186688Y-68517619D01*
X123165182Y-68502987D01*
X123079642Y-68454470D01*
X122985052Y-68416116D01*
X122973094Y-68412565D01*
X122868551Y-68383442D01*
X122903160Y-68307056D01*
X122937056Y-68181432D01*
X122942020Y-68031547D01*
X122919929Y-67873536D01*
X122872662Y-67723530D01*
X122824403Y-67630032D01*
X122704627Y-67484630D01*
X122556340Y-67374020D01*
X122388184Y-67299938D01*
X122208792Y-67264122D01*
X122026804Y-67268305D01*
X121850855Y-67314225D01*
X121691425Y-67402261D01*
X121586139Y-67479594D01*
X121532316Y-67403133D01*
X121478628Y-67341931D01*
X121404834Y-67275203D01*
X121370121Y-67248430D01*
X121261750Y-67170189D01*
X121327618Y-67100032D01*
X121450398Y-66967793D01*
X121540364Y-66866270D01*
X121600578Y-66790207D01*
X121634104Y-66734356D01*
X121644007Y-66693460D01*
X121633348Y-66662277D01*
X121605190Y-66635547D01*
X121600515Y-66632204D01*
X121562054Y-66616615D01*
X121482722Y-66592579D01*
X121371277Y-66562471D01*
X121236482Y-66528660D01*
X121095071Y-66495340D01*
X120899772Y-66448943D01*
X120748877Y-66408225D01*
X120636686Y-66370487D01*
X120557497Y-66333033D01*
X120505611Y-66293166D01*
X120475325Y-66248186D01*
X120460941Y-66195400D01*
X120460924Y-66195288D01*
X120464138Y-66114547D01*
X120488223Y-66033214D01*
X120488756Y-66032104D01*
X120514660Y-65990506D01*
X120550721Y-65958896D01*
X120602085Y-65937056D01*
X120673896Y-65924763D01*
X120771303Y-65921795D01*
X120899451Y-65927934D01*
G36*
X120899451Y-65927934D02*
G01*
X121063485Y-65942954D01*
X121268554Y-65966640D01*
X121456598Y-65990502D01*
X122142128Y-66079617D01*
X122186351Y-66321097D01*
X122234629Y-66524969D01*
X122302514Y-66697383D01*
X122398537Y-66856455D01*
X122497672Y-66982010D01*
X122632344Y-67123087D01*
X122769210Y-67229387D01*
X122927135Y-67314117D01*
X123035085Y-67358308D01*
X123229469Y-67419547D01*
X123411292Y-67448179D01*
X123600572Y-67446041D01*
X123761704Y-67424970D01*
X123865485Y-67407875D01*
X123948169Y-67395201D01*
X123998608Y-67388600D01*
X124008750Y-67388238D01*
X124021445Y-67410997D01*
X124054249Y-67473083D01*
X124104105Y-67568616D01*
X124167951Y-67691715D01*
X124242733Y-67836497D01*
X124325391Y-67997083D01*
X124327833Y-68001836D01*
X124437131Y-68216808D01*
X124523183Y-68392367D01*
X124587530Y-68533441D01*
X124631708Y-68644960D01*
X124657259Y-68731858D01*
X124665720Y-68799060D01*
X124658630Y-68851501D01*
X124637528Y-68894107D01*
X124614793Y-68921186D01*
X124547018Y-68971787D01*
X124472055Y-69002918D01*
X124470967Y-69003150D01*
X124416436Y-69007718D01*
X124363812Y-68994681D01*
X124308612Y-68959606D01*
X124246350Y-68898058D01*
X124172543Y-68805604D01*
X124082707Y-68677809D01*
X123972355Y-68510237D01*
X123972120Y-68509873D01*
X123888203Y-68382020D01*
X123810797Y-68267808D01*
X123745125Y-68174659D01*
X123696415Y-68109992D01*
X123670639Y-68081720D01*
X123628176Y-68062908D01*
X123586587Y-68071961D01*
X123540931Y-68113537D01*
X123486267Y-68192290D01*
X123417652Y-68312876D01*
X123409825Y-68327429D01*
X123356883Y-68423675D01*
X123311811Y-68500880D01*
X123280355Y-68549467D01*
X123269398Y-68561347D01*
X123240081Y-68549879D01*
X123186688Y-68517619D01*
X123165182Y-68502987D01*
X123079642Y-68454470D01*
X122985052Y-68416116D01*
X122973094Y-68412565D01*
X122868551Y-68383442D01*
X122903160Y-68307056D01*
X122937056Y-68181432D01*
X122942020Y-68031547D01*
X122919929Y-67873536D01*
X122872662Y-67723530D01*
X122824403Y-67630032D01*
X122704627Y-67484630D01*
X122556340Y-67374020D01*
X122388184Y-67299938D01*
X122208792Y-67264122D01*
X122026804Y-67268305D01*
X121850855Y-67314225D01*
X121691425Y-67402261D01*
X121586139Y-67479594D01*
X121532316Y-67403133D01*
X121478628Y-67341931D01*
X121404834Y-67275203D01*
X121370121Y-67248430D01*
X121261750Y-67170189D01*
X121327618Y-67100032D01*
X121450398Y-66967793D01*
X121540364Y-66866270D01*
X121600578Y-66790207D01*
X121634104Y-66734356D01*
X121644007Y-66693460D01*
X121633348Y-66662277D01*
X121605190Y-66635547D01*
X121600515Y-66632204D01*
X121562054Y-66616615D01*
X121482722Y-66592579D01*
X121371277Y-66562471D01*
X121236482Y-66528660D01*
X121095071Y-66495340D01*
X120899772Y-66448943D01*
X120748877Y-66408225D01*
X120636686Y-66370487D01*
X120557497Y-66333033D01*
X120505611Y-66293166D01*
X120475325Y-66248186D01*
X120460941Y-66195400D01*
X120460924Y-66195288D01*
X120464138Y-66114547D01*
X120488223Y-66033214D01*
X120488756Y-66032104D01*
X120514660Y-65990506D01*
X120550721Y-65958896D01*
X120602085Y-65937056D01*
X120673896Y-65924763D01*
X120771303Y-65921795D01*
X120899451Y-65927934D01*
G37*
D11*
%TO.C,C1*%
X117738748Y-90465000D02*
X118261252Y-90465000D01*
X117738748Y-91935000D02*
X118261252Y-91935000D01*
%TO.C,R8*%
X109427064Y-71265000D02*
X108972936Y-71265000D01*
X109427064Y-72735000D02*
X108972936Y-72735000D01*
%TO.C,D3*%
X96349348Y-86049065D02*
X99421186Y-88626644D01*
X97634923Y-84516977D02*
X96349348Y-86049065D01*
X97634923Y-84516977D02*
X100706761Y-87094557D01*
%TO.C,C4*%
X114338748Y-68665000D02*
X114861252Y-68665000D01*
X114338748Y-70135000D02*
X114861252Y-70135000D01*
%TO.C,R4*%
X118027064Y-95065000D02*
X117572936Y-95065000D01*
X118027064Y-96535000D02*
X117572936Y-96535000D01*
%TO.C,RES*%
X128500000Y-88700000D02*
G75*
G02*
X127100000Y-88700000I-700000J0D01*
G01*
X127100000Y-88700000D02*
G75*
G02*
X128500000Y-88700000I700000J0D01*
G01*
%TO.C,C5*%
X105498752Y-71265000D02*
X104976248Y-71265000D01*
X105498752Y-72735000D02*
X104976248Y-72735000D01*
%TO.C,R6*%
X98427064Y-77065000D02*
X97972936Y-77065000D01*
X98427064Y-78535000D02*
X97972936Y-78535000D01*
%TO.C,JP5*%
X103200000Y-92050000D02*
X103200000Y-90650000D01*
X103900000Y-89950000D02*
X104500000Y-89950000D01*
X104500000Y-92750000D02*
X103900000Y-92750000D01*
X105200000Y-90650000D02*
X105200000Y-92050000D01*
X103200000Y-90650000D02*
G75*
G02*
X103900000Y-89950000I700000J0D01*
G01*
X103900000Y-92750000D02*
G75*
G02*
X103200000Y-92050000I-1J699999D01*
G01*
X104500000Y-89950000D02*
G75*
G02*
X105200000Y-90650000I0J-700000D01*
G01*
X105200000Y-92050000D02*
G75*
G02*
X104500000Y-92750000I-699999J-1D01*
G01*
%TO.C,JP3*%
X113150000Y-72100000D02*
X113150000Y-71500000D01*
X113850000Y-70800000D02*
X115250000Y-70800000D01*
X115250000Y-72800000D02*
X113850000Y-72800000D01*
X115950000Y-71500000D02*
X115950000Y-72100000D01*
X113150000Y-71500000D02*
G75*
G02*
X113850000Y-70800000I699999J1D01*
G01*
X113850000Y-72800000D02*
G75*
G02*
X113150000Y-72100000I-1J699999D01*
G01*
X115250000Y-70800000D02*
G75*
G02*
X115950000Y-71500000I0J-700000D01*
G01*
X115950000Y-72100000D02*
G75*
G02*
X115250000Y-72800000I-700000J0D01*
G01*
D13*
%TO.C,U3*%
X111349000Y-93200000D02*
X111349000Y-93592000D01*
X111349000Y-93200000D02*
X111744000Y-93200000D01*
X111349000Y-95804000D02*
X111349000Y-96200000D01*
X111349000Y-96200000D02*
X111744000Y-96200000D01*
X113955000Y-93200000D02*
X114349000Y-93200000D01*
X113957000Y-96200000D02*
X114349000Y-96200000D01*
X114349000Y-93592000D02*
X114349000Y-93200000D01*
X114349000Y-96200000D02*
X114349000Y-95804000D01*
X111614000Y-96545000D02*
G75*
G02*
X111506000Y-96545000I-54000J0D01*
G01*
X111506000Y-96545000D02*
G75*
G02*
X111614000Y-96545000I54000J0D01*
G01*
D11*
%TO.C,CS*%
X124550000Y-72587500D02*
G75*
G02*
X122650000Y-72587500I-950000J0D01*
G01*
X122650000Y-72587500D02*
G75*
G02*
X124550000Y-72587500I950000J0D01*
G01*
%TO.C,U1*%
X102100000Y-73300000D02*
X102100000Y-73700000D01*
X102100000Y-89500000D02*
X102100000Y-89100000D01*
X118300000Y-73300000D02*
X102100000Y-73300000D01*
X118300000Y-73700000D02*
X118300000Y-73300000D01*
X118300000Y-89500000D02*
X102100000Y-89500000D01*
X119040000Y-89636000D02*
X118560000Y-89636000D01*
X118800000Y-89300000D01*
X119040000Y-89636000D01*
G36*
X119040000Y-89636000D02*
G01*
X118560000Y-89636000D01*
X118800000Y-89300000D01*
X119040000Y-89636000D01*
G37*
%TD*%
M02*
