%TF.GenerationSoftware,KiCad,Pcbnew,8.0.1*%
%TF.CreationDate,2024-05-06T20:27:01+02:00*%
%TF.ProjectId,SenseLoraCAM,53656e73-654c-46f7-9261-43414d2e6b69,rev?*%
%TF.SameCoordinates,Original*%
%TF.FileFunction,Copper,L1,Top*%
%TF.FilePolarity,Positive*%
%FSLAX46Y46*%
G04 Gerber Fmt 4.6, Leading zero omitted, Abs format (unit mm)*
G04 Created by KiCad (PCBNEW 8.0.1) date 2024-05-06 20:27:01*
%MOMM*%
%LPD*%
G01*
G04 APERTURE LIST*
G04 Aperture macros list*
%AMRoundRect*
0 Rectangle with rounded corners*
0 $1 Rounding radius*
0 $2 $3 $4 $5 $6 $7 $8 $9 X,Y pos of 4 corners*
0 Add a 4 corners polygon primitive as box body*
4,1,4,$2,$3,$4,$5,$6,$7,$8,$9,$2,$3,0*
0 Add four circle primitives for the rounded corners*
1,1,$1+$1,$2,$3*
1,1,$1+$1,$4,$5*
1,1,$1+$1,$6,$7*
1,1,$1+$1,$8,$9*
0 Add four rect primitives between the rounded corners*
20,1,$1+$1,$2,$3,$4,$5,0*
20,1,$1+$1,$4,$5,$6,$7,0*
20,1,$1+$1,$6,$7,$8,$9,0*
20,1,$1+$1,$8,$9,$2,$3,0*%
%AMRotRect*
0 Rectangle, with rotation*
0 The origin of the aperture is its center*
0 $1 length*
0 $2 width*
0 $3 Rotation angle, in degrees counterclockwise*
0 Add horizontal line*
21,1,$1,$2,0,0,$3*%
%AMFreePoly0*
4,1,19,0.500000,-0.750000,0.000000,-0.750000,0.000000,-0.744911,-0.071157,-0.744911,-0.207708,-0.704816,-0.327430,-0.627875,-0.420627,-0.520320,-0.479746,-0.390866,-0.500000,-0.250000,-0.500000,0.250000,-0.479746,0.390866,-0.420627,0.520320,-0.327430,0.627875,-0.207708,0.704816,-0.071157,0.744911,0.000000,0.744911,0.000000,0.750000,0.500000,0.750000,0.500000,-0.750000,0.500000,-0.750000,
$1*%
%AMFreePoly1*
4,1,19,0.000000,0.744911,0.071157,0.744911,0.207708,0.704816,0.327430,0.627875,0.420627,0.520320,0.479746,0.390866,0.500000,0.250000,0.500000,-0.250000,0.479746,-0.390866,0.420627,-0.520320,0.327430,-0.627875,0.207708,-0.704816,0.071157,-0.744911,0.000000,-0.744911,0.000000,-0.750000,-0.500000,-0.750000,-0.500000,0.750000,0.000000,0.750000,0.000000,0.744911,0.000000,0.744911,
$1*%
G04 Aperture macros list end*
%TA.AperFunction,EtchedComponent*%
%ADD10C,0.000000*%
%TD*%
%TA.AperFunction,SMDPad,CuDef*%
%ADD11RoundRect,0.225000X-0.413405X-0.142639X-0.068685X-0.431894X0.413405X0.142639X0.068685X0.431894X0*%
%TD*%
%TA.AperFunction,SMDPad,CuDef*%
%ADD12RotRect,1.270000X3.600000X247.000000*%
%TD*%
%TA.AperFunction,SMDPad,CuDef*%
%ADD13RotRect,1.350000X4.200000X247.000000*%
%TD*%
%TA.AperFunction,SMDPad,CuDef*%
%ADD14RoundRect,0.250000X-0.337500X-0.475000X0.337500X-0.475000X0.337500X0.475000X-0.337500X0.475000X0*%
%TD*%
%TA.AperFunction,SMDPad,CuDef*%
%ADD15RoundRect,0.150000X0.150000X0.700000X-0.150000X0.700000X-0.150000X-0.700000X0.150000X-0.700000X0*%
%TD*%
%TA.AperFunction,SMDPad,CuDef*%
%ADD16RoundRect,0.250000X0.250000X1.100000X-0.250000X1.100000X-0.250000X-1.100000X0.250000X-1.100000X0*%
%TD*%
%TA.AperFunction,SMDPad,CuDef*%
%ADD17R,2.500000X0.350000*%
%TD*%
%TA.AperFunction,SMDPad,CuDef*%
%ADD18FreePoly0,0.000000*%
%TD*%
%TA.AperFunction,SMDPad,CuDef*%
%ADD19FreePoly1,0.000000*%
%TD*%
%TA.AperFunction,SMDPad,CuDef*%
%ADD20RoundRect,0.250000X-0.350000X-0.450000X0.350000X-0.450000X0.350000X0.450000X-0.350000X0.450000X0*%
%TD*%
%TA.AperFunction,SMDPad,CuDef*%
%ADD21RoundRect,0.250000X-0.450000X0.350000X-0.450000X-0.350000X0.450000X-0.350000X0.450000X0.350000X0*%
%TD*%
%TA.AperFunction,SMDPad,CuDef*%
%ADD22FreePoly0,90.000000*%
%TD*%
%TA.AperFunction,SMDPad,CuDef*%
%ADD23FreePoly1,90.000000*%
%TD*%
%TA.AperFunction,SMDPad,CuDef*%
%ADD24RoundRect,0.250000X0.350000X0.450000X-0.350000X0.450000X-0.350000X-0.450000X0.350000X-0.450000X0*%
%TD*%
%TA.AperFunction,SMDPad,CuDef*%
%ADD25C,1.000000*%
%TD*%
%TA.AperFunction,SMDPad,CuDef*%
%ADD26RoundRect,0.250000X0.337500X0.475000X-0.337500X0.475000X-0.337500X-0.475000X0.337500X-0.475000X0*%
%TD*%
%TA.AperFunction,SMDPad,CuDef*%
%ADD27R,0.250000X0.600000*%
%TD*%
%TA.AperFunction,SMDPad,CuDef*%
%ADD28R,0.600000X0.250000*%
%TD*%
%TA.AperFunction,SMDPad,CuDef*%
%ADD29R,1.500000X1.500000*%
%TD*%
%TA.AperFunction,SMDPad,CuDef*%
%ADD30C,1.500000*%
%TD*%
%TA.AperFunction,SMDPad,CuDef*%
%ADD31RoundRect,0.317500X1.157500X0.317500X-1.157500X0.317500X-1.157500X-0.317500X1.157500X-0.317500X0*%
%TD*%
%TA.AperFunction,ComponentPad*%
%ADD32R,1.700000X1.700000*%
%TD*%
%TA.AperFunction,ComponentPad*%
%ADD33O,1.700000X1.700000*%
%TD*%
%TA.AperFunction,ComponentPad*%
%ADD34C,0.950000*%
%TD*%
%TA.AperFunction,ComponentPad*%
%ADD35O,1.200000X1.600000*%
%TD*%
%TA.AperFunction,ComponentPad*%
%ADD36O,1.200000X1.200000*%
%TD*%
%TA.AperFunction,ViaPad*%
%ADD37C,0.500000*%
%TD*%
%TA.AperFunction,ViaPad*%
%ADD38C,0.600000*%
%TD*%
%TA.AperFunction,ViaPad*%
%ADD39C,3.300000*%
%TD*%
%TA.AperFunction,ViaPad*%
%ADD40C,2.300000*%
%TD*%
%TA.AperFunction,Conductor*%
%ADD41C,0.200000*%
%TD*%
%TA.AperFunction,Conductor*%
%ADD42C,0.500000*%
%TD*%
%TA.AperFunction,Conductor*%
%ADD43C,0.300000*%
%TD*%
%TA.AperFunction,Conductor*%
%ADD44C,0.400000*%
%TD*%
%TA.AperFunction,Conductor*%
%ADD45C,0.250000*%
%TD*%
%TA.AperFunction,Conductor*%
%ADD46C,0.850000*%
%TD*%
G04 APERTURE END LIST*
D10*
%TA.AperFunction,EtchedComponent*%
%TO.C,JP4*%
G36*
X107200000Y-76000000D02*
G01*
X106700000Y-76000000D01*
X106700000Y-75400000D01*
X107200000Y-75400000D01*
X107200000Y-76000000D01*
G37*
%TD.AperFunction*%
%TD*%
D11*
%TO.P,D5,1,K*%
%TO.N,Net-(D3-K)*%
X97472054Y-79478800D03*
%TO.P,D5,2,A*%
%TO.N,/DIO0*%
X100000000Y-81600000D03*
%TD*%
D12*
%TO.P,AE1,1,A*%
%TO.N,Net-(AE1-A)*%
X99032106Y-72817221D03*
D13*
%TO.P,AE1,2,Shield*%
%TO.N,GND*%
X100320022Y-70294942D03*
X98112392Y-75495794D03*
%TD*%
D14*
%TO.P,C2,1*%
%TO.N,+BATT*%
X116962500Y-93400000D03*
%TO.P,C2,2*%
%TO.N,GND*%
X119037500Y-93400000D03*
%TD*%
D15*
%TO.P,J1,1,Pin_1*%
%TO.N,Net-(J1-Pin_1)*%
X109100000Y-69400000D03*
%TO.P,J1,2,Pin_2*%
%TO.N,GND*%
X107850000Y-69400000D03*
D16*
%TO.P,J1,MP*%
%TO.N,N/C*%
X110950000Y-66200000D03*
X106000000Y-66200000D03*
%TD*%
D11*
%TO.P,D4,1,K*%
%TO.N,Net-(D3-K)*%
X97400000Y-82400000D03*
%TO.P,D4,2,A*%
%TO.N,Net-(D4-A)*%
X99927946Y-84521200D03*
%TD*%
D17*
%TO.P,U2,1,GND*%
%TO.N,GND*%
X126275000Y-78150000D03*
%TO.P,U2,2,LEDK*%
%TO.N,/LEDK*%
X126275000Y-78850000D03*
%TO.P,U2,3,LEDA*%
%TO.N,/LED_DIS*%
X126275000Y-79550000D03*
%TO.P,U2,4,VDD*%
%TO.N,+3.3VP*%
X126275000Y-80250000D03*
%TO.P,U2,5,GND*%
%TO.N,GND*%
X126275000Y-80950000D03*
%TO.P,U2,6,GND*%
X126275000Y-81650000D03*
%TO.P,U2,7,D/C*%
%TO.N,/D{slash}C_DIS*%
X126275000Y-82350000D03*
%TO.P,U2,8,~{CS}*%
%TO.N,/CS_DIS*%
X126275000Y-83050000D03*
%TO.P,U2,9,SCK*%
%TO.N,/GPIO07*%
X126275000Y-83750000D03*
%TO.P,U2,10,SDI*%
%TO.N,/GPIO09*%
X126275000Y-84450000D03*
%TO.P,U2,11,~{RESET}*%
%TO.N,/RES_DIS*%
X126275000Y-85150000D03*
%TO.P,U2,12,GND*%
%TO.N,GND*%
X126275000Y-85850000D03*
%TD*%
D18*
%TO.P,JP4,1,A*%
%TO.N,Net-(D3-K)*%
X106300000Y-75700000D03*
D19*
%TO.P,JP4,2,B*%
%TO.N,/GPIO43*%
X107600000Y-75700000D03*
%TD*%
D20*
%TO.P,R5,1*%
%TO.N,Net-(JP3-B)*%
X118000000Y-71000000D03*
%TO.P,R5,2*%
%TO.N,+3.3VP*%
X120000000Y-71000000D03*
%TD*%
D21*
%TO.P,R1,1*%
%TO.N,GND*%
X109200000Y-94400000D03*
%TO.P,R1,2*%
%TO.N,Net-(U3-GAIN)*%
X109200000Y-96400000D03*
%TD*%
D22*
%TO.P,JP6,1,A*%
%TO.N,/GPIO44*%
X123300000Y-76400000D03*
D23*
%TO.P,JP6,2,B*%
%TO.N,/CS_DIS*%
X123300000Y-75100000D03*
%TD*%
D14*
%TO.P,C1,1*%
%TO.N,+BATT*%
X116962500Y-91200000D03*
%TO.P,C1,2*%
%TO.N,GND*%
X119037500Y-91200000D03*
%TD*%
D24*
%TO.P,R8,1*%
%TO.N,Net-(J1-Pin_1)*%
X110200000Y-72000000D03*
%TO.P,R8,2*%
%TO.N,+BATT*%
X108200000Y-72000000D03*
%TD*%
D11*
%TO.P,D3,1,K*%
%TO.N,Net-(D3-K)*%
X97536027Y-85739400D03*
%TO.P,D3,2,A*%
%TO.N,Net-(D3-A)*%
X100063973Y-87860600D03*
%TD*%
D14*
%TO.P,C4,1*%
%TO.N,GND*%
X113562500Y-69400000D03*
%TO.P,C4,2*%
%TO.N,Net-(JP3-B)*%
X115637500Y-69400000D03*
%TD*%
D24*
%TO.P,R4,1*%
%TO.N,+BATT*%
X118800000Y-95800000D03*
%TO.P,R4,2*%
%TO.N,Net-(U3-SD)*%
X116800000Y-95800000D03*
%TD*%
D25*
%TO.P,RES,1,1*%
%TO.N,/RES_DIS*%
X127800000Y-88700000D03*
%TD*%
D26*
%TO.P,C5,1*%
%TO.N,+BATT*%
X106275000Y-72000000D03*
%TO.P,C5,2*%
%TO.N,GND*%
X104200000Y-72000000D03*
%TD*%
D24*
%TO.P,R6,1*%
%TO.N,GND*%
X99200000Y-77800000D03*
%TO.P,R6,2*%
%TO.N,Net-(D3-K)*%
X97200000Y-77800000D03*
%TD*%
D22*
%TO.P,JP5,1,A*%
%TO.N,/AUDIO_DIN*%
X104200000Y-92000000D03*
D23*
%TO.P,JP5,2,B*%
%TO.N,/DIO0*%
X104200000Y-90700000D03*
%TD*%
D18*
%TO.P,JP3,1,A*%
%TO.N,/GPIO44*%
X113900000Y-71800000D03*
D19*
%TO.P,JP3,2,B*%
%TO.N,Net-(JP3-B)*%
X115200000Y-71800000D03*
%TD*%
D27*
%TO.P,U3,1,DIN*%
%TO.N,/AUDIO_DIN*%
X112101000Y-96200000D03*
%TO.P,U3,2,GAIN*%
%TO.N,Net-(U3-GAIN)*%
X112600000Y-96200000D03*
%TO.P,U3,3,GND*%
%TO.N,GND*%
X113101000Y-96200000D03*
%TO.P,U3,4,SD*%
%TO.N,Net-(U3-SD)*%
X113600000Y-96200000D03*
D28*
%TO.P,U3,5,N.C.*%
%TO.N,unconnected-(U3-N.C.-Pad5)*%
X114349000Y-95448000D03*
%TO.P,U3,6,N.C.*%
%TO.N,unconnected-(U3-N.C.-Pad6)*%
X114349000Y-94948000D03*
%TO.P,U3,7,VDD*%
%TO.N,+BATT*%
X114349000Y-94448000D03*
%TO.P,U3,8,VDD*%
X114349000Y-93948000D03*
D27*
%TO.P,U3,9,OUTP*%
%TO.N,Net-(J2-Pin_1)*%
X113599000Y-93200000D03*
%TO.P,U3,10,OUTN*%
%TO.N,Net-(J2-Pin_2)*%
X113099000Y-93200000D03*
%TO.P,U3,11,GND*%
%TO.N,GND*%
X112599000Y-93200000D03*
%TO.P,U3,12,N.C.*%
%TO.N,unconnected-(U3-N.C.-Pad12)*%
X112101000Y-93200000D03*
D28*
%TO.P,U3,13,N.C.*%
%TO.N,unconnected-(U3-N.C.-Pad13)*%
X111349000Y-93948000D03*
%TO.P,U3,14,LRCLK*%
%TO.N,/AUDIO_LRC*%
X111349000Y-94448000D03*
%TO.P,U3,15,GND*%
%TO.N,GND*%
X111349000Y-94948000D03*
%TO.P,U3,16,BCLK*%
%TO.N,/AUDIO_BCLK*%
X111349000Y-95448000D03*
D29*
%TO.P,U3,17,GND*%
%TO.N,GND*%
X112849000Y-94700000D03*
%TD*%
D30*
%TO.P,CS,1,1*%
%TO.N,/CS_DIS*%
X123600000Y-72587500D03*
%TD*%
D31*
%TO.P,U1,1,GND*%
%TO.N,GND*%
X117725000Y-88400000D03*
%TO.P,U1,2,MISO*%
%TO.N,/GPIO08*%
X117725000Y-86400000D03*
%TO.P,U1,3,MOSI*%
%TO.N,/GPIO09*%
X117725000Y-84400000D03*
%TO.P,U1,4,SCK*%
%TO.N,/GPIO07*%
X117725000Y-82400000D03*
%TO.P,U1,5,NSS*%
%TO.N,/GPIO03*%
X117725000Y-80400000D03*
%TO.P,U1,6,RESET*%
%TO.N,Net-(JP3-B)*%
X117725000Y-78400000D03*
%TO.P,U1,7,DIO5*%
%TO.N,unconnected-(U1-DIO5-Pad7)*%
X117725000Y-76400000D03*
%TO.P,U1,8,GND*%
%TO.N,GND*%
X117725000Y-74400000D03*
%TO.P,U1,9,ANT*%
%TO.N,Net-(AE1-A)*%
X102675000Y-74400000D03*
%TO.P,U1,10,GND*%
%TO.N,GND*%
X102675000Y-76400000D03*
%TO.P,U1,11,DIO3*%
%TO.N,unconnected-(U1-DIO3-Pad11)*%
X102675000Y-78400000D03*
%TO.P,U1,12,DIO4*%
%TO.N,unconnected-(U1-DIO4-Pad12)*%
X102675000Y-80400000D03*
%TO.P,U1,13,3.3V*%
%TO.N,+3.3VP*%
X102675000Y-82400000D03*
%TO.P,U1,14,DIO0*%
%TO.N,/DIO0*%
X102675000Y-84400000D03*
%TO.P,U1,15,DIO1*%
%TO.N,Net-(D4-A)*%
X102675000Y-86400000D03*
%TO.P,U1,16,DIO2*%
%TO.N,Net-(D3-A)*%
X102675000Y-88400000D03*
%TD*%
D32*
%TO.P,J3,1,Pin_1*%
%TO.N,+BATT*%
X122200000Y-94240000D03*
D33*
%TO.P,J3,2,Pin_2*%
%TO.N,GND*%
X122200000Y-91700000D03*
%TO.P,J3,3,Pin_3*%
%TO.N,+3.3VP*%
X122200000Y-89160000D03*
%TO.P,J3,4,Pin_4*%
%TO.N,/GPIO09*%
X122200000Y-86620000D03*
%TO.P,J3,5,Pin_5*%
%TO.N,/GPIO08*%
X122200000Y-84080000D03*
%TO.P,J3,6,Pin_6*%
%TO.N,/GPIO07*%
X122200000Y-81540000D03*
%TO.P,J3,7,Pin_7*%
%TO.N,/GPIO44*%
X122200000Y-79000000D03*
%TD*%
D32*
%TO.P,J2,1,Pin_1*%
%TO.N,Net-(J2-Pin_1)*%
X113675000Y-90600000D03*
D33*
%TO.P,J2,2,Pin_2*%
%TO.N,Net-(J2-Pin_2)*%
X111135000Y-90600000D03*
%TD*%
D34*
%TO.P,SW2,SH*%
%TO.N,N/C*%
X122036353Y-64432289D03*
X125596029Y-67018545D03*
%TD*%
D32*
%TO.P,J4,1,Pin_1*%
%TO.N,/AUDIO_BCLK*%
X106900000Y-94240000D03*
D33*
%TO.P,J4,2,Pin_2*%
%TO.N,/AUDIO_LRC*%
X106900000Y-91700000D03*
%TO.P,J4,3,Pin_3*%
%TO.N,/GPIO03*%
X106900000Y-89160000D03*
%TO.P,J4,4,Pin_4*%
%TO.N,/AUDIO_DIN*%
X106900000Y-86620000D03*
%TO.P,J4,5,Pin_5*%
%TO.N,/GPIO05*%
X106900000Y-84080000D03*
%TO.P,J4,6,Pin_6*%
%TO.N,/GPIO06*%
X106900000Y-81540000D03*
%TO.P,J4,7,Pin_7*%
%TO.N,/GPIO43*%
X106900000Y-79000000D03*
%TD*%
D35*
%TO.P,Ur1,1,SDA*%
%TO.N,/GPIO05*%
X111200000Y-62900000D03*
D36*
%TO.P,Ur1,2,VDD*%
%TO.N,+3.3VP*%
X115000000Y-66700000D03*
%TO.P,Ur1,3,GND*%
%TO.N,GND*%
X113400000Y-68300000D03*
%TO.P,Ur1,4,SCL*%
%TO.N,/GPIO06*%
X109600000Y-64500000D03*
%TD*%
D37*
%TO.N,GND*%
X98200000Y-75600000D03*
D38*
X125800000Y-87200000D03*
D37*
X124100000Y-78300000D03*
D38*
X122000000Y-71200000D03*
X124000000Y-81800000D03*
X122400000Y-69800000D03*
X105000000Y-74000000D03*
D39*
X102800000Y-68600000D03*
D37*
X117000000Y-74200000D03*
X102700000Y-92900000D03*
X109000000Y-89800000D03*
D38*
X98300000Y-83000000D03*
X128740380Y-81059620D03*
D39*
X125600000Y-90600000D03*
D38*
X120400000Y-83350000D03*
X125500000Y-73800000D03*
X110600000Y-92800000D03*
X102700000Y-76200000D03*
X128400000Y-79600000D03*
X117725000Y-88400000D03*
X116200000Y-66400000D03*
X126200000Y-76800000D03*
D37*
X100400000Y-70200000D03*
D38*
X118200000Y-72600000D03*
D37*
X128000000Y-85800000D03*
D38*
X115700000Y-81600000D03*
X128300000Y-72800000D03*
%TO.N,+3.3VP*%
X120400000Y-71000000D03*
X104500000Y-82200000D03*
X124615136Y-80335318D03*
%TO.N,+BATT*%
X105850000Y-69800000D03*
%TO.N,/GPIO07*%
X128000000Y-83800000D03*
%TO.N,/GPIO09*%
X120200000Y-84800000D03*
%TO.N,/LEDK*%
X128387500Y-78487500D03*
%TO.N,/AUDIO_DIN*%
X110656786Y-96048000D03*
D40*
%TO.N,/GPIO03*%
X113900000Y-79900000D03*
D38*
%TO.N,/GPIO06*%
X109400000Y-79000000D03*
%TO.N,/GPIO05*%
X111450000Y-80330000D03*
%TO.N,/GPIO43*%
X120850000Y-75250000D03*
X120000000Y-78200000D03*
%TO.N,/D{slash}C_DIS*%
X128300000Y-82400000D03*
%TO.N,/LED_DIS*%
X124300000Y-79600000D03*
%TO.N,/RES_DIS*%
X128300000Y-84900000D03*
%TO.N,/CS_DIS*%
X128800000Y-83050000D03*
%TD*%
D41*
%TO.N,GND*%
X111349000Y-94948000D02*
X112601000Y-94948000D01*
D42*
X100600000Y-76400000D02*
X100100000Y-76900000D01*
D43*
X128630760Y-80950000D02*
X128740380Y-81059620D01*
D44*
X113400000Y-68300000D02*
X113400000Y-69237500D01*
D41*
X112599000Y-92673000D02*
X112326000Y-92400000D01*
D42*
X102952684Y-68447316D02*
X102800000Y-68600000D01*
D41*
X113101000Y-96200000D02*
X113101000Y-94952000D01*
D43*
X128740380Y-81059620D02*
X128740380Y-79940380D01*
X120400000Y-83350000D02*
X120950000Y-82800000D01*
D42*
X129137500Y-80662500D02*
X128740380Y-81059620D01*
X129137500Y-79400000D02*
X129137500Y-80662500D01*
D44*
X115500000Y-65700000D02*
X116200000Y-66400000D01*
X113400000Y-68300000D02*
X113400000Y-66885786D01*
D41*
X126275000Y-78150000D02*
X126275000Y-76875000D01*
D42*
X98112392Y-75495794D02*
X99200000Y-76583402D01*
D43*
X120950000Y-82800000D02*
X123000000Y-82800000D01*
D41*
X112599000Y-93200000D02*
X112599000Y-94450000D01*
X110600000Y-92800000D02*
X110400000Y-92600000D01*
X100000000Y-76200000D02*
X99975000Y-76225000D01*
D43*
X109200000Y-93600000D02*
X109200000Y-94400000D01*
D41*
X112599000Y-93200000D02*
X112599000Y-92673000D01*
X126275000Y-76875000D02*
X126200000Y-76800000D01*
D43*
X126700000Y-87200000D02*
X125800000Y-87200000D01*
D41*
X110400000Y-92234314D02*
X109000000Y-90834315D01*
D42*
X106897316Y-68447316D02*
X102952684Y-68447316D01*
D43*
X102700000Y-92900000D02*
X108500000Y-92900000D01*
D41*
X109000000Y-90834315D02*
X109000000Y-89800000D01*
D42*
X129137500Y-78176839D02*
X129137500Y-79400000D01*
D43*
X128000000Y-85900000D02*
X126700000Y-87200000D01*
D42*
X128698161Y-77737500D02*
X129137500Y-78176839D01*
X102675000Y-76400000D02*
X100295338Y-76400000D01*
D43*
X123000000Y-82800000D02*
X124000000Y-81800000D01*
D41*
X110400000Y-92600000D02*
X110400000Y-92234314D01*
X112601000Y-94948000D02*
X112849000Y-94700000D01*
D42*
X107850000Y-69400000D02*
X106897316Y-68447316D01*
D45*
X126275000Y-81650000D02*
X128150000Y-81650000D01*
D43*
X126275000Y-80950000D02*
X128630760Y-80950000D01*
X128000000Y-85800000D02*
X128000000Y-85900000D01*
D42*
X99200000Y-76583402D02*
X99200000Y-77800000D01*
D41*
X111349000Y-94948000D02*
X109748000Y-94948000D01*
D42*
X100100000Y-76900000D02*
X99200000Y-77800000D01*
X127137500Y-77737500D02*
X128698161Y-77737500D01*
D41*
X126275000Y-85850000D02*
X127950000Y-85850000D01*
D43*
X108500000Y-92900000D02*
X109200000Y-93600000D01*
D41*
X127950000Y-85850000D02*
X128000000Y-85800000D01*
D44*
X114585786Y-65700000D02*
X115500000Y-65700000D01*
D41*
X111000000Y-92400000D02*
X110600000Y-92800000D01*
D42*
X126200000Y-76800000D02*
X127137500Y-77737500D01*
X102700000Y-76200000D02*
X100600000Y-76400000D01*
D43*
X128400000Y-79600000D02*
X128937500Y-79600000D01*
X128937500Y-79600000D02*
X129137500Y-79400000D01*
D41*
X109748000Y-94948000D02*
X109200000Y-94400000D01*
D44*
X113400000Y-66885786D02*
X114585786Y-65700000D01*
X113400000Y-69237500D02*
X113562500Y-69400000D01*
D42*
X102675000Y-76400000D02*
X102700000Y-76200000D01*
D41*
X112326000Y-92400000D02*
X111000000Y-92400000D01*
D45*
X128150000Y-81650000D02*
X128740380Y-81059620D01*
D42*
X100295338Y-76400000D02*
G75*
G02*
X98112384Y-75495802I-38J3087100D01*
G01*
D43*
X128740380Y-79940380D02*
G75*
G03*
X128400000Y-79600020I-340380J-20D01*
G01*
D41*
%TO.N,+3.3VP*%
X124700454Y-80250000D02*
X124615136Y-80335318D01*
D44*
X115000000Y-66700000D02*
X115600000Y-67300000D01*
X115600000Y-67300000D02*
X116700000Y-67300000D01*
X116700000Y-67300000D02*
X120400000Y-71000000D01*
X102875000Y-82200000D02*
X102675000Y-82400000D01*
X104500000Y-82200000D02*
X102875000Y-82200000D01*
D41*
X126275000Y-80250000D02*
X124700454Y-80250000D01*
D42*
%TO.N,+BATT*%
X118137500Y-94575000D02*
X116962500Y-93400000D01*
X118800000Y-94575000D02*
X118137500Y-94575000D01*
X106600000Y-70550000D02*
X105850000Y-69800000D01*
D45*
X114349000Y-94448000D02*
X115300000Y-94448000D01*
D42*
X106600000Y-72000000D02*
X106600000Y-70550000D01*
X121865000Y-94575000D02*
X118800000Y-94575000D01*
X115800000Y-93948000D02*
X116414500Y-93948000D01*
X116962500Y-91200000D02*
X116962500Y-93400000D01*
X114349000Y-93948000D02*
X115800000Y-93948000D01*
X106275000Y-72000000D02*
X108200000Y-72000000D01*
D45*
X115300000Y-94448000D02*
X115800000Y-93948000D01*
D42*
X116414500Y-93948000D02*
X116962500Y-93400000D01*
X118800000Y-95800000D02*
X118800000Y-94575000D01*
%TO.N,/GPIO07*%
X122140000Y-81600000D02*
X122200000Y-81540000D01*
D41*
X122740000Y-81000000D02*
X122200000Y-81540000D01*
X124600000Y-81500000D02*
X124100000Y-81000000D01*
X127950000Y-83750000D02*
X128000000Y-83800000D01*
X124825000Y-83750000D02*
X124600000Y-83525000D01*
D42*
X117725000Y-82400000D02*
X118525000Y-81600000D01*
D41*
X126275000Y-83750000D02*
X127950000Y-83750000D01*
X124100000Y-81000000D02*
X122740000Y-81000000D01*
X126275000Y-83750000D02*
X124825000Y-83750000D01*
X124600000Y-83525000D02*
X124600000Y-81500000D01*
D42*
X118525000Y-81600000D02*
X122140000Y-81600000D01*
D43*
%TO.N,/GPIO09*%
X117725000Y-84400000D02*
X119800000Y-84400000D01*
X119800000Y-84400000D02*
X120200000Y-84800000D01*
X122200000Y-86620000D02*
X124370000Y-84450000D01*
X124370000Y-84450000D02*
X126275000Y-84450000D01*
D42*
%TO.N,/GPIO08*%
X119880000Y-86400000D02*
X117725000Y-86400000D01*
X122200000Y-84080000D02*
X119880000Y-86400000D01*
D43*
%TO.N,/LEDK*%
X126275000Y-78850000D02*
X128025000Y-78850000D01*
X128025000Y-78850000D02*
X128387500Y-78487500D01*
D41*
%TO.N,Net-(J2-Pin_1)*%
X113599000Y-93200000D02*
X113599000Y-90676000D01*
%TO.N,Net-(J2-Pin_2)*%
X111135000Y-90600000D02*
X113099000Y-92564000D01*
X113099000Y-92564000D02*
X113099000Y-93200000D01*
%TO.N,Net-(U3-GAIN)*%
X112526000Y-96800000D02*
X112600000Y-96726000D01*
X112600000Y-96726000D02*
X112600000Y-96200000D01*
X109600000Y-96800000D02*
X112526000Y-96800000D01*
%TO.N,Net-(U3-SD)*%
X113600000Y-96200000D02*
X116400000Y-96200000D01*
%TO.N,/AUDIO_LRC*%
X110400000Y-94024000D02*
X110400000Y-93448529D01*
X108651471Y-91700000D02*
X106900000Y-91700000D01*
X110400000Y-93448529D02*
X108651471Y-91700000D01*
X110824000Y-94448000D02*
X110400000Y-94024000D01*
X111349000Y-94448000D02*
X110824000Y-94448000D01*
D43*
%TO.N,/AUDIO_DIN*%
X106900000Y-86620000D02*
X105700000Y-87820000D01*
X110808786Y-96200000D02*
X112101000Y-96200000D01*
X105100000Y-92000000D02*
X104200000Y-92000000D01*
X105700000Y-91400000D02*
X105100000Y-92000000D01*
X110656786Y-96048000D02*
X110808786Y-96200000D01*
X105700000Y-87820000D02*
X105700000Y-91400000D01*
D41*
%TO.N,/AUDIO_BCLK*%
X108108000Y-95448000D02*
X106900000Y-94240000D01*
X111349000Y-95448000D02*
X108108000Y-95448000D01*
D44*
%TO.N,/GPIO03*%
X114400000Y-80400000D02*
X113900000Y-79900000D01*
D43*
X114603006Y-80603006D02*
X113900000Y-79900000D01*
X110460000Y-85600000D02*
X114506012Y-85600000D01*
X114603006Y-85696994D02*
X114603006Y-80603006D01*
X106900000Y-89160000D02*
X110460000Y-85600000D01*
D44*
X117725000Y-80400000D02*
X114400000Y-80400000D01*
D43*
X114506012Y-85600000D02*
X114603006Y-85696994D01*
D42*
%TO.N,/GPIO06*%
X109400000Y-79000000D02*
X111250000Y-77150000D01*
X109600000Y-68197316D02*
X109600000Y-64500000D01*
X111250000Y-69847316D02*
X109600000Y-68197316D01*
X106900000Y-81540000D02*
X106900000Y-81500000D01*
X111250000Y-77150000D02*
X111250000Y-69847316D01*
X106900000Y-81500000D02*
X109400000Y-79000000D01*
%TO.N,/GPIO05*%
X106900000Y-84080000D02*
X110650000Y-80330000D01*
D44*
X111900000Y-63600000D02*
X111200000Y-62900000D01*
X112400000Y-79380000D02*
X112400000Y-69156738D01*
X111900000Y-67543262D02*
X111900000Y-63600000D01*
X111450000Y-80330000D02*
X112400000Y-79380000D01*
X111612500Y-68369238D02*
X111612500Y-67830762D01*
D42*
X110650000Y-80330000D02*
X111450000Y-80330000D01*
D44*
X112400000Y-69156738D02*
X111612500Y-68369238D01*
X111612500Y-67830762D02*
X111900000Y-67543262D01*
%TO.N,/GPIO43*%
X106900000Y-79000000D02*
X107600000Y-78300000D01*
X107600000Y-78300000D02*
X107600000Y-75700000D01*
D43*
X120000000Y-76100000D02*
X120850000Y-75250000D01*
X120000000Y-78200000D02*
X120000000Y-76100000D01*
D44*
%TO.N,Net-(D3-A)*%
X102675000Y-88400000D02*
X100603373Y-88400000D01*
X100603373Y-88400000D02*
X100063973Y-87860600D01*
%TO.N,Net-(D4-A)*%
X102675000Y-86400000D02*
X101806746Y-86400000D01*
X101806746Y-86400000D02*
X99927946Y-84521200D01*
D42*
%TO.N,/DIO0*%
X102114590Y-84400000D02*
X100000000Y-82285410D01*
X104659496Y-84909496D02*
X104150000Y-84400000D01*
X104150000Y-84400000D02*
X102675000Y-84400000D01*
X102675000Y-84400000D02*
X102114590Y-84400000D01*
X104200000Y-90700000D02*
X104659496Y-90240504D01*
X100000000Y-82285410D02*
X100000000Y-81600000D01*
X104659496Y-90240504D02*
X104659496Y-84909496D01*
D43*
%TO.N,/GPIO44*%
X115900000Y-79385000D02*
X115585000Y-79385000D01*
D42*
X113900000Y-71800000D02*
X113900000Y-77700000D01*
X122200000Y-79000000D02*
X122200000Y-77500000D01*
D43*
X115585000Y-79385000D02*
X113900000Y-77700000D01*
X121815000Y-79385000D02*
X115900000Y-79385000D01*
X122200000Y-79000000D02*
X121815000Y-79385000D01*
D42*
X122200000Y-77500000D02*
X123300000Y-76400000D01*
%TO.N,Net-(JP3-B)*%
X115200000Y-69837500D02*
X115637500Y-69400000D01*
X115637500Y-69400000D02*
X116400000Y-69400000D01*
X116400000Y-69400000D02*
X118000000Y-71000000D01*
X117725000Y-78400000D02*
X116250000Y-78400000D01*
X115200000Y-77350000D02*
X115200000Y-71800000D01*
X115200000Y-71800000D02*
X115200000Y-69837500D01*
X116250000Y-78400000D02*
X115200000Y-77350000D01*
D46*
%TO.N,Net-(AE1-A)*%
X102548943Y-74273942D02*
X102675000Y-74400000D01*
X100412949Y-73389185D02*
X101200000Y-74176236D01*
X99032106Y-72817221D02*
G75*
G02*
X102548944Y-74273941I-6J-4973579D01*
G01*
X99032106Y-72817221D02*
G75*
G02*
X100412940Y-73389194I-6J-1952779D01*
G01*
D43*
%TO.N,Net-(D3-K)*%
X106300000Y-75700000D02*
X106300000Y-77193988D01*
X106300000Y-77193988D02*
X104078988Y-79415000D01*
D44*
X97536027Y-78136027D02*
X97200000Y-77800000D01*
D43*
X104078988Y-79415000D02*
X97535854Y-79415000D01*
X97535854Y-79415000D02*
X97472054Y-79478800D01*
D44*
X97536027Y-85739400D02*
X97536027Y-78136027D01*
D42*
%TO.N,Net-(J1-Pin_1)*%
X109100000Y-69400000D02*
X110400000Y-70700000D01*
X110400000Y-70700000D02*
X110400000Y-71800000D01*
X110400000Y-71800000D02*
X110200000Y-72000000D01*
D43*
%TO.N,/D{slash}C_DIS*%
X126325000Y-82400000D02*
X126275000Y-82350000D01*
X128300000Y-82400000D02*
X126325000Y-82400000D01*
%TO.N,/LED_DIS*%
X124300000Y-79600000D02*
X126225000Y-79600000D01*
X126225000Y-79600000D02*
X126275000Y-79550000D01*
%TO.N,/RES_DIS*%
X128050000Y-85150000D02*
X126275000Y-85150000D01*
X127800000Y-87500000D02*
X127800000Y-88700000D01*
X128300000Y-84900000D02*
X128600000Y-85200000D01*
X128300000Y-84900000D02*
X128050000Y-85150000D01*
X128600000Y-86700000D02*
X127800000Y-87500000D01*
X128600000Y-85200000D02*
X128600000Y-86700000D01*
%TO.N,/CS_DIS*%
X129850000Y-76100000D02*
X129850000Y-82469239D01*
X129269239Y-83050000D02*
X128800000Y-83050000D01*
X123300000Y-75100000D02*
X128850000Y-75100000D01*
X129850000Y-82469239D02*
X129269239Y-83050000D01*
X123300000Y-72887500D02*
X123600000Y-72587500D01*
X123300000Y-75100000D02*
X123300000Y-72887500D01*
X128800000Y-83050000D02*
X126275000Y-83050000D01*
X128850000Y-75100000D02*
X129850000Y-76100000D01*
%TD*%
%TA.AperFunction,Conductor*%
%TO.N,GND*%
G36*
X100642539Y-80085185D02*
G01*
X100688294Y-80137989D01*
X100699500Y-80189500D01*
X100699500Y-80484431D01*
X100679815Y-80551470D01*
X100627011Y-80597225D01*
X100557853Y-80607169D01*
X100501405Y-80581998D01*
X100500517Y-80583174D01*
X100497996Y-80581268D01*
X100415354Y-80525173D01*
X100415352Y-80525172D01*
X100355778Y-80501505D01*
X100257738Y-80462556D01*
X100089930Y-80437976D01*
X100089925Y-80437975D01*
X99920978Y-80452757D01*
X99920974Y-80452758D01*
X99759991Y-80506101D01*
X99615638Y-80595139D01*
X99544004Y-80664720D01*
X99543989Y-80664737D01*
X98999764Y-81313317D01*
X98999761Y-81313321D01*
X98943661Y-81395973D01*
X98881044Y-81553585D01*
X98856465Y-81721392D01*
X98856464Y-81721400D01*
X98871245Y-81890345D01*
X98924591Y-82051334D01*
X98924593Y-82051339D01*
X99013628Y-82195687D01*
X99043544Y-82226485D01*
X99083218Y-82267329D01*
X99227443Y-82388347D01*
X99266146Y-82446518D01*
X99269355Y-82459145D01*
X99278340Y-82504317D01*
X99278343Y-82504327D01*
X99334914Y-82640902D01*
X99334915Y-82640904D01*
X99334916Y-82640905D01*
X99365494Y-82686669D01*
X99367812Y-82690137D01*
X99367813Y-82690140D01*
X99417046Y-82763824D01*
X99417052Y-82763831D01*
X99840659Y-83187438D01*
X99874144Y-83248761D01*
X99869160Y-83318453D01*
X99827288Y-83374386D01*
X99791981Y-83392825D01*
X99687937Y-83427301D01*
X99543584Y-83516339D01*
X99471950Y-83585920D01*
X99471935Y-83585937D01*
X98927710Y-84234517D01*
X98927707Y-84234521D01*
X98871607Y-84317173D01*
X98808990Y-84474785D01*
X98784411Y-84642592D01*
X98784410Y-84642600D01*
X98799191Y-84811545D01*
X98852537Y-84972534D01*
X98852539Y-84972539D01*
X98941574Y-85116887D01*
X99011166Y-85188531D01*
X99011168Y-85188533D01*
X99129787Y-85288065D01*
X99429953Y-85539933D01*
X99512594Y-85596028D01*
X99670209Y-85658644D01*
X99838016Y-85683224D01*
X99838018Y-85683223D01*
X99838020Y-85683224D01*
X100014163Y-85667813D01*
X100014300Y-85669389D01*
X100075409Y-85674407D01*
X100118535Y-85702445D01*
X100663181Y-86247091D01*
X100696666Y-86308414D01*
X100699500Y-86334772D01*
X100699500Y-86701185D01*
X100679815Y-86768224D01*
X100627011Y-86813979D01*
X100557853Y-86823923D01*
X100505860Y-86803782D01*
X100479330Y-86785774D01*
X100321711Y-86723156D01*
X100153903Y-86698576D01*
X100153898Y-86698575D01*
X99984951Y-86713357D01*
X99984947Y-86713358D01*
X99823964Y-86766701D01*
X99679611Y-86855739D01*
X99607977Y-86925320D01*
X99607962Y-86925337D01*
X99063737Y-87573917D01*
X99063734Y-87573921D01*
X99007634Y-87656573D01*
X98945017Y-87814185D01*
X98920438Y-87981992D01*
X98920437Y-87982000D01*
X98935218Y-88150945D01*
X98988564Y-88311934D01*
X98988566Y-88311939D01*
X99077601Y-88456287D01*
X99147193Y-88527931D01*
X99147195Y-88527933D01*
X99292670Y-88650000D01*
X99565980Y-88879333D01*
X99648621Y-88935428D01*
X99806236Y-88998044D01*
X99974043Y-89022624D01*
X99974045Y-89022623D01*
X99974047Y-89022624D01*
X100109205Y-89010798D01*
X100142996Y-89007842D01*
X100158483Y-89002709D01*
X100228312Y-89000307D01*
X100266377Y-89017311D01*
X100271562Y-89020775D01*
X100271564Y-89020776D01*
X100271566Y-89020777D01*
X100399040Y-89073578D01*
X100399045Y-89073580D01*
X100399049Y-89073580D01*
X100399050Y-89073581D01*
X100534376Y-89100500D01*
X100534379Y-89100500D01*
X100534380Y-89100500D01*
X100723545Y-89100500D01*
X100790584Y-89120185D01*
X100828538Y-89158527D01*
X100873912Y-89230738D01*
X100873913Y-89230740D01*
X100873915Y-89230742D01*
X101004258Y-89361085D01*
X101160337Y-89459156D01*
X101292559Y-89505422D01*
X101334328Y-89520038D01*
X101422090Y-89529925D01*
X101471557Y-89535499D01*
X101471558Y-89535500D01*
X103509409Y-89535500D01*
X103576448Y-89555185D01*
X103622203Y-89607989D01*
X103632147Y-89677147D01*
X103603122Y-89740703D01*
X103560921Y-89772294D01*
X103466918Y-89815223D01*
X103466908Y-89815228D01*
X103466906Y-89815230D01*
X103433253Y-89836857D01*
X103345867Y-89893015D01*
X103345863Y-89893018D01*
X103237226Y-89987152D01*
X103237207Y-89987169D01*
X103237206Y-89987171D01*
X103142985Y-90095909D01*
X103142983Y-90095911D01*
X103142983Y-90095912D01*
X103142981Y-90095915D01*
X103065255Y-90216857D01*
X103065252Y-90216863D01*
X103005483Y-90347741D01*
X102964977Y-90485691D01*
X102964974Y-90485703D01*
X102944500Y-90628110D01*
X102944500Y-91200002D01*
X102949644Y-91271939D01*
X102960603Y-91309262D01*
X102964363Y-91361841D01*
X102944500Y-91499998D01*
X102944500Y-92071889D01*
X102964974Y-92214296D01*
X102964976Y-92214304D01*
X103005483Y-92352259D01*
X103021660Y-92387681D01*
X103065252Y-92483136D01*
X103065253Y-92483138D01*
X103139376Y-92598476D01*
X103140196Y-92599917D01*
X103142988Y-92604098D01*
X103237207Y-92712830D01*
X103237210Y-92712833D01*
X103345864Y-92806981D01*
X103345867Y-92806984D01*
X103345869Y-92806985D01*
X103345870Y-92806986D01*
X103466906Y-92884770D01*
X103466914Y-92884774D01*
X103466923Y-92884779D01*
X103591642Y-92941736D01*
X103595941Y-92943985D01*
X103603505Y-92946206D01*
X103735744Y-92985035D01*
X103735745Y-92985035D01*
X103735748Y-92985036D01*
X103778183Y-92991136D01*
X103878059Y-93005497D01*
X103934399Y-93005497D01*
X103934409Y-93005500D01*
X103985764Y-93005500D01*
X104465573Y-93005500D01*
X104465601Y-93005497D01*
X104521940Y-93005497D01*
X104521941Y-93005497D01*
X104655479Y-92986297D01*
X104655481Y-92986297D01*
X104661612Y-92985415D01*
X104664256Y-92985035D01*
X104664257Y-92985035D01*
X104802309Y-92944498D01*
X104933094Y-92884770D01*
X105054130Y-92806986D01*
X105162791Y-92712832D01*
X105162794Y-92712829D01*
X105199949Y-92669947D01*
X105258723Y-92632174D01*
X105269459Y-92629535D01*
X105289744Y-92625501D01*
X105408127Y-92576465D01*
X105412111Y-92573803D01*
X105415708Y-92571400D01*
X105459032Y-92542452D01*
X105514669Y-92505277D01*
X105586938Y-92433007D01*
X105648259Y-92399522D01*
X105717951Y-92404506D01*
X105773885Y-92446376D01*
X105776186Y-92449552D01*
X105841235Y-92542452D01*
X105861505Y-92571401D01*
X105983430Y-92693326D01*
X106016915Y-92754649D01*
X106011931Y-92824341D01*
X105970059Y-92880274D01*
X105939083Y-92897189D01*
X105807669Y-92946203D01*
X105807664Y-92946206D01*
X105692455Y-93032452D01*
X105692452Y-93032455D01*
X105606206Y-93147664D01*
X105606202Y-93147671D01*
X105555908Y-93282517D01*
X105549501Y-93342116D01*
X105549501Y-93342123D01*
X105549500Y-93342135D01*
X105549500Y-95137870D01*
X105549501Y-95137876D01*
X105555908Y-95197483D01*
X105606202Y-95332328D01*
X105606204Y-95332331D01*
X105633600Y-95368927D01*
X105658018Y-95434391D01*
X105643167Y-95502665D01*
X105593762Y-95552070D01*
X105525489Y-95566923D01*
X105473175Y-95551107D01*
X104850384Y-95198000D01*
X104760246Y-95146893D01*
X104755275Y-95143919D01*
X104046360Y-94696820D01*
X104041524Y-94693609D01*
X103937356Y-94620872D01*
X103354378Y-94213796D01*
X103349692Y-94210358D01*
X103077302Y-94000499D01*
X102685784Y-93698859D01*
X102681267Y-93695208D01*
X102364555Y-93426631D01*
X102042053Y-93153143D01*
X102037736Y-93149306D01*
X101424616Y-92577860D01*
X101420463Y-92573803D01*
X101389841Y-92542455D01*
X100867245Y-92007460D01*
X100834834Y-91974280D01*
X100830886Y-91970045D01*
X100273952Y-91343677D01*
X100270218Y-91339272D01*
X100269474Y-91338352D01*
X99862845Y-90835403D01*
X99743301Y-90687542D01*
X99739753Y-90682937D01*
X99588649Y-90476998D01*
X99243950Y-90007209D01*
X99240643Y-90002474D01*
X98777045Y-89304228D01*
X98773952Y-89299324D01*
X98753375Y-89264937D01*
X98343601Y-88580133D01*
X98340738Y-88575081D01*
X98302540Y-88503868D01*
X97944590Y-87836547D01*
X97941968Y-87831371D01*
X97933764Y-87814188D01*
X97580845Y-87075021D01*
X97578481Y-87069757D01*
X97567352Y-87043328D01*
X97559479Y-86973904D01*
X97590388Y-86911244D01*
X97642629Y-86877503D01*
X97776039Y-86833297D01*
X97920386Y-86744262D01*
X97992031Y-86674671D01*
X98396842Y-86192236D01*
X98536262Y-86026082D01*
X98536265Y-86026078D01*
X98536267Y-86026074D01*
X98536272Y-86026069D01*
X98592366Y-85943427D01*
X98654983Y-85785812D01*
X98679562Y-85618005D01*
X98679561Y-85618001D01*
X98679562Y-85617999D01*
X98664781Y-85449054D01*
X98664781Y-85449053D01*
X98611435Y-85288063D01*
X98522401Y-85143716D01*
X98522399Y-85143714D01*
X98522398Y-85143712D01*
X98452809Y-85072071D01*
X98280821Y-84927756D01*
X98242119Y-84869584D01*
X98236527Y-84832766D01*
X98236527Y-82926912D01*
X98256212Y-82859873D01*
X98265538Y-82847206D01*
X98280131Y-82829815D01*
X98400245Y-82686669D01*
X98456339Y-82604027D01*
X98518956Y-82446412D01*
X98543535Y-82278605D01*
X98543534Y-82278601D01*
X98543535Y-82278599D01*
X98528754Y-82109654D01*
X98528754Y-82109653D01*
X98475408Y-81948663D01*
X98386374Y-81804316D01*
X98386372Y-81804314D01*
X98386371Y-81804312D01*
X98316779Y-81732668D01*
X98316775Y-81732664D01*
X98280821Y-81702495D01*
X98242119Y-81644324D01*
X98236527Y-81607506D01*
X98236527Y-80189500D01*
X98256212Y-80122461D01*
X98309016Y-80076706D01*
X98360527Y-80065500D01*
X100575500Y-80065500D01*
X100642539Y-80085185D01*
G37*
%TD.AperFunction*%
%TA.AperFunction,Conductor*%
G36*
X114424853Y-61705583D02*
G01*
X115262041Y-61744866D01*
X115267838Y-61745275D01*
X115333551Y-61751455D01*
X116102267Y-61823757D01*
X116107987Y-61824430D01*
X116865085Y-61931639D01*
X116937837Y-61941941D01*
X116943572Y-61942891D01*
X117766953Y-62099159D01*
X117772630Y-62100374D01*
X118587830Y-62295076D01*
X118593433Y-62296554D01*
X119398595Y-62529248D01*
X119404122Y-62530987D01*
X120197481Y-62801160D01*
X120202909Y-62803151D01*
X120981530Y-63109740D01*
X120982767Y-63110228D01*
X120988125Y-63112485D01*
X121541910Y-63361123D01*
X121595005Y-63406538D01*
X121615117Y-63473450D01*
X121595862Y-63540614D01*
X121560012Y-63577344D01*
X121539304Y-63591181D01*
X121528867Y-63597437D01*
X121491778Y-63617262D01*
X121491774Y-63617264D01*
X121459260Y-63643947D01*
X121449493Y-63651190D01*
X121414515Y-63674563D01*
X121414503Y-63674573D01*
X121384755Y-63704319D01*
X121375746Y-63712485D01*
X121343233Y-63739169D01*
X121316549Y-63771682D01*
X121308383Y-63780691D01*
X121278637Y-63810439D01*
X121278627Y-63810451D01*
X121255254Y-63845429D01*
X121248011Y-63855196D01*
X121221328Y-63887710D01*
X121221326Y-63887714D01*
X121201501Y-63924803D01*
X121195247Y-63935237D01*
X121171875Y-63970215D01*
X121171875Y-63970216D01*
X121155774Y-64009086D01*
X121150574Y-64020081D01*
X121130748Y-64057174D01*
X121130747Y-64057176D01*
X121118539Y-64097421D01*
X121114442Y-64108873D01*
X121098339Y-64147750D01*
X121090132Y-64189010D01*
X121087177Y-64200808D01*
X121074967Y-64241061D01*
X121070844Y-64282922D01*
X121069059Y-64294956D01*
X121060853Y-64336212D01*
X121060853Y-64378274D01*
X121060256Y-64390428D01*
X121056133Y-64432288D01*
X121060256Y-64474149D01*
X121060853Y-64486303D01*
X121060853Y-64528371D01*
X121069058Y-64569619D01*
X121070844Y-64581654D01*
X121074967Y-64623516D01*
X121074968Y-64623521D01*
X121087177Y-64663769D01*
X121090133Y-64675571D01*
X121098339Y-64716826D01*
X121098341Y-64716834D01*
X121114435Y-64755688D01*
X121118534Y-64767141D01*
X121118540Y-64767160D01*
X121130748Y-64807403D01*
X121130749Y-64807406D01*
X121130750Y-64807407D01*
X121150572Y-64844492D01*
X121155775Y-64855492D01*
X121171875Y-64894361D01*
X121195243Y-64929333D01*
X121201498Y-64939768D01*
X121221328Y-64976867D01*
X121221332Y-64976873D01*
X121248010Y-65009380D01*
X121255257Y-65019151D01*
X121264927Y-65033622D01*
X121278633Y-65054134D01*
X121308380Y-65083881D01*
X121316547Y-65092892D01*
X121343232Y-65125409D01*
X121367918Y-65145668D01*
X121375735Y-65152083D01*
X121375748Y-65152093D01*
X121384756Y-65160257D01*
X121414508Y-65190009D01*
X121449481Y-65213377D01*
X121459252Y-65220624D01*
X121474419Y-65233071D01*
X121491769Y-65247310D01*
X121491777Y-65247315D01*
X121528860Y-65267136D01*
X121539299Y-65273392D01*
X121574280Y-65296766D01*
X121574286Y-65296768D01*
X121574287Y-65296769D01*
X121613144Y-65312864D01*
X121624146Y-65318067D01*
X121661239Y-65337894D01*
X121701494Y-65350104D01*
X121712941Y-65354200D01*
X121751810Y-65370301D01*
X121793078Y-65378509D01*
X121804864Y-65381462D01*
X121845115Y-65393672D01*
X121845122Y-65393674D01*
X121886985Y-65397796D01*
X121898996Y-65399577D01*
X121940275Y-65407789D01*
X121982338Y-65407789D01*
X121994492Y-65408386D01*
X122036353Y-65412509D01*
X122078214Y-65408386D01*
X122090368Y-65407789D01*
X122132429Y-65407789D01*
X122132431Y-65407789D01*
X122173706Y-65399578D01*
X122185721Y-65397796D01*
X122227584Y-65393674D01*
X122267852Y-65381458D01*
X122279621Y-65378510D01*
X122320896Y-65370301D01*
X122359779Y-65354194D01*
X122371209Y-65350105D01*
X122403948Y-65340174D01*
X122411461Y-65337896D01*
X122411461Y-65337895D01*
X122411467Y-65337894D01*
X122448564Y-65318063D01*
X122459553Y-65312866D01*
X122498426Y-65296766D01*
X122533405Y-65273393D01*
X122543839Y-65267139D01*
X122543845Y-65267136D01*
X122580934Y-65247312D01*
X122613462Y-65220615D01*
X122623215Y-65213383D01*
X122658198Y-65190009D01*
X122687957Y-65160249D01*
X122696957Y-65152093D01*
X122729473Y-65125409D01*
X122756161Y-65092888D01*
X122764313Y-65083893D01*
X122794073Y-65054134D01*
X122817447Y-65019151D01*
X122824679Y-65009398D01*
X122851376Y-64976870D01*
X122871207Y-64939768D01*
X122877462Y-64929333D01*
X122897557Y-64899260D01*
X122900830Y-64894362D01*
X122916930Y-64855489D01*
X122922127Y-64844500D01*
X122941958Y-64807403D01*
X122954171Y-64767141D01*
X122958258Y-64755715D01*
X122974365Y-64716832D01*
X122982574Y-64675557D01*
X122985522Y-64663788D01*
X122997738Y-64623520D01*
X123001861Y-64581654D01*
X123003642Y-64569642D01*
X123011853Y-64528367D01*
X123011853Y-64486303D01*
X123012450Y-64474149D01*
X123012520Y-64473432D01*
X123016573Y-64432289D01*
X123012450Y-64390428D01*
X123011853Y-64378274D01*
X123011853Y-64336740D01*
X123031538Y-64269701D01*
X123084342Y-64223946D01*
X123153500Y-64214002D01*
X123197009Y-64228871D01*
X123239766Y-64253113D01*
X123244711Y-64256072D01*
X123953649Y-64703185D01*
X123958458Y-64706379D01*
X124608468Y-65160260D01*
X124645620Y-65186202D01*
X124650298Y-65189634D01*
X125230934Y-65636977D01*
X125314211Y-65701136D01*
X125318723Y-65704783D01*
X125452253Y-65818019D01*
X125476756Y-65838798D01*
X125515155Y-65897170D01*
X125515900Y-65967036D01*
X125478754Y-66026213D01*
X125415511Y-66055914D01*
X125408717Y-66056773D01*
X125404805Y-66057158D01*
X125364548Y-66069369D01*
X125352750Y-66072324D01*
X125311490Y-66080531D01*
X125272613Y-66096634D01*
X125261161Y-66100731D01*
X125220916Y-66112939D01*
X125220914Y-66112940D01*
X125183821Y-66132766D01*
X125172826Y-66137966D01*
X125133956Y-66154067D01*
X125133955Y-66154067D01*
X125098977Y-66177439D01*
X125088543Y-66183693D01*
X125051454Y-66203518D01*
X125051450Y-66203520D01*
X125018936Y-66230203D01*
X125009169Y-66237446D01*
X124974191Y-66260819D01*
X124974179Y-66260829D01*
X124944431Y-66290575D01*
X124935422Y-66298741D01*
X124902909Y-66325425D01*
X124876225Y-66357938D01*
X124868059Y-66366947D01*
X124838313Y-66396695D01*
X124838303Y-66396707D01*
X124814930Y-66431685D01*
X124807687Y-66441452D01*
X124781004Y-66473966D01*
X124781002Y-66473970D01*
X124761177Y-66511059D01*
X124754923Y-66521493D01*
X124731551Y-66556471D01*
X124731551Y-66556472D01*
X124715450Y-66595342D01*
X124710250Y-66606337D01*
X124690424Y-66643430D01*
X124690423Y-66643432D01*
X124678215Y-66683677D01*
X124674118Y-66695129D01*
X124658015Y-66734006D01*
X124649808Y-66775266D01*
X124646853Y-66787064D01*
X124634643Y-66827317D01*
X124630520Y-66869178D01*
X124628735Y-66881212D01*
X124620529Y-66922468D01*
X124620529Y-66964530D01*
X124619932Y-66976684D01*
X124615809Y-67018544D01*
X124619932Y-67060405D01*
X124620529Y-67072559D01*
X124620529Y-67114627D01*
X124628734Y-67155875D01*
X124630520Y-67167910D01*
X124634643Y-67209772D01*
X124634644Y-67209777D01*
X124646853Y-67250025D01*
X124649809Y-67261827D01*
X124658015Y-67303082D01*
X124658017Y-67303090D01*
X124674111Y-67341944D01*
X124678210Y-67353397D01*
X124678216Y-67353416D01*
X124690424Y-67393659D01*
X124690425Y-67393662D01*
X124690426Y-67393663D01*
X124710248Y-67430748D01*
X124715451Y-67441748D01*
X124731551Y-67480617D01*
X124754919Y-67515589D01*
X124761174Y-67526024D01*
X124781004Y-67563123D01*
X124781008Y-67563129D01*
X124807686Y-67595636D01*
X124814933Y-67605407D01*
X124819509Y-67612255D01*
X124838309Y-67640390D01*
X124868056Y-67670137D01*
X124876223Y-67679148D01*
X124902908Y-67711665D01*
X124927594Y-67731924D01*
X124935411Y-67738339D01*
X124935424Y-67738349D01*
X124944432Y-67746513D01*
X124974184Y-67776265D01*
X125008600Y-67799261D01*
X125009157Y-67799633D01*
X125018928Y-67806880D01*
X125034095Y-67819327D01*
X125051445Y-67833566D01*
X125051453Y-67833571D01*
X125088536Y-67853392D01*
X125098975Y-67859648D01*
X125133956Y-67883022D01*
X125133962Y-67883024D01*
X125133963Y-67883025D01*
X125172820Y-67899120D01*
X125183822Y-67904323D01*
X125220915Y-67924150D01*
X125261170Y-67936360D01*
X125272617Y-67940456D01*
X125311486Y-67956557D01*
X125352754Y-67964765D01*
X125364540Y-67967718D01*
X125399767Y-67978404D01*
X125404798Y-67979930D01*
X125446661Y-67984052D01*
X125458672Y-67985833D01*
X125499951Y-67994045D01*
X125542014Y-67994045D01*
X125554168Y-67994642D01*
X125596029Y-67998765D01*
X125637890Y-67994642D01*
X125650044Y-67994045D01*
X125692105Y-67994045D01*
X125692107Y-67994045D01*
X125733382Y-67985834D01*
X125745397Y-67984052D01*
X125787260Y-67979930D01*
X125827528Y-67967714D01*
X125839297Y-67964766D01*
X125880572Y-67956557D01*
X125919455Y-67940450D01*
X125930885Y-67936361D01*
X125963624Y-67926430D01*
X125971137Y-67924152D01*
X125971137Y-67924151D01*
X125971143Y-67924150D01*
X126008240Y-67904319D01*
X126019229Y-67899122D01*
X126058102Y-67883022D01*
X126093081Y-67859649D01*
X126103515Y-67853395D01*
X126120879Y-67844114D01*
X126140610Y-67833568D01*
X126173138Y-67806871D01*
X126182891Y-67799639D01*
X126217874Y-67776265D01*
X126247633Y-67746505D01*
X126256633Y-67738349D01*
X126289149Y-67711665D01*
X126315837Y-67679144D01*
X126323989Y-67670149D01*
X126353749Y-67640390D01*
X126377123Y-67605407D01*
X126384355Y-67595654D01*
X126411052Y-67563126D01*
X126430883Y-67526024D01*
X126437138Y-67515589D01*
X126460506Y-67480618D01*
X126476606Y-67441745D01*
X126481803Y-67430756D01*
X126501634Y-67393659D01*
X126513847Y-67353397D01*
X126517934Y-67341971D01*
X126534041Y-67303088D01*
X126542250Y-67261813D01*
X126545198Y-67250044D01*
X126557414Y-67209776D01*
X126561537Y-67167910D01*
X126563318Y-67155898D01*
X126571529Y-67114623D01*
X126571529Y-67114621D01*
X126571974Y-67110099D01*
X126598129Y-67045309D01*
X126655159Y-67004945D01*
X126724959Y-67001821D01*
X126784081Y-67035594D01*
X127165165Y-67425719D01*
X127169114Y-67429955D01*
X127726043Y-68056319D01*
X127729776Y-68060722D01*
X127811160Y-68161383D01*
X128256698Y-68712457D01*
X128260246Y-68717062D01*
X128333609Y-68817048D01*
X128701907Y-69319000D01*
X128756038Y-69392774D01*
X128759362Y-69397534D01*
X129213376Y-70081344D01*
X129222946Y-70095758D01*
X129226047Y-70100675D01*
X129656394Y-70819860D01*
X129659261Y-70824918D01*
X130055403Y-71563442D01*
X130058031Y-71568628D01*
X130419146Y-72324960D01*
X130421527Y-72330264D01*
X130746780Y-73102660D01*
X130748910Y-73108069D01*
X131037609Y-73894879D01*
X131039483Y-73900383D01*
X131290980Y-74699846D01*
X131292594Y-74705431D01*
X131506341Y-75515796D01*
X131507692Y-75521450D01*
X131683226Y-76340970D01*
X131684310Y-76346682D01*
X131821235Y-77173514D01*
X131822050Y-77179270D01*
X131920071Y-78011622D01*
X131920615Y-78017411D01*
X131979511Y-78853411D01*
X131979784Y-78859218D01*
X131999431Y-79697093D01*
X131999431Y-79702907D01*
X131979784Y-80540781D01*
X131979511Y-80546588D01*
X131920615Y-81382588D01*
X131920071Y-81388377D01*
X131822050Y-82220729D01*
X131821235Y-82226485D01*
X131684310Y-83053317D01*
X131683226Y-83059029D01*
X131507692Y-83878549D01*
X131506341Y-83884203D01*
X131292594Y-84694568D01*
X131290980Y-84700153D01*
X131039483Y-85499616D01*
X131037609Y-85505120D01*
X130748910Y-86291930D01*
X130746780Y-86297339D01*
X130421527Y-87069735D01*
X130419146Y-87075039D01*
X130058031Y-87831371D01*
X130055403Y-87836557D01*
X129659261Y-88575081D01*
X129656394Y-88580139D01*
X129226047Y-89299324D01*
X129222946Y-89304241D01*
X128759367Y-90002458D01*
X128756038Y-90007225D01*
X128260246Y-90682937D01*
X128256698Y-90687542D01*
X127729781Y-91339272D01*
X127726025Y-91343701D01*
X127467753Y-91634174D01*
X127169129Y-91970028D01*
X127165165Y-91974280D01*
X126579536Y-92573803D01*
X126575377Y-92577866D01*
X125962277Y-93149293D01*
X125957932Y-93153156D01*
X125318732Y-93695208D01*
X125314211Y-93698863D01*
X124650307Y-94210358D01*
X124645620Y-94213797D01*
X123958475Y-94693609D01*
X123953632Y-94696825D01*
X123740647Y-94831150D01*
X123673442Y-94850262D01*
X123606573Y-94830007D01*
X123561270Y-94776815D01*
X123550499Y-94726267D01*
X123550499Y-93342129D01*
X123550498Y-93342123D01*
X123550497Y-93342116D01*
X123544091Y-93282517D01*
X123544090Y-93282515D01*
X123493797Y-93147671D01*
X123493793Y-93147664D01*
X123407547Y-93032455D01*
X123407544Y-93032452D01*
X123292335Y-92946206D01*
X123292328Y-92946202D01*
X123160401Y-92896997D01*
X123104467Y-92855126D01*
X123080050Y-92789662D01*
X123094902Y-92721389D01*
X123116053Y-92693133D01*
X123238108Y-92571078D01*
X123373600Y-92377578D01*
X123473429Y-92163492D01*
X123473432Y-92163486D01*
X123530636Y-91950000D01*
X122633012Y-91950000D01*
X122665925Y-91892993D01*
X122700000Y-91765826D01*
X122700000Y-91634174D01*
X122665925Y-91507007D01*
X122633012Y-91450000D01*
X123530636Y-91450000D01*
X123530635Y-91449999D01*
X123473432Y-91236513D01*
X123473429Y-91236507D01*
X123373600Y-91022422D01*
X123373599Y-91022420D01*
X123238113Y-90828926D01*
X123238108Y-90828920D01*
X123071078Y-90661890D01*
X122885405Y-90531879D01*
X122841780Y-90477302D01*
X122834588Y-90407804D01*
X122866110Y-90345449D01*
X122885406Y-90328730D01*
X122921047Y-90303774D01*
X123071401Y-90198495D01*
X123238495Y-90031401D01*
X123374035Y-89837830D01*
X123473903Y-89623663D01*
X123535063Y-89395408D01*
X123555659Y-89160000D01*
X123535063Y-88924592D01*
X123483522Y-88732236D01*
X123473905Y-88696344D01*
X123473904Y-88696343D01*
X123473903Y-88696337D01*
X123374035Y-88482171D01*
X123257173Y-88315273D01*
X123238494Y-88288597D01*
X123071402Y-88121506D01*
X123071396Y-88121501D01*
X122885842Y-87991575D01*
X122842217Y-87936998D01*
X122835023Y-87867500D01*
X122866546Y-87805145D01*
X122885842Y-87788425D01*
X122935336Y-87753769D01*
X123071401Y-87658495D01*
X123238495Y-87491401D01*
X123374035Y-87297830D01*
X123473903Y-87083663D01*
X123535063Y-86855408D01*
X123555659Y-86620000D01*
X123553689Y-86597489D01*
X123535063Y-86384596D01*
X123535063Y-86384592D01*
X123515614Y-86312007D01*
X123517277Y-86242162D01*
X123547706Y-86192238D01*
X124333775Y-85406169D01*
X124395096Y-85372686D01*
X124464788Y-85377670D01*
X124520721Y-85419542D01*
X124537638Y-85450524D01*
X124540197Y-85457386D01*
X124545178Y-85527078D01*
X124540196Y-85544044D01*
X124531402Y-85567623D01*
X124531401Y-85567624D01*
X124525000Y-85627155D01*
X124525000Y-85675000D01*
X124616103Y-85675000D01*
X124683142Y-85694685D01*
X124690403Y-85699726D01*
X124772339Y-85761063D01*
X124782668Y-85768795D01*
X124782671Y-85768797D01*
X124825625Y-85784818D01*
X124881559Y-85826689D01*
X124905976Y-85892153D01*
X124891124Y-85960426D01*
X124841719Y-86009832D01*
X124782292Y-86025000D01*
X124525000Y-86025000D01*
X124525000Y-86072844D01*
X124531401Y-86132372D01*
X124531403Y-86132379D01*
X124581645Y-86267086D01*
X124581649Y-86267093D01*
X124667809Y-86382187D01*
X124667812Y-86382190D01*
X124782906Y-86468350D01*
X124782913Y-86468354D01*
X124917620Y-86518596D01*
X124917627Y-86518598D01*
X124977155Y-86524999D01*
X124977172Y-86525000D01*
X126100000Y-86525000D01*
X126100000Y-86014874D01*
X126078695Y-85975857D01*
X126083679Y-85906165D01*
X126125551Y-85850232D01*
X126191015Y-85825815D01*
X126199846Y-85825499D01*
X126326001Y-85825499D01*
X126393039Y-85845184D01*
X126438794Y-85897988D01*
X126450000Y-85949499D01*
X126450000Y-86525000D01*
X127555692Y-86525000D01*
X127622731Y-86544685D01*
X127668486Y-86597489D01*
X127678430Y-86666647D01*
X127649405Y-86730203D01*
X127643373Y-86736681D01*
X127294727Y-87085325D01*
X127294726Y-87085326D01*
X127294723Y-87085331D01*
X127251180Y-87150500D01*
X127244766Y-87160099D01*
X127244764Y-87160101D01*
X127223539Y-87191864D01*
X127223533Y-87191875D01*
X127174499Y-87310255D01*
X127174497Y-87310261D01*
X127149500Y-87435928D01*
X127149500Y-87880914D01*
X127129815Y-87947953D01*
X127104167Y-87976765D01*
X127089115Y-87989118D01*
X126964090Y-88141460D01*
X126964086Y-88141467D01*
X126871188Y-88315266D01*
X126813975Y-88503870D01*
X126794659Y-88700000D01*
X126813975Y-88896129D01*
X126825896Y-88935426D01*
X126868066Y-89074443D01*
X126871188Y-89084733D01*
X126964086Y-89258532D01*
X126964090Y-89258539D01*
X127089116Y-89410883D01*
X127241460Y-89535909D01*
X127241467Y-89535913D01*
X127415266Y-89628811D01*
X127415269Y-89628811D01*
X127415273Y-89628814D01*
X127603868Y-89686024D01*
X127800000Y-89705341D01*
X127996132Y-89686024D01*
X128184727Y-89628814D01*
X128358538Y-89535910D01*
X128510883Y-89410883D01*
X128635910Y-89258538D01*
X128728814Y-89084727D01*
X128786024Y-88896132D01*
X128805341Y-88700000D01*
X128786024Y-88503868D01*
X128728814Y-88315273D01*
X128728811Y-88315269D01*
X128728811Y-88315266D01*
X128635913Y-88141467D01*
X128635909Y-88141460D01*
X128510884Y-87989118D01*
X128495833Y-87976765D01*
X128456500Y-87919019D01*
X128450500Y-87880914D01*
X128450500Y-87820808D01*
X128470185Y-87753769D01*
X128486819Y-87733127D01*
X129105273Y-87114673D01*
X129105277Y-87114669D01*
X129176465Y-87008127D01*
X129225501Y-86889744D01*
X129228067Y-86876844D01*
X129240572Y-86813979D01*
X129250500Y-86764071D01*
X129250500Y-85135928D01*
X129225502Y-85010261D01*
X129225501Y-85010260D01*
X129225501Y-85010256D01*
X129176465Y-84891873D01*
X129161572Y-84869584D01*
X129153258Y-84857140D01*
X129106827Y-84787651D01*
X129086708Y-84732642D01*
X129085368Y-84720745D01*
X129025789Y-84550478D01*
X129021507Y-84543664D01*
X128929815Y-84397737D01*
X128802263Y-84270185D01*
X128802262Y-84270184D01*
X128788687Y-84261654D01*
X128742398Y-84209319D01*
X128731751Y-84140266D01*
X128737619Y-84115712D01*
X128773275Y-84013815D01*
X128785367Y-83979259D01*
X128785369Y-83979249D01*
X128788224Y-83953911D01*
X128815290Y-83889497D01*
X128872884Y-83849941D01*
X128897561Y-83844573D01*
X128979249Y-83835369D01*
X128979251Y-83835368D01*
X128979255Y-83835368D01*
X128979258Y-83835366D01*
X128979262Y-83835366D01*
X129069377Y-83803832D01*
X129149522Y-83775789D01*
X129239096Y-83719505D01*
X129305068Y-83700500D01*
X129333310Y-83700500D01*
X129417854Y-83683682D01*
X129458983Y-83675501D01*
X129577366Y-83626465D01*
X129592524Y-83616337D01*
X129683908Y-83555277D01*
X130355277Y-82883908D01*
X130426465Y-82777366D01*
X130475501Y-82658983D01*
X130475503Y-82658975D01*
X130475673Y-82658120D01*
X130475678Y-82658121D01*
X130475678Y-82658091D01*
X130500500Y-82533308D01*
X130500500Y-76035931D01*
X130500500Y-76035928D01*
X130475502Y-75910261D01*
X130475501Y-75910260D01*
X130475501Y-75910256D01*
X130436893Y-75817048D01*
X130426466Y-75791874D01*
X130423088Y-75786819D01*
X130355278Y-75685332D01*
X130355272Y-75685325D01*
X129264673Y-74594726D01*
X129238909Y-74577511D01*
X129158127Y-74523535D01*
X129091439Y-74495912D01*
X129039744Y-74474499D01*
X129039738Y-74474497D01*
X128914071Y-74449500D01*
X128914069Y-74449500D01*
X124373431Y-74449500D01*
X124306392Y-74429815D01*
X124279717Y-74406702D01*
X124262793Y-74387171D01*
X124262791Y-74387168D01*
X124154135Y-74293018D01*
X124154132Y-74293015D01*
X124100397Y-74258483D01*
X124033094Y-74215230D01*
X124022985Y-74210613D01*
X123970184Y-74164859D01*
X123950500Y-74097821D01*
X123950500Y-73882592D01*
X123970185Y-73815553D01*
X124022989Y-73769798D01*
X124027105Y-73768111D01*
X124029322Y-73767077D01*
X124029330Y-73767075D01*
X124227639Y-73674602D01*
X124406877Y-73549098D01*
X124561598Y-73394377D01*
X124687102Y-73215139D01*
X124779575Y-73016830D01*
X124836207Y-72805477D01*
X124855277Y-72587500D01*
X124836207Y-72369523D01*
X124779575Y-72158170D01*
X124687102Y-71959862D01*
X124687100Y-71959859D01*
X124687099Y-71959857D01*
X124561599Y-71780624D01*
X124530975Y-71750000D01*
X124406877Y-71625902D01*
X124227639Y-71500398D01*
X124227640Y-71500398D01*
X124227638Y-71500397D01*
X124128484Y-71454161D01*
X124029330Y-71407925D01*
X124029326Y-71407924D01*
X124029322Y-71407922D01*
X123817977Y-71351293D01*
X123600002Y-71332223D01*
X123599998Y-71332223D01*
X123480758Y-71342655D01*
X123382023Y-71351293D01*
X123382020Y-71351293D01*
X123170677Y-71407922D01*
X123170668Y-71407926D01*
X122972361Y-71500398D01*
X122972357Y-71500400D01*
X122793121Y-71625902D01*
X122638402Y-71780621D01*
X122512900Y-71959857D01*
X122512898Y-71959861D01*
X122420426Y-72158168D01*
X122420422Y-72158177D01*
X122363793Y-72369520D01*
X122363793Y-72369524D01*
X122344723Y-72587497D01*
X122344723Y-72587502D01*
X122363793Y-72805475D01*
X122363793Y-72805479D01*
X122420422Y-73016822D01*
X122420424Y-73016826D01*
X122420425Y-73016830D01*
X122512898Y-73215139D01*
X122627074Y-73378199D01*
X122649402Y-73444404D01*
X122649500Y-73449322D01*
X122649500Y-74097821D01*
X122629815Y-74164860D01*
X122577014Y-74210613D01*
X122566906Y-74215230D01*
X122566904Y-74215231D01*
X122445867Y-74293015D01*
X122445863Y-74293018D01*
X122337226Y-74387152D01*
X122337207Y-74387169D01*
X122337206Y-74387171D01*
X122242985Y-74495909D01*
X122242983Y-74495911D01*
X122242983Y-74495912D01*
X122242981Y-74495915D01*
X122165255Y-74616857D01*
X122165252Y-74616863D01*
X122105483Y-74747741D01*
X122064977Y-74885691D01*
X122064974Y-74885703D01*
X122044500Y-75028110D01*
X122044500Y-75600002D01*
X122049644Y-75671939D01*
X122060603Y-75709262D01*
X122064363Y-75761841D01*
X122044500Y-75899998D01*
X122044500Y-76471895D01*
X122051032Y-76517330D01*
X122041087Y-76586488D01*
X122015975Y-76622655D01*
X121617047Y-77021584D01*
X121617043Y-77021589D01*
X121598395Y-77049500D01*
X121598395Y-77049501D01*
X121534914Y-77144508D01*
X121478343Y-77281082D01*
X121478340Y-77281092D01*
X121449500Y-77426079D01*
X121449500Y-77812298D01*
X121429815Y-77879337D01*
X121396625Y-77913872D01*
X121328595Y-77961507D01*
X121161508Y-78128594D01*
X121026212Y-78321817D01*
X120971635Y-78365441D01*
X120902136Y-78372634D01*
X120839782Y-78341112D01*
X120804368Y-78280882D01*
X120801417Y-78236811D01*
X120805565Y-78200000D01*
X120803334Y-78180203D01*
X120785369Y-78020750D01*
X120785366Y-78020737D01*
X120725790Y-77850481D01*
X120725789Y-77850478D01*
X120700581Y-77810360D01*
X120669506Y-77760903D01*
X120650500Y-77694931D01*
X120650500Y-76420807D01*
X120670185Y-76353768D01*
X120686815Y-76333130D01*
X120948224Y-76071720D01*
X121009545Y-76038237D01*
X121022019Y-76036183D01*
X121029255Y-76035368D01*
X121199522Y-75975789D01*
X121352262Y-75879816D01*
X121479816Y-75752262D01*
X121575789Y-75599522D01*
X121635368Y-75429255D01*
X121635655Y-75426711D01*
X121655565Y-75250003D01*
X121655565Y-75249996D01*
X121635369Y-75070750D01*
X121635368Y-75070745D01*
X121597284Y-74961908D01*
X121575789Y-74900478D01*
X121541476Y-74845870D01*
X121479815Y-74747737D01*
X121352262Y-74620184D01*
X121199523Y-74524211D01*
X121029254Y-74464631D01*
X121029249Y-74464630D01*
X120850004Y-74444435D01*
X120849996Y-74444435D01*
X120670750Y-74464630D01*
X120670745Y-74464631D01*
X120500476Y-74524211D01*
X120347737Y-74620184D01*
X120220184Y-74747737D01*
X120124210Y-74900478D01*
X120064632Y-75070744D01*
X120064630Y-75070752D01*
X120063815Y-75077988D01*
X120036743Y-75142400D01*
X120028277Y-75151775D01*
X119656121Y-75523932D01*
X119594798Y-75557417D01*
X119525107Y-75552433D01*
X119480759Y-75523932D01*
X119444154Y-75487327D01*
X119410669Y-75426004D01*
X119415653Y-75356312D01*
X119444154Y-75311964D01*
X119525693Y-75230425D01*
X119623703Y-75074443D01*
X119684547Y-74900559D01*
X119684548Y-74900553D01*
X119699999Y-74763418D01*
X119700000Y-74763414D01*
X119700000Y-74650000D01*
X117599000Y-74650000D01*
X117531961Y-74630315D01*
X117486206Y-74577511D01*
X117475000Y-74526000D01*
X117475000Y-73265000D01*
X117975000Y-73265000D01*
X117975000Y-74150000D01*
X119700000Y-74150000D01*
X119700000Y-74036585D01*
X119699999Y-74036581D01*
X119684548Y-73899446D01*
X119684547Y-73899440D01*
X119623703Y-73725556D01*
X119525691Y-73569571D01*
X119395428Y-73439308D01*
X119239443Y-73341296D01*
X119065559Y-73280452D01*
X119065553Y-73280451D01*
X118928418Y-73265000D01*
X117975000Y-73265000D01*
X117475000Y-73265000D01*
X116521581Y-73265000D01*
X116384446Y-73280451D01*
X116384440Y-73280452D01*
X116210555Y-73341296D01*
X116140472Y-73385333D01*
X116073235Y-73404333D01*
X116006400Y-73383965D01*
X115961186Y-73330697D01*
X115950500Y-73280339D01*
X115950500Y-72765568D01*
X115970185Y-72698529D01*
X115980787Y-72684365D01*
X116006986Y-72654130D01*
X116084770Y-72533094D01*
X116141742Y-72408342D01*
X116143986Y-72404053D01*
X116144498Y-72402308D01*
X116144499Y-72402308D01*
X116185035Y-72264256D01*
X116205497Y-72121941D01*
X116205497Y-72065601D01*
X116205500Y-72065590D01*
X116205500Y-71534426D01*
X116205497Y-71534399D01*
X116205497Y-71478060D01*
X116185035Y-71335744D01*
X116185034Y-71335739D01*
X116148892Y-71212656D01*
X116144498Y-71197691D01*
X116136082Y-71179262D01*
X116084776Y-71066918D01*
X116084773Y-71066914D01*
X116084770Y-71066906D01*
X116006986Y-70945870D01*
X116006985Y-70945869D01*
X116006984Y-70945867D01*
X116006982Y-70945865D01*
X115980785Y-70915630D01*
X115951762Y-70852074D01*
X115950500Y-70834430D01*
X115950500Y-70745088D01*
X115970185Y-70678049D01*
X116022989Y-70632294D01*
X116061897Y-70621730D01*
X116127797Y-70614999D01*
X116294334Y-70559814D01*
X116319162Y-70544500D01*
X116337129Y-70533418D01*
X116404521Y-70514977D01*
X116471185Y-70535899D01*
X116489907Y-70551275D01*
X116863181Y-70924549D01*
X116896666Y-70985872D01*
X116899500Y-71012230D01*
X116899500Y-71500001D01*
X116899501Y-71500019D01*
X116910000Y-71602796D01*
X116910001Y-71602799D01*
X116965185Y-71769331D01*
X116965187Y-71769336D01*
X116999999Y-71825776D01*
X117057288Y-71918656D01*
X117181344Y-72042712D01*
X117330666Y-72134814D01*
X117497203Y-72189999D01*
X117599991Y-72200500D01*
X118400008Y-72200499D01*
X118400016Y-72200498D01*
X118400019Y-72200498D01*
X118473037Y-72193039D01*
X118502797Y-72189999D01*
X118669334Y-72134814D01*
X118818656Y-72042712D01*
X118912319Y-71949049D01*
X118973642Y-71915564D01*
X119043334Y-71920548D01*
X119087681Y-71949049D01*
X119181344Y-72042712D01*
X119330666Y-72134814D01*
X119497203Y-72189999D01*
X119599991Y-72200500D01*
X120400008Y-72200499D01*
X120400016Y-72200498D01*
X120400019Y-72200498D01*
X120473037Y-72193039D01*
X120502797Y-72189999D01*
X120669334Y-72134814D01*
X120818656Y-72042712D01*
X120942712Y-71918656D01*
X121034814Y-71769334D01*
X121089999Y-71602797D01*
X121100500Y-71500009D01*
X121100499Y-71425493D01*
X121119509Y-71359516D01*
X121125786Y-71349526D01*
X121125789Y-71349522D01*
X121167506Y-71230300D01*
X121185366Y-71179262D01*
X121185369Y-71179249D01*
X121205565Y-71000003D01*
X121205565Y-70999996D01*
X121185369Y-70820750D01*
X121185366Y-70820737D01*
X121125790Y-70650480D01*
X121119504Y-70640475D01*
X121100499Y-70574505D01*
X121100499Y-70499998D01*
X121100498Y-70499981D01*
X121089999Y-70397203D01*
X121089998Y-70397200D01*
X121068090Y-70331087D01*
X121034814Y-70230666D01*
X120942712Y-70081344D01*
X120818656Y-69957288D01*
X120669334Y-69865186D01*
X120502797Y-69810001D01*
X120502795Y-69810000D01*
X120400016Y-69799500D01*
X120400009Y-69799500D01*
X120241519Y-69799500D01*
X120174480Y-69779815D01*
X120153838Y-69763181D01*
X117146546Y-66755888D01*
X117146545Y-66755887D01*
X117031807Y-66679222D01*
X116904332Y-66626421D01*
X116904322Y-66626418D01*
X116768996Y-66599500D01*
X116768994Y-66599500D01*
X116768993Y-66599500D01*
X116208541Y-66599500D01*
X116141502Y-66579815D01*
X116095747Y-66527011D01*
X116086651Y-66498280D01*
X116086398Y-66496930D01*
X116086397Y-66496917D01*
X116030582Y-66300750D01*
X116027657Y-66294876D01*
X115986272Y-66211764D01*
X115939673Y-66118179D01*
X115816764Y-65955421D01*
X115816762Y-65955418D01*
X115666041Y-65818019D01*
X115666039Y-65818017D01*
X115492642Y-65710655D01*
X115492635Y-65710651D01*
X115397546Y-65673814D01*
X115302456Y-65636976D01*
X115101976Y-65599500D01*
X114898024Y-65599500D01*
X114697544Y-65636976D01*
X114697541Y-65636976D01*
X114697541Y-65636977D01*
X114507364Y-65710651D01*
X114507357Y-65710655D01*
X114333960Y-65818017D01*
X114333958Y-65818019D01*
X114183237Y-65955418D01*
X114060327Y-66118178D01*
X113969422Y-66300739D01*
X113969417Y-66300752D01*
X113913602Y-66496917D01*
X113894785Y-66699999D01*
X113894785Y-66700000D01*
X113913602Y-66903082D01*
X113969417Y-67099247D01*
X113969422Y-67099260D01*
X113975852Y-67112172D01*
X113988114Y-67180957D01*
X113961241Y-67245452D01*
X113903765Y-67285180D01*
X113833935Y-67287528D01*
X113820059Y-67283071D01*
X113702315Y-67237458D01*
X113702309Y-67237456D01*
X113650001Y-67227677D01*
X113650000Y-67227679D01*
X113650000Y-68050000D01*
X114472528Y-68050000D01*
X114472528Y-68049999D01*
X114430114Y-67900934D01*
X114430111Y-67900926D01*
X114423786Y-67888224D01*
X114411524Y-67819438D01*
X114438397Y-67754943D01*
X114495873Y-67715215D01*
X114565703Y-67712867D01*
X114579580Y-67717325D01*
X114676684Y-67754943D01*
X114697544Y-67763024D01*
X114898024Y-67800500D01*
X114898026Y-67800500D01*
X115058480Y-67800500D01*
X115125519Y-67820185D01*
X115146161Y-67836819D01*
X115153454Y-67844112D01*
X115226189Y-67892712D01*
X115268189Y-67920775D01*
X115304800Y-67935940D01*
X115359202Y-67979778D01*
X115381268Y-68046072D01*
X115363990Y-68113771D01*
X115312854Y-68161383D01*
X115257359Y-68174500D01*
X115250004Y-68174500D01*
X115249980Y-68174501D01*
X115147203Y-68185000D01*
X115147200Y-68185001D01*
X114980668Y-68240185D01*
X114980663Y-68240187D01*
X114831342Y-68332289D01*
X114707288Y-68456343D01*
X114707283Y-68456349D01*
X114705241Y-68459661D01*
X114703247Y-68461453D01*
X114702807Y-68462011D01*
X114702711Y-68461935D01*
X114653291Y-68506383D01*
X114632192Y-68509815D01*
X114633168Y-68513254D01*
X114520188Y-68545295D01*
X114486356Y-68550000D01*
X113812500Y-68550000D01*
X113812500Y-69526000D01*
X113792815Y-69593039D01*
X113740011Y-69638794D01*
X113688500Y-69650000D01*
X113436500Y-69650000D01*
X113369461Y-69630315D01*
X113323706Y-69577511D01*
X113312500Y-69526000D01*
X113312500Y-69443000D01*
X113274000Y-69443000D01*
X113206961Y-69423315D01*
X113161206Y-69370511D01*
X113150000Y-69319000D01*
X113150000Y-68544975D01*
X113185095Y-68580070D01*
X113264905Y-68626148D01*
X113353922Y-68650000D01*
X113446078Y-68650000D01*
X113535095Y-68626148D01*
X113614905Y-68580070D01*
X113680070Y-68514905D01*
X113726148Y-68435095D01*
X113750000Y-68346078D01*
X113750000Y-68253922D01*
X113726148Y-68164905D01*
X113680070Y-68085095D01*
X113614905Y-68019930D01*
X113535095Y-67973852D01*
X113446078Y-67950000D01*
X113353922Y-67950000D01*
X113264905Y-67973852D01*
X113185095Y-68019930D01*
X113150000Y-68055025D01*
X113150000Y-67227679D01*
X113149998Y-67227677D01*
X113097690Y-67237456D01*
X113097684Y-67237458D01*
X112907586Y-67311101D01*
X112789778Y-67384045D01*
X112722417Y-67402601D01*
X112655718Y-67381792D01*
X112610856Y-67328227D01*
X112600500Y-67278618D01*
X112600500Y-63531004D01*
X112578934Y-63422591D01*
X112573580Y-63395671D01*
X112535137Y-63302863D01*
X112520775Y-63268189D01*
X112444114Y-63153458D01*
X112346542Y-63055886D01*
X112336813Y-63046157D01*
X112303332Y-62984833D01*
X112300500Y-62958481D01*
X112300500Y-62613389D01*
X112287449Y-62530990D01*
X112273402Y-62442299D01*
X112219873Y-62277555D01*
X112141232Y-62123212D01*
X112049856Y-61997445D01*
X112026377Y-61931639D01*
X112042202Y-61863585D01*
X112092308Y-61814890D01*
X112138560Y-61801106D01*
X112732162Y-61745274D01*
X112737955Y-61744866D01*
X113575147Y-61705583D01*
X113580959Y-61705447D01*
X114419041Y-61705447D01*
X114424853Y-61705583D01*
G37*
%TD.AperFunction*%
%TA.AperFunction,Conductor*%
G36*
X108418413Y-92320185D02*
G01*
X108439055Y-92336819D01*
X109413681Y-93311445D01*
X109447166Y-93372768D01*
X109450000Y-93399126D01*
X109450000Y-94526000D01*
X109430315Y-94593039D01*
X109377511Y-94638794D01*
X109326000Y-94650000D01*
X109074000Y-94650000D01*
X109006961Y-94630315D01*
X108961206Y-94577511D01*
X108950000Y-94526000D01*
X108950000Y-93300000D01*
X108700029Y-93300000D01*
X108700012Y-93300001D01*
X108597302Y-93310494D01*
X108430880Y-93365641D01*
X108424330Y-93368696D01*
X108423755Y-93367464D01*
X108363847Y-93383851D01*
X108297185Y-93362921D01*
X108252421Y-93309275D01*
X108245478Y-93288387D01*
X108244091Y-93282521D01*
X108244091Y-93282517D01*
X108195140Y-93151272D01*
X108193797Y-93147671D01*
X108193793Y-93147664D01*
X108107547Y-93032455D01*
X108107544Y-93032452D01*
X107992335Y-92946206D01*
X107992328Y-92946202D01*
X107860917Y-92897189D01*
X107804983Y-92855318D01*
X107780566Y-92789853D01*
X107795418Y-92721580D01*
X107816563Y-92693332D01*
X107938495Y-92571401D01*
X108074035Y-92377830D01*
X108076707Y-92372097D01*
X108122878Y-92319658D01*
X108189091Y-92300500D01*
X108351374Y-92300500D01*
X108418413Y-92320185D01*
G37*
%TD.AperFunction*%
%TA.AperFunction,Conductor*%
G36*
X115840584Y-81120185D02*
G01*
X115878538Y-81158527D01*
X115923912Y-81230738D01*
X115923913Y-81230740D01*
X116005492Y-81312319D01*
X116038977Y-81373642D01*
X116033993Y-81443334D01*
X116005492Y-81487681D01*
X115923915Y-81569257D01*
X115825845Y-81725334D01*
X115764961Y-81899328D01*
X115749500Y-82036557D01*
X115749500Y-82763442D01*
X115764961Y-82900671D01*
X115795584Y-82988184D01*
X115820373Y-83059029D01*
X115825845Y-83074665D01*
X115923915Y-83230742D01*
X116005492Y-83312319D01*
X116038977Y-83373642D01*
X116033993Y-83443334D01*
X116005492Y-83487681D01*
X115923915Y-83569257D01*
X115825845Y-83725334D01*
X115764961Y-83899328D01*
X115749500Y-84036557D01*
X115749500Y-84763442D01*
X115764961Y-84900671D01*
X115825845Y-85074665D01*
X115923915Y-85230742D01*
X116005492Y-85312319D01*
X116038977Y-85373642D01*
X116033993Y-85443334D01*
X116005492Y-85487681D01*
X115923915Y-85569257D01*
X115825845Y-85725334D01*
X115764961Y-85899328D01*
X115749500Y-86036557D01*
X115749500Y-86763442D01*
X115764961Y-86900671D01*
X115825845Y-87074665D01*
X115923915Y-87230742D01*
X116005845Y-87312672D01*
X116039330Y-87373995D01*
X116034346Y-87443687D01*
X116005846Y-87488034D01*
X115924307Y-87569573D01*
X115826296Y-87725556D01*
X115765452Y-87899440D01*
X115765451Y-87899446D01*
X115750000Y-88036581D01*
X115750000Y-88150000D01*
X119700000Y-88150000D01*
X119700000Y-88036585D01*
X119699999Y-88036581D01*
X119684548Y-87899446D01*
X119684547Y-87899440D01*
X119623703Y-87725556D01*
X119525691Y-87569571D01*
X119444154Y-87488034D01*
X119410669Y-87426711D01*
X119415653Y-87357019D01*
X119444150Y-87312676D01*
X119526085Y-87230742D01*
X119540044Y-87208527D01*
X119592379Y-87162236D01*
X119645037Y-87150500D01*
X119953920Y-87150500D01*
X120051462Y-87131096D01*
X120098913Y-87121658D01*
X120235495Y-87065084D01*
X120284729Y-87032186D01*
X120358416Y-86982952D01*
X120646415Y-86694951D01*
X120707738Y-86661467D01*
X120777429Y-86666451D01*
X120833363Y-86708322D01*
X120857624Y-86771825D01*
X120864936Y-86855403D01*
X120864938Y-86855413D01*
X120926094Y-87083655D01*
X120926096Y-87083659D01*
X120926097Y-87083663D01*
X120994681Y-87230742D01*
X121025965Y-87297830D01*
X121025967Y-87297834D01*
X121122662Y-87435928D01*
X121159147Y-87488034D01*
X121161501Y-87491395D01*
X121161506Y-87491402D01*
X121328597Y-87658493D01*
X121328603Y-87658498D01*
X121514158Y-87788425D01*
X121557783Y-87843002D01*
X121564977Y-87912500D01*
X121533454Y-87974855D01*
X121514158Y-87991575D01*
X121328597Y-88121505D01*
X121161505Y-88288597D01*
X121025965Y-88482169D01*
X121025964Y-88482171D01*
X120926098Y-88696335D01*
X120926094Y-88696344D01*
X120864938Y-88924586D01*
X120864936Y-88924596D01*
X120844341Y-89159999D01*
X120844341Y-89160000D01*
X120864936Y-89395403D01*
X120864938Y-89395413D01*
X120926094Y-89623655D01*
X120926096Y-89623659D01*
X120926097Y-89623663D01*
X120975029Y-89728597D01*
X121025965Y-89837830D01*
X121025967Y-89837834D01*
X121161501Y-90031395D01*
X121161506Y-90031402D01*
X121328597Y-90198493D01*
X121328603Y-90198498D01*
X121354831Y-90216863D01*
X121458927Y-90289752D01*
X121514594Y-90328730D01*
X121558219Y-90383307D01*
X121565413Y-90452805D01*
X121533890Y-90515160D01*
X121514595Y-90531880D01*
X121328922Y-90661890D01*
X121328920Y-90661891D01*
X121161891Y-90828920D01*
X121161886Y-90828926D01*
X121026400Y-91022420D01*
X121026399Y-91022422D01*
X120926570Y-91236507D01*
X120926567Y-91236513D01*
X120869364Y-91449999D01*
X120869364Y-91450000D01*
X121766988Y-91450000D01*
X121734075Y-91507007D01*
X121700000Y-91634174D01*
X121700000Y-91765826D01*
X121734075Y-91892993D01*
X121766988Y-91950000D01*
X120869364Y-91950000D01*
X120926567Y-92163486D01*
X120926570Y-92163492D01*
X121026399Y-92377578D01*
X121161894Y-92571082D01*
X121283946Y-92693134D01*
X121317431Y-92754457D01*
X121312447Y-92824149D01*
X121270575Y-92880082D01*
X121239598Y-92896997D01*
X121107671Y-92946202D01*
X121107664Y-92946206D01*
X120992455Y-93032452D01*
X120992452Y-93032455D01*
X120906206Y-93147664D01*
X120906202Y-93147671D01*
X120855908Y-93282517D01*
X120849501Y-93342116D01*
X120849501Y-93342123D01*
X120849500Y-93342135D01*
X120849500Y-93700500D01*
X120829815Y-93767539D01*
X120777011Y-93813294D01*
X120725500Y-93824500D01*
X120249000Y-93824500D01*
X120181961Y-93804815D01*
X120136206Y-93752011D01*
X120125000Y-93700500D01*
X120125000Y-93650000D01*
X118911500Y-93650000D01*
X118844461Y-93630315D01*
X118798706Y-93577511D01*
X118787500Y-93526000D01*
X118787500Y-91450000D01*
X119287500Y-91450000D01*
X119287500Y-93150000D01*
X120124999Y-93150000D01*
X120124999Y-92875028D01*
X120124998Y-92875013D01*
X120114505Y-92772302D01*
X120059358Y-92605880D01*
X120059356Y-92605875D01*
X119967315Y-92456654D01*
X119898342Y-92387681D01*
X119864857Y-92326358D01*
X119869841Y-92256666D01*
X119898342Y-92212319D01*
X119967315Y-92143345D01*
X120059356Y-91994124D01*
X120059358Y-91994119D01*
X120114505Y-91827697D01*
X120114506Y-91827690D01*
X120124999Y-91724986D01*
X120125000Y-91724973D01*
X120125000Y-91450000D01*
X119287500Y-91450000D01*
X118787500Y-91450000D01*
X118787500Y-89975000D01*
X119287500Y-89975000D01*
X119287500Y-90950000D01*
X120124999Y-90950000D01*
X120124999Y-90675028D01*
X120124998Y-90675013D01*
X120114505Y-90572302D01*
X120059358Y-90405880D01*
X120059356Y-90405875D01*
X119967315Y-90256654D01*
X119843345Y-90132684D01*
X119694124Y-90040643D01*
X119694119Y-90040641D01*
X119527697Y-89985494D01*
X119527690Y-89985493D01*
X119424986Y-89975000D01*
X119287500Y-89975000D01*
X118787500Y-89975000D01*
X118650027Y-89975000D01*
X118650012Y-89975001D01*
X118547302Y-89985494D01*
X118380880Y-90040641D01*
X118380875Y-90040643D01*
X118231654Y-90132684D01*
X118107683Y-90256655D01*
X118107679Y-90256660D01*
X118105826Y-90259665D01*
X118104018Y-90261290D01*
X118103202Y-90262323D01*
X118103025Y-90262183D01*
X118053874Y-90306385D01*
X117984911Y-90317601D01*
X117920831Y-90289752D01*
X117894753Y-90259653D01*
X117894737Y-90259628D01*
X117892712Y-90256344D01*
X117768656Y-90132288D01*
X117619334Y-90040186D01*
X117452797Y-89985001D01*
X117452795Y-89985000D01*
X117350010Y-89974500D01*
X116574998Y-89974500D01*
X116574980Y-89974501D01*
X116472203Y-89985000D01*
X116472200Y-89985001D01*
X116305668Y-90040185D01*
X116305663Y-90040187D01*
X116156342Y-90132289D01*
X116032289Y-90256342D01*
X115940187Y-90405663D01*
X115940185Y-90405668D01*
X115932122Y-90430000D01*
X115885001Y-90572203D01*
X115885001Y-90572204D01*
X115885000Y-90572204D01*
X115874500Y-90674983D01*
X115874500Y-91725001D01*
X115874501Y-91725019D01*
X115885000Y-91827796D01*
X115885001Y-91827799D01*
X115933541Y-91974280D01*
X115940186Y-91994334D01*
X116032096Y-92143345D01*
X116032289Y-92143657D01*
X116100951Y-92212319D01*
X116134436Y-92273642D01*
X116129452Y-92343334D01*
X116100951Y-92387681D01*
X116032289Y-92456342D01*
X115940187Y-92605663D01*
X115940185Y-92605668D01*
X115922954Y-92657669D01*
X115885001Y-92772203D01*
X115885001Y-92772204D01*
X115885000Y-92772204D01*
X115874500Y-92874983D01*
X115874500Y-93073500D01*
X115854815Y-93140539D01*
X115802011Y-93186294D01*
X115750500Y-93197500D01*
X114348499Y-93197500D01*
X114281460Y-93177815D01*
X114235705Y-93125011D01*
X114224499Y-93073500D01*
X114224499Y-92852129D01*
X114224498Y-92852123D01*
X114224497Y-92852116D01*
X114218091Y-92792517D01*
X114207317Y-92763632D01*
X114199500Y-92720300D01*
X114199500Y-92074499D01*
X114219185Y-92007460D01*
X114271989Y-91961705D01*
X114323500Y-91950499D01*
X114572871Y-91950499D01*
X114572872Y-91950499D01*
X114632483Y-91944091D01*
X114767331Y-91893796D01*
X114882546Y-91807546D01*
X114968796Y-91692331D01*
X115019091Y-91557483D01*
X115025500Y-91497873D01*
X115025499Y-89702128D01*
X115019091Y-89642517D01*
X115017810Y-89639083D01*
X114968797Y-89507671D01*
X114968793Y-89507664D01*
X114882547Y-89392455D01*
X114882544Y-89392452D01*
X114767335Y-89306206D01*
X114767328Y-89306202D01*
X114632482Y-89255908D01*
X114632483Y-89255908D01*
X114572883Y-89249501D01*
X114572881Y-89249500D01*
X114572873Y-89249500D01*
X114572864Y-89249500D01*
X112777129Y-89249500D01*
X112777123Y-89249501D01*
X112717516Y-89255908D01*
X112582671Y-89306202D01*
X112582664Y-89306206D01*
X112467455Y-89392452D01*
X112467452Y-89392455D01*
X112381206Y-89507664D01*
X112381203Y-89507669D01*
X112332189Y-89639083D01*
X112290317Y-89695016D01*
X112224853Y-89719433D01*
X112156580Y-89704581D01*
X112128326Y-89683430D01*
X112006402Y-89561506D01*
X112006395Y-89561501D01*
X111812834Y-89425967D01*
X111812830Y-89425965D01*
X111812828Y-89425964D01*
X111598663Y-89326097D01*
X111598659Y-89326096D01*
X111598655Y-89326094D01*
X111370413Y-89264938D01*
X111370403Y-89264936D01*
X111135001Y-89244341D01*
X111134999Y-89244341D01*
X110899596Y-89264936D01*
X110899586Y-89264938D01*
X110671344Y-89326094D01*
X110671335Y-89326098D01*
X110457171Y-89425964D01*
X110457169Y-89425965D01*
X110263597Y-89561505D01*
X110096505Y-89728597D01*
X109960965Y-89922169D01*
X109960964Y-89922171D01*
X109861098Y-90136335D01*
X109861094Y-90136344D01*
X109799938Y-90364586D01*
X109799936Y-90364596D01*
X109779341Y-90599999D01*
X109779341Y-90600000D01*
X109799936Y-90835403D01*
X109799938Y-90835413D01*
X109861094Y-91063655D01*
X109861096Y-91063659D01*
X109861097Y-91063663D01*
X109933756Y-91219480D01*
X109960965Y-91277830D01*
X109960967Y-91277834D01*
X110016809Y-91357584D01*
X110096505Y-91471401D01*
X110263599Y-91638495D01*
X110343004Y-91694095D01*
X110457165Y-91774032D01*
X110457167Y-91774033D01*
X110457170Y-91774035D01*
X110671337Y-91873903D01*
X110899592Y-91935063D01*
X111087918Y-91951539D01*
X111134999Y-91955659D01*
X111135000Y-91955659D01*
X111135001Y-91955659D01*
X111174234Y-91952226D01*
X111370408Y-91935063D01*
X111498757Y-91900672D01*
X111568606Y-91902335D01*
X111618531Y-91932766D01*
X111894616Y-92208851D01*
X111928101Y-92270174D01*
X111923117Y-92339866D01*
X111881245Y-92395799D01*
X111850269Y-92412714D01*
X111733669Y-92456203D01*
X111733664Y-92456206D01*
X111618455Y-92542452D01*
X111618452Y-92542455D01*
X111532206Y-92657664D01*
X111532202Y-92657671D01*
X111481908Y-92792517D01*
X111480353Y-92806986D01*
X111475501Y-92852123D01*
X111475500Y-92852135D01*
X111475500Y-93198500D01*
X111455815Y-93265539D01*
X111403011Y-93311294D01*
X111351500Y-93322500D01*
X111083062Y-93322500D01*
X111016023Y-93302815D01*
X110970268Y-93250011D01*
X110963287Y-93230592D01*
X110959577Y-93216746D01*
X110959573Y-93216738D01*
X110880524Y-93079819D01*
X110880521Y-93079815D01*
X110880520Y-93079813D01*
X110768716Y-92968009D01*
X110768715Y-92968008D01*
X110764385Y-92963678D01*
X110764374Y-92963668D01*
X109139061Y-91338355D01*
X109139059Y-91338352D01*
X109020188Y-91219481D01*
X109020187Y-91219480D01*
X108932697Y-91168968D01*
X108932696Y-91168967D01*
X108883261Y-91140425D01*
X108883260Y-91140424D01*
X108870734Y-91137067D01*
X108730528Y-91099499D01*
X108572414Y-91099499D01*
X108564818Y-91099499D01*
X108564802Y-91099500D01*
X108189091Y-91099500D01*
X108122052Y-91079815D01*
X108076711Y-91027909D01*
X108074037Y-91022175D01*
X108074034Y-91022170D01*
X108023500Y-90950000D01*
X108016002Y-90939290D01*
X107938494Y-90828597D01*
X107771402Y-90661506D01*
X107771396Y-90661501D01*
X107585842Y-90531575D01*
X107542217Y-90476998D01*
X107535023Y-90407500D01*
X107566546Y-90345145D01*
X107585842Y-90328425D01*
X107621047Y-90303774D01*
X107771401Y-90198495D01*
X107938495Y-90031401D01*
X108074035Y-89837830D01*
X108173903Y-89623663D01*
X108235063Y-89395408D01*
X108255659Y-89160000D01*
X108235063Y-88924592D01*
X108215614Y-88852007D01*
X108217277Y-88782162D01*
X108247706Y-88732238D01*
X108329944Y-88650000D01*
X115750000Y-88650000D01*
X115750000Y-88763418D01*
X115765451Y-88900553D01*
X115765452Y-88900559D01*
X115826296Y-89074443D01*
X115924308Y-89230428D01*
X116054571Y-89360691D01*
X116210556Y-89458703D01*
X116384440Y-89519547D01*
X116384446Y-89519548D01*
X116521581Y-89534999D01*
X116521585Y-89535000D01*
X117475000Y-89535000D01*
X117475000Y-88650000D01*
X117975000Y-88650000D01*
X117975000Y-89535000D01*
X118928415Y-89535000D01*
X118928418Y-89534999D01*
X119065553Y-89519548D01*
X119065559Y-89519547D01*
X119239443Y-89458703D01*
X119395428Y-89360691D01*
X119525691Y-89230428D01*
X119623703Y-89074443D01*
X119684547Y-88900559D01*
X119684548Y-88900553D01*
X119699999Y-88763418D01*
X119700000Y-88763414D01*
X119700000Y-88650000D01*
X117975000Y-88650000D01*
X117475000Y-88650000D01*
X115750000Y-88650000D01*
X108329944Y-88650000D01*
X110693127Y-86286819D01*
X110754450Y-86253334D01*
X110780808Y-86250500D01*
X114222903Y-86250500D01*
X114289942Y-86270185D01*
X114291791Y-86271396D01*
X114294878Y-86273459D01*
X114339472Y-86291930D01*
X114413262Y-86322495D01*
X114413266Y-86322495D01*
X114413267Y-86322496D01*
X114538934Y-86347494D01*
X114538937Y-86347494D01*
X114667077Y-86347494D01*
X114751621Y-86330676D01*
X114792750Y-86322495D01*
X114911133Y-86273459D01*
X115017675Y-86202270D01*
X115108282Y-86111663D01*
X115179471Y-86005121D01*
X115228507Y-85886738D01*
X115253506Y-85761063D01*
X115253506Y-81224500D01*
X115273191Y-81157461D01*
X115325995Y-81111706D01*
X115377506Y-81100500D01*
X115773545Y-81100500D01*
X115840584Y-81120185D01*
G37*
%TD.AperFunction*%
%TA.AperFunction,Conductor*%
G36*
X123866942Y-81620185D02*
G01*
X123887584Y-81636819D01*
X123963181Y-81712416D01*
X123996666Y-81773739D01*
X123999500Y-81800097D01*
X123999500Y-83438330D01*
X123999499Y-83438348D01*
X123999499Y-83604054D01*
X123999498Y-83604054D01*
X124011656Y-83649427D01*
X124033196Y-83729815D01*
X124040424Y-83756787D01*
X124043533Y-83764293D01*
X124040548Y-83765529D01*
X124053435Y-83818754D01*
X124030552Y-83884770D01*
X123998470Y-83915898D01*
X123955330Y-83944723D01*
X123955324Y-83944728D01*
X123764962Y-84135090D01*
X123703639Y-84168575D01*
X123633947Y-84163591D01*
X123578014Y-84121719D01*
X123553753Y-84058217D01*
X123552856Y-84047962D01*
X123535063Y-83844592D01*
X123473903Y-83616337D01*
X123374035Y-83402171D01*
X123354281Y-83373958D01*
X123238494Y-83208597D01*
X123071402Y-83041506D01*
X123071396Y-83041501D01*
X122885842Y-82911575D01*
X122842217Y-82856998D01*
X122835023Y-82787500D01*
X122866546Y-82725145D01*
X122885842Y-82708425D01*
X122982270Y-82640905D01*
X123071401Y-82578495D01*
X123238495Y-82411401D01*
X123374035Y-82217830D01*
X123473903Y-82003663D01*
X123535063Y-81775408D01*
X123538803Y-81732664D01*
X123540463Y-81713691D01*
X123565916Y-81648623D01*
X123622507Y-81607645D01*
X123663991Y-81600500D01*
X123799903Y-81600500D01*
X123866942Y-81620185D01*
G37*
%TD.AperFunction*%
%TA.AperFunction,Conductor*%
G36*
X121121350Y-82370185D02*
G01*
X121155885Y-82403376D01*
X121161504Y-82411401D01*
X121328597Y-82578493D01*
X121328603Y-82578498D01*
X121514158Y-82708425D01*
X121557783Y-82763002D01*
X121564977Y-82832500D01*
X121533454Y-82894855D01*
X121514158Y-82911575D01*
X121328597Y-83041505D01*
X121161505Y-83208597D01*
X121025965Y-83402169D01*
X121025964Y-83402171D01*
X120972727Y-83516339D01*
X120926098Y-83616336D01*
X120926094Y-83616344D01*
X120864938Y-83844586D01*
X120864936Y-83844596D01*
X120847143Y-84047962D01*
X120821690Y-84113031D01*
X120765099Y-84154009D01*
X120695337Y-84157887D01*
X120657643Y-84142148D01*
X120549521Y-84074210D01*
X120379255Y-84014632D01*
X120379246Y-84014630D01*
X120372012Y-84013815D01*
X120307600Y-83986743D01*
X120298224Y-83978277D01*
X120214673Y-83894726D01*
X120214669Y-83894723D01*
X120108127Y-83823535D01*
X120067976Y-83806904D01*
X119989744Y-83774499D01*
X119989738Y-83774497D01*
X119864071Y-83749500D01*
X119864069Y-83749500D01*
X119707871Y-83749500D01*
X119640832Y-83729815D01*
X119602877Y-83691472D01*
X119526085Y-83569258D01*
X119444508Y-83487681D01*
X119411023Y-83426358D01*
X119416007Y-83356666D01*
X119444508Y-83312319D01*
X119526085Y-83230742D01*
X119624156Y-83074663D01*
X119685037Y-82900674D01*
X119685037Y-82900673D01*
X119685038Y-82900671D01*
X119695254Y-82810000D01*
X119700500Y-82763438D01*
X119700500Y-82474500D01*
X119720185Y-82407461D01*
X119772989Y-82361706D01*
X119824500Y-82350500D01*
X121054311Y-82350500D01*
X121121350Y-82370185D01*
G37*
%TD.AperFunction*%
%TA.AperFunction,Conductor*%
G36*
X129118834Y-78990758D02*
G01*
X129174767Y-79032630D01*
X129199184Y-79098094D01*
X129199500Y-79106940D01*
X129199500Y-81896523D01*
X129179815Y-81963562D01*
X129127011Y-82009317D01*
X129057853Y-82019261D01*
X128994297Y-81990236D01*
X128970507Y-81962496D01*
X128929817Y-81897739D01*
X128802262Y-81770184D01*
X128649523Y-81674211D01*
X128479254Y-81614631D01*
X128479249Y-81614630D01*
X128300004Y-81594435D01*
X128299996Y-81594435D01*
X128162883Y-81609883D01*
X128094061Y-81597828D01*
X128042682Y-81550479D01*
X128025000Y-81486663D01*
X128025000Y-81427172D01*
X128024999Y-81427155D01*
X128018598Y-81367627D01*
X128018597Y-81367624D01*
X128009538Y-81343335D01*
X128004552Y-81273644D01*
X128009538Y-81256665D01*
X128018597Y-81232375D01*
X128018598Y-81232372D01*
X128024999Y-81172844D01*
X128025000Y-81172827D01*
X128025000Y-81125000D01*
X127767708Y-81125000D01*
X127700669Y-81105315D01*
X127654914Y-81052511D01*
X127644970Y-80983353D01*
X127673995Y-80919797D01*
X127724375Y-80884818D01*
X127767328Y-80868797D01*
X127767327Y-80868797D01*
X127767331Y-80868796D01*
X127859586Y-80799733D01*
X127925050Y-80775316D01*
X127933897Y-80775000D01*
X128025000Y-80775000D01*
X128025000Y-80727172D01*
X128024999Y-80727155D01*
X128018598Y-80667627D01*
X128018597Y-80667623D01*
X128009804Y-80644047D01*
X128004820Y-80574355D01*
X128009802Y-80557387D01*
X128019091Y-80532483D01*
X128025500Y-80472873D01*
X128025499Y-80027128D01*
X128019091Y-79967517D01*
X128010070Y-79943333D01*
X128005085Y-79873644D01*
X128010066Y-79856677D01*
X128019091Y-79832483D01*
X128025500Y-79772873D01*
X128025499Y-79614907D01*
X128045183Y-79547869D01*
X128097987Y-79502114D01*
X128125304Y-79493292D01*
X128214744Y-79475501D01*
X128333127Y-79426465D01*
X128357386Y-79410256D01*
X128439669Y-79355277D01*
X128485722Y-79309222D01*
X128547045Y-79275737D01*
X128559519Y-79273683D01*
X128566755Y-79272868D01*
X128737022Y-79213289D01*
X128889762Y-79117316D01*
X128987819Y-79019259D01*
X129049142Y-78985774D01*
X129118834Y-78990758D01*
G37*
%TD.AperFunction*%
%TA.AperFunction,Conductor*%
G36*
X126417178Y-80945184D02*
G01*
X126462933Y-80997988D01*
X126472877Y-81067146D01*
X126450000Y-81117239D01*
X126450000Y-81550500D01*
X126430315Y-81617539D01*
X126377511Y-81663294D01*
X126326000Y-81674500D01*
X126224000Y-81674500D01*
X126156961Y-81654815D01*
X126111206Y-81602011D01*
X126100000Y-81550500D01*
X126100000Y-81049499D01*
X126119685Y-80982460D01*
X126172489Y-80936705D01*
X126224000Y-80925499D01*
X126350139Y-80925499D01*
X126417178Y-80945184D01*
G37*
%TD.AperFunction*%
%TA.AperFunction,Conductor*%
G36*
X128596231Y-75770185D02*
G01*
X128616873Y-75786819D01*
X129163181Y-76333127D01*
X129196666Y-76394450D01*
X129199500Y-76420808D01*
X129199500Y-77868060D01*
X129179815Y-77935099D01*
X129127011Y-77980854D01*
X129057853Y-77990798D01*
X128994297Y-77961773D01*
X128987819Y-77955741D01*
X128889762Y-77857684D01*
X128737023Y-77761711D01*
X128566754Y-77702131D01*
X128566749Y-77702130D01*
X128387504Y-77681935D01*
X128387496Y-77681935D01*
X128208250Y-77702130D01*
X128208242Y-77702132D01*
X128085655Y-77745027D01*
X128015876Y-77748588D01*
X127955249Y-77713859D01*
X127945434Y-77702296D01*
X127882186Y-77617809D01*
X127767093Y-77531649D01*
X127767086Y-77531645D01*
X127632379Y-77481403D01*
X127632372Y-77481401D01*
X127572844Y-77475000D01*
X126450000Y-77475000D01*
X126450000Y-78050500D01*
X126430315Y-78117539D01*
X126377511Y-78163294D01*
X126326000Y-78174500D01*
X126199861Y-78174500D01*
X126132822Y-78154815D01*
X126087067Y-78102011D01*
X126077123Y-78032853D01*
X126100000Y-77982759D01*
X126100000Y-77475000D01*
X124977155Y-77475000D01*
X124917627Y-77481401D01*
X124917620Y-77481403D01*
X124782913Y-77531645D01*
X124782906Y-77531649D01*
X124667812Y-77617809D01*
X124667809Y-77617812D01*
X124581649Y-77732906D01*
X124581645Y-77732913D01*
X124531403Y-77867620D01*
X124531401Y-77867627D01*
X124525000Y-77927155D01*
X124525000Y-77975000D01*
X124782292Y-77975000D01*
X124849331Y-77994685D01*
X124895086Y-78047489D01*
X124905030Y-78116647D01*
X124876005Y-78180203D01*
X124825625Y-78215182D01*
X124782671Y-78231202D01*
X124782668Y-78231204D01*
X124775184Y-78236807D01*
X124690413Y-78300266D01*
X124624950Y-78324684D01*
X124616103Y-78325000D01*
X124525000Y-78325000D01*
X124525000Y-78372844D01*
X124531401Y-78432372D01*
X124531403Y-78432379D01*
X124540195Y-78455952D01*
X124545179Y-78525644D01*
X124540196Y-78542615D01*
X124530909Y-78567516D01*
X124530908Y-78567517D01*
X124524501Y-78627116D01*
X124524500Y-78627135D01*
X124524500Y-78680973D01*
X124504815Y-78748012D01*
X124452011Y-78793767D01*
X124386618Y-78804193D01*
X124300005Y-78794435D01*
X124299996Y-78794435D01*
X124120750Y-78814630D01*
X124120745Y-78814631D01*
X123950476Y-78874211D01*
X123797737Y-78970184D01*
X123760767Y-79007154D01*
X123699444Y-79040639D01*
X123629752Y-79035653D01*
X123573819Y-78993781D01*
X123549559Y-78930280D01*
X123544713Y-78874893D01*
X123535063Y-78764592D01*
X123473903Y-78536337D01*
X123374035Y-78322171D01*
X123373788Y-78321817D01*
X123238494Y-78128597D01*
X123071404Y-77961508D01*
X123071403Y-77961507D01*
X123071401Y-77961505D01*
X123032741Y-77934435D01*
X122989118Y-77879859D01*
X122981926Y-77810360D01*
X123013449Y-77748006D01*
X123016154Y-77745213D01*
X123319549Y-77441819D01*
X123380872Y-77408334D01*
X123407230Y-77405500D01*
X123565573Y-77405500D01*
X123565601Y-77405497D01*
X123621940Y-77405497D01*
X123621941Y-77405497D01*
X123755479Y-77386297D01*
X123755481Y-77386297D01*
X123761612Y-77385415D01*
X123764256Y-77385035D01*
X123764257Y-77385035D01*
X123902309Y-77344498D01*
X124033094Y-77284770D01*
X124154130Y-77206986D01*
X124262791Y-77112832D01*
X124262794Y-77112829D01*
X124357015Y-77004091D01*
X124434747Y-76883137D01*
X124494517Y-76752259D01*
X124535024Y-76614304D01*
X124555500Y-76471889D01*
X124555500Y-75900000D01*
X124554309Y-75883346D01*
X124569161Y-75815073D01*
X124618566Y-75765668D01*
X124677993Y-75750500D01*
X128529192Y-75750500D01*
X128596231Y-75770185D01*
G37*
%TD.AperFunction*%
%TA.AperFunction,Conductor*%
G36*
X105316656Y-72910236D02*
G01*
X105342743Y-72940341D01*
X105344788Y-72943656D01*
X105468844Y-73067712D01*
X105618166Y-73159814D01*
X105784703Y-73214999D01*
X105887491Y-73225500D01*
X106662508Y-73225499D01*
X106662516Y-73225498D01*
X106662519Y-73225498D01*
X106718802Y-73219748D01*
X106765297Y-73214999D01*
X106931834Y-73159814D01*
X107081156Y-73067712D01*
X107156069Y-72992799D01*
X107217392Y-72959314D01*
X107287084Y-72964298D01*
X107331431Y-72992799D01*
X107381344Y-73042712D01*
X107530666Y-73134814D01*
X107697203Y-73189999D01*
X107799991Y-73200500D01*
X108600008Y-73200499D01*
X108600016Y-73200498D01*
X108600019Y-73200498D01*
X108657815Y-73194594D01*
X108702797Y-73189999D01*
X108869334Y-73134814D01*
X109018656Y-73042712D01*
X109112319Y-72949049D01*
X109173642Y-72915564D01*
X109243334Y-72920548D01*
X109287681Y-72949049D01*
X109381344Y-73042712D01*
X109530666Y-73134814D01*
X109697203Y-73189999D01*
X109799991Y-73200500D01*
X110375500Y-73200499D01*
X110442539Y-73220183D01*
X110488294Y-73272987D01*
X110499500Y-73324499D01*
X110499500Y-76787769D01*
X110479815Y-76854808D01*
X110463181Y-76875450D01*
X109091937Y-78246693D01*
X109055873Y-78269370D01*
X109056750Y-78271191D01*
X109050475Y-78274212D01*
X108897737Y-78370184D01*
X108770184Y-78497737D01*
X108674211Y-78650478D01*
X108671188Y-78656756D01*
X108669362Y-78655876D01*
X108646693Y-78691937D01*
X108450366Y-78888264D01*
X108389043Y-78921749D01*
X108319351Y-78916765D01*
X108263418Y-78874893D01*
X108239157Y-78811390D01*
X108235063Y-78764592D01*
X108218741Y-78703677D01*
X108220404Y-78633829D01*
X108223955Y-78624133D01*
X108254860Y-78549522D01*
X108273580Y-78504329D01*
X108289390Y-78424846D01*
X108300500Y-78368993D01*
X108300500Y-76723272D01*
X108320185Y-76656233D01*
X108330787Y-76642070D01*
X108406981Y-76554136D01*
X108406984Y-76554132D01*
X108406986Y-76554130D01*
X108484770Y-76433094D01*
X108541742Y-76308342D01*
X108543986Y-76304053D01*
X108544498Y-76302308D01*
X108544499Y-76302308D01*
X108585035Y-76164256D01*
X108605497Y-76021941D01*
X108605497Y-75965601D01*
X108605500Y-75965590D01*
X108605500Y-75434426D01*
X108605497Y-75434399D01*
X108605497Y-75378060D01*
X108596095Y-75312671D01*
X108585035Y-75235744D01*
X108585035Y-75235743D01*
X108583473Y-75230425D01*
X108575017Y-75201626D01*
X108544498Y-75097691D01*
X108535500Y-75077988D01*
X108484776Y-74966918D01*
X108484773Y-74966914D01*
X108484770Y-74966906D01*
X108406986Y-74845870D01*
X108406985Y-74845869D01*
X108406984Y-74845867D01*
X108406981Y-74845863D01*
X108312847Y-74737226D01*
X108312830Y-74737207D01*
X108312829Y-74737206D01*
X108204091Y-74642985D01*
X108151016Y-74608876D01*
X108083142Y-74565255D01*
X108083136Y-74565252D01*
X107997185Y-74526000D01*
X107952259Y-74505483D01*
X107834650Y-74470950D01*
X107814308Y-74464977D01*
X107814296Y-74464974D01*
X107671889Y-74444500D01*
X107100000Y-74444500D01*
X107099997Y-74444500D01*
X107028061Y-74449644D01*
X107028056Y-74449645D01*
X106990735Y-74460603D01*
X106938158Y-74464363D01*
X106800001Y-74444500D01*
X106800000Y-74444500D01*
X106228111Y-74444500D01*
X106228110Y-74444500D01*
X106085703Y-74464974D01*
X106085691Y-74464977D01*
X105947741Y-74505483D01*
X105816863Y-74565252D01*
X105816861Y-74565254D01*
X105701523Y-74639376D01*
X105700083Y-74640196D01*
X105695901Y-74642988D01*
X105587169Y-74737207D01*
X105587166Y-74737210D01*
X105493018Y-74845864D01*
X105493015Y-74845867D01*
X105415231Y-74966905D01*
X105415223Y-74966918D01*
X105358263Y-75091643D01*
X105356015Y-75095939D01*
X105314966Y-75235738D01*
X105314965Y-75235744D01*
X105294503Y-75378059D01*
X105294503Y-75434399D01*
X105294500Y-75434409D01*
X105294500Y-75965573D01*
X105294503Y-75965601D01*
X105294503Y-76021941D01*
X105304201Y-76089393D01*
X105313703Y-76155478D01*
X105313703Y-76155481D01*
X105314964Y-76164255D01*
X105355503Y-76302313D01*
X105415223Y-76433081D01*
X105415227Y-76433087D01*
X105415230Y-76433094D01*
X105474936Y-76526000D01*
X105493015Y-76554132D01*
X105493018Y-76554136D01*
X105587152Y-76662773D01*
X105587168Y-76662791D01*
X105587171Y-76662794D01*
X105606702Y-76679717D01*
X105644477Y-76738495D01*
X105649500Y-76773431D01*
X105649500Y-76873179D01*
X105629815Y-76940218D01*
X105613181Y-76960860D01*
X104784866Y-77789174D01*
X104723543Y-77822659D01*
X104653851Y-77817675D01*
X104597918Y-77775803D01*
X104580143Y-77742447D01*
X104574155Y-77725335D01*
X104523290Y-77644384D01*
X104476085Y-77569258D01*
X104394154Y-77487327D01*
X104360669Y-77426004D01*
X104365653Y-77356312D01*
X104394154Y-77311964D01*
X104475693Y-77230425D01*
X104573703Y-77074443D01*
X104634547Y-76900559D01*
X104634548Y-76900553D01*
X104649999Y-76763418D01*
X104650000Y-76763414D01*
X104650000Y-76650000D01*
X102549000Y-76650000D01*
X102481961Y-76630315D01*
X102436206Y-76577511D01*
X102425000Y-76526000D01*
X102425000Y-76274000D01*
X102444685Y-76206961D01*
X102497489Y-76161206D01*
X102549000Y-76150000D01*
X104650000Y-76150000D01*
X104650000Y-76036585D01*
X104649999Y-76036581D01*
X104634548Y-75899446D01*
X104634547Y-75899440D01*
X104573703Y-75725556D01*
X104475691Y-75569571D01*
X104394154Y-75488034D01*
X104360669Y-75426711D01*
X104365653Y-75357019D01*
X104394150Y-75312676D01*
X104476085Y-75230742D01*
X104574156Y-75074663D01*
X104635037Y-74900674D01*
X104635037Y-74900673D01*
X104635038Y-74900671D01*
X104643487Y-74825673D01*
X104650500Y-74763438D01*
X104650500Y-74036562D01*
X104644925Y-73987090D01*
X104635038Y-73899328D01*
X104620422Y-73857559D01*
X104574156Y-73725337D01*
X104476085Y-73569258D01*
X104345742Y-73438915D01*
X104343507Y-73436680D01*
X104310022Y-73375357D01*
X104315006Y-73305665D01*
X104356878Y-73249732D01*
X104422342Y-73225315D01*
X104431188Y-73224999D01*
X104587471Y-73224999D01*
X104587487Y-73224998D01*
X104690197Y-73214505D01*
X104856619Y-73159358D01*
X104856624Y-73159356D01*
X105005845Y-73067315D01*
X105129818Y-72943342D01*
X105131665Y-72940348D01*
X105133469Y-72938724D01*
X105134298Y-72937677D01*
X105134476Y-72937818D01*
X105183610Y-72893621D01*
X105252573Y-72882396D01*
X105316656Y-72910236D01*
G37*
%TD.AperFunction*%
%TA.AperFunction,Conductor*%
G36*
X100640202Y-76557358D02*
G01*
X100687364Y-76608908D01*
X100700000Y-76663443D01*
X100700000Y-76763418D01*
X100715451Y-76900553D01*
X100715452Y-76900559D01*
X100776296Y-77074443D01*
X100874308Y-77230428D01*
X100955845Y-77311965D01*
X100989330Y-77373288D01*
X100984346Y-77442980D01*
X100955846Y-77487327D01*
X100873914Y-77569259D01*
X100775845Y-77725334D01*
X100714961Y-77899328D01*
X100699500Y-78036557D01*
X100699500Y-78640500D01*
X100679815Y-78707539D01*
X100627011Y-78753294D01*
X100575500Y-78764500D01*
X100336022Y-78764500D01*
X100268983Y-78744815D01*
X100223228Y-78692011D01*
X100213284Y-78622853D01*
X100230485Y-78575401D01*
X100234354Y-78569128D01*
X100234358Y-78569119D01*
X100289505Y-78402697D01*
X100289506Y-78402690D01*
X100299999Y-78299986D01*
X100300000Y-78299973D01*
X100300000Y-78050000D01*
X99074000Y-78050000D01*
X99006961Y-78030315D01*
X98961206Y-77977511D01*
X98950000Y-77926000D01*
X98950000Y-77674000D01*
X98969685Y-77606961D01*
X99022489Y-77561206D01*
X99074000Y-77550000D01*
X100299999Y-77550000D01*
X100299999Y-77300028D01*
X100299998Y-77300013D01*
X100289506Y-77197304D01*
X100271414Y-77142708D01*
X100269012Y-77072880D01*
X100274977Y-77055252D01*
X100461857Y-76614992D01*
X100506172Y-76560973D01*
X100572656Y-76539488D01*
X100640202Y-76557358D01*
G37*
%TD.AperFunction*%
%TA.AperFunction,Conductor*%
G36*
X110093278Y-62152639D02*
G01*
X110150048Y-62193369D01*
X110175786Y-62258326D01*
X110170237Y-62307992D01*
X110126597Y-62442301D01*
X110099500Y-62613389D01*
X110099500Y-63186611D01*
X110099499Y-63186611D01*
X110120908Y-63321781D01*
X110111953Y-63391074D01*
X110066957Y-63444526D01*
X110000205Y-63465165D01*
X109953641Y-63456805D01*
X109902459Y-63436977D01*
X109902458Y-63436976D01*
X109902456Y-63436976D01*
X109701976Y-63399500D01*
X109498024Y-63399500D01*
X109297544Y-63436976D01*
X109297541Y-63436976D01*
X109297541Y-63436977D01*
X109107364Y-63510651D01*
X109107357Y-63510655D01*
X108933960Y-63618017D01*
X108933958Y-63618019D01*
X108783237Y-63755418D01*
X108660327Y-63918178D01*
X108569422Y-64100739D01*
X108569417Y-64100752D01*
X108513602Y-64296917D01*
X108494785Y-64499999D01*
X108494785Y-64500000D01*
X108513602Y-64703082D01*
X108569417Y-64899247D01*
X108569422Y-64899260D01*
X108660327Y-65081821D01*
X108775338Y-65234121D01*
X108783237Y-65244580D01*
X108809038Y-65268101D01*
X108845320Y-65327812D01*
X108849500Y-65359738D01*
X108849500Y-67958699D01*
X108829815Y-68025738D01*
X108777011Y-68071493D01*
X108760095Y-68077775D01*
X108689606Y-68098253D01*
X108689603Y-68098255D01*
X108541420Y-68185890D01*
X108540329Y-68184045D01*
X108485537Y-68205551D01*
X108417021Y-68191862D01*
X108408292Y-68186252D01*
X108408271Y-68186288D01*
X108260196Y-68098717D01*
X108260193Y-68098716D01*
X108102494Y-68052900D01*
X108102497Y-68052900D01*
X108100000Y-68052703D01*
X108100000Y-69526000D01*
X108080315Y-69593039D01*
X108027511Y-69638794D01*
X107976000Y-69650000D01*
X107050000Y-69650000D01*
X107045539Y-69654460D01*
X107030315Y-69706309D01*
X106977511Y-69752064D01*
X106908353Y-69762008D01*
X106844797Y-69732983D01*
X106838319Y-69726951D01*
X106603307Y-69491939D01*
X106580652Y-69455866D01*
X106578812Y-69456753D01*
X106575792Y-69450483D01*
X106525542Y-69370511D01*
X106479816Y-69297738D01*
X106352262Y-69170184D01*
X106320140Y-69150000D01*
X107050000Y-69150000D01*
X107600000Y-69150000D01*
X107600000Y-68052703D01*
X107597503Y-68052900D01*
X107439806Y-68098716D01*
X107439803Y-68098717D01*
X107298447Y-68182314D01*
X107298438Y-68182321D01*
X107182321Y-68298438D01*
X107182314Y-68298447D01*
X107098717Y-68439803D01*
X107098716Y-68439806D01*
X107052900Y-68597504D01*
X107052899Y-68597510D01*
X107050000Y-68634350D01*
X107050000Y-69150000D01*
X106320140Y-69150000D01*
X106199523Y-69074211D01*
X106029254Y-69014631D01*
X106029249Y-69014630D01*
X105850004Y-68994435D01*
X105849996Y-68994435D01*
X105670750Y-69014630D01*
X105670745Y-69014631D01*
X105500476Y-69074211D01*
X105347737Y-69170184D01*
X105220184Y-69297737D01*
X105124211Y-69450476D01*
X105064631Y-69620745D01*
X105064630Y-69620750D01*
X105044435Y-69799996D01*
X105044435Y-69800003D01*
X105064630Y-69979249D01*
X105064631Y-69979254D01*
X105124211Y-70149523D01*
X105175195Y-70230663D01*
X105220184Y-70302262D01*
X105347738Y-70429816D01*
X105483271Y-70514977D01*
X105500483Y-70525792D01*
X105506753Y-70528812D01*
X105505866Y-70530652D01*
X105541939Y-70553307D01*
X105637563Y-70648931D01*
X105671048Y-70710254D01*
X105666064Y-70779946D01*
X105624192Y-70835879D01*
X105614979Y-70842150D01*
X105468847Y-70932285D01*
X105468843Y-70932288D01*
X105344788Y-71056343D01*
X105344783Y-71056349D01*
X105342741Y-71059661D01*
X105340747Y-71061453D01*
X105340307Y-71062011D01*
X105340211Y-71061935D01*
X105290791Y-71106383D01*
X105221828Y-71117602D01*
X105157747Y-71089755D01*
X105131668Y-71059656D01*
X105129819Y-71056659D01*
X105129816Y-71056655D01*
X105005845Y-70932684D01*
X104856624Y-70840643D01*
X104856619Y-70840641D01*
X104690197Y-70785494D01*
X104690190Y-70785493D01*
X104587486Y-70775000D01*
X104450000Y-70775000D01*
X104450000Y-72126000D01*
X104430315Y-72193039D01*
X104377511Y-72238794D01*
X104326000Y-72250000D01*
X103112501Y-72250000D01*
X103112501Y-72524986D01*
X103122994Y-72627697D01*
X103178141Y-72794119D01*
X103178143Y-72794124D01*
X103270184Y-72943345D01*
X103379658Y-73052819D01*
X103413143Y-73114142D01*
X103408159Y-73183834D01*
X103366287Y-73239767D01*
X103300823Y-73264184D01*
X103291977Y-73264500D01*
X102862863Y-73264500D01*
X102795824Y-73244815D01*
X102781661Y-73234213D01*
X102735940Y-73194596D01*
X102735938Y-73194594D01*
X102398621Y-72942082D01*
X102398616Y-72942079D01*
X102168719Y-72794334D01*
X102044137Y-72714270D01*
X102044130Y-72714266D01*
X101674304Y-72512326D01*
X101674297Y-72512322D01*
X101291030Y-72337291D01*
X101264988Y-72327578D01*
X100896214Y-72190032D01*
X100896102Y-72189999D01*
X100491914Y-72071318D01*
X100491904Y-72071315D01*
X100080176Y-71981749D01*
X99929450Y-71960078D01*
X99898646Y-71951483D01*
X98262473Y-71256970D01*
X98208455Y-71212656D01*
X98186969Y-71146171D01*
X98201651Y-71084216D01*
X98328147Y-70848391D01*
X98377181Y-70798621D01*
X98445342Y-70783260D01*
X98485869Y-70792864D01*
X101838007Y-72215760D01*
X101895311Y-72233132D01*
X102038949Y-72239518D01*
X102038950Y-72239517D01*
X102178566Y-72205177D01*
X102302855Y-72132894D01*
X102302859Y-72132891D01*
X102401741Y-72028524D01*
X102430903Y-71976209D01*
X102526923Y-71750000D01*
X103112500Y-71750000D01*
X103950000Y-71750000D01*
X103950000Y-70775000D01*
X103812527Y-70775000D01*
X103812512Y-70775001D01*
X103709802Y-70785494D01*
X103543380Y-70840641D01*
X103543375Y-70840643D01*
X103394154Y-70932684D01*
X103270184Y-71056654D01*
X103178143Y-71205875D01*
X103178141Y-71205880D01*
X103122994Y-71372302D01*
X103122993Y-71372309D01*
X103112500Y-71475013D01*
X103112500Y-71750000D01*
X102526923Y-71750000D01*
X102615651Y-71540968D01*
X100391134Y-70596717D01*
X100391134Y-70596716D01*
X100391133Y-70596716D01*
X100106355Y-70475834D01*
X100052336Y-70431520D01*
X100030851Y-70365036D01*
X100040663Y-70313241D01*
X100104650Y-70162497D01*
X100647830Y-70162497D01*
X102811016Y-71080715D01*
X102995765Y-70645474D01*
X102995769Y-70645465D01*
X103013138Y-70588165D01*
X103013139Y-70588163D01*
X103019525Y-70444524D01*
X102985185Y-70304907D01*
X102912898Y-70180616D01*
X102808530Y-70081733D01*
X102756222Y-70052575D01*
X101009256Y-69311031D01*
X100647830Y-70162497D01*
X100104650Y-70162497D01*
X100549003Y-69115666D01*
X99857808Y-68822270D01*
X99803789Y-68777955D01*
X99782304Y-68711471D01*
X99800174Y-68643925D01*
X99809832Y-68630167D01*
X100270243Y-68060696D01*
X100273934Y-68056343D01*
X100830905Y-67429932D01*
X100834817Y-67425736D01*
X100908797Y-67350001D01*
X104999500Y-67350001D01*
X104999501Y-67350018D01*
X105010000Y-67452796D01*
X105010001Y-67452799D01*
X105057333Y-67595636D01*
X105065186Y-67619334D01*
X105157288Y-67768656D01*
X105281344Y-67892712D01*
X105430666Y-67984814D01*
X105597203Y-68039999D01*
X105699991Y-68050500D01*
X106300008Y-68050499D01*
X106300016Y-68050498D01*
X106300019Y-68050498D01*
X106356302Y-68044748D01*
X106402797Y-68039999D01*
X106569334Y-67984814D01*
X106718656Y-67892712D01*
X106842712Y-67768656D01*
X106934814Y-67619334D01*
X106989999Y-67452797D01*
X107000500Y-67350009D01*
X107000499Y-65049992D01*
X106996350Y-65009380D01*
X106989999Y-64947203D01*
X106989998Y-64947200D01*
X106957745Y-64849868D01*
X106934814Y-64780666D01*
X106842712Y-64631344D01*
X106718656Y-64507288D01*
X106569334Y-64415186D01*
X106402797Y-64360001D01*
X106402795Y-64360000D01*
X106300010Y-64349500D01*
X105699998Y-64349500D01*
X105699980Y-64349501D01*
X105597203Y-64360000D01*
X105597200Y-64360001D01*
X105430668Y-64415185D01*
X105430663Y-64415187D01*
X105281342Y-64507289D01*
X105157289Y-64631342D01*
X105065187Y-64780663D01*
X105065186Y-64780666D01*
X105010001Y-64947203D01*
X105010001Y-64947204D01*
X105010000Y-64947204D01*
X104999500Y-65049983D01*
X104999500Y-67350001D01*
X100908797Y-67350001D01*
X101420491Y-66826168D01*
X101424594Y-66822159D01*
X102037759Y-66250672D01*
X102042029Y-66246876D01*
X102681297Y-65704766D01*
X102685757Y-65701160D01*
X103349721Y-65189619D01*
X103354350Y-65186223D01*
X104041560Y-64706365D01*
X104046330Y-64703197D01*
X104755306Y-64256060D01*
X104760214Y-64253124D01*
X105489327Y-63839734D01*
X105494420Y-63837002D01*
X106242095Y-63458248D01*
X106247306Y-63455760D01*
X107011889Y-63112478D01*
X107017217Y-63110234D01*
X107797104Y-62803146D01*
X107802504Y-62801165D01*
X108595889Y-62530983D01*
X108601392Y-62529251D01*
X109406576Y-62296551D01*
X109412159Y-62295078D01*
X110023501Y-62149066D01*
X110093278Y-62152639D01*
G37*
%TD.AperFunction*%
%TD*%
M02*
