M48
; DRILL file {KiCad 8.0.1} date 2024-05-06T20:27:04+0200
; FORMAT={-:-/ absolute / inch / decimal}
; #@! TF.CreationDate,2024-05-06T20:27:04+02:00
; #@! TF.GenerationSoftware,Kicad,Pcbnew,8.0.1
; #@! TF.FileFunction,Plated,1,2,PTH
FMAT,2
INCH
; #@! TA.AperFunction,Plated,PTH,ViaDrill
T1C0.0118
; #@! TA.AperFunction,Plated,PTH,ComponentDrill
T2C0.0276
; #@! TA.AperFunction,Plated,PTH,ComponentDrill
T3C0.0374
; #@! TA.AperFunction,Plated,PTH,ComponentDrill
T4C0.0394
; #@! TA.AperFunction,Plated,PTH,ViaDrill
T5C0.0787
; #@! TA.AperFunction,Plated,PTH,ViaDrill
T6C0.1181
%
G90
G05
T1
X3.8661Y-2.9764
X3.8701Y-3.2677
X3.9528Y-2.7638
X4.0433Y-3.0
X4.0433Y-3.6575
X4.1142Y-3.2362
X4.1339Y-2.9134
X4.1673Y-2.748
X4.2913Y-3.5354
X4.3071Y-3.1102
X4.3543Y-3.6535
X4.3566Y-3.7814
X4.3878Y-3.1626
X4.5551Y-3.2126
X4.5748Y-2.6142
X4.6063Y-2.9213
X4.6348Y-3.4803
X4.6535Y-2.8583
X4.7244Y-3.0787
X4.7323Y-3.3386
X4.7402Y-2.7953
X4.7402Y-3.2815
X4.7579Y-2.9626
X4.8031Y-2.8031
X4.8189Y-2.748
X4.8819Y-3.2205
X4.8858Y-3.0827
X4.8937Y-3.1339
X4.9061Y-3.1628
X4.9409Y-2.9055
X4.9528Y-3.4331
X4.9685Y-3.0236
X5.0394Y-3.2992
X5.0394Y-3.378
X5.0512Y-2.8661
X5.0512Y-3.2441
X5.0512Y-3.3425
X5.0546Y-3.0901
X5.0551Y-3.1339
X5.0685Y-3.1913
X5.0709Y-3.2697
T2
X4.315Y-2.5394
X4.378Y-2.4764
X4.4646Y-2.689
X4.5276Y-2.626
T3
X4.8046Y-2.5367
X4.9447Y-2.6385
T4
X4.2087Y-3.1102
X4.2087Y-3.2102
X4.2087Y-3.3102
X4.2087Y-3.4102
X4.2087Y-3.5102
X4.2087Y-3.6102
X4.2087Y-3.7102
X4.3754Y-3.5669
X4.4754Y-3.5669
X4.811Y-3.1102
X4.811Y-3.2102
X4.811Y-3.3102
X4.811Y-3.4102
X4.811Y-3.5102
X4.811Y-3.6102
X4.811Y-3.7102
T5
X4.4843Y-3.1457
T6
X4.0472Y-2.7008
X4.9449Y-3.5669
M30
