%TF.GenerationSoftware,KiCad,Pcbnew,8.0.1*%
%TF.CreationDate,2024-05-06T20:27:01+02:00*%
%TF.ProjectId,SenseLoraCAM,53656e73-654c-46f7-9261-43414d2e6b69,rev?*%
%TF.SameCoordinates,Original*%
%TF.FileFunction,Copper,L2,Bot*%
%TF.FilePolarity,Positive*%
%FSLAX46Y46*%
G04 Gerber Fmt 4.6, Leading zero omitted, Abs format (unit mm)*
G04 Created by KiCad (PCBNEW 8.0.1) date 2024-05-06 20:27:01*
%MOMM*%
%LPD*%
G01*
G04 APERTURE LIST*
G04 Aperture macros list*
%AMRoundRect*
0 Rectangle with rounded corners*
0 $1 Rounding radius*
0 $2 $3 $4 $5 $6 $7 $8 $9 X,Y pos of 4 corners*
0 Add a 4 corners polygon primitive as box body*
4,1,4,$2,$3,$4,$5,$6,$7,$8,$9,$2,$3,0*
0 Add four circle primitives for the rounded corners*
1,1,$1+$1,$2,$3*
1,1,$1+$1,$4,$5*
1,1,$1+$1,$6,$7*
1,1,$1+$1,$8,$9*
0 Add four rect primitives between the rounded corners*
20,1,$1+$1,$2,$3,$4,$5,0*
20,1,$1+$1,$4,$5,$6,$7,0*
20,1,$1+$1,$6,$7,$8,$9,0*
20,1,$1+$1,$8,$9,$2,$3,0*%
%AMRotRect*
0 Rectangle, with rotation*
0 The origin of the aperture is its center*
0 $1 length*
0 $2 width*
0 $3 Rotation angle, in degrees counterclockwise*
0 Add horizontal line*
21,1,$1,$2,0,0,$3*%
%AMFreePoly0*
4,1,19,0.500000,-0.750000,0.000000,-0.750000,0.000000,-0.744911,-0.071157,-0.744911,-0.207708,-0.704816,-0.327430,-0.627875,-0.420627,-0.520320,-0.479746,-0.390866,-0.500000,-0.250000,-0.500000,0.250000,-0.479746,0.390866,-0.420627,0.520320,-0.327430,0.627875,-0.207708,0.704816,-0.071157,0.744911,0.000000,0.744911,0.000000,0.750000,0.500000,0.750000,0.500000,-0.750000,0.500000,-0.750000,
$1*%
%AMFreePoly1*
4,1,19,0.000000,0.744911,0.071157,0.744911,0.207708,0.704816,0.327430,0.627875,0.420627,0.520320,0.479746,0.390866,0.500000,0.250000,0.500000,-0.250000,0.479746,-0.390866,0.420627,-0.520320,0.327430,-0.627875,0.207708,-0.704816,0.071157,-0.744911,0.000000,-0.744911,0.000000,-0.750000,-0.500000,-0.750000,-0.500000,0.750000,0.000000,0.750000,0.000000,0.744911,0.000000,0.744911,
$1*%
G04 Aperture macros list end*
%TA.AperFunction,SMDPad,CuDef*%
%ADD10RotRect,1.350000X4.200000X247.000000*%
%TD*%
%TA.AperFunction,ComponentPad*%
%ADD11R,1.700000X1.700000*%
%TD*%
%TA.AperFunction,ComponentPad*%
%ADD12O,1.700000X1.700000*%
%TD*%
%TA.AperFunction,SMDPad,CuDef*%
%ADD13RoundRect,0.250000X-0.337500X-0.475000X0.337500X-0.475000X0.337500X0.475000X-0.337500X0.475000X0*%
%TD*%
%TA.AperFunction,SMDPad,CuDef*%
%ADD14RoundRect,0.250000X0.450000X-0.350000X0.450000X0.350000X-0.450000X0.350000X-0.450000X-0.350000X0*%
%TD*%
%TA.AperFunction,SMDPad,CuDef*%
%ADD15R,1.500000X0.900000*%
%TD*%
%TA.AperFunction,SMDPad,CuDef*%
%ADD16RoundRect,0.250000X0.350000X0.450000X-0.350000X0.450000X-0.350000X-0.450000X0.350000X-0.450000X0*%
%TD*%
%TA.AperFunction,SMDPad,CuDef*%
%ADD17R,2.500000X0.350000*%
%TD*%
%TA.AperFunction,SMDPad,CuDef*%
%ADD18FreePoly0,270.000000*%
%TD*%
%TA.AperFunction,SMDPad,CuDef*%
%ADD19FreePoly1,270.000000*%
%TD*%
%TA.AperFunction,SMDPad,CuDef*%
%ADD20RoundRect,0.200000X0.200000X0.275000X-0.200000X0.275000X-0.200000X-0.275000X0.200000X-0.275000X0*%
%TD*%
%TA.AperFunction,SMDPad,CuDef*%
%ADD21R,2.510000X1.000000*%
%TD*%
%TA.AperFunction,SMDPad,CuDef*%
%ADD22FreePoly0,0.000000*%
%TD*%
%TA.AperFunction,SMDPad,CuDef*%
%ADD23FreePoly1,0.000000*%
%TD*%
%TA.AperFunction,SMDPad,CuDef*%
%ADD24RoundRect,0.225000X0.225000X0.375000X-0.225000X0.375000X-0.225000X-0.375000X0.225000X-0.375000X0*%
%TD*%
%TA.AperFunction,SMDPad,CuDef*%
%ADD25RoundRect,0.250000X0.337500X0.475000X-0.337500X0.475000X-0.337500X-0.475000X0.337500X-0.475000X0*%
%TD*%
%TA.AperFunction,SMDPad,CuDef*%
%ADD26C,1.500000*%
%TD*%
%TA.AperFunction,SMDPad,CuDef*%
%ADD27RoundRect,0.150000X-0.150000X0.587500X-0.150000X-0.587500X0.150000X-0.587500X0.150000X0.587500X0*%
%TD*%
%TA.AperFunction,SMDPad,CuDef*%
%ADD28R,1.500000X1.500000*%
%TD*%
%TA.AperFunction,SMDPad,CuDef*%
%ADD29RoundRect,0.165000X-0.567158X-0.125625X0.055785X-0.578220X0.567158X0.125625X-0.055785X0.578220X0*%
%TD*%
%TA.AperFunction,ComponentPad*%
%ADD30C,0.950000*%
%TD*%
%TA.AperFunction,SMDPad,CuDef*%
%ADD31RoundRect,0.180000X-0.586657X-0.092917X0.092917X-0.586657X0.586657X0.092917X-0.092917X0.586657X0*%
%TD*%
%TA.AperFunction,SMDPad,CuDef*%
%ADD32RoundRect,0.210000X-0.724884X-0.079014X0.148854X-0.713822X0.724884X0.079014X-0.148854X0.713822X0*%
%TD*%
%TA.AperFunction,SMDPad,CuDef*%
%ADD33RoundRect,0.250000X-0.350000X-0.450000X0.350000X-0.450000X0.350000X0.450000X-0.350000X0.450000X0*%
%TD*%
%TA.AperFunction,SMDPad,CuDef*%
%ADD34RoundRect,0.250000X-0.450000X0.350000X-0.450000X-0.350000X0.450000X-0.350000X0.450000X0.350000X0*%
%TD*%
%TA.AperFunction,SMDPad,CuDef*%
%ADD35RoundRect,0.200000X-0.200000X-0.275000X0.200000X-0.275000X0.200000X0.275000X-0.200000X0.275000X0*%
%TD*%
%TA.AperFunction,SMDPad,CuDef*%
%ADD36RoundRect,0.150000X0.725000X0.150000X-0.725000X0.150000X-0.725000X-0.150000X0.725000X-0.150000X0*%
%TD*%
%TA.AperFunction,ViaPad*%
%ADD37C,0.500000*%
%TD*%
%TA.AperFunction,ViaPad*%
%ADD38C,0.600000*%
%TD*%
%TA.AperFunction,ViaPad*%
%ADD39C,3.300000*%
%TD*%
%TA.AperFunction,ViaPad*%
%ADD40C,2.300000*%
%TD*%
%TA.AperFunction,Conductor*%
%ADD41C,0.400000*%
%TD*%
%TA.AperFunction,Conductor*%
%ADD42C,0.300000*%
%TD*%
%TA.AperFunction,Conductor*%
%ADD43C,0.250000*%
%TD*%
%TA.AperFunction,Conductor*%
%ADD44C,0.500000*%
%TD*%
%TA.AperFunction,Conductor*%
%ADD45C,0.200000*%
%TD*%
G04 APERTURE END LIST*
D10*
%TO.P,AE1,2,Shield*%
%TO.N,GND*%
X100320022Y-70294942D03*
X98112392Y-75495794D03*
%TD*%
D11*
%TO.P,J3,1,Pin_1*%
%TO.N,+BATT*%
X122200000Y-94240000D03*
D12*
%TO.P,J3,2,Pin_2*%
%TO.N,GND*%
X122200000Y-91700000D03*
%TO.P,J3,3,Pin_3*%
%TO.N,+3.3VP*%
X122200000Y-89160000D03*
%TO.P,J3,4,Pin_4*%
%TO.N,/GPIO09*%
X122200000Y-86620000D03*
%TO.P,J3,5,Pin_5*%
%TO.N,/GPIO08*%
X122200000Y-84080000D03*
%TO.P,J3,6,Pin_6*%
%TO.N,/GPIO07*%
X122200000Y-81540000D03*
%TO.P,J3,7,Pin_7*%
%TO.N,/GPIO44*%
X122200000Y-79000000D03*
%TD*%
D13*
%TO.P,C3,1*%
%TO.N,Net-(C3-Pad1)*%
X112725000Y-87700000D03*
%TO.P,C3,2*%
%TO.N,GND*%
X114800000Y-87700000D03*
%TD*%
D14*
%TO.P,R21,1*%
%TO.N,+3.3VP*%
X120800000Y-71000000D03*
%TO.P,R21,2*%
%TO.N,Net-(R21-Pad2)*%
X120800000Y-69000000D03*
%TD*%
D15*
%TO.P,D6,1,VDD*%
%TO.N,+BATT*%
X105850000Y-69800000D03*
%TO.P,D6,2,DOUT*%
%TO.N,Net-(D6-DOUT)*%
X105850000Y-66500000D03*
%TO.P,D6,3,VSS*%
%TO.N,GND*%
X110750000Y-66500000D03*
%TO.P,D6,4,DIN*%
%TO.N,Net-(D1-DOUT)*%
X110750000Y-69800000D03*
%TD*%
D16*
%TO.P,R19,1*%
%TO.N,/RES_DIS*%
X118775000Y-87000000D03*
%TO.P,R19,2*%
%TO.N,Net-(C3-Pad1)*%
X116775000Y-87000000D03*
%TD*%
D17*
%TO.P,U5,1,GND*%
%TO.N,GND*%
X126275000Y-78150000D03*
%TO.P,U5,2,LEDK*%
%TO.N,/LEDK*%
X126275000Y-78850000D03*
%TO.P,U5,3,LEDA*%
%TO.N,/LED_DIS*%
X126275000Y-79550000D03*
%TO.P,U5,4,VDD*%
%TO.N,+3.3VP*%
X126275000Y-80250000D03*
%TO.P,U5,5,GND*%
%TO.N,GND*%
X126275000Y-80950000D03*
%TO.P,U5,6,GND*%
X126275000Y-81650000D03*
%TO.P,U5,7,D/C*%
%TO.N,/D{slash}C_DIS*%
X126275000Y-82350000D03*
%TO.P,U5,8,~{CS}*%
%TO.N,/CS_DIS*%
X126275000Y-83050000D03*
%TO.P,U5,9,SCK*%
%TO.N,/GPIO07*%
X126275000Y-83750000D03*
%TO.P,U5,10,SDI*%
%TO.N,/GPIO09*%
X126275000Y-84450000D03*
%TO.P,U5,11,~{RESET}*%
%TO.N,/RES_DIS*%
X126275000Y-85150000D03*
%TO.P,U5,12,GND*%
%TO.N,GND*%
X126275000Y-85850000D03*
%TD*%
D18*
%TO.P,JP1,1,A*%
%TO.N,/LED_WS2812*%
X120850000Y-73950000D03*
D19*
%TO.P,JP1,2,B*%
%TO.N,/GPIO43*%
X120850000Y-75250000D03*
%TD*%
D20*
%TO.P,R16,1*%
%TO.N,Net-(Q1-G)*%
X124425000Y-73000000D03*
%TO.P,R16,2*%
%TO.N,+3.3VP*%
X122775000Y-73000000D03*
%TD*%
D11*
%TO.P,J2,1,Pin_1*%
%TO.N,Net-(J2-Pin_1)*%
X113675000Y-90600000D03*
D12*
%TO.P,J2,2,Pin_2*%
%TO.N,Net-(J2-Pin_2)*%
X111135000Y-90600000D03*
%TD*%
D21*
%TO.P,J5,1,Pin_1*%
%TO.N,+3.3VP*%
X98890000Y-79760000D03*
%TO.P,J5,2,Pin_2*%
%TO.N,GND*%
X102200000Y-82300000D03*
%TO.P,J5,3,Pin_3*%
%TO.N,/GPIO06*%
X98890000Y-84840000D03*
%TO.P,J5,4,Pin_4*%
%TO.N,/GPIO05*%
X102200000Y-87380000D03*
%TD*%
D22*
%TO.P,JP2,1,A*%
%TO.N,/GPIO44*%
X126550000Y-69100000D03*
D23*
%TO.P,JP2,2,B*%
%TO.N,/SW_X*%
X127850000Y-69100000D03*
%TD*%
D24*
%TO.P,D2,1,K*%
%TO.N,Net-(D1-VDD)*%
X111300000Y-75000000D03*
%TO.P,D2,2,A*%
%TO.N,+BATT*%
X108000000Y-75000000D03*
%TD*%
D25*
%TO.P,C6,1*%
%TO.N,+BATT*%
X109675000Y-72400000D03*
%TO.P,C6,2*%
%TO.N,GND*%
X107600000Y-72400000D03*
%TD*%
D26*
%TO.P,DC,1,1*%
%TO.N,/D{slash}C_DIS*%
X117700000Y-84400000D03*
%TD*%
D27*
%TO.P,Q1,1,G*%
%TO.N,Net-(Q1-G)*%
X126300000Y-71375000D03*
%TO.P,Q1,2,S*%
%TO.N,GND*%
X128200000Y-71375000D03*
%TO.P,Q1,3,D*%
%TO.N,/LEDK*%
X127250000Y-73250000D03*
%TD*%
D28*
%TO.P,LED,1,1*%
%TO.N,Net-(D7-DOUT)*%
X114400000Y-63200000D03*
%TD*%
D29*
%TO.P,SW2,1,1*%
%TO.N,Net-(R21-Pad2)*%
X121246640Y-65774433D03*
%TO.P,SW2,2,2*%
%TO.N,/SW_X*%
X124563608Y-68184353D03*
D30*
%TO.P,SW2,SH*%
%TO.N,N/C*%
X122036353Y-64432289D03*
D31*
X122065743Y-64391839D03*
D32*
X122537758Y-67485029D03*
D31*
X125625418Y-66978094D03*
D30*
X125596029Y-67018545D03*
%TD*%
D14*
%TO.P,R2,1*%
%TO.N,+3.3VP*%
X114200000Y-85400000D03*
%TO.P,R2,2*%
%TO.N,/GPIO05*%
X114200000Y-83400000D03*
%TD*%
D15*
%TO.P,D7,1,VDD*%
%TO.N,+BATT*%
X113400000Y-69800000D03*
%TO.P,D7,2,DOUT*%
%TO.N,Net-(D7-DOUT)*%
X113400000Y-66500000D03*
%TO.P,D7,3,VSS*%
%TO.N,GND*%
X118300000Y-66500000D03*
%TO.P,D7,4,DIN*%
%TO.N,Net-(D6-DOUT)*%
X118300000Y-69800000D03*
%TD*%
D33*
%TO.P,R17,1*%
%TO.N,GND*%
X122625000Y-71200000D03*
%TO.P,R17,2*%
%TO.N,Net-(Q1-G)*%
X124625000Y-71200000D03*
%TD*%
D18*
%TO.P,JP7,1,A*%
%TO.N,/GPIO43*%
X119100000Y-81400000D03*
D19*
%TO.P,JP7,2,B*%
%TO.N,/D{slash}C_DIS*%
X119100000Y-82700000D03*
%TD*%
D15*
%TO.P,D1,1,VDD*%
%TO.N,Net-(D1-VDD)*%
X113300000Y-75650000D03*
%TO.P,D1,2,DOUT*%
%TO.N,Net-(D1-DOUT)*%
X113300000Y-72350000D03*
%TO.P,D1,3,VSS*%
%TO.N,GND*%
X118200000Y-72350000D03*
%TO.P,D1,4,DIN*%
%TO.N,/LED_WS2812*%
X118200000Y-75650000D03*
%TD*%
D11*
%TO.P,J4,1,Pin_1*%
%TO.N,/AUDIO_BCLK*%
X106900000Y-94240000D03*
D12*
%TO.P,J4,2,Pin_2*%
%TO.N,/AUDIO_LRC*%
X106900000Y-91700000D03*
%TO.P,J4,3,Pin_3*%
%TO.N,/GPIO03*%
X106900000Y-89160000D03*
%TO.P,J4,4,Pin_4*%
%TO.N,/AUDIO_DIN*%
X106900000Y-86620000D03*
%TO.P,J4,5,Pin_5*%
%TO.N,/GPIO05*%
X106900000Y-84080000D03*
%TO.P,J4,6,Pin_6*%
%TO.N,/GPIO06*%
X106900000Y-81540000D03*
%TO.P,J4,7,Pin_7*%
%TO.N,/GPIO43*%
X106900000Y-79000000D03*
%TD*%
D33*
%TO.P,R3,1*%
%TO.N,+3.3VP*%
X109700000Y-83500000D03*
%TO.P,R3,2*%
%TO.N,/GPIO06*%
X111700000Y-83500000D03*
%TD*%
D34*
%TO.P,R7,1*%
%TO.N,+3.3VP*%
X110700000Y-85400000D03*
%TO.P,R7,2*%
%TO.N,Net-(C3-Pad1)*%
X110700000Y-87400000D03*
%TD*%
D35*
%TO.P,R18,1*%
%TO.N,+3.3VP*%
X118200000Y-79600000D03*
%TO.P,R18,2*%
%TO.N,/LED_DIS*%
X119850000Y-79600000D03*
%TD*%
D36*
%TO.P,U6,1,VDD*%
%TO.N,+3.3VP*%
X116600000Y-77790000D03*
%TO.P,U6,2,MODE*%
X116600000Y-79060000D03*
%TO.P,U6,3,OUT*%
%TO.N,unconnected-(U6-OUT-Pad3)*%
X116600000Y-80330000D03*
%TO.P,U6,4,GND*%
%TO.N,GND*%
X116600000Y-81600000D03*
%TO.P,U6,5,PUSH*%
%TO.N,unconnected-(U6-PUSH-Pad5)*%
X111450000Y-81600000D03*
%TO.P,U6,6,A*%
%TO.N,/GPIO05*%
X111450000Y-80330000D03*
%TO.P,U6,7,B*%
%TO.N,/GPIO06*%
X111450000Y-79060000D03*
%TO.P,U6,8,Z*%
%TO.N,/GPIO03*%
X111450000Y-77790000D03*
%TD*%
D37*
%TO.N,GND*%
X98200000Y-75600000D03*
D38*
X125800000Y-87200000D03*
D37*
X124100000Y-78300000D03*
D38*
X122000000Y-71200000D03*
X124000000Y-81800000D03*
X122400000Y-69800000D03*
X105000000Y-74000000D03*
D39*
X102800000Y-68600000D03*
D37*
X117000000Y-74200000D03*
X102700000Y-92900000D03*
X109000000Y-89800000D03*
D38*
X98300000Y-83000000D03*
X128740380Y-81059620D03*
D39*
X125600000Y-90600000D03*
D38*
X120400000Y-83350000D03*
X125500000Y-73800000D03*
X110600000Y-92800000D03*
X102700000Y-76200000D03*
X128400000Y-79600000D03*
X117725000Y-88400000D03*
X116200000Y-66400000D03*
X126200000Y-76800000D03*
D37*
X100400000Y-70200000D03*
D38*
X118200000Y-72600000D03*
D37*
X128000000Y-85800000D03*
D38*
X115700000Y-81600000D03*
X128300000Y-72800000D03*
%TO.N,+3.3VP*%
X120400000Y-71000000D03*
X104500000Y-82200000D03*
X124615136Y-80335318D03*
%TO.N,+BATT*%
X105850000Y-69800000D03*
%TO.N,/GPIO07*%
X128000000Y-83800000D03*
%TO.N,/GPIO09*%
X120200000Y-84800000D03*
%TO.N,/LEDK*%
X128387500Y-78487500D03*
%TO.N,/AUDIO_DIN*%
X110656786Y-96048000D03*
D40*
%TO.N,/GPIO03*%
X113900000Y-79900000D03*
D38*
%TO.N,/GPIO06*%
X109400000Y-79000000D03*
%TO.N,/GPIO05*%
X111450000Y-80330000D03*
%TO.N,/GPIO43*%
X120850000Y-75250000D03*
X120000000Y-78200000D03*
%TO.N,/D{slash}C_DIS*%
X128300000Y-82400000D03*
%TO.N,/LED_DIS*%
X124300000Y-79600000D03*
%TO.N,/RES_DIS*%
X128300000Y-84900000D03*
%TO.N,/CS_DIS*%
X128800000Y-83050000D03*
%TD*%
D41*
%TO.N,GND*%
X119450000Y-67650000D02*
X118300000Y-66500000D01*
X124125000Y-77675000D02*
X125000000Y-76800000D01*
D42*
X122800000Y-71200000D02*
X122800000Y-70200000D01*
X118300000Y-85800000D02*
X119550000Y-84550000D01*
X124850000Y-80950000D02*
X124000000Y-81800000D01*
X122000000Y-71200000D02*
X122800000Y-71200000D01*
D41*
X113980762Y-68300000D02*
X116330762Y-70650000D01*
D42*
X119550000Y-84530761D02*
X119930761Y-84150000D01*
D41*
X122200000Y-70000000D02*
X122400000Y-69800000D01*
D42*
X128000000Y-85800000D02*
X126325000Y-85800000D01*
D41*
X115500000Y-88400000D02*
X117725000Y-88400000D01*
D42*
X116100000Y-82000000D02*
X116100000Y-84700000D01*
D41*
X126275000Y-76875000D02*
X126200000Y-76800000D01*
D42*
X126275000Y-81650000D02*
X128150000Y-81650000D01*
X102800000Y-67650000D02*
X102800000Y-68600000D01*
D41*
X124250000Y-78150000D02*
X124100000Y-78300000D01*
D42*
X104750000Y-65700000D02*
X102800000Y-67650000D01*
D41*
X126275000Y-78150000D02*
X126275000Y-76875000D01*
X124125000Y-78275000D02*
X124125000Y-77675000D01*
D42*
X119930761Y-84150000D02*
X119950000Y-84150000D01*
X126275000Y-80950000D02*
X124850000Y-80950000D01*
X126325000Y-85800000D02*
X126275000Y-85850000D01*
D41*
X119450000Y-70650000D02*
X119450000Y-70500000D01*
X124100000Y-78300000D02*
X124125000Y-78275000D01*
D42*
X124000000Y-81650000D02*
X124000000Y-81800000D01*
X119950000Y-84150000D02*
X120400000Y-83700000D01*
X126275000Y-81650000D02*
X124000000Y-81650000D01*
D41*
X103150000Y-68250000D02*
X113350000Y-68250000D01*
D42*
X115700000Y-81600000D02*
X116100000Y-82000000D01*
X119550000Y-84550000D02*
X119550000Y-84530761D01*
D41*
X102800000Y-68600000D02*
X103150000Y-68250000D01*
X126275000Y-78150000D02*
X124250000Y-78150000D01*
X113400000Y-68300000D02*
X113980762Y-68300000D01*
D42*
X120400000Y-83700000D02*
X120400000Y-83350000D01*
D41*
X125000000Y-76800000D02*
X126200000Y-76800000D01*
D42*
X115700000Y-81600000D02*
X116600000Y-81600000D01*
X128150000Y-81650000D02*
X128740380Y-81059620D01*
X117200000Y-85800000D02*
X118300000Y-85800000D01*
D41*
X119450000Y-70500000D02*
X119450000Y-67650000D01*
X114800000Y-87700000D02*
X115500000Y-88400000D01*
D42*
X128630760Y-80950000D02*
X128740380Y-81059620D01*
D41*
X119950000Y-70000000D02*
X122200000Y-70000000D01*
D42*
X116100000Y-84700000D02*
X117200000Y-85800000D01*
D41*
X119450000Y-70500000D02*
X119950000Y-70000000D01*
D42*
X110750000Y-66500000D02*
X109950000Y-65700000D01*
D41*
X113350000Y-68250000D02*
X113400000Y-68300000D01*
D42*
X109950000Y-65700000D02*
X104750000Y-65700000D01*
D41*
X116330762Y-70650000D02*
X119450000Y-70650000D01*
D42*
X126275000Y-80950000D02*
X128630760Y-80950000D01*
X122800000Y-70200000D02*
G75*
G03*
X122400000Y-69800000I-400000J0D01*
G01*
D41*
%TO.N,+3.3VP*%
X108400000Y-80900000D02*
X107790000Y-80290000D01*
X105400000Y-80290000D02*
X105400000Y-81300000D01*
D43*
X114950000Y-82150000D02*
X115000000Y-82200000D01*
D41*
X105400000Y-80290000D02*
X98520000Y-80290000D01*
X119420050Y-77790000D02*
X120310050Y-76900000D01*
X122775000Y-73000000D02*
X122500000Y-73000000D01*
D44*
X110400000Y-85400000D02*
X110700000Y-85400000D01*
D41*
X116213026Y-79060000D02*
X116600000Y-79060000D01*
D42*
X130200000Y-82600000D02*
X129200000Y-83600000D01*
X129200000Y-85828428D02*
X126428428Y-88600000D01*
D43*
X115400000Y-79600000D02*
X115940000Y-79060000D01*
D41*
X98520000Y-80290000D02*
X97990000Y-79760000D01*
D42*
X109600000Y-83187500D02*
X109587500Y-83200000D01*
D44*
X109000000Y-86800000D02*
X110400000Y-85400000D01*
D42*
X128850000Y-80250000D02*
X130200000Y-81600000D01*
D41*
X114200000Y-85400000D02*
X114526166Y-85400000D01*
X114526166Y-85400000D02*
X115500000Y-84426166D01*
D44*
X110700000Y-85400000D02*
X110700000Y-84487500D01*
D41*
X115500000Y-82700000D02*
X115000000Y-82200000D01*
D42*
X126428428Y-88600000D02*
X122760000Y-88600000D01*
X129200000Y-83600000D02*
X129200000Y-85828428D01*
D44*
X111400000Y-84700000D02*
X110700000Y-85400000D01*
D42*
X110350000Y-85112500D02*
X111000000Y-85762500D01*
D44*
X122200000Y-89160000D02*
X110160000Y-89160000D01*
D45*
X126189682Y-80335318D02*
X126275000Y-80250000D01*
D44*
X114200000Y-85400000D02*
X113500000Y-84700000D01*
D41*
X115500000Y-84426166D02*
X115500000Y-82700000D01*
X105400000Y-81300000D02*
X104500000Y-82200000D01*
X108400000Y-82200000D02*
X108400000Y-80900000D01*
D43*
X114950000Y-81450000D02*
X114950000Y-82150000D01*
D45*
X124615136Y-80335318D02*
X126189682Y-80335318D01*
D44*
X110160000Y-89160000D02*
X109000000Y-88000000D01*
D41*
X120310050Y-76900000D02*
X121300000Y-76900000D01*
X116600000Y-79060000D02*
X116896325Y-79060000D01*
X107790000Y-80290000D02*
X105400000Y-80290000D01*
X120800000Y-71300000D02*
X120800000Y-71000000D01*
X116600000Y-79060000D02*
X116600000Y-77790000D01*
D42*
X122760000Y-88600000D02*
X122200000Y-89160000D01*
D43*
X115400000Y-81000000D02*
X115400000Y-79600000D01*
D41*
X116600000Y-77790000D02*
X119420050Y-77790000D01*
D43*
X115940000Y-79060000D02*
X116600000Y-79060000D01*
D41*
X109700000Y-83500000D02*
X108400000Y-82200000D01*
D44*
X111334378Y-85762500D02*
X111000000Y-85762500D01*
X109000000Y-88000000D02*
X109000000Y-86800000D01*
D41*
X122500000Y-73000000D02*
X120800000Y-71300000D01*
D43*
X114950000Y-81450000D02*
X115400000Y-81000000D01*
D42*
X120800000Y-71000000D02*
X120400000Y-71000000D01*
D44*
X110700000Y-84487500D02*
X109500000Y-83287500D01*
X113500000Y-84700000D02*
X111400000Y-84700000D01*
D41*
X122775000Y-75425000D02*
X122775000Y-73000000D01*
X121300000Y-76900000D02*
X122775000Y-75425000D01*
D42*
X126275000Y-80250000D02*
X128850000Y-80250000D01*
X130200000Y-81600000D02*
X130200000Y-82600000D01*
D41*
X116896325Y-79060000D02*
G75*
G02*
X118199993Y-79600007I-25J-1843700D01*
G01*
D44*
%TO.N,Net-(C3-Pad1)*%
X116775000Y-87000000D02*
X116375000Y-87400000D01*
X113925000Y-86500000D02*
X116275000Y-86500000D01*
X112725000Y-87700000D02*
X113925000Y-86500000D01*
X111000000Y-87700000D02*
X110700000Y-87400000D01*
X112725000Y-87700000D02*
X111000000Y-87700000D01*
X116275000Y-86500000D02*
X116775000Y-87000000D01*
D41*
%TO.N,Net-(D1-DOUT)*%
X110750000Y-69800000D02*
X113300000Y-72350000D01*
D44*
%TO.N,+BATT*%
X109200000Y-72875000D02*
X109675000Y-72400000D01*
D41*
X117360000Y-94240000D02*
X122200000Y-94240000D01*
X109848000Y-96748000D02*
X114852000Y-96748000D01*
X109100000Y-96000000D02*
X109848000Y-96748000D01*
X97138879Y-79061121D02*
X98800000Y-77400000D01*
X106700000Y-92950000D02*
X104515379Y-92950000D01*
X109100000Y-93940000D02*
X109100000Y-96000000D01*
D44*
X114700000Y-70539339D02*
X114700000Y-73200000D01*
D41*
X104515379Y-92950000D02*
X97240325Y-85674946D01*
D44*
X106900000Y-68900000D02*
X112500000Y-68900000D01*
D42*
X97091500Y-85412244D02*
X99695000Y-88015744D01*
X99695000Y-88230000D02*
X104365000Y-92900000D01*
X99695000Y-88015744D02*
X99695000Y-88230000D01*
D44*
X113960661Y-69800000D02*
X114700000Y-70539339D01*
X109200000Y-73800000D02*
X108000000Y-75000000D01*
D41*
X98800000Y-77400000D02*
X105600000Y-77400000D01*
X114852000Y-96748000D02*
X117360000Y-94240000D01*
D44*
X106000000Y-69800000D02*
X106900000Y-68900000D01*
D41*
X108050000Y-92950000D02*
X106700000Y-92950000D01*
D44*
X114700000Y-73200000D02*
X114100000Y-73800000D01*
D41*
X97240325Y-85674946D02*
X97138879Y-85396225D01*
D44*
X112500000Y-68900000D02*
X113400000Y-69800000D01*
X114100000Y-73800000D02*
X109200000Y-73800000D01*
D41*
X105600000Y-77400000D02*
X108000000Y-75000000D01*
X106700000Y-92950000D02*
X108110000Y-92950000D01*
X97138879Y-85396225D02*
X97138879Y-79061121D01*
D44*
X113400000Y-69800000D02*
X113960661Y-69800000D01*
D41*
X108110000Y-92950000D02*
X109100000Y-93940000D01*
D44*
X109200000Y-73800000D02*
X109200000Y-72875000D01*
%TO.N,/GPIO07*%
X128000000Y-83800000D02*
X126275000Y-83800000D01*
D42*
%TO.N,/GPIO09*%
X120200000Y-84800000D02*
X120200000Y-85800000D01*
X126275000Y-84450000D02*
X124370000Y-84450000D01*
X124370000Y-84450000D02*
X122200000Y-86620000D01*
X120200000Y-85800000D02*
X121020000Y-86620000D01*
X121020000Y-86620000D02*
X122200000Y-86620000D01*
D44*
%TO.N,/LEDK*%
X128800000Y-78075000D02*
X128800000Y-74800000D01*
X128025000Y-78850000D02*
X128387500Y-78487500D01*
X126275000Y-78850000D02*
X128025000Y-78850000D01*
X128800000Y-74800000D02*
X127250000Y-73250000D01*
X128387500Y-78487500D02*
X128800000Y-78075000D01*
%TO.N,Net-(Q1-G)*%
X124450000Y-71200000D02*
X125962500Y-71200000D01*
X125962500Y-71200000D02*
X126137500Y-71375000D01*
X124425000Y-73000000D02*
X124425000Y-71225000D01*
%TO.N,Net-(R21-Pad2)*%
X120600000Y-66421072D02*
X121246639Y-65774433D01*
X120600000Y-69000000D02*
X120600000Y-66421072D01*
D42*
%TO.N,/AUDIO_DIN*%
X110656786Y-94156786D02*
X108400000Y-91900000D01*
X108400000Y-88120000D02*
X106900000Y-86620000D01*
X110656786Y-96048000D02*
X110656786Y-94156786D01*
X108400000Y-91900000D02*
X108400000Y-88120000D01*
D41*
%TO.N,/GPIO03*%
X112190000Y-77790000D02*
X111450000Y-77790000D01*
X111450000Y-77790000D02*
X111836974Y-77790000D01*
X113900000Y-79853026D02*
X113900000Y-79900000D01*
X111836974Y-77790000D02*
X113900000Y-79853026D01*
D45*
%TO.N,/GPIO06*%
X111450000Y-79060000D02*
X109460000Y-79060000D01*
D41*
X109400000Y-79700000D02*
X109400000Y-79000000D01*
X111600000Y-83500000D02*
X109400000Y-81300000D01*
X98890000Y-84840000D02*
X103600000Y-84840000D01*
X110040000Y-79060000D02*
X111450000Y-79060000D01*
X109400000Y-79700000D02*
X110040000Y-79060000D01*
X103600000Y-84840000D02*
X106900000Y-81540000D01*
D45*
X109460000Y-79060000D02*
X109400000Y-79000000D01*
D41*
X109400000Y-81300000D02*
X109400000Y-79700000D01*
D42*
%TO.N,/GPIO05*%
X106900000Y-84080000D02*
X106970000Y-84150000D01*
D41*
X103600000Y-87380000D02*
X106900000Y-84080000D01*
X102200000Y-87380000D02*
X103600000Y-87380000D01*
X112130000Y-80330000D02*
X114200000Y-82400000D01*
X111450000Y-80330000D02*
X112130000Y-80330000D01*
X114200000Y-82400000D02*
X114200000Y-83400000D01*
D42*
%TO.N,/GPIO43*%
X120000000Y-78200000D02*
X119991642Y-78200000D01*
X106900000Y-79000000D02*
X108760000Y-77140000D01*
X108760000Y-77140000D02*
X118960000Y-77140000D01*
X118950000Y-79241642D02*
X118950000Y-79987057D01*
X119100000Y-80137057D02*
X119100000Y-81400000D01*
X118960000Y-77140000D02*
X120850000Y-75250000D01*
X119991642Y-78200000D02*
X118950000Y-79241642D01*
X118950000Y-79987057D02*
X119100000Y-80137057D01*
%TO.N,/GPIO44*%
X123575000Y-77625000D02*
X122200000Y-79000000D01*
X123575000Y-70594544D02*
X123575000Y-77625000D01*
X126800000Y-69000000D02*
X125169544Y-69000000D01*
X125169544Y-69000000D02*
X123575000Y-70594544D01*
D44*
%TO.N,Net-(D6-DOUT)*%
X116400000Y-69800000D02*
X114000000Y-67400000D01*
X114000000Y-67400000D02*
X106750000Y-67400000D01*
X106750000Y-67400000D02*
X105850000Y-66500000D01*
X118300000Y-69800000D02*
X116400000Y-69800000D01*
%TO.N,Net-(D7-DOUT)*%
X113400000Y-66500000D02*
X113400000Y-64200000D01*
X113400000Y-64200000D02*
X114400000Y-63200000D01*
%TO.N,/LED_WS2812*%
X119950000Y-73950000D02*
X120850000Y-73950000D01*
X118200000Y-75700000D02*
X119950000Y-73950000D01*
D45*
%TO.N,/SW_X*%
X128100000Y-68682966D02*
X128100000Y-69000000D01*
X127974134Y-68517942D02*
X128100000Y-68682966D01*
X124563608Y-68184353D02*
X126015647Y-68184353D01*
X127843002Y-68361665D02*
X127974134Y-68517942D01*
X127426337Y-67945000D02*
X127843002Y-68361665D01*
X126255000Y-67945000D02*
X127426337Y-67945000D01*
X126015647Y-68184353D02*
X126255000Y-67945000D01*
D42*
%TO.N,Net-(D1-VDD)*%
X113100000Y-75700000D02*
X113300000Y-75700000D01*
D41*
X112650000Y-75000000D02*
X113300000Y-75650000D01*
X111300000Y-75000000D02*
X112650000Y-75000000D01*
D44*
%TO.N,/D{slash}C_DIS*%
X117700000Y-84100000D02*
X119100000Y-82700000D01*
D42*
X128250000Y-82350000D02*
X128300000Y-82400000D01*
X121662943Y-82700000D02*
X119100000Y-82700000D01*
D44*
X117700000Y-84400000D02*
X117700000Y-84100000D01*
D42*
X121762943Y-82800000D02*
X121662943Y-82700000D01*
X126275000Y-82350000D02*
X125050000Y-82350000D01*
X126275000Y-82350000D02*
X128250000Y-82350000D01*
X124600000Y-82800000D02*
X121762943Y-82800000D01*
X125050000Y-82350000D02*
X124600000Y-82800000D01*
%TO.N,/LED_DIS*%
X124300000Y-79600000D02*
X124250000Y-79550000D01*
X120550000Y-80300000D02*
X119850000Y-79600000D01*
X124300000Y-79600000D02*
X124350000Y-79550000D01*
X124250000Y-79550000D02*
X123347057Y-79550000D01*
X122597057Y-80300000D02*
X120550000Y-80300000D01*
X123347057Y-79550000D02*
X122597057Y-80300000D01*
X124350000Y-79550000D02*
X126275000Y-79550000D01*
%TO.N,/RES_DIS*%
X119595000Y-87820000D02*
X118600000Y-86825000D01*
X126275000Y-85150000D02*
X124725000Y-85150000D01*
X126275000Y-85150000D02*
X128050000Y-85150000D01*
X124725000Y-85150000D02*
X124100000Y-85775000D01*
X122697057Y-87820000D02*
X119595000Y-87820000D01*
X124100000Y-86417057D02*
X122697057Y-87820000D01*
X124100000Y-85775000D02*
X124100000Y-86417057D01*
X128050000Y-85150000D02*
X128300000Y-84900000D01*
D45*
%TO.N,/CS_DIS*%
X126275000Y-83050000D02*
X128800000Y-83050000D01*
%TD*%
%TA.AperFunction,Conductor*%
%TO.N,GND*%
G36*
X109255703Y-89317517D02*
G01*
X109262181Y-89323549D01*
X109681586Y-89742954D01*
X109707056Y-89759971D01*
X109745265Y-89785501D01*
X109804505Y-89825084D01*
X109835277Y-89837830D01*
X109853909Y-89845547D01*
X109908310Y-89889387D01*
X109930376Y-89955681D01*
X109918837Y-90012512D01*
X109861099Y-90136330D01*
X109861094Y-90136344D01*
X109799938Y-90364586D01*
X109799936Y-90364596D01*
X109779341Y-90599999D01*
X109779341Y-90600000D01*
X109799936Y-90835403D01*
X109799938Y-90835413D01*
X109861094Y-91063655D01*
X109861096Y-91063659D01*
X109861097Y-91063663D01*
X109941620Y-91236344D01*
X109960965Y-91277830D01*
X109960967Y-91277834D01*
X110041603Y-91392993D01*
X110096505Y-91471401D01*
X110263599Y-91638495D01*
X110343004Y-91694095D01*
X110457165Y-91774032D01*
X110457167Y-91774033D01*
X110457170Y-91774035D01*
X110671337Y-91873903D01*
X110899592Y-91935063D01*
X111076034Y-91950500D01*
X111134999Y-91955659D01*
X111135000Y-91955659D01*
X111135001Y-91955659D01*
X111193966Y-91950500D01*
X111370408Y-91935063D01*
X111598663Y-91873903D01*
X111812830Y-91774035D01*
X112006401Y-91638495D01*
X112128329Y-91516566D01*
X112189648Y-91483084D01*
X112259340Y-91488068D01*
X112315274Y-91529939D01*
X112332189Y-91560917D01*
X112381202Y-91692328D01*
X112381206Y-91692335D01*
X112467452Y-91807544D01*
X112467455Y-91807547D01*
X112582664Y-91893793D01*
X112582671Y-91893797D01*
X112717517Y-91944091D01*
X112717516Y-91944091D01*
X112724444Y-91944835D01*
X112777127Y-91950500D01*
X114572872Y-91950499D01*
X114632483Y-91944091D01*
X114767331Y-91893796D01*
X114882546Y-91807546D01*
X114968796Y-91692331D01*
X115019091Y-91557483D01*
X115025500Y-91497873D01*
X115025499Y-90034499D01*
X115045184Y-89967461D01*
X115097987Y-89921706D01*
X115149499Y-89910500D01*
X121012299Y-89910500D01*
X121079338Y-89930185D01*
X121113873Y-89963376D01*
X121161505Y-90031401D01*
X121328597Y-90198493D01*
X121328603Y-90198498D01*
X121514594Y-90328730D01*
X121558219Y-90383307D01*
X121565413Y-90452805D01*
X121533890Y-90515160D01*
X121514595Y-90531880D01*
X121328922Y-90661890D01*
X121328920Y-90661891D01*
X121161891Y-90828920D01*
X121161886Y-90828926D01*
X121026400Y-91022420D01*
X121026399Y-91022422D01*
X120926570Y-91236507D01*
X120926567Y-91236513D01*
X120869364Y-91449999D01*
X120869364Y-91450000D01*
X121766988Y-91450000D01*
X121734075Y-91507007D01*
X121700000Y-91634174D01*
X121700000Y-91765826D01*
X121734075Y-91892993D01*
X121766988Y-91950000D01*
X120869364Y-91950000D01*
X120926567Y-92163486D01*
X120926570Y-92163492D01*
X121026399Y-92377578D01*
X121161894Y-92571082D01*
X121283946Y-92693134D01*
X121317431Y-92754457D01*
X121312447Y-92824149D01*
X121270575Y-92880082D01*
X121239598Y-92896997D01*
X121107671Y-92946202D01*
X121107664Y-92946206D01*
X120992455Y-93032452D01*
X120992452Y-93032455D01*
X120906206Y-93147664D01*
X120906202Y-93147671D01*
X120855908Y-93282517D01*
X120849501Y-93342116D01*
X120849501Y-93342123D01*
X120849500Y-93342135D01*
X120849500Y-93415500D01*
X120829815Y-93482539D01*
X120777011Y-93528294D01*
X120725500Y-93539500D01*
X117291004Y-93539500D01*
X117155677Y-93566418D01*
X117155667Y-93566421D01*
X117028192Y-93619222D01*
X116913454Y-93695887D01*
X116913453Y-93695888D01*
X114598162Y-96011181D01*
X114536839Y-96044666D01*
X114510481Y-96047500D01*
X111573108Y-96047500D01*
X111506069Y-96027815D01*
X111460314Y-95975011D01*
X111449888Y-95937383D01*
X111442155Y-95868750D01*
X111442154Y-95868748D01*
X111442154Y-95868745D01*
X111382575Y-95698478D01*
X111327096Y-95610183D01*
X111326292Y-95608903D01*
X111307286Y-95542931D01*
X111307286Y-94092714D01*
X111282288Y-93967047D01*
X111282287Y-93967046D01*
X111282287Y-93967042D01*
X111233251Y-93848659D01*
X111196367Y-93793458D01*
X111196367Y-93793457D01*
X111162063Y-93742117D01*
X111162057Y-93742110D01*
X109086819Y-91666872D01*
X109053334Y-91605549D01*
X109050500Y-91579191D01*
X109050500Y-89411230D01*
X109070185Y-89344191D01*
X109122989Y-89298436D01*
X109192147Y-89288492D01*
X109255703Y-89317517D01*
G37*
%TD.AperFunction*%
%TA.AperFunction,Conductor*%
G36*
X98028764Y-87454042D02*
G01*
X99121345Y-88546623D01*
X99136766Y-88565413D01*
X99189724Y-88644671D01*
X103950325Y-93405272D01*
X103950328Y-93405274D01*
X103950330Y-93405276D01*
X104029585Y-93458232D01*
X104048376Y-93473654D01*
X104068833Y-93494112D01*
X104183571Y-93570777D01*
X104300530Y-93619222D01*
X104311051Y-93623580D01*
X104311055Y-93623580D01*
X104311056Y-93623581D01*
X104446382Y-93650500D01*
X104446385Y-93650500D01*
X104446386Y-93650500D01*
X105425500Y-93650500D01*
X105492539Y-93670185D01*
X105538294Y-93722989D01*
X105549500Y-93774500D01*
X105549500Y-95137870D01*
X105549501Y-95137876D01*
X105555908Y-95197483D01*
X105606202Y-95332328D01*
X105606204Y-95332331D01*
X105633600Y-95368927D01*
X105658018Y-95434391D01*
X105643167Y-95502665D01*
X105593762Y-95552070D01*
X105525489Y-95566923D01*
X105473175Y-95551107D01*
X104901286Y-95226860D01*
X104760246Y-95146893D01*
X104755275Y-95143919D01*
X104046360Y-94696820D01*
X104041524Y-94693609D01*
X103354379Y-94213797D01*
X103349692Y-94210358D01*
X103033876Y-93967042D01*
X102685784Y-93698859D01*
X102681267Y-93695208D01*
X102042053Y-93153143D01*
X102037736Y-93149306D01*
X101424616Y-92577860D01*
X101420463Y-92573803D01*
X100834834Y-91974280D01*
X100830886Y-91970045D01*
X100273952Y-91343677D01*
X100270218Y-91339272D01*
X100187138Y-91236513D01*
X99862845Y-90835403D01*
X99743301Y-90687542D01*
X99739753Y-90682937D01*
X99506173Y-90364592D01*
X99243950Y-90007209D01*
X99240643Y-90002474D01*
X98777045Y-89304228D01*
X98773952Y-89299324D01*
X98767470Y-89288492D01*
X98343601Y-88580133D01*
X98340738Y-88575081D01*
X98325473Y-88546623D01*
X97944590Y-87836547D01*
X97941968Y-87831371D01*
X97939297Y-87825776D01*
X97829182Y-87595148D01*
X97818062Y-87526171D01*
X97845999Y-87462130D01*
X97904125Y-87423359D01*
X97973984Y-87422168D01*
X98028764Y-87454042D01*
G37*
%TD.AperFunction*%
%TA.AperFunction,Conductor*%
G36*
X128949791Y-69703239D02*
G01*
X128986055Y-69738966D01*
X129202950Y-70065641D01*
X129222946Y-70095758D01*
X129226047Y-70100675D01*
X129656394Y-70819860D01*
X129659261Y-70824918D01*
X130055403Y-71563442D01*
X130058031Y-71568628D01*
X130419146Y-72324960D01*
X130421527Y-72330264D01*
X130746780Y-73102660D01*
X130748910Y-73108069D01*
X131037609Y-73894879D01*
X131039483Y-73900383D01*
X131290980Y-74699846D01*
X131292594Y-74705431D01*
X131506341Y-75515796D01*
X131507692Y-75521450D01*
X131683226Y-76340970D01*
X131684310Y-76346682D01*
X131821235Y-77173514D01*
X131822050Y-77179270D01*
X131920071Y-78011622D01*
X131920615Y-78017411D01*
X131979511Y-78853411D01*
X131979784Y-78859218D01*
X131999431Y-79697093D01*
X131999431Y-79702907D01*
X131979784Y-80540781D01*
X131979511Y-80546588D01*
X131920615Y-81382588D01*
X131920071Y-81388377D01*
X131822050Y-82220729D01*
X131821235Y-82226485D01*
X131684310Y-83053317D01*
X131683226Y-83059029D01*
X131507692Y-83878549D01*
X131506341Y-83884203D01*
X131292594Y-84694568D01*
X131290980Y-84700153D01*
X131039483Y-85499616D01*
X131037609Y-85505120D01*
X130748910Y-86291930D01*
X130746780Y-86297339D01*
X130421527Y-87069735D01*
X130419146Y-87075039D01*
X130058031Y-87831371D01*
X130055403Y-87836557D01*
X129659261Y-88575081D01*
X129656394Y-88580139D01*
X129226047Y-89299324D01*
X129222946Y-89304241D01*
X128759367Y-90002458D01*
X128756038Y-90007225D01*
X128260246Y-90682937D01*
X128256698Y-90687542D01*
X127729781Y-91339272D01*
X127726025Y-91343701D01*
X127532889Y-91560917D01*
X127169129Y-91970028D01*
X127165165Y-91974280D01*
X126579536Y-92573803D01*
X126575377Y-92577866D01*
X125962277Y-93149293D01*
X125957932Y-93153156D01*
X125318732Y-93695208D01*
X125314211Y-93698863D01*
X124650307Y-94210358D01*
X124645620Y-94213797D01*
X123958475Y-94693609D01*
X123953632Y-94696825D01*
X123740647Y-94831150D01*
X123673442Y-94850262D01*
X123606573Y-94830007D01*
X123561270Y-94776815D01*
X123550499Y-94726267D01*
X123550499Y-93342129D01*
X123550498Y-93342123D01*
X123550497Y-93342116D01*
X123544091Y-93282517D01*
X123493796Y-93147669D01*
X123493795Y-93147668D01*
X123493793Y-93147664D01*
X123407547Y-93032455D01*
X123407544Y-93032452D01*
X123292335Y-92946206D01*
X123292328Y-92946202D01*
X123160401Y-92896997D01*
X123104467Y-92855126D01*
X123080050Y-92789662D01*
X123094902Y-92721389D01*
X123116053Y-92693133D01*
X123238108Y-92571078D01*
X123373600Y-92377578D01*
X123473429Y-92163492D01*
X123473432Y-92163486D01*
X123530636Y-91950000D01*
X122633012Y-91950000D01*
X122665925Y-91892993D01*
X122700000Y-91765826D01*
X122700000Y-91634174D01*
X122665925Y-91507007D01*
X122633012Y-91450000D01*
X123530636Y-91450000D01*
X123530635Y-91449999D01*
X123473432Y-91236513D01*
X123473429Y-91236507D01*
X123373600Y-91022422D01*
X123373599Y-91022420D01*
X123238113Y-90828926D01*
X123238108Y-90828920D01*
X123071078Y-90661890D01*
X122885405Y-90531879D01*
X122841780Y-90477302D01*
X122834588Y-90407804D01*
X122866110Y-90345449D01*
X122885406Y-90328730D01*
X123049500Y-90213830D01*
X123071401Y-90198495D01*
X123238495Y-90031401D01*
X123374035Y-89837830D01*
X123473903Y-89623663D01*
X123535063Y-89395408D01*
X123537838Y-89363691D01*
X123563291Y-89298623D01*
X123619882Y-89257645D01*
X123661366Y-89250500D01*
X126492499Y-89250500D01*
X126577043Y-89233682D01*
X126618172Y-89225501D01*
X126736555Y-89176465D01*
X126761197Y-89160000D01*
X126761199Y-89159999D01*
X126788497Y-89141759D01*
X126843097Y-89105277D01*
X129705277Y-86243097D01*
X129776465Y-86136555D01*
X129788240Y-86108127D01*
X129825501Y-86018172D01*
X129840619Y-85942171D01*
X129850500Y-85892499D01*
X129850500Y-83920808D01*
X129870185Y-83853769D01*
X129886819Y-83833127D01*
X130705272Y-83014674D01*
X130705277Y-83014669D01*
X130776466Y-82908126D01*
X130825501Y-82789743D01*
X130829629Y-82768994D01*
X130838352Y-82725144D01*
X130850500Y-82664071D01*
X130850500Y-81535928D01*
X130825502Y-81410261D01*
X130825501Y-81410260D01*
X130825501Y-81410256D01*
X130776465Y-81291873D01*
X130776464Y-81291871D01*
X130760212Y-81267547D01*
X130760212Y-81267546D01*
X130705279Y-81185334D01*
X130705273Y-81185326D01*
X129264673Y-79744726D01*
X129206755Y-79706027D01*
X129158127Y-79673535D01*
X129039744Y-79624499D01*
X129039738Y-79624497D01*
X128914071Y-79599500D01*
X128914069Y-79599500D01*
X128636231Y-79599500D01*
X128569192Y-79579815D01*
X128523437Y-79527011D01*
X128513493Y-79457853D01*
X128542518Y-79394297D01*
X128548549Y-79387820D01*
X128667983Y-79268384D01*
X128695560Y-79240806D01*
X128731634Y-79218150D01*
X128730748Y-79216310D01*
X128737010Y-79213292D01*
X128737022Y-79213289D01*
X128889762Y-79117316D01*
X129017316Y-78989762D01*
X129113289Y-78837022D01*
X129113292Y-78837010D01*
X129116310Y-78830748D01*
X129118150Y-78831634D01*
X129140803Y-78795563D01*
X129382951Y-78553416D01*
X129404496Y-78521172D01*
X129465084Y-78430495D01*
X129521658Y-78293913D01*
X129541446Y-78194435D01*
X129550500Y-78148920D01*
X129550500Y-74726079D01*
X129521659Y-74581092D01*
X129521658Y-74581091D01*
X129521658Y-74581087D01*
X129517142Y-74570185D01*
X129465087Y-74444511D01*
X129465085Y-74444507D01*
X129465084Y-74444505D01*
X129423955Y-74382951D01*
X129382952Y-74321584D01*
X128086819Y-73025451D01*
X128053334Y-72964128D01*
X128050500Y-72937770D01*
X128050500Y-72596813D01*
X128050499Y-72596798D01*
X128047937Y-72564245D01*
X128047598Y-72559931D01*
X128024544Y-72480581D01*
X128001745Y-72402106D01*
X128001745Y-72402105D01*
X128001744Y-72402104D01*
X128001744Y-72402102D01*
X127967267Y-72343804D01*
X127950000Y-72280684D01*
X127950000Y-71625000D01*
X128450000Y-71625000D01*
X128450000Y-72609795D01*
X128450001Y-72609795D01*
X128452486Y-72609600D01*
X128610198Y-72563781D01*
X128751552Y-72480185D01*
X128751561Y-72480178D01*
X128867678Y-72364061D01*
X128867685Y-72364052D01*
X128951282Y-72222696D01*
X128951283Y-72222693D01*
X128997099Y-72064995D01*
X128997100Y-72064989D01*
X128999999Y-72028149D01*
X129000000Y-72028134D01*
X129000000Y-71625000D01*
X128450000Y-71625000D01*
X127950000Y-71625000D01*
X127400000Y-71625000D01*
X127400000Y-71888000D01*
X127380315Y-71955039D01*
X127327511Y-72000794D01*
X127276000Y-72012000D01*
X127224500Y-72012000D01*
X127157461Y-71992315D01*
X127111706Y-71939511D01*
X127100500Y-71888000D01*
X127100500Y-70721813D01*
X127100499Y-70721798D01*
X127099694Y-70711571D01*
X127097598Y-70684931D01*
X127075115Y-70607546D01*
X127051745Y-70527106D01*
X127051744Y-70527102D01*
X127051741Y-70527097D01*
X127048647Y-70519946D01*
X127051068Y-70518897D01*
X127037020Y-70463551D01*
X127059172Y-70397286D01*
X127113633Y-70353517D01*
X127125999Y-70349163D01*
X127159258Y-70339396D01*
X127211840Y-70335636D01*
X127221991Y-70337095D01*
X127350000Y-70355500D01*
X127350008Y-70355500D01*
X127352338Y-70355835D01*
X127415894Y-70384859D01*
X127453669Y-70443637D01*
X127453670Y-70513507D01*
X127448866Y-70526788D01*
X127402900Y-70685004D01*
X127402899Y-70685010D01*
X127400000Y-70721850D01*
X127400000Y-71125000D01*
X129000000Y-71125000D01*
X129000000Y-70721865D01*
X128999999Y-70721850D01*
X128997100Y-70685010D01*
X128997099Y-70685004D01*
X128951283Y-70527306D01*
X128951282Y-70527303D01*
X128867685Y-70385947D01*
X128867678Y-70385938D01*
X128751561Y-70269821D01*
X128751552Y-70269814D01*
X128636064Y-70201515D01*
X128588380Y-70150446D01*
X128575877Y-70081704D01*
X128602522Y-70017115D01*
X128605446Y-70013610D01*
X128656986Y-69954130D01*
X128734770Y-69833094D01*
X128769958Y-69756041D01*
X128815712Y-69703240D01*
X128882751Y-69683555D01*
X128949791Y-69703239D01*
G37*
%TD.AperFunction*%
%TA.AperFunction,Conductor*%
G36*
X117818334Y-87920548D02*
G01*
X117862681Y-87949049D01*
X117956344Y-88042712D01*
X118105666Y-88134814D01*
X118205195Y-88167794D01*
X118262639Y-88207567D01*
X118289462Y-88272083D01*
X118277147Y-88340858D01*
X118229604Y-88392058D01*
X118166190Y-88409500D01*
X117383811Y-88409500D01*
X117316772Y-88389815D01*
X117271017Y-88337011D01*
X117261073Y-88267853D01*
X117290098Y-88204297D01*
X117344807Y-88167794D01*
X117444334Y-88134814D01*
X117593656Y-88042712D01*
X117687319Y-87949049D01*
X117748642Y-87915564D01*
X117818334Y-87920548D01*
G37*
%TD.AperFunction*%
%TA.AperFunction,Conductor*%
G36*
X126393039Y-85845184D02*
G01*
X126438794Y-85897988D01*
X126450000Y-85949499D01*
X126450000Y-86525000D01*
X127284118Y-86525000D01*
X127351157Y-86544685D01*
X127396912Y-86597489D01*
X127406856Y-86666647D01*
X127377831Y-86730203D01*
X127371799Y-86736681D01*
X126195301Y-87913181D01*
X126133978Y-87946666D01*
X126107620Y-87949500D01*
X123786865Y-87949500D01*
X123719826Y-87929815D01*
X123674071Y-87877011D01*
X123664127Y-87807853D01*
X123693152Y-87744297D01*
X123699184Y-87737819D01*
X124605273Y-86831730D01*
X124605277Y-86831726D01*
X124676465Y-86725184D01*
X124725501Y-86606801D01*
X124726675Y-86600897D01*
X124759055Y-86538987D01*
X124819768Y-86504409D01*
X124889538Y-86508143D01*
X124891628Y-86508902D01*
X124917619Y-86518596D01*
X124917627Y-86518598D01*
X124977155Y-86524999D01*
X124977172Y-86525000D01*
X126100000Y-86525000D01*
X126100000Y-85949499D01*
X126119685Y-85882460D01*
X126172489Y-85836705D01*
X126223997Y-85825499D01*
X126326001Y-85825499D01*
X126393039Y-85845184D01*
G37*
%TD.AperFunction*%
%TA.AperFunction,Conductor*%
G36*
X120922457Y-83370185D02*
G01*
X120968212Y-83422989D01*
X120978156Y-83492147D01*
X120967800Y-83526905D01*
X120926098Y-83616335D01*
X120926094Y-83616344D01*
X120864938Y-83844586D01*
X120864936Y-83844596D01*
X120847143Y-84047962D01*
X120821690Y-84113031D01*
X120765099Y-84154009D01*
X120695337Y-84157887D01*
X120657643Y-84142148D01*
X120549523Y-84074211D01*
X120379254Y-84014631D01*
X120379249Y-84014630D01*
X120200004Y-83994435D01*
X120199996Y-83994435D01*
X120020750Y-84014630D01*
X120020745Y-84014631D01*
X119850476Y-84074211D01*
X119697737Y-84170184D01*
X119570184Y-84297737D01*
X119474211Y-84450476D01*
X119414631Y-84620745D01*
X119414630Y-84620750D01*
X119394435Y-84799996D01*
X119394435Y-84800003D01*
X119414630Y-84979249D01*
X119414631Y-84979254D01*
X119474211Y-85149524D01*
X119530493Y-85239094D01*
X119549500Y-85305067D01*
X119549500Y-85728314D01*
X119529815Y-85795353D01*
X119477011Y-85841108D01*
X119407853Y-85851052D01*
X119386497Y-85846020D01*
X119277799Y-85810001D01*
X119277795Y-85810000D01*
X119175010Y-85799500D01*
X118374998Y-85799500D01*
X118374980Y-85799501D01*
X118272203Y-85810000D01*
X118272200Y-85810001D01*
X118105668Y-85865185D01*
X118105663Y-85865187D01*
X117956342Y-85957289D01*
X117862681Y-86050951D01*
X117801358Y-86084436D01*
X117731666Y-86079452D01*
X117687319Y-86050951D01*
X117593656Y-85957288D01*
X117593654Y-85957287D01*
X117505311Y-85902797D01*
X117450816Y-85869184D01*
X117404091Y-85817236D01*
X117392868Y-85748274D01*
X117420712Y-85684191D01*
X117478780Y-85645335D01*
X117526717Y-85640117D01*
X117634427Y-85649540D01*
X117699998Y-85655277D01*
X117700000Y-85655277D01*
X117700002Y-85655277D01*
X117728254Y-85652805D01*
X117917977Y-85636207D01*
X118129330Y-85579575D01*
X118327639Y-85487102D01*
X118506877Y-85361598D01*
X118661598Y-85206877D01*
X118787102Y-85027639D01*
X118879575Y-84829330D01*
X118936207Y-84617977D01*
X118954083Y-84413650D01*
X118955277Y-84400002D01*
X118955277Y-84399997D01*
X118943846Y-84269336D01*
X118936207Y-84182023D01*
X118900454Y-84048592D01*
X118902117Y-83978743D01*
X118932544Y-83928822D01*
X119119550Y-83741816D01*
X119180873Y-83708334D01*
X119207230Y-83705500D01*
X119365573Y-83705500D01*
X119365601Y-83705497D01*
X119421940Y-83705497D01*
X119421941Y-83705497D01*
X119555479Y-83686297D01*
X119555481Y-83686297D01*
X119561612Y-83685415D01*
X119564256Y-83685035D01*
X119564257Y-83685035D01*
X119702309Y-83644498D01*
X119833094Y-83584770D01*
X119954130Y-83506986D01*
X120062791Y-83412832D01*
X120062794Y-83412829D01*
X120079718Y-83393297D01*
X120138495Y-83355523D01*
X120173431Y-83350500D01*
X120855418Y-83350500D01*
X120922457Y-83370185D01*
G37*
%TD.AperFunction*%
%TA.AperFunction,Conductor*%
G36*
X116793039Y-81369685D02*
G01*
X116838794Y-81422489D01*
X116850000Y-81474000D01*
X116850000Y-82400000D01*
X117390634Y-82400000D01*
X117390649Y-82399999D01*
X117427489Y-82397100D01*
X117427495Y-82397099D01*
X117585193Y-82351283D01*
X117585196Y-82351282D01*
X117657379Y-82308594D01*
X117725103Y-82291411D01*
X117791365Y-82313571D01*
X117835129Y-82368037D01*
X117844500Y-82415326D01*
X117844500Y-82771895D01*
X117851032Y-82817330D01*
X117841087Y-82886488D01*
X117815975Y-82922655D01*
X117615650Y-83122980D01*
X117554327Y-83156465D01*
X117538778Y-83158827D01*
X117482027Y-83163792D01*
X117482017Y-83163794D01*
X117270677Y-83220422D01*
X117270668Y-83220426D01*
X117072361Y-83312898D01*
X117072357Y-83312900D01*
X116893121Y-83438402D01*
X116738402Y-83593121D01*
X116612900Y-83772357D01*
X116612898Y-83772361D01*
X116520426Y-83970668D01*
X116520422Y-83970677D01*
X116463793Y-84182020D01*
X116463793Y-84182024D01*
X116448028Y-84362221D01*
X116433800Y-84398593D01*
X116443477Y-84413650D01*
X116448028Y-84437778D01*
X116463793Y-84617975D01*
X116463793Y-84617979D01*
X116520422Y-84829322D01*
X116520424Y-84829326D01*
X116520425Y-84829330D01*
X116552073Y-84897200D01*
X116612897Y-85027638D01*
X116612898Y-85027639D01*
X116738402Y-85206877D01*
X116893123Y-85361598D01*
X117072361Y-85487102D01*
X117235966Y-85563392D01*
X117288406Y-85609564D01*
X117307558Y-85676757D01*
X117287342Y-85743639D01*
X117234177Y-85788973D01*
X117178166Y-85799447D01*
X117178166Y-85799500D01*
X117177884Y-85799500D01*
X117177274Y-85799614D01*
X117175029Y-85799500D01*
X117175009Y-85799500D01*
X116569658Y-85799500D01*
X116522209Y-85790062D01*
X116493913Y-85778342D01*
X116493909Y-85778341D01*
X116493906Y-85778340D01*
X116348920Y-85749500D01*
X116348918Y-85749500D01*
X115524499Y-85749500D01*
X115457460Y-85729815D01*
X115411705Y-85677011D01*
X115400499Y-85625500D01*
X115400499Y-85567684D01*
X115420184Y-85500645D01*
X115436813Y-85480008D01*
X116044114Y-84872709D01*
X116120775Y-84757977D01*
X116173580Y-84630495D01*
X116182556Y-84585368D01*
X116200500Y-84495159D01*
X116200500Y-84448585D01*
X116215074Y-84398949D01*
X116202931Y-84375846D01*
X116200500Y-84351414D01*
X116200500Y-82631010D01*
X116200500Y-82631007D01*
X116197409Y-82615470D01*
X116184026Y-82548188D01*
X116190255Y-82478598D01*
X116233118Y-82423421D01*
X116299008Y-82400178D01*
X116305644Y-82400000D01*
X116350000Y-82400000D01*
X116350000Y-81474000D01*
X116369685Y-81406961D01*
X116422489Y-81361206D01*
X116474000Y-81350000D01*
X116726000Y-81350000D01*
X116793039Y-81369685D01*
G37*
%TD.AperFunction*%
%TA.AperFunction,Conductor*%
G36*
X98044582Y-80805685D02*
G01*
X98051047Y-80811704D01*
X98071702Y-80832359D01*
X98073457Y-80834114D01*
X98188192Y-80910777D01*
X98271259Y-80945184D01*
X98315671Y-80963580D01*
X98323484Y-80965134D01*
X98357459Y-80971892D01*
X98451004Y-80990500D01*
X98451007Y-80990500D01*
X104419481Y-80990500D01*
X104486520Y-81010185D01*
X104532275Y-81062989D01*
X104542219Y-81132147D01*
X104513194Y-81195703D01*
X104507181Y-81202160D01*
X104348136Y-81361206D01*
X104300709Y-81408633D01*
X104253984Y-81437992D01*
X104150476Y-81474211D01*
X104150475Y-81474212D01*
X104033152Y-81547931D01*
X103965915Y-81566931D01*
X103899080Y-81546563D01*
X103867914Y-81517249D01*
X103812187Y-81442809D01*
X103697093Y-81356649D01*
X103697086Y-81356645D01*
X103562379Y-81306403D01*
X103562372Y-81306401D01*
X103502844Y-81300000D01*
X102450000Y-81300000D01*
X102450000Y-83300000D01*
X103502828Y-83300000D01*
X103502844Y-83299999D01*
X103562372Y-83293598D01*
X103562379Y-83293596D01*
X103697086Y-83243354D01*
X103697093Y-83243350D01*
X103812187Y-83157190D01*
X103812190Y-83157187D01*
X103898350Y-83042093D01*
X103898355Y-83042084D01*
X103928147Y-82962206D01*
X103970017Y-82906272D01*
X104035481Y-82881854D01*
X104103754Y-82896705D01*
X104110302Y-82900545D01*
X104122383Y-82908136D01*
X104150478Y-82925789D01*
X104240577Y-82957316D01*
X104297352Y-82998036D01*
X104323100Y-83062989D01*
X104309644Y-83131550D01*
X104287303Y-83162038D01*
X103346162Y-84103181D01*
X103284839Y-84136666D01*
X103258481Y-84139500D01*
X100682180Y-84139500D01*
X100615141Y-84119815D01*
X100582913Y-84089811D01*
X100502546Y-83982454D01*
X100452151Y-83944728D01*
X100387335Y-83896206D01*
X100387328Y-83896202D01*
X100252482Y-83845908D01*
X100252483Y-83845908D01*
X100192883Y-83839501D01*
X100192881Y-83839500D01*
X100192873Y-83839500D01*
X100192865Y-83839500D01*
X97963379Y-83839500D01*
X97896340Y-83819815D01*
X97850585Y-83767011D01*
X97839379Y-83715500D01*
X97839379Y-82550000D01*
X100445000Y-82550000D01*
X100445000Y-82847844D01*
X100451401Y-82907372D01*
X100451403Y-82907379D01*
X100501645Y-83042086D01*
X100501649Y-83042093D01*
X100587809Y-83157187D01*
X100587812Y-83157190D01*
X100702906Y-83243350D01*
X100702913Y-83243354D01*
X100837620Y-83293596D01*
X100837627Y-83293598D01*
X100897155Y-83299999D01*
X100897172Y-83300000D01*
X101950000Y-83300000D01*
X101950000Y-82550000D01*
X100445000Y-82550000D01*
X97839379Y-82550000D01*
X97839379Y-82050000D01*
X100445000Y-82050000D01*
X101950000Y-82050000D01*
X101950000Y-81300000D01*
X100897155Y-81300000D01*
X100837627Y-81306401D01*
X100837620Y-81306403D01*
X100702913Y-81356645D01*
X100702906Y-81356649D01*
X100587812Y-81442809D01*
X100587809Y-81442812D01*
X100501649Y-81557906D01*
X100501645Y-81557913D01*
X100451403Y-81692620D01*
X100451401Y-81692627D01*
X100445000Y-81752155D01*
X100445000Y-82050000D01*
X97839379Y-82050000D01*
X97839379Y-80899398D01*
X97859064Y-80832359D01*
X97911868Y-80786604D01*
X97981026Y-80776660D01*
X98044582Y-80805685D01*
G37*
%TD.AperFunction*%
%TA.AperFunction,Conductor*%
G36*
X128596231Y-80920185D02*
G01*
X128616873Y-80936819D01*
X129513181Y-81833127D01*
X129546666Y-81894450D01*
X129549500Y-81920808D01*
X129549500Y-82279192D01*
X129529815Y-82346231D01*
X129513180Y-82366874D01*
X129468300Y-82411753D01*
X129406977Y-82445238D01*
X129337285Y-82440252D01*
X129308216Y-82423795D01*
X129308158Y-82423889D01*
X129306131Y-82422615D01*
X129303304Y-82421015D01*
X129302264Y-82420185D01*
X129259969Y-82393609D01*
X129149522Y-82324211D01*
X129149519Y-82324210D01*
X129143626Y-82320507D01*
X129145283Y-82317869D01*
X129103642Y-82279972D01*
X129086340Y-82229375D01*
X129085368Y-82220745D01*
X129025789Y-82050478D01*
X129025174Y-82049500D01*
X128929815Y-81897737D01*
X128802262Y-81770184D01*
X128649523Y-81674211D01*
X128479254Y-81614631D01*
X128479249Y-81614630D01*
X128300004Y-81594435D01*
X128299996Y-81594435D01*
X128162883Y-81609883D01*
X128094061Y-81597828D01*
X128042682Y-81550479D01*
X128025000Y-81486663D01*
X128025000Y-81427172D01*
X128024999Y-81427155D01*
X128018598Y-81367627D01*
X128018597Y-81367624D01*
X128009538Y-81343335D01*
X128004552Y-81273644D01*
X128009538Y-81256665D01*
X128018597Y-81232375D01*
X128018598Y-81232372D01*
X128024999Y-81172844D01*
X128025000Y-81172827D01*
X128025000Y-81125000D01*
X128012181Y-81112181D01*
X127978696Y-81050858D01*
X127983680Y-80981166D01*
X128025552Y-80925233D01*
X128091016Y-80900816D01*
X128099862Y-80900500D01*
X128529192Y-80900500D01*
X128596231Y-80920185D01*
G37*
%TD.AperFunction*%
%TA.AperFunction,Conductor*%
G36*
X113603659Y-61723951D02*
G01*
X113651839Y-61774552D01*
X113665013Y-61843169D01*
X113638999Y-61908015D01*
X113582056Y-61948503D01*
X113554840Y-61954583D01*
X113542519Y-61955907D01*
X113407671Y-62006202D01*
X113407664Y-62006206D01*
X113292455Y-62092452D01*
X113292452Y-62092455D01*
X113206206Y-62207664D01*
X113206202Y-62207671D01*
X113155908Y-62342517D01*
X113149501Y-62402116D01*
X113149501Y-62402123D01*
X113149500Y-62402135D01*
X113149500Y-63337769D01*
X113129815Y-63404808D01*
X113113181Y-63425450D01*
X112817047Y-63721584D01*
X112777539Y-63780712D01*
X112777540Y-63780713D01*
X112734914Y-63844508D01*
X112678343Y-63981082D01*
X112678340Y-63981092D01*
X112649500Y-64126079D01*
X112649500Y-65433023D01*
X112629815Y-65500062D01*
X112577011Y-65545817D01*
X112549865Y-65553266D01*
X112550068Y-65554124D01*
X112542520Y-65555907D01*
X112407671Y-65606202D01*
X112407664Y-65606206D01*
X112292455Y-65692452D01*
X112292452Y-65692455D01*
X112206206Y-65807664D01*
X112206200Y-65807676D01*
X112190914Y-65848659D01*
X112149043Y-65904593D01*
X112083578Y-65929009D01*
X112015305Y-65914157D01*
X111965900Y-65864751D01*
X111958551Y-65848658D01*
X111943354Y-65807913D01*
X111943350Y-65807906D01*
X111857190Y-65692812D01*
X111857187Y-65692809D01*
X111742093Y-65606649D01*
X111742086Y-65606645D01*
X111607379Y-65556403D01*
X111607372Y-65556401D01*
X111547844Y-65550000D01*
X111000000Y-65550000D01*
X111000000Y-66525500D01*
X110980315Y-66592539D01*
X110927511Y-66638294D01*
X110876000Y-66649500D01*
X107224500Y-66649500D01*
X107157461Y-66629815D01*
X107111706Y-66577011D01*
X107100500Y-66525500D01*
X107100499Y-66250000D01*
X109500000Y-66250000D01*
X110500000Y-66250000D01*
X110500000Y-65550000D01*
X109952155Y-65550000D01*
X109912058Y-65554312D01*
X109892678Y-65550815D01*
X109885020Y-65558205D01*
X109870879Y-65564512D01*
X109757911Y-65606646D01*
X109757906Y-65606649D01*
X109642812Y-65692809D01*
X109642809Y-65692812D01*
X109556649Y-65807906D01*
X109556645Y-65807913D01*
X109506403Y-65942620D01*
X109506401Y-65942627D01*
X109500000Y-66002155D01*
X109500000Y-66250000D01*
X107100499Y-66250000D01*
X107100499Y-66002129D01*
X107100498Y-66002123D01*
X107100497Y-66002116D01*
X107094091Y-65942517D01*
X107088061Y-65926351D01*
X107043797Y-65807671D01*
X107043793Y-65807664D01*
X106957547Y-65692455D01*
X106957544Y-65692452D01*
X106842335Y-65606206D01*
X106842328Y-65606202D01*
X106707482Y-65555908D01*
X106707483Y-65555908D01*
X106647883Y-65549501D01*
X106647881Y-65549500D01*
X106647873Y-65549500D01*
X106647864Y-65549500D01*
X105052129Y-65549500D01*
X105052123Y-65549501D01*
X104992516Y-65555908D01*
X104857671Y-65606202D01*
X104857664Y-65606206D01*
X104742455Y-65692452D01*
X104742452Y-65692455D01*
X104656206Y-65807664D01*
X104656202Y-65807671D01*
X104605908Y-65942517D01*
X104600926Y-65988860D01*
X104599501Y-66002123D01*
X104599500Y-66002135D01*
X104599500Y-66997870D01*
X104599501Y-66997876D01*
X104605908Y-67057483D01*
X104656202Y-67192328D01*
X104656206Y-67192335D01*
X104742452Y-67307544D01*
X104742455Y-67307547D01*
X104857664Y-67393793D01*
X104857671Y-67393797D01*
X104902618Y-67410561D01*
X104992517Y-67444091D01*
X105052127Y-67450500D01*
X105687770Y-67450499D01*
X105754809Y-67470183D01*
X105775451Y-67486818D01*
X106271580Y-67982948D01*
X106271584Y-67982951D01*
X106394498Y-68065080D01*
X106394502Y-68065082D01*
X106394505Y-68065084D01*
X106409930Y-68071473D01*
X106429677Y-68079653D01*
X106484080Y-68123494D01*
X106506145Y-68189788D01*
X106488866Y-68257488D01*
X106451116Y-68297315D01*
X106421586Y-68317046D01*
X106421580Y-68317051D01*
X105925450Y-68813181D01*
X105864127Y-68846666D01*
X105837769Y-68849500D01*
X105052129Y-68849500D01*
X105052123Y-68849501D01*
X104992516Y-68855908D01*
X104857671Y-68906202D01*
X104857664Y-68906206D01*
X104742455Y-68992452D01*
X104742452Y-68992455D01*
X104656206Y-69107664D01*
X104656202Y-69107671D01*
X104605908Y-69242517D01*
X104599501Y-69302116D01*
X104599500Y-69302135D01*
X104599500Y-70297870D01*
X104599501Y-70297876D01*
X104605908Y-70357483D01*
X104656202Y-70492328D01*
X104656206Y-70492335D01*
X104742452Y-70607544D01*
X104742455Y-70607547D01*
X104857664Y-70693793D01*
X104857671Y-70693797D01*
X104992517Y-70744091D01*
X104992516Y-70744091D01*
X104999444Y-70744835D01*
X105052127Y-70750500D01*
X106647872Y-70750499D01*
X106707483Y-70744091D01*
X106842331Y-70693796D01*
X106957546Y-70607546D01*
X107043796Y-70492331D01*
X107094091Y-70357483D01*
X107100500Y-70297873D01*
X107100499Y-69812229D01*
X107120183Y-69745191D01*
X107136819Y-69724548D01*
X107174550Y-69686818D01*
X107235874Y-69653333D01*
X107262230Y-69650500D01*
X109375500Y-69650500D01*
X109442539Y-69670185D01*
X109488294Y-69722989D01*
X109499500Y-69774500D01*
X109499500Y-70297870D01*
X109499501Y-70297876D01*
X109505908Y-70357483D01*
X109556202Y-70492328D01*
X109556206Y-70492335D01*
X109642452Y-70607544D01*
X109642455Y-70607547D01*
X109757664Y-70693793D01*
X109757671Y-70693797D01*
X109802618Y-70710561D01*
X109892517Y-70744091D01*
X109952127Y-70750500D01*
X110658480Y-70750499D01*
X110725519Y-70770183D01*
X110746161Y-70786818D01*
X112013181Y-72053838D01*
X112046666Y-72115161D01*
X112049500Y-72141519D01*
X112049500Y-72847870D01*
X112049501Y-72847876D01*
X112056421Y-72912247D01*
X112044014Y-72981006D01*
X111996403Y-73032143D01*
X111933131Y-73049500D01*
X110887000Y-73049500D01*
X110819961Y-73029815D01*
X110774206Y-72977011D01*
X110763000Y-72925500D01*
X110762999Y-71874998D01*
X110762998Y-71874980D01*
X110752499Y-71772203D01*
X110752498Y-71772200D01*
X110718412Y-71669336D01*
X110697314Y-71605666D01*
X110605212Y-71456344D01*
X110481156Y-71332288D01*
X110331834Y-71240186D01*
X110165297Y-71185001D01*
X110165295Y-71185000D01*
X110062510Y-71174500D01*
X109287498Y-71174500D01*
X109287480Y-71174501D01*
X109184703Y-71185000D01*
X109184700Y-71185001D01*
X109018168Y-71240185D01*
X109018163Y-71240187D01*
X108868842Y-71332289D01*
X108744788Y-71456343D01*
X108744783Y-71456349D01*
X108742741Y-71459661D01*
X108740747Y-71461453D01*
X108740307Y-71462011D01*
X108740211Y-71461935D01*
X108690791Y-71506383D01*
X108621828Y-71517602D01*
X108557747Y-71489755D01*
X108531668Y-71459656D01*
X108529819Y-71456659D01*
X108529816Y-71456655D01*
X108405845Y-71332684D01*
X108256624Y-71240643D01*
X108256619Y-71240641D01*
X108090197Y-71185494D01*
X108090190Y-71185493D01*
X107987486Y-71175000D01*
X107850000Y-71175000D01*
X107850000Y-73624999D01*
X107987472Y-73624999D01*
X107987479Y-73624998D01*
X108003995Y-73623311D01*
X108072688Y-73636079D01*
X108123574Y-73683959D01*
X108140496Y-73751748D01*
X108118082Y-73817925D01*
X108104281Y-73834350D01*
X108075450Y-73863181D01*
X108014127Y-73896666D01*
X107987769Y-73899500D01*
X107726663Y-73899500D01*
X107726644Y-73899501D01*
X107627292Y-73909650D01*
X107627289Y-73909651D01*
X107466305Y-73962996D01*
X107466294Y-73963001D01*
X107321959Y-74052029D01*
X107321955Y-74052032D01*
X107202032Y-74171955D01*
X107202029Y-74171959D01*
X107113001Y-74316294D01*
X107112996Y-74316305D01*
X107059651Y-74477290D01*
X107049500Y-74576647D01*
X107049500Y-74908480D01*
X107029815Y-74975519D01*
X107013181Y-74996161D01*
X105346162Y-76663181D01*
X105284839Y-76696666D01*
X105258481Y-76699500D01*
X100333550Y-76699500D01*
X100285099Y-76689643D01*
X98244835Y-75823602D01*
X97883409Y-76675068D01*
X97883409Y-76675069D01*
X98171100Y-76797186D01*
X98225119Y-76841500D01*
X98246605Y-76907984D01*
X98228736Y-76975530D01*
X98210331Y-76999010D01*
X96594766Y-78614575D01*
X96518101Y-78729313D01*
X96465300Y-78856788D01*
X96465297Y-78856800D01*
X96438853Y-78989743D01*
X96438850Y-78989758D01*
X96438379Y-78992122D01*
X96438379Y-82286419D01*
X96418694Y-82353458D01*
X96365890Y-82399213D01*
X96296732Y-82409157D01*
X96233176Y-82380132D01*
X96195402Y-82321354D01*
X96192045Y-82306679D01*
X96191781Y-82305087D01*
X96178758Y-82226446D01*
X96177953Y-82220761D01*
X96079924Y-81388343D01*
X96079387Y-81382624D01*
X96020487Y-80546584D01*
X96020215Y-80540781D01*
X96000568Y-79702899D01*
X96000568Y-79697093D01*
X96001121Y-79673535D01*
X96020215Y-78859213D01*
X96020488Y-78853411D01*
X96079387Y-78017371D01*
X96079924Y-78011660D01*
X96177954Y-77179232D01*
X96178758Y-77173553D01*
X96315694Y-76346654D01*
X96316767Y-76340997D01*
X96350288Y-76184501D01*
X96383576Y-76123073D01*
X96444792Y-76089393D01*
X96514499Y-76094154D01*
X96519988Y-76096331D01*
X97423156Y-76479703D01*
X97784583Y-75628237D01*
X97897021Y-75363349D01*
X98440200Y-75363349D01*
X100603386Y-76281567D01*
X100788135Y-75846326D01*
X100788139Y-75846317D01*
X100805508Y-75789017D01*
X100805509Y-75789015D01*
X100811895Y-75645376D01*
X100777555Y-75505759D01*
X100705268Y-75381468D01*
X100600900Y-75282585D01*
X100548592Y-75253427D01*
X98801626Y-74511883D01*
X98440200Y-75363349D01*
X97897021Y-75363349D01*
X98341373Y-74316518D01*
X97122962Y-73799333D01*
X97068944Y-73755018D01*
X97047458Y-73688534D01*
X97055001Y-73642481D01*
X97251100Y-73108040D01*
X97253207Y-73102689D01*
X97443833Y-72650000D01*
X106512501Y-72650000D01*
X106512501Y-72924986D01*
X106522994Y-73027697D01*
X106578141Y-73194119D01*
X106578143Y-73194124D01*
X106670184Y-73343345D01*
X106794154Y-73467315D01*
X106943375Y-73559356D01*
X106943380Y-73559358D01*
X107109802Y-73614505D01*
X107109809Y-73614506D01*
X107212519Y-73624999D01*
X107349999Y-73624999D01*
X107350000Y-73624998D01*
X107350000Y-72650000D01*
X106512501Y-72650000D01*
X97443833Y-72650000D01*
X97578487Y-72330230D01*
X97580837Y-72324994D01*
X97941981Y-71568600D01*
X97944581Y-71563470D01*
X97992456Y-71474217D01*
X100091039Y-71474217D01*
X101838007Y-72215760D01*
X101895311Y-72233132D01*
X102038949Y-72239518D01*
X102038950Y-72239517D01*
X102178566Y-72205177D01*
X102273442Y-72150000D01*
X106512500Y-72150000D01*
X107350000Y-72150000D01*
X107350000Y-71175000D01*
X107212527Y-71175000D01*
X107212512Y-71175001D01*
X107109802Y-71185494D01*
X106943380Y-71240641D01*
X106943375Y-71240643D01*
X106794154Y-71332684D01*
X106670184Y-71456654D01*
X106578143Y-71605875D01*
X106578141Y-71605880D01*
X106522994Y-71772302D01*
X106522993Y-71772309D01*
X106512500Y-71875013D01*
X106512500Y-72150000D01*
X102273442Y-72150000D01*
X102302855Y-72132894D01*
X102302859Y-72132891D01*
X102401741Y-72028524D01*
X102430903Y-71976209D01*
X102615651Y-71540968D01*
X100452465Y-70622750D01*
X100091039Y-71474217D01*
X97992456Y-71474217D01*
X98328147Y-70848391D01*
X98377181Y-70798620D01*
X98445341Y-70783259D01*
X98485869Y-70792863D01*
X99630786Y-71278851D01*
X99992213Y-70427385D01*
X100104651Y-70162497D01*
X100647830Y-70162497D01*
X102811016Y-71080715D01*
X102995765Y-70645474D01*
X102995769Y-70645465D01*
X103013138Y-70588165D01*
X103013139Y-70588163D01*
X103019525Y-70444524D01*
X102985185Y-70304907D01*
X102912898Y-70180616D01*
X102808530Y-70081733D01*
X102756222Y-70052575D01*
X101009256Y-69311031D01*
X100647830Y-70162497D01*
X100104651Y-70162497D01*
X100549003Y-69115666D01*
X99857808Y-68822270D01*
X99803789Y-68777955D01*
X99782304Y-68711471D01*
X99800174Y-68643925D01*
X99809832Y-68630167D01*
X99818484Y-68619466D01*
X100270243Y-68060696D01*
X100273934Y-68056343D01*
X100830905Y-67429932D01*
X100834817Y-67425736D01*
X101420491Y-66826168D01*
X101424594Y-66822159D01*
X102037759Y-66250672D01*
X102042029Y-66246876D01*
X102681297Y-65704766D01*
X102685757Y-65701160D01*
X103349721Y-65189619D01*
X103354350Y-65186223D01*
X104041560Y-64706365D01*
X104046330Y-64703197D01*
X104235691Y-64583771D01*
X108749500Y-64583771D01*
X108782182Y-64748074D01*
X108782184Y-64748082D01*
X108846295Y-64902860D01*
X108939373Y-65042162D01*
X109057837Y-65160626D01*
X109150494Y-65222537D01*
X109197137Y-65253703D01*
X109351918Y-65317816D01*
X109516228Y-65350499D01*
X109516232Y-65350500D01*
X109516233Y-65350500D01*
X109683768Y-65350500D01*
X109683768Y-65350499D01*
X109789076Y-65329553D01*
X109803354Y-65326713D01*
X109835103Y-65329553D01*
X109851347Y-65316463D01*
X110002863Y-65253703D01*
X110142162Y-65160626D01*
X110260626Y-65042162D01*
X110353703Y-64902863D01*
X110417816Y-64748082D01*
X110450500Y-64583767D01*
X110450500Y-64416233D01*
X110417816Y-64251918D01*
X110353703Y-64097137D01*
X110322537Y-64050494D01*
X110260626Y-63957837D01*
X110142162Y-63839373D01*
X110002860Y-63746295D01*
X109848082Y-63682184D01*
X109848074Y-63682182D01*
X109683771Y-63649500D01*
X109683767Y-63649500D01*
X109516233Y-63649500D01*
X109516228Y-63649500D01*
X109351925Y-63682182D01*
X109351917Y-63682184D01*
X109197139Y-63746295D01*
X109057837Y-63839373D01*
X108939373Y-63957837D01*
X108846295Y-64097139D01*
X108782184Y-64251917D01*
X108782182Y-64251925D01*
X108749500Y-64416228D01*
X108749500Y-64583771D01*
X104235691Y-64583771D01*
X104755306Y-64256060D01*
X104760214Y-64253124D01*
X105489327Y-63839734D01*
X105494420Y-63837002D01*
X106242095Y-63458248D01*
X106247306Y-63455760D01*
X107011889Y-63112478D01*
X107017217Y-63110234D01*
X107797104Y-62803146D01*
X107802504Y-62801165D01*
X108595889Y-62530983D01*
X108601392Y-62529251D01*
X109406576Y-62296551D01*
X109412159Y-62295078D01*
X110227378Y-62100372D01*
X110233037Y-62099160D01*
X110535065Y-62041839D01*
X110604597Y-62048678D01*
X110659395Y-62092024D01*
X110682060Y-62158116D01*
X110665395Y-62225969D01*
X110645866Y-62251345D01*
X110539373Y-62357838D01*
X110446295Y-62497139D01*
X110382184Y-62651917D01*
X110382182Y-62651925D01*
X110349500Y-62816228D01*
X110349500Y-62983771D01*
X110382182Y-63148074D01*
X110382184Y-63148082D01*
X110446295Y-63302860D01*
X110539373Y-63442162D01*
X110657837Y-63560626D01*
X110750494Y-63622537D01*
X110797137Y-63653703D01*
X110951918Y-63717816D01*
X111095093Y-63746295D01*
X111116228Y-63750499D01*
X111116232Y-63750500D01*
X111116233Y-63750500D01*
X111283768Y-63750500D01*
X111283769Y-63750499D01*
X111448082Y-63717816D01*
X111602863Y-63653703D01*
X111742162Y-63560626D01*
X111860626Y-63442162D01*
X111953703Y-63302863D01*
X112017816Y-63148082D01*
X112050500Y-62983767D01*
X112050500Y-62816233D01*
X112017816Y-62651918D01*
X111953703Y-62497137D01*
X111918789Y-62444884D01*
X111860626Y-62357837D01*
X111742162Y-62239373D01*
X111602860Y-62146295D01*
X111516786Y-62110642D01*
X111462382Y-62066800D01*
X111440318Y-62000506D01*
X111457598Y-61932807D01*
X111508735Y-61885197D01*
X111546848Y-61873307D01*
X111892017Y-61824429D01*
X111897727Y-61823757D01*
X112732162Y-61745274D01*
X112737955Y-61744866D01*
X113535773Y-61707430D01*
X113603659Y-61723951D01*
G37*
%TD.AperFunction*%
%TA.AperFunction,Conductor*%
G36*
X123753044Y-80220185D02*
G01*
X123798799Y-80272989D01*
X123807629Y-80328355D01*
X123809571Y-80328355D01*
X123809571Y-80335321D01*
X123829766Y-80514567D01*
X123829767Y-80514572D01*
X123889347Y-80684841D01*
X123959136Y-80795909D01*
X123985320Y-80837580D01*
X124112874Y-80965134D01*
X124265614Y-81061107D01*
X124378307Y-81100540D01*
X124442454Y-81122986D01*
X124441989Y-81124313D01*
X124496226Y-81154646D01*
X124529088Y-81216305D01*
X124530950Y-81228172D01*
X124531402Y-81232375D01*
X124531403Y-81232379D01*
X124540462Y-81256669D01*
X124545445Y-81326361D01*
X124540462Y-81343331D01*
X124531403Y-81367620D01*
X124531401Y-81367627D01*
X124525000Y-81427155D01*
X124525000Y-81475000D01*
X124782292Y-81475000D01*
X124849331Y-81494685D01*
X124895086Y-81547489D01*
X124905030Y-81616647D01*
X124876005Y-81680203D01*
X124825625Y-81715182D01*
X124782671Y-81731202D01*
X124782669Y-81731203D01*
X124690413Y-81800267D01*
X124624949Y-81824684D01*
X124616102Y-81825000D01*
X124525000Y-81825000D01*
X124525000Y-81872833D01*
X124526640Y-81888087D01*
X124514233Y-81956846D01*
X124491032Y-81989021D01*
X124459309Y-82020745D01*
X124366871Y-82113182D01*
X124305551Y-82146666D01*
X124279192Y-82149500D01*
X123596426Y-82149500D01*
X123529387Y-82129815D01*
X123483632Y-82077011D01*
X123473688Y-82007853D01*
X123476651Y-81993407D01*
X123482403Y-81971940D01*
X123535063Y-81775408D01*
X123555659Y-81540000D01*
X123535063Y-81304592D01*
X123473903Y-81076337D01*
X123374035Y-80862171D01*
X123356913Y-80837718D01*
X123261071Y-80700840D01*
X123238744Y-80634634D01*
X123255754Y-80566867D01*
X123274961Y-80542040D01*
X123580183Y-80236819D01*
X123641506Y-80203334D01*
X123667864Y-80200500D01*
X123686005Y-80200500D01*
X123753044Y-80220185D01*
G37*
%TD.AperFunction*%
%TA.AperFunction,Conductor*%
G36*
X126417178Y-80945184D02*
G01*
X126462933Y-80997988D01*
X126472877Y-81067146D01*
X126450000Y-81117239D01*
X126450000Y-81550500D01*
X126430315Y-81617539D01*
X126377511Y-81663294D01*
X126326000Y-81674500D01*
X126199861Y-81674500D01*
X126132822Y-81654815D01*
X126087067Y-81602011D01*
X126077123Y-81532853D01*
X126100000Y-81482759D01*
X126100000Y-81059819D01*
X126119685Y-80992780D01*
X126172489Y-80947025D01*
X126224000Y-80935819D01*
X126268739Y-80935819D01*
X126288724Y-80930463D01*
X126291481Y-80929725D01*
X126323577Y-80925499D01*
X126350139Y-80925499D01*
X126417178Y-80945184D01*
G37*
%TD.AperFunction*%
%TA.AperFunction,Conductor*%
G36*
X125555419Y-72258945D02*
G01*
X125593191Y-72298880D01*
X125631916Y-72364361D01*
X125631923Y-72364370D01*
X125748129Y-72480576D01*
X125748133Y-72480579D01*
X125748135Y-72480581D01*
X125889602Y-72564244D01*
X125931224Y-72576336D01*
X126047426Y-72610097D01*
X126047429Y-72610097D01*
X126047431Y-72610098D01*
X126084306Y-72613000D01*
X126325500Y-72613000D01*
X126392539Y-72632685D01*
X126438294Y-72685489D01*
X126449500Y-72737000D01*
X126449500Y-73903201D01*
X126452401Y-73940067D01*
X126452402Y-73940073D01*
X126498254Y-74097893D01*
X126498255Y-74097896D01*
X126498256Y-74097898D01*
X126535681Y-74161181D01*
X126581917Y-74239362D01*
X126581923Y-74239370D01*
X126698129Y-74355576D01*
X126698133Y-74355579D01*
X126698135Y-74355581D01*
X126839602Y-74439244D01*
X126857731Y-74444511D01*
X126997426Y-74485097D01*
X126997429Y-74485097D01*
X126997431Y-74485098D01*
X127034306Y-74488000D01*
X127375270Y-74488000D01*
X127442309Y-74507685D01*
X127462951Y-74524319D01*
X128013181Y-75074549D01*
X128046666Y-75135872D01*
X128049500Y-75162230D01*
X128049500Y-77495337D01*
X128029815Y-77562376D01*
X127977011Y-77608131D01*
X127907853Y-77618075D01*
X127851189Y-77594604D01*
X127767089Y-77531647D01*
X127767086Y-77531645D01*
X127632379Y-77481403D01*
X127632372Y-77481401D01*
X127572844Y-77475000D01*
X126450000Y-77475000D01*
X126450000Y-77975500D01*
X126430315Y-78042539D01*
X126377511Y-78088294D01*
X126326000Y-78099500D01*
X126224000Y-78099500D01*
X126156961Y-78079815D01*
X126111206Y-78027011D01*
X126100000Y-77975500D01*
X126100000Y-77475000D01*
X124977155Y-77475000D01*
X124917627Y-77481401D01*
X124917620Y-77481403D01*
X124782913Y-77531645D01*
X124782906Y-77531649D01*
X124667812Y-77617809D01*
X124667809Y-77617812D01*
X124581649Y-77732906D01*
X124581645Y-77732913D01*
X124531403Y-77867620D01*
X124531401Y-77867627D01*
X124525000Y-77927155D01*
X124525000Y-77975000D01*
X124782292Y-77975000D01*
X124849331Y-77994685D01*
X124895086Y-78047489D01*
X124905030Y-78116647D01*
X124876005Y-78180203D01*
X124825625Y-78215182D01*
X124782671Y-78231202D01*
X124782668Y-78231204D01*
X124737820Y-78264778D01*
X124690413Y-78300266D01*
X124624950Y-78324684D01*
X124616103Y-78325000D01*
X124525000Y-78325000D01*
X124525000Y-78372844D01*
X124531401Y-78432372D01*
X124531403Y-78432379D01*
X124540195Y-78455952D01*
X124545179Y-78525644D01*
X124540196Y-78542615D01*
X124530909Y-78567516D01*
X124530908Y-78567517D01*
X124524501Y-78627116D01*
X124524500Y-78627135D01*
X124524500Y-78680973D01*
X124504815Y-78748012D01*
X124452011Y-78793767D01*
X124386618Y-78804193D01*
X124300005Y-78794435D01*
X124299996Y-78794435D01*
X124120750Y-78814630D01*
X124120745Y-78814631D01*
X123950474Y-78874212D01*
X123940477Y-78880494D01*
X123874506Y-78899500D01*
X123660491Y-78899500D01*
X123593452Y-78879815D01*
X123547697Y-78827011D01*
X123536963Y-78786309D01*
X123535063Y-78764595D01*
X123535063Y-78764592D01*
X123515614Y-78692007D01*
X123517277Y-78622162D01*
X123547706Y-78572238D01*
X124080277Y-78039669D01*
X124151466Y-77933126D01*
X124200501Y-77814743D01*
X124204760Y-77793334D01*
X124205325Y-77790497D01*
X124225500Y-77689071D01*
X124225500Y-74099500D01*
X124245185Y-74032461D01*
X124297989Y-73986706D01*
X124349500Y-73975500D01*
X124681613Y-73975500D01*
X124681616Y-73975500D01*
X124752196Y-73969086D01*
X124914606Y-73918478D01*
X125060185Y-73830472D01*
X125180472Y-73710185D01*
X125268478Y-73564606D01*
X125319086Y-73402196D01*
X125325500Y-73331616D01*
X125325500Y-72668384D01*
X125319086Y-72597804D01*
X125274992Y-72456301D01*
X125273842Y-72386443D01*
X125310643Y-72327050D01*
X125328275Y-72313878D01*
X125421364Y-72256461D01*
X125488755Y-72238022D01*
X125555419Y-72258945D01*
G37*
%TD.AperFunction*%
%TA.AperFunction,Conductor*%
G36*
X115527493Y-69989558D02*
G01*
X115535657Y-69997025D01*
X115921580Y-70382948D01*
X115921583Y-70382950D01*
X115921585Y-70382952D01*
X115954283Y-70404800D01*
X116044505Y-70465084D01*
X116076511Y-70478341D01*
X116076512Y-70478342D01*
X116076513Y-70478342D01*
X116181088Y-70521659D01*
X116297241Y-70544763D01*
X116316468Y-70548587D01*
X116326081Y-70550500D01*
X116326082Y-70550500D01*
X116326083Y-70550500D01*
X116473918Y-70550500D01*
X117087680Y-70550500D01*
X117154719Y-70570185D01*
X117186948Y-70600191D01*
X117192454Y-70607546D01*
X117192457Y-70607548D01*
X117307664Y-70693793D01*
X117307671Y-70693797D01*
X117442517Y-70744091D01*
X117442516Y-70744091D01*
X117449444Y-70744835D01*
X117502127Y-70750500D01*
X119097872Y-70750499D01*
X119157483Y-70744091D01*
X119292331Y-70693796D01*
X119401189Y-70612305D01*
X119466653Y-70587887D01*
X119534926Y-70602738D01*
X119584332Y-70652143D01*
X119599500Y-70711571D01*
X119599500Y-70948082D01*
X119598720Y-70961965D01*
X119594435Y-70999997D01*
X119594435Y-71000002D01*
X119598720Y-71038034D01*
X119599500Y-71051917D01*
X119599501Y-71400000D01*
X119599501Y-71400019D01*
X119610000Y-71502796D01*
X119610001Y-71502799D01*
X119644159Y-71605880D01*
X119665186Y-71669334D01*
X119757288Y-71818656D01*
X119881344Y-71942712D01*
X120030666Y-72034814D01*
X120197203Y-72089999D01*
X120299991Y-72100500D01*
X120558480Y-72100499D01*
X120625519Y-72120183D01*
X120646161Y-72136818D01*
X121242165Y-72732822D01*
X121275650Y-72794145D01*
X121270666Y-72863837D01*
X121228794Y-72919770D01*
X121163330Y-72944187D01*
X121154484Y-72944503D01*
X121115601Y-72944503D01*
X121115591Y-72944500D01*
X121064236Y-72944500D01*
X120635764Y-72944500D01*
X120584427Y-72944500D01*
X120584399Y-72944503D01*
X120528059Y-72944503D01*
X120394521Y-72963703D01*
X120394519Y-72963703D01*
X120385744Y-72964964D01*
X120247686Y-73005503D01*
X120116918Y-73065223D01*
X120116908Y-73065228D01*
X120116906Y-73065230D01*
X120073653Y-73093026D01*
X119995869Y-73143014D01*
X119979513Y-73157187D01*
X119965633Y-73169213D01*
X119902079Y-73198238D01*
X119884432Y-73199500D01*
X119876082Y-73199500D01*
X119851811Y-73204328D01*
X119851810Y-73204328D01*
X119731095Y-73228339D01*
X119731092Y-73228340D01*
X119731088Y-73228341D01*
X119651080Y-73261481D01*
X119651078Y-73261481D01*
X119594504Y-73284916D01*
X119594503Y-73284916D01*
X119571181Y-73300500D01*
X119471585Y-73367046D01*
X119471578Y-73367052D01*
X118175449Y-74663181D01*
X118114126Y-74696666D01*
X118087768Y-74699500D01*
X117402129Y-74699500D01*
X117402123Y-74699501D01*
X117342516Y-74705908D01*
X117207671Y-74756202D01*
X117207664Y-74756206D01*
X117092455Y-74842452D01*
X117092452Y-74842455D01*
X117006206Y-74957664D01*
X117006202Y-74957671D01*
X116955908Y-75092517D01*
X116949501Y-75152116D01*
X116949501Y-75152123D01*
X116949500Y-75152135D01*
X116949500Y-76147870D01*
X116949501Y-76147876D01*
X116955908Y-76207483D01*
X116998683Y-76322167D01*
X117003667Y-76391859D01*
X116970182Y-76453182D01*
X116908858Y-76486666D01*
X116882501Y-76489500D01*
X114617499Y-76489500D01*
X114550460Y-76469815D01*
X114504705Y-76417011D01*
X114494761Y-76347853D01*
X114501317Y-76322167D01*
X114544091Y-76207482D01*
X114550500Y-76147873D01*
X114550499Y-75152128D01*
X114544091Y-75092517D01*
X114537389Y-75074549D01*
X114493797Y-74957671D01*
X114493793Y-74957664D01*
X114407547Y-74842455D01*
X114407544Y-74842452D01*
X114292335Y-74756206D01*
X114284546Y-74751953D01*
X114286200Y-74748922D01*
X114243333Y-74715592D01*
X114220116Y-74649693D01*
X114236213Y-74581703D01*
X114286512Y-74533208D01*
X114313195Y-74523804D01*
X114313081Y-74523427D01*
X114318905Y-74521659D01*
X114318913Y-74521658D01*
X114455495Y-74465084D01*
X114524513Y-74418968D01*
X114578416Y-74382952D01*
X114578416Y-74382951D01*
X114578420Y-74382949D01*
X114578421Y-74382947D01*
X115282946Y-73678421D01*
X115282949Y-73678418D01*
X115282948Y-73678418D01*
X115282951Y-73678416D01*
X115321465Y-73620775D01*
X115365084Y-73555495D01*
X115421658Y-73418913D01*
X115439023Y-73331616D01*
X115450500Y-73273920D01*
X115450500Y-72600000D01*
X116950000Y-72600000D01*
X116950000Y-72847844D01*
X116956401Y-72907372D01*
X116956403Y-72907379D01*
X117006645Y-73042086D01*
X117006649Y-73042093D01*
X117092809Y-73157187D01*
X117092812Y-73157190D01*
X117207906Y-73243350D01*
X117207913Y-73243354D01*
X117342620Y-73293596D01*
X117342627Y-73293598D01*
X117402155Y-73299999D01*
X117402172Y-73300000D01*
X117950000Y-73300000D01*
X117950000Y-72600000D01*
X118450000Y-72600000D01*
X118450000Y-73300000D01*
X118997828Y-73300000D01*
X118997844Y-73299999D01*
X119057372Y-73293598D01*
X119057379Y-73293596D01*
X119192086Y-73243354D01*
X119192093Y-73243350D01*
X119307187Y-73157190D01*
X119307190Y-73157187D01*
X119393350Y-73042093D01*
X119393354Y-73042086D01*
X119443596Y-72907379D01*
X119443598Y-72907372D01*
X119449999Y-72847844D01*
X119450000Y-72847827D01*
X119450000Y-72600000D01*
X118450000Y-72600000D01*
X117950000Y-72600000D01*
X116950000Y-72600000D01*
X115450500Y-72600000D01*
X115450500Y-72100000D01*
X116950000Y-72100000D01*
X117950000Y-72100000D01*
X117950000Y-71400000D01*
X118450000Y-71400000D01*
X118450000Y-72100000D01*
X119450000Y-72100000D01*
X119450000Y-71852172D01*
X119449999Y-71852155D01*
X119443598Y-71792627D01*
X119443596Y-71792620D01*
X119393354Y-71657913D01*
X119393350Y-71657906D01*
X119307190Y-71542812D01*
X119307187Y-71542809D01*
X119192093Y-71456649D01*
X119192086Y-71456645D01*
X119057379Y-71406403D01*
X119057372Y-71406401D01*
X118997844Y-71400000D01*
X118450000Y-71400000D01*
X117950000Y-71400000D01*
X117402155Y-71400000D01*
X117342627Y-71406401D01*
X117342620Y-71406403D01*
X117207913Y-71456645D01*
X117207906Y-71456649D01*
X117092812Y-71542809D01*
X117092809Y-71542812D01*
X117006649Y-71657906D01*
X117006645Y-71657913D01*
X116956403Y-71792620D01*
X116956401Y-71792627D01*
X116950000Y-71852155D01*
X116950000Y-72100000D01*
X115450500Y-72100000D01*
X115450500Y-70465418D01*
X115421659Y-70320431D01*
X115421658Y-70320430D01*
X115421658Y-70320426D01*
X115421656Y-70320421D01*
X115365087Y-70183850D01*
X115365085Y-70183846D01*
X115365084Y-70183844D01*
X115352855Y-70165542D01*
X115344874Y-70153597D01*
X115323996Y-70086920D01*
X115342480Y-70019540D01*
X115394459Y-69972849D01*
X115463429Y-69961673D01*
X115527493Y-69989558D01*
G37*
%TD.AperFunction*%
%TA.AperFunction,Conductor*%
G36*
X123414965Y-68646052D02*
G01*
X123428002Y-68660909D01*
X123511098Y-68772421D01*
X123561762Y-68816762D01*
X123615642Y-68855908D01*
X123948823Y-69097978D01*
X123991489Y-69153308D01*
X123997468Y-69222921D01*
X123964862Y-69284716D01*
X123963619Y-69285977D01*
X123265457Y-69984139D01*
X123204134Y-70017624D01*
X123138772Y-70014164D01*
X123127697Y-70010494D01*
X123024986Y-70000000D01*
X122875000Y-70000000D01*
X122875000Y-71326000D01*
X122855315Y-71393039D01*
X122802511Y-71438794D01*
X122751000Y-71450000D01*
X122499000Y-71450000D01*
X122431961Y-71430315D01*
X122386206Y-71377511D01*
X122375000Y-71326000D01*
X122375000Y-70000000D01*
X122225027Y-70000000D01*
X122225012Y-70000001D01*
X122122302Y-70010494D01*
X121955880Y-70065641D01*
X121955873Y-70065645D01*
X121918938Y-70088426D01*
X121851545Y-70106865D01*
X121784882Y-70085941D01*
X121740113Y-70032298D01*
X121731453Y-69962968D01*
X121761651Y-69899961D01*
X121766125Y-69895242D01*
X121842712Y-69818656D01*
X121934814Y-69669334D01*
X121989999Y-69502797D01*
X122000500Y-69400009D01*
X122000499Y-68821948D01*
X122020183Y-68754910D01*
X122072987Y-68709155D01*
X122142146Y-68699211D01*
X122197382Y-68721630D01*
X122315444Y-68807407D01*
X122315453Y-68807412D01*
X122315460Y-68807417D01*
X122348300Y-68826999D01*
X122377188Y-68844226D01*
X122540627Y-68899523D01*
X122712551Y-68914099D01*
X122712557Y-68914098D01*
X122712558Y-68914098D01*
X122737510Y-68910145D01*
X122882967Y-68887108D01*
X123041972Y-68820118D01*
X123180324Y-68717022D01*
X123227669Y-68662926D01*
X123228235Y-68662146D01*
X123228381Y-68662033D01*
X123229418Y-68660735D01*
X123229517Y-68660814D01*
X123229521Y-68660811D01*
X123229601Y-68660881D01*
X123229735Y-68660988D01*
X123283549Y-68619466D01*
X123353160Y-68613465D01*
X123414965Y-68646052D01*
G37*
%TD.AperFunction*%
%TA.AperFunction,Conductor*%
G36*
X115431431Y-61760661D02*
G01*
X116102267Y-61823757D01*
X116107987Y-61824430D01*
X116937837Y-61941941D01*
X116943572Y-61942891D01*
X117766953Y-62099159D01*
X117772630Y-62100374D01*
X118587830Y-62295076D01*
X118593433Y-62296554D01*
X119398595Y-62529248D01*
X119404122Y-62530987D01*
X120197481Y-62801160D01*
X120202909Y-62803151D01*
X120981530Y-63109740D01*
X120982767Y-63110228D01*
X120988125Y-63112485D01*
X121336608Y-63268947D01*
X121389704Y-63314363D01*
X121409816Y-63381275D01*
X121390561Y-63448439D01*
X121386137Y-63454953D01*
X120896223Y-64129262D01*
X120860962Y-64188395D01*
X120807999Y-64344932D01*
X120807999Y-64344934D01*
X120807999Y-64344935D01*
X120794220Y-64507460D01*
X120794038Y-64509601D01*
X120794038Y-64509602D01*
X120803895Y-64571839D01*
X120794939Y-64641132D01*
X120755515Y-64690663D01*
X120728420Y-64710853D01*
X120728413Y-64710860D01*
X120684063Y-64761533D01*
X120109461Y-65552406D01*
X120109459Y-65552409D01*
X120074982Y-65610229D01*
X120074980Y-65610234D01*
X120023188Y-65763314D01*
X120023187Y-65763319D01*
X120010400Y-65914157D01*
X120009366Y-65926351D01*
X119988913Y-65984762D01*
X119981097Y-65996462D01*
X119934914Y-66065579D01*
X119878343Y-66202154D01*
X119878340Y-66202164D01*
X119849500Y-66347151D01*
X119849500Y-68037770D01*
X119829815Y-68104809D01*
X119813181Y-68125451D01*
X119757289Y-68181342D01*
X119665187Y-68330663D01*
X119665186Y-68330666D01*
X119610001Y-68497203D01*
X119610001Y-68497204D01*
X119610000Y-68497204D01*
X119599500Y-68599983D01*
X119599500Y-68888429D01*
X119579815Y-68955468D01*
X119527011Y-69001223D01*
X119457853Y-69011167D01*
X119401189Y-68987695D01*
X119292335Y-68906206D01*
X119292328Y-68906202D01*
X119157482Y-68855908D01*
X119157483Y-68855908D01*
X119097883Y-68849501D01*
X119097881Y-68849500D01*
X119097873Y-68849500D01*
X119097864Y-68849500D01*
X117502129Y-68849500D01*
X117502123Y-68849501D01*
X117442516Y-68855908D01*
X117307671Y-68906202D01*
X117307664Y-68906206D01*
X117192457Y-68992451D01*
X117192451Y-68992457D01*
X117186948Y-68999809D01*
X117131015Y-69041681D01*
X117087680Y-69049500D01*
X116762229Y-69049500D01*
X116695190Y-69029815D01*
X116674548Y-69013181D01*
X115330587Y-67669219D01*
X115297102Y-67607896D01*
X115302086Y-67538204D01*
X115343958Y-67482271D01*
X115370814Y-67466978D01*
X115402863Y-67453703D01*
X115542162Y-67360626D01*
X115660626Y-67242162D01*
X115753703Y-67102863D01*
X115817816Y-66948082D01*
X115850500Y-66783767D01*
X115850500Y-66750000D01*
X117050000Y-66750000D01*
X117050000Y-66997844D01*
X117056401Y-67057372D01*
X117056403Y-67057379D01*
X117106645Y-67192086D01*
X117106649Y-67192093D01*
X117192809Y-67307187D01*
X117192812Y-67307190D01*
X117307906Y-67393350D01*
X117307913Y-67393354D01*
X117442620Y-67443596D01*
X117442627Y-67443598D01*
X117502155Y-67449999D01*
X117502172Y-67450000D01*
X118050000Y-67450000D01*
X118050000Y-66750000D01*
X118550000Y-66750000D01*
X118550000Y-67450000D01*
X119097828Y-67450000D01*
X119097844Y-67449999D01*
X119157372Y-67443598D01*
X119157379Y-67443596D01*
X119292086Y-67393354D01*
X119292093Y-67393350D01*
X119407187Y-67307190D01*
X119407190Y-67307187D01*
X119493350Y-67192093D01*
X119493354Y-67192086D01*
X119543596Y-67057379D01*
X119543598Y-67057372D01*
X119549999Y-66997844D01*
X119550000Y-66997827D01*
X119550000Y-66750000D01*
X118550000Y-66750000D01*
X118050000Y-66750000D01*
X117050000Y-66750000D01*
X115850500Y-66750000D01*
X115850500Y-66616233D01*
X115817816Y-66451918D01*
X115753703Y-66297137D01*
X115722207Y-66250000D01*
X117050000Y-66250000D01*
X118050000Y-66250000D01*
X118050000Y-65550000D01*
X118550000Y-65550000D01*
X118550000Y-66250000D01*
X119550000Y-66250000D01*
X119550000Y-66002172D01*
X119549999Y-66002155D01*
X119543598Y-65942627D01*
X119543596Y-65942620D01*
X119493354Y-65807913D01*
X119493350Y-65807906D01*
X119407190Y-65692812D01*
X119407187Y-65692809D01*
X119292093Y-65606649D01*
X119292086Y-65606645D01*
X119157379Y-65556403D01*
X119157372Y-65556401D01*
X119097844Y-65550000D01*
X118550000Y-65550000D01*
X118050000Y-65550000D01*
X117502155Y-65550000D01*
X117442627Y-65556401D01*
X117442620Y-65556403D01*
X117307913Y-65606645D01*
X117307906Y-65606649D01*
X117192812Y-65692809D01*
X117192809Y-65692812D01*
X117106649Y-65807906D01*
X117106645Y-65807913D01*
X117056403Y-65942620D01*
X117056401Y-65942627D01*
X117050000Y-66002155D01*
X117050000Y-66250000D01*
X115722207Y-66250000D01*
X115721357Y-66248728D01*
X115660626Y-66157837D01*
X115542162Y-66039373D01*
X115402860Y-65946295D01*
X115248082Y-65882184D01*
X115248074Y-65882182D01*
X115083771Y-65849500D01*
X115083767Y-65849500D01*
X114916233Y-65849500D01*
X114916228Y-65849500D01*
X114751918Y-65882183D01*
X114746306Y-65883886D01*
X114676439Y-65884510D01*
X114617326Y-65847263D01*
X114598206Y-65815364D01*
X114598046Y-65815452D01*
X114595861Y-65811450D01*
X114594128Y-65808559D01*
X114593884Y-65807906D01*
X114593796Y-65807669D01*
X114593794Y-65807666D01*
X114507547Y-65692455D01*
X114507544Y-65692452D01*
X114392335Y-65606206D01*
X114392328Y-65606202D01*
X114257482Y-65555908D01*
X114249938Y-65554126D01*
X114250474Y-65551853D01*
X114196688Y-65529571D01*
X114156843Y-65472177D01*
X114150500Y-65433024D01*
X114150500Y-64574499D01*
X114170185Y-64507460D01*
X114222989Y-64461705D01*
X114274500Y-64450499D01*
X115197871Y-64450499D01*
X115197872Y-64450499D01*
X115257483Y-64444091D01*
X115392331Y-64393796D01*
X115507546Y-64307546D01*
X115593796Y-64192331D01*
X115644091Y-64057483D01*
X115650500Y-63997873D01*
X115650499Y-62402128D01*
X115644091Y-62342517D01*
X115626647Y-62295748D01*
X115593797Y-62207671D01*
X115593793Y-62207664D01*
X115507547Y-62092455D01*
X115507544Y-62092452D01*
X115392335Y-62006206D01*
X115392330Y-62006203D01*
X115376502Y-62000300D01*
X115320569Y-61958428D01*
X115296152Y-61892964D01*
X115311004Y-61824691D01*
X115360409Y-61775286D01*
X115428682Y-61760434D01*
X115431431Y-61760661D01*
G37*
%TD.AperFunction*%
%TD*%
M02*
