%TF.GenerationSoftware,KiCad,Pcbnew,8.0.1*%
%TF.CreationDate,2024-05-06T20:27:01+02:00*%
%TF.ProjectId,SenseLoraCAM,53656e73-654c-46f7-9261-43414d2e6b69,rev?*%
%TF.SameCoordinates,Original*%
%TF.FileFunction,AssemblyDrawing,Top*%
%FSLAX46Y46*%
G04 Gerber Fmt 4.6, Leading zero omitted, Abs format (unit mm)*
G04 Created by KiCad (PCBNEW 8.0.1) date 2024-05-06 20:27:01*
%MOMM*%
%LPD*%
G01*
G04 APERTURE LIST*
%ADD10C,0.150000*%
%ADD11C,0.080000*%
%ADD12C,0.100000*%
%ADD13C,0.120000*%
G04 APERTURE END LIST*
D10*
X94613296Y-80415097D02*
X95256084Y-79649052D01*
X95256084Y-79649052D02*
X95052298Y-80410490D01*
X95052298Y-80410490D02*
X95766780Y-80077578D01*
X95766780Y-80077578D02*
X95123992Y-80843622D01*
X96080822Y-80962712D02*
X96159648Y-81091018D01*
X96159648Y-81091018D02*
X96165517Y-81158105D01*
X96165517Y-81158105D02*
X96140777Y-81261670D01*
X96140777Y-81261670D02*
X96048951Y-81371105D01*
X96048951Y-81371105D02*
X95951254Y-81413453D01*
X95951254Y-81413453D02*
X95884167Y-81419322D01*
X95884167Y-81419322D02*
X95780602Y-81394583D01*
X95780602Y-81394583D02*
X95488775Y-81149711D01*
X95488775Y-81149711D02*
X96131563Y-80383667D01*
X96131563Y-80383667D02*
X96386911Y-80597929D01*
X96386911Y-80597929D02*
X96429259Y-80695625D01*
X96429259Y-80695625D02*
X96435128Y-80762713D01*
X96435128Y-80762713D02*
X96410388Y-80866278D01*
X96410388Y-80866278D02*
X96349171Y-80939235D01*
X96349171Y-80939235D02*
X96251474Y-80981583D01*
X96251474Y-80981583D02*
X96184387Y-80987452D01*
X96184387Y-80987452D02*
X96080822Y-80962712D01*
X96080822Y-80962712D02*
X95825473Y-80748450D01*
X96692559Y-82159806D02*
X96743301Y-81580760D01*
X96254820Y-81792499D02*
X96897607Y-81026454D01*
X96897607Y-81026454D02*
X97189434Y-81271326D01*
X97189434Y-81271326D02*
X97231781Y-81369022D01*
X97231781Y-81369022D02*
X97237651Y-81436109D01*
X97237651Y-81436109D02*
X97212911Y-81539675D01*
X97212911Y-81539675D02*
X97121084Y-81649110D01*
X97121084Y-81649110D02*
X97023388Y-81691457D01*
X97023388Y-81691457D02*
X96956301Y-81697327D01*
X96956301Y-81697327D02*
X96852735Y-81672587D01*
X96852735Y-81672587D02*
X96560909Y-81427716D01*
X97809565Y-81791678D02*
X97882522Y-81852896D01*
X97882522Y-81852896D02*
X97924869Y-81950592D01*
X97924869Y-81950592D02*
X97930739Y-82017679D01*
X97930739Y-82017679D02*
X97905999Y-82121245D01*
X97905999Y-82121245D02*
X97820042Y-82297767D01*
X97820042Y-82297767D02*
X97666997Y-82480158D01*
X97666997Y-82480158D02*
X97508083Y-82595463D01*
X97508083Y-82595463D02*
X97410387Y-82637810D01*
X97410387Y-82637810D02*
X97343299Y-82643680D01*
X97343299Y-82643680D02*
X97239734Y-82618940D01*
X97239734Y-82618940D02*
X97166777Y-82557722D01*
X97166777Y-82557722D02*
X97124430Y-82460026D01*
X97124430Y-82460026D02*
X97118560Y-82392939D01*
X97118560Y-82392939D02*
X97143300Y-82289373D01*
X97143300Y-82289373D02*
X97229257Y-82112851D01*
X97229257Y-82112851D02*
X97382302Y-81930460D01*
X97382302Y-81930460D02*
X97541216Y-81815155D01*
X97541216Y-81815155D02*
X97638912Y-81772808D01*
X97638912Y-81772808D02*
X97705999Y-81766938D01*
X97705999Y-81766938D02*
X97809565Y-81791678D01*
X98758001Y-82587510D02*
X98393218Y-82281421D01*
X98393218Y-82281421D02*
X98050650Y-82615595D01*
X98050650Y-82615595D02*
X98117737Y-82609725D01*
X98117737Y-82609725D02*
X98221303Y-82634465D01*
X98221303Y-82634465D02*
X98403695Y-82787510D01*
X98403695Y-82787510D02*
X98446042Y-82885206D01*
X98446042Y-82885206D02*
X98451912Y-82952293D01*
X98451912Y-82952293D02*
X98427172Y-83055859D01*
X98427172Y-83055859D02*
X98274127Y-83238250D01*
X98274127Y-83238250D02*
X98176431Y-83280598D01*
X98176431Y-83280598D02*
X98109344Y-83286467D01*
X98109344Y-83286467D02*
X98005778Y-83261728D01*
X98005778Y-83261728D02*
X97823387Y-83108683D01*
X97823387Y-83108683D02*
X97781039Y-83010987D01*
X97781039Y-83010987D02*
X97775170Y-82943900D01*
X99049827Y-82832382D02*
X99524045Y-83230298D01*
X99524045Y-83230298D02*
X99023826Y-83307862D01*
X99023826Y-83307862D02*
X99133261Y-83399688D01*
X99133261Y-83399688D02*
X99175608Y-83497385D01*
X99175608Y-83497385D02*
X99181478Y-83564472D01*
X99181478Y-83564472D02*
X99156738Y-83668037D01*
X99156738Y-83668037D02*
X99003694Y-83850429D01*
X99003694Y-83850429D02*
X98905997Y-83892777D01*
X98905997Y-83892777D02*
X98838910Y-83898646D01*
X98838910Y-83898646D02*
X98735345Y-83873906D01*
X98735345Y-83873906D02*
X98516475Y-83690253D01*
X98516475Y-83690253D02*
X98474127Y-83592557D01*
X98474127Y-83592557D02*
X98468258Y-83525469D01*
X99998263Y-83628214D02*
X100071220Y-83689432D01*
X100071220Y-83689432D02*
X100113568Y-83787128D01*
X100113568Y-83787128D02*
X100119437Y-83854215D01*
X100119437Y-83854215D02*
X100094698Y-83957781D01*
X100094698Y-83957781D02*
X100008740Y-84134303D01*
X100008740Y-84134303D02*
X99855695Y-84316694D01*
X99855695Y-84316694D02*
X99696781Y-84431999D01*
X99696781Y-84431999D02*
X99599085Y-84474346D01*
X99599085Y-84474346D02*
X99531998Y-84480216D01*
X99531998Y-84480216D02*
X99428432Y-84455476D01*
X99428432Y-84455476D02*
X99355476Y-84394258D01*
X99355476Y-84394258D02*
X99313128Y-84296562D01*
X99313128Y-84296562D02*
X99307259Y-84229475D01*
X99307259Y-84229475D02*
X99331998Y-84125909D01*
X99331998Y-84125909D02*
X99417956Y-83949387D01*
X99417956Y-83949387D02*
X99571000Y-83766996D01*
X99571000Y-83766996D02*
X99729914Y-83651691D01*
X99729914Y-83651691D02*
X99827611Y-83609344D01*
X99827611Y-83609344D02*
X99894698Y-83603474D01*
X99894698Y-83603474D02*
X99998263Y-83628214D01*
X99163836Y-78881284D02*
X99806624Y-78115239D01*
X99806624Y-78115239D02*
X99989015Y-78268284D01*
X99989015Y-78268284D02*
X100067841Y-78396589D01*
X100067841Y-78396589D02*
X100079580Y-78530764D01*
X100079580Y-78530764D02*
X100054840Y-78634329D01*
X100054840Y-78634329D02*
X99968883Y-78810851D01*
X99968883Y-78810851D02*
X99877056Y-78920286D01*
X99877056Y-78920286D02*
X99718142Y-79035591D01*
X99718142Y-79035591D02*
X99620446Y-79077938D01*
X99620446Y-79077938D02*
X99486271Y-79089677D01*
X99486271Y-79089677D02*
X99346228Y-79034329D01*
X99346228Y-79034329D02*
X99163836Y-78881284D01*
X100937451Y-79064116D02*
X100572668Y-78758027D01*
X100572668Y-78758027D02*
X100230100Y-79092201D01*
X100230100Y-79092201D02*
X100297188Y-79086332D01*
X100297188Y-79086332D02*
X100400753Y-79111071D01*
X100400753Y-79111071D02*
X100583145Y-79264116D01*
X100583145Y-79264116D02*
X100625492Y-79361812D01*
X100625492Y-79361812D02*
X100631362Y-79428900D01*
X100631362Y-79428900D02*
X100606622Y-79532465D01*
X100606622Y-79532465D02*
X100453578Y-79714857D01*
X100453578Y-79714857D02*
X100355881Y-79757204D01*
X100355881Y-79757204D02*
X100288794Y-79763074D01*
X100288794Y-79763074D02*
X100185229Y-79738334D01*
X100185229Y-79738334D02*
X100002837Y-79585289D01*
X100002837Y-79585289D02*
X99960489Y-79487593D01*
X99960489Y-79487593D02*
X99954620Y-79420506D01*
X85274890Y-72900880D02*
X85460952Y-72462544D01*
X85500679Y-73100185D02*
X84710418Y-72402618D01*
X84710418Y-72402618D02*
X85761166Y-72486515D01*
X85277740Y-71919192D02*
X85891410Y-72179680D01*
X85365407Y-71956405D02*
X85340180Y-71893965D01*
X85340180Y-71893965D02*
X85333559Y-71787691D01*
X85333559Y-71787691D02*
X85389378Y-71656191D01*
X85389378Y-71656191D02*
X85470424Y-71587130D01*
X85470424Y-71587130D02*
X85576697Y-71580509D01*
X85576697Y-71580509D02*
X86058866Y-71785177D01*
X85575440Y-71217855D02*
X85724290Y-70867186D01*
X85324424Y-70956111D02*
X86113428Y-71291023D01*
X86113428Y-71291023D02*
X86219701Y-71284402D01*
X86219701Y-71284402D02*
X86300747Y-71215341D01*
X86300747Y-71215341D02*
X86337960Y-71127674D01*
X86573220Y-70451564D02*
X86579841Y-70557837D01*
X86579841Y-70557837D02*
X86505416Y-70733171D01*
X86505416Y-70733171D02*
X86424370Y-70802232D01*
X86424370Y-70802232D02*
X86318097Y-70808853D01*
X86318097Y-70808853D02*
X85967428Y-70660003D01*
X85967428Y-70660003D02*
X85898367Y-70578957D01*
X85898367Y-70578957D02*
X85891746Y-70472684D01*
X85891746Y-70472684D02*
X85966171Y-70297350D01*
X85966171Y-70297350D02*
X86047217Y-70228289D01*
X86047217Y-70228289D02*
X86153491Y-70221668D01*
X86153491Y-70221668D02*
X86241158Y-70258880D01*
X86241158Y-70258880D02*
X86142763Y-70734428D01*
X86189446Y-69771347D02*
X86803116Y-70031834D01*
X86277113Y-69808559D02*
X86251886Y-69746120D01*
X86251886Y-69746120D02*
X86245265Y-69639846D01*
X86245265Y-69639846D02*
X86301084Y-69508345D01*
X86301084Y-69508345D02*
X86382130Y-69439285D01*
X86382130Y-69439285D02*
X86488403Y-69432663D01*
X86488403Y-69432663D02*
X86970572Y-69637332D01*
X86542965Y-68938509D02*
X87156635Y-69198996D01*
X86630632Y-68975722D02*
X86605405Y-68913282D01*
X86605405Y-68913282D02*
X86598784Y-68807008D01*
X86598784Y-68807008D02*
X86654603Y-68675508D01*
X86654603Y-68675508D02*
X86735649Y-68606447D01*
X86735649Y-68606447D02*
X86841922Y-68599826D01*
X86841922Y-68599826D02*
X87324091Y-68804494D01*
X87677610Y-67971657D02*
X87195441Y-67766988D01*
X87195441Y-67766988D02*
X87089167Y-67773609D01*
X87089167Y-67773609D02*
X87008121Y-67842670D01*
X87008121Y-67842670D02*
X86933696Y-68018004D01*
X86933696Y-68018004D02*
X86940317Y-68124277D01*
X87633776Y-67953050D02*
X87640397Y-68059324D01*
X87640397Y-68059324D02*
X87547366Y-68278491D01*
X87547366Y-68278491D02*
X87466320Y-68347552D01*
X87466320Y-68347552D02*
X87360047Y-68354173D01*
X87360047Y-68354173D02*
X87272380Y-68316961D01*
X87272380Y-68316961D02*
X87203319Y-68235915D01*
X87203319Y-68235915D02*
X87196698Y-68129642D01*
X87196698Y-68129642D02*
X87289729Y-67910474D01*
X87289729Y-67910474D02*
X87283108Y-67804200D01*
X87858308Y-67789701D02*
X88156008Y-67088364D01*
X88098932Y-66857211D02*
X88198585Y-66744316D01*
X88198585Y-66744316D02*
X88291616Y-66525149D01*
X88291616Y-66525149D02*
X88284995Y-66418875D01*
X88284995Y-66418875D02*
X88259768Y-66356435D01*
X88259768Y-66356435D02*
X88190707Y-66275389D01*
X88190707Y-66275389D02*
X88103040Y-66238177D01*
X88103040Y-66238177D02*
X87996766Y-66244798D01*
X87996766Y-66244798D02*
X87934326Y-66270025D01*
X87934326Y-66270025D02*
X87853280Y-66339086D01*
X87853280Y-66339086D02*
X87735022Y-66495814D01*
X87735022Y-66495814D02*
X87653976Y-66564875D01*
X87653976Y-66564875D02*
X87591536Y-66590102D01*
X87591536Y-66590102D02*
X87485263Y-66596723D01*
X87485263Y-66596723D02*
X87397595Y-66559511D01*
X87397595Y-66559511D02*
X87328535Y-66478465D01*
X87328535Y-66478465D02*
X87303307Y-66416025D01*
X87303307Y-66416025D02*
X87296686Y-66309752D01*
X87296686Y-66309752D02*
X87389717Y-66090584D01*
X87389717Y-66090584D02*
X87489370Y-65977689D01*
X88533497Y-65955312D02*
X87612992Y-65564581D01*
X88700953Y-65560810D02*
X88218784Y-65356141D01*
X88218784Y-65356141D02*
X88112511Y-65362763D01*
X88112511Y-65362763D02*
X88031465Y-65431823D01*
X88031465Y-65431823D02*
X87975646Y-65563324D01*
X87975646Y-65563324D02*
X87982267Y-65669597D01*
X87982267Y-65669597D02*
X88007494Y-65732037D01*
X88887016Y-65122474D02*
X88273346Y-64861987D01*
X87966511Y-64731743D02*
X87991738Y-64794183D01*
X87991738Y-64794183D02*
X88054178Y-64768956D01*
X88054178Y-64768956D02*
X88028951Y-64706516D01*
X88028951Y-64706516D02*
X87966511Y-64731743D01*
X87966511Y-64731743D02*
X88054178Y-64768956D01*
X89178095Y-64314864D02*
X89184716Y-64421138D01*
X89184716Y-64421138D02*
X89110291Y-64596472D01*
X89110291Y-64596472D02*
X89029245Y-64665533D01*
X89029245Y-64665533D02*
X88922971Y-64672154D01*
X88922971Y-64672154D02*
X88572303Y-64523304D01*
X88572303Y-64523304D02*
X88503242Y-64442258D01*
X88503242Y-64442258D02*
X88496621Y-64335985D01*
X88496621Y-64335985D02*
X88571046Y-64160650D01*
X88571046Y-64160650D02*
X88652092Y-64091590D01*
X88652092Y-64091590D02*
X88758365Y-64084968D01*
X88758365Y-64084968D02*
X88846032Y-64122181D01*
X88846032Y-64122181D02*
X88747637Y-64597729D01*
X89463809Y-63763634D02*
X89382763Y-63832695D01*
X89382763Y-63832695D02*
X89276490Y-63839316D01*
X89276490Y-63839316D02*
X88487486Y-63504404D01*
X89780116Y-63018463D02*
X88859611Y-62627732D01*
X89736282Y-62999857D02*
X89742903Y-63106130D01*
X89742903Y-63106130D02*
X89668478Y-63281465D01*
X89668478Y-63281465D02*
X89587432Y-63350525D01*
X89587432Y-63350525D02*
X89524992Y-63375753D01*
X89524992Y-63375753D02*
X89418719Y-63382374D01*
X89418719Y-63382374D02*
X89155718Y-63270736D01*
X89155718Y-63270736D02*
X89086657Y-63189690D01*
X89086657Y-63189690D02*
X89061429Y-63127251D01*
X89061429Y-63127251D02*
X89054808Y-63020977D01*
X89054808Y-63020977D02*
X89129233Y-62845643D01*
X89129233Y-62845643D02*
X89210279Y-62776582D01*
X94506796Y-72163763D02*
X94692859Y-71725428D01*
X94732585Y-72363068D02*
X93942324Y-71665502D01*
X93942324Y-71665502D02*
X94993073Y-71749398D01*
X94641147Y-71237894D02*
X94771391Y-70931059D01*
X95309379Y-71004227D02*
X95123316Y-71442563D01*
X95123316Y-71442563D02*
X94202811Y-71051832D01*
X94202811Y-71051832D02*
X94388874Y-70613496D01*
X95681504Y-70127556D02*
X95458229Y-70653559D01*
X95569866Y-70390557D02*
X94649361Y-69999826D01*
X94649361Y-69999826D02*
X94743650Y-70143312D01*
X94743650Y-70143312D02*
X94794104Y-70268192D01*
X94794104Y-70268192D02*
X94800725Y-70374465D01*
X116452380Y-95534819D02*
X115880952Y-95534819D01*
X116166666Y-95534819D02*
X116166666Y-94534819D01*
X116166666Y-94534819D02*
X116071428Y-94677676D01*
X116071428Y-94677676D02*
X115976190Y-94772914D01*
X115976190Y-94772914D02*
X115880952Y-94820533D01*
X117071428Y-94534819D02*
X117166666Y-94534819D01*
X117166666Y-94534819D02*
X117261904Y-94582438D01*
X117261904Y-94582438D02*
X117309523Y-94630057D01*
X117309523Y-94630057D02*
X117357142Y-94725295D01*
X117357142Y-94725295D02*
X117404761Y-94915771D01*
X117404761Y-94915771D02*
X117404761Y-95153866D01*
X117404761Y-95153866D02*
X117357142Y-95344342D01*
X117357142Y-95344342D02*
X117309523Y-95439580D01*
X117309523Y-95439580D02*
X117261904Y-95487200D01*
X117261904Y-95487200D02*
X117166666Y-95534819D01*
X117166666Y-95534819D02*
X117071428Y-95534819D01*
X117071428Y-95534819D02*
X116976190Y-95487200D01*
X116976190Y-95487200D02*
X116928571Y-95439580D01*
X116928571Y-95439580D02*
X116880952Y-95344342D01*
X116880952Y-95344342D02*
X116833333Y-95153866D01*
X116833333Y-95153866D02*
X116833333Y-94915771D01*
X116833333Y-94915771D02*
X116880952Y-94725295D01*
X116880952Y-94725295D02*
X116928571Y-94630057D01*
X116928571Y-94630057D02*
X116976190Y-94582438D01*
X116976190Y-94582438D02*
X117071428Y-94534819D01*
X118023809Y-94534819D02*
X118119047Y-94534819D01*
X118119047Y-94534819D02*
X118214285Y-94582438D01*
X118214285Y-94582438D02*
X118261904Y-94630057D01*
X118261904Y-94630057D02*
X118309523Y-94725295D01*
X118309523Y-94725295D02*
X118357142Y-94915771D01*
X118357142Y-94915771D02*
X118357142Y-95153866D01*
X118357142Y-95153866D02*
X118309523Y-95344342D01*
X118309523Y-95344342D02*
X118261904Y-95439580D01*
X118261904Y-95439580D02*
X118214285Y-95487200D01*
X118214285Y-95487200D02*
X118119047Y-95534819D01*
X118119047Y-95534819D02*
X118023809Y-95534819D01*
X118023809Y-95534819D02*
X117928571Y-95487200D01*
X117928571Y-95487200D02*
X117880952Y-95439580D01*
X117880952Y-95439580D02*
X117833333Y-95344342D01*
X117833333Y-95344342D02*
X117785714Y-95153866D01*
X117785714Y-95153866D02*
X117785714Y-94915771D01*
X117785714Y-94915771D02*
X117833333Y-94725295D01*
X117833333Y-94725295D02*
X117880952Y-94630057D01*
X117880952Y-94630057D02*
X117928571Y-94582438D01*
X117928571Y-94582438D02*
X118023809Y-94534819D01*
X118785714Y-94868152D02*
X118785714Y-95534819D01*
X118785714Y-94963390D02*
X118833333Y-94915771D01*
X118833333Y-94915771D02*
X118928571Y-94868152D01*
X118928571Y-94868152D02*
X119071428Y-94868152D01*
X119071428Y-94868152D02*
X119166666Y-94915771D01*
X119166666Y-94915771D02*
X119214285Y-95011009D01*
X119214285Y-95011009D02*
X119214285Y-95534819D01*
X120023809Y-95011009D02*
X119690476Y-95011009D01*
X119690476Y-95534819D02*
X119690476Y-94534819D01*
X119690476Y-94534819D02*
X120166666Y-94534819D01*
D11*
X117916666Y-93579530D02*
X117892857Y-93603340D01*
X117892857Y-93603340D02*
X117821428Y-93627149D01*
X117821428Y-93627149D02*
X117773809Y-93627149D01*
X117773809Y-93627149D02*
X117702381Y-93603340D01*
X117702381Y-93603340D02*
X117654762Y-93555720D01*
X117654762Y-93555720D02*
X117630952Y-93508101D01*
X117630952Y-93508101D02*
X117607143Y-93412863D01*
X117607143Y-93412863D02*
X117607143Y-93341435D01*
X117607143Y-93341435D02*
X117630952Y-93246197D01*
X117630952Y-93246197D02*
X117654762Y-93198578D01*
X117654762Y-93198578D02*
X117702381Y-93150959D01*
X117702381Y-93150959D02*
X117773809Y-93127149D01*
X117773809Y-93127149D02*
X117821428Y-93127149D01*
X117821428Y-93127149D02*
X117892857Y-93150959D01*
X117892857Y-93150959D02*
X117916666Y-93174768D01*
X118107143Y-93174768D02*
X118130952Y-93150959D01*
X118130952Y-93150959D02*
X118178571Y-93127149D01*
X118178571Y-93127149D02*
X118297619Y-93127149D01*
X118297619Y-93127149D02*
X118345238Y-93150959D01*
X118345238Y-93150959D02*
X118369047Y-93174768D01*
X118369047Y-93174768D02*
X118392857Y-93222387D01*
X118392857Y-93222387D02*
X118392857Y-93270006D01*
X118392857Y-93270006D02*
X118369047Y-93341435D01*
X118369047Y-93341435D02*
X118083333Y-93627149D01*
X118083333Y-93627149D02*
X118392857Y-93627149D01*
D10*
X101689284Y-64009580D02*
X101641665Y-64057200D01*
X101641665Y-64057200D02*
X101498808Y-64104819D01*
X101498808Y-64104819D02*
X101403570Y-64104819D01*
X101403570Y-64104819D02*
X101260713Y-64057200D01*
X101260713Y-64057200D02*
X101165475Y-63961961D01*
X101165475Y-63961961D02*
X101117856Y-63866723D01*
X101117856Y-63866723D02*
X101070237Y-63676247D01*
X101070237Y-63676247D02*
X101070237Y-63533390D01*
X101070237Y-63533390D02*
X101117856Y-63342914D01*
X101117856Y-63342914D02*
X101165475Y-63247676D01*
X101165475Y-63247676D02*
X101260713Y-63152438D01*
X101260713Y-63152438D02*
X101403570Y-63104819D01*
X101403570Y-63104819D02*
X101498808Y-63104819D01*
X101498808Y-63104819D02*
X101641665Y-63152438D01*
X101641665Y-63152438D02*
X101689284Y-63200057D01*
X102260713Y-64104819D02*
X102165475Y-64057200D01*
X102165475Y-64057200D02*
X102117856Y-64009580D01*
X102117856Y-64009580D02*
X102070237Y-63914342D01*
X102070237Y-63914342D02*
X102070237Y-63628628D01*
X102070237Y-63628628D02*
X102117856Y-63533390D01*
X102117856Y-63533390D02*
X102165475Y-63485771D01*
X102165475Y-63485771D02*
X102260713Y-63438152D01*
X102260713Y-63438152D02*
X102403570Y-63438152D01*
X102403570Y-63438152D02*
X102498808Y-63485771D01*
X102498808Y-63485771D02*
X102546427Y-63533390D01*
X102546427Y-63533390D02*
X102594046Y-63628628D01*
X102594046Y-63628628D02*
X102594046Y-63914342D01*
X102594046Y-63914342D02*
X102546427Y-64009580D01*
X102546427Y-64009580D02*
X102498808Y-64057200D01*
X102498808Y-64057200D02*
X102403570Y-64104819D01*
X102403570Y-64104819D02*
X102260713Y-64104819D01*
X103022618Y-63438152D02*
X103022618Y-64104819D01*
X103022618Y-63533390D02*
X103070237Y-63485771D01*
X103070237Y-63485771D02*
X103165475Y-63438152D01*
X103165475Y-63438152D02*
X103308332Y-63438152D01*
X103308332Y-63438152D02*
X103403570Y-63485771D01*
X103403570Y-63485771D02*
X103451189Y-63581009D01*
X103451189Y-63581009D02*
X103451189Y-64104819D01*
X103927380Y-63438152D02*
X103927380Y-64104819D01*
X103927380Y-63533390D02*
X103974999Y-63485771D01*
X103974999Y-63485771D02*
X104070237Y-63438152D01*
X104070237Y-63438152D02*
X104213094Y-63438152D01*
X104213094Y-63438152D02*
X104308332Y-63485771D01*
X104308332Y-63485771D02*
X104355951Y-63581009D01*
X104355951Y-63581009D02*
X104355951Y-64104819D01*
X104594047Y-64200057D02*
X105355951Y-64200057D01*
X105784523Y-63104819D02*
X105879761Y-63104819D01*
X105879761Y-63104819D02*
X105974999Y-63152438D01*
X105974999Y-63152438D02*
X106022618Y-63200057D01*
X106022618Y-63200057D02*
X106070237Y-63295295D01*
X106070237Y-63295295D02*
X106117856Y-63485771D01*
X106117856Y-63485771D02*
X106117856Y-63723866D01*
X106117856Y-63723866D02*
X106070237Y-63914342D01*
X106070237Y-63914342D02*
X106022618Y-64009580D01*
X106022618Y-64009580D02*
X105974999Y-64057200D01*
X105974999Y-64057200D02*
X105879761Y-64104819D01*
X105879761Y-64104819D02*
X105784523Y-64104819D01*
X105784523Y-64104819D02*
X105689285Y-64057200D01*
X105689285Y-64057200D02*
X105641666Y-64009580D01*
X105641666Y-64009580D02*
X105594047Y-63914342D01*
X105594047Y-63914342D02*
X105546428Y-63723866D01*
X105546428Y-63723866D02*
X105546428Y-63485771D01*
X105546428Y-63485771D02*
X105594047Y-63295295D01*
X105594047Y-63295295D02*
X105641666Y-63200057D01*
X105641666Y-63200057D02*
X105689285Y-63152438D01*
X105689285Y-63152438D02*
X105784523Y-63104819D01*
X107070237Y-64104819D02*
X106498809Y-64104819D01*
X106784523Y-64104819D02*
X106784523Y-63104819D01*
X106784523Y-63104819D02*
X106689285Y-63247676D01*
X106689285Y-63247676D02*
X106594047Y-63342914D01*
X106594047Y-63342914D02*
X106498809Y-63390533D01*
X107403571Y-64104819D02*
X107927380Y-63438152D01*
X107403571Y-63438152D02*
X107927380Y-64104819D01*
X108498809Y-63104819D02*
X108594047Y-63104819D01*
X108594047Y-63104819D02*
X108689285Y-63152438D01*
X108689285Y-63152438D02*
X108736904Y-63200057D01*
X108736904Y-63200057D02*
X108784523Y-63295295D01*
X108784523Y-63295295D02*
X108832142Y-63485771D01*
X108832142Y-63485771D02*
X108832142Y-63723866D01*
X108832142Y-63723866D02*
X108784523Y-63914342D01*
X108784523Y-63914342D02*
X108736904Y-64009580D01*
X108736904Y-64009580D02*
X108689285Y-64057200D01*
X108689285Y-64057200D02*
X108594047Y-64104819D01*
X108594047Y-64104819D02*
X108498809Y-64104819D01*
X108498809Y-64104819D02*
X108403571Y-64057200D01*
X108403571Y-64057200D02*
X108355952Y-64009580D01*
X108355952Y-64009580D02*
X108308333Y-63914342D01*
X108308333Y-63914342D02*
X108260714Y-63723866D01*
X108260714Y-63723866D02*
X108260714Y-63485771D01*
X108260714Y-63485771D02*
X108308333Y-63295295D01*
X108308333Y-63295295D02*
X108355952Y-63200057D01*
X108355952Y-63200057D02*
X108403571Y-63152438D01*
X108403571Y-63152438D02*
X108498809Y-63104819D01*
X109213095Y-63200057D02*
X109260714Y-63152438D01*
X109260714Y-63152438D02*
X109355952Y-63104819D01*
X109355952Y-63104819D02*
X109594047Y-63104819D01*
X109594047Y-63104819D02*
X109689285Y-63152438D01*
X109689285Y-63152438D02*
X109736904Y-63200057D01*
X109736904Y-63200057D02*
X109784523Y-63295295D01*
X109784523Y-63295295D02*
X109784523Y-63390533D01*
X109784523Y-63390533D02*
X109736904Y-63533390D01*
X109736904Y-63533390D02*
X109165476Y-64104819D01*
X109165476Y-64104819D02*
X109784523Y-64104819D01*
X109975000Y-64200057D02*
X110736904Y-64200057D01*
X111308333Y-63581009D02*
X110975000Y-63581009D01*
X110975000Y-64104819D02*
X110975000Y-63104819D01*
X110975000Y-63104819D02*
X111451190Y-63104819D01*
X112213095Y-64057200D02*
X112117857Y-64104819D01*
X112117857Y-64104819D02*
X111927381Y-64104819D01*
X111927381Y-64104819D02*
X111832143Y-64057200D01*
X111832143Y-64057200D02*
X111784524Y-63961961D01*
X111784524Y-63961961D02*
X111784524Y-63581009D01*
X111784524Y-63581009D02*
X111832143Y-63485771D01*
X111832143Y-63485771D02*
X111927381Y-63438152D01*
X111927381Y-63438152D02*
X112117857Y-63438152D01*
X112117857Y-63438152D02*
X112213095Y-63485771D01*
X112213095Y-63485771D02*
X112260714Y-63581009D01*
X112260714Y-63581009D02*
X112260714Y-63676247D01*
X112260714Y-63676247D02*
X111784524Y-63771485D01*
X112689286Y-64104819D02*
X112689286Y-63438152D01*
X112689286Y-63533390D02*
X112736905Y-63485771D01*
X112736905Y-63485771D02*
X112832143Y-63438152D01*
X112832143Y-63438152D02*
X112975000Y-63438152D01*
X112975000Y-63438152D02*
X113070238Y-63485771D01*
X113070238Y-63485771D02*
X113117857Y-63581009D01*
X113117857Y-63581009D02*
X113117857Y-64104819D01*
X113117857Y-63581009D02*
X113165476Y-63485771D01*
X113165476Y-63485771D02*
X113260714Y-63438152D01*
X113260714Y-63438152D02*
X113403571Y-63438152D01*
X113403571Y-63438152D02*
X113498810Y-63485771D01*
X113498810Y-63485771D02*
X113546429Y-63581009D01*
X113546429Y-63581009D02*
X113546429Y-64104819D01*
X114451190Y-64104819D02*
X114451190Y-63581009D01*
X114451190Y-63581009D02*
X114403571Y-63485771D01*
X114403571Y-63485771D02*
X114308333Y-63438152D01*
X114308333Y-63438152D02*
X114117857Y-63438152D01*
X114117857Y-63438152D02*
X114022619Y-63485771D01*
X114451190Y-64057200D02*
X114355952Y-64104819D01*
X114355952Y-64104819D02*
X114117857Y-64104819D01*
X114117857Y-64104819D02*
X114022619Y-64057200D01*
X114022619Y-64057200D02*
X113975000Y-63961961D01*
X113975000Y-63961961D02*
X113975000Y-63866723D01*
X113975000Y-63866723D02*
X114022619Y-63771485D01*
X114022619Y-63771485D02*
X114117857Y-63723866D01*
X114117857Y-63723866D02*
X114355952Y-63723866D01*
X114355952Y-63723866D02*
X114451190Y-63676247D01*
X115070238Y-64104819D02*
X114975000Y-64057200D01*
X114975000Y-64057200D02*
X114927381Y-63961961D01*
X114927381Y-63961961D02*
X114927381Y-63104819D01*
X115832143Y-64057200D02*
X115736905Y-64104819D01*
X115736905Y-64104819D02*
X115546429Y-64104819D01*
X115546429Y-64104819D02*
X115451191Y-64057200D01*
X115451191Y-64057200D02*
X115403572Y-63961961D01*
X115403572Y-63961961D02*
X115403572Y-63581009D01*
X115403572Y-63581009D02*
X115451191Y-63485771D01*
X115451191Y-63485771D02*
X115546429Y-63438152D01*
X115546429Y-63438152D02*
X115736905Y-63438152D01*
X115736905Y-63438152D02*
X115832143Y-63485771D01*
X115832143Y-63485771D02*
X115879762Y-63581009D01*
X115879762Y-63581009D02*
X115879762Y-63676247D01*
X115879762Y-63676247D02*
X115403572Y-63771485D01*
X108141666Y-67004819D02*
X108141666Y-67719104D01*
X108141666Y-67719104D02*
X108094047Y-67861961D01*
X108094047Y-67861961D02*
X107998809Y-67957200D01*
X107998809Y-67957200D02*
X107855952Y-68004819D01*
X107855952Y-68004819D02*
X107760714Y-68004819D01*
X109141666Y-68004819D02*
X108570238Y-68004819D01*
X108855952Y-68004819D02*
X108855952Y-67004819D01*
X108855952Y-67004819D02*
X108760714Y-67147676D01*
X108760714Y-67147676D02*
X108665476Y-67242914D01*
X108665476Y-67242914D02*
X108570238Y-67290533D01*
X94541242Y-83336297D02*
X95184030Y-82570252D01*
X95184030Y-82570252D02*
X94980244Y-83331690D01*
X94980244Y-83331690D02*
X95694726Y-82998778D01*
X95694726Y-82998778D02*
X95051938Y-83764822D01*
X96008768Y-83883912D02*
X96087594Y-84012218D01*
X96087594Y-84012218D02*
X96093463Y-84079305D01*
X96093463Y-84079305D02*
X96068723Y-84182870D01*
X96068723Y-84182870D02*
X95976897Y-84292305D01*
X95976897Y-84292305D02*
X95879200Y-84334653D01*
X95879200Y-84334653D02*
X95812113Y-84340522D01*
X95812113Y-84340522D02*
X95708548Y-84315783D01*
X95708548Y-84315783D02*
X95416721Y-84070911D01*
X95416721Y-84070911D02*
X96059509Y-83304867D01*
X96059509Y-83304867D02*
X96314857Y-83519129D01*
X96314857Y-83519129D02*
X96357205Y-83616825D01*
X96357205Y-83616825D02*
X96363074Y-83683913D01*
X96363074Y-83683913D02*
X96338334Y-83787478D01*
X96338334Y-83787478D02*
X96277117Y-83860435D01*
X96277117Y-83860435D02*
X96179420Y-83902783D01*
X96179420Y-83902783D02*
X96112333Y-83908652D01*
X96112333Y-83908652D02*
X96008768Y-83883912D01*
X96008768Y-83883912D02*
X95753419Y-83669650D01*
X96620505Y-85081006D02*
X96671247Y-84501960D01*
X96182766Y-84713699D02*
X96825553Y-83947654D01*
X96825553Y-83947654D02*
X97117380Y-84192526D01*
X97117380Y-84192526D02*
X97159727Y-84290222D01*
X97159727Y-84290222D02*
X97165597Y-84357309D01*
X97165597Y-84357309D02*
X97140857Y-84460875D01*
X97140857Y-84460875D02*
X97049030Y-84570310D01*
X97049030Y-84570310D02*
X96951334Y-84612657D01*
X96951334Y-84612657D02*
X96884247Y-84618527D01*
X96884247Y-84618527D02*
X96780681Y-84593787D01*
X96780681Y-84593787D02*
X96488855Y-84348916D01*
X97737511Y-84712878D02*
X97810468Y-84774096D01*
X97810468Y-84774096D02*
X97852815Y-84871792D01*
X97852815Y-84871792D02*
X97858685Y-84938879D01*
X97858685Y-84938879D02*
X97833945Y-85042445D01*
X97833945Y-85042445D02*
X97747988Y-85218967D01*
X97747988Y-85218967D02*
X97594943Y-85401358D01*
X97594943Y-85401358D02*
X97436029Y-85516663D01*
X97436029Y-85516663D02*
X97338333Y-85559010D01*
X97338333Y-85559010D02*
X97271245Y-85564880D01*
X97271245Y-85564880D02*
X97167680Y-85540140D01*
X97167680Y-85540140D02*
X97094723Y-85478922D01*
X97094723Y-85478922D02*
X97052376Y-85381226D01*
X97052376Y-85381226D02*
X97046506Y-85314139D01*
X97046506Y-85314139D02*
X97071246Y-85210573D01*
X97071246Y-85210573D02*
X97157203Y-85034051D01*
X97157203Y-85034051D02*
X97310248Y-84851660D01*
X97310248Y-84851660D02*
X97469162Y-84736355D01*
X97469162Y-84736355D02*
X97566858Y-84694008D01*
X97566858Y-84694008D02*
X97633945Y-84688138D01*
X97633945Y-84688138D02*
X97737511Y-84712878D01*
X98685947Y-85508710D02*
X98321164Y-85202621D01*
X98321164Y-85202621D02*
X97978596Y-85536795D01*
X97978596Y-85536795D02*
X98045683Y-85530925D01*
X98045683Y-85530925D02*
X98149249Y-85555665D01*
X98149249Y-85555665D02*
X98331641Y-85708710D01*
X98331641Y-85708710D02*
X98373988Y-85806406D01*
X98373988Y-85806406D02*
X98379858Y-85873493D01*
X98379858Y-85873493D02*
X98355118Y-85977059D01*
X98355118Y-85977059D02*
X98202073Y-86159450D01*
X98202073Y-86159450D02*
X98104377Y-86201798D01*
X98104377Y-86201798D02*
X98037290Y-86207667D01*
X98037290Y-86207667D02*
X97933724Y-86182928D01*
X97933724Y-86182928D02*
X97751333Y-86029883D01*
X97751333Y-86029883D02*
X97708985Y-85932187D01*
X97708985Y-85932187D02*
X97703116Y-85865100D01*
X98977773Y-85753582D02*
X99451991Y-86151498D01*
X99451991Y-86151498D02*
X98951772Y-86229062D01*
X98951772Y-86229062D02*
X99061207Y-86320888D01*
X99061207Y-86320888D02*
X99103554Y-86418585D01*
X99103554Y-86418585D02*
X99109424Y-86485672D01*
X99109424Y-86485672D02*
X99084684Y-86589237D01*
X99084684Y-86589237D02*
X98931640Y-86771629D01*
X98931640Y-86771629D02*
X98833943Y-86813977D01*
X98833943Y-86813977D02*
X98766856Y-86819846D01*
X98766856Y-86819846D02*
X98663291Y-86795106D01*
X98663291Y-86795106D02*
X98444421Y-86611453D01*
X98444421Y-86611453D02*
X98402073Y-86513757D01*
X98402073Y-86513757D02*
X98396204Y-86446669D01*
X99926209Y-86549414D02*
X99999166Y-86610632D01*
X99999166Y-86610632D02*
X100041514Y-86708328D01*
X100041514Y-86708328D02*
X100047383Y-86775415D01*
X100047383Y-86775415D02*
X100022644Y-86878981D01*
X100022644Y-86878981D02*
X99936686Y-87055503D01*
X99936686Y-87055503D02*
X99783641Y-87237894D01*
X99783641Y-87237894D02*
X99624727Y-87353199D01*
X99624727Y-87353199D02*
X99527031Y-87395546D01*
X99527031Y-87395546D02*
X99459944Y-87401416D01*
X99459944Y-87401416D02*
X99356378Y-87376676D01*
X99356378Y-87376676D02*
X99283422Y-87315458D01*
X99283422Y-87315458D02*
X99241074Y-87217762D01*
X99241074Y-87217762D02*
X99235205Y-87150675D01*
X99235205Y-87150675D02*
X99259944Y-87047109D01*
X99259944Y-87047109D02*
X99345902Y-86870587D01*
X99345902Y-86870587D02*
X99498946Y-86688196D01*
X99498946Y-86688196D02*
X99657860Y-86572891D01*
X99657860Y-86572891D02*
X99755557Y-86530544D01*
X99755557Y-86530544D02*
X99822644Y-86524674D01*
X99822644Y-86524674D02*
X99926209Y-86549414D01*
X99091782Y-81802484D02*
X99734570Y-81036439D01*
X99734570Y-81036439D02*
X99916961Y-81189484D01*
X99916961Y-81189484D02*
X99995787Y-81317789D01*
X99995787Y-81317789D02*
X100007526Y-81451964D01*
X100007526Y-81451964D02*
X99982786Y-81555529D01*
X99982786Y-81555529D02*
X99896829Y-81732051D01*
X99896829Y-81732051D02*
X99805002Y-81841486D01*
X99805002Y-81841486D02*
X99646088Y-81956791D01*
X99646088Y-81956791D02*
X99548392Y-81999138D01*
X99548392Y-81999138D02*
X99414217Y-82010877D01*
X99414217Y-82010877D02*
X99274174Y-81955529D01*
X99274174Y-81955529D02*
X99091782Y-81802484D01*
X100614656Y-82210056D02*
X100186131Y-82720752D01*
X100677136Y-81765185D02*
X100035611Y-82159314D01*
X100035611Y-82159314D02*
X100509829Y-82557231D01*
X137727438Y-88714286D02*
X137679819Y-88809524D01*
X137679819Y-88809524D02*
X137679819Y-88952381D01*
X137679819Y-88952381D02*
X137727438Y-89095238D01*
X137727438Y-89095238D02*
X137822676Y-89190476D01*
X137822676Y-89190476D02*
X137917914Y-89238095D01*
X137917914Y-89238095D02*
X138108390Y-89285714D01*
X138108390Y-89285714D02*
X138251247Y-89285714D01*
X138251247Y-89285714D02*
X138441723Y-89238095D01*
X138441723Y-89238095D02*
X138536961Y-89190476D01*
X138536961Y-89190476D02*
X138632200Y-89095238D01*
X138632200Y-89095238D02*
X138679819Y-88952381D01*
X138679819Y-88952381D02*
X138679819Y-88857143D01*
X138679819Y-88857143D02*
X138632200Y-88714286D01*
X138632200Y-88714286D02*
X138584580Y-88666667D01*
X138584580Y-88666667D02*
X138251247Y-88666667D01*
X138251247Y-88666667D02*
X138251247Y-88857143D01*
X138584580Y-87666667D02*
X138632200Y-87714286D01*
X138632200Y-87714286D02*
X138679819Y-87857143D01*
X138679819Y-87857143D02*
X138679819Y-87952381D01*
X138679819Y-87952381D02*
X138632200Y-88095238D01*
X138632200Y-88095238D02*
X138536961Y-88190476D01*
X138536961Y-88190476D02*
X138441723Y-88238095D01*
X138441723Y-88238095D02*
X138251247Y-88285714D01*
X138251247Y-88285714D02*
X138108390Y-88285714D01*
X138108390Y-88285714D02*
X137917914Y-88238095D01*
X137917914Y-88238095D02*
X137822676Y-88190476D01*
X137822676Y-88190476D02*
X137727438Y-88095238D01*
X137727438Y-88095238D02*
X137679819Y-87952381D01*
X137679819Y-87952381D02*
X137679819Y-87857143D01*
X137679819Y-87857143D02*
X137727438Y-87714286D01*
X137727438Y-87714286D02*
X137775057Y-87666667D01*
X138679819Y-87190476D02*
X138679819Y-87000000D01*
X138679819Y-87000000D02*
X138632200Y-86904762D01*
X138632200Y-86904762D02*
X138584580Y-86857143D01*
X138584580Y-86857143D02*
X138441723Y-86761905D01*
X138441723Y-86761905D02*
X138251247Y-86714286D01*
X138251247Y-86714286D02*
X137870295Y-86714286D01*
X137870295Y-86714286D02*
X137775057Y-86761905D01*
X137775057Y-86761905D02*
X137727438Y-86809524D01*
X137727438Y-86809524D02*
X137679819Y-86904762D01*
X137679819Y-86904762D02*
X137679819Y-87095238D01*
X137679819Y-87095238D02*
X137727438Y-87190476D01*
X137727438Y-87190476D02*
X137775057Y-87238095D01*
X137775057Y-87238095D02*
X137870295Y-87285714D01*
X137870295Y-87285714D02*
X138108390Y-87285714D01*
X138108390Y-87285714D02*
X138203628Y-87238095D01*
X138203628Y-87238095D02*
X138251247Y-87190476D01*
X138251247Y-87190476D02*
X138298866Y-87095238D01*
X138298866Y-87095238D02*
X138298866Y-86904762D01*
X138298866Y-86904762D02*
X138251247Y-86809524D01*
X138251247Y-86809524D02*
X138203628Y-86761905D01*
X138203628Y-86761905D02*
X138108390Y-86714286D01*
X138394104Y-86333333D02*
X138394104Y-85857143D01*
X138679819Y-86428571D02*
X137679819Y-86095238D01*
X137679819Y-86095238D02*
X138679819Y-85761905D01*
X137679819Y-85238095D02*
X137679819Y-85142857D01*
X137679819Y-85142857D02*
X137727438Y-85047619D01*
X137727438Y-85047619D02*
X137775057Y-85000000D01*
X137775057Y-85000000D02*
X137870295Y-84952381D01*
X137870295Y-84952381D02*
X138060771Y-84904762D01*
X138060771Y-84904762D02*
X138298866Y-84904762D01*
X138298866Y-84904762D02*
X138489342Y-84952381D01*
X138489342Y-84952381D02*
X138584580Y-85000000D01*
X138584580Y-85000000D02*
X138632200Y-85047619D01*
X138632200Y-85047619D02*
X138679819Y-85142857D01*
X138679819Y-85142857D02*
X138679819Y-85238095D01*
X138679819Y-85238095D02*
X138632200Y-85333333D01*
X138632200Y-85333333D02*
X138584580Y-85380952D01*
X138584580Y-85380952D02*
X138489342Y-85428571D01*
X138489342Y-85428571D02*
X138298866Y-85476190D01*
X138298866Y-85476190D02*
X138060771Y-85476190D01*
X138060771Y-85476190D02*
X137870295Y-85428571D01*
X137870295Y-85428571D02*
X137775057Y-85380952D01*
X137775057Y-85380952D02*
X137727438Y-85333333D01*
X137727438Y-85333333D02*
X137679819Y-85238095D01*
X138679819Y-83952381D02*
X138679819Y-84523809D01*
X138679819Y-84238095D02*
X137679819Y-84238095D01*
X137679819Y-84238095D02*
X137822676Y-84333333D01*
X137822676Y-84333333D02*
X137917914Y-84428571D01*
X137917914Y-84428571D02*
X137965533Y-84523809D01*
X138775057Y-83761905D02*
X138775057Y-83000000D01*
X138679819Y-82761904D02*
X137679819Y-82761904D01*
X138679819Y-82285714D02*
X137679819Y-82285714D01*
X137679819Y-82285714D02*
X137679819Y-81904762D01*
X137679819Y-81904762D02*
X137727438Y-81809524D01*
X137727438Y-81809524D02*
X137775057Y-81761905D01*
X137775057Y-81761905D02*
X137870295Y-81714286D01*
X137870295Y-81714286D02*
X138013152Y-81714286D01*
X138013152Y-81714286D02*
X138108390Y-81761905D01*
X138108390Y-81761905D02*
X138156009Y-81809524D01*
X138156009Y-81809524D02*
X138203628Y-81904762D01*
X138203628Y-81904762D02*
X138203628Y-82285714D01*
X138632200Y-81333333D02*
X138679819Y-81190476D01*
X138679819Y-81190476D02*
X138679819Y-80952381D01*
X138679819Y-80952381D02*
X138632200Y-80857143D01*
X138632200Y-80857143D02*
X138584580Y-80809524D01*
X138584580Y-80809524D02*
X138489342Y-80761905D01*
X138489342Y-80761905D02*
X138394104Y-80761905D01*
X138394104Y-80761905D02*
X138298866Y-80809524D01*
X138298866Y-80809524D02*
X138251247Y-80857143D01*
X138251247Y-80857143D02*
X138203628Y-80952381D01*
X138203628Y-80952381D02*
X138156009Y-81142857D01*
X138156009Y-81142857D02*
X138108390Y-81238095D01*
X138108390Y-81238095D02*
X138060771Y-81285714D01*
X138060771Y-81285714D02*
X137965533Y-81333333D01*
X137965533Y-81333333D02*
X137870295Y-81333333D01*
X137870295Y-81333333D02*
X137775057Y-81285714D01*
X137775057Y-81285714D02*
X137727438Y-81238095D01*
X137727438Y-81238095D02*
X137679819Y-81142857D01*
X137679819Y-81142857D02*
X137679819Y-80904762D01*
X137679819Y-80904762D02*
X137727438Y-80761905D01*
X138775057Y-80571429D02*
X138775057Y-79809524D01*
X138679819Y-79142857D02*
X137679819Y-79142857D01*
X138632200Y-79142857D02*
X138679819Y-79238095D01*
X138679819Y-79238095D02*
X138679819Y-79428571D01*
X138679819Y-79428571D02*
X138632200Y-79523809D01*
X138632200Y-79523809D02*
X138584580Y-79571428D01*
X138584580Y-79571428D02*
X138489342Y-79619047D01*
X138489342Y-79619047D02*
X138203628Y-79619047D01*
X138203628Y-79619047D02*
X138108390Y-79571428D01*
X138108390Y-79571428D02*
X138060771Y-79523809D01*
X138060771Y-79523809D02*
X138013152Y-79428571D01*
X138013152Y-79428571D02*
X138013152Y-79238095D01*
X138013152Y-79238095D02*
X138060771Y-79142857D01*
X138679819Y-78666666D02*
X138013152Y-78666666D01*
X137679819Y-78666666D02*
X137727438Y-78714285D01*
X137727438Y-78714285D02*
X137775057Y-78666666D01*
X137775057Y-78666666D02*
X137727438Y-78619047D01*
X137727438Y-78619047D02*
X137679819Y-78666666D01*
X137679819Y-78666666D02*
X137775057Y-78666666D01*
X138632200Y-78238095D02*
X138679819Y-78142857D01*
X138679819Y-78142857D02*
X138679819Y-77952381D01*
X138679819Y-77952381D02*
X138632200Y-77857143D01*
X138632200Y-77857143D02*
X138536961Y-77809524D01*
X138536961Y-77809524D02*
X138489342Y-77809524D01*
X138489342Y-77809524D02*
X138394104Y-77857143D01*
X138394104Y-77857143D02*
X138346485Y-77952381D01*
X138346485Y-77952381D02*
X138346485Y-78095238D01*
X138346485Y-78095238D02*
X138298866Y-78190476D01*
X138298866Y-78190476D02*
X138203628Y-78238095D01*
X138203628Y-78238095D02*
X138156009Y-78238095D01*
X138156009Y-78238095D02*
X138060771Y-78190476D01*
X138060771Y-78190476D02*
X138013152Y-78095238D01*
X138013152Y-78095238D02*
X138013152Y-77952381D01*
X138013152Y-77952381D02*
X138060771Y-77857143D01*
X138013152Y-77380952D02*
X139013152Y-77380952D01*
X138060771Y-77380952D02*
X138013152Y-77285714D01*
X138013152Y-77285714D02*
X138013152Y-77095238D01*
X138013152Y-77095238D02*
X138060771Y-77000000D01*
X138060771Y-77000000D02*
X138108390Y-76952381D01*
X138108390Y-76952381D02*
X138203628Y-76904762D01*
X138203628Y-76904762D02*
X138489342Y-76904762D01*
X138489342Y-76904762D02*
X138584580Y-76952381D01*
X138584580Y-76952381D02*
X138632200Y-77000000D01*
X138632200Y-77000000D02*
X138679819Y-77095238D01*
X138679819Y-77095238D02*
X138679819Y-77285714D01*
X138679819Y-77285714D02*
X138632200Y-77380952D01*
X138679819Y-76333333D02*
X138632200Y-76428571D01*
X138632200Y-76428571D02*
X138536961Y-76476190D01*
X138536961Y-76476190D02*
X137679819Y-76476190D01*
X138679819Y-75523809D02*
X138156009Y-75523809D01*
X138156009Y-75523809D02*
X138060771Y-75571428D01*
X138060771Y-75571428D02*
X138013152Y-75666666D01*
X138013152Y-75666666D02*
X138013152Y-75857142D01*
X138013152Y-75857142D02*
X138060771Y-75952380D01*
X138632200Y-75523809D02*
X138679819Y-75619047D01*
X138679819Y-75619047D02*
X138679819Y-75857142D01*
X138679819Y-75857142D02*
X138632200Y-75952380D01*
X138632200Y-75952380D02*
X138536961Y-75999999D01*
X138536961Y-75999999D02*
X138441723Y-75999999D01*
X138441723Y-75999999D02*
X138346485Y-75952380D01*
X138346485Y-75952380D02*
X138298866Y-75857142D01*
X138298866Y-75857142D02*
X138298866Y-75619047D01*
X138298866Y-75619047D02*
X138251247Y-75523809D01*
X138013152Y-75142856D02*
X138679819Y-74904761D01*
X138013152Y-74666666D02*
X138679819Y-74904761D01*
X138679819Y-74904761D02*
X138917914Y-74999999D01*
X138917914Y-74999999D02*
X138965533Y-75047618D01*
X138965533Y-75047618D02*
X139013152Y-75142856D01*
X98973808Y-78007200D02*
X99116665Y-78054819D01*
X99116665Y-78054819D02*
X99354760Y-78054819D01*
X99354760Y-78054819D02*
X99449998Y-78007200D01*
X99449998Y-78007200D02*
X99497617Y-77959580D01*
X99497617Y-77959580D02*
X99545236Y-77864342D01*
X99545236Y-77864342D02*
X99545236Y-77769104D01*
X99545236Y-77769104D02*
X99497617Y-77673866D01*
X99497617Y-77673866D02*
X99449998Y-77626247D01*
X99449998Y-77626247D02*
X99354760Y-77578628D01*
X99354760Y-77578628D02*
X99164284Y-77531009D01*
X99164284Y-77531009D02*
X99069046Y-77483390D01*
X99069046Y-77483390D02*
X99021427Y-77435771D01*
X99021427Y-77435771D02*
X98973808Y-77340533D01*
X98973808Y-77340533D02*
X98973808Y-77245295D01*
X98973808Y-77245295D02*
X99021427Y-77150057D01*
X99021427Y-77150057D02*
X99069046Y-77102438D01*
X99069046Y-77102438D02*
X99164284Y-77054819D01*
X99164284Y-77054819D02*
X99402379Y-77054819D01*
X99402379Y-77054819D02*
X99545236Y-77102438D01*
X100116665Y-78054819D02*
X100021427Y-78007200D01*
X100021427Y-78007200D02*
X99973808Y-77959580D01*
X99973808Y-77959580D02*
X99926189Y-77864342D01*
X99926189Y-77864342D02*
X99926189Y-77578628D01*
X99926189Y-77578628D02*
X99973808Y-77483390D01*
X99973808Y-77483390D02*
X100021427Y-77435771D01*
X100021427Y-77435771D02*
X100116665Y-77388152D01*
X100116665Y-77388152D02*
X100259522Y-77388152D01*
X100259522Y-77388152D02*
X100354760Y-77435771D01*
X100354760Y-77435771D02*
X100402379Y-77483390D01*
X100402379Y-77483390D02*
X100449998Y-77578628D01*
X100449998Y-77578628D02*
X100449998Y-77864342D01*
X100449998Y-77864342D02*
X100402379Y-77959580D01*
X100402379Y-77959580D02*
X100354760Y-78007200D01*
X100354760Y-78007200D02*
X100259522Y-78054819D01*
X100259522Y-78054819D02*
X100116665Y-78054819D01*
X101021427Y-78054819D02*
X100926189Y-78007200D01*
X100926189Y-78007200D02*
X100878570Y-77911961D01*
X100878570Y-77911961D02*
X100878570Y-77054819D01*
X101830951Y-78054819D02*
X101830951Y-77054819D01*
X101830951Y-78007200D02*
X101735713Y-78054819D01*
X101735713Y-78054819D02*
X101545237Y-78054819D01*
X101545237Y-78054819D02*
X101449999Y-78007200D01*
X101449999Y-78007200D02*
X101402380Y-77959580D01*
X101402380Y-77959580D02*
X101354761Y-77864342D01*
X101354761Y-77864342D02*
X101354761Y-77578628D01*
X101354761Y-77578628D02*
X101402380Y-77483390D01*
X101402380Y-77483390D02*
X101449999Y-77435771D01*
X101449999Y-77435771D02*
X101545237Y-77388152D01*
X101545237Y-77388152D02*
X101735713Y-77388152D01*
X101735713Y-77388152D02*
X101830951Y-77435771D01*
X102688094Y-78007200D02*
X102592856Y-78054819D01*
X102592856Y-78054819D02*
X102402380Y-78054819D01*
X102402380Y-78054819D02*
X102307142Y-78007200D01*
X102307142Y-78007200D02*
X102259523Y-77911961D01*
X102259523Y-77911961D02*
X102259523Y-77531009D01*
X102259523Y-77531009D02*
X102307142Y-77435771D01*
X102307142Y-77435771D02*
X102402380Y-77388152D01*
X102402380Y-77388152D02*
X102592856Y-77388152D01*
X102592856Y-77388152D02*
X102688094Y-77435771D01*
X102688094Y-77435771D02*
X102735713Y-77531009D01*
X102735713Y-77531009D02*
X102735713Y-77626247D01*
X102735713Y-77626247D02*
X102259523Y-77721485D01*
X103164285Y-78054819D02*
X103164285Y-77388152D01*
X103164285Y-77578628D02*
X103211904Y-77483390D01*
X103211904Y-77483390D02*
X103259523Y-77435771D01*
X103259523Y-77435771D02*
X103354761Y-77388152D01*
X103354761Y-77388152D02*
X103449999Y-77388152D01*
X104069047Y-77054819D02*
X104069047Y-77769104D01*
X104069047Y-77769104D02*
X104021428Y-77911961D01*
X104021428Y-77911961D02*
X103926190Y-78007200D01*
X103926190Y-78007200D02*
X103783333Y-78054819D01*
X103783333Y-78054819D02*
X103688095Y-78054819D01*
X104973809Y-77388152D02*
X104973809Y-78054819D01*
X104545238Y-77388152D02*
X104545238Y-77911961D01*
X104545238Y-77911961D02*
X104592857Y-78007200D01*
X104592857Y-78007200D02*
X104688095Y-78054819D01*
X104688095Y-78054819D02*
X104830952Y-78054819D01*
X104830952Y-78054819D02*
X104926190Y-78007200D01*
X104926190Y-78007200D02*
X104973809Y-77959580D01*
X105450000Y-78054819D02*
X105450000Y-77388152D01*
X105450000Y-77483390D02*
X105497619Y-77435771D01*
X105497619Y-77435771D02*
X105592857Y-77388152D01*
X105592857Y-77388152D02*
X105735714Y-77388152D01*
X105735714Y-77388152D02*
X105830952Y-77435771D01*
X105830952Y-77435771D02*
X105878571Y-77531009D01*
X105878571Y-77531009D02*
X105878571Y-78054819D01*
X105878571Y-77531009D02*
X105926190Y-77435771D01*
X105926190Y-77435771D02*
X106021428Y-77388152D01*
X106021428Y-77388152D02*
X106164285Y-77388152D01*
X106164285Y-77388152D02*
X106259524Y-77435771D01*
X106259524Y-77435771D02*
X106307143Y-77531009D01*
X106307143Y-77531009D02*
X106307143Y-78054819D01*
X106783333Y-77388152D02*
X106783333Y-78388152D01*
X106783333Y-77435771D02*
X106878571Y-77388152D01*
X106878571Y-77388152D02*
X107069047Y-77388152D01*
X107069047Y-77388152D02*
X107164285Y-77435771D01*
X107164285Y-77435771D02*
X107211904Y-77483390D01*
X107211904Y-77483390D02*
X107259523Y-77578628D01*
X107259523Y-77578628D02*
X107259523Y-77864342D01*
X107259523Y-77864342D02*
X107211904Y-77959580D01*
X107211904Y-77959580D02*
X107164285Y-78007200D01*
X107164285Y-78007200D02*
X107069047Y-78054819D01*
X107069047Y-78054819D02*
X106878571Y-78054819D01*
X106878571Y-78054819D02*
X106783333Y-78007200D01*
X108069047Y-78007200D02*
X107973809Y-78054819D01*
X107973809Y-78054819D02*
X107783333Y-78054819D01*
X107783333Y-78054819D02*
X107688095Y-78007200D01*
X107688095Y-78007200D02*
X107640476Y-77911961D01*
X107640476Y-77911961D02*
X107640476Y-77531009D01*
X107640476Y-77531009D02*
X107688095Y-77435771D01*
X107688095Y-77435771D02*
X107783333Y-77388152D01*
X107783333Y-77388152D02*
X107973809Y-77388152D01*
X107973809Y-77388152D02*
X108069047Y-77435771D01*
X108069047Y-77435771D02*
X108116666Y-77531009D01*
X108116666Y-77531009D02*
X108116666Y-77626247D01*
X108116666Y-77626247D02*
X107640476Y-77721485D01*
X108545238Y-78054819D02*
X108545238Y-77388152D01*
X108545238Y-77578628D02*
X108592857Y-77483390D01*
X108592857Y-77483390D02*
X108640476Y-77435771D01*
X108640476Y-77435771D02*
X108735714Y-77388152D01*
X108735714Y-77388152D02*
X108830952Y-77388152D01*
X108926191Y-78150057D02*
X109688095Y-78150057D01*
X109878572Y-77150057D02*
X109926191Y-77102438D01*
X109926191Y-77102438D02*
X110021429Y-77054819D01*
X110021429Y-77054819D02*
X110259524Y-77054819D01*
X110259524Y-77054819D02*
X110354762Y-77102438D01*
X110354762Y-77102438D02*
X110402381Y-77150057D01*
X110402381Y-77150057D02*
X110450000Y-77245295D01*
X110450000Y-77245295D02*
X110450000Y-77340533D01*
X110450000Y-77340533D02*
X110402381Y-77483390D01*
X110402381Y-77483390D02*
X109830953Y-78054819D01*
X109830953Y-78054819D02*
X110450000Y-78054819D01*
X110640477Y-78150057D02*
X111402381Y-78150057D01*
X111830953Y-77054819D02*
X112021429Y-77054819D01*
X112021429Y-77054819D02*
X112116667Y-77102438D01*
X112116667Y-77102438D02*
X112211905Y-77197676D01*
X112211905Y-77197676D02*
X112259524Y-77388152D01*
X112259524Y-77388152D02*
X112259524Y-77721485D01*
X112259524Y-77721485D02*
X112211905Y-77911961D01*
X112211905Y-77911961D02*
X112116667Y-78007200D01*
X112116667Y-78007200D02*
X112021429Y-78054819D01*
X112021429Y-78054819D02*
X111830953Y-78054819D01*
X111830953Y-78054819D02*
X111735715Y-78007200D01*
X111735715Y-78007200D02*
X111640477Y-77911961D01*
X111640477Y-77911961D02*
X111592858Y-77721485D01*
X111592858Y-77721485D02*
X111592858Y-77388152D01*
X111592858Y-77388152D02*
X111640477Y-77197676D01*
X111640477Y-77197676D02*
X111735715Y-77102438D01*
X111735715Y-77102438D02*
X111830953Y-77054819D01*
X112688096Y-77388152D02*
X112688096Y-78388152D01*
X112688096Y-77435771D02*
X112783334Y-77388152D01*
X112783334Y-77388152D02*
X112973810Y-77388152D01*
X112973810Y-77388152D02*
X113069048Y-77435771D01*
X113069048Y-77435771D02*
X113116667Y-77483390D01*
X113116667Y-77483390D02*
X113164286Y-77578628D01*
X113164286Y-77578628D02*
X113164286Y-77864342D01*
X113164286Y-77864342D02*
X113116667Y-77959580D01*
X113116667Y-77959580D02*
X113069048Y-78007200D01*
X113069048Y-78007200D02*
X112973810Y-78054819D01*
X112973810Y-78054819D02*
X112783334Y-78054819D01*
X112783334Y-78054819D02*
X112688096Y-78007200D01*
X113973810Y-78007200D02*
X113878572Y-78054819D01*
X113878572Y-78054819D02*
X113688096Y-78054819D01*
X113688096Y-78054819D02*
X113592858Y-78007200D01*
X113592858Y-78007200D02*
X113545239Y-77911961D01*
X113545239Y-77911961D02*
X113545239Y-77531009D01*
X113545239Y-77531009D02*
X113592858Y-77435771D01*
X113592858Y-77435771D02*
X113688096Y-77388152D01*
X113688096Y-77388152D02*
X113878572Y-77388152D01*
X113878572Y-77388152D02*
X113973810Y-77435771D01*
X113973810Y-77435771D02*
X114021429Y-77531009D01*
X114021429Y-77531009D02*
X114021429Y-77626247D01*
X114021429Y-77626247D02*
X113545239Y-77721485D01*
X114450001Y-77388152D02*
X114450001Y-78054819D01*
X114450001Y-77483390D02*
X114497620Y-77435771D01*
X114497620Y-77435771D02*
X114592858Y-77388152D01*
X114592858Y-77388152D02*
X114735715Y-77388152D01*
X114735715Y-77388152D02*
X114830953Y-77435771D01*
X114830953Y-77435771D02*
X114878572Y-77531009D01*
X114878572Y-77531009D02*
X114878572Y-78054819D01*
X118309523Y-73104819D02*
X117738095Y-73104819D01*
X118023809Y-73104819D02*
X118023809Y-72104819D01*
X118023809Y-72104819D02*
X117928571Y-72247676D01*
X117928571Y-72247676D02*
X117833333Y-72342914D01*
X117833333Y-72342914D02*
X117738095Y-72390533D01*
X118928571Y-72104819D02*
X119023809Y-72104819D01*
X119023809Y-72104819D02*
X119119047Y-72152438D01*
X119119047Y-72152438D02*
X119166666Y-72200057D01*
X119166666Y-72200057D02*
X119214285Y-72295295D01*
X119214285Y-72295295D02*
X119261904Y-72485771D01*
X119261904Y-72485771D02*
X119261904Y-72723866D01*
X119261904Y-72723866D02*
X119214285Y-72914342D01*
X119214285Y-72914342D02*
X119166666Y-73009580D01*
X119166666Y-73009580D02*
X119119047Y-73057200D01*
X119119047Y-73057200D02*
X119023809Y-73104819D01*
X119023809Y-73104819D02*
X118928571Y-73104819D01*
X118928571Y-73104819D02*
X118833333Y-73057200D01*
X118833333Y-73057200D02*
X118785714Y-73009580D01*
X118785714Y-73009580D02*
X118738095Y-72914342D01*
X118738095Y-72914342D02*
X118690476Y-72723866D01*
X118690476Y-72723866D02*
X118690476Y-72485771D01*
X118690476Y-72485771D02*
X118738095Y-72295295D01*
X118738095Y-72295295D02*
X118785714Y-72200057D01*
X118785714Y-72200057D02*
X118833333Y-72152438D01*
X118833333Y-72152438D02*
X118928571Y-72104819D01*
X119690476Y-73104819D02*
X119690476Y-72104819D01*
X120261904Y-73104819D02*
X119833333Y-72533390D01*
X120261904Y-72104819D02*
X119690476Y-72676247D01*
D11*
X118916666Y-71227149D02*
X118750000Y-70989054D01*
X118630952Y-71227149D02*
X118630952Y-70727149D01*
X118630952Y-70727149D02*
X118821428Y-70727149D01*
X118821428Y-70727149D02*
X118869047Y-70750959D01*
X118869047Y-70750959D02*
X118892857Y-70774768D01*
X118892857Y-70774768D02*
X118916666Y-70822387D01*
X118916666Y-70822387D02*
X118916666Y-70893816D01*
X118916666Y-70893816D02*
X118892857Y-70941435D01*
X118892857Y-70941435D02*
X118869047Y-70965244D01*
X118869047Y-70965244D02*
X118821428Y-70989054D01*
X118821428Y-70989054D02*
X118630952Y-70989054D01*
X119369047Y-70727149D02*
X119130952Y-70727149D01*
X119130952Y-70727149D02*
X119107143Y-70965244D01*
X119107143Y-70965244D02*
X119130952Y-70941435D01*
X119130952Y-70941435D02*
X119178571Y-70917625D01*
X119178571Y-70917625D02*
X119297619Y-70917625D01*
X119297619Y-70917625D02*
X119345238Y-70941435D01*
X119345238Y-70941435D02*
X119369047Y-70965244D01*
X119369047Y-70965244D02*
X119392857Y-71012863D01*
X119392857Y-71012863D02*
X119392857Y-71131911D01*
X119392857Y-71131911D02*
X119369047Y-71179530D01*
X119369047Y-71179530D02*
X119345238Y-71203340D01*
X119345238Y-71203340D02*
X119297619Y-71227149D01*
X119297619Y-71227149D02*
X119178571Y-71227149D01*
X119178571Y-71227149D02*
X119130952Y-71203340D01*
X119130952Y-71203340D02*
X119107143Y-71179530D01*
D10*
X108004819Y-95614285D02*
X108004819Y-96185713D01*
X108004819Y-95899999D02*
X107004819Y-95899999D01*
X107004819Y-95899999D02*
X107147676Y-95995237D01*
X107147676Y-95995237D02*
X107242914Y-96090475D01*
X107242914Y-96090475D02*
X107290533Y-96185713D01*
X108004819Y-95185713D02*
X107004819Y-95185713D01*
X108004819Y-94614285D02*
X107433390Y-95042856D01*
X107004819Y-94614285D02*
X107576247Y-95185713D01*
D11*
X109427149Y-95483333D02*
X109189054Y-95649999D01*
X109427149Y-95769047D02*
X108927149Y-95769047D01*
X108927149Y-95769047D02*
X108927149Y-95578571D01*
X108927149Y-95578571D02*
X108950959Y-95530952D01*
X108950959Y-95530952D02*
X108974768Y-95507142D01*
X108974768Y-95507142D02*
X109022387Y-95483333D01*
X109022387Y-95483333D02*
X109093816Y-95483333D01*
X109093816Y-95483333D02*
X109141435Y-95507142D01*
X109141435Y-95507142D02*
X109165244Y-95530952D01*
X109165244Y-95530952D02*
X109189054Y-95578571D01*
X109189054Y-95578571D02*
X109189054Y-95769047D01*
X109427149Y-95007142D02*
X109427149Y-95292856D01*
X109427149Y-95149999D02*
X108927149Y-95149999D01*
X108927149Y-95149999D02*
X108998578Y-95197618D01*
X108998578Y-95197618D02*
X109046197Y-95245237D01*
X109046197Y-95245237D02*
X109070006Y-95292856D01*
D10*
X125607200Y-83726191D02*
X125654819Y-83583334D01*
X125654819Y-83583334D02*
X125654819Y-83345239D01*
X125654819Y-83345239D02*
X125607200Y-83250001D01*
X125607200Y-83250001D02*
X125559580Y-83202382D01*
X125559580Y-83202382D02*
X125464342Y-83154763D01*
X125464342Y-83154763D02*
X125369104Y-83154763D01*
X125369104Y-83154763D02*
X125273866Y-83202382D01*
X125273866Y-83202382D02*
X125226247Y-83250001D01*
X125226247Y-83250001D02*
X125178628Y-83345239D01*
X125178628Y-83345239D02*
X125131009Y-83535715D01*
X125131009Y-83535715D02*
X125083390Y-83630953D01*
X125083390Y-83630953D02*
X125035771Y-83678572D01*
X125035771Y-83678572D02*
X124940533Y-83726191D01*
X124940533Y-83726191D02*
X124845295Y-83726191D01*
X124845295Y-83726191D02*
X124750057Y-83678572D01*
X124750057Y-83678572D02*
X124702438Y-83630953D01*
X124702438Y-83630953D02*
X124654819Y-83535715D01*
X124654819Y-83535715D02*
X124654819Y-83297620D01*
X124654819Y-83297620D02*
X124702438Y-83154763D01*
X125654819Y-82583334D02*
X125607200Y-82678572D01*
X125607200Y-82678572D02*
X125559580Y-82726191D01*
X125559580Y-82726191D02*
X125464342Y-82773810D01*
X125464342Y-82773810D02*
X125178628Y-82773810D01*
X125178628Y-82773810D02*
X125083390Y-82726191D01*
X125083390Y-82726191D02*
X125035771Y-82678572D01*
X125035771Y-82678572D02*
X124988152Y-82583334D01*
X124988152Y-82583334D02*
X124988152Y-82440477D01*
X124988152Y-82440477D02*
X125035771Y-82345239D01*
X125035771Y-82345239D02*
X125083390Y-82297620D01*
X125083390Y-82297620D02*
X125178628Y-82250001D01*
X125178628Y-82250001D02*
X125464342Y-82250001D01*
X125464342Y-82250001D02*
X125559580Y-82297620D01*
X125559580Y-82297620D02*
X125607200Y-82345239D01*
X125607200Y-82345239D02*
X125654819Y-82440477D01*
X125654819Y-82440477D02*
X125654819Y-82583334D01*
X125654819Y-81678572D02*
X125607200Y-81773810D01*
X125607200Y-81773810D02*
X125511961Y-81821429D01*
X125511961Y-81821429D02*
X124654819Y-81821429D01*
X125654819Y-80869048D02*
X124654819Y-80869048D01*
X125607200Y-80869048D02*
X125654819Y-80964286D01*
X125654819Y-80964286D02*
X125654819Y-81154762D01*
X125654819Y-81154762D02*
X125607200Y-81250000D01*
X125607200Y-81250000D02*
X125559580Y-81297619D01*
X125559580Y-81297619D02*
X125464342Y-81345238D01*
X125464342Y-81345238D02*
X125178628Y-81345238D01*
X125178628Y-81345238D02*
X125083390Y-81297619D01*
X125083390Y-81297619D02*
X125035771Y-81250000D01*
X125035771Y-81250000D02*
X124988152Y-81154762D01*
X124988152Y-81154762D02*
X124988152Y-80964286D01*
X124988152Y-80964286D02*
X125035771Y-80869048D01*
X125607200Y-80011905D02*
X125654819Y-80107143D01*
X125654819Y-80107143D02*
X125654819Y-80297619D01*
X125654819Y-80297619D02*
X125607200Y-80392857D01*
X125607200Y-80392857D02*
X125511961Y-80440476D01*
X125511961Y-80440476D02*
X125131009Y-80440476D01*
X125131009Y-80440476D02*
X125035771Y-80392857D01*
X125035771Y-80392857D02*
X124988152Y-80297619D01*
X124988152Y-80297619D02*
X124988152Y-80107143D01*
X124988152Y-80107143D02*
X125035771Y-80011905D01*
X125035771Y-80011905D02*
X125131009Y-79964286D01*
X125131009Y-79964286D02*
X125226247Y-79964286D01*
X125226247Y-79964286D02*
X125321485Y-80440476D01*
X125654819Y-79535714D02*
X124988152Y-79535714D01*
X125178628Y-79535714D02*
X125083390Y-79488095D01*
X125083390Y-79488095D02*
X125035771Y-79440476D01*
X125035771Y-79440476D02*
X124988152Y-79345238D01*
X124988152Y-79345238D02*
X124988152Y-79250000D01*
X124654819Y-78630952D02*
X125369104Y-78630952D01*
X125369104Y-78630952D02*
X125511961Y-78678571D01*
X125511961Y-78678571D02*
X125607200Y-78773809D01*
X125607200Y-78773809D02*
X125654819Y-78916666D01*
X125654819Y-78916666D02*
X125654819Y-79011904D01*
X124988152Y-77726190D02*
X125654819Y-77726190D01*
X124988152Y-78154761D02*
X125511961Y-78154761D01*
X125511961Y-78154761D02*
X125607200Y-78107142D01*
X125607200Y-78107142D02*
X125654819Y-78011904D01*
X125654819Y-78011904D02*
X125654819Y-77869047D01*
X125654819Y-77869047D02*
X125607200Y-77773809D01*
X125607200Y-77773809D02*
X125559580Y-77726190D01*
X125654819Y-77249999D02*
X124988152Y-77249999D01*
X125083390Y-77249999D02*
X125035771Y-77202380D01*
X125035771Y-77202380D02*
X124988152Y-77107142D01*
X124988152Y-77107142D02*
X124988152Y-76964285D01*
X124988152Y-76964285D02*
X125035771Y-76869047D01*
X125035771Y-76869047D02*
X125131009Y-76821428D01*
X125131009Y-76821428D02*
X125654819Y-76821428D01*
X125131009Y-76821428D02*
X125035771Y-76773809D01*
X125035771Y-76773809D02*
X124988152Y-76678571D01*
X124988152Y-76678571D02*
X124988152Y-76535714D01*
X124988152Y-76535714D02*
X125035771Y-76440475D01*
X125035771Y-76440475D02*
X125131009Y-76392856D01*
X125131009Y-76392856D02*
X125654819Y-76392856D01*
X124988152Y-75916666D02*
X125988152Y-75916666D01*
X125035771Y-75916666D02*
X124988152Y-75821428D01*
X124988152Y-75821428D02*
X124988152Y-75630952D01*
X124988152Y-75630952D02*
X125035771Y-75535714D01*
X125035771Y-75535714D02*
X125083390Y-75488095D01*
X125083390Y-75488095D02*
X125178628Y-75440476D01*
X125178628Y-75440476D02*
X125464342Y-75440476D01*
X125464342Y-75440476D02*
X125559580Y-75488095D01*
X125559580Y-75488095D02*
X125607200Y-75535714D01*
X125607200Y-75535714D02*
X125654819Y-75630952D01*
X125654819Y-75630952D02*
X125654819Y-75821428D01*
X125654819Y-75821428D02*
X125607200Y-75916666D01*
X125607200Y-74630952D02*
X125654819Y-74726190D01*
X125654819Y-74726190D02*
X125654819Y-74916666D01*
X125654819Y-74916666D02*
X125607200Y-75011904D01*
X125607200Y-75011904D02*
X125511961Y-75059523D01*
X125511961Y-75059523D02*
X125131009Y-75059523D01*
X125131009Y-75059523D02*
X125035771Y-75011904D01*
X125035771Y-75011904D02*
X124988152Y-74916666D01*
X124988152Y-74916666D02*
X124988152Y-74726190D01*
X124988152Y-74726190D02*
X125035771Y-74630952D01*
X125035771Y-74630952D02*
X125131009Y-74583333D01*
X125131009Y-74583333D02*
X125226247Y-74583333D01*
X125226247Y-74583333D02*
X125321485Y-75059523D01*
X125654819Y-74154761D02*
X124988152Y-74154761D01*
X125178628Y-74154761D02*
X125083390Y-74107142D01*
X125083390Y-74107142D02*
X125035771Y-74059523D01*
X125035771Y-74059523D02*
X124988152Y-73964285D01*
X124988152Y-73964285D02*
X124988152Y-73869047D01*
X125750057Y-73773809D02*
X125750057Y-73011904D01*
X124750057Y-72821427D02*
X124702438Y-72773808D01*
X124702438Y-72773808D02*
X124654819Y-72678570D01*
X124654819Y-72678570D02*
X124654819Y-72440475D01*
X124654819Y-72440475D02*
X124702438Y-72345237D01*
X124702438Y-72345237D02*
X124750057Y-72297618D01*
X124750057Y-72297618D02*
X124845295Y-72249999D01*
X124845295Y-72249999D02*
X124940533Y-72249999D01*
X124940533Y-72249999D02*
X125083390Y-72297618D01*
X125083390Y-72297618D02*
X125654819Y-72869046D01*
X125654819Y-72869046D02*
X125654819Y-72249999D01*
X125750057Y-72059523D02*
X125750057Y-71297618D01*
X124654819Y-70869046D02*
X124654819Y-70678570D01*
X124654819Y-70678570D02*
X124702438Y-70583332D01*
X124702438Y-70583332D02*
X124797676Y-70488094D01*
X124797676Y-70488094D02*
X124988152Y-70440475D01*
X124988152Y-70440475D02*
X125321485Y-70440475D01*
X125321485Y-70440475D02*
X125511961Y-70488094D01*
X125511961Y-70488094D02*
X125607200Y-70583332D01*
X125607200Y-70583332D02*
X125654819Y-70678570D01*
X125654819Y-70678570D02*
X125654819Y-70869046D01*
X125654819Y-70869046D02*
X125607200Y-70964284D01*
X125607200Y-70964284D02*
X125511961Y-71059522D01*
X125511961Y-71059522D02*
X125321485Y-71107141D01*
X125321485Y-71107141D02*
X124988152Y-71107141D01*
X124988152Y-71107141D02*
X124797676Y-71059522D01*
X124797676Y-71059522D02*
X124702438Y-70964284D01*
X124702438Y-70964284D02*
X124654819Y-70869046D01*
X124988152Y-70011903D02*
X125988152Y-70011903D01*
X125035771Y-70011903D02*
X124988152Y-69916665D01*
X124988152Y-69916665D02*
X124988152Y-69726189D01*
X124988152Y-69726189D02*
X125035771Y-69630951D01*
X125035771Y-69630951D02*
X125083390Y-69583332D01*
X125083390Y-69583332D02*
X125178628Y-69535713D01*
X125178628Y-69535713D02*
X125464342Y-69535713D01*
X125464342Y-69535713D02*
X125559580Y-69583332D01*
X125559580Y-69583332D02*
X125607200Y-69630951D01*
X125607200Y-69630951D02*
X125654819Y-69726189D01*
X125654819Y-69726189D02*
X125654819Y-69916665D01*
X125654819Y-69916665D02*
X125607200Y-70011903D01*
X125607200Y-68726189D02*
X125654819Y-68821427D01*
X125654819Y-68821427D02*
X125654819Y-69011903D01*
X125654819Y-69011903D02*
X125607200Y-69107141D01*
X125607200Y-69107141D02*
X125511961Y-69154760D01*
X125511961Y-69154760D02*
X125131009Y-69154760D01*
X125131009Y-69154760D02*
X125035771Y-69107141D01*
X125035771Y-69107141D02*
X124988152Y-69011903D01*
X124988152Y-69011903D02*
X124988152Y-68821427D01*
X124988152Y-68821427D02*
X125035771Y-68726189D01*
X125035771Y-68726189D02*
X125131009Y-68678570D01*
X125131009Y-68678570D02*
X125226247Y-68678570D01*
X125226247Y-68678570D02*
X125321485Y-69154760D01*
X124988152Y-68249998D02*
X125654819Y-68249998D01*
X125083390Y-68249998D02*
X125035771Y-68202379D01*
X125035771Y-68202379D02*
X124988152Y-68107141D01*
X124988152Y-68107141D02*
X124988152Y-67964284D01*
X124988152Y-67964284D02*
X125035771Y-67869046D01*
X125035771Y-67869046D02*
X125131009Y-67821427D01*
X125131009Y-67821427D02*
X125654819Y-67821427D01*
X116452380Y-93334819D02*
X115880952Y-93334819D01*
X116166666Y-93334819D02*
X116166666Y-92334819D01*
X116166666Y-92334819D02*
X116071428Y-92477676D01*
X116071428Y-92477676D02*
X115976190Y-92572914D01*
X115976190Y-92572914D02*
X115880952Y-92620533D01*
X117071428Y-92334819D02*
X117166666Y-92334819D01*
X117166666Y-92334819D02*
X117261904Y-92382438D01*
X117261904Y-92382438D02*
X117309523Y-92430057D01*
X117309523Y-92430057D02*
X117357142Y-92525295D01*
X117357142Y-92525295D02*
X117404761Y-92715771D01*
X117404761Y-92715771D02*
X117404761Y-92953866D01*
X117404761Y-92953866D02*
X117357142Y-93144342D01*
X117357142Y-93144342D02*
X117309523Y-93239580D01*
X117309523Y-93239580D02*
X117261904Y-93287200D01*
X117261904Y-93287200D02*
X117166666Y-93334819D01*
X117166666Y-93334819D02*
X117071428Y-93334819D01*
X117071428Y-93334819D02*
X116976190Y-93287200D01*
X116976190Y-93287200D02*
X116928571Y-93239580D01*
X116928571Y-93239580D02*
X116880952Y-93144342D01*
X116880952Y-93144342D02*
X116833333Y-92953866D01*
X116833333Y-92953866D02*
X116833333Y-92715771D01*
X116833333Y-92715771D02*
X116880952Y-92525295D01*
X116880952Y-92525295D02*
X116928571Y-92430057D01*
X116928571Y-92430057D02*
X116976190Y-92382438D01*
X116976190Y-92382438D02*
X117071428Y-92334819D01*
X118023809Y-92334819D02*
X118119047Y-92334819D01*
X118119047Y-92334819D02*
X118214285Y-92382438D01*
X118214285Y-92382438D02*
X118261904Y-92430057D01*
X118261904Y-92430057D02*
X118309523Y-92525295D01*
X118309523Y-92525295D02*
X118357142Y-92715771D01*
X118357142Y-92715771D02*
X118357142Y-92953866D01*
X118357142Y-92953866D02*
X118309523Y-93144342D01*
X118309523Y-93144342D02*
X118261904Y-93239580D01*
X118261904Y-93239580D02*
X118214285Y-93287200D01*
X118214285Y-93287200D02*
X118119047Y-93334819D01*
X118119047Y-93334819D02*
X118023809Y-93334819D01*
X118023809Y-93334819D02*
X117928571Y-93287200D01*
X117928571Y-93287200D02*
X117880952Y-93239580D01*
X117880952Y-93239580D02*
X117833333Y-93144342D01*
X117833333Y-93144342D02*
X117785714Y-92953866D01*
X117785714Y-92953866D02*
X117785714Y-92715771D01*
X117785714Y-92715771D02*
X117833333Y-92525295D01*
X117833333Y-92525295D02*
X117880952Y-92430057D01*
X117880952Y-92430057D02*
X117928571Y-92382438D01*
X117928571Y-92382438D02*
X118023809Y-92334819D01*
X118785714Y-92668152D02*
X118785714Y-93334819D01*
X118785714Y-92763390D02*
X118833333Y-92715771D01*
X118833333Y-92715771D02*
X118928571Y-92668152D01*
X118928571Y-92668152D02*
X119071428Y-92668152D01*
X119071428Y-92668152D02*
X119166666Y-92715771D01*
X119166666Y-92715771D02*
X119214285Y-92811009D01*
X119214285Y-92811009D02*
X119214285Y-93334819D01*
X120023809Y-92811009D02*
X119690476Y-92811009D01*
X119690476Y-93334819D02*
X119690476Y-92334819D01*
X119690476Y-92334819D02*
X120166666Y-92334819D01*
D11*
X117916666Y-91379530D02*
X117892857Y-91403340D01*
X117892857Y-91403340D02*
X117821428Y-91427149D01*
X117821428Y-91427149D02*
X117773809Y-91427149D01*
X117773809Y-91427149D02*
X117702381Y-91403340D01*
X117702381Y-91403340D02*
X117654762Y-91355720D01*
X117654762Y-91355720D02*
X117630952Y-91308101D01*
X117630952Y-91308101D02*
X117607143Y-91212863D01*
X117607143Y-91212863D02*
X117607143Y-91141435D01*
X117607143Y-91141435D02*
X117630952Y-91046197D01*
X117630952Y-91046197D02*
X117654762Y-90998578D01*
X117654762Y-90998578D02*
X117702381Y-90950959D01*
X117702381Y-90950959D02*
X117773809Y-90927149D01*
X117773809Y-90927149D02*
X117821428Y-90927149D01*
X117821428Y-90927149D02*
X117892857Y-90950959D01*
X117892857Y-90950959D02*
X117916666Y-90974768D01*
X118392857Y-91427149D02*
X118107143Y-91427149D01*
X118250000Y-91427149D02*
X118250000Y-90927149D01*
X118250000Y-90927149D02*
X118202381Y-90998578D01*
X118202381Y-90998578D02*
X118154762Y-91046197D01*
X118154762Y-91046197D02*
X118107143Y-91070006D01*
D10*
X108652381Y-69804819D02*
X108747619Y-69804819D01*
X108747619Y-69804819D02*
X108842857Y-69852438D01*
X108842857Y-69852438D02*
X108890476Y-69900057D01*
X108890476Y-69900057D02*
X108938095Y-69995295D01*
X108938095Y-69995295D02*
X108985714Y-70185771D01*
X108985714Y-70185771D02*
X108985714Y-70423866D01*
X108985714Y-70423866D02*
X108938095Y-70614342D01*
X108938095Y-70614342D02*
X108890476Y-70709580D01*
X108890476Y-70709580D02*
X108842857Y-70757200D01*
X108842857Y-70757200D02*
X108747619Y-70804819D01*
X108747619Y-70804819D02*
X108652381Y-70804819D01*
X108652381Y-70804819D02*
X108557143Y-70757200D01*
X108557143Y-70757200D02*
X108509524Y-70709580D01*
X108509524Y-70709580D02*
X108461905Y-70614342D01*
X108461905Y-70614342D02*
X108414286Y-70423866D01*
X108414286Y-70423866D02*
X108414286Y-70185771D01*
X108414286Y-70185771D02*
X108461905Y-69995295D01*
X108461905Y-69995295D02*
X108509524Y-69900057D01*
X108509524Y-69900057D02*
X108557143Y-69852438D01*
X108557143Y-69852438D02*
X108652381Y-69804819D01*
X109985714Y-70804819D02*
X109652381Y-70328628D01*
X109414286Y-70804819D02*
X109414286Y-69804819D01*
X109414286Y-69804819D02*
X109795238Y-69804819D01*
X109795238Y-69804819D02*
X109890476Y-69852438D01*
X109890476Y-69852438D02*
X109938095Y-69900057D01*
X109938095Y-69900057D02*
X109985714Y-69995295D01*
X109985714Y-69995295D02*
X109985714Y-70138152D01*
X109985714Y-70138152D02*
X109938095Y-70233390D01*
X109938095Y-70233390D02*
X109890476Y-70281009D01*
X109890476Y-70281009D02*
X109795238Y-70328628D01*
X109795238Y-70328628D02*
X109414286Y-70328628D01*
D11*
X109116666Y-72227149D02*
X108950000Y-71989054D01*
X108830952Y-72227149D02*
X108830952Y-71727149D01*
X108830952Y-71727149D02*
X109021428Y-71727149D01*
X109021428Y-71727149D02*
X109069047Y-71750959D01*
X109069047Y-71750959D02*
X109092857Y-71774768D01*
X109092857Y-71774768D02*
X109116666Y-71822387D01*
X109116666Y-71822387D02*
X109116666Y-71893816D01*
X109116666Y-71893816D02*
X109092857Y-71941435D01*
X109092857Y-71941435D02*
X109069047Y-71965244D01*
X109069047Y-71965244D02*
X109021428Y-71989054D01*
X109021428Y-71989054D02*
X108830952Y-71989054D01*
X109402381Y-71941435D02*
X109354762Y-71917625D01*
X109354762Y-71917625D02*
X109330952Y-71893816D01*
X109330952Y-71893816D02*
X109307143Y-71846197D01*
X109307143Y-71846197D02*
X109307143Y-71822387D01*
X109307143Y-71822387D02*
X109330952Y-71774768D01*
X109330952Y-71774768D02*
X109354762Y-71750959D01*
X109354762Y-71750959D02*
X109402381Y-71727149D01*
X109402381Y-71727149D02*
X109497619Y-71727149D01*
X109497619Y-71727149D02*
X109545238Y-71750959D01*
X109545238Y-71750959D02*
X109569047Y-71774768D01*
X109569047Y-71774768D02*
X109592857Y-71822387D01*
X109592857Y-71822387D02*
X109592857Y-71846197D01*
X109592857Y-71846197D02*
X109569047Y-71893816D01*
X109569047Y-71893816D02*
X109545238Y-71917625D01*
X109545238Y-71917625D02*
X109497619Y-71941435D01*
X109497619Y-71941435D02*
X109402381Y-71941435D01*
X109402381Y-71941435D02*
X109354762Y-71965244D01*
X109354762Y-71965244D02*
X109330952Y-71989054D01*
X109330952Y-71989054D02*
X109307143Y-72036673D01*
X109307143Y-72036673D02*
X109307143Y-72131911D01*
X109307143Y-72131911D02*
X109330952Y-72179530D01*
X109330952Y-72179530D02*
X109354762Y-72203340D01*
X109354762Y-72203340D02*
X109402381Y-72227149D01*
X109402381Y-72227149D02*
X109497619Y-72227149D01*
X109497619Y-72227149D02*
X109545238Y-72203340D01*
X109545238Y-72203340D02*
X109569047Y-72179530D01*
X109569047Y-72179530D02*
X109592857Y-72131911D01*
X109592857Y-72131911D02*
X109592857Y-72036673D01*
X109592857Y-72036673D02*
X109569047Y-71989054D01*
X109569047Y-71989054D02*
X109545238Y-71965244D01*
X109545238Y-71965244D02*
X109497619Y-71941435D01*
D10*
X94677269Y-86675697D02*
X95320057Y-85909652D01*
X95320057Y-85909652D02*
X95116271Y-86671090D01*
X95116271Y-86671090D02*
X95830753Y-86338178D01*
X95830753Y-86338178D02*
X95187965Y-87104222D01*
X96144795Y-87223312D02*
X96223621Y-87351618D01*
X96223621Y-87351618D02*
X96229490Y-87418705D01*
X96229490Y-87418705D02*
X96204750Y-87522270D01*
X96204750Y-87522270D02*
X96112924Y-87631705D01*
X96112924Y-87631705D02*
X96015227Y-87674053D01*
X96015227Y-87674053D02*
X95948140Y-87679922D01*
X95948140Y-87679922D02*
X95844575Y-87655183D01*
X95844575Y-87655183D02*
X95552748Y-87410311D01*
X95552748Y-87410311D02*
X96195536Y-86644267D01*
X96195536Y-86644267D02*
X96450884Y-86858529D01*
X96450884Y-86858529D02*
X96493232Y-86956225D01*
X96493232Y-86956225D02*
X96499101Y-87023313D01*
X96499101Y-87023313D02*
X96474361Y-87126878D01*
X96474361Y-87126878D02*
X96413144Y-87199835D01*
X96413144Y-87199835D02*
X96315447Y-87242183D01*
X96315447Y-87242183D02*
X96248360Y-87248052D01*
X96248360Y-87248052D02*
X96144795Y-87223312D01*
X96144795Y-87223312D02*
X95889446Y-87009050D01*
X96756532Y-88420406D02*
X96807274Y-87841360D01*
X96318793Y-88053099D02*
X96961580Y-87287054D01*
X96961580Y-87287054D02*
X97253407Y-87531926D01*
X97253407Y-87531926D02*
X97295754Y-87629622D01*
X97295754Y-87629622D02*
X97301624Y-87696709D01*
X97301624Y-87696709D02*
X97276884Y-87800275D01*
X97276884Y-87800275D02*
X97185057Y-87909710D01*
X97185057Y-87909710D02*
X97087361Y-87952057D01*
X97087361Y-87952057D02*
X97020274Y-87957927D01*
X97020274Y-87957927D02*
X96916708Y-87933187D01*
X96916708Y-87933187D02*
X96624882Y-87688316D01*
X97873538Y-88052278D02*
X97946495Y-88113496D01*
X97946495Y-88113496D02*
X97988842Y-88211192D01*
X97988842Y-88211192D02*
X97994712Y-88278279D01*
X97994712Y-88278279D02*
X97969972Y-88381845D01*
X97969972Y-88381845D02*
X97884015Y-88558367D01*
X97884015Y-88558367D02*
X97730970Y-88740758D01*
X97730970Y-88740758D02*
X97572056Y-88856063D01*
X97572056Y-88856063D02*
X97474360Y-88898410D01*
X97474360Y-88898410D02*
X97407272Y-88904280D01*
X97407272Y-88904280D02*
X97303707Y-88879540D01*
X97303707Y-88879540D02*
X97230750Y-88818322D01*
X97230750Y-88818322D02*
X97188403Y-88720626D01*
X97188403Y-88720626D02*
X97182533Y-88653539D01*
X97182533Y-88653539D02*
X97207273Y-88549973D01*
X97207273Y-88549973D02*
X97293230Y-88373451D01*
X97293230Y-88373451D02*
X97446275Y-88191060D01*
X97446275Y-88191060D02*
X97605189Y-88075755D01*
X97605189Y-88075755D02*
X97702885Y-88033408D01*
X97702885Y-88033408D02*
X97769972Y-88027538D01*
X97769972Y-88027538D02*
X97873538Y-88052278D01*
X98821974Y-88848110D02*
X98457191Y-88542021D01*
X98457191Y-88542021D02*
X98114623Y-88876195D01*
X98114623Y-88876195D02*
X98181710Y-88870325D01*
X98181710Y-88870325D02*
X98285276Y-88895065D01*
X98285276Y-88895065D02*
X98467668Y-89048110D01*
X98467668Y-89048110D02*
X98510015Y-89145806D01*
X98510015Y-89145806D02*
X98515885Y-89212893D01*
X98515885Y-89212893D02*
X98491145Y-89316459D01*
X98491145Y-89316459D02*
X98338100Y-89498850D01*
X98338100Y-89498850D02*
X98240404Y-89541198D01*
X98240404Y-89541198D02*
X98173317Y-89547067D01*
X98173317Y-89547067D02*
X98069751Y-89522328D01*
X98069751Y-89522328D02*
X97887360Y-89369283D01*
X97887360Y-89369283D02*
X97845012Y-89271587D01*
X97845012Y-89271587D02*
X97839143Y-89204500D01*
X99113800Y-89092982D02*
X99588018Y-89490898D01*
X99588018Y-89490898D02*
X99087799Y-89568462D01*
X99087799Y-89568462D02*
X99197234Y-89660288D01*
X99197234Y-89660288D02*
X99239581Y-89757985D01*
X99239581Y-89757985D02*
X99245451Y-89825072D01*
X99245451Y-89825072D02*
X99220711Y-89928637D01*
X99220711Y-89928637D02*
X99067667Y-90111029D01*
X99067667Y-90111029D02*
X98969970Y-90153377D01*
X98969970Y-90153377D02*
X98902883Y-90159246D01*
X98902883Y-90159246D02*
X98799318Y-90134506D01*
X98799318Y-90134506D02*
X98580448Y-89950853D01*
X98580448Y-89950853D02*
X98538100Y-89853157D01*
X98538100Y-89853157D02*
X98532231Y-89786069D01*
X100062236Y-89888814D02*
X100135193Y-89950032D01*
X100135193Y-89950032D02*
X100177541Y-90047728D01*
X100177541Y-90047728D02*
X100183410Y-90114815D01*
X100183410Y-90114815D02*
X100158671Y-90218381D01*
X100158671Y-90218381D02*
X100072713Y-90394903D01*
X100072713Y-90394903D02*
X99919668Y-90577294D01*
X99919668Y-90577294D02*
X99760754Y-90692599D01*
X99760754Y-90692599D02*
X99663058Y-90734946D01*
X99663058Y-90734946D02*
X99595971Y-90740816D01*
X99595971Y-90740816D02*
X99492405Y-90716076D01*
X99492405Y-90716076D02*
X99419449Y-90654858D01*
X99419449Y-90654858D02*
X99377101Y-90557162D01*
X99377101Y-90557162D02*
X99371232Y-90490075D01*
X99371232Y-90490075D02*
X99395971Y-90386509D01*
X99395971Y-90386509D02*
X99481929Y-90209987D01*
X99481929Y-90209987D02*
X99634973Y-90027596D01*
X99634973Y-90027596D02*
X99793887Y-89912291D01*
X99793887Y-89912291D02*
X99891584Y-89869944D01*
X99891584Y-89869944D02*
X99958671Y-89864074D01*
X99958671Y-89864074D02*
X100062236Y-89888814D01*
X99227809Y-85141884D02*
X99870597Y-84375839D01*
X99870597Y-84375839D02*
X100052988Y-84528884D01*
X100052988Y-84528884D02*
X100131814Y-84657189D01*
X100131814Y-84657189D02*
X100143553Y-84791364D01*
X100143553Y-84791364D02*
X100118813Y-84894929D01*
X100118813Y-84894929D02*
X100032856Y-85071451D01*
X100032856Y-85071451D02*
X99941029Y-85180886D01*
X99941029Y-85180886D02*
X99782115Y-85296191D01*
X99782115Y-85296191D02*
X99684419Y-85338538D01*
X99684419Y-85338538D02*
X99550244Y-85350277D01*
X99550244Y-85350277D02*
X99410201Y-85294929D01*
X99410201Y-85294929D02*
X99227809Y-85141884D01*
X100563684Y-84957409D02*
X101037902Y-85355325D01*
X101037902Y-85355325D02*
X100537683Y-85432889D01*
X100537683Y-85432889D02*
X100647118Y-85524716D01*
X100647118Y-85524716D02*
X100689465Y-85622412D01*
X100689465Y-85622412D02*
X100695335Y-85689500D01*
X100695335Y-85689500D02*
X100670595Y-85793065D01*
X100670595Y-85793065D02*
X100517551Y-85975457D01*
X100517551Y-85975457D02*
X100419854Y-86017804D01*
X100419854Y-86017804D02*
X100352767Y-86023674D01*
X100352767Y-86023674D02*
X100249202Y-85998934D01*
X100249202Y-85998934D02*
X100030332Y-85815280D01*
X100030332Y-85815280D02*
X99987984Y-85717584D01*
X99987984Y-85717584D02*
X99982115Y-85650497D01*
X113052380Y-71534819D02*
X112480952Y-71534819D01*
X112766666Y-71534819D02*
X112766666Y-70534819D01*
X112766666Y-70534819D02*
X112671428Y-70677676D01*
X112671428Y-70677676D02*
X112576190Y-70772914D01*
X112576190Y-70772914D02*
X112480952Y-70820533D01*
X113671428Y-70534819D02*
X113766666Y-70534819D01*
X113766666Y-70534819D02*
X113861904Y-70582438D01*
X113861904Y-70582438D02*
X113909523Y-70630057D01*
X113909523Y-70630057D02*
X113957142Y-70725295D01*
X113957142Y-70725295D02*
X114004761Y-70915771D01*
X114004761Y-70915771D02*
X114004761Y-71153866D01*
X114004761Y-71153866D02*
X113957142Y-71344342D01*
X113957142Y-71344342D02*
X113909523Y-71439580D01*
X113909523Y-71439580D02*
X113861904Y-71487200D01*
X113861904Y-71487200D02*
X113766666Y-71534819D01*
X113766666Y-71534819D02*
X113671428Y-71534819D01*
X113671428Y-71534819D02*
X113576190Y-71487200D01*
X113576190Y-71487200D02*
X113528571Y-71439580D01*
X113528571Y-71439580D02*
X113480952Y-71344342D01*
X113480952Y-71344342D02*
X113433333Y-71153866D01*
X113433333Y-71153866D02*
X113433333Y-70915771D01*
X113433333Y-70915771D02*
X113480952Y-70725295D01*
X113480952Y-70725295D02*
X113528571Y-70630057D01*
X113528571Y-70630057D02*
X113576190Y-70582438D01*
X113576190Y-70582438D02*
X113671428Y-70534819D01*
X114623809Y-70534819D02*
X114719047Y-70534819D01*
X114719047Y-70534819D02*
X114814285Y-70582438D01*
X114814285Y-70582438D02*
X114861904Y-70630057D01*
X114861904Y-70630057D02*
X114909523Y-70725295D01*
X114909523Y-70725295D02*
X114957142Y-70915771D01*
X114957142Y-70915771D02*
X114957142Y-71153866D01*
X114957142Y-71153866D02*
X114909523Y-71344342D01*
X114909523Y-71344342D02*
X114861904Y-71439580D01*
X114861904Y-71439580D02*
X114814285Y-71487200D01*
X114814285Y-71487200D02*
X114719047Y-71534819D01*
X114719047Y-71534819D02*
X114623809Y-71534819D01*
X114623809Y-71534819D02*
X114528571Y-71487200D01*
X114528571Y-71487200D02*
X114480952Y-71439580D01*
X114480952Y-71439580D02*
X114433333Y-71344342D01*
X114433333Y-71344342D02*
X114385714Y-71153866D01*
X114385714Y-71153866D02*
X114385714Y-70915771D01*
X114385714Y-70915771D02*
X114433333Y-70725295D01*
X114433333Y-70725295D02*
X114480952Y-70630057D01*
X114480952Y-70630057D02*
X114528571Y-70582438D01*
X114528571Y-70582438D02*
X114623809Y-70534819D01*
X115385714Y-70868152D02*
X115385714Y-71534819D01*
X115385714Y-70963390D02*
X115433333Y-70915771D01*
X115433333Y-70915771D02*
X115528571Y-70868152D01*
X115528571Y-70868152D02*
X115671428Y-70868152D01*
X115671428Y-70868152D02*
X115766666Y-70915771D01*
X115766666Y-70915771D02*
X115814285Y-71011009D01*
X115814285Y-71011009D02*
X115814285Y-71534819D01*
X116623809Y-71011009D02*
X116290476Y-71011009D01*
X116290476Y-71534819D02*
X116290476Y-70534819D01*
X116290476Y-70534819D02*
X116766666Y-70534819D01*
D11*
X114516666Y-69579530D02*
X114492857Y-69603340D01*
X114492857Y-69603340D02*
X114421428Y-69627149D01*
X114421428Y-69627149D02*
X114373809Y-69627149D01*
X114373809Y-69627149D02*
X114302381Y-69603340D01*
X114302381Y-69603340D02*
X114254762Y-69555720D01*
X114254762Y-69555720D02*
X114230952Y-69508101D01*
X114230952Y-69508101D02*
X114207143Y-69412863D01*
X114207143Y-69412863D02*
X114207143Y-69341435D01*
X114207143Y-69341435D02*
X114230952Y-69246197D01*
X114230952Y-69246197D02*
X114254762Y-69198578D01*
X114254762Y-69198578D02*
X114302381Y-69150959D01*
X114302381Y-69150959D02*
X114373809Y-69127149D01*
X114373809Y-69127149D02*
X114421428Y-69127149D01*
X114421428Y-69127149D02*
X114492857Y-69150959D01*
X114492857Y-69150959D02*
X114516666Y-69174768D01*
X114945238Y-69293816D02*
X114945238Y-69627149D01*
X114826190Y-69103340D02*
X114707143Y-69460482D01*
X114707143Y-69460482D02*
X115016666Y-69460482D01*
D10*
X117585714Y-94604819D02*
X117014286Y-94604819D01*
X117300000Y-94604819D02*
X117300000Y-93604819D01*
X117300000Y-93604819D02*
X117204762Y-93747676D01*
X117204762Y-93747676D02*
X117109524Y-93842914D01*
X117109524Y-93842914D02*
X117014286Y-93890533D01*
X118014286Y-94604819D02*
X118014286Y-93604819D01*
X118585714Y-94604819D02*
X118157143Y-94033390D01*
X118585714Y-93604819D02*
X118014286Y-94176247D01*
D11*
X117716666Y-96027149D02*
X117550000Y-95789054D01*
X117430952Y-96027149D02*
X117430952Y-95527149D01*
X117430952Y-95527149D02*
X117621428Y-95527149D01*
X117621428Y-95527149D02*
X117669047Y-95550959D01*
X117669047Y-95550959D02*
X117692857Y-95574768D01*
X117692857Y-95574768D02*
X117716666Y-95622387D01*
X117716666Y-95622387D02*
X117716666Y-95693816D01*
X117716666Y-95693816D02*
X117692857Y-95741435D01*
X117692857Y-95741435D02*
X117669047Y-95765244D01*
X117669047Y-95765244D02*
X117621428Y-95789054D01*
X117621428Y-95789054D02*
X117430952Y-95789054D01*
X118145238Y-95693816D02*
X118145238Y-96027149D01*
X118026190Y-95503340D02*
X117907143Y-95860482D01*
X117907143Y-95860482D02*
X118216666Y-95860482D01*
D10*
X124466666Y-89704819D02*
X125038094Y-89704819D01*
X124752380Y-90704819D02*
X124752380Y-89704819D01*
X125752380Y-90657200D02*
X125657142Y-90704819D01*
X125657142Y-90704819D02*
X125466666Y-90704819D01*
X125466666Y-90704819D02*
X125371428Y-90657200D01*
X125371428Y-90657200D02*
X125323809Y-90561961D01*
X125323809Y-90561961D02*
X125323809Y-90181009D01*
X125323809Y-90181009D02*
X125371428Y-90085771D01*
X125371428Y-90085771D02*
X125466666Y-90038152D01*
X125466666Y-90038152D02*
X125657142Y-90038152D01*
X125657142Y-90038152D02*
X125752380Y-90085771D01*
X125752380Y-90085771D02*
X125799999Y-90181009D01*
X125799999Y-90181009D02*
X125799999Y-90276247D01*
X125799999Y-90276247D02*
X125323809Y-90371485D01*
X126180952Y-90657200D02*
X126276190Y-90704819D01*
X126276190Y-90704819D02*
X126466666Y-90704819D01*
X126466666Y-90704819D02*
X126561904Y-90657200D01*
X126561904Y-90657200D02*
X126609523Y-90561961D01*
X126609523Y-90561961D02*
X126609523Y-90514342D01*
X126609523Y-90514342D02*
X126561904Y-90419104D01*
X126561904Y-90419104D02*
X126466666Y-90371485D01*
X126466666Y-90371485D02*
X126323809Y-90371485D01*
X126323809Y-90371485D02*
X126228571Y-90323866D01*
X126228571Y-90323866D02*
X126180952Y-90228628D01*
X126180952Y-90228628D02*
X126180952Y-90181009D01*
X126180952Y-90181009D02*
X126228571Y-90085771D01*
X126228571Y-90085771D02*
X126323809Y-90038152D01*
X126323809Y-90038152D02*
X126466666Y-90038152D01*
X126466666Y-90038152D02*
X126561904Y-90085771D01*
X126895238Y-90038152D02*
X127276190Y-90038152D01*
X127038095Y-89704819D02*
X127038095Y-90561961D01*
X127038095Y-90561961D02*
X127085714Y-90657200D01*
X127085714Y-90657200D02*
X127180952Y-90704819D01*
X127180952Y-90704819D02*
X127276190Y-90704819D01*
X127609524Y-90704819D02*
X127609524Y-89704819D01*
X127609524Y-89704819D02*
X127990476Y-89704819D01*
X127990476Y-89704819D02*
X128085714Y-89752438D01*
X128085714Y-89752438D02*
X128133333Y-89800057D01*
X128133333Y-89800057D02*
X128180952Y-89895295D01*
X128180952Y-89895295D02*
X128180952Y-90038152D01*
X128180952Y-90038152D02*
X128133333Y-90133390D01*
X128133333Y-90133390D02*
X128085714Y-90181009D01*
X128085714Y-90181009D02*
X127990476Y-90228628D01*
X127990476Y-90228628D02*
X127609524Y-90228628D01*
X128752381Y-90704819D02*
X128657143Y-90657200D01*
X128657143Y-90657200D02*
X128609524Y-90609580D01*
X128609524Y-90609580D02*
X128561905Y-90514342D01*
X128561905Y-90514342D02*
X128561905Y-90228628D01*
X128561905Y-90228628D02*
X128609524Y-90133390D01*
X128609524Y-90133390D02*
X128657143Y-90085771D01*
X128657143Y-90085771D02*
X128752381Y-90038152D01*
X128752381Y-90038152D02*
X128895238Y-90038152D01*
X128895238Y-90038152D02*
X128990476Y-90085771D01*
X128990476Y-90085771D02*
X129038095Y-90133390D01*
X129038095Y-90133390D02*
X129085714Y-90228628D01*
X129085714Y-90228628D02*
X129085714Y-90514342D01*
X129085714Y-90514342D02*
X129038095Y-90609580D01*
X129038095Y-90609580D02*
X128990476Y-90657200D01*
X128990476Y-90657200D02*
X128895238Y-90704819D01*
X128895238Y-90704819D02*
X128752381Y-90704819D01*
X129514286Y-90704819D02*
X129514286Y-90038152D01*
X129514286Y-89704819D02*
X129466667Y-89752438D01*
X129466667Y-89752438D02*
X129514286Y-89800057D01*
X129514286Y-89800057D02*
X129561905Y-89752438D01*
X129561905Y-89752438D02*
X129514286Y-89704819D01*
X129514286Y-89704819D02*
X129514286Y-89800057D01*
X129990476Y-90038152D02*
X129990476Y-90704819D01*
X129990476Y-90133390D02*
X130038095Y-90085771D01*
X130038095Y-90085771D02*
X130133333Y-90038152D01*
X130133333Y-90038152D02*
X130276190Y-90038152D01*
X130276190Y-90038152D02*
X130371428Y-90085771D01*
X130371428Y-90085771D02*
X130419047Y-90181009D01*
X130419047Y-90181009D02*
X130419047Y-90704819D01*
X130752381Y-90038152D02*
X131133333Y-90038152D01*
X130895238Y-89704819D02*
X130895238Y-90561961D01*
X130895238Y-90561961D02*
X130942857Y-90657200D01*
X130942857Y-90657200D02*
X131038095Y-90704819D01*
X131038095Y-90704819D02*
X131133333Y-90704819D01*
X127180952Y-87704819D02*
X126847619Y-87228628D01*
X126609524Y-87704819D02*
X126609524Y-86704819D01*
X126609524Y-86704819D02*
X126990476Y-86704819D01*
X126990476Y-86704819D02*
X127085714Y-86752438D01*
X127085714Y-86752438D02*
X127133333Y-86800057D01*
X127133333Y-86800057D02*
X127180952Y-86895295D01*
X127180952Y-86895295D02*
X127180952Y-87038152D01*
X127180952Y-87038152D02*
X127133333Y-87133390D01*
X127133333Y-87133390D02*
X127085714Y-87181009D01*
X127085714Y-87181009D02*
X126990476Y-87228628D01*
X126990476Y-87228628D02*
X126609524Y-87228628D01*
X127609524Y-87181009D02*
X127942857Y-87181009D01*
X128085714Y-87704819D02*
X127609524Y-87704819D01*
X127609524Y-87704819D02*
X127609524Y-86704819D01*
X127609524Y-86704819D02*
X128085714Y-86704819D01*
X128466667Y-87657200D02*
X128609524Y-87704819D01*
X128609524Y-87704819D02*
X128847619Y-87704819D01*
X128847619Y-87704819D02*
X128942857Y-87657200D01*
X128942857Y-87657200D02*
X128990476Y-87609580D01*
X128990476Y-87609580D02*
X129038095Y-87514342D01*
X129038095Y-87514342D02*
X129038095Y-87419104D01*
X129038095Y-87419104D02*
X128990476Y-87323866D01*
X128990476Y-87323866D02*
X128942857Y-87276247D01*
X128942857Y-87276247D02*
X128847619Y-87228628D01*
X128847619Y-87228628D02*
X128657143Y-87181009D01*
X128657143Y-87181009D02*
X128561905Y-87133390D01*
X128561905Y-87133390D02*
X128514286Y-87085771D01*
X128514286Y-87085771D02*
X128466667Y-86990533D01*
X128466667Y-86990533D02*
X128466667Y-86895295D01*
X128466667Y-86895295D02*
X128514286Y-86800057D01*
X128514286Y-86800057D02*
X128561905Y-86752438D01*
X128561905Y-86752438D02*
X128657143Y-86704819D01*
X128657143Y-86704819D02*
X128895238Y-86704819D01*
X128895238Y-86704819D02*
X129038095Y-86752438D01*
X103832738Y-70108152D02*
X103832738Y-70774819D01*
X103594643Y-69727200D02*
X103356548Y-70441485D01*
X103356548Y-70441485D02*
X103975595Y-70441485D01*
X104356548Y-70679580D02*
X104404167Y-70727200D01*
X104404167Y-70727200D02*
X104356548Y-70774819D01*
X104356548Y-70774819D02*
X104308929Y-70727200D01*
X104308929Y-70727200D02*
X104356548Y-70679580D01*
X104356548Y-70679580D02*
X104356548Y-70774819D01*
X104737500Y-69774819D02*
X105404166Y-69774819D01*
X105404166Y-69774819D02*
X104975595Y-70774819D01*
X106213690Y-70108152D02*
X106213690Y-70774819D01*
X105785119Y-70108152D02*
X105785119Y-70631961D01*
X105785119Y-70631961D02*
X105832738Y-70727200D01*
X105832738Y-70727200D02*
X105927976Y-70774819D01*
X105927976Y-70774819D02*
X106070833Y-70774819D01*
X106070833Y-70774819D02*
X106166071Y-70727200D01*
X106166071Y-70727200D02*
X106213690Y-70679580D01*
X107023214Y-70251009D02*
X106689881Y-70251009D01*
X106689881Y-70774819D02*
X106689881Y-69774819D01*
X106689881Y-69774819D02*
X107166071Y-69774819D01*
D11*
X105154166Y-72179530D02*
X105130357Y-72203340D01*
X105130357Y-72203340D02*
X105058928Y-72227149D01*
X105058928Y-72227149D02*
X105011309Y-72227149D01*
X105011309Y-72227149D02*
X104939881Y-72203340D01*
X104939881Y-72203340D02*
X104892262Y-72155720D01*
X104892262Y-72155720D02*
X104868452Y-72108101D01*
X104868452Y-72108101D02*
X104844643Y-72012863D01*
X104844643Y-72012863D02*
X104844643Y-71941435D01*
X104844643Y-71941435D02*
X104868452Y-71846197D01*
X104868452Y-71846197D02*
X104892262Y-71798578D01*
X104892262Y-71798578D02*
X104939881Y-71750959D01*
X104939881Y-71750959D02*
X105011309Y-71727149D01*
X105011309Y-71727149D02*
X105058928Y-71727149D01*
X105058928Y-71727149D02*
X105130357Y-71750959D01*
X105130357Y-71750959D02*
X105154166Y-71774768D01*
X105606547Y-71727149D02*
X105368452Y-71727149D01*
X105368452Y-71727149D02*
X105344643Y-71965244D01*
X105344643Y-71965244D02*
X105368452Y-71941435D01*
X105368452Y-71941435D02*
X105416071Y-71917625D01*
X105416071Y-71917625D02*
X105535119Y-71917625D01*
X105535119Y-71917625D02*
X105582738Y-71941435D01*
X105582738Y-71941435D02*
X105606547Y-71965244D01*
X105606547Y-71965244D02*
X105630357Y-72012863D01*
X105630357Y-72012863D02*
X105630357Y-72131911D01*
X105630357Y-72131911D02*
X105606547Y-72179530D01*
X105606547Y-72179530D02*
X105582738Y-72203340D01*
X105582738Y-72203340D02*
X105535119Y-72227149D01*
X105535119Y-72227149D02*
X105416071Y-72227149D01*
X105416071Y-72227149D02*
X105368452Y-72203340D01*
X105368452Y-72203340D02*
X105344643Y-72179530D01*
D10*
X97985714Y-76604819D02*
X97414286Y-76604819D01*
X97700000Y-76604819D02*
X97700000Y-75604819D01*
X97700000Y-75604819D02*
X97604762Y-75747676D01*
X97604762Y-75747676D02*
X97509524Y-75842914D01*
X97509524Y-75842914D02*
X97414286Y-75890533D01*
X98414286Y-76604819D02*
X98414286Y-75604819D01*
X98985714Y-76604819D02*
X98557143Y-76033390D01*
X98985714Y-75604819D02*
X98414286Y-76176247D01*
D11*
X98116666Y-78027149D02*
X97950000Y-77789054D01*
X97830952Y-78027149D02*
X97830952Y-77527149D01*
X97830952Y-77527149D02*
X98021428Y-77527149D01*
X98021428Y-77527149D02*
X98069047Y-77550959D01*
X98069047Y-77550959D02*
X98092857Y-77574768D01*
X98092857Y-77574768D02*
X98116666Y-77622387D01*
X98116666Y-77622387D02*
X98116666Y-77693816D01*
X98116666Y-77693816D02*
X98092857Y-77741435D01*
X98092857Y-77741435D02*
X98069047Y-77765244D01*
X98069047Y-77765244D02*
X98021428Y-77789054D01*
X98021428Y-77789054D02*
X97830952Y-77789054D01*
X98545238Y-77527149D02*
X98450000Y-77527149D01*
X98450000Y-77527149D02*
X98402381Y-77550959D01*
X98402381Y-77550959D02*
X98378571Y-77574768D01*
X98378571Y-77574768D02*
X98330952Y-77646197D01*
X98330952Y-77646197D02*
X98307143Y-77741435D01*
X98307143Y-77741435D02*
X98307143Y-77931911D01*
X98307143Y-77931911D02*
X98330952Y-77979530D01*
X98330952Y-77979530D02*
X98354762Y-78003340D01*
X98354762Y-78003340D02*
X98402381Y-78027149D01*
X98402381Y-78027149D02*
X98497619Y-78027149D01*
X98497619Y-78027149D02*
X98545238Y-78003340D01*
X98545238Y-78003340D02*
X98569047Y-77979530D01*
X98569047Y-77979530D02*
X98592857Y-77931911D01*
X98592857Y-77931911D02*
X98592857Y-77812863D01*
X98592857Y-77812863D02*
X98569047Y-77765244D01*
X98569047Y-77765244D02*
X98545238Y-77741435D01*
X98545238Y-77741435D02*
X98497619Y-77717625D01*
X98497619Y-77717625D02*
X98402381Y-77717625D01*
X98402381Y-77717625D02*
X98354762Y-77741435D01*
X98354762Y-77741435D02*
X98330952Y-77765244D01*
X98330952Y-77765244D02*
X98307143Y-77812863D01*
D10*
X106507200Y-99326191D02*
X106554819Y-99183334D01*
X106554819Y-99183334D02*
X106554819Y-98945239D01*
X106554819Y-98945239D02*
X106507200Y-98850001D01*
X106507200Y-98850001D02*
X106459580Y-98802382D01*
X106459580Y-98802382D02*
X106364342Y-98754763D01*
X106364342Y-98754763D02*
X106269104Y-98754763D01*
X106269104Y-98754763D02*
X106173866Y-98802382D01*
X106173866Y-98802382D02*
X106126247Y-98850001D01*
X106126247Y-98850001D02*
X106078628Y-98945239D01*
X106078628Y-98945239D02*
X106031009Y-99135715D01*
X106031009Y-99135715D02*
X105983390Y-99230953D01*
X105983390Y-99230953D02*
X105935771Y-99278572D01*
X105935771Y-99278572D02*
X105840533Y-99326191D01*
X105840533Y-99326191D02*
X105745295Y-99326191D01*
X105745295Y-99326191D02*
X105650057Y-99278572D01*
X105650057Y-99278572D02*
X105602438Y-99230953D01*
X105602438Y-99230953D02*
X105554819Y-99135715D01*
X105554819Y-99135715D02*
X105554819Y-98897620D01*
X105554819Y-98897620D02*
X105602438Y-98754763D01*
X106554819Y-98183334D02*
X106507200Y-98278572D01*
X106507200Y-98278572D02*
X106459580Y-98326191D01*
X106459580Y-98326191D02*
X106364342Y-98373810D01*
X106364342Y-98373810D02*
X106078628Y-98373810D01*
X106078628Y-98373810D02*
X105983390Y-98326191D01*
X105983390Y-98326191D02*
X105935771Y-98278572D01*
X105935771Y-98278572D02*
X105888152Y-98183334D01*
X105888152Y-98183334D02*
X105888152Y-98040477D01*
X105888152Y-98040477D02*
X105935771Y-97945239D01*
X105935771Y-97945239D02*
X105983390Y-97897620D01*
X105983390Y-97897620D02*
X106078628Y-97850001D01*
X106078628Y-97850001D02*
X106364342Y-97850001D01*
X106364342Y-97850001D02*
X106459580Y-97897620D01*
X106459580Y-97897620D02*
X106507200Y-97945239D01*
X106507200Y-97945239D02*
X106554819Y-98040477D01*
X106554819Y-98040477D02*
X106554819Y-98183334D01*
X106554819Y-97278572D02*
X106507200Y-97373810D01*
X106507200Y-97373810D02*
X106411961Y-97421429D01*
X106411961Y-97421429D02*
X105554819Y-97421429D01*
X106554819Y-96469048D02*
X105554819Y-96469048D01*
X106507200Y-96469048D02*
X106554819Y-96564286D01*
X106554819Y-96564286D02*
X106554819Y-96754762D01*
X106554819Y-96754762D02*
X106507200Y-96850000D01*
X106507200Y-96850000D02*
X106459580Y-96897619D01*
X106459580Y-96897619D02*
X106364342Y-96945238D01*
X106364342Y-96945238D02*
X106078628Y-96945238D01*
X106078628Y-96945238D02*
X105983390Y-96897619D01*
X105983390Y-96897619D02*
X105935771Y-96850000D01*
X105935771Y-96850000D02*
X105888152Y-96754762D01*
X105888152Y-96754762D02*
X105888152Y-96564286D01*
X105888152Y-96564286D02*
X105935771Y-96469048D01*
X106507200Y-95611905D02*
X106554819Y-95707143D01*
X106554819Y-95707143D02*
X106554819Y-95897619D01*
X106554819Y-95897619D02*
X106507200Y-95992857D01*
X106507200Y-95992857D02*
X106411961Y-96040476D01*
X106411961Y-96040476D02*
X106031009Y-96040476D01*
X106031009Y-96040476D02*
X105935771Y-95992857D01*
X105935771Y-95992857D02*
X105888152Y-95897619D01*
X105888152Y-95897619D02*
X105888152Y-95707143D01*
X105888152Y-95707143D02*
X105935771Y-95611905D01*
X105935771Y-95611905D02*
X106031009Y-95564286D01*
X106031009Y-95564286D02*
X106126247Y-95564286D01*
X106126247Y-95564286D02*
X106221485Y-96040476D01*
X106554819Y-95135714D02*
X105888152Y-95135714D01*
X106078628Y-95135714D02*
X105983390Y-95088095D01*
X105983390Y-95088095D02*
X105935771Y-95040476D01*
X105935771Y-95040476D02*
X105888152Y-94945238D01*
X105888152Y-94945238D02*
X105888152Y-94850000D01*
X105554819Y-94230952D02*
X106269104Y-94230952D01*
X106269104Y-94230952D02*
X106411961Y-94278571D01*
X106411961Y-94278571D02*
X106507200Y-94373809D01*
X106507200Y-94373809D02*
X106554819Y-94516666D01*
X106554819Y-94516666D02*
X106554819Y-94611904D01*
X105888152Y-93326190D02*
X106554819Y-93326190D01*
X105888152Y-93754761D02*
X106411961Y-93754761D01*
X106411961Y-93754761D02*
X106507200Y-93707142D01*
X106507200Y-93707142D02*
X106554819Y-93611904D01*
X106554819Y-93611904D02*
X106554819Y-93469047D01*
X106554819Y-93469047D02*
X106507200Y-93373809D01*
X106507200Y-93373809D02*
X106459580Y-93326190D01*
X106554819Y-92849999D02*
X105888152Y-92849999D01*
X105983390Y-92849999D02*
X105935771Y-92802380D01*
X105935771Y-92802380D02*
X105888152Y-92707142D01*
X105888152Y-92707142D02*
X105888152Y-92564285D01*
X105888152Y-92564285D02*
X105935771Y-92469047D01*
X105935771Y-92469047D02*
X106031009Y-92421428D01*
X106031009Y-92421428D02*
X106554819Y-92421428D01*
X106031009Y-92421428D02*
X105935771Y-92373809D01*
X105935771Y-92373809D02*
X105888152Y-92278571D01*
X105888152Y-92278571D02*
X105888152Y-92135714D01*
X105888152Y-92135714D02*
X105935771Y-92040475D01*
X105935771Y-92040475D02*
X106031009Y-91992856D01*
X106031009Y-91992856D02*
X106554819Y-91992856D01*
X105888152Y-91516666D02*
X106888152Y-91516666D01*
X105935771Y-91516666D02*
X105888152Y-91421428D01*
X105888152Y-91421428D02*
X105888152Y-91230952D01*
X105888152Y-91230952D02*
X105935771Y-91135714D01*
X105935771Y-91135714D02*
X105983390Y-91088095D01*
X105983390Y-91088095D02*
X106078628Y-91040476D01*
X106078628Y-91040476D02*
X106364342Y-91040476D01*
X106364342Y-91040476D02*
X106459580Y-91088095D01*
X106459580Y-91088095D02*
X106507200Y-91135714D01*
X106507200Y-91135714D02*
X106554819Y-91230952D01*
X106554819Y-91230952D02*
X106554819Y-91421428D01*
X106554819Y-91421428D02*
X106507200Y-91516666D01*
X106507200Y-90230952D02*
X106554819Y-90326190D01*
X106554819Y-90326190D02*
X106554819Y-90516666D01*
X106554819Y-90516666D02*
X106507200Y-90611904D01*
X106507200Y-90611904D02*
X106411961Y-90659523D01*
X106411961Y-90659523D02*
X106031009Y-90659523D01*
X106031009Y-90659523D02*
X105935771Y-90611904D01*
X105935771Y-90611904D02*
X105888152Y-90516666D01*
X105888152Y-90516666D02*
X105888152Y-90326190D01*
X105888152Y-90326190D02*
X105935771Y-90230952D01*
X105935771Y-90230952D02*
X106031009Y-90183333D01*
X106031009Y-90183333D02*
X106126247Y-90183333D01*
X106126247Y-90183333D02*
X106221485Y-90659523D01*
X106554819Y-89754761D02*
X105888152Y-89754761D01*
X106078628Y-89754761D02*
X105983390Y-89707142D01*
X105983390Y-89707142D02*
X105935771Y-89659523D01*
X105935771Y-89659523D02*
X105888152Y-89564285D01*
X105888152Y-89564285D02*
X105888152Y-89469047D01*
X106650057Y-89373809D02*
X106650057Y-88611904D01*
X105650057Y-88421427D02*
X105602438Y-88373808D01*
X105602438Y-88373808D02*
X105554819Y-88278570D01*
X105554819Y-88278570D02*
X105554819Y-88040475D01*
X105554819Y-88040475D02*
X105602438Y-87945237D01*
X105602438Y-87945237D02*
X105650057Y-87897618D01*
X105650057Y-87897618D02*
X105745295Y-87849999D01*
X105745295Y-87849999D02*
X105840533Y-87849999D01*
X105840533Y-87849999D02*
X105983390Y-87897618D01*
X105983390Y-87897618D02*
X106554819Y-88469046D01*
X106554819Y-88469046D02*
X106554819Y-87849999D01*
X106650057Y-87659523D02*
X106650057Y-86897618D01*
X105554819Y-86469046D02*
X105554819Y-86278570D01*
X105554819Y-86278570D02*
X105602438Y-86183332D01*
X105602438Y-86183332D02*
X105697676Y-86088094D01*
X105697676Y-86088094D02*
X105888152Y-86040475D01*
X105888152Y-86040475D02*
X106221485Y-86040475D01*
X106221485Y-86040475D02*
X106411961Y-86088094D01*
X106411961Y-86088094D02*
X106507200Y-86183332D01*
X106507200Y-86183332D02*
X106554819Y-86278570D01*
X106554819Y-86278570D02*
X106554819Y-86469046D01*
X106554819Y-86469046D02*
X106507200Y-86564284D01*
X106507200Y-86564284D02*
X106411961Y-86659522D01*
X106411961Y-86659522D02*
X106221485Y-86707141D01*
X106221485Y-86707141D02*
X105888152Y-86707141D01*
X105888152Y-86707141D02*
X105697676Y-86659522D01*
X105697676Y-86659522D02*
X105602438Y-86564284D01*
X105602438Y-86564284D02*
X105554819Y-86469046D01*
X105888152Y-85611903D02*
X106888152Y-85611903D01*
X105935771Y-85611903D02*
X105888152Y-85516665D01*
X105888152Y-85516665D02*
X105888152Y-85326189D01*
X105888152Y-85326189D02*
X105935771Y-85230951D01*
X105935771Y-85230951D02*
X105983390Y-85183332D01*
X105983390Y-85183332D02*
X106078628Y-85135713D01*
X106078628Y-85135713D02*
X106364342Y-85135713D01*
X106364342Y-85135713D02*
X106459580Y-85183332D01*
X106459580Y-85183332D02*
X106507200Y-85230951D01*
X106507200Y-85230951D02*
X106554819Y-85326189D01*
X106554819Y-85326189D02*
X106554819Y-85516665D01*
X106554819Y-85516665D02*
X106507200Y-85611903D01*
X106507200Y-84326189D02*
X106554819Y-84421427D01*
X106554819Y-84421427D02*
X106554819Y-84611903D01*
X106554819Y-84611903D02*
X106507200Y-84707141D01*
X106507200Y-84707141D02*
X106411961Y-84754760D01*
X106411961Y-84754760D02*
X106031009Y-84754760D01*
X106031009Y-84754760D02*
X105935771Y-84707141D01*
X105935771Y-84707141D02*
X105888152Y-84611903D01*
X105888152Y-84611903D02*
X105888152Y-84421427D01*
X105888152Y-84421427D02*
X105935771Y-84326189D01*
X105935771Y-84326189D02*
X106031009Y-84278570D01*
X106031009Y-84278570D02*
X106126247Y-84278570D01*
X106126247Y-84278570D02*
X106221485Y-84754760D01*
X105888152Y-83849998D02*
X106554819Y-83849998D01*
X105983390Y-83849998D02*
X105935771Y-83802379D01*
X105935771Y-83802379D02*
X105888152Y-83707141D01*
X105888152Y-83707141D02*
X105888152Y-83564284D01*
X105888152Y-83564284D02*
X105935771Y-83469046D01*
X105935771Y-83469046D02*
X106031009Y-83421427D01*
X106031009Y-83421427D02*
X106554819Y-83421427D01*
X120266666Y-73792319D02*
X120838094Y-73792319D01*
X120552380Y-74792319D02*
X120552380Y-73792319D01*
X121552380Y-74744700D02*
X121457142Y-74792319D01*
X121457142Y-74792319D02*
X121266666Y-74792319D01*
X121266666Y-74792319D02*
X121171428Y-74744700D01*
X121171428Y-74744700D02*
X121123809Y-74649461D01*
X121123809Y-74649461D02*
X121123809Y-74268509D01*
X121123809Y-74268509D02*
X121171428Y-74173271D01*
X121171428Y-74173271D02*
X121266666Y-74125652D01*
X121266666Y-74125652D02*
X121457142Y-74125652D01*
X121457142Y-74125652D02*
X121552380Y-74173271D01*
X121552380Y-74173271D02*
X121599999Y-74268509D01*
X121599999Y-74268509D02*
X121599999Y-74363747D01*
X121599999Y-74363747D02*
X121123809Y-74458985D01*
X121980952Y-74744700D02*
X122076190Y-74792319D01*
X122076190Y-74792319D02*
X122266666Y-74792319D01*
X122266666Y-74792319D02*
X122361904Y-74744700D01*
X122361904Y-74744700D02*
X122409523Y-74649461D01*
X122409523Y-74649461D02*
X122409523Y-74601842D01*
X122409523Y-74601842D02*
X122361904Y-74506604D01*
X122361904Y-74506604D02*
X122266666Y-74458985D01*
X122266666Y-74458985D02*
X122123809Y-74458985D01*
X122123809Y-74458985D02*
X122028571Y-74411366D01*
X122028571Y-74411366D02*
X121980952Y-74316128D01*
X121980952Y-74316128D02*
X121980952Y-74268509D01*
X121980952Y-74268509D02*
X122028571Y-74173271D01*
X122028571Y-74173271D02*
X122123809Y-74125652D01*
X122123809Y-74125652D02*
X122266666Y-74125652D01*
X122266666Y-74125652D02*
X122361904Y-74173271D01*
X122695238Y-74125652D02*
X123076190Y-74125652D01*
X122838095Y-73792319D02*
X122838095Y-74649461D01*
X122838095Y-74649461D02*
X122885714Y-74744700D01*
X122885714Y-74744700D02*
X122980952Y-74792319D01*
X122980952Y-74792319D02*
X123076190Y-74792319D01*
X123409524Y-74792319D02*
X123409524Y-73792319D01*
X123409524Y-73792319D02*
X123790476Y-73792319D01*
X123790476Y-73792319D02*
X123885714Y-73839938D01*
X123885714Y-73839938D02*
X123933333Y-73887557D01*
X123933333Y-73887557D02*
X123980952Y-73982795D01*
X123980952Y-73982795D02*
X123980952Y-74125652D01*
X123980952Y-74125652D02*
X123933333Y-74220890D01*
X123933333Y-74220890D02*
X123885714Y-74268509D01*
X123885714Y-74268509D02*
X123790476Y-74316128D01*
X123790476Y-74316128D02*
X123409524Y-74316128D01*
X124552381Y-74792319D02*
X124457143Y-74744700D01*
X124457143Y-74744700D02*
X124409524Y-74697080D01*
X124409524Y-74697080D02*
X124361905Y-74601842D01*
X124361905Y-74601842D02*
X124361905Y-74316128D01*
X124361905Y-74316128D02*
X124409524Y-74220890D01*
X124409524Y-74220890D02*
X124457143Y-74173271D01*
X124457143Y-74173271D02*
X124552381Y-74125652D01*
X124552381Y-74125652D02*
X124695238Y-74125652D01*
X124695238Y-74125652D02*
X124790476Y-74173271D01*
X124790476Y-74173271D02*
X124838095Y-74220890D01*
X124838095Y-74220890D02*
X124885714Y-74316128D01*
X124885714Y-74316128D02*
X124885714Y-74601842D01*
X124885714Y-74601842D02*
X124838095Y-74697080D01*
X124838095Y-74697080D02*
X124790476Y-74744700D01*
X124790476Y-74744700D02*
X124695238Y-74792319D01*
X124695238Y-74792319D02*
X124552381Y-74792319D01*
X125314286Y-74792319D02*
X125314286Y-74125652D01*
X125314286Y-73792319D02*
X125266667Y-73839938D01*
X125266667Y-73839938D02*
X125314286Y-73887557D01*
X125314286Y-73887557D02*
X125361905Y-73839938D01*
X125361905Y-73839938D02*
X125314286Y-73792319D01*
X125314286Y-73792319D02*
X125314286Y-73887557D01*
X125790476Y-74125652D02*
X125790476Y-74792319D01*
X125790476Y-74220890D02*
X125838095Y-74173271D01*
X125838095Y-74173271D02*
X125933333Y-74125652D01*
X125933333Y-74125652D02*
X126076190Y-74125652D01*
X126076190Y-74125652D02*
X126171428Y-74173271D01*
X126171428Y-74173271D02*
X126219047Y-74268509D01*
X126219047Y-74268509D02*
X126219047Y-74792319D01*
X126552381Y-74125652D02*
X126933333Y-74125652D01*
X126695238Y-73792319D02*
X126695238Y-74649461D01*
X126695238Y-74649461D02*
X126742857Y-74744700D01*
X126742857Y-74744700D02*
X126838095Y-74792319D01*
X126838095Y-74792319D02*
X126933333Y-74792319D01*
X123433333Y-71297080D02*
X123385714Y-71344700D01*
X123385714Y-71344700D02*
X123242857Y-71392319D01*
X123242857Y-71392319D02*
X123147619Y-71392319D01*
X123147619Y-71392319D02*
X123004762Y-71344700D01*
X123004762Y-71344700D02*
X122909524Y-71249461D01*
X122909524Y-71249461D02*
X122861905Y-71154223D01*
X122861905Y-71154223D02*
X122814286Y-70963747D01*
X122814286Y-70963747D02*
X122814286Y-70820890D01*
X122814286Y-70820890D02*
X122861905Y-70630414D01*
X122861905Y-70630414D02*
X122909524Y-70535176D01*
X122909524Y-70535176D02*
X123004762Y-70439938D01*
X123004762Y-70439938D02*
X123147619Y-70392319D01*
X123147619Y-70392319D02*
X123242857Y-70392319D01*
X123242857Y-70392319D02*
X123385714Y-70439938D01*
X123385714Y-70439938D02*
X123433333Y-70487557D01*
X123814286Y-71344700D02*
X123957143Y-71392319D01*
X123957143Y-71392319D02*
X124195238Y-71392319D01*
X124195238Y-71392319D02*
X124290476Y-71344700D01*
X124290476Y-71344700D02*
X124338095Y-71297080D01*
X124338095Y-71297080D02*
X124385714Y-71201842D01*
X124385714Y-71201842D02*
X124385714Y-71106604D01*
X124385714Y-71106604D02*
X124338095Y-71011366D01*
X124338095Y-71011366D02*
X124290476Y-70963747D01*
X124290476Y-70963747D02*
X124195238Y-70916128D01*
X124195238Y-70916128D02*
X124004762Y-70868509D01*
X124004762Y-70868509D02*
X123909524Y-70820890D01*
X123909524Y-70820890D02*
X123861905Y-70773271D01*
X123861905Y-70773271D02*
X123814286Y-70678033D01*
X123814286Y-70678033D02*
X123814286Y-70582795D01*
X123814286Y-70582795D02*
X123861905Y-70487557D01*
X123861905Y-70487557D02*
X123909524Y-70439938D01*
X123909524Y-70439938D02*
X124004762Y-70392319D01*
X124004762Y-70392319D02*
X124242857Y-70392319D01*
X124242857Y-70392319D02*
X124385714Y-70439938D01*
X104985714Y-72354819D02*
X104652381Y-71878628D01*
X104414286Y-72354819D02*
X104414286Y-71354819D01*
X104414286Y-71354819D02*
X104795238Y-71354819D01*
X104795238Y-71354819D02*
X104890476Y-71402438D01*
X104890476Y-71402438D02*
X104938095Y-71450057D01*
X104938095Y-71450057D02*
X104985714Y-71545295D01*
X104985714Y-71545295D02*
X104985714Y-71688152D01*
X104985714Y-71688152D02*
X104938095Y-71783390D01*
X104938095Y-71783390D02*
X104890476Y-71831009D01*
X104890476Y-71831009D02*
X104795238Y-71878628D01*
X104795238Y-71878628D02*
X104414286Y-71878628D01*
X105747619Y-71831009D02*
X105414286Y-71831009D01*
X105414286Y-72354819D02*
X105414286Y-71354819D01*
X105414286Y-71354819D02*
X105890476Y-71354819D01*
X106271429Y-72354819D02*
X106271429Y-71354819D01*
X106271429Y-71354819D02*
X106604762Y-72069104D01*
X106604762Y-72069104D02*
X106938095Y-71354819D01*
X106938095Y-71354819D02*
X106938095Y-72354819D01*
X107461905Y-72354819D02*
X107652381Y-72354819D01*
X107652381Y-72354819D02*
X107747619Y-72307200D01*
X107747619Y-72307200D02*
X107795238Y-72259580D01*
X107795238Y-72259580D02*
X107890476Y-72116723D01*
X107890476Y-72116723D02*
X107938095Y-71926247D01*
X107938095Y-71926247D02*
X107938095Y-71545295D01*
X107938095Y-71545295D02*
X107890476Y-71450057D01*
X107890476Y-71450057D02*
X107842857Y-71402438D01*
X107842857Y-71402438D02*
X107747619Y-71354819D01*
X107747619Y-71354819D02*
X107557143Y-71354819D01*
X107557143Y-71354819D02*
X107461905Y-71402438D01*
X107461905Y-71402438D02*
X107414286Y-71450057D01*
X107414286Y-71450057D02*
X107366667Y-71545295D01*
X107366667Y-71545295D02*
X107366667Y-71783390D01*
X107366667Y-71783390D02*
X107414286Y-71878628D01*
X107414286Y-71878628D02*
X107461905Y-71926247D01*
X107461905Y-71926247D02*
X107557143Y-71973866D01*
X107557143Y-71973866D02*
X107747619Y-71973866D01*
X107747619Y-71973866D02*
X107842857Y-71926247D01*
X107842857Y-71926247D02*
X107890476Y-71878628D01*
X107890476Y-71878628D02*
X107938095Y-71783390D01*
X108842857Y-71354819D02*
X108366667Y-71354819D01*
X108366667Y-71354819D02*
X108319048Y-71831009D01*
X108319048Y-71831009D02*
X108366667Y-71783390D01*
X108366667Y-71783390D02*
X108461905Y-71735771D01*
X108461905Y-71735771D02*
X108700000Y-71735771D01*
X108700000Y-71735771D02*
X108795238Y-71783390D01*
X108795238Y-71783390D02*
X108842857Y-71831009D01*
X108842857Y-71831009D02*
X108890476Y-71926247D01*
X108890476Y-71926247D02*
X108890476Y-72164342D01*
X108890476Y-72164342D02*
X108842857Y-72259580D01*
X108842857Y-72259580D02*
X108795238Y-72307200D01*
X108795238Y-72307200D02*
X108700000Y-72354819D01*
X108700000Y-72354819D02*
X108461905Y-72354819D01*
X108461905Y-72354819D02*
X108366667Y-72307200D01*
X108366667Y-72307200D02*
X108319048Y-72259580D01*
X109223810Y-71354819D02*
X109461905Y-72354819D01*
X109461905Y-72354819D02*
X109652381Y-71640533D01*
X109652381Y-71640533D02*
X109842857Y-72354819D01*
X109842857Y-72354819D02*
X110080953Y-71354819D01*
X110461905Y-71973866D02*
X111223810Y-71973866D01*
X111842857Y-71783390D02*
X111747619Y-71735771D01*
X111747619Y-71735771D02*
X111700000Y-71688152D01*
X111700000Y-71688152D02*
X111652381Y-71592914D01*
X111652381Y-71592914D02*
X111652381Y-71545295D01*
X111652381Y-71545295D02*
X111700000Y-71450057D01*
X111700000Y-71450057D02*
X111747619Y-71402438D01*
X111747619Y-71402438D02*
X111842857Y-71354819D01*
X111842857Y-71354819D02*
X112033333Y-71354819D01*
X112033333Y-71354819D02*
X112128571Y-71402438D01*
X112128571Y-71402438D02*
X112176190Y-71450057D01*
X112176190Y-71450057D02*
X112223809Y-71545295D01*
X112223809Y-71545295D02*
X112223809Y-71592914D01*
X112223809Y-71592914D02*
X112176190Y-71688152D01*
X112176190Y-71688152D02*
X112128571Y-71735771D01*
X112128571Y-71735771D02*
X112033333Y-71783390D01*
X112033333Y-71783390D02*
X111842857Y-71783390D01*
X111842857Y-71783390D02*
X111747619Y-71831009D01*
X111747619Y-71831009D02*
X111700000Y-71878628D01*
X111700000Y-71878628D02*
X111652381Y-71973866D01*
X111652381Y-71973866D02*
X111652381Y-72164342D01*
X111652381Y-72164342D02*
X111700000Y-72259580D01*
X111700000Y-72259580D02*
X111747619Y-72307200D01*
X111747619Y-72307200D02*
X111842857Y-72354819D01*
X111842857Y-72354819D02*
X112033333Y-72354819D01*
X112033333Y-72354819D02*
X112128571Y-72307200D01*
X112128571Y-72307200D02*
X112176190Y-72259580D01*
X112176190Y-72259580D02*
X112223809Y-72164342D01*
X112223809Y-72164342D02*
X112223809Y-71973866D01*
X112223809Y-71973866D02*
X112176190Y-71878628D01*
X112176190Y-71878628D02*
X112128571Y-71831009D01*
X112128571Y-71831009D02*
X112033333Y-71783390D01*
X113080952Y-71354819D02*
X112890476Y-71354819D01*
X112890476Y-71354819D02*
X112795238Y-71402438D01*
X112795238Y-71402438D02*
X112747619Y-71450057D01*
X112747619Y-71450057D02*
X112652381Y-71592914D01*
X112652381Y-71592914D02*
X112604762Y-71783390D01*
X112604762Y-71783390D02*
X112604762Y-72164342D01*
X112604762Y-72164342D02*
X112652381Y-72259580D01*
X112652381Y-72259580D02*
X112700000Y-72307200D01*
X112700000Y-72307200D02*
X112795238Y-72354819D01*
X112795238Y-72354819D02*
X112985714Y-72354819D01*
X112985714Y-72354819D02*
X113080952Y-72307200D01*
X113080952Y-72307200D02*
X113128571Y-72259580D01*
X113128571Y-72259580D02*
X113176190Y-72164342D01*
X113176190Y-72164342D02*
X113176190Y-71926247D01*
X113176190Y-71926247D02*
X113128571Y-71831009D01*
X113128571Y-71831009D02*
X113080952Y-71783390D01*
X113080952Y-71783390D02*
X112985714Y-71735771D01*
X112985714Y-71735771D02*
X112795238Y-71735771D01*
X112795238Y-71735771D02*
X112700000Y-71783390D01*
X112700000Y-71783390D02*
X112652381Y-71831009D01*
X112652381Y-71831009D02*
X112604762Y-71926247D01*
X113747619Y-71783390D02*
X113652381Y-71735771D01*
X113652381Y-71735771D02*
X113604762Y-71688152D01*
X113604762Y-71688152D02*
X113557143Y-71592914D01*
X113557143Y-71592914D02*
X113557143Y-71545295D01*
X113557143Y-71545295D02*
X113604762Y-71450057D01*
X113604762Y-71450057D02*
X113652381Y-71402438D01*
X113652381Y-71402438D02*
X113747619Y-71354819D01*
X113747619Y-71354819D02*
X113938095Y-71354819D01*
X113938095Y-71354819D02*
X114033333Y-71402438D01*
X114033333Y-71402438D02*
X114080952Y-71450057D01*
X114080952Y-71450057D02*
X114128571Y-71545295D01*
X114128571Y-71545295D02*
X114128571Y-71592914D01*
X114128571Y-71592914D02*
X114080952Y-71688152D01*
X114080952Y-71688152D02*
X114033333Y-71735771D01*
X114033333Y-71735771D02*
X113938095Y-71783390D01*
X113938095Y-71783390D02*
X113747619Y-71783390D01*
X113747619Y-71783390D02*
X113652381Y-71831009D01*
X113652381Y-71831009D02*
X113604762Y-71878628D01*
X113604762Y-71878628D02*
X113557143Y-71973866D01*
X113557143Y-71973866D02*
X113557143Y-72164342D01*
X113557143Y-72164342D02*
X113604762Y-72259580D01*
X113604762Y-72259580D02*
X113652381Y-72307200D01*
X113652381Y-72307200D02*
X113747619Y-72354819D01*
X113747619Y-72354819D02*
X113938095Y-72354819D01*
X113938095Y-72354819D02*
X114033333Y-72307200D01*
X114033333Y-72307200D02*
X114080952Y-72259580D01*
X114080952Y-72259580D02*
X114128571Y-72164342D01*
X114128571Y-72164342D02*
X114128571Y-71973866D01*
X114128571Y-71973866D02*
X114080952Y-71878628D01*
X114080952Y-71878628D02*
X114033333Y-71831009D01*
X114033333Y-71831009D02*
X113938095Y-71783390D01*
X114509524Y-72307200D02*
X114652381Y-72354819D01*
X114652381Y-72354819D02*
X114890476Y-72354819D01*
X114890476Y-72354819D02*
X114985714Y-72307200D01*
X114985714Y-72307200D02*
X115033333Y-72259580D01*
X115033333Y-72259580D02*
X115080952Y-72164342D01*
X115080952Y-72164342D02*
X115080952Y-72069104D01*
X115080952Y-72069104D02*
X115033333Y-71973866D01*
X115033333Y-71973866D02*
X114985714Y-71926247D01*
X114985714Y-71926247D02*
X114890476Y-71878628D01*
X114890476Y-71878628D02*
X114700000Y-71831009D01*
X114700000Y-71831009D02*
X114604762Y-71783390D01*
X114604762Y-71783390D02*
X114557143Y-71735771D01*
X114557143Y-71735771D02*
X114509524Y-71640533D01*
X114509524Y-71640533D02*
X114509524Y-71545295D01*
X114509524Y-71545295D02*
X114557143Y-71450057D01*
X114557143Y-71450057D02*
X114604762Y-71402438D01*
X114604762Y-71402438D02*
X114700000Y-71354819D01*
X114700000Y-71354819D02*
X114938095Y-71354819D01*
X114938095Y-71354819D02*
X115080952Y-71402438D01*
X115461905Y-71450057D02*
X115509524Y-71402438D01*
X115509524Y-71402438D02*
X115604762Y-71354819D01*
X115604762Y-71354819D02*
X115842857Y-71354819D01*
X115842857Y-71354819D02*
X115938095Y-71402438D01*
X115938095Y-71402438D02*
X115985714Y-71450057D01*
X115985714Y-71450057D02*
X116033333Y-71545295D01*
X116033333Y-71545295D02*
X116033333Y-71640533D01*
X116033333Y-71640533D02*
X115985714Y-71783390D01*
X115985714Y-71783390D02*
X115414286Y-72354819D01*
X115414286Y-72354819D02*
X116033333Y-72354819D01*
X109438095Y-80854819D02*
X109438095Y-81664342D01*
X109438095Y-81664342D02*
X109485714Y-81759580D01*
X109485714Y-81759580D02*
X109533333Y-81807200D01*
X109533333Y-81807200D02*
X109628571Y-81854819D01*
X109628571Y-81854819D02*
X109819047Y-81854819D01*
X109819047Y-81854819D02*
X109914285Y-81807200D01*
X109914285Y-81807200D02*
X109961904Y-81759580D01*
X109961904Y-81759580D02*
X110009523Y-81664342D01*
X110009523Y-81664342D02*
X110009523Y-80854819D01*
X111009523Y-81854819D02*
X110438095Y-81854819D01*
X110723809Y-81854819D02*
X110723809Y-80854819D01*
X110723809Y-80854819D02*
X110628571Y-80997676D01*
X110628571Y-80997676D02*
X110533333Y-81092914D01*
X110533333Y-81092914D02*
X110438095Y-81140533D01*
D12*
%TO.C,D5*%
X97085056Y-80328937D02*
X98242074Y-78950057D01*
X98161494Y-80057309D02*
X98467911Y-80314424D01*
X98242074Y-78950057D02*
X100386998Y-80749863D01*
X98467911Y-80314424D02*
X98114378Y-80735749D01*
X98467911Y-80314424D02*
X98821445Y-79893100D01*
X98467911Y-80314424D02*
X99184653Y-80393679D01*
X98670423Y-81006515D02*
X98467911Y-80314424D01*
X98927538Y-80700097D02*
X99310560Y-81021491D01*
X99184653Y-80393679D02*
X98670423Y-81006515D01*
X99229980Y-82128743D02*
X97085056Y-80328937D01*
X100386998Y-80749863D02*
X99229980Y-82128743D01*
%TO.C,AE1*%
X87283277Y-71268471D02*
X89756606Y-65441675D01*
X96359066Y-74251827D02*
X98207226Y-69897839D01*
X96362643Y-71684101D02*
X97533215Y-71485709D01*
X97033078Y-72663955D02*
X96362643Y-71684101D01*
X98207226Y-69897839D02*
X101714349Y-71386525D01*
X99549699Y-76486121D02*
X87279370Y-71277676D01*
X99549699Y-76486121D02*
X99866191Y-75740512D01*
X99866191Y-75740512D02*
X96359066Y-74251827D01*
X101714349Y-71386525D02*
X102030842Y-70640915D01*
X102030842Y-70640915D02*
X89760513Y-65432469D01*
%TO.C,C2*%
X117000000Y-92775000D02*
X119000000Y-92775000D01*
X117000000Y-94025000D02*
X117000000Y-92775000D01*
X119000000Y-92775000D02*
X119000000Y-94025000D01*
X119000000Y-94025000D02*
X117000000Y-94025000D01*
%TO.C,J1*%
X105600000Y-69150000D02*
X105600000Y-65100000D01*
X109100000Y-68442893D02*
X108600000Y-69150000D01*
X109600000Y-69150000D02*
X109100000Y-68442893D01*
X111350000Y-65100000D02*
X105600000Y-65100000D01*
X111350000Y-69150000D02*
X105600000Y-69150000D01*
X111350000Y-69150000D02*
X111350000Y-65100000D01*
%TO.C,D4*%
X97013002Y-83250137D02*
X98170020Y-81871257D01*
X98089440Y-82978509D02*
X98395857Y-83235624D01*
X98170020Y-81871257D02*
X100314944Y-83671063D01*
X98395857Y-83235624D02*
X98042324Y-83656949D01*
X98395857Y-83235624D02*
X98749391Y-82814300D01*
X98395857Y-83235624D02*
X99112599Y-83314879D01*
X98598369Y-83927715D02*
X98395857Y-83235624D01*
X98855484Y-83621297D02*
X99238506Y-83942691D01*
X99112599Y-83314879D02*
X98598369Y-83927715D01*
X99157926Y-85049943D02*
X97013002Y-83250137D01*
X100314944Y-83671063D02*
X99157926Y-85049943D01*
D13*
%TO.C,U2*%
X125475000Y-77150000D02*
X127175000Y-77150000D01*
X125475000Y-86850000D02*
X125475000Y-77150000D01*
X125475000Y-86850000D02*
X127275000Y-86850000D01*
X127575000Y-86550000D02*
X127575000Y-77550000D01*
X127175000Y-77150000D02*
G75*
G02*
X127575000Y-77550000I1J-399999D01*
G01*
X127575000Y-86550000D02*
G75*
G02*
X127275000Y-86850000I-300000J0D01*
G01*
D12*
%TO.C,R5*%
X118000000Y-70375000D02*
X120000000Y-70375000D01*
X118000000Y-71625000D02*
X118000000Y-70375000D01*
X120000000Y-70375000D02*
X120000000Y-71625000D01*
X120000000Y-71625000D02*
X118000000Y-71625000D01*
%TO.C,R1*%
X108575000Y-94400000D02*
X109825000Y-94400000D01*
X108575000Y-96400000D02*
X108575000Y-94400000D01*
X109825000Y-94400000D02*
X109825000Y-96400000D01*
X109825000Y-96400000D02*
X108575000Y-96400000D01*
%TO.C,C1*%
X117000000Y-90575000D02*
X119000000Y-90575000D01*
X117000000Y-91825000D02*
X117000000Y-90575000D01*
X119000000Y-90575000D02*
X119000000Y-91825000D01*
X119000000Y-91825000D02*
X117000000Y-91825000D01*
%TO.C,R8*%
X108200000Y-71375000D02*
X110200000Y-71375000D01*
X108200000Y-72625000D02*
X108200000Y-71375000D01*
X110200000Y-71375000D02*
X110200000Y-72625000D01*
X110200000Y-72625000D02*
X108200000Y-72625000D01*
%TO.C,D3*%
X97149027Y-86589537D02*
X98306047Y-85210656D01*
X98225467Y-86317909D02*
X98531884Y-86575024D01*
X98306047Y-85210656D02*
X100450973Y-87010463D01*
X98531884Y-86575024D02*
X98178351Y-86996349D01*
X98531884Y-86575024D02*
X98885418Y-86153700D01*
X98531884Y-86575024D02*
X99248626Y-86654279D01*
X98734396Y-87267115D02*
X98531884Y-86575024D01*
X98991511Y-86960697D02*
X99374533Y-87282091D01*
X99248626Y-86654279D02*
X98734396Y-87267115D01*
X99293953Y-88389344D02*
X97149027Y-86589537D01*
X100450973Y-87010463D02*
X99293953Y-88389344D01*
%TO.C,C4*%
X113600000Y-68775000D02*
X115600000Y-68775000D01*
X113600000Y-70025000D02*
X113600000Y-68775000D01*
X115600000Y-68775000D02*
X115600000Y-70025000D01*
X115600000Y-70025000D02*
X113600000Y-70025000D01*
%TO.C,R4*%
X116800000Y-95175000D02*
X118800000Y-95175000D01*
X116800000Y-96425000D02*
X116800000Y-95175000D01*
X118800000Y-95175000D02*
X118800000Y-96425000D01*
X118800000Y-96425000D02*
X116800000Y-96425000D01*
%TO.C,C5*%
X104237500Y-71375000D02*
X106237500Y-71375000D01*
X104237500Y-72625000D02*
X104237500Y-71375000D01*
X106237500Y-71375000D02*
X106237500Y-72625000D01*
X106237500Y-72625000D02*
X104237500Y-72625000D01*
%TO.C,R6*%
X97200000Y-77175000D02*
X99200000Y-77175000D01*
X97200000Y-78425000D02*
X97200000Y-77175000D01*
X99200000Y-77175000D02*
X99200000Y-78425000D01*
X99200000Y-78425000D02*
X97200000Y-78425000D01*
%TO.C,U1*%
X102200000Y-73400000D02*
X102200000Y-89400000D01*
X117200000Y-89400000D02*
X102200000Y-89400000D01*
X117200000Y-89400000D02*
X118200000Y-88400000D01*
X118200000Y-73400000D02*
X102200000Y-73400000D01*
X118200000Y-73400000D02*
X118200000Y-88400000D01*
%TD*%
M02*
