%TF.GenerationSoftware,KiCad,Pcbnew,8.0.1*%
%TF.CreationDate,2024-05-06T20:27:01+02:00*%
%TF.ProjectId,SenseLoraCAM,53656e73-654c-46f7-9261-43414d2e6b69,rev?*%
%TF.SameCoordinates,Original*%
%TF.FileFunction,Paste,Top*%
%TF.FilePolarity,Positive*%
%FSLAX46Y46*%
G04 Gerber Fmt 4.6, Leading zero omitted, Abs format (unit mm)*
G04 Created by KiCad (PCBNEW 8.0.1) date 2024-05-06 20:27:01*
%MOMM*%
%LPD*%
G01*
G04 APERTURE LIST*
G04 Aperture macros list*
%AMRoundRect*
0 Rectangle with rounded corners*
0 $1 Rounding radius*
0 $2 $3 $4 $5 $6 $7 $8 $9 X,Y pos of 4 corners*
0 Add a 4 corners polygon primitive as box body*
4,1,4,$2,$3,$4,$5,$6,$7,$8,$9,$2,$3,0*
0 Add four circle primitives for the rounded corners*
1,1,$1+$1,$2,$3*
1,1,$1+$1,$4,$5*
1,1,$1+$1,$6,$7*
1,1,$1+$1,$8,$9*
0 Add four rect primitives between the rounded corners*
20,1,$1+$1,$2,$3,$4,$5,0*
20,1,$1+$1,$4,$5,$6,$7,0*
20,1,$1+$1,$6,$7,$8,$9,0*
20,1,$1+$1,$8,$9,$2,$3,0*%
%AMRotRect*
0 Rectangle, with rotation*
0 The origin of the aperture is its center*
0 $1 length*
0 $2 width*
0 $3 Rotation angle, in degrees counterclockwise*
0 Add horizontal line*
21,1,$1,$2,0,0,$3*%
G04 Aperture macros list end*
%ADD10C,0.000000*%
%ADD11RoundRect,0.225000X-0.413405X-0.142639X-0.068685X-0.431894X0.413405X0.142639X0.068685X0.431894X0*%
%ADD12RotRect,1.270000X3.600000X247.000000*%
%ADD13RotRect,1.350000X4.200000X247.000000*%
%ADD14RoundRect,0.250000X-0.337500X-0.475000X0.337500X-0.475000X0.337500X0.475000X-0.337500X0.475000X0*%
%ADD15RoundRect,0.150000X0.150000X0.700000X-0.150000X0.700000X-0.150000X-0.700000X0.150000X-0.700000X0*%
%ADD16RoundRect,0.250000X0.250000X1.100000X-0.250000X1.100000X-0.250000X-1.100000X0.250000X-1.100000X0*%
%ADD17R,2.500000X0.350000*%
%ADD18RoundRect,0.250000X-0.350000X-0.450000X0.350000X-0.450000X0.350000X0.450000X-0.350000X0.450000X0*%
%ADD19RoundRect,0.250000X-0.450000X0.350000X-0.450000X-0.350000X0.450000X-0.350000X0.450000X0.350000X0*%
%ADD20RoundRect,0.250000X0.350000X0.450000X-0.350000X0.450000X-0.350000X-0.450000X0.350000X-0.450000X0*%
%ADD21RoundRect,0.250000X0.337500X0.475000X-0.337500X0.475000X-0.337500X-0.475000X0.337500X-0.475000X0*%
%ADD22R,0.250000X0.600000*%
%ADD23R,0.600000X0.250000*%
%ADD24R,1.500000X1.500000*%
%ADD25RoundRect,0.317500X1.157500X0.317500X-1.157500X0.317500X-1.157500X-0.317500X1.157500X-0.317500X0*%
G04 APERTURE END LIST*
D10*
%TO.C,U3*%
G36*
X111649000Y-94073000D02*
G01*
X111049000Y-94073000D01*
X111049000Y-93823000D01*
X111649000Y-93823000D01*
X111649000Y-94073000D01*
G37*
G36*
X111649000Y-94573000D02*
G01*
X111049000Y-94573000D01*
X111049000Y-94323000D01*
X111649000Y-94323000D01*
X111649000Y-94573000D01*
G37*
G36*
X111649000Y-95073000D02*
G01*
X111049000Y-95073000D01*
X111049000Y-94823000D01*
X111649000Y-94823000D01*
X111649000Y-95073000D01*
G37*
G36*
X111649000Y-95573000D02*
G01*
X111049000Y-95573000D01*
X111049000Y-95323000D01*
X111649000Y-95323000D01*
X111649000Y-95573000D01*
G37*
G36*
X112226000Y-93500000D02*
G01*
X111976000Y-93500000D01*
X111976000Y-92900000D01*
X112226000Y-92900000D01*
X112226000Y-93500000D01*
G37*
G36*
X112226000Y-96500000D02*
G01*
X111976000Y-96500000D01*
X111976000Y-95900000D01*
X112226000Y-95900000D01*
X112226000Y-96500000D01*
G37*
G36*
X113449000Y-95300000D02*
G01*
X112249000Y-95300000D01*
X112249000Y-94100000D01*
X113449000Y-94100000D01*
X113449000Y-95300000D01*
G37*
G36*
X112724000Y-93500000D02*
G01*
X112474000Y-93500000D01*
X112474000Y-92900000D01*
X112724000Y-92900000D01*
X112724000Y-93500000D01*
G37*
G36*
X112726000Y-96500000D02*
G01*
X112476000Y-96500000D01*
X112476000Y-95900000D01*
X112726000Y-95900000D01*
X112726000Y-96500000D01*
G37*
G36*
X113224000Y-93500000D02*
G01*
X112974000Y-93500000D01*
X112974000Y-92900000D01*
X113224000Y-92900000D01*
X113224000Y-93500000D01*
G37*
G36*
X113226000Y-96500000D02*
G01*
X112976000Y-96500000D01*
X112976000Y-95900000D01*
X113226000Y-95900000D01*
X113226000Y-96500000D01*
G37*
G36*
X113724000Y-93500000D02*
G01*
X113474000Y-93500000D01*
X113474000Y-92900000D01*
X113724000Y-92900000D01*
X113724000Y-93500000D01*
G37*
G36*
X113726000Y-96500000D02*
G01*
X113476000Y-96500000D01*
X113476000Y-95900000D01*
X113726000Y-95900000D01*
X113726000Y-96500000D01*
G37*
G36*
X114649000Y-94073000D02*
G01*
X114049000Y-94073000D01*
X114049000Y-93823000D01*
X114649000Y-93823000D01*
X114649000Y-94073000D01*
G37*
G36*
X114649000Y-94573000D02*
G01*
X114049000Y-94573000D01*
X114049000Y-94323000D01*
X114649000Y-94323000D01*
X114649000Y-94573000D01*
G37*
G36*
X114649000Y-95073000D02*
G01*
X114049000Y-95073000D01*
X114049000Y-94823000D01*
X114649000Y-94823000D01*
X114649000Y-95073000D01*
G37*
G36*
X114649000Y-95573000D02*
G01*
X114049000Y-95573000D01*
X114049000Y-95323000D01*
X114649000Y-95323000D01*
X114649000Y-95573000D01*
G37*
%TD*%
D11*
%TO.C,D5*%
X97472054Y-79478800D03*
X100000000Y-81600000D03*
%TD*%
D12*
%TO.C,AE1*%
X99032106Y-72817221D03*
D13*
X100320022Y-70294942D03*
X98112392Y-75495794D03*
%TD*%
D14*
%TO.C,C2*%
X116962500Y-93400000D03*
X119037500Y-93400000D03*
%TD*%
D15*
%TO.C,J1*%
X109100000Y-69400000D03*
X107850000Y-69400000D03*
D16*
X110950000Y-66200000D03*
X106000000Y-66200000D03*
%TD*%
D11*
%TO.C,D4*%
X97400000Y-82400000D03*
X99927946Y-84521200D03*
%TD*%
D17*
%TO.C,U2*%
X126275000Y-78150000D03*
X126275000Y-78850000D03*
X126275000Y-79550000D03*
X126275000Y-80250000D03*
X126275000Y-80950000D03*
X126275000Y-81650000D03*
X126275000Y-82350000D03*
X126275000Y-83050000D03*
X126275000Y-83750000D03*
X126275000Y-84450000D03*
X126275000Y-85150000D03*
X126275000Y-85850000D03*
%TD*%
D18*
%TO.C,R5*%
X118000000Y-71000000D03*
X120000000Y-71000000D03*
%TD*%
D19*
%TO.C,R1*%
X109200000Y-94400000D03*
X109200000Y-96400000D03*
%TD*%
D14*
%TO.C,C1*%
X116962500Y-91200000D03*
X119037500Y-91200000D03*
%TD*%
D20*
%TO.C,R8*%
X110200000Y-72000000D03*
X108200000Y-72000000D03*
%TD*%
D11*
%TO.C,D3*%
X97536027Y-85739400D03*
X100063973Y-87860600D03*
%TD*%
D14*
%TO.C,C4*%
X113562500Y-69400000D03*
X115637500Y-69400000D03*
%TD*%
D20*
%TO.C,R4*%
X118800000Y-95800000D03*
X116800000Y-95800000D03*
%TD*%
D21*
%TO.C,C5*%
X106275000Y-72000000D03*
X104200000Y-72000000D03*
%TD*%
D20*
%TO.C,R6*%
X99200000Y-77800000D03*
X97200000Y-77800000D03*
%TD*%
D22*
%TO.C,U3*%
X112101000Y-96200000D03*
X112600000Y-96200000D03*
X113101000Y-96200000D03*
X113600000Y-96200000D03*
D23*
X114349000Y-95448000D03*
X114349000Y-94948000D03*
X114349000Y-94448000D03*
X114349000Y-93948000D03*
D22*
X113599000Y-93200000D03*
X113099000Y-93200000D03*
X112599000Y-93200000D03*
X112101000Y-93200000D03*
D23*
X111349000Y-93948000D03*
X111349000Y-94448000D03*
X111349000Y-94948000D03*
X111349000Y-95448000D03*
D24*
X112849000Y-94700000D03*
%TD*%
D25*
%TO.C,U1*%
X117725000Y-88400000D03*
X117725000Y-86400000D03*
X117725000Y-84400000D03*
X117725000Y-82400000D03*
X117725000Y-80400000D03*
X117725000Y-78400000D03*
X117725000Y-76400000D03*
X117725000Y-74400000D03*
X102675000Y-74400000D03*
X102675000Y-76400000D03*
X102675000Y-78400000D03*
X102675000Y-80400000D03*
X102675000Y-82400000D03*
X102675000Y-84400000D03*
X102675000Y-86400000D03*
X102675000Y-88400000D03*
%TD*%
M02*
