%TF.GenerationSoftware,KiCad,Pcbnew,8.0.0*%
%TF.CreationDate,2024-03-22T20:52:57+01:00*%
%TF.ProjectId,rotatror,726f7461-7472-46f7-922e-6b696361645f,rev?*%
%TF.SameCoordinates,Original*%
%TF.FileFunction,Soldermask,Top*%
%TF.FilePolarity,Negative*%
%FSLAX46Y46*%
G04 Gerber Fmt 4.6, Leading zero omitted, Abs format (unit mm)*
G04 Created by KiCad (PCBNEW 8.0.0) date 2024-03-22 20:52:57*
%MOMM*%
%LPD*%
G01*
G04 APERTURE LIST*
G04 Aperture macros list*
%AMRoundRect*
0 Rectangle with rounded corners*
0 $1 Rounding radius*
0 $2 $3 $4 $5 $6 $7 $8 $9 X,Y pos of 4 corners*
0 Add a 4 corners polygon primitive as box body*
4,1,4,$2,$3,$4,$5,$6,$7,$8,$9,$2,$3,0*
0 Add four circle primitives for the rounded corners*
1,1,$1+$1,$2,$3*
1,1,$1+$1,$4,$5*
1,1,$1+$1,$6,$7*
1,1,$1+$1,$8,$9*
0 Add four rect primitives between the rounded corners*
20,1,$1+$1,$2,$3,$4,$5,0*
20,1,$1+$1,$4,$5,$6,$7,0*
20,1,$1+$1,$6,$7,$8,$9,0*
20,1,$1+$1,$8,$9,$2,$3,0*%
%AMFreePoly0*
4,1,19,0.500000,-0.750000,0.000000,-0.750000,0.000000,-0.744911,-0.071157,-0.744911,-0.207708,-0.704816,-0.327430,-0.627875,-0.420627,-0.520320,-0.479746,-0.390866,-0.500000,-0.250000,-0.500000,0.250000,-0.479746,0.390866,-0.420627,0.520320,-0.327430,0.627875,-0.207708,0.704816,-0.071157,0.744911,0.000000,0.744911,0.000000,0.750000,0.500000,0.750000,0.500000,-0.750000,0.500000,-0.750000,
$1*%
%AMFreePoly1*
4,1,19,0.000000,0.744911,0.071157,0.744911,0.207708,0.704816,0.327430,0.627875,0.420627,0.520320,0.479746,0.390866,0.500000,0.250000,0.500000,-0.250000,0.479746,-0.390866,0.420627,-0.520320,0.327430,-0.627875,0.207708,-0.704816,0.071157,-0.744911,0.000000,-0.744911,0.000000,-0.750000,-0.500000,-0.750000,-0.500000,0.750000,0.000000,0.750000,0.000000,0.744911,0.000000,0.744911,
$1*%
G04 Aperture macros list end*
%ADD10RoundRect,0.200000X-0.200000X-0.275000X0.200000X-0.275000X0.200000X0.275000X-0.200000X0.275000X0*%
%ADD11FreePoly0,180.000000*%
%ADD12FreePoly1,180.000000*%
%ADD13RoundRect,0.250000X0.561786X-0.154687X0.330922X0.479606X-0.561786X0.154687X-0.330922X-0.479606X0*%
%ADD14RoundRect,0.150000X0.150000X-0.512500X0.150000X0.512500X-0.150000X0.512500X-0.150000X-0.512500X0*%
%ADD15RoundRect,0.237500X-0.237500X0.250000X-0.237500X-0.250000X0.237500X-0.250000X0.237500X0.250000X0*%
%ADD16RoundRect,0.250000X-0.450000X0.350000X-0.450000X-0.350000X0.450000X-0.350000X0.450000X0.350000X0*%
%ADD17RoundRect,0.250000X0.350000X0.450000X-0.350000X0.450000X-0.350000X-0.450000X0.350000X-0.450000X0*%
%ADD18C,0.750000*%
%ADD19O,1.200000X2.000000*%
%ADD20O,1.200000X1.800000*%
%ADD21R,0.300000X1.300000*%
%ADD22RoundRect,0.250000X0.450000X-0.350000X0.450000X0.350000X-0.450000X0.350000X-0.450000X-0.350000X0*%
%ADD23RoundRect,0.250000X0.475000X-0.337500X0.475000X0.337500X-0.475000X0.337500X-0.475000X-0.337500X0*%
%ADD24R,1.700000X1.700000*%
%ADD25O,1.700000X1.700000*%
%ADD26R,1.500000X1.500000*%
%ADD27RoundRect,0.237500X0.250000X0.237500X-0.250000X0.237500X-0.250000X-0.237500X0.250000X-0.237500X0*%
%ADD28RoundRect,0.250000X-0.350000X-0.450000X0.350000X-0.450000X0.350000X0.450000X-0.350000X0.450000X0*%
%ADD29R,1.500000X0.900000*%
%ADD30R,0.900000X1.500000*%
%ADD31C,0.600000*%
%ADD32R,2.450000X2.910000*%
%ADD33RoundRect,0.237500X0.237500X-0.250000X0.237500X0.250000X-0.237500X0.250000X-0.237500X-0.250000X0*%
%ADD34RoundRect,0.250000X0.337500X0.475000X-0.337500X0.475000X-0.337500X-0.475000X0.337500X-0.475000X0*%
%ADD35RoundRect,0.250000X-0.337500X-0.475000X0.337500X-0.475000X0.337500X0.475000X-0.337500X0.475000X0*%
%ADD36C,4.000000*%
%ADD37C,1.600000*%
%ADD38C,2.304000*%
G04 APERTURE END LIST*
D10*
%TO.C,R19*%
X129150000Y-84400000D03*
X130800000Y-84400000D03*
%TD*%
D11*
%TO.C,JP1*%
X108700000Y-80800000D03*
D12*
X107400000Y-80800000D03*
%TD*%
D13*
%TO.C,C6*%
X129917346Y-74174931D03*
X129207654Y-72225069D03*
%TD*%
D14*
%TO.C,U2*%
X99050000Y-77537500D03*
X100000000Y-77537500D03*
X100950000Y-77537500D03*
X100950000Y-75262500D03*
X99050000Y-75262500D03*
%TD*%
D15*
%TO.C,R5*%
X110600000Y-91487500D03*
X110600000Y-93312500D03*
%TD*%
D16*
%TO.C,R10*%
X99200000Y-85600000D03*
X99200000Y-87600000D03*
%TD*%
D17*
%TO.C,R9*%
X129400000Y-82600000D03*
X131400000Y-82600000D03*
%TD*%
D18*
%TO.C,U3*%
X113850000Y-93145500D03*
X119650000Y-93145500D03*
D19*
X112425000Y-92645500D03*
D20*
X112425000Y-96845500D03*
D19*
X121075000Y-92645500D03*
D20*
X121075000Y-96845500D03*
D21*
X113400000Y-91577500D03*
X114200000Y-91577500D03*
X115500000Y-91577500D03*
X116500000Y-91577500D03*
X117000000Y-91577500D03*
X118000000Y-91577500D03*
X119300000Y-91577500D03*
X120100000Y-91577500D03*
X119800000Y-91577500D03*
X119000000Y-91577500D03*
X118500000Y-91577500D03*
X117500000Y-91577500D03*
X116000000Y-91577500D03*
X115000000Y-91577500D03*
X114500000Y-91577500D03*
X113700000Y-91577500D03*
%TD*%
D22*
%TO.C,R1*%
X102800000Y-76800000D03*
X102800000Y-74800000D03*
%TD*%
D23*
%TO.C,C1*%
X103200000Y-80637500D03*
X103200000Y-78562500D03*
%TD*%
D24*
%TO.C,J1*%
X126600000Y-73180000D03*
D25*
X126600000Y-75720000D03*
X126600000Y-78260000D03*
X126600000Y-80800000D03*
X126600000Y-83340000D03*
X126600000Y-85880000D03*
%TD*%
D17*
%TO.C,R8*%
X108600000Y-93600000D03*
X106600000Y-93600000D03*
%TD*%
D26*
%TO.C,BOT*%
X130800000Y-80400000D03*
%TD*%
D27*
%TO.C,R2*%
X103312500Y-85800000D03*
X101487500Y-85800000D03*
%TD*%
D28*
%TO.C,R7*%
X106600000Y-91600000D03*
X108600000Y-91600000D03*
%TD*%
D15*
%TO.C,R3*%
X103200000Y-82287500D03*
X103200000Y-84112500D03*
%TD*%
D29*
%TO.C,U1*%
X105250000Y-71490000D03*
X105250000Y-72760000D03*
X105250000Y-74030000D03*
X105250000Y-75300000D03*
X105250000Y-76570000D03*
X105250000Y-77840000D03*
X105250000Y-79110000D03*
X105250000Y-80380000D03*
X105250000Y-81650000D03*
X105250000Y-82920000D03*
X105250000Y-84190000D03*
X105250000Y-85460000D03*
X105250000Y-86730000D03*
X105250000Y-88000000D03*
D30*
X107015000Y-89250000D03*
X108285000Y-89250000D03*
X109555000Y-89250000D03*
X110825000Y-89250000D03*
X112095000Y-89250000D03*
X113365000Y-89250000D03*
X114635000Y-89250000D03*
X115905000Y-89250000D03*
X117175000Y-89250000D03*
X118445000Y-89250000D03*
X119715000Y-89250000D03*
X120985000Y-89250000D03*
D29*
X122750000Y-88000000D03*
X122750000Y-86730000D03*
X122750000Y-85460000D03*
X122750000Y-84190000D03*
X122750000Y-82920000D03*
X122750000Y-81650000D03*
X122750000Y-80380000D03*
X122750000Y-79110000D03*
X122750000Y-77840000D03*
X122750000Y-76570000D03*
X122750000Y-75300000D03*
X122750000Y-74030000D03*
X122750000Y-72760000D03*
X122750000Y-71490000D03*
D31*
X111100000Y-78510000D03*
X111100000Y-79910000D03*
D32*
X111775000Y-79705000D03*
D31*
X111800000Y-79210000D03*
X111800000Y-80610000D03*
X112500000Y-78510000D03*
X112500000Y-79910000D03*
%TD*%
D33*
%TO.C,R6*%
X122800000Y-94912500D03*
X122800000Y-93087500D03*
%TD*%
D17*
%TO.C,R4*%
X101000000Y-79600000D03*
X99000000Y-79600000D03*
%TD*%
D34*
%TO.C,C2*%
X101000000Y-81600000D03*
X98925000Y-81600000D03*
%TD*%
D28*
%TO.C,R11*%
X99000000Y-83800000D03*
X101000000Y-83800000D03*
%TD*%
D35*
%TO.C,C4*%
X100962500Y-72800000D03*
X103037500Y-72800000D03*
%TD*%
D36*
%TO.C,S1*%
X124654410Y-69191210D03*
X103441210Y-69191210D03*
D37*
X110865830Y-76615830D03*
X117229790Y-82979790D03*
D36*
X124654410Y-90404410D03*
X103441210Y-90404410D03*
D38*
X120595620Y-86345620D03*
X107500000Y-86345620D03*
X107500000Y-73250000D03*
X130127410Y-76545120D03*
X115157970Y-78687650D03*
X129158710Y-87526480D03*
X110441570Y-95948110D03*
X98936910Y-72069140D03*
X117300500Y-63718210D03*
%TD*%
M02*
