%TF.GenerationSoftware,KiCad,Pcbnew,8.0.0*%
%TF.CreationDate,2024-03-22T20:52:57+01:00*%
%TF.ProjectId,rotatror,726f7461-7472-46f7-922e-6b696361645f,rev?*%
%TF.SameCoordinates,Original*%
%TF.FileFunction,Legend,Bot*%
%TF.FilePolarity,Positive*%
%FSLAX46Y46*%
G04 Gerber Fmt 4.6, Leading zero omitted, Abs format (unit mm)*
G04 Created by KiCad (PCBNEW 8.0.0) date 2024-03-22 20:52:57*
%MOMM*%
%LPD*%
G01*
G04 APERTURE LIST*
%ADD10C,0.150000*%
%ADD11C,0.152000*%
%ADD12C,0.120000*%
%ADD13C,0.254000*%
%ADD14C,0.127000*%
G04 APERTURE END LIST*
D10*
X128829819Y-81238095D02*
X129639342Y-81238095D01*
X129639342Y-81238095D02*
X129734580Y-81285714D01*
X129734580Y-81285714D02*
X129782200Y-81333333D01*
X129782200Y-81333333D02*
X129829819Y-81428571D01*
X129829819Y-81428571D02*
X129829819Y-81619047D01*
X129829819Y-81619047D02*
X129782200Y-81714285D01*
X129782200Y-81714285D02*
X129734580Y-81761904D01*
X129734580Y-81761904D02*
X129639342Y-81809523D01*
X129639342Y-81809523D02*
X128829819Y-81809523D01*
X128829819Y-82761904D02*
X128829819Y-82285714D01*
X128829819Y-82285714D02*
X129306009Y-82238095D01*
X129306009Y-82238095D02*
X129258390Y-82285714D01*
X129258390Y-82285714D02*
X129210771Y-82380952D01*
X129210771Y-82380952D02*
X129210771Y-82619047D01*
X129210771Y-82619047D02*
X129258390Y-82714285D01*
X129258390Y-82714285D02*
X129306009Y-82761904D01*
X129306009Y-82761904D02*
X129401247Y-82809523D01*
X129401247Y-82809523D02*
X129639342Y-82809523D01*
X129639342Y-82809523D02*
X129734580Y-82761904D01*
X129734580Y-82761904D02*
X129782200Y-82714285D01*
X129782200Y-82714285D02*
X129829819Y-82619047D01*
X129829819Y-82619047D02*
X129829819Y-82380952D01*
X129829819Y-82380952D02*
X129782200Y-82285714D01*
X129782200Y-82285714D02*
X129734580Y-82238095D01*
X129379819Y-78435714D02*
X129379819Y-77864286D01*
X129379819Y-78150000D02*
X128379819Y-78150000D01*
X128379819Y-78150000D02*
X128522676Y-78054762D01*
X128522676Y-78054762D02*
X128617914Y-77959524D01*
X128617914Y-77959524D02*
X128665533Y-77864286D01*
X129379819Y-85159523D02*
X129379819Y-84588095D01*
X129379819Y-84873809D02*
X128379819Y-84873809D01*
X128379819Y-84873809D02*
X128522676Y-84778571D01*
X128522676Y-84778571D02*
X128617914Y-84683333D01*
X128617914Y-84683333D02*
X128665533Y-84588095D01*
X128475057Y-85540476D02*
X128427438Y-85588095D01*
X128427438Y-85588095D02*
X128379819Y-85683333D01*
X128379819Y-85683333D02*
X128379819Y-85921428D01*
X128379819Y-85921428D02*
X128427438Y-86016666D01*
X128427438Y-86016666D02*
X128475057Y-86064285D01*
X128475057Y-86064285D02*
X128570295Y-86111904D01*
X128570295Y-86111904D02*
X128665533Y-86111904D01*
X128665533Y-86111904D02*
X128808390Y-86064285D01*
X128808390Y-86064285D02*
X129379819Y-85492857D01*
X129379819Y-85492857D02*
X129379819Y-86111904D01*
X119654819Y-83157142D02*
X119178628Y-82823809D01*
X119654819Y-82585714D02*
X118654819Y-82585714D01*
X118654819Y-82585714D02*
X118654819Y-82966666D01*
X118654819Y-82966666D02*
X118702438Y-83061904D01*
X118702438Y-83061904D02*
X118750057Y-83109523D01*
X118750057Y-83109523D02*
X118845295Y-83157142D01*
X118845295Y-83157142D02*
X118988152Y-83157142D01*
X118988152Y-83157142D02*
X119083390Y-83109523D01*
X119083390Y-83109523D02*
X119131009Y-83061904D01*
X119131009Y-83061904D02*
X119178628Y-82966666D01*
X119178628Y-82966666D02*
X119178628Y-82585714D01*
X119654819Y-84109523D02*
X119654819Y-83538095D01*
X119654819Y-83823809D02*
X118654819Y-83823809D01*
X118654819Y-83823809D02*
X118797676Y-83728571D01*
X118797676Y-83728571D02*
X118892914Y-83633333D01*
X118892914Y-83633333D02*
X118940533Y-83538095D01*
X119083390Y-84680952D02*
X119035771Y-84585714D01*
X119035771Y-84585714D02*
X118988152Y-84538095D01*
X118988152Y-84538095D02*
X118892914Y-84490476D01*
X118892914Y-84490476D02*
X118845295Y-84490476D01*
X118845295Y-84490476D02*
X118750057Y-84538095D01*
X118750057Y-84538095D02*
X118702438Y-84585714D01*
X118702438Y-84585714D02*
X118654819Y-84680952D01*
X118654819Y-84680952D02*
X118654819Y-84871428D01*
X118654819Y-84871428D02*
X118702438Y-84966666D01*
X118702438Y-84966666D02*
X118750057Y-85014285D01*
X118750057Y-85014285D02*
X118845295Y-85061904D01*
X118845295Y-85061904D02*
X118892914Y-85061904D01*
X118892914Y-85061904D02*
X118988152Y-85014285D01*
X118988152Y-85014285D02*
X119035771Y-84966666D01*
X119035771Y-84966666D02*
X119083390Y-84871428D01*
X119083390Y-84871428D02*
X119083390Y-84680952D01*
X119083390Y-84680952D02*
X119131009Y-84585714D01*
X119131009Y-84585714D02*
X119178628Y-84538095D01*
X119178628Y-84538095D02*
X119273866Y-84490476D01*
X119273866Y-84490476D02*
X119464342Y-84490476D01*
X119464342Y-84490476D02*
X119559580Y-84538095D01*
X119559580Y-84538095D02*
X119607200Y-84585714D01*
X119607200Y-84585714D02*
X119654819Y-84680952D01*
X119654819Y-84680952D02*
X119654819Y-84871428D01*
X119654819Y-84871428D02*
X119607200Y-84966666D01*
X119607200Y-84966666D02*
X119559580Y-85014285D01*
X119559580Y-85014285D02*
X119464342Y-85061904D01*
X119464342Y-85061904D02*
X119273866Y-85061904D01*
X119273866Y-85061904D02*
X119178628Y-85014285D01*
X119178628Y-85014285D02*
X119131009Y-84966666D01*
X119131009Y-84966666D02*
X119083390Y-84871428D01*
X114654819Y-81557142D02*
X114178628Y-81223809D01*
X114654819Y-80985714D02*
X113654819Y-80985714D01*
X113654819Y-80985714D02*
X113654819Y-81366666D01*
X113654819Y-81366666D02*
X113702438Y-81461904D01*
X113702438Y-81461904D02*
X113750057Y-81509523D01*
X113750057Y-81509523D02*
X113845295Y-81557142D01*
X113845295Y-81557142D02*
X113988152Y-81557142D01*
X113988152Y-81557142D02*
X114083390Y-81509523D01*
X114083390Y-81509523D02*
X114131009Y-81461904D01*
X114131009Y-81461904D02*
X114178628Y-81366666D01*
X114178628Y-81366666D02*
X114178628Y-80985714D01*
X114654819Y-82509523D02*
X114654819Y-81938095D01*
X114654819Y-82223809D02*
X113654819Y-82223809D01*
X113654819Y-82223809D02*
X113797676Y-82128571D01*
X113797676Y-82128571D02*
X113892914Y-82033333D01*
X113892914Y-82033333D02*
X113940533Y-81938095D01*
X113654819Y-82842857D02*
X113654819Y-83509523D01*
X113654819Y-83509523D02*
X114654819Y-83080952D01*
X115842857Y-77054819D02*
X116176190Y-76578628D01*
X116414285Y-77054819D02*
X116414285Y-76054819D01*
X116414285Y-76054819D02*
X116033333Y-76054819D01*
X116033333Y-76054819D02*
X115938095Y-76102438D01*
X115938095Y-76102438D02*
X115890476Y-76150057D01*
X115890476Y-76150057D02*
X115842857Y-76245295D01*
X115842857Y-76245295D02*
X115842857Y-76388152D01*
X115842857Y-76388152D02*
X115890476Y-76483390D01*
X115890476Y-76483390D02*
X115938095Y-76531009D01*
X115938095Y-76531009D02*
X116033333Y-76578628D01*
X116033333Y-76578628D02*
X116414285Y-76578628D01*
X114890476Y-77054819D02*
X115461904Y-77054819D01*
X115176190Y-77054819D02*
X115176190Y-76054819D01*
X115176190Y-76054819D02*
X115271428Y-76197676D01*
X115271428Y-76197676D02*
X115366666Y-76292914D01*
X115366666Y-76292914D02*
X115461904Y-76340533D01*
X114033333Y-76054819D02*
X114223809Y-76054819D01*
X114223809Y-76054819D02*
X114319047Y-76102438D01*
X114319047Y-76102438D02*
X114366666Y-76150057D01*
X114366666Y-76150057D02*
X114461904Y-76292914D01*
X114461904Y-76292914D02*
X114509523Y-76483390D01*
X114509523Y-76483390D02*
X114509523Y-76864342D01*
X114509523Y-76864342D02*
X114461904Y-76959580D01*
X114461904Y-76959580D02*
X114414285Y-77007200D01*
X114414285Y-77007200D02*
X114319047Y-77054819D01*
X114319047Y-77054819D02*
X114128571Y-77054819D01*
X114128571Y-77054819D02*
X114033333Y-77007200D01*
X114033333Y-77007200D02*
X113985714Y-76959580D01*
X113985714Y-76959580D02*
X113938095Y-76864342D01*
X113938095Y-76864342D02*
X113938095Y-76626247D01*
X113938095Y-76626247D02*
X113985714Y-76531009D01*
X113985714Y-76531009D02*
X114033333Y-76483390D01*
X114033333Y-76483390D02*
X114128571Y-76435771D01*
X114128571Y-76435771D02*
X114319047Y-76435771D01*
X114319047Y-76435771D02*
X114414285Y-76483390D01*
X114414285Y-76483390D02*
X114461904Y-76531009D01*
X114461904Y-76531009D02*
X114509523Y-76626247D01*
X119295238Y-80950057D02*
X119390476Y-80902438D01*
X119390476Y-80902438D02*
X119485714Y-80807200D01*
X119485714Y-80807200D02*
X119628571Y-80664342D01*
X119628571Y-80664342D02*
X119723809Y-80616723D01*
X119723809Y-80616723D02*
X119819047Y-80616723D01*
X119771428Y-80854819D02*
X119866666Y-80807200D01*
X119866666Y-80807200D02*
X119961904Y-80711961D01*
X119961904Y-80711961D02*
X120009523Y-80521485D01*
X120009523Y-80521485D02*
X120009523Y-80188152D01*
X120009523Y-80188152D02*
X119961904Y-79997676D01*
X119961904Y-79997676D02*
X119866666Y-79902438D01*
X119866666Y-79902438D02*
X119771428Y-79854819D01*
X119771428Y-79854819D02*
X119580952Y-79854819D01*
X119580952Y-79854819D02*
X119485714Y-79902438D01*
X119485714Y-79902438D02*
X119390476Y-79997676D01*
X119390476Y-79997676D02*
X119342857Y-80188152D01*
X119342857Y-80188152D02*
X119342857Y-80521485D01*
X119342857Y-80521485D02*
X119390476Y-80711961D01*
X119390476Y-80711961D02*
X119485714Y-80807200D01*
X119485714Y-80807200D02*
X119580952Y-80854819D01*
X119580952Y-80854819D02*
X119771428Y-80854819D01*
X118390476Y-80854819D02*
X118961904Y-80854819D01*
X118676190Y-80854819D02*
X118676190Y-79854819D01*
X118676190Y-79854819D02*
X118771428Y-79997676D01*
X118771428Y-79997676D02*
X118866666Y-80092914D01*
X118866666Y-80092914D02*
X118961904Y-80140533D01*
X98454819Y-76557142D02*
X97978628Y-76223809D01*
X98454819Y-75985714D02*
X97454819Y-75985714D01*
X97454819Y-75985714D02*
X97454819Y-76366666D01*
X97454819Y-76366666D02*
X97502438Y-76461904D01*
X97502438Y-76461904D02*
X97550057Y-76509523D01*
X97550057Y-76509523D02*
X97645295Y-76557142D01*
X97645295Y-76557142D02*
X97788152Y-76557142D01*
X97788152Y-76557142D02*
X97883390Y-76509523D01*
X97883390Y-76509523D02*
X97931009Y-76461904D01*
X97931009Y-76461904D02*
X97978628Y-76366666D01*
X97978628Y-76366666D02*
X97978628Y-75985714D01*
X98454819Y-77509523D02*
X98454819Y-76938095D01*
X98454819Y-77223809D02*
X97454819Y-77223809D01*
X97454819Y-77223809D02*
X97597676Y-77128571D01*
X97597676Y-77128571D02*
X97692914Y-77033333D01*
X97692914Y-77033333D02*
X97740533Y-76938095D01*
X97454819Y-78414285D02*
X97454819Y-77938095D01*
X97454819Y-77938095D02*
X97931009Y-77890476D01*
X97931009Y-77890476D02*
X97883390Y-77938095D01*
X97883390Y-77938095D02*
X97835771Y-78033333D01*
X97835771Y-78033333D02*
X97835771Y-78271428D01*
X97835771Y-78271428D02*
X97883390Y-78366666D01*
X97883390Y-78366666D02*
X97931009Y-78414285D01*
X97931009Y-78414285D02*
X98026247Y-78461904D01*
X98026247Y-78461904D02*
X98264342Y-78461904D01*
X98264342Y-78461904D02*
X98359580Y-78414285D01*
X98359580Y-78414285D02*
X98407200Y-78366666D01*
X98407200Y-78366666D02*
X98454819Y-78271428D01*
X98454819Y-78271428D02*
X98454819Y-78033333D01*
X98454819Y-78033333D02*
X98407200Y-77938095D01*
X98407200Y-77938095D02*
X98359580Y-77890476D01*
X98454819Y-79957142D02*
X97978628Y-79623809D01*
X98454819Y-79385714D02*
X97454819Y-79385714D01*
X97454819Y-79385714D02*
X97454819Y-79766666D01*
X97454819Y-79766666D02*
X97502438Y-79861904D01*
X97502438Y-79861904D02*
X97550057Y-79909523D01*
X97550057Y-79909523D02*
X97645295Y-79957142D01*
X97645295Y-79957142D02*
X97788152Y-79957142D01*
X97788152Y-79957142D02*
X97883390Y-79909523D01*
X97883390Y-79909523D02*
X97931009Y-79861904D01*
X97931009Y-79861904D02*
X97978628Y-79766666D01*
X97978628Y-79766666D02*
X97978628Y-79385714D01*
X98454819Y-80909523D02*
X98454819Y-80338095D01*
X98454819Y-80623809D02*
X97454819Y-80623809D01*
X97454819Y-80623809D02*
X97597676Y-80528571D01*
X97597676Y-80528571D02*
X97692914Y-80433333D01*
X97692914Y-80433333D02*
X97740533Y-80338095D01*
X97788152Y-81766666D02*
X98454819Y-81766666D01*
X97407200Y-81528571D02*
X98121485Y-81290476D01*
X98121485Y-81290476D02*
X98121485Y-81909523D01*
X122609523Y-76562295D02*
X122152380Y-76562295D01*
X122380952Y-77362295D02*
X122380952Y-76562295D01*
X121885713Y-77362295D02*
X121885713Y-76562295D01*
X121885713Y-76562295D02*
X121580951Y-76562295D01*
X121580951Y-76562295D02*
X121504761Y-76600390D01*
X121504761Y-76600390D02*
X121466666Y-76638485D01*
X121466666Y-76638485D02*
X121428570Y-76714676D01*
X121428570Y-76714676D02*
X121428570Y-76828961D01*
X121428570Y-76828961D02*
X121466666Y-76905152D01*
X121466666Y-76905152D02*
X121504761Y-76943247D01*
X121504761Y-76943247D02*
X121580951Y-76981342D01*
X121580951Y-76981342D02*
X121885713Y-76981342D01*
X120666666Y-77362295D02*
X121123809Y-77362295D01*
X120895237Y-77362295D02*
X120895237Y-76562295D01*
X120895237Y-76562295D02*
X120971428Y-76676580D01*
X120971428Y-76676580D02*
X121047618Y-76752771D01*
X121047618Y-76752771D02*
X121123809Y-76790866D01*
X107054819Y-78738095D02*
X107054819Y-79309523D01*
X108054819Y-79023809D02*
X107054819Y-79023809D01*
X108054819Y-79642857D02*
X107054819Y-79642857D01*
X107054819Y-79642857D02*
X107054819Y-80023809D01*
X107054819Y-80023809D02*
X107102438Y-80119047D01*
X107102438Y-80119047D02*
X107150057Y-80166666D01*
X107150057Y-80166666D02*
X107245295Y-80214285D01*
X107245295Y-80214285D02*
X107388152Y-80214285D01*
X107388152Y-80214285D02*
X107483390Y-80166666D01*
X107483390Y-80166666D02*
X107531009Y-80119047D01*
X107531009Y-80119047D02*
X107578628Y-80023809D01*
X107578628Y-80023809D02*
X107578628Y-79642857D01*
X107054819Y-81071428D02*
X107054819Y-80880952D01*
X107054819Y-80880952D02*
X107102438Y-80785714D01*
X107102438Y-80785714D02*
X107150057Y-80738095D01*
X107150057Y-80738095D02*
X107292914Y-80642857D01*
X107292914Y-80642857D02*
X107483390Y-80595238D01*
X107483390Y-80595238D02*
X107864342Y-80595238D01*
X107864342Y-80595238D02*
X107959580Y-80642857D01*
X107959580Y-80642857D02*
X108007200Y-80690476D01*
X108007200Y-80690476D02*
X108054819Y-80785714D01*
X108054819Y-80785714D02*
X108054819Y-80976190D01*
X108054819Y-80976190D02*
X108007200Y-81071428D01*
X108007200Y-81071428D02*
X107959580Y-81119047D01*
X107959580Y-81119047D02*
X107864342Y-81166666D01*
X107864342Y-81166666D02*
X107626247Y-81166666D01*
X107626247Y-81166666D02*
X107531009Y-81119047D01*
X107531009Y-81119047D02*
X107483390Y-81071428D01*
X107483390Y-81071428D02*
X107435771Y-80976190D01*
X107435771Y-80976190D02*
X107435771Y-80785714D01*
X107435771Y-80785714D02*
X107483390Y-80690476D01*
X107483390Y-80690476D02*
X107531009Y-80642857D01*
X107531009Y-80642857D02*
X107626247Y-80595238D01*
X109454819Y-78738095D02*
X109454819Y-79309523D01*
X110454819Y-79023809D02*
X109454819Y-79023809D01*
X110454819Y-79642857D02*
X109454819Y-79642857D01*
X109454819Y-79642857D02*
X109454819Y-80023809D01*
X109454819Y-80023809D02*
X109502438Y-80119047D01*
X109502438Y-80119047D02*
X109550057Y-80166666D01*
X109550057Y-80166666D02*
X109645295Y-80214285D01*
X109645295Y-80214285D02*
X109788152Y-80214285D01*
X109788152Y-80214285D02*
X109883390Y-80166666D01*
X109883390Y-80166666D02*
X109931009Y-80119047D01*
X109931009Y-80119047D02*
X109978628Y-80023809D01*
X109978628Y-80023809D02*
X109978628Y-79642857D01*
X109454819Y-81119047D02*
X109454819Y-80642857D01*
X109454819Y-80642857D02*
X109931009Y-80595238D01*
X109931009Y-80595238D02*
X109883390Y-80642857D01*
X109883390Y-80642857D02*
X109835771Y-80738095D01*
X109835771Y-80738095D02*
X109835771Y-80976190D01*
X109835771Y-80976190D02*
X109883390Y-81071428D01*
X109883390Y-81071428D02*
X109931009Y-81119047D01*
X109931009Y-81119047D02*
X110026247Y-81166666D01*
X110026247Y-81166666D02*
X110264342Y-81166666D01*
X110264342Y-81166666D02*
X110359580Y-81119047D01*
X110359580Y-81119047D02*
X110407200Y-81071428D01*
X110407200Y-81071428D02*
X110454819Y-80976190D01*
X110454819Y-80976190D02*
X110454819Y-80738095D01*
X110454819Y-80738095D02*
X110407200Y-80642857D01*
X110407200Y-80642857D02*
X110359580Y-80595238D01*
X114242857Y-86254819D02*
X114576190Y-85778628D01*
X114814285Y-86254819D02*
X114814285Y-85254819D01*
X114814285Y-85254819D02*
X114433333Y-85254819D01*
X114433333Y-85254819D02*
X114338095Y-85302438D01*
X114338095Y-85302438D02*
X114290476Y-85350057D01*
X114290476Y-85350057D02*
X114242857Y-85445295D01*
X114242857Y-85445295D02*
X114242857Y-85588152D01*
X114242857Y-85588152D02*
X114290476Y-85683390D01*
X114290476Y-85683390D02*
X114338095Y-85731009D01*
X114338095Y-85731009D02*
X114433333Y-85778628D01*
X114433333Y-85778628D02*
X114814285Y-85778628D01*
X113290476Y-86254819D02*
X113861904Y-86254819D01*
X113576190Y-86254819D02*
X113576190Y-85254819D01*
X113576190Y-85254819D02*
X113671428Y-85397676D01*
X113671428Y-85397676D02*
X113766666Y-85492914D01*
X113766666Y-85492914D02*
X113861904Y-85540533D01*
X112909523Y-85350057D02*
X112861904Y-85302438D01*
X112861904Y-85302438D02*
X112766666Y-85254819D01*
X112766666Y-85254819D02*
X112528571Y-85254819D01*
X112528571Y-85254819D02*
X112433333Y-85302438D01*
X112433333Y-85302438D02*
X112385714Y-85350057D01*
X112385714Y-85350057D02*
X112338095Y-85445295D01*
X112338095Y-85445295D02*
X112338095Y-85540533D01*
X112338095Y-85540533D02*
X112385714Y-85683390D01*
X112385714Y-85683390D02*
X112957142Y-86254819D01*
X112957142Y-86254819D02*
X112338095Y-86254819D01*
X112738094Y-73454819D02*
X112738094Y-72454819D01*
X112738094Y-72454819D02*
X112499999Y-72454819D01*
X112499999Y-72454819D02*
X112357142Y-72502438D01*
X112357142Y-72502438D02*
X112261904Y-72597676D01*
X112261904Y-72597676D02*
X112214285Y-72692914D01*
X112214285Y-72692914D02*
X112166666Y-72883390D01*
X112166666Y-72883390D02*
X112166666Y-73026247D01*
X112166666Y-73026247D02*
X112214285Y-73216723D01*
X112214285Y-73216723D02*
X112261904Y-73311961D01*
X112261904Y-73311961D02*
X112357142Y-73407200D01*
X112357142Y-73407200D02*
X112499999Y-73454819D01*
X112499999Y-73454819D02*
X112738094Y-73454819D01*
X111785713Y-72550057D02*
X111738094Y-72502438D01*
X111738094Y-72502438D02*
X111642856Y-72454819D01*
X111642856Y-72454819D02*
X111404761Y-72454819D01*
X111404761Y-72454819D02*
X111309523Y-72502438D01*
X111309523Y-72502438D02*
X111261904Y-72550057D01*
X111261904Y-72550057D02*
X111214285Y-72645295D01*
X111214285Y-72645295D02*
X111214285Y-72740533D01*
X111214285Y-72740533D02*
X111261904Y-72883390D01*
X111261904Y-72883390D02*
X111833332Y-73454819D01*
X111833332Y-73454819D02*
X111214285Y-73454819D01*
X110714285Y-75254819D02*
X111285713Y-75254819D01*
X110999999Y-75254819D02*
X110999999Y-74254819D01*
X110999999Y-74254819D02*
X111095237Y-74397676D01*
X111095237Y-74397676D02*
X111190475Y-74492914D01*
X111190475Y-74492914D02*
X111285713Y-74540533D01*
X113879580Y-94633333D02*
X113927200Y-94585714D01*
X113927200Y-94585714D02*
X113974819Y-94442857D01*
X113974819Y-94442857D02*
X113974819Y-94347619D01*
X113974819Y-94347619D02*
X113927200Y-94204762D01*
X113927200Y-94204762D02*
X113831961Y-94109524D01*
X113831961Y-94109524D02*
X113736723Y-94061905D01*
X113736723Y-94061905D02*
X113546247Y-94014286D01*
X113546247Y-94014286D02*
X113403390Y-94014286D01*
X113403390Y-94014286D02*
X113212914Y-94061905D01*
X113212914Y-94061905D02*
X113117676Y-94109524D01*
X113117676Y-94109524D02*
X113022438Y-94204762D01*
X113022438Y-94204762D02*
X112974819Y-94347619D01*
X112974819Y-94347619D02*
X112974819Y-94442857D01*
X112974819Y-94442857D02*
X113022438Y-94585714D01*
X113022438Y-94585714D02*
X113070057Y-94633333D01*
X112974819Y-94966667D02*
X112974819Y-95585714D01*
X112974819Y-95585714D02*
X113355771Y-95252381D01*
X113355771Y-95252381D02*
X113355771Y-95395238D01*
X113355771Y-95395238D02*
X113403390Y-95490476D01*
X113403390Y-95490476D02*
X113451009Y-95538095D01*
X113451009Y-95538095D02*
X113546247Y-95585714D01*
X113546247Y-95585714D02*
X113784342Y-95585714D01*
X113784342Y-95585714D02*
X113879580Y-95538095D01*
X113879580Y-95538095D02*
X113927200Y-95490476D01*
X113927200Y-95490476D02*
X113974819Y-95395238D01*
X113974819Y-95395238D02*
X113974819Y-95109524D01*
X113974819Y-95109524D02*
X113927200Y-95014286D01*
X113927200Y-95014286D02*
X113879580Y-94966667D01*
X117054819Y-94557142D02*
X116578628Y-94223809D01*
X117054819Y-93985714D02*
X116054819Y-93985714D01*
X116054819Y-93985714D02*
X116054819Y-94366666D01*
X116054819Y-94366666D02*
X116102438Y-94461904D01*
X116102438Y-94461904D02*
X116150057Y-94509523D01*
X116150057Y-94509523D02*
X116245295Y-94557142D01*
X116245295Y-94557142D02*
X116388152Y-94557142D01*
X116388152Y-94557142D02*
X116483390Y-94509523D01*
X116483390Y-94509523D02*
X116531009Y-94461904D01*
X116531009Y-94461904D02*
X116578628Y-94366666D01*
X116578628Y-94366666D02*
X116578628Y-93985714D01*
X117054819Y-95509523D02*
X117054819Y-94938095D01*
X117054819Y-95223809D02*
X116054819Y-95223809D01*
X116054819Y-95223809D02*
X116197676Y-95128571D01*
X116197676Y-95128571D02*
X116292914Y-95033333D01*
X116292914Y-95033333D02*
X116340533Y-94938095D01*
X116054819Y-95842857D02*
X116054819Y-96461904D01*
X116054819Y-96461904D02*
X116435771Y-96128571D01*
X116435771Y-96128571D02*
X116435771Y-96271428D01*
X116435771Y-96271428D02*
X116483390Y-96366666D01*
X116483390Y-96366666D02*
X116531009Y-96414285D01*
X116531009Y-96414285D02*
X116626247Y-96461904D01*
X116626247Y-96461904D02*
X116864342Y-96461904D01*
X116864342Y-96461904D02*
X116959580Y-96414285D01*
X116959580Y-96414285D02*
X117007200Y-96366666D01*
X117007200Y-96366666D02*
X117054819Y-96271428D01*
X117054819Y-96271428D02*
X117054819Y-95985714D01*
X117054819Y-95985714D02*
X117007200Y-95890476D01*
X117007200Y-95890476D02*
X116959580Y-95842857D01*
X107654819Y-67757142D02*
X107654819Y-67280952D01*
X107654819Y-67280952D02*
X106654819Y-67280952D01*
X107131009Y-68090476D02*
X107131009Y-68423809D01*
X107654819Y-68566666D02*
X107654819Y-68090476D01*
X107654819Y-68090476D02*
X106654819Y-68090476D01*
X106654819Y-68090476D02*
X106654819Y-68566666D01*
X107654819Y-68995238D02*
X106654819Y-68995238D01*
X106654819Y-68995238D02*
X106654819Y-69233333D01*
X106654819Y-69233333D02*
X106702438Y-69376190D01*
X106702438Y-69376190D02*
X106797676Y-69471428D01*
X106797676Y-69471428D02*
X106892914Y-69519047D01*
X106892914Y-69519047D02*
X107083390Y-69566666D01*
X107083390Y-69566666D02*
X107226247Y-69566666D01*
X107226247Y-69566666D02*
X107416723Y-69519047D01*
X107416723Y-69519047D02*
X107511961Y-69471428D01*
X107511961Y-69471428D02*
X107607200Y-69376190D01*
X107607200Y-69376190D02*
X107654819Y-69233333D01*
X107654819Y-69233333D02*
X107654819Y-68995238D01*
D11*
X117884557Y-85121169D02*
X117884557Y-86046455D01*
X117884557Y-86046455D02*
X117830128Y-86155312D01*
X117830128Y-86155312D02*
X117775700Y-86209741D01*
X117775700Y-86209741D02*
X117666842Y-86264169D01*
X117666842Y-86264169D02*
X117449128Y-86264169D01*
X117449128Y-86264169D02*
X117340271Y-86209741D01*
X117340271Y-86209741D02*
X117285842Y-86155312D01*
X117285842Y-86155312D02*
X117231414Y-86046455D01*
X117231414Y-86046455D02*
X117231414Y-85121169D01*
X116197271Y-85502169D02*
X116197271Y-86264169D01*
X116469413Y-85066741D02*
X116741556Y-85883169D01*
X116741556Y-85883169D02*
X116033985Y-85883169D01*
D10*
X116961904Y-67407200D02*
X116819047Y-67454819D01*
X116819047Y-67454819D02*
X116580952Y-67454819D01*
X116580952Y-67454819D02*
X116485714Y-67407200D01*
X116485714Y-67407200D02*
X116438095Y-67359580D01*
X116438095Y-67359580D02*
X116390476Y-67264342D01*
X116390476Y-67264342D02*
X116390476Y-67169104D01*
X116390476Y-67169104D02*
X116438095Y-67073866D01*
X116438095Y-67073866D02*
X116485714Y-67026247D01*
X116485714Y-67026247D02*
X116580952Y-66978628D01*
X116580952Y-66978628D02*
X116771428Y-66931009D01*
X116771428Y-66931009D02*
X116866666Y-66883390D01*
X116866666Y-66883390D02*
X116914285Y-66835771D01*
X116914285Y-66835771D02*
X116961904Y-66740533D01*
X116961904Y-66740533D02*
X116961904Y-66645295D01*
X116961904Y-66645295D02*
X116914285Y-66550057D01*
X116914285Y-66550057D02*
X116866666Y-66502438D01*
X116866666Y-66502438D02*
X116771428Y-66454819D01*
X116771428Y-66454819D02*
X116533333Y-66454819D01*
X116533333Y-66454819D02*
X116390476Y-66502438D01*
X115438095Y-67454819D02*
X116009523Y-67454819D01*
X115723809Y-67454819D02*
X115723809Y-66454819D01*
X115723809Y-66454819D02*
X115819047Y-66597676D01*
X115819047Y-66597676D02*
X115914285Y-66692914D01*
X115914285Y-66692914D02*
X116009523Y-66740533D01*
X108102438Y-93438095D02*
X108054819Y-93342857D01*
X108054819Y-93342857D02*
X108054819Y-93200000D01*
X108054819Y-93200000D02*
X108102438Y-93057143D01*
X108102438Y-93057143D02*
X108197676Y-92961905D01*
X108197676Y-92961905D02*
X108292914Y-92914286D01*
X108292914Y-92914286D02*
X108483390Y-92866667D01*
X108483390Y-92866667D02*
X108626247Y-92866667D01*
X108626247Y-92866667D02*
X108816723Y-92914286D01*
X108816723Y-92914286D02*
X108911961Y-92961905D01*
X108911961Y-92961905D02*
X109007200Y-93057143D01*
X109007200Y-93057143D02*
X109054819Y-93200000D01*
X109054819Y-93200000D02*
X109054819Y-93295238D01*
X109054819Y-93295238D02*
X109007200Y-93438095D01*
X109007200Y-93438095D02*
X108959580Y-93485714D01*
X108959580Y-93485714D02*
X108626247Y-93485714D01*
X108626247Y-93485714D02*
X108626247Y-93295238D01*
X109054819Y-93914286D02*
X108054819Y-93914286D01*
X108054819Y-93914286D02*
X109054819Y-94485714D01*
X109054819Y-94485714D02*
X108054819Y-94485714D01*
X109054819Y-94961905D02*
X108054819Y-94961905D01*
X108054819Y-94961905D02*
X108054819Y-95200000D01*
X108054819Y-95200000D02*
X108102438Y-95342857D01*
X108102438Y-95342857D02*
X108197676Y-95438095D01*
X108197676Y-95438095D02*
X108292914Y-95485714D01*
X108292914Y-95485714D02*
X108483390Y-95533333D01*
X108483390Y-95533333D02*
X108626247Y-95533333D01*
X108626247Y-95533333D02*
X108816723Y-95485714D01*
X108816723Y-95485714D02*
X108911961Y-95438095D01*
X108911961Y-95438095D02*
X109007200Y-95342857D01*
X109007200Y-95342857D02*
X109054819Y-95200000D01*
X109054819Y-95200000D02*
X109054819Y-94961905D01*
X106473866Y-88309524D02*
X106473866Y-89071429D01*
X106854819Y-88690476D02*
X106092914Y-88690476D01*
X106331009Y-89880952D02*
X106378628Y-90023809D01*
X106378628Y-90023809D02*
X106426247Y-90071428D01*
X106426247Y-90071428D02*
X106521485Y-90119047D01*
X106521485Y-90119047D02*
X106664342Y-90119047D01*
X106664342Y-90119047D02*
X106759580Y-90071428D01*
X106759580Y-90071428D02*
X106807200Y-90023809D01*
X106807200Y-90023809D02*
X106854819Y-89928571D01*
X106854819Y-89928571D02*
X106854819Y-89547619D01*
X106854819Y-89547619D02*
X105854819Y-89547619D01*
X105854819Y-89547619D02*
X105854819Y-89880952D01*
X105854819Y-89880952D02*
X105902438Y-89976190D01*
X105902438Y-89976190D02*
X105950057Y-90023809D01*
X105950057Y-90023809D02*
X106045295Y-90071428D01*
X106045295Y-90071428D02*
X106140533Y-90071428D01*
X106140533Y-90071428D02*
X106235771Y-90023809D01*
X106235771Y-90023809D02*
X106283390Y-89976190D01*
X106283390Y-89976190D02*
X106331009Y-89880952D01*
X106331009Y-89880952D02*
X106331009Y-89547619D01*
X106569104Y-90500000D02*
X106569104Y-90976190D01*
X106854819Y-90404762D02*
X105854819Y-90738095D01*
X105854819Y-90738095D02*
X106854819Y-91071428D01*
X105854819Y-91261905D02*
X105854819Y-91833333D01*
X106854819Y-91547619D02*
X105854819Y-91547619D01*
X118654819Y-90166666D02*
X119369104Y-90166666D01*
X119369104Y-90166666D02*
X119511961Y-90119047D01*
X119511961Y-90119047D02*
X119607200Y-90023809D01*
X119607200Y-90023809D02*
X119654819Y-89880952D01*
X119654819Y-89880952D02*
X119654819Y-89785714D01*
X119654819Y-90642857D02*
X118654819Y-90642857D01*
X118654819Y-90642857D02*
X118654819Y-91023809D01*
X118654819Y-91023809D02*
X118702438Y-91119047D01*
X118702438Y-91119047D02*
X118750057Y-91166666D01*
X118750057Y-91166666D02*
X118845295Y-91214285D01*
X118845295Y-91214285D02*
X118988152Y-91214285D01*
X118988152Y-91214285D02*
X119083390Y-91166666D01*
X119083390Y-91166666D02*
X119131009Y-91119047D01*
X119131009Y-91119047D02*
X119178628Y-91023809D01*
X119178628Y-91023809D02*
X119178628Y-90642857D01*
X118750057Y-91595238D02*
X118702438Y-91642857D01*
X118702438Y-91642857D02*
X118654819Y-91738095D01*
X118654819Y-91738095D02*
X118654819Y-91976190D01*
X118654819Y-91976190D02*
X118702438Y-92071428D01*
X118702438Y-92071428D02*
X118750057Y-92119047D01*
X118750057Y-92119047D02*
X118845295Y-92166666D01*
X118845295Y-92166666D02*
X118940533Y-92166666D01*
X118940533Y-92166666D02*
X119083390Y-92119047D01*
X119083390Y-92119047D02*
X119654819Y-91547619D01*
X119654819Y-91547619D02*
X119654819Y-92166666D01*
X101959580Y-86033333D02*
X102007200Y-85985714D01*
X102007200Y-85985714D02*
X102054819Y-85842857D01*
X102054819Y-85842857D02*
X102054819Y-85747619D01*
X102054819Y-85747619D02*
X102007200Y-85604762D01*
X102007200Y-85604762D02*
X101911961Y-85509524D01*
X101911961Y-85509524D02*
X101816723Y-85461905D01*
X101816723Y-85461905D02*
X101626247Y-85414286D01*
X101626247Y-85414286D02*
X101483390Y-85414286D01*
X101483390Y-85414286D02*
X101292914Y-85461905D01*
X101292914Y-85461905D02*
X101197676Y-85509524D01*
X101197676Y-85509524D02*
X101102438Y-85604762D01*
X101102438Y-85604762D02*
X101054819Y-85747619D01*
X101054819Y-85747619D02*
X101054819Y-85842857D01*
X101054819Y-85842857D02*
X101102438Y-85985714D01*
X101102438Y-85985714D02*
X101150057Y-86033333D01*
X101054819Y-86938095D02*
X101054819Y-86461905D01*
X101054819Y-86461905D02*
X101531009Y-86414286D01*
X101531009Y-86414286D02*
X101483390Y-86461905D01*
X101483390Y-86461905D02*
X101435771Y-86557143D01*
X101435771Y-86557143D02*
X101435771Y-86795238D01*
X101435771Y-86795238D02*
X101483390Y-86890476D01*
X101483390Y-86890476D02*
X101531009Y-86938095D01*
X101531009Y-86938095D02*
X101626247Y-86985714D01*
X101626247Y-86985714D02*
X101864342Y-86985714D01*
X101864342Y-86985714D02*
X101959580Y-86938095D01*
X101959580Y-86938095D02*
X102007200Y-86890476D01*
X102007200Y-86890476D02*
X102054819Y-86795238D01*
X102054819Y-86795238D02*
X102054819Y-86557143D01*
X102054819Y-86557143D02*
X102007200Y-86461905D01*
X102007200Y-86461905D02*
X101959580Y-86414286D01*
X103254819Y-74380952D02*
X102778628Y-74047619D01*
X103254819Y-73809524D02*
X102254819Y-73809524D01*
X102254819Y-73809524D02*
X102254819Y-74190476D01*
X102254819Y-74190476D02*
X102302438Y-74285714D01*
X102302438Y-74285714D02*
X102350057Y-74333333D01*
X102350057Y-74333333D02*
X102445295Y-74380952D01*
X102445295Y-74380952D02*
X102588152Y-74380952D01*
X102588152Y-74380952D02*
X102683390Y-74333333D01*
X102683390Y-74333333D02*
X102731009Y-74285714D01*
X102731009Y-74285714D02*
X102778628Y-74190476D01*
X102778628Y-74190476D02*
X102778628Y-73809524D01*
X102731009Y-74809524D02*
X102731009Y-75142857D01*
X103254819Y-75285714D02*
X103254819Y-74809524D01*
X103254819Y-74809524D02*
X102254819Y-74809524D01*
X102254819Y-74809524D02*
X102254819Y-75285714D01*
X103207200Y-75666667D02*
X103254819Y-75809524D01*
X103254819Y-75809524D02*
X103254819Y-76047619D01*
X103254819Y-76047619D02*
X103207200Y-76142857D01*
X103207200Y-76142857D02*
X103159580Y-76190476D01*
X103159580Y-76190476D02*
X103064342Y-76238095D01*
X103064342Y-76238095D02*
X102969104Y-76238095D01*
X102969104Y-76238095D02*
X102873866Y-76190476D01*
X102873866Y-76190476D02*
X102826247Y-76142857D01*
X102826247Y-76142857D02*
X102778628Y-76047619D01*
X102778628Y-76047619D02*
X102731009Y-75857143D01*
X102731009Y-75857143D02*
X102683390Y-75761905D01*
X102683390Y-75761905D02*
X102635771Y-75714286D01*
X102635771Y-75714286D02*
X102540533Y-75666667D01*
X102540533Y-75666667D02*
X102445295Y-75666667D01*
X102445295Y-75666667D02*
X102350057Y-75714286D01*
X102350057Y-75714286D02*
X102302438Y-75761905D01*
X102302438Y-75761905D02*
X102254819Y-75857143D01*
X102254819Y-75857143D02*
X102254819Y-76095238D01*
X102254819Y-76095238D02*
X102302438Y-76238095D01*
X120188094Y-73454819D02*
X120188094Y-72454819D01*
X120188094Y-72454819D02*
X119949999Y-72454819D01*
X119949999Y-72454819D02*
X119807142Y-72502438D01*
X119807142Y-72502438D02*
X119711904Y-72597676D01*
X119711904Y-72597676D02*
X119664285Y-72692914D01*
X119664285Y-72692914D02*
X119616666Y-72883390D01*
X119616666Y-72883390D02*
X119616666Y-73026247D01*
X119616666Y-73026247D02*
X119664285Y-73216723D01*
X119664285Y-73216723D02*
X119711904Y-73311961D01*
X119711904Y-73311961D02*
X119807142Y-73407200D01*
X119807142Y-73407200D02*
X119949999Y-73454819D01*
X119949999Y-73454819D02*
X120188094Y-73454819D01*
X118664285Y-73454819D02*
X119235713Y-73454819D01*
X118949999Y-73454819D02*
X118949999Y-72454819D01*
X118949999Y-72454819D02*
X119045237Y-72597676D01*
X119045237Y-72597676D02*
X119140475Y-72692914D01*
X119140475Y-72692914D02*
X119235713Y-72740533D01*
X118114285Y-75254819D02*
X118685713Y-75254819D01*
X118399999Y-75254819D02*
X118399999Y-74254819D01*
X118399999Y-74254819D02*
X118495237Y-74397676D01*
X118495237Y-74397676D02*
X118590475Y-74492914D01*
X118590475Y-74492914D02*
X118685713Y-74540533D01*
X113224819Y-89681905D02*
X112224819Y-89681905D01*
X112224819Y-89681905D02*
X112224819Y-89920000D01*
X112224819Y-89920000D02*
X112272438Y-90062857D01*
X112272438Y-90062857D02*
X112367676Y-90158095D01*
X112367676Y-90158095D02*
X112462914Y-90205714D01*
X112462914Y-90205714D02*
X112653390Y-90253333D01*
X112653390Y-90253333D02*
X112796247Y-90253333D01*
X112796247Y-90253333D02*
X112986723Y-90205714D01*
X112986723Y-90205714D02*
X113081961Y-90158095D01*
X113081961Y-90158095D02*
X113177200Y-90062857D01*
X113177200Y-90062857D02*
X113224819Y-89920000D01*
X113224819Y-89920000D02*
X113224819Y-89681905D01*
X112224819Y-90586667D02*
X112224819Y-91205714D01*
X112224819Y-91205714D02*
X112605771Y-90872381D01*
X112605771Y-90872381D02*
X112605771Y-91015238D01*
X112605771Y-91015238D02*
X112653390Y-91110476D01*
X112653390Y-91110476D02*
X112701009Y-91158095D01*
X112701009Y-91158095D02*
X112796247Y-91205714D01*
X112796247Y-91205714D02*
X113034342Y-91205714D01*
X113034342Y-91205714D02*
X113129580Y-91158095D01*
X113129580Y-91158095D02*
X113177200Y-91110476D01*
X113177200Y-91110476D02*
X113224819Y-91015238D01*
X113224819Y-91015238D02*
X113224819Y-90729524D01*
X113224819Y-90729524D02*
X113177200Y-90634286D01*
X113177200Y-90634286D02*
X113129580Y-90586667D01*
%TO.C,U5*%
X122725000Y-76700000D02*
X122725000Y-77700000D01*
X133125000Y-87300000D02*
X133125000Y-75900000D01*
X126475000Y-75500000D02*
X132725000Y-75500000D01*
X122725000Y-86300000D02*
X122725000Y-87300000D01*
X123125000Y-87700000D02*
X132725000Y-87700000D01*
X123075000Y-76300000D02*
X125675000Y-76300000D01*
X122725000Y-76700000D02*
G75*
G02*
X123125000Y-76300000I400000J0D01*
G01*
X123125000Y-87700000D02*
G75*
G02*
X122725000Y-87300000I0J400000D01*
G01*
X126075000Y-75900000D02*
G75*
G02*
X125675000Y-76300000I-400000J0D01*
G01*
X126075000Y-75900000D02*
G75*
G02*
X126475000Y-75500000I400000J0D01*
G01*
X133125000Y-87300000D02*
G75*
G02*
X132725000Y-87700000I-400000J0D01*
G01*
X132725000Y-75500000D02*
G75*
G02*
X133125000Y-75900000I0J-400000D01*
G01*
D12*
%TO.C,R18*%
X121722500Y-81062742D02*
X121722500Y-81537258D01*
X120677500Y-81062742D02*
X120677500Y-81537258D01*
%TO.C,R17*%
X115947500Y-81562742D02*
X115947500Y-82037258D01*
X114902500Y-81562742D02*
X114902500Y-82037258D01*
%TO.C,R16*%
X117897500Y-76962742D02*
X117897500Y-77437258D01*
X116852500Y-76962742D02*
X116852500Y-77437258D01*
%TO.C,Q1*%
X119187500Y-78840000D02*
X118537500Y-78840000D01*
X117887500Y-78840000D02*
X118537500Y-78840000D01*
X119187500Y-81960000D02*
X118537500Y-81960000D01*
X117887500Y-81960000D02*
X118537500Y-81960000D01*
X119700000Y-78890000D02*
X119460000Y-78560000D01*
X119940000Y-78560000D01*
X119700000Y-78890000D01*
G36*
X119700000Y-78890000D02*
G01*
X119460000Y-78560000D01*
X119940000Y-78560000D01*
X119700000Y-78890000D01*
G37*
%TO.C,R15*%
X100935000Y-76572936D02*
X100935000Y-77027064D01*
X99465000Y-76572936D02*
X99465000Y-77027064D01*
%TO.C,R14*%
X100935000Y-80372936D02*
X100935000Y-80827064D01*
X99465000Y-80372936D02*
X99465000Y-80827064D01*
%TO.C,TP1*%
X118450000Y-76050000D02*
X120350000Y-76050000D01*
X120350000Y-76050000D02*
X120350000Y-77950000D01*
X118450000Y-77950000D02*
X118450000Y-76050000D01*
X120350000Y-77950000D02*
X118450000Y-77950000D01*
%TO.C,TP6*%
X106450000Y-83550000D02*
X106450000Y-81650000D01*
X106450000Y-81650000D02*
X108350000Y-81650000D01*
X108350000Y-83550000D02*
X106450000Y-83550000D01*
X108350000Y-81650000D02*
X108350000Y-83550000D01*
%TO.C,TP5*%
X109650000Y-83550000D02*
X109650000Y-81650000D01*
X109650000Y-81650000D02*
X111550000Y-81650000D01*
X111550000Y-83550000D02*
X109650000Y-83550000D01*
X111550000Y-81650000D02*
X111550000Y-83550000D01*
%TO.C,R12*%
X113687064Y-86665000D02*
X113232936Y-86665000D01*
X113687064Y-88135000D02*
X113232936Y-88135000D01*
%TO.C,D2*%
X115650000Y-70250000D02*
X108350000Y-70250000D01*
X115650000Y-71400000D02*
X115650000Y-70250000D01*
X115650000Y-75750000D02*
X108350000Y-75750000D01*
%TO.C,C3*%
X114465000Y-94461252D02*
X114465000Y-93938748D01*
X115935000Y-94461252D02*
X115935000Y-93938748D01*
%TO.C,R13*%
X117065000Y-93027064D02*
X117065000Y-92572936D01*
X118535000Y-93027064D02*
X118535000Y-92572936D01*
%TO.C,LED*%
X106250000Y-64650000D02*
X108150000Y-64650000D01*
X106250000Y-66550000D02*
X106250000Y-64650000D01*
X108150000Y-64650000D02*
X108150000Y-66550000D01*
X108150000Y-66550000D02*
X106250000Y-66550000D01*
D13*
%TO.C,U4*%
X115650000Y-87500000D02*
X115650000Y-89300000D01*
X117600000Y-89300000D02*
X116800000Y-89300000D01*
X118750000Y-87500000D02*
X118750000Y-89300000D01*
X115676000Y-86876000D02*
G75*
G02*
X115422000Y-86876000I-127000J0D01*
G01*
X115422000Y-86876000D02*
G75*
G02*
X115676000Y-86876000I127000J0D01*
G01*
D14*
%TO.C,S1*%
X101057810Y-91071310D02*
G75*
G02*
X98078510Y-73408470I12941693J11265644D01*
G01*
X102745810Y-66832810D02*
G75*
G02*
X116114410Y-62719910I11292337J-12921547D01*
G01*
X108908480Y-96216610D02*
G75*
G02*
X102746710Y-92770310I5149426J16438434D01*
G01*
X118899810Y-63291811D02*
G75*
G02*
X125120809Y-66630111I-4861900J-16525899D01*
G01*
X125321310Y-92787810D02*
G75*
G02*
X111683470Y-96837110I-11266750J12955420D01*
G01*
X127037810Y-68524310D02*
G75*
G02*
X130576809Y-75023810I-12889187J-11231455D01*
G01*
X131154809Y-78013890D02*
G75*
G02*
X129992809Y-86259810I-17117282J-1792697D01*
G01*
D12*
%TO.C,GND*%
X105650000Y-92850000D02*
X107550000Y-92850000D01*
X105650000Y-94750000D02*
X105650000Y-92850000D01*
X107550000Y-92850000D02*
X107550000Y-94750000D01*
X107550000Y-94750000D02*
X105650000Y-94750000D01*
%TO.C,+BAT*%
X107250000Y-89650000D02*
X109150000Y-89650000D01*
X107250000Y-91550000D02*
X107250000Y-89650000D01*
X109150000Y-89650000D02*
X109150000Y-91550000D01*
X109150000Y-91550000D02*
X107250000Y-91550000D01*
%TO.C,JP2*%
X119850000Y-90300000D02*
X119850000Y-88900000D01*
X120550000Y-88200000D02*
X121150000Y-88200000D01*
X121150000Y-91000000D02*
X120550000Y-91000000D01*
X121850000Y-88900000D02*
X121850000Y-90300000D01*
X119850000Y-88900000D02*
G75*
G02*
X120550000Y-88200000I700000J0D01*
G01*
X120550000Y-91000000D02*
G75*
G02*
X119850000Y-90300000I-1J699999D01*
G01*
X121150000Y-88200000D02*
G75*
G02*
X121850000Y-88900000I0J-700000D01*
G01*
X121850000Y-90300000D02*
G75*
G02*
X121150000Y-91000000I-699999J-1D01*
G01*
%TO.C,C5*%
X98665000Y-85738748D02*
X98665000Y-86261252D01*
X100135000Y-85738748D02*
X100135000Y-86261252D01*
%TO.C,RES*%
X101650000Y-76650000D02*
X103550000Y-76650000D01*
X101650000Y-78550000D02*
X101650000Y-76650000D01*
X103550000Y-76650000D02*
X103550000Y-78550000D01*
X103550000Y-78550000D02*
X101650000Y-78550000D01*
%TO.C,D1*%
X123100000Y-70250000D02*
X115800000Y-70250000D01*
X123100000Y-71400000D02*
X123100000Y-70250000D01*
X123100000Y-75750000D02*
X115800000Y-75750000D01*
%TO.C,D3*%
X113460000Y-88735000D02*
X113460000Y-91420000D01*
X115380000Y-88735000D02*
X113460000Y-88735000D01*
X115380000Y-91420000D02*
X115380000Y-88735000D01*
%TD*%
M02*
