%TF.GenerationSoftware,KiCad,Pcbnew,8.0.0*%
%TF.CreationDate,2024-03-22T20:52:57+01:00*%
%TF.ProjectId,rotatror,726f7461-7472-46f7-922e-6b696361645f,rev?*%
%TF.SameCoordinates,Original*%
%TF.FileFunction,Copper,L1,Top*%
%TF.FilePolarity,Positive*%
%FSLAX46Y46*%
G04 Gerber Fmt 4.6, Leading zero omitted, Abs format (unit mm)*
G04 Created by KiCad (PCBNEW 8.0.0) date 2024-03-22 20:52:57*
%MOMM*%
%LPD*%
G01*
G04 APERTURE LIST*
G04 Aperture macros list*
%AMRoundRect*
0 Rectangle with rounded corners*
0 $1 Rounding radius*
0 $2 $3 $4 $5 $6 $7 $8 $9 X,Y pos of 4 corners*
0 Add a 4 corners polygon primitive as box body*
4,1,4,$2,$3,$4,$5,$6,$7,$8,$9,$2,$3,0*
0 Add four circle primitives for the rounded corners*
1,1,$1+$1,$2,$3*
1,1,$1+$1,$4,$5*
1,1,$1+$1,$6,$7*
1,1,$1+$1,$8,$9*
0 Add four rect primitives between the rounded corners*
20,1,$1+$1,$2,$3,$4,$5,0*
20,1,$1+$1,$4,$5,$6,$7,0*
20,1,$1+$1,$6,$7,$8,$9,0*
20,1,$1+$1,$8,$9,$2,$3,0*%
%AMFreePoly0*
4,1,19,0.500000,-0.750000,0.000000,-0.750000,0.000000,-0.744911,-0.071157,-0.744911,-0.207708,-0.704816,-0.327430,-0.627875,-0.420627,-0.520320,-0.479746,-0.390866,-0.500000,-0.250000,-0.500000,0.250000,-0.479746,0.390866,-0.420627,0.520320,-0.327430,0.627875,-0.207708,0.704816,-0.071157,0.744911,0.000000,0.744911,0.000000,0.750000,0.500000,0.750000,0.500000,-0.750000,0.500000,-0.750000,
$1*%
%AMFreePoly1*
4,1,19,0.000000,0.744911,0.071157,0.744911,0.207708,0.704816,0.327430,0.627875,0.420627,0.520320,0.479746,0.390866,0.500000,0.250000,0.500000,-0.250000,0.479746,-0.390866,0.420627,-0.520320,0.327430,-0.627875,0.207708,-0.704816,0.071157,-0.744911,0.000000,-0.744911,0.000000,-0.750000,-0.500000,-0.750000,-0.500000,0.750000,0.000000,0.750000,0.000000,0.744911,0.000000,0.744911,
$1*%
G04 Aperture macros list end*
%TA.AperFunction,EtchedComponent*%
%ADD10C,0.000000*%
%TD*%
%TA.AperFunction,SMDPad,CuDef*%
%ADD11RoundRect,0.200000X-0.200000X-0.275000X0.200000X-0.275000X0.200000X0.275000X-0.200000X0.275000X0*%
%TD*%
%TA.AperFunction,SMDPad,CuDef*%
%ADD12FreePoly0,180.000000*%
%TD*%
%TA.AperFunction,SMDPad,CuDef*%
%ADD13FreePoly1,180.000000*%
%TD*%
%TA.AperFunction,SMDPad,CuDef*%
%ADD14RoundRect,0.250000X0.561786X-0.154687X0.330922X0.479606X-0.561786X0.154687X-0.330922X-0.479606X0*%
%TD*%
%TA.AperFunction,SMDPad,CuDef*%
%ADD15RoundRect,0.150000X0.150000X-0.512500X0.150000X0.512500X-0.150000X0.512500X-0.150000X-0.512500X0*%
%TD*%
%TA.AperFunction,SMDPad,CuDef*%
%ADD16RoundRect,0.237500X-0.237500X0.250000X-0.237500X-0.250000X0.237500X-0.250000X0.237500X0.250000X0*%
%TD*%
%TA.AperFunction,SMDPad,CuDef*%
%ADD17RoundRect,0.250000X-0.450000X0.350000X-0.450000X-0.350000X0.450000X-0.350000X0.450000X0.350000X0*%
%TD*%
%TA.AperFunction,SMDPad,CuDef*%
%ADD18RoundRect,0.250000X0.350000X0.450000X-0.350000X0.450000X-0.350000X-0.450000X0.350000X-0.450000X0*%
%TD*%
%TA.AperFunction,ComponentPad*%
%ADD19O,1.200000X2.000000*%
%TD*%
%TA.AperFunction,ComponentPad*%
%ADD20O,1.200000X1.800000*%
%TD*%
%TA.AperFunction,SMDPad,CuDef*%
%ADD21R,0.300000X1.300000*%
%TD*%
%TA.AperFunction,SMDPad,CuDef*%
%ADD22RoundRect,0.250000X0.450000X-0.350000X0.450000X0.350000X-0.450000X0.350000X-0.450000X-0.350000X0*%
%TD*%
%TA.AperFunction,SMDPad,CuDef*%
%ADD23RoundRect,0.250000X0.475000X-0.337500X0.475000X0.337500X-0.475000X0.337500X-0.475000X-0.337500X0*%
%TD*%
%TA.AperFunction,ComponentPad*%
%ADD24R,1.700000X1.700000*%
%TD*%
%TA.AperFunction,ComponentPad*%
%ADD25O,1.700000X1.700000*%
%TD*%
%TA.AperFunction,SMDPad,CuDef*%
%ADD26R,1.500000X1.500000*%
%TD*%
%TA.AperFunction,SMDPad,CuDef*%
%ADD27RoundRect,0.237500X0.250000X0.237500X-0.250000X0.237500X-0.250000X-0.237500X0.250000X-0.237500X0*%
%TD*%
%TA.AperFunction,SMDPad,CuDef*%
%ADD28RoundRect,0.250000X-0.350000X-0.450000X0.350000X-0.450000X0.350000X0.450000X-0.350000X0.450000X0*%
%TD*%
%TA.AperFunction,SMDPad,CuDef*%
%ADD29R,1.500000X0.900000*%
%TD*%
%TA.AperFunction,SMDPad,CuDef*%
%ADD30R,0.900000X1.500000*%
%TD*%
%TA.AperFunction,HeatsinkPad*%
%ADD31C,0.600000*%
%TD*%
%TA.AperFunction,SMDPad,CuDef*%
%ADD32R,2.450000X2.910000*%
%TD*%
%TA.AperFunction,SMDPad,CuDef*%
%ADD33RoundRect,0.237500X0.237500X-0.250000X0.237500X0.250000X-0.237500X0.250000X-0.237500X-0.250000X0*%
%TD*%
%TA.AperFunction,SMDPad,CuDef*%
%ADD34RoundRect,0.250000X0.337500X0.475000X-0.337500X0.475000X-0.337500X-0.475000X0.337500X-0.475000X0*%
%TD*%
%TA.AperFunction,SMDPad,CuDef*%
%ADD35RoundRect,0.250000X-0.337500X-0.475000X0.337500X-0.475000X0.337500X0.475000X-0.337500X0.475000X0*%
%TD*%
%TA.AperFunction,ComponentPad*%
%ADD36C,2.100000*%
%TD*%
%TA.AperFunction,ViaPad*%
%ADD37C,0.600000*%
%TD*%
%TA.AperFunction,Conductor*%
%ADD38C,0.500000*%
%TD*%
%TA.AperFunction,Conductor*%
%ADD39C,0.300000*%
%TD*%
%TA.AperFunction,Conductor*%
%ADD40C,0.250000*%
%TD*%
%TA.AperFunction,Conductor*%
%ADD41C,0.200000*%
%TD*%
%TA.AperFunction,Conductor*%
%ADD42C,0.400000*%
%TD*%
G04 APERTURE END LIST*
D10*
%TA.AperFunction,EtchedComponent*%
%TO.C,JP1*%
G36*
X108300000Y-81100000D02*
G01*
X107800000Y-81100000D01*
X107800000Y-80500000D01*
X108300000Y-80500000D01*
X108300000Y-81100000D01*
G37*
%TD.AperFunction*%
%TD*%
D11*
%TO.P,R19,1*%
%TO.N,Net-(U5-~{RESET})*%
X129150000Y-84400000D03*
%TO.P,R19,2*%
%TO.N,/TFT_RST*%
X130800000Y-84400000D03*
%TD*%
D12*
%TO.P,JP1,1,A*%
%TO.N,/S_3*%
X108700000Y-80800000D03*
D13*
%TO.P,JP1,2,B*%
%TO.N,Net-(JP1-B)*%
X107400000Y-80800000D03*
%TD*%
D14*
%TO.P,C6,1*%
%TO.N,GND*%
X129917346Y-74174931D03*
%TO.P,C6,2*%
%TO.N,+3.3VP*%
X129207654Y-72225069D03*
%TD*%
D15*
%TO.P,U2,1,VIN*%
%TO.N,+BATT*%
X99050000Y-77537500D03*
%TO.P,U2,2,GND*%
%TO.N,GND*%
X100000000Y-77537500D03*
%TO.P,U2,3,EN*%
%TO.N,Net-(U2-EN)*%
X100950000Y-77537500D03*
%TO.P,U2,4,FB*%
%TO.N,unconnected-(U2-FB-Pad4)*%
X100950000Y-75262500D03*
%TO.P,U2,5,VOUT*%
%TO.N,+3.3VP*%
X99050000Y-75262500D03*
%TD*%
D16*
%TO.P,R5,1*%
%TO.N,GND*%
X110600000Y-91487500D03*
%TO.P,R5,2*%
%TO.N,Net-(U3-CC1)*%
X110600000Y-93312500D03*
%TD*%
D17*
%TO.P,R10,1*%
%TO.N,+3.3VP*%
X99200000Y-85600000D03*
%TO.P,R10,2*%
%TO.N,Net-(R10-Pad2)*%
X99200000Y-87600000D03*
%TD*%
D18*
%TO.P,R9,2*%
%TO.N,+3.3VP*%
X129400000Y-82600000D03*
%TO.P,R9,1*%
%TO.N,/TFT_RST*%
X131400000Y-82600000D03*
%TD*%
D19*
%TO.P,U3,0,0*%
%TO.N,GND*%
X112425000Y-92645500D03*
D20*
X112425000Y-96845500D03*
D19*
X121075000Y-92645500D03*
D20*
X121075000Y-96845500D03*
D21*
%TO.P,U3,A1,GND*%
X113400000Y-91577500D03*
%TO.P,U3,A4,VBUS*%
%TO.N,+5VD*%
X114200000Y-91577500D03*
%TO.P,U3,A5,CC1*%
%TO.N,Net-(U3-CC1)*%
X115500000Y-91577500D03*
%TO.P,U3,A6,DP1*%
%TO.N,/DP*%
X116500000Y-91577500D03*
%TO.P,U3,A7,DN1*%
%TO.N,/DN*%
X117000000Y-91577500D03*
%TO.P,U3,A8,SBU1*%
%TO.N,unconnected-(U3-SBU1-PadA8)*%
X118000000Y-91577500D03*
%TO.P,U3,A9,VBUS*%
%TO.N,+5VD*%
X119300000Y-91577500D03*
%TO.P,U3,A12,GND*%
%TO.N,GND*%
X120100000Y-91577500D03*
%TO.P,U3,B1,GND*%
X119800000Y-91577500D03*
%TO.P,U3,B4,VBUS*%
%TO.N,+5VD*%
X119000000Y-91577500D03*
%TO.P,U3,B5,CC2*%
%TO.N,Net-(U3-CC2)*%
X118500000Y-91577500D03*
%TO.P,U3,B6,DP2*%
%TO.N,/DP*%
X117500000Y-91577500D03*
%TO.P,U3,B7,DN2*%
%TO.N,/DN*%
X116000000Y-91577500D03*
%TO.P,U3,B8,SBU2*%
%TO.N,unconnected-(U3-SBU2-PadB8)*%
X115000000Y-91577500D03*
%TO.P,U3,B9,VBUS*%
%TO.N,+5VD*%
X114500000Y-91577500D03*
%TO.P,U3,B12,GND*%
%TO.N,GND*%
X113700000Y-91577500D03*
%TD*%
D22*
%TO.P,R1,1*%
%TO.N,Net-(U1-EN)*%
X102800000Y-76800000D03*
%TO.P,R1,2*%
%TO.N,+3.3VP*%
X102800000Y-74800000D03*
%TD*%
D23*
%TO.P,C1,1*%
%TO.N,GND*%
X103200000Y-80637500D03*
%TO.P,C1,2*%
%TO.N,Net-(U1-EN)*%
X103200000Y-78562500D03*
%TD*%
D24*
%TO.P,J1,1,Pin_1*%
%TO.N,+3.3VP*%
X126600000Y-73180000D03*
D25*
%TO.P,J1,2,Pin_2*%
%TO.N,GND*%
X126600000Y-75720000D03*
%TO.P,J1,3,Pin_3*%
%TO.N,/GPIO43*%
X126600000Y-78260000D03*
%TO.P,J1,4,Pin_4*%
%TO.N,/GPIO44*%
X126600000Y-80800000D03*
%TO.P,J1,5,Pin_5*%
%TO.N,/GPIO40*%
X126600000Y-83340000D03*
%TO.P,J1,6,Pin_6*%
%TO.N,/GPIO39*%
X126600000Y-85880000D03*
%TD*%
D18*
%TO.P,R8,1*%
%TO.N,/DN*%
X108600000Y-93600000D03*
%TO.P,R8,2*%
%TO.N,Net-(U1-GPIO19{slash}U1RTS{slash}ADC2_CH8{slash}CLK_OUT2{slash}USB_D-)*%
X106600000Y-93600000D03*
%TD*%
D26*
%TO.P,BOT,1,1*%
%TO.N,/TFT_RST*%
X130800000Y-80400000D03*
%TD*%
D27*
%TO.P,R2,1*%
%TO.N,/S_ROTA*%
X103312500Y-85800000D03*
%TO.P,R2,2*%
%TO.N,Net-(R10-Pad2)*%
X101487500Y-85800000D03*
%TD*%
D28*
%TO.P,R7,1*%
%TO.N,Net-(U1-GPIO20{slash}U1CTS{slash}ADC2_CH9{slash}CLK_OUT1{slash}USB_D+)*%
X106600000Y-91600000D03*
%TO.P,R7,2*%
%TO.N,/DP*%
X108600000Y-91600000D03*
%TD*%
D16*
%TO.P,R3,1*%
%TO.N,/S_ROTB*%
X103200000Y-82287500D03*
%TO.P,R3,2*%
%TO.N,Net-(R11-Pad2)*%
X103200000Y-84112500D03*
%TD*%
D29*
%TO.P,U1,1,GND*%
%TO.N,GND*%
X105250000Y-71490000D03*
%TO.P,U1,2,3V3*%
%TO.N,+3.3VP*%
X105250000Y-72760000D03*
%TO.P,U1,3,EN*%
%TO.N,Net-(U1-EN)*%
X105250000Y-74030000D03*
%TO.P,U1,4,GPIO4/TOUCH4/ADC1_CH3*%
%TO.N,Net-(U1-GPIO4{slash}TOUCH4{slash}ADC1_CH3)*%
X105250000Y-75300000D03*
%TO.P,U1,5,GPIO5/TOUCH5/ADC1_CH4*%
%TO.N,/S_4*%
X105250000Y-76570000D03*
%TO.P,U1,6,GPIO6/TOUCH6/ADC1_CH5*%
%TO.N,/S_ROTB*%
X105250000Y-77840000D03*
%TO.P,U1,7,GPIO7/TOUCH7/ADC1_CH6*%
%TO.N,/S_1*%
X105250000Y-79110000D03*
%TO.P,U1,8,GPIO15/U0RTS/ADC2_CH4/XTAL_32K_P*%
%TO.N,Net-(JP1-B)*%
X105250000Y-80380000D03*
%TO.P,U1,9,GPIO16/U0CTS/ADC2_CH5/XTAL_32K_NH5*%
%TO.N,unconnected-(U1-GPIO16{slash}U0CTS{slash}ADC2_CH5{slash}XTAL_32K_NH5-Pad9)*%
X105250000Y-81650000D03*
%TO.P,U1,10,GPIO17/U1TXD/ADC2_CH6*%
%TO.N,Net-(U1-GPIO17{slash}U1TXD{slash}ADC2_CH6)*%
X105250000Y-82920000D03*
%TO.P,U1,11,GPIO18/U1RXD/ADC2_CH7/CLK_OUT3*%
%TO.N,Net-(U1-GPIO18{slash}U1RXD{slash}ADC2_CH7{slash}CLK_OUT3)*%
X105250000Y-84190000D03*
%TO.P,U1,12,GPIO8/TOUCH8/ADC1_CH7/SUBSPICS1*%
%TO.N,/S_ROTA*%
X105250000Y-85460000D03*
%TO.P,U1,13,GPIO19/U1RTS/ADC2_CH8/CLK_OUT2/USB_D-*%
%TO.N,Net-(U1-GPIO19{slash}U1RTS{slash}ADC2_CH8{slash}CLK_OUT2{slash}USB_D-)*%
X105250000Y-86730000D03*
%TO.P,U1,14,GPIO20/U1CTS/ADC2_CH9/CLK_OUT1/USB_D+*%
%TO.N,Net-(U1-GPIO20{slash}U1CTS{slash}ADC2_CH9{slash}CLK_OUT1{slash}USB_D+)*%
X105250000Y-88000000D03*
D30*
%TO.P,U1,15,GPIO3/TOUCH3/ADC1_CH2*%
%TO.N,unconnected-(U1-GPIO3{slash}TOUCH3{slash}ADC1_CH2-Pad15)*%
X107015000Y-89250000D03*
%TO.P,U1,16,GPIO46*%
%TO.N,unconnected-(U1-GPIO46-Pad16)*%
X108285000Y-89250000D03*
%TO.P,U1,17,GPIO9/TOUCH9/ADC1_CH8/FSPIHD/SUBSPIHD*%
%TO.N,unconnected-(U1-GPIO9{slash}TOUCH9{slash}ADC1_CH8{slash}FSPIHD{slash}SUBSPIHD-Pad17)*%
X109555000Y-89250000D03*
%TO.P,U1,18,GPIO10/TOUCH10/ADC1_CH9/FSPICS0/FSPIIO4/SUBSPICS0*%
%TO.N,/S_3*%
X110825000Y-89250000D03*
%TO.P,U1,19,GPIO11/TOUCH11/ADC2_CH0/FSPICS0/FSPIIO4/SUBSPICS0*%
%TO.N,unconnected-(U1-GPIO11{slash}TOUCH11{slash}ADC2_CH0{slash}FSPICS0{slash}FSPIIO4{slash}SUBSPICS0-Pad19)*%
X112095000Y-89250000D03*
%TO.P,U1,20,GPIO12/TOUCH11/ADC2_CH0/FSPICS0/FSPIIO4/SUBSPICS0*%
%TO.N,unconnected-(U1-GPIO12{slash}TOUCH11{slash}ADC2_CH0{slash}FSPICS0{slash}FSPIIO4{slash}SUBSPICS0-Pad20)*%
X113365000Y-89250000D03*
%TO.P,U1,21,GPIO13/TOUCH13/ADC2_CH2/FSPIQ/FSPIIO7/SUBSPIQ*%
%TO.N,unconnected-(U1-GPIO13{slash}TOUCH13{slash}ADC2_CH2{slash}FSPIQ{slash}FSPIIO7{slash}SUBSPIQ-Pad21)*%
X114635000Y-89250000D03*
%TO.P,U1,22,GPIO14/TOUCH14/ADC2_CH3/FSPIWP/FSPIDQS/SUBSPIWP*%
%TO.N,unconnected-(U1-GPIO14{slash}TOUCH14{slash}ADC2_CH3{slash}FSPIWP{slash}FSPIDQS{slash}SUBSPIWP-Pad22)*%
X115905000Y-89250000D03*
%TO.P,U1,23,GPIO21*%
%TO.N,unconnected-(U1-GPIO21-Pad23)*%
X117175000Y-89250000D03*
%TO.P,U1,24,GPIO47/SPICLK_P/SUBSPICLK_P_DIFF*%
%TO.N,unconnected-(U1-GPIO47{slash}SPICLK_P{slash}SUBSPICLK_P_DIFF-Pad24)*%
X118445000Y-89250000D03*
%TO.P,U1,25,GPIO48/SPICLK_N/SUBSPICLK_N_DIFF*%
%TO.N,unconnected-(U1-GPIO48{slash}SPICLK_N{slash}SUBSPICLK_N_DIFF-Pad25)*%
X119715000Y-89250000D03*
%TO.P,U1,26,GPIO45*%
%TO.N,unconnected-(U1-GPIO45-Pad26)*%
X120985000Y-89250000D03*
D29*
%TO.P,U1,27,GPIO0/BOOT*%
%TO.N,/TFT_RST*%
X122750000Y-88000000D03*
%TO.P,U1,28,SPIIO6/GPIO35/FSPID/SUBSPID*%
%TO.N,/MOSI*%
X122750000Y-86730000D03*
%TO.P,U1,29,SPIIO7/GPIO36/FSPICLK/SUBSPICLK*%
%TO.N,/SCK*%
X122750000Y-85460000D03*
%TO.P,U1,30,SPIDQS/GPIO37/FSPIQ/SUBSPIQ*%
%TO.N,/TFT_CS*%
X122750000Y-84190000D03*
%TO.P,U1,31,GPIO38/FSPIWP/SUBSPIWP*%
%TO.N,/TFT_DC*%
X122750000Y-82920000D03*
%TO.P,U1,32,MTCK/GPIO39/CLK_OUT3/SUBSPICS1*%
%TO.N,/GPIO39*%
X122750000Y-81650000D03*
%TO.P,U1,33,MTDO/GPIO40/CLK_OUT2*%
%TO.N,/GPIO40*%
X122750000Y-80380000D03*
%TO.P,U1,34,MTDI/GPIO41/CLK_OUT1*%
%TO.N,/BLK*%
X122750000Y-79110000D03*
%TO.P,U1,35,MTMS/GPIO42*%
%TO.N,/LED_IO42*%
X122750000Y-77840000D03*
%TO.P,U1,36,U0RXD/GPIO44/CLK_OUT2*%
%TO.N,/GPIO44*%
X122750000Y-76570000D03*
%TO.P,U1,37,U0TXD/GPIO43/CLK_OUT1*%
%TO.N,/GPIO43*%
X122750000Y-75300000D03*
%TO.P,U1,38,GPIO2/TOUCH2/ADC1_CH1*%
%TO.N,/S_2*%
X122750000Y-74030000D03*
%TO.P,U1,39,GPIO1/TOUCH1/ADC1_CH0*%
%TO.N,/S_5*%
X122750000Y-72760000D03*
%TO.P,U1,40,GND*%
%TO.N,GND*%
X122750000Y-71490000D03*
D31*
%TO.P,U1,41,GND*%
X111100000Y-78510000D03*
X111100000Y-79910000D03*
D32*
X111775000Y-79705000D03*
D31*
X111800000Y-79210000D03*
X111800000Y-80610000D03*
X112500000Y-78510000D03*
X112500000Y-79910000D03*
%TD*%
D33*
%TO.P,R6,1*%
%TO.N,Net-(U3-CC2)*%
X122800000Y-94912500D03*
%TO.P,R6,2*%
%TO.N,GND*%
X122800000Y-93087500D03*
%TD*%
D18*
%TO.P,R4,1*%
%TO.N,Net-(U2-EN)*%
X101000000Y-79600000D03*
%TO.P,R4,2*%
%TO.N,+BATT*%
X99000000Y-79600000D03*
%TD*%
D34*
%TO.P,C2,1*%
%TO.N,GND*%
X101000000Y-81600000D03*
%TO.P,C2,2*%
%TO.N,+BATT*%
X98925000Y-81600000D03*
%TD*%
D28*
%TO.P,R11,1*%
%TO.N,+3.3VP*%
X99000000Y-83800000D03*
%TO.P,R11,2*%
%TO.N,Net-(R11-Pad2)*%
X101000000Y-83800000D03*
%TD*%
D35*
%TO.P,C4,1*%
%TO.N,GND*%
X100962500Y-72800000D03*
%TO.P,C4,2*%
%TO.N,+3.3VP*%
X103037500Y-72800000D03*
%TD*%
D36*
%TO.P,S1,A*%
%TO.N,Net-(R10-Pad2)*%
X120595620Y-86345620D03*
%TO.P,S1,B*%
%TO.N,Net-(R11-Pad2)*%
X107500000Y-86345620D03*
%TO.P,S1,COM_A*%
%TO.N,GND*%
X107500000Y-73250000D03*
%TO.P,S1,COM_B*%
X130127410Y-76545120D03*
%TO.P,S1,S1*%
%TO.N,/S_1*%
X115157970Y-78687650D03*
%TO.P,S1,S2*%
%TO.N,/S_2*%
X129158710Y-87526480D03*
%TO.P,S1,S3*%
%TO.N,/S_3*%
X110441570Y-95948110D03*
%TO.P,S1,S4*%
%TO.N,/S_4*%
X98936910Y-72069140D03*
%TO.P,S1,S5*%
%TO.N,/S_5*%
X117300500Y-63718210D03*
%TD*%
D37*
%TO.N,Net-(U5-~{RESET})*%
X125727032Y-84647968D03*
%TO.N,GND*%
X129200000Y-74000000D03*
X127600000Y-71000000D03*
%TO.N,/SCK*%
X121475000Y-84825000D03*
%TO.N,+3.3VP*%
X127800000Y-79600000D03*
%TO.N,/TFT_DC*%
X120800000Y-83400000D03*
%TO.N,/TFT_CS*%
X120800000Y-84200000D03*
%TO.N,/MOSI*%
X122400000Y-86800000D03*
%TO.N,/BLK*%
X121000000Y-78800000D03*
%TO.N,Net-(U1-GPIO4{slash}TOUCH4{slash}ADC1_CH3)*%
X103999998Y-77544912D03*
%TO.N,Net-(U1-GPIO18{slash}U1RXD{slash}ADC2_CH7{slash}CLK_OUT3)*%
X109000000Y-84600000D03*
%TO.N,Net-(U1-GPIO17{slash}U1TXD{slash}ADC2_CH6)*%
X105250000Y-82920000D03*
%TO.N,GND*%
X119400000Y-75000000D03*
%TO.N,/S_4*%
X107000000Y-76600000D03*
%TO.N,/S_3*%
X110800000Y-89600000D03*
%TO.N,/S_ROTB*%
X103200000Y-82287500D03*
X106200000Y-77800000D03*
%TO.N,/S_2*%
X124000000Y-74400000D03*
%TO.N,Net-(U1-EN)*%
X102600000Y-77600000D03*
%TO.N,GND*%
X109800000Y-92400000D03*
X97600000Y-74800000D03*
X118800000Y-71000000D03*
X122000000Y-71000000D03*
X114450000Y-71350000D03*
X117200000Y-86800000D03*
X100000000Y-76200000D03*
X102000000Y-81200000D03*
X111400000Y-71000000D03*
%TO.N,+3.3VP*%
X101800000Y-74600000D03*
%TO.N,+5VD*%
X114349998Y-91577500D03*
X119149998Y-91577500D03*
%TO.N,Net-(R10-Pad2)*%
X101487500Y-85800000D03*
%TO.N,Net-(R11-Pad2)*%
X103200000Y-84112500D03*
%TO.N,/LED_IO42*%
X121400000Y-77800000D03*
%TO.N,+BATT*%
X98925000Y-81600000D03*
%TD*%
D38*
%TO.N,/GPIO39*%
X126600000Y-85880000D02*
X125080000Y-85880000D01*
X125080000Y-85880000D02*
X124600000Y-85400000D01*
D39*
%TO.N,Net-(U5-~{RESET})*%
X128902032Y-84647968D02*
X125727032Y-84647968D01*
X129150000Y-84400000D02*
X128902032Y-84647968D01*
D38*
%TO.N,/GPIO39*%
X124600000Y-82670000D02*
X124600000Y-85400000D01*
X122750000Y-81650000D02*
X123580000Y-81650000D01*
X123580000Y-81650000D02*
X124600000Y-82670000D01*
%TO.N,GND*%
X129200000Y-74000000D02*
X129562500Y-75980210D01*
%TO.N,/TFT_RST*%
X131110910Y-83364998D02*
X131199861Y-82896312D01*
X130920316Y-84162999D02*
X131110910Y-83364998D01*
X130872887Y-84327113D02*
X130920316Y-84162999D01*
X130800000Y-84400000D02*
X130872887Y-84327113D01*
X129875000Y-85325000D02*
X130800000Y-84400000D01*
X129075000Y-85325000D02*
X129875000Y-85325000D01*
X126495590Y-87904410D02*
X129075000Y-85325000D01*
X122845590Y-87904410D02*
X126495590Y-87904410D01*
X122750000Y-88000000D02*
X122845590Y-87904410D01*
%TO.N,+3.3VP*%
X128387500Y-81587500D02*
X128387500Y-79600000D01*
X129600000Y-82800000D02*
X128387500Y-81587500D01*
D40*
%TO.N,/SCK*%
X122110000Y-85460000D02*
X121475000Y-84825000D01*
X122750000Y-85460000D02*
X122110000Y-85460000D01*
D38*
%TO.N,+3.3VP*%
X128387500Y-79600000D02*
X128387500Y-74967500D01*
D40*
X127800000Y-79600000D02*
X128387500Y-79600000D01*
%TO.N,/TFT_DC*%
X120800000Y-83400000D02*
X122270000Y-83400000D01*
X122270000Y-83400000D02*
X122750000Y-82920000D01*
%TO.N,/TFT_CS*%
X122740000Y-84200000D02*
X122750000Y-84190000D01*
X120800000Y-84200000D02*
X122740000Y-84200000D01*
%TO.N,/MOSI*%
X122470000Y-86730000D02*
X122400000Y-86800000D01*
X122750000Y-86730000D02*
X122470000Y-86730000D01*
D39*
%TO.N,/SCK*%
X122180626Y-85460000D02*
X122750000Y-85460000D01*
%TO.N,/TFT_CS*%
X121379475Y-84019936D02*
X122579936Y-84019936D01*
X122579936Y-84019936D02*
X122750000Y-84190000D01*
%TO.N,/TFT_DC*%
X122445000Y-83225000D02*
X122750000Y-82920000D01*
D41*
%TO.N,/BLK*%
X121310000Y-79110000D02*
X121000000Y-78800000D01*
X122750000Y-79110000D02*
X121310000Y-79110000D01*
%TO.N,Net-(U1-GPIO4{slash}TOUCH4{slash}ADC1_CH3)*%
X104200000Y-77344910D02*
X103999998Y-77544912D01*
X104200000Y-75400000D02*
X104200000Y-77344910D01*
D38*
%TO.N,Net-(U1-EN)*%
X102800000Y-78162500D02*
X103200000Y-78562500D01*
X102800000Y-76800000D02*
X102800000Y-78162500D01*
D41*
%TO.N,Net-(U1-GPIO4{slash}TOUCH4{slash}ADC1_CH3)*%
X104300000Y-75300000D02*
X105250000Y-75300000D01*
X104200000Y-75400000D02*
X104300000Y-75300000D01*
%TO.N,Net-(U1-EN)*%
X103800000Y-76200000D02*
X103200000Y-76800000D01*
X103800000Y-74530000D02*
X103800000Y-76200000D01*
X104300000Y-74030000D02*
X103800000Y-74530000D01*
X105250000Y-74030000D02*
X104300000Y-74030000D01*
D38*
%TO.N,Net-(U1-GPIO18{slash}U1RXD{slash}ADC2_CH7{slash}CLK_OUT3)*%
X109000000Y-84600000D02*
X108590000Y-84190000D01*
X108590000Y-84190000D02*
X105250000Y-84190000D01*
%TO.N,GND*%
X129562500Y-75980210D02*
X130127410Y-76545120D01*
X129562500Y-74237500D02*
X129200000Y-74000000D01*
%TO.N,+3.3VP*%
X128387500Y-74967500D02*
X126600000Y-73180000D01*
X128545000Y-73180000D02*
X129562500Y-72162500D01*
X126600000Y-73180000D02*
X128545000Y-73180000D01*
%TO.N,/S_4*%
X107000000Y-76600000D02*
X105280000Y-76600000D01*
X105280000Y-76600000D02*
X105250000Y-76570000D01*
%TO.N,/S_3*%
X108700000Y-80800000D02*
X112150000Y-84250000D01*
X112150000Y-84250000D02*
X112150000Y-87700000D01*
X110825000Y-89575000D02*
X110800000Y-89600000D01*
X110825000Y-88420000D02*
X110825000Y-89250000D01*
X111195000Y-88050000D02*
X110825000Y-88420000D01*
X110825000Y-89250000D02*
X110825000Y-89575000D01*
X112150000Y-87700000D02*
X111800000Y-88050000D01*
X111800000Y-88050000D02*
X111195000Y-88050000D01*
%TO.N,/S_5*%
X120800000Y-71640000D02*
X120800000Y-65600000D01*
X122750000Y-72760000D02*
X121920000Y-72760000D01*
X121920000Y-72760000D02*
X120800000Y-71640000D01*
X120800000Y-65600000D02*
X118918210Y-63718210D01*
X118918210Y-63718210D02*
X117300500Y-63718210D01*
%TO.N,/S_ROTB*%
X106160000Y-77840000D02*
X106200000Y-77800000D01*
X105250000Y-77840000D02*
X106160000Y-77840000D01*
%TO.N,/S_ROTA*%
X103312500Y-85800000D02*
X104910000Y-85800000D01*
X104910000Y-85800000D02*
X105250000Y-85460000D01*
%TO.N,/S_2*%
X123630000Y-74030000D02*
X124000000Y-74400000D01*
X122750000Y-74030000D02*
X123630000Y-74030000D01*
%TO.N,/S_1*%
X106490000Y-79110000D02*
X110284170Y-75315830D01*
X105250000Y-79110000D02*
X106490000Y-79110000D01*
X111786150Y-75315830D02*
X115157970Y-78687650D01*
X110284170Y-75315830D02*
X111786150Y-75315830D01*
D41*
%TO.N,Net-(U1-EN)*%
X103200000Y-77000000D02*
X102600000Y-77600000D01*
X103200000Y-76800000D02*
X102975000Y-76575000D01*
X103200000Y-76800000D02*
X103200000Y-77000000D01*
D42*
%TO.N,GND*%
X120100000Y-91577500D02*
X120100000Y-91670500D01*
X107500000Y-73250000D02*
X107500000Y-71765076D01*
X100000000Y-80600000D02*
X101000000Y-81600000D01*
X98200000Y-74200000D02*
X97600000Y-74800000D01*
X100256660Y-72800000D02*
X98856660Y-74200000D01*
D38*
X102237500Y-81600000D02*
X103200000Y-80637500D01*
D42*
X107224924Y-71490000D02*
X105250000Y-71490000D01*
X110600000Y-91487500D02*
X111267000Y-91487500D01*
D41*
X110600000Y-91600000D02*
X109800000Y-92400000D01*
D42*
X111267000Y-91487500D02*
X112425000Y-92645500D01*
X100962500Y-72800000D02*
X100256660Y-72800000D01*
D38*
X101000000Y-81600000D02*
X102000000Y-81200000D01*
D42*
X98300000Y-74200000D02*
X98200000Y-74200000D01*
D38*
X102000000Y-81200000D02*
X102237500Y-81600000D01*
D42*
X112425000Y-92645500D02*
X112425000Y-92552500D01*
X100000000Y-77537500D02*
X100000000Y-80600000D01*
D38*
X125300000Y-74420000D02*
X126600000Y-75720000D01*
D42*
X121517000Y-93087500D02*
X121075000Y-92645500D01*
X122800000Y-93087500D02*
X121517000Y-93087500D01*
X107500000Y-71765076D02*
X107224924Y-71490000D01*
X120100000Y-91670500D02*
X121075000Y-92645500D01*
D38*
X122750000Y-71490000D02*
X123580000Y-71490000D01*
X123580000Y-71490000D02*
X125300000Y-73210000D01*
X125300000Y-73210000D02*
X125300000Y-74420000D01*
D42*
X112425000Y-92552500D02*
X113400000Y-91577500D01*
D38*
X101000000Y-81600000D02*
X102237500Y-81600000D01*
D42*
X98856660Y-74200000D02*
X98300000Y-74200000D01*
D41*
X110600000Y-91487500D02*
X110600000Y-91600000D01*
D38*
%TO.N,Net-(U2-EN)*%
X100950000Y-77537500D02*
X100950000Y-79550000D01*
X100950000Y-79550000D02*
X101000000Y-79600000D01*
D39*
%TO.N,/DP*%
X116550000Y-90577500D02*
X116500000Y-90627500D01*
X108777500Y-91600000D02*
X108600000Y-91600000D01*
X116450000Y-90577500D02*
X109800000Y-90577500D01*
X117500000Y-90577500D02*
X116550000Y-90577500D01*
X116500000Y-90627500D02*
X116450000Y-90577500D01*
X117500000Y-91577500D02*
X117500000Y-90577500D01*
X116500000Y-90627500D02*
X116500000Y-91577500D01*
X109800000Y-90577500D02*
X108777500Y-91600000D01*
D38*
%TO.N,+3.3VP*%
X103200000Y-74000000D02*
X103000000Y-74000000D01*
X103200000Y-74800000D02*
X103200000Y-74000000D01*
X97400000Y-76912500D02*
X97400000Y-82200000D01*
X99000000Y-85400000D02*
X99200000Y-85600000D01*
X97400000Y-82200000D02*
X99000000Y-83800000D01*
X103077500Y-72760000D02*
X103037500Y-72800000D01*
X105250000Y-72760000D02*
X103077500Y-72760000D01*
X100312500Y-74000000D02*
X99050000Y-75262500D01*
X99050000Y-75262500D02*
X97400000Y-76912500D01*
X103200000Y-74000000D02*
X103200000Y-72962500D01*
D42*
X102400000Y-74000000D02*
X103000000Y-74000000D01*
D41*
X102700000Y-74300000D02*
X103200000Y-74800000D01*
D38*
X103200000Y-72962500D02*
X103037500Y-72800000D01*
D42*
X101800000Y-74600000D02*
X102400000Y-74000000D01*
D38*
X99000000Y-83800000D02*
X99000000Y-85400000D01*
X103000000Y-74000000D02*
X100312500Y-74000000D01*
%TO.N,Net-(U1-GPIO20{slash}U1CTS{slash}ADC2_CH9{slash}CLK_OUT1{slash}USB_D+)*%
X106600000Y-91600000D02*
X106115000Y-91115000D01*
X106115000Y-88865000D02*
X105250000Y-88000000D01*
X106115000Y-91115000D02*
X106115000Y-88865000D01*
D41*
%TO.N,/DN*%
X114240991Y-94345500D02*
X115888750Y-92697741D01*
X108600000Y-93600000D02*
X109345500Y-94345500D01*
D39*
X116000000Y-92577500D02*
X116000000Y-91577500D01*
D41*
X109345500Y-94345500D02*
X114240991Y-94345500D01*
D39*
X117000000Y-91577500D02*
X117000000Y-92577500D01*
X117000000Y-92577500D02*
X116788750Y-92788750D01*
X115888750Y-92688750D02*
X116000000Y-92577500D01*
X115788750Y-92788750D02*
X115888750Y-92688750D01*
X116788750Y-92788750D02*
X115788750Y-92788750D01*
D41*
X115888750Y-92697741D02*
X115888750Y-92688750D01*
D39*
%TO.N,Net-(U1-GPIO19{slash}U1RTS{slash}ADC2_CH8{slash}CLK_OUT2{slash}USB_D-)*%
X106600000Y-93600000D02*
X103242687Y-93600000D01*
X101041210Y-88258858D02*
X102300068Y-87000000D01*
X101041210Y-91398523D02*
X101041210Y-88258858D01*
X102300068Y-87000000D02*
X104980000Y-87000000D01*
X103242687Y-93600000D02*
X101041210Y-91398523D01*
X104980000Y-87000000D02*
X105250000Y-86730000D01*
D42*
%TO.N,/TFT_RST*%
X131313232Y-82567110D02*
X131313232Y-80913232D01*
X131313232Y-80913232D02*
X130800000Y-80400000D01*
D39*
%TO.N,+5VD*%
X114200000Y-91577500D02*
X114349998Y-91577500D01*
D41*
%TO.N,Net-(U3-CC2)*%
X118500000Y-93020805D02*
X118500000Y-91577500D01*
X120391695Y-94912500D02*
X118500000Y-93020805D01*
X122800000Y-94912500D02*
X120391695Y-94912500D01*
%TO.N,Net-(U3-CC1)*%
X111233000Y-93945500D02*
X110600000Y-93312500D01*
X115500000Y-92441104D02*
X114575000Y-93366104D01*
X114075305Y-93945500D02*
X111233000Y-93945500D01*
X114575000Y-93445805D02*
X114075305Y-93945500D01*
X115500000Y-91577500D02*
X115500000Y-92441104D01*
X114575000Y-93366104D02*
X114575000Y-93445805D01*
D38*
%TO.N,Net-(R10-Pad2)*%
X99200000Y-87600000D02*
X99687500Y-87600000D01*
X99687500Y-87600000D02*
X101487500Y-85800000D01*
%TO.N,/GPIO43*%
X123640000Y-75300000D02*
X126600000Y-78260000D01*
X122750000Y-75300000D02*
X123640000Y-75300000D01*
%TO.N,Net-(R11-Pad2)*%
X103200000Y-84112500D02*
X101312500Y-84112500D01*
X101312500Y-84112500D02*
X101000000Y-83800000D01*
%TO.N,/GPIO44*%
X124600000Y-78800000D02*
X126600000Y-80800000D01*
X124600000Y-77590000D02*
X124600000Y-78800000D01*
X122750000Y-76570000D02*
X123580000Y-76570000D01*
X123580000Y-76570000D02*
X124600000Y-77590000D01*
%TO.N,/GPIO40*%
X123640000Y-80380000D02*
X126600000Y-83340000D01*
X122750000Y-80380000D02*
X123640000Y-80380000D01*
%TO.N,Net-(JP1-B)*%
X107400000Y-80800000D02*
X106980000Y-80380000D01*
X106980000Y-80380000D02*
X105250000Y-80380000D01*
%TO.N,/LED_IO42*%
X121400000Y-77800000D02*
X122710000Y-77800000D01*
X122710000Y-77800000D02*
X122750000Y-77840000D01*
%TO.N,+BATT*%
X98925000Y-81600000D02*
X98925000Y-79675000D01*
X99050000Y-79550000D02*
X99000000Y-79600000D01*
X98925000Y-79675000D02*
X99000000Y-79600000D01*
X99050000Y-77537500D02*
X99050000Y-79550000D01*
%TD*%
%TA.AperFunction,Conductor*%
%TO.N,GND*%
G36*
X117788759Y-92726562D02*
G01*
X117853308Y-92753301D01*
X117893155Y-92810694D01*
X117899500Y-92849851D01*
X117899500Y-92934135D01*
X117899499Y-92934153D01*
X117899499Y-93099859D01*
X117899498Y-93099859D01*
X117940423Y-93252590D01*
X117960317Y-93287047D01*
X117960316Y-93287047D01*
X117960317Y-93287048D01*
X118019475Y-93389514D01*
X118019481Y-93389522D01*
X118138349Y-93508390D01*
X118138354Y-93508394D01*
X120022979Y-95393020D01*
X120022981Y-95393021D01*
X120022985Y-95393024D01*
X120151966Y-95467490D01*
X120159911Y-95472077D01*
X120293856Y-95507968D01*
X120353514Y-95544333D01*
X120384043Y-95607180D01*
X120375748Y-95676555D01*
X120349442Y-95715423D01*
X120235964Y-95828901D01*
X120134195Y-95968975D01*
X120055591Y-96123242D01*
X120002085Y-96287915D01*
X119975000Y-96458928D01*
X119975000Y-96585838D01*
X119955315Y-96652877D01*
X119902511Y-96698632D01*
X119890973Y-96703218D01*
X119404131Y-96869009D01*
X119398585Y-96870754D01*
X118593442Y-97103442D01*
X118587821Y-97104925D01*
X117772634Y-97299624D01*
X117766949Y-97300841D01*
X116943572Y-97457108D01*
X116937837Y-97458058D01*
X116108016Y-97575565D01*
X116102241Y-97576245D01*
X115267838Y-97654724D01*
X115262039Y-97655133D01*
X114424853Y-97694417D01*
X114419041Y-97694553D01*
X113580959Y-97694553D01*
X113575132Y-97694416D01*
X113568160Y-97694088D01*
X113502119Y-97671275D01*
X113458897Y-97616379D01*
X113452214Y-97546830D01*
X113456056Y-97531906D01*
X113497914Y-97403084D01*
X113525000Y-97232071D01*
X113525000Y-97095500D01*
X112825000Y-97095500D01*
X112825000Y-96595500D01*
X113525000Y-96595500D01*
X113525000Y-96458928D01*
X113497914Y-96287915D01*
X113444408Y-96123242D01*
X113365804Y-95968975D01*
X113264032Y-95828897D01*
X113141602Y-95706467D01*
X113001524Y-95604695D01*
X112847257Y-95526091D01*
X112682589Y-95472587D01*
X112682581Y-95472585D01*
X112675000Y-95471384D01*
X112675000Y-96229814D01*
X112670606Y-96225420D01*
X112579394Y-96172759D01*
X112477661Y-96145500D01*
X112372339Y-96145500D01*
X112270606Y-96172759D01*
X112179394Y-96225420D01*
X112175000Y-96229814D01*
X112175000Y-95471384D01*
X112174999Y-95471384D01*
X112167418Y-95472585D01*
X112167401Y-95472589D01*
X112060873Y-95507202D01*
X111991032Y-95509197D01*
X111931199Y-95473116D01*
X111907995Y-95436723D01*
X111827349Y-95242024D01*
X111827347Y-95242021D01*
X111761636Y-95134790D01*
X111743391Y-95067344D01*
X111764507Y-95000742D01*
X111818279Y-94956128D01*
X111867363Y-94946000D01*
X114154322Y-94946000D01*
X114154338Y-94946001D01*
X114161934Y-94946001D01*
X114320045Y-94946001D01*
X114320048Y-94946001D01*
X114472776Y-94905077D01*
X114522895Y-94876139D01*
X114609707Y-94826020D01*
X114721511Y-94714216D01*
X114721511Y-94714214D01*
X114731719Y-94704007D01*
X114731720Y-94704004D01*
X115960157Y-93475569D01*
X116021480Y-93442084D01*
X116047838Y-93439250D01*
X116852821Y-93439250D01*
X116958435Y-93418241D01*
X116978494Y-93414251D01*
X117096877Y-93365215D01*
X117135737Y-93339250D01*
X117135738Y-93339250D01*
X117186383Y-93305409D01*
X117203419Y-93294027D01*
X117505277Y-92992169D01*
X117576466Y-92885626D01*
X117610986Y-92802283D01*
X117654824Y-92747883D01*
X117712289Y-92726449D01*
X117736753Y-92723819D01*
X117763251Y-92723819D01*
X117788759Y-92726562D01*
G37*
%TD.AperFunction*%
%TA.AperFunction,Conductor*%
G36*
X127613349Y-87950529D02*
G01*
X127669283Y-87992400D01*
X127684577Y-88019259D01*
X127772930Y-88232565D01*
X127772932Y-88232568D01*
X127900447Y-88440653D01*
X127900448Y-88440656D01*
X127900451Y-88440659D01*
X128058951Y-88626239D01*
X128199371Y-88746169D01*
X128244533Y-88784741D01*
X128244535Y-88784741D01*
X128264215Y-88796801D01*
X128452620Y-88912257D01*
X128678091Y-89005649D01*
X128678088Y-89005649D01*
X128678094Y-89005650D01*
X128678098Y-89005652D01*
X128915408Y-89062626D01*
X129147985Y-89080929D01*
X129213272Y-89105813D01*
X129254743Y-89162043D01*
X129259230Y-89231769D01*
X129244660Y-89268217D01*
X129226047Y-89299323D01*
X129222946Y-89304241D01*
X128759367Y-90002458D01*
X128756038Y-90007225D01*
X128260246Y-90682937D01*
X128256698Y-90687542D01*
X127729781Y-91339272D01*
X127726025Y-91343701D01*
X127620315Y-91462592D01*
X127169129Y-91970028D01*
X127165165Y-91974280D01*
X126579536Y-92573803D01*
X126575377Y-92577866D01*
X125962277Y-93149293D01*
X125957932Y-93153156D01*
X125318732Y-93695208D01*
X125314211Y-93698863D01*
X124650307Y-94210358D01*
X124645620Y-94213797D01*
X123968253Y-94686781D01*
X123902018Y-94709023D01*
X123834273Y-94691924D01*
X123786526Y-94640914D01*
X123773904Y-94597714D01*
X123765174Y-94512247D01*
X123736520Y-94425776D01*
X123710908Y-94348484D01*
X123620340Y-94201650D01*
X123506017Y-94087327D01*
X123472532Y-94026004D01*
X123477516Y-93956312D01*
X123506017Y-93911964D01*
X123619948Y-93798033D01*
X123710448Y-93651311D01*
X123710453Y-93651300D01*
X123764680Y-93487652D01*
X123774999Y-93386654D01*
X123775000Y-93386641D01*
X123775000Y-93337500D01*
X122674000Y-93337500D01*
X122606961Y-93317815D01*
X122561206Y-93265011D01*
X122550000Y-93213500D01*
X122550000Y-92100000D01*
X122513361Y-92100000D01*
X122513343Y-92100001D01*
X122412346Y-92110319D01*
X122318150Y-92141532D01*
X122248322Y-92143933D01*
X122188280Y-92108201D01*
X122157088Y-92045681D01*
X122156674Y-92043224D01*
X122147913Y-91987915D01*
X122094408Y-91823242D01*
X122015804Y-91668975D01*
X121914032Y-91528897D01*
X121791602Y-91406467D01*
X121651524Y-91304695D01*
X121497257Y-91226091D01*
X121332589Y-91172587D01*
X121332581Y-91172585D01*
X121325000Y-91171384D01*
X121325000Y-91929814D01*
X121320606Y-91925420D01*
X121229394Y-91872759D01*
X121127661Y-91845500D01*
X121022339Y-91845500D01*
X120920606Y-91872759D01*
X120829394Y-91925420D01*
X120825000Y-91929814D01*
X120825000Y-91171383D01*
X120793474Y-91144461D01*
X120755277Y-91085956D01*
X120750000Y-91050166D01*
X120750000Y-90879672D01*
X120749999Y-90879655D01*
X120743598Y-90820127D01*
X120743596Y-90820120D01*
X120693352Y-90685408D01*
X120692542Y-90683924D01*
X120692182Y-90682271D01*
X120690254Y-90677101D01*
X120690997Y-90676823D01*
X120677691Y-90615650D01*
X120702109Y-90550186D01*
X120758044Y-90508316D01*
X120801371Y-90500499D01*
X121482872Y-90500499D01*
X121542483Y-90494091D01*
X121677331Y-90443796D01*
X121792546Y-90357546D01*
X121878796Y-90242331D01*
X121929091Y-90107483D01*
X121935500Y-90047873D01*
X121935499Y-89074498D01*
X121955183Y-89007460D01*
X122007987Y-88961705D01*
X122059494Y-88950499D01*
X122681893Y-88950499D01*
X122748932Y-88970184D01*
X122794687Y-89022988D01*
X122804631Y-89092146D01*
X122781164Y-89147867D01*
X122781426Y-89148042D01*
X122780518Y-89149399D01*
X122780277Y-89149974D01*
X122779176Y-89151408D01*
X122779172Y-89151414D01*
X122631668Y-89406899D01*
X122631664Y-89406909D01*
X122518774Y-89679448D01*
X122518771Y-89679458D01*
X122442418Y-89964414D01*
X122442416Y-89964425D01*
X122403910Y-90256896D01*
X122403910Y-90551923D01*
X122435981Y-90795523D01*
X122442417Y-90844403D01*
X122518771Y-91129361D01*
X122518774Y-91129371D01*
X122631664Y-91401910D01*
X122631668Y-91401920D01*
X122779171Y-91657403D01*
X122958762Y-91891450D01*
X122958768Y-91891457D01*
X123020974Y-91953663D01*
X123054459Y-92014986D01*
X123050000Y-92077336D01*
X123050000Y-92837500D01*
X123774999Y-92837500D01*
X123774999Y-92788360D01*
X123774998Y-92788345D01*
X123764681Y-92687350D01*
X123763470Y-92681693D01*
X123768685Y-92612019D01*
X123810741Y-92556224D01*
X123876286Y-92532023D01*
X123925167Y-92540030D01*
X123925605Y-92538741D01*
X123929444Y-92540043D01*
X123929458Y-92540049D01*
X124214417Y-92616403D01*
X124506904Y-92654910D01*
X124506911Y-92654910D01*
X124801909Y-92654910D01*
X124801916Y-92654910D01*
X125094403Y-92616403D01*
X125379362Y-92540049D01*
X125651917Y-92427153D01*
X125907404Y-92279648D01*
X126141452Y-92100056D01*
X126350056Y-91891452D01*
X126529648Y-91657404D01*
X126677153Y-91401917D01*
X126790049Y-91129362D01*
X126866403Y-90844403D01*
X126904910Y-90551916D01*
X126904910Y-90256904D01*
X126866403Y-89964417D01*
X126790049Y-89679458D01*
X126677153Y-89406903D01*
X126615042Y-89299324D01*
X126529648Y-89151416D01*
X126350057Y-88917369D01*
X126350051Y-88917362D01*
X126299280Y-88866591D01*
X126265795Y-88805268D01*
X126270779Y-88735576D01*
X126312651Y-88679643D01*
X126378115Y-88655226D01*
X126386961Y-88654910D01*
X126569510Y-88654910D01*
X126670545Y-88634812D01*
X126714503Y-88626068D01*
X126851085Y-88569494D01*
X126900319Y-88536596D01*
X126911431Y-88529172D01*
X126924661Y-88520331D01*
X126974006Y-88487362D01*
X127482338Y-87979028D01*
X127543658Y-87945545D01*
X127613349Y-87950529D01*
G37*
%TD.AperFunction*%
%TA.AperFunction,Conductor*%
G36*
X114424853Y-61705583D02*
G01*
X115262041Y-61744866D01*
X115267838Y-61745275D01*
X115333551Y-61751455D01*
X116102267Y-61823757D01*
X116107987Y-61824430D01*
X116937837Y-61941941D01*
X116943572Y-61942891D01*
X116996274Y-61952893D01*
X117058467Y-61984732D01*
X117093574Y-62045141D01*
X117090448Y-62114941D01*
X117050082Y-62171970D01*
X117002101Y-62195291D01*
X116868684Y-62227323D01*
X116819880Y-62239040D01*
X116594410Y-62332432D01*
X116386326Y-62459947D01*
X116386323Y-62459948D01*
X116200741Y-62618451D01*
X116042238Y-62804033D01*
X116042237Y-62804036D01*
X115914722Y-63012120D01*
X115821330Y-63237590D01*
X115764353Y-63474912D01*
X115745206Y-63718210D01*
X115764353Y-63961507D01*
X115764353Y-63961510D01*
X115764354Y-63961512D01*
X115815162Y-64173140D01*
X115821330Y-64198829D01*
X115914722Y-64424299D01*
X116042237Y-64632383D01*
X116042238Y-64632386D01*
X116095949Y-64695273D01*
X116200741Y-64817969D01*
X116344397Y-64940663D01*
X116386323Y-64976471D01*
X116386326Y-64976472D01*
X116594410Y-65103987D01*
X116775847Y-65179140D01*
X116801199Y-65189641D01*
X116819881Y-65197379D01*
X116819878Y-65197379D01*
X116819884Y-65197380D01*
X116819888Y-65197382D01*
X117057198Y-65254356D01*
X117300500Y-65273504D01*
X117543802Y-65254356D01*
X117781112Y-65197382D01*
X118006589Y-65103987D01*
X118214679Y-64976469D01*
X118400259Y-64817969D01*
X118558759Y-64632389D01*
X118558763Y-64632383D01*
X118561621Y-64628450D01*
X118563139Y-64629552D01*
X118609000Y-64588034D01*
X118677926Y-64576589D01*
X118742098Y-64604226D01*
X118750633Y-64612001D01*
X120013181Y-65874549D01*
X120046666Y-65935872D01*
X120049500Y-65962230D01*
X120049500Y-71713918D01*
X120049500Y-71713920D01*
X120049499Y-71713920D01*
X120078340Y-71858907D01*
X120078343Y-71858917D01*
X120134913Y-71995490D01*
X120134915Y-71995493D01*
X120144274Y-72009501D01*
X120217049Y-72118418D01*
X120217052Y-72118421D01*
X121441578Y-73342946D01*
X121441581Y-73342949D01*
X121452170Y-73350024D01*
X121496975Y-73403636D01*
X121506569Y-73466380D01*
X121505909Y-73472516D01*
X121505909Y-73472517D01*
X121499500Y-73532127D01*
X121499500Y-73532128D01*
X121499500Y-73532132D01*
X121499500Y-74527870D01*
X121499501Y-74527876D01*
X121505908Y-74587481D01*
X121518659Y-74621669D01*
X121523642Y-74691361D01*
X121518659Y-74708331D01*
X121505908Y-74742518D01*
X121501271Y-74785651D01*
X121499501Y-74802123D01*
X121499500Y-74802135D01*
X121499500Y-75797870D01*
X121499501Y-75797876D01*
X121505908Y-75857481D01*
X121518659Y-75891669D01*
X121523642Y-75961361D01*
X121518659Y-75978331D01*
X121505908Y-76012518D01*
X121499501Y-76072116D01*
X121499500Y-76072135D01*
X121499500Y-76872410D01*
X121479815Y-76939449D01*
X121427011Y-76985204D01*
X121389384Y-76995630D01*
X121220749Y-77014630D01*
X121220745Y-77014631D01*
X121050476Y-77074211D01*
X120897737Y-77170184D01*
X120770184Y-77297737D01*
X120674211Y-77450476D01*
X120614631Y-77620745D01*
X120614630Y-77620750D01*
X120594435Y-77799996D01*
X120594435Y-77800003D01*
X120614631Y-77979253D01*
X120614631Y-77979254D01*
X120615670Y-77982223D01*
X120615773Y-77984260D01*
X120616181Y-77986044D01*
X120615868Y-77986115D01*
X120619231Y-78052002D01*
X120584501Y-78112629D01*
X120564602Y-78128169D01*
X120497738Y-78170183D01*
X120370184Y-78297737D01*
X120274211Y-78450476D01*
X120214631Y-78620745D01*
X120214630Y-78620750D01*
X120194435Y-78799996D01*
X120194435Y-78800003D01*
X120214630Y-78979249D01*
X120214631Y-78979254D01*
X120274211Y-79149523D01*
X120364020Y-79292452D01*
X120370184Y-79302262D01*
X120497738Y-79429816D01*
X120537818Y-79455000D01*
X120648927Y-79524815D01*
X120650478Y-79525789D01*
X120762468Y-79564976D01*
X120820745Y-79585368D01*
X120820750Y-79585369D01*
X120933712Y-79598096D01*
X120981830Y-79613929D01*
X121008800Y-79629500D01*
X121078215Y-79669577D01*
X121230942Y-79710500D01*
X121230943Y-79710500D01*
X121379906Y-79710500D01*
X121446945Y-79730185D01*
X121492700Y-79782989D01*
X121503195Y-79847752D01*
X121499500Y-79882127D01*
X121499500Y-79882131D01*
X121499500Y-79882132D01*
X121499500Y-80877870D01*
X121499501Y-80877876D01*
X121505908Y-80937481D01*
X121518659Y-80971669D01*
X121523642Y-81041361D01*
X121518659Y-81058331D01*
X121505908Y-81092518D01*
X121499501Y-81152116D01*
X121499500Y-81152135D01*
X121499500Y-82147870D01*
X121499501Y-82147876D01*
X121505908Y-82207481D01*
X121518659Y-82241669D01*
X121523642Y-82311361D01*
X121518659Y-82328331D01*
X121505908Y-82362518D01*
X121499845Y-82418917D01*
X121499501Y-82422123D01*
X121499500Y-82422135D01*
X121499500Y-82650500D01*
X121479815Y-82717539D01*
X121427011Y-82763294D01*
X121375500Y-82774500D01*
X121344855Y-82774500D01*
X121278883Y-82755494D01*
X121149523Y-82674211D01*
X120979254Y-82614631D01*
X120979249Y-82614630D01*
X120800004Y-82594435D01*
X120799996Y-82594435D01*
X120620750Y-82614630D01*
X120620745Y-82614631D01*
X120450476Y-82674211D01*
X120297737Y-82770184D01*
X120170184Y-82897737D01*
X120074211Y-83050476D01*
X120014631Y-83220745D01*
X120014630Y-83220750D01*
X119994435Y-83399996D01*
X119994435Y-83400003D01*
X120014630Y-83579249D01*
X120014633Y-83579262D01*
X120076510Y-83756094D01*
X120074364Y-83756844D01*
X120083962Y-83815144D01*
X120075609Y-83843590D01*
X120076510Y-83843906D01*
X120014633Y-84020737D01*
X120014630Y-84020750D01*
X119994435Y-84199996D01*
X119994435Y-84200003D01*
X120014630Y-84379249D01*
X120014631Y-84379254D01*
X120074211Y-84549524D01*
X120162521Y-84690066D01*
X120181522Y-84757303D01*
X120161155Y-84824138D01*
X120107887Y-84869353D01*
X120104981Y-84870600D01*
X119889530Y-84959842D01*
X119681446Y-85087357D01*
X119681443Y-85087358D01*
X119495861Y-85245861D01*
X119337358Y-85431443D01*
X119337357Y-85431446D01*
X119209842Y-85639530D01*
X119116450Y-85865000D01*
X119059475Y-86102314D01*
X119059473Y-86102320D01*
X119040326Y-86345620D01*
X119059473Y-86588917D01*
X119059473Y-86588920D01*
X119059474Y-86588922D01*
X119098482Y-86751401D01*
X119116450Y-86826239D01*
X119209842Y-87051709D01*
X119337357Y-87259793D01*
X119337358Y-87259796D01*
X119337361Y-87259799D01*
X119495861Y-87445379D01*
X119596119Y-87531007D01*
X119681443Y-87603881D01*
X119681446Y-87603882D01*
X119889530Y-87731397D01*
X119960851Y-87760939D01*
X120015254Y-87804780D01*
X120037319Y-87871074D01*
X120020040Y-87938773D01*
X119968903Y-87986384D01*
X119913398Y-87999500D01*
X119217129Y-87999500D01*
X119217123Y-87999501D01*
X119157518Y-88005908D01*
X119123331Y-88018659D01*
X119053639Y-88023642D01*
X119036669Y-88018659D01*
X119005655Y-88007092D01*
X119002483Y-88005909D01*
X119002482Y-88005908D01*
X118942883Y-87999501D01*
X118942881Y-87999500D01*
X118942873Y-87999500D01*
X118942864Y-87999500D01*
X117947129Y-87999500D01*
X117947123Y-87999501D01*
X117887518Y-88005908D01*
X117853331Y-88018659D01*
X117783639Y-88023642D01*
X117766669Y-88018659D01*
X117735655Y-88007092D01*
X117732483Y-88005909D01*
X117732482Y-88005908D01*
X117672883Y-87999501D01*
X117672881Y-87999500D01*
X117672873Y-87999500D01*
X117672864Y-87999500D01*
X116677129Y-87999500D01*
X116677123Y-87999501D01*
X116617518Y-88005908D01*
X116583331Y-88018659D01*
X116513639Y-88023642D01*
X116496669Y-88018659D01*
X116465655Y-88007092D01*
X116462483Y-88005909D01*
X116462482Y-88005908D01*
X116402883Y-87999501D01*
X116402881Y-87999500D01*
X116402873Y-87999500D01*
X116402864Y-87999500D01*
X115407129Y-87999500D01*
X115407123Y-87999501D01*
X115347518Y-88005908D01*
X115313331Y-88018659D01*
X115243639Y-88023642D01*
X115226669Y-88018659D01*
X115195655Y-88007092D01*
X115192483Y-88005909D01*
X115192482Y-88005908D01*
X115132883Y-87999501D01*
X115132881Y-87999500D01*
X115132873Y-87999500D01*
X115132864Y-87999500D01*
X114137129Y-87999500D01*
X114137123Y-87999501D01*
X114077518Y-88005908D01*
X114043331Y-88018659D01*
X113973639Y-88023642D01*
X113956669Y-88018659D01*
X113925655Y-88007092D01*
X113922483Y-88005909D01*
X113922482Y-88005908D01*
X113862883Y-87999501D01*
X113862881Y-87999500D01*
X113862873Y-87999500D01*
X113862865Y-87999500D01*
X113006723Y-87999500D01*
X112939684Y-87979815D01*
X112893929Y-87927011D01*
X112883985Y-87857853D01*
X112885106Y-87851308D01*
X112888553Y-87833980D01*
X112900500Y-87773917D01*
X112900500Y-87626082D01*
X112900500Y-84176082D01*
X112900500Y-84176079D01*
X112871659Y-84031092D01*
X112871658Y-84031091D01*
X112871658Y-84031087D01*
X112871328Y-84030290D01*
X112815087Y-83894511D01*
X112815085Y-83894507D01*
X112815084Y-83894505D01*
X112777509Y-83838270D01*
X112777508Y-83838268D01*
X112732956Y-83771589D01*
X112732952Y-83771584D01*
X112044627Y-83083259D01*
X116179290Y-83083259D01*
X116219658Y-83286202D01*
X116219660Y-83286210D01*
X116298848Y-83477386D01*
X116413814Y-83649447D01*
X116560132Y-83795765D01*
X116560135Y-83795767D01*
X116732192Y-83910731D01*
X116923370Y-83989920D01*
X117078299Y-84020737D01*
X117126320Y-84030289D01*
X117126324Y-84030290D01*
X117126325Y-84030290D01*
X117333256Y-84030290D01*
X117333257Y-84030289D01*
X117536210Y-83989920D01*
X117727388Y-83910731D01*
X117899445Y-83795767D01*
X118045767Y-83649445D01*
X118160731Y-83477388D01*
X118239920Y-83286210D01*
X118280290Y-83083255D01*
X118280290Y-82876325D01*
X118239920Y-82673370D01*
X118160731Y-82482192D01*
X118045767Y-82310135D01*
X118045765Y-82310132D01*
X117899447Y-82163814D01*
X117752938Y-82065921D01*
X117727388Y-82048849D01*
X117724131Y-82047500D01*
X117536210Y-81969660D01*
X117536202Y-81969658D01*
X117333259Y-81929290D01*
X117333255Y-81929290D01*
X117126325Y-81929290D01*
X117126320Y-81929290D01*
X116923377Y-81969658D01*
X116923369Y-81969660D01*
X116732193Y-82048848D01*
X116560132Y-82163814D01*
X116413814Y-82310132D01*
X116298848Y-82482193D01*
X116219660Y-82673369D01*
X116219658Y-82673377D01*
X116179290Y-82876320D01*
X116179290Y-83083259D01*
X112044627Y-83083259D01*
X110833049Y-81871681D01*
X110799564Y-81810358D01*
X110804548Y-81740666D01*
X110846420Y-81684733D01*
X110911884Y-81660316D01*
X110920730Y-81660000D01*
X111525000Y-81660000D01*
X112025000Y-81660000D01*
X113047828Y-81660000D01*
X113047844Y-81659999D01*
X113107372Y-81653598D01*
X113107379Y-81653596D01*
X113242086Y-81603354D01*
X113242093Y-81603350D01*
X113357187Y-81517190D01*
X113357190Y-81517187D01*
X113443350Y-81402093D01*
X113443354Y-81402086D01*
X113493596Y-81267379D01*
X113493598Y-81267372D01*
X113499999Y-81207844D01*
X113500000Y-81207824D01*
X113500000Y-79955000D01*
X112808554Y-79955000D01*
X112536556Y-80226995D01*
X112536548Y-80227006D01*
X112117006Y-80646548D01*
X112117001Y-80646550D01*
X112025000Y-80738552D01*
X112025000Y-81660000D01*
X111525000Y-81660000D01*
X111525000Y-80688553D01*
X111476284Y-80639837D01*
X111650000Y-80639837D01*
X111672836Y-80694968D01*
X111715032Y-80737164D01*
X111770163Y-80760000D01*
X111829837Y-80760000D01*
X111884968Y-80737164D01*
X111927164Y-80694968D01*
X111950000Y-80639837D01*
X111950000Y-80580163D01*
X111927164Y-80525032D01*
X111884968Y-80482836D01*
X111829837Y-80460000D01*
X111770163Y-80460000D01*
X111715032Y-80482836D01*
X111672836Y-80525032D01*
X111650000Y-80580163D01*
X111650000Y-80639837D01*
X111476284Y-80639837D01*
X111460731Y-80624284D01*
X111460726Y-80624280D01*
X111044573Y-80208127D01*
X111044571Y-80208124D01*
X110791447Y-79955000D01*
X110050000Y-79955000D01*
X110050000Y-80789270D01*
X110030315Y-80856309D01*
X109977511Y-80902064D01*
X109908353Y-80912008D01*
X109844797Y-80882983D01*
X109838319Y-80876951D01*
X109741819Y-80780451D01*
X109708334Y-80719128D01*
X109705500Y-80692770D01*
X109705500Y-80534426D01*
X109705497Y-80534399D01*
X109705497Y-80478060D01*
X109685035Y-80335744D01*
X109685034Y-80335739D01*
X109657786Y-80242944D01*
X109644498Y-80197691D01*
X109644496Y-80197686D01*
X109584776Y-80066918D01*
X109584773Y-80066914D01*
X109584770Y-80066906D01*
X109506986Y-79945870D01*
X109506985Y-79945869D01*
X109506984Y-79945867D01*
X109506981Y-79945863D01*
X109501759Y-79939837D01*
X110950000Y-79939837D01*
X110972836Y-79994968D01*
X111015032Y-80037164D01*
X111070163Y-80060000D01*
X111129837Y-80060000D01*
X111184968Y-80037164D01*
X111227164Y-79994968D01*
X111243719Y-79955000D01*
X111498553Y-79955000D01*
X111524999Y-79981446D01*
X111525000Y-79981445D01*
X111525000Y-79955000D01*
X112025000Y-79955000D01*
X112025000Y-80031446D01*
X112101446Y-79955000D01*
X112025000Y-79955000D01*
X111525000Y-79955000D01*
X111498553Y-79955000D01*
X111243719Y-79955000D01*
X111250000Y-79939837D01*
X112350000Y-79939837D01*
X112372836Y-79994968D01*
X112415032Y-80037164D01*
X112470163Y-80060000D01*
X112529837Y-80060000D01*
X112584968Y-80037164D01*
X112627164Y-79994968D01*
X112650000Y-79939837D01*
X112650000Y-79880163D01*
X112627164Y-79825032D01*
X112584968Y-79782836D01*
X112529837Y-79760000D01*
X112470163Y-79760000D01*
X112415032Y-79782836D01*
X112372836Y-79825032D01*
X112350000Y-79880163D01*
X112350000Y-79939837D01*
X111250000Y-79939837D01*
X111250000Y-79880163D01*
X111227164Y-79825032D01*
X111184968Y-79782836D01*
X111129837Y-79760000D01*
X111070163Y-79760000D01*
X111015032Y-79782836D01*
X110972836Y-79825032D01*
X110950000Y-79880163D01*
X110950000Y-79939837D01*
X109501759Y-79939837D01*
X109412847Y-79837226D01*
X109412830Y-79837207D01*
X109412829Y-79837206D01*
X109304091Y-79742985D01*
X109249753Y-79708064D01*
X109183142Y-79665255D01*
X109183136Y-79665252D01*
X109104849Y-79629500D01*
X109052259Y-79605483D01*
X108934650Y-79570950D01*
X108914308Y-79564977D01*
X108914296Y-79564974D01*
X108771889Y-79544500D01*
X108200000Y-79544500D01*
X108199997Y-79544500D01*
X108128061Y-79549644D01*
X108128056Y-79549645D01*
X108090735Y-79560603D01*
X108038158Y-79564363D01*
X107900001Y-79544500D01*
X107900000Y-79544500D01*
X107416229Y-79544500D01*
X107349190Y-79524815D01*
X107303435Y-79472011D01*
X107293491Y-79402853D01*
X107322516Y-79339297D01*
X107328548Y-79332819D01*
X107887144Y-78774223D01*
X109690331Y-76971034D01*
X109751652Y-76937551D01*
X109821344Y-76942535D01*
X109877277Y-76984407D01*
X109892571Y-77011264D01*
X109934887Y-77113426D01*
X110049854Y-77285487D01*
X110196172Y-77431805D01*
X110196175Y-77431807D01*
X110368232Y-77546771D01*
X110378609Y-77551069D01*
X110433013Y-77594909D01*
X110455079Y-77661203D01*
X110437801Y-77728903D01*
X110386664Y-77776514D01*
X110374492Y-77781813D01*
X110307912Y-77806646D01*
X110307906Y-77806649D01*
X110192812Y-77892809D01*
X110192809Y-77892812D01*
X110106649Y-78007906D01*
X110106645Y-78007913D01*
X110056403Y-78142620D01*
X110056401Y-78142627D01*
X110050000Y-78202155D01*
X110050000Y-79455000D01*
X111201446Y-79455000D01*
X111201446Y-79454999D01*
X111416609Y-79239837D01*
X111650000Y-79239837D01*
X111672836Y-79294968D01*
X111715032Y-79337164D01*
X111770163Y-79360000D01*
X111829837Y-79360000D01*
X111884968Y-79337164D01*
X111927164Y-79294968D01*
X111950000Y-79239837D01*
X111950000Y-79180163D01*
X111927164Y-79125032D01*
X111884968Y-79082836D01*
X111829837Y-79060000D01*
X111770163Y-79060000D01*
X111715032Y-79082836D01*
X111672836Y-79125032D01*
X111650000Y-79180163D01*
X111650000Y-79239837D01*
X111416609Y-79239837D01*
X111446446Y-79210000D01*
X111044573Y-78808127D01*
X111044571Y-78808124D01*
X110834128Y-78597681D01*
X110802543Y-78539837D01*
X110950000Y-78539837D01*
X110972836Y-78594968D01*
X111015032Y-78637164D01*
X111070163Y-78660000D01*
X111129837Y-78660000D01*
X111184968Y-78637164D01*
X111227164Y-78594968D01*
X111250000Y-78539837D01*
X111250000Y-78480163D01*
X111227164Y-78425032D01*
X111184968Y-78382836D01*
X111129837Y-78360000D01*
X111070163Y-78360000D01*
X111015032Y-78382836D01*
X110972836Y-78425032D01*
X110950000Y-78480163D01*
X110950000Y-78539837D01*
X110802543Y-78539837D01*
X110800643Y-78536358D01*
X110805627Y-78466666D01*
X110834128Y-78422319D01*
X111012319Y-78244128D01*
X111073642Y-78210643D01*
X111143334Y-78215627D01*
X111187681Y-78244128D01*
X111398121Y-78454568D01*
X111398127Y-78454573D01*
X111489643Y-78546089D01*
X111489644Y-78546089D01*
X111525000Y-78581445D01*
X111525000Y-77750000D01*
X111468048Y-77750000D01*
X111401009Y-77730315D01*
X111355254Y-77677511D01*
X111345310Y-77608353D01*
X111374335Y-77544797D01*
X111399158Y-77522898D01*
X111507545Y-77450476D01*
X111535485Y-77431807D01*
X111681807Y-77285485D01*
X111796771Y-77113428D01*
X111875960Y-76922250D01*
X111906231Y-76770067D01*
X111938615Y-76708156D01*
X111999331Y-76673582D01*
X112069101Y-76677321D01*
X112115529Y-76706577D01*
X112947271Y-77538319D01*
X112980756Y-77599642D01*
X112975772Y-77669334D01*
X112933900Y-77725267D01*
X112868436Y-77749684D01*
X112859590Y-77750000D01*
X112771307Y-77750000D01*
X112730352Y-77743041D01*
X112679144Y-77725122D01*
X112500003Y-77704938D01*
X112499997Y-77704938D01*
X112320856Y-77725122D01*
X112320854Y-77725122D01*
X112269648Y-77743041D01*
X112228693Y-77750000D01*
X112025000Y-77750000D01*
X112025000Y-78631444D01*
X112110356Y-78546089D01*
X112110357Y-78546089D01*
X112116609Y-78539837D01*
X112350000Y-78539837D01*
X112372836Y-78594968D01*
X112415032Y-78637164D01*
X112470163Y-78660000D01*
X112529837Y-78660000D01*
X112584968Y-78637164D01*
X112627164Y-78594968D01*
X112650000Y-78539837D01*
X112650000Y-78480163D01*
X112627164Y-78425032D01*
X112584968Y-78382836D01*
X112529837Y-78360000D01*
X112470163Y-78360000D01*
X112415032Y-78382836D01*
X112372836Y-78425032D01*
X112350000Y-78480163D01*
X112350000Y-78539837D01*
X112116609Y-78539837D01*
X112219314Y-78437132D01*
X112412318Y-78244127D01*
X112473641Y-78210642D01*
X112543332Y-78215626D01*
X112587680Y-78244127D01*
X112765871Y-78422318D01*
X112799356Y-78483641D01*
X112794372Y-78553333D01*
X112765871Y-78597680D01*
X112536560Y-78826990D01*
X112536548Y-78827006D01*
X112434240Y-78929314D01*
X112153553Y-79209999D01*
X112197203Y-79253648D01*
X112197204Y-79253650D01*
X112398554Y-79455000D01*
X113500000Y-79455000D01*
X113500000Y-79359997D01*
X113519685Y-79292958D01*
X113572489Y-79247203D01*
X113641647Y-79237259D01*
X113705203Y-79266284D01*
X113738561Y-79312545D01*
X113772190Y-79393735D01*
X113772192Y-79393738D01*
X113899707Y-79601823D01*
X113899708Y-79601826D01*
X113904872Y-79607872D01*
X114058211Y-79787409D01*
X114166812Y-79880163D01*
X114243793Y-79945911D01*
X114243796Y-79945912D01*
X114451880Y-80073427D01*
X114677351Y-80166819D01*
X114677348Y-80166819D01*
X114677354Y-80166820D01*
X114677358Y-80166822D01*
X114914668Y-80223796D01*
X115157970Y-80242944D01*
X115401272Y-80223796D01*
X115638582Y-80166822D01*
X115864059Y-80073427D01*
X116072149Y-79945909D01*
X116257729Y-79787409D01*
X116416229Y-79601829D01*
X116543747Y-79393739D01*
X116637142Y-79168262D01*
X116694116Y-78930952D01*
X116713264Y-78687650D01*
X116694116Y-78444348D01*
X116637142Y-78207038D01*
X116637139Y-78207030D01*
X116543747Y-77981560D01*
X116416232Y-77773476D01*
X116416231Y-77773473D01*
X116374935Y-77725122D01*
X116257729Y-77587891D01*
X116096839Y-77450478D01*
X116072146Y-77429388D01*
X116072143Y-77429387D01*
X115864059Y-77301872D01*
X115638588Y-77208480D01*
X115638591Y-77208480D01*
X115505865Y-77176615D01*
X115401272Y-77151504D01*
X115401270Y-77151503D01*
X115401267Y-77151503D01*
X115157970Y-77132356D01*
X114914670Y-77151503D01*
X114914668Y-77151503D01*
X114795527Y-77180106D01*
X114725745Y-77176615D01*
X114678900Y-77147213D01*
X112264571Y-74732882D01*
X112264564Y-74732876D01*
X112184851Y-74679614D01*
X112184752Y-74679549D01*
X112141645Y-74650746D01*
X112141644Y-74650745D01*
X112141642Y-74650744D01*
X112005067Y-74594173D01*
X112005057Y-74594170D01*
X111860070Y-74565330D01*
X111860068Y-74565330D01*
X110210252Y-74565330D01*
X110210246Y-74565330D01*
X110181412Y-74571064D01*
X110181413Y-74571065D01*
X110065263Y-74594169D01*
X110065253Y-74594172D01*
X109985251Y-74627309D01*
X109985252Y-74627310D01*
X109928676Y-74650745D01*
X109928673Y-74650747D01*
X109914001Y-74660550D01*
X109855709Y-74699500D01*
X109851041Y-74702619D01*
X109805756Y-74732876D01*
X109805751Y-74732880D01*
X108001111Y-76537520D01*
X107939788Y-76571005D01*
X107870096Y-76566021D01*
X107814163Y-76524149D01*
X107790210Y-76463723D01*
X107785368Y-76420745D01*
X107725789Y-76250478D01*
X107716711Y-76236031D01*
X107643866Y-76120099D01*
X107629816Y-76097738D01*
X107502262Y-75970184D01*
X107430015Y-75924788D01*
X107349523Y-75874211D01*
X107179254Y-75814631D01*
X107179249Y-75814630D01*
X107000004Y-75794435D01*
X106999996Y-75794435D01*
X106820750Y-75814630D01*
X106820745Y-75814631D01*
X106740983Y-75842542D01*
X106700028Y-75849500D01*
X106624500Y-75849500D01*
X106557461Y-75829815D01*
X106511706Y-75777011D01*
X106500500Y-75725500D01*
X106500499Y-74802129D01*
X106500498Y-74802123D01*
X106500497Y-74802116D01*
X106494091Y-74742517D01*
X106481340Y-74708332D01*
X106476357Y-74638642D01*
X106481333Y-74621687D01*
X106482772Y-74617829D01*
X106524636Y-74561895D01*
X106590097Y-74537471D01*
X106658372Y-74552315D01*
X106663747Y-74555427D01*
X106794138Y-74635331D01*
X107019542Y-74728696D01*
X107256780Y-74785651D01*
X107256779Y-74785651D01*
X107500000Y-74804792D01*
X107743219Y-74785651D01*
X107980457Y-74728696D01*
X108205861Y-74635331D01*
X108407941Y-74511495D01*
X108407941Y-74511494D01*
X107785756Y-73889309D01*
X107831574Y-73870332D01*
X107946224Y-73793726D01*
X108043726Y-73696224D01*
X108120332Y-73581574D01*
X108139309Y-73535756D01*
X108761494Y-74157941D01*
X108761495Y-74157941D01*
X108885331Y-73955861D01*
X108978696Y-73730457D01*
X109035651Y-73493219D01*
X109054792Y-73250000D01*
X109035651Y-73006780D01*
X108978696Y-72769542D01*
X108885331Y-72544138D01*
X108761494Y-72342057D01*
X108139309Y-72964242D01*
X108120332Y-72918426D01*
X108043726Y-72803776D01*
X107946224Y-72706274D01*
X107831574Y-72629668D01*
X107785756Y-72610689D01*
X108407941Y-71988504D01*
X108205861Y-71864668D01*
X107980457Y-71771303D01*
X107743219Y-71714348D01*
X107743220Y-71714348D01*
X107500000Y-71695207D01*
X107256780Y-71714348D01*
X107019542Y-71771303D01*
X106794140Y-71864667D01*
X106688789Y-71929227D01*
X106621344Y-71947471D01*
X106554741Y-71926354D01*
X106510128Y-71872582D01*
X106500000Y-71823499D01*
X106500000Y-71740000D01*
X103988941Y-71740000D01*
X103951975Y-71760184D01*
X103882284Y-71755198D01*
X103848712Y-71736286D01*
X103843656Y-71732288D01*
X103707236Y-71648144D01*
X103660512Y-71596196D01*
X103649289Y-71527233D01*
X103677133Y-71463151D01*
X103735201Y-71424295D01*
X103756137Y-71419668D01*
X103881203Y-71403203D01*
X104166162Y-71326849D01*
X104353046Y-71249438D01*
X104400499Y-71240000D01*
X106500000Y-71240000D01*
X106500000Y-70992172D01*
X106499999Y-70992155D01*
X106493598Y-70932627D01*
X106493596Y-70932620D01*
X106443354Y-70797913D01*
X106443350Y-70797906D01*
X106357190Y-70682812D01*
X106357187Y-70682809D01*
X106242093Y-70596649D01*
X106242086Y-70596645D01*
X106107379Y-70546403D01*
X106107372Y-70546401D01*
X106047844Y-70540000D01*
X105475914Y-70540000D01*
X105408875Y-70520315D01*
X105363120Y-70467511D01*
X105353176Y-70398353D01*
X105368527Y-70354000D01*
X105375694Y-70341587D01*
X105463953Y-70188717D01*
X105576849Y-69916162D01*
X105653203Y-69631203D01*
X105691710Y-69338716D01*
X105691710Y-69043704D01*
X105653203Y-68751217D01*
X105576849Y-68466258D01*
X105463953Y-68193703D01*
X105316448Y-67938216D01*
X105136856Y-67704168D01*
X105136851Y-67704162D01*
X104928257Y-67495568D01*
X104928250Y-67495562D01*
X104694203Y-67315971D01*
X104438720Y-67168468D01*
X104438710Y-67168464D01*
X104166171Y-67055574D01*
X104166164Y-67055572D01*
X104166162Y-67055571D01*
X103881203Y-66979217D01*
X103832323Y-66972781D01*
X103588723Y-66940710D01*
X103588716Y-66940710D01*
X103293704Y-66940710D01*
X103293696Y-66940710D01*
X103015295Y-66977363D01*
X103001217Y-66979217D01*
X102747029Y-67047326D01*
X102716258Y-67055571D01*
X102716248Y-67055574D01*
X102443709Y-67168464D01*
X102443699Y-67168468D01*
X102188216Y-67315971D01*
X101954169Y-67495562D01*
X101954162Y-67495568D01*
X101745568Y-67704162D01*
X101745562Y-67704169D01*
X101565971Y-67938216D01*
X101418468Y-68193699D01*
X101418464Y-68193709D01*
X101305574Y-68466248D01*
X101305571Y-68466258D01*
X101229218Y-68751214D01*
X101229216Y-68751225D01*
X101190710Y-69043696D01*
X101190710Y-69338723D01*
X101222781Y-69582323D01*
X101229217Y-69631203D01*
X101305571Y-69916161D01*
X101305574Y-69916171D01*
X101418464Y-70188710D01*
X101418468Y-70188720D01*
X101565971Y-70444203D01*
X101745562Y-70678250D01*
X101745568Y-70678257D01*
X101954162Y-70886851D01*
X101954169Y-70886857D01*
X102188216Y-71066448D01*
X102443699Y-71213951D01*
X102443700Y-71213951D01*
X102443703Y-71213953D01*
X102716258Y-71326849D01*
X102730725Y-71330725D01*
X102790385Y-71367086D01*
X102820917Y-71429932D01*
X102812625Y-71499308D01*
X102768142Y-71553188D01*
X102701591Y-71574465D01*
X102698637Y-71574500D01*
X102650000Y-71574500D01*
X102649980Y-71574501D01*
X102547203Y-71585000D01*
X102547200Y-71585001D01*
X102380668Y-71640185D01*
X102380663Y-71640187D01*
X102231342Y-71732289D01*
X102107288Y-71856343D01*
X102107283Y-71856349D01*
X102105241Y-71859661D01*
X102103247Y-71861453D01*
X102102807Y-71862011D01*
X102102711Y-71861935D01*
X102053291Y-71906383D01*
X101984328Y-71917602D01*
X101920247Y-71889755D01*
X101894168Y-71859656D01*
X101892319Y-71856659D01*
X101892316Y-71856655D01*
X101768345Y-71732684D01*
X101619124Y-71640643D01*
X101619119Y-71640641D01*
X101452697Y-71585494D01*
X101452690Y-71585493D01*
X101349986Y-71575000D01*
X101212500Y-71575000D01*
X101212500Y-72926000D01*
X101192815Y-72993039D01*
X101140011Y-73038794D01*
X101088500Y-73050000D01*
X100836500Y-73050000D01*
X100769461Y-73030315D01*
X100723706Y-72977511D01*
X100712500Y-72926000D01*
X100712500Y-71575000D01*
X100575027Y-71575000D01*
X100575007Y-71575002D01*
X100508993Y-71581745D01*
X100440301Y-71568975D01*
X100389417Y-71521093D01*
X100381832Y-71505839D01*
X100322689Y-71363054D01*
X100322687Y-71363051D01*
X100195172Y-71154966D01*
X100195171Y-71154963D01*
X100085334Y-71026361D01*
X100036669Y-70969381D01*
X99913973Y-70864589D01*
X99851086Y-70810878D01*
X99851083Y-70810877D01*
X99642999Y-70683362D01*
X99417528Y-70589970D01*
X99417531Y-70589970D01*
X99307768Y-70563618D01*
X99180212Y-70532994D01*
X99180210Y-70532993D01*
X99180207Y-70532993D01*
X98964853Y-70516045D01*
X98936910Y-70513846D01*
X98936909Y-70513846D01*
X98745928Y-70528876D01*
X98677551Y-70514511D01*
X98627795Y-70465460D01*
X98612456Y-70397295D01*
X98629795Y-70341587D01*
X98721268Y-70188720D01*
X98773972Y-70100642D01*
X98777032Y-70095790D01*
X99240657Y-69397504D01*
X99243935Y-69392809D01*
X99739765Y-68717045D01*
X99743288Y-68712473D01*
X100270243Y-68060696D01*
X100273934Y-68056343D01*
X100830905Y-67429932D01*
X100834817Y-67425736D01*
X101420491Y-66826168D01*
X101424594Y-66822159D01*
X102037759Y-66250672D01*
X102042029Y-66246876D01*
X102681297Y-65704766D01*
X102685757Y-65701160D01*
X103349721Y-65189619D01*
X103354350Y-65186223D01*
X104041560Y-64706365D01*
X104046330Y-64703197D01*
X104755306Y-64256060D01*
X104760214Y-64253124D01*
X105489327Y-63839734D01*
X105494420Y-63837002D01*
X106242095Y-63458248D01*
X106247306Y-63455760D01*
X107011889Y-63112478D01*
X107017217Y-63110234D01*
X107797104Y-62803146D01*
X107802504Y-62801165D01*
X108595889Y-62530983D01*
X108601392Y-62529251D01*
X109406576Y-62296551D01*
X109412159Y-62295078D01*
X110227378Y-62100372D01*
X110233037Y-62099160D01*
X111056434Y-61942889D01*
X111062154Y-61941942D01*
X111892017Y-61824429D01*
X111897727Y-61823757D01*
X112732162Y-61745274D01*
X112737955Y-61744866D01*
X113575147Y-61705583D01*
X113580959Y-61705447D01*
X114419041Y-61705447D01*
X114424853Y-61705583D01*
G37*
%TD.AperFunction*%
%TA.AperFunction,Conductor*%
G36*
X97540690Y-72784969D02*
G01*
X97582520Y-72826448D01*
X97678647Y-72983314D01*
X97678648Y-72983316D01*
X97712429Y-73022868D01*
X97837151Y-73168899D01*
X97941329Y-73257875D01*
X98022733Y-73327401D01*
X98022736Y-73327402D01*
X98230820Y-73454917D01*
X98456291Y-73548309D01*
X98456288Y-73548309D01*
X98456294Y-73548310D01*
X98456298Y-73548312D01*
X98693608Y-73605286D01*
X98936910Y-73624434D01*
X99180212Y-73605286D01*
X99365434Y-73560817D01*
X99435213Y-73564307D01*
X99492031Y-73604971D01*
X99517845Y-73669897D01*
X99504459Y-73738472D01*
X99482060Y-73769072D01*
X99187952Y-74063181D01*
X99126629Y-74096666D01*
X99100271Y-74099500D01*
X98834298Y-74099500D01*
X98797432Y-74102401D01*
X98797426Y-74102402D01*
X98639606Y-74148254D01*
X98639603Y-74148255D01*
X98498137Y-74231917D01*
X98498129Y-74231923D01*
X98381923Y-74348129D01*
X98381917Y-74348137D01*
X98298255Y-74489603D01*
X98298254Y-74489606D01*
X98252402Y-74647426D01*
X98252401Y-74647432D01*
X98249500Y-74684298D01*
X98249500Y-74950269D01*
X98229815Y-75017308D01*
X98213181Y-75037950D01*
X96817052Y-76434078D01*
X96817049Y-76434081D01*
X96775715Y-76495942D01*
X96775716Y-76495943D01*
X96734914Y-76557008D01*
X96678343Y-76693582D01*
X96678340Y-76693592D01*
X96649500Y-76838579D01*
X96649500Y-76838582D01*
X96649500Y-82273918D01*
X96649500Y-82273920D01*
X96649499Y-82273920D01*
X96678340Y-82418907D01*
X96678343Y-82418917D01*
X96734914Y-82555492D01*
X96755750Y-82586675D01*
X96755751Y-82586678D01*
X96817046Y-82678414D01*
X96817052Y-82678421D01*
X97863181Y-83724549D01*
X97896666Y-83785872D01*
X97899500Y-83812230D01*
X97899500Y-84300001D01*
X97899501Y-84300019D01*
X97910000Y-84402796D01*
X97910001Y-84402799D01*
X97965185Y-84569331D01*
X97965187Y-84569336D01*
X97984098Y-84599996D01*
X98045875Y-84700153D01*
X98057289Y-84718657D01*
X98073724Y-84735092D01*
X98107209Y-84796415D01*
X98102225Y-84866107D01*
X98091583Y-84887867D01*
X98065187Y-84930663D01*
X98065186Y-84930665D01*
X98042046Y-85000499D01*
X98010001Y-85097203D01*
X98010001Y-85097204D01*
X98010000Y-85097204D01*
X97999500Y-85199983D01*
X97999500Y-86000001D01*
X97999501Y-86000019D01*
X98010000Y-86102796D01*
X98010001Y-86102799D01*
X98065185Y-86269331D01*
X98065187Y-86269336D01*
X98157289Y-86418657D01*
X98250951Y-86512319D01*
X98284436Y-86573642D01*
X98279452Y-86643334D01*
X98250951Y-86687681D01*
X98157289Y-86781342D01*
X98065187Y-86930663D01*
X98065186Y-86930666D01*
X98010001Y-87097203D01*
X98010001Y-87097204D01*
X98010000Y-87097204D01*
X97999500Y-87199983D01*
X97999500Y-87404362D01*
X97979815Y-87471401D01*
X97927011Y-87517156D01*
X97857853Y-87527100D01*
X97794297Y-87498075D01*
X97763600Y-87457789D01*
X97678708Y-87279989D01*
X97580845Y-87075021D01*
X97578480Y-87069753D01*
X97253213Y-86297325D01*
X97251089Y-86291930D01*
X97241337Y-86265353D01*
X96962388Y-85505114D01*
X96960516Y-85499616D01*
X96938659Y-85430138D01*
X96709018Y-84700152D01*
X96707405Y-84694568D01*
X96674373Y-84569336D01*
X96493652Y-83884178D01*
X96492313Y-83878574D01*
X96316768Y-83059007D01*
X96315693Y-83053340D01*
X96178759Y-82226452D01*
X96177953Y-82220761D01*
X96079924Y-81388343D01*
X96079387Y-81382624D01*
X96020487Y-80546584D01*
X96020215Y-80540781D01*
X96013231Y-80242943D01*
X96000568Y-79702899D01*
X96000568Y-79697093D01*
X96002822Y-79600993D01*
X96020215Y-78859213D01*
X96020488Y-78853411D01*
X96022348Y-78827006D01*
X96079387Y-78017371D01*
X96079924Y-78011660D01*
X96177954Y-77179232D01*
X96178758Y-77173553D01*
X96315694Y-76346652D01*
X96316767Y-76340999D01*
X96492315Y-75521416D01*
X96493649Y-75515831D01*
X96707408Y-74705419D01*
X96709019Y-74699846D01*
X96709408Y-74698610D01*
X96960522Y-73900365D01*
X96962383Y-73894897D01*
X97251100Y-73108040D01*
X97253207Y-73102689D01*
X97362513Y-72843113D01*
X97406671Y-72788969D01*
X97473093Y-72767293D01*
X97540690Y-72784969D01*
G37*
%TD.AperFunction*%
%TA.AperFunction,Conductor*%
G36*
X131388904Y-77453061D02*
G01*
X131388905Y-77453061D01*
X131512741Y-77250980D01*
X131512743Y-77250977D01*
X131576272Y-77097604D01*
X131620113Y-77043200D01*
X131686407Y-77021135D01*
X131754106Y-77038414D01*
X131801717Y-77089551D01*
X131813167Y-77124796D01*
X131821235Y-77173513D01*
X131822050Y-77179270D01*
X131920071Y-78011622D01*
X131920615Y-78017411D01*
X131979511Y-78853411D01*
X131979784Y-78859218D01*
X131985434Y-79100157D01*
X131967326Y-79167640D01*
X131915610Y-79214620D01*
X131846703Y-79226182D01*
X131801428Y-79208045D01*
X131800114Y-79210454D01*
X131792328Y-79206202D01*
X131657482Y-79155908D01*
X131657483Y-79155908D01*
X131597883Y-79149501D01*
X131597881Y-79149500D01*
X131597873Y-79149500D01*
X131597864Y-79149500D01*
X130002129Y-79149500D01*
X130002123Y-79149501D01*
X129942516Y-79155908D01*
X129807671Y-79206202D01*
X129807664Y-79206206D01*
X129692455Y-79292452D01*
X129692452Y-79292455D01*
X129606206Y-79407664D01*
X129606202Y-79407671D01*
X129555908Y-79542517D01*
X129549501Y-79602116D01*
X129549500Y-79602135D01*
X129549500Y-81197870D01*
X129549501Y-81197876D01*
X129556421Y-81262247D01*
X129544014Y-81331006D01*
X129496403Y-81382143D01*
X129433131Y-81399500D01*
X129312230Y-81399500D01*
X129245191Y-81379815D01*
X129224549Y-81363181D01*
X129174319Y-81312951D01*
X129140834Y-81251628D01*
X129138000Y-81225270D01*
X129138000Y-77978109D01*
X129157685Y-77911070D01*
X129210489Y-77865315D01*
X129279647Y-77855371D01*
X129326791Y-77872382D01*
X129421552Y-77930452D01*
X129646952Y-78023816D01*
X129884190Y-78080771D01*
X129884189Y-78080771D01*
X130127410Y-78099912D01*
X130370629Y-78080771D01*
X130607867Y-78023816D01*
X130833271Y-77930451D01*
X131035351Y-77806615D01*
X131035351Y-77806614D01*
X130413166Y-77184429D01*
X130458984Y-77165452D01*
X130573634Y-77088846D01*
X130671136Y-76991344D01*
X130747742Y-76876694D01*
X130766719Y-76830876D01*
X131388904Y-77453061D01*
G37*
%TD.AperFunction*%
%TA.AperFunction,Conductor*%
G36*
X100068834Y-75407547D02*
G01*
X100124767Y-75449419D01*
X100149184Y-75514883D01*
X100149500Y-75523729D01*
X100149500Y-75840701D01*
X100152401Y-75877567D01*
X100152402Y-75877573D01*
X100198254Y-76035393D01*
X100198255Y-76035396D01*
X100281917Y-76176862D01*
X100286702Y-76183031D01*
X100285018Y-76184336D01*
X100313246Y-76236031D01*
X100308262Y-76305723D01*
X100276234Y-76353461D01*
X100250000Y-76377702D01*
X100250000Y-76643184D01*
X100232733Y-76706304D01*
X100198254Y-76764605D01*
X100198254Y-76764606D01*
X100152402Y-76922426D01*
X100152401Y-76922432D01*
X100149500Y-76959298D01*
X100149500Y-77663500D01*
X100129815Y-77730539D01*
X100077011Y-77776294D01*
X100025500Y-77787500D01*
X99974500Y-77787500D01*
X99907461Y-77767815D01*
X99861706Y-77715011D01*
X99850500Y-77663500D01*
X99850500Y-76959313D01*
X99850499Y-76959298D01*
X99847598Y-76922432D01*
X99847597Y-76922426D01*
X99801745Y-76764606D01*
X99801745Y-76764605D01*
X99801744Y-76764604D01*
X99801744Y-76764602D01*
X99767267Y-76706304D01*
X99750000Y-76643184D01*
X99750000Y-76377702D01*
X99723765Y-76353461D01*
X99687887Y-76293507D01*
X99690118Y-76223673D01*
X99714533Y-76183988D01*
X99713298Y-76183031D01*
X99718075Y-76176870D01*
X99718081Y-76176865D01*
X99801744Y-76035398D01*
X99847598Y-75877569D01*
X99850500Y-75840694D01*
X99850500Y-75574729D01*
X99870185Y-75507690D01*
X99886819Y-75487048D01*
X99937819Y-75436048D01*
X99999142Y-75402563D01*
X100068834Y-75407547D01*
G37*
%TD.AperFunction*%
%TA.AperFunction,Conductor*%
G36*
X131287299Y-74745119D02*
G01*
X131317229Y-74798826D01*
X131496702Y-75479255D01*
X131494767Y-75549098D01*
X131455378Y-75606807D01*
X131392741Y-75633340D01*
X130766719Y-76259362D01*
X130747742Y-76213546D01*
X130671136Y-76098896D01*
X130573634Y-76001394D01*
X130458984Y-75924788D01*
X130413166Y-75905809D01*
X131035351Y-75283624D01*
X130873986Y-75184739D01*
X130827111Y-75132927D01*
X130815688Y-75063998D01*
X130843345Y-74999835D01*
X130872930Y-74973939D01*
X130875553Y-74972295D01*
X131013072Y-74863557D01*
X131013075Y-74863555D01*
X131100062Y-74753542D01*
X131157083Y-74713164D01*
X131226882Y-74710024D01*
X131287299Y-74745119D01*
G37*
%TD.AperFunction*%
%TA.AperFunction,Conductor*%
G36*
X118587830Y-62295076D02*
G01*
X118593433Y-62296554D01*
X119398595Y-62529248D01*
X119404122Y-62530987D01*
X120197481Y-62801160D01*
X120202909Y-62803151D01*
X120981530Y-63109740D01*
X120982767Y-63110228D01*
X120988125Y-63112485D01*
X121752675Y-63455752D01*
X121757922Y-63458257D01*
X122505563Y-63836994D01*
X122510686Y-63839742D01*
X123239766Y-64253113D01*
X123244711Y-64256072D01*
X123953649Y-64703185D01*
X123958458Y-64706379D01*
X124553081Y-65121585D01*
X124645620Y-65186202D01*
X124650298Y-65189634D01*
X125086996Y-65526082D01*
X125314211Y-65701136D01*
X125318722Y-65704783D01*
X125957949Y-66246858D01*
X125962260Y-66250691D01*
X126575377Y-66822133D01*
X126579536Y-66826196D01*
X127165165Y-67425719D01*
X127169114Y-67429955D01*
X127726043Y-68056319D01*
X127729781Y-68060727D01*
X128256698Y-68712457D01*
X128260246Y-68717062D01*
X128756038Y-69392774D01*
X128759367Y-69397541D01*
X129222946Y-70095758D01*
X129226047Y-70100675D01*
X129648589Y-70806817D01*
X129666121Y-70874452D01*
X129644303Y-70940828D01*
X129590064Y-70984871D01*
X129545790Y-70994436D01*
X129429064Y-70997832D01*
X129328883Y-71023120D01*
X129328878Y-71023121D01*
X129328877Y-71023122D01*
X128342182Y-71382251D01*
X128249189Y-71427270D01*
X128111569Y-71536087D01*
X128002760Y-71673698D01*
X128002754Y-71673708D01*
X127928610Y-71832711D01*
X127926886Y-71841062D01*
X127894052Y-71902736D01*
X127833086Y-71936868D01*
X127763346Y-71932621D01*
X127731137Y-71915254D01*
X127692331Y-71886204D01*
X127692328Y-71886202D01*
X127557482Y-71835908D01*
X127557483Y-71835908D01*
X127497883Y-71829501D01*
X127497881Y-71829500D01*
X127497873Y-71829500D01*
X127497864Y-71829500D01*
X125702129Y-71829500D01*
X125702123Y-71829501D01*
X125642516Y-71835908D01*
X125507671Y-71886202D01*
X125507664Y-71886206D01*
X125392455Y-71972452D01*
X125392452Y-71972455D01*
X125306206Y-72087664D01*
X125306202Y-72087671D01*
X125255908Y-72222517D01*
X125249501Y-72282116D01*
X125249500Y-72282135D01*
X125249500Y-74077870D01*
X125249501Y-74077876D01*
X125255908Y-74137483D01*
X125306202Y-74272328D01*
X125306206Y-74272335D01*
X125392452Y-74387544D01*
X125392455Y-74387547D01*
X125507664Y-74473793D01*
X125507671Y-74473797D01*
X125548658Y-74489084D01*
X125639598Y-74523002D01*
X125695531Y-74564873D01*
X125719949Y-74630337D01*
X125705098Y-74698610D01*
X125683947Y-74726865D01*
X125561886Y-74848926D01*
X125426400Y-75042420D01*
X125426399Y-75042422D01*
X125326570Y-75256507D01*
X125326566Y-75256516D01*
X125265432Y-75484673D01*
X125265430Y-75484683D01*
X125258085Y-75568636D01*
X125232632Y-75633704D01*
X125176041Y-75674682D01*
X125106278Y-75678559D01*
X125046876Y-75645508D01*
X124554404Y-75153036D01*
X124520919Y-75091713D01*
X124525903Y-75022021D01*
X124554404Y-74977674D01*
X124581809Y-74950269D01*
X124629816Y-74902262D01*
X124725789Y-74749522D01*
X124785368Y-74579255D01*
X124786937Y-74565330D01*
X124805565Y-74400003D01*
X124805565Y-74399996D01*
X124785369Y-74220750D01*
X124785368Y-74220745D01*
X124743958Y-74102402D01*
X124725789Y-74050478D01*
X124629816Y-73897738D01*
X124502262Y-73770184D01*
X124439037Y-73730457D01*
X124349516Y-73674207D01*
X124343247Y-73671188D01*
X124344129Y-73669356D01*
X124308060Y-73646692D01*
X124108421Y-73447052D01*
X124108420Y-73447051D01*
X124108416Y-73447048D01*
X124051180Y-73408805D01*
X124006375Y-73355194D01*
X123996782Y-73292448D01*
X124000500Y-73257873D01*
X124000499Y-72262128D01*
X123994091Y-72202517D01*
X123981073Y-72167616D01*
X123976090Y-72097926D01*
X123981075Y-72080949D01*
X123993597Y-72047375D01*
X123993598Y-72047372D01*
X123999999Y-71987844D01*
X124000000Y-71987827D01*
X124000000Y-71740000D01*
X122624000Y-71740000D01*
X122556961Y-71720315D01*
X122511206Y-71667511D01*
X122500000Y-71616000D01*
X122500000Y-71364000D01*
X122519685Y-71296961D01*
X122572489Y-71251206D01*
X122624000Y-71240000D01*
X123695121Y-71240000D01*
X123742573Y-71249438D01*
X123929458Y-71326849D01*
X124214417Y-71403203D01*
X124506904Y-71441710D01*
X124506911Y-71441710D01*
X124801909Y-71441710D01*
X124801916Y-71441710D01*
X125094403Y-71403203D01*
X125379362Y-71326849D01*
X125651917Y-71213953D01*
X125907404Y-71066448D01*
X126141452Y-70886856D01*
X126350056Y-70678252D01*
X126529648Y-70444204D01*
X126677153Y-70188717D01*
X126790049Y-69916162D01*
X126866403Y-69631203D01*
X126904910Y-69338716D01*
X126904910Y-69043704D01*
X126866403Y-68751217D01*
X126790049Y-68466258D01*
X126677153Y-68193703D01*
X126529648Y-67938216D01*
X126350056Y-67704168D01*
X126350051Y-67704162D01*
X126141457Y-67495568D01*
X126141450Y-67495562D01*
X125907403Y-67315971D01*
X125651920Y-67168468D01*
X125651910Y-67168464D01*
X125379371Y-67055574D01*
X125379364Y-67055572D01*
X125379362Y-67055571D01*
X125094403Y-66979217D01*
X125045523Y-66972781D01*
X124801923Y-66940710D01*
X124801916Y-66940710D01*
X124506904Y-66940710D01*
X124506896Y-66940710D01*
X124228495Y-66977363D01*
X124214417Y-66979217D01*
X123960229Y-67047326D01*
X123929458Y-67055571D01*
X123929448Y-67055574D01*
X123656909Y-67168464D01*
X123656899Y-67168468D01*
X123401416Y-67315971D01*
X123167369Y-67495562D01*
X123167362Y-67495568D01*
X122958768Y-67704162D01*
X122958762Y-67704169D01*
X122779171Y-67938216D01*
X122631668Y-68193699D01*
X122631664Y-68193709D01*
X122518774Y-68466248D01*
X122518771Y-68466258D01*
X122442418Y-68751214D01*
X122442416Y-68751225D01*
X122403910Y-69043696D01*
X122403910Y-69338723D01*
X122435981Y-69582323D01*
X122442417Y-69631203D01*
X122518771Y-69916161D01*
X122518774Y-69916171D01*
X122631664Y-70188710D01*
X122631668Y-70188719D01*
X122727093Y-70354000D01*
X122743566Y-70421900D01*
X122720713Y-70487927D01*
X122665792Y-70531118D01*
X122619706Y-70540000D01*
X121952155Y-70540000D01*
X121892627Y-70546401D01*
X121892620Y-70546403D01*
X121757913Y-70596645D01*
X121757911Y-70596646D01*
X121748810Y-70603460D01*
X121683345Y-70627876D01*
X121615072Y-70613024D01*
X121565667Y-70563618D01*
X121550500Y-70504192D01*
X121550500Y-65526079D01*
X121521659Y-65381092D01*
X121521658Y-65381091D01*
X121521658Y-65381087D01*
X121477095Y-65273503D01*
X121465085Y-65244507D01*
X121465084Y-65244505D01*
X121427240Y-65187867D01*
X121427239Y-65187865D01*
X121427238Y-65187863D01*
X121382953Y-65121585D01*
X121382947Y-65121578D01*
X119396631Y-63135262D01*
X119396624Y-63135256D01*
X119322939Y-63086022D01*
X119322939Y-63086023D01*
X119273701Y-63053123D01*
X119137127Y-62996553D01*
X119137117Y-62996550D01*
X118992130Y-62967710D01*
X118992128Y-62967710D01*
X118728505Y-62967710D01*
X118661466Y-62948025D01*
X118622778Y-62908500D01*
X118558762Y-62804035D01*
X118558761Y-62804033D01*
X118522953Y-62762107D01*
X118400259Y-62618451D01*
X118214679Y-62459951D01*
X118214680Y-62459951D01*
X118214677Y-62459949D01*
X118200484Y-62451252D01*
X118153609Y-62399439D01*
X118142188Y-62330509D01*
X118169845Y-62266347D01*
X118227801Y-62227323D01*
X118294079Y-62224917D01*
X118587830Y-62295076D01*
G37*
%TD.AperFunction*%
%TD*%
M02*
