%TF.GenerationSoftware,KiCad,Pcbnew,8.0.1*%
%TF.CreationDate,2024-04-01T21:43:51+02:00*%
%TF.ProjectId,SenseLoraCAM,53656e73-654c-46f7-9261-43414d2e6b69,rev?*%
%TF.SameCoordinates,Original*%
%TF.FileFunction,Paste,Bot*%
%TF.FilePolarity,Positive*%
%FSLAX46Y46*%
G04 Gerber Fmt 4.6, Leading zero omitted, Abs format (unit mm)*
G04 Created by KiCad (PCBNEW 8.0.1) date 2024-04-01 21:43:51*
%MOMM*%
%LPD*%
G01*
G04 APERTURE LIST*
G04 Aperture macros list*
%AMRoundRect*
0 Rectangle with rounded corners*
0 $1 Rounding radius*
0 $2 $3 $4 $5 $6 $7 $8 $9 X,Y pos of 4 corners*
0 Add a 4 corners polygon primitive as box body*
4,1,4,$2,$3,$4,$5,$6,$7,$8,$9,$2,$3,0*
0 Add four circle primitives for the rounded corners*
1,1,$1+$1,$2,$3*
1,1,$1+$1,$4,$5*
1,1,$1+$1,$6,$7*
1,1,$1+$1,$8,$9*
0 Add four rect primitives between the rounded corners*
20,1,$1+$1,$2,$3,$4,$5,0*
20,1,$1+$1,$4,$5,$6,$7,0*
20,1,$1+$1,$6,$7,$8,$9,0*
20,1,$1+$1,$8,$9,$2,$3,0*%
%AMRotRect*
0 Rectangle, with rotation*
0 The origin of the aperture is its center*
0 $1 length*
0 $2 width*
0 $3 Rotation angle, in degrees counterclockwise*
0 Add horizontal line*
21,1,$1,$2,0,0,$3*%
G04 Aperture macros list end*
%ADD10RotRect,1.350000X4.200000X247.000000*%
%ADD11RoundRect,0.250000X-0.475000X0.337500X-0.475000X-0.337500X0.475000X-0.337500X0.475000X0.337500X0*%
%ADD12RoundRect,0.250000X0.450000X-0.350000X0.450000X0.350000X-0.450000X0.350000X-0.450000X-0.350000X0*%
%ADD13R,1.500000X0.900000*%
%ADD14RoundRect,0.250000X0.350000X0.450000X-0.350000X0.450000X-0.350000X-0.450000X0.350000X-0.450000X0*%
%ADD15R,2.500000X0.350000*%
%ADD16RoundRect,0.200000X0.200000X0.275000X-0.200000X0.275000X-0.200000X-0.275000X0.200000X-0.275000X0*%
%ADD17RoundRect,0.150000X-0.150000X0.587500X-0.150000X-0.587500X0.150000X-0.587500X0.150000X0.587500X0*%
%ADD18RoundRect,0.165000X-0.567158X-0.125625X0.055785X-0.578220X0.567158X0.125625X-0.055785X0.578220X0*%
%ADD19RoundRect,0.180000X-0.586657X-0.092917X0.092917X-0.586657X0.586657X0.092917X-0.092917X0.586657X0*%
%ADD20RoundRect,0.210000X-0.724884X-0.079014X0.148854X-0.713822X0.724884X0.079014X-0.148854X0.713822X0*%
%ADD21RoundRect,0.250000X-0.350000X-0.450000X0.350000X-0.450000X0.350000X0.450000X-0.350000X0.450000X0*%
%ADD22RoundRect,0.237500X0.237500X-0.250000X0.237500X0.250000X-0.237500X0.250000X-0.237500X-0.250000X0*%
%ADD23RoundRect,0.237500X-0.237500X0.250000X-0.237500X-0.250000X0.237500X-0.250000X0.237500X0.250000X0*%
%ADD24RoundRect,0.200000X-0.200000X-0.275000X0.200000X-0.275000X0.200000X0.275000X-0.200000X0.275000X0*%
%ADD25RoundRect,0.150000X0.725000X0.150000X-0.725000X0.150000X-0.725000X-0.150000X0.725000X-0.150000X0*%
G04 APERTURE END LIST*
D10*
%TO.C,AE1*%
X100320022Y-70294942D03*
X98112392Y-75495794D03*
%TD*%
D11*
%TO.C,C3*%
X111600000Y-85762500D03*
X111600000Y-87837500D03*
%TD*%
D12*
%TO.C,R21*%
X120800000Y-71000000D03*
X120800000Y-69000000D03*
%TD*%
D13*
%TO.C,D6*%
X105850000Y-69800000D03*
X105850000Y-66500000D03*
X110750000Y-66500000D03*
X110750000Y-69800000D03*
%TD*%
D14*
%TO.C,R19*%
X118775000Y-87000000D03*
X116775000Y-87000000D03*
%TD*%
D15*
%TO.C,U5*%
X126275000Y-78150000D03*
X126275000Y-78850000D03*
X126275000Y-79550000D03*
X126275000Y-80250000D03*
X126275000Y-80950000D03*
X126275000Y-81650000D03*
X126275000Y-82350000D03*
X126275000Y-83050000D03*
X126275000Y-83750000D03*
X126275000Y-84450000D03*
X126275000Y-85150000D03*
X126275000Y-85850000D03*
%TD*%
D16*
%TO.C,R16*%
X124425000Y-73000000D03*
X122775000Y-73000000D03*
%TD*%
D13*
%TO.C,D2*%
X105850000Y-75650000D03*
X105850000Y-72350000D03*
X110750000Y-72350000D03*
X110750000Y-75650000D03*
%TD*%
D17*
%TO.C,Q1*%
X126137500Y-71375000D03*
X128037500Y-71375000D03*
X127087500Y-73250000D03*
%TD*%
D18*
%TO.C,SW2*%
X121246640Y-65774433D03*
X124563608Y-68184353D03*
D19*
X122065743Y-64391839D03*
D20*
X122537758Y-67485029D03*
D19*
X125625418Y-66978094D03*
%TD*%
D12*
%TO.C,R2*%
X114200000Y-85400000D03*
X114200000Y-83400000D03*
%TD*%
D13*
%TO.C,D7*%
X113400000Y-69800000D03*
X113400000Y-66500000D03*
X118300000Y-66500000D03*
X118300000Y-69800000D03*
%TD*%
D21*
%TO.C,R17*%
X122625000Y-71200000D03*
X124625000Y-71200000D03*
%TD*%
D13*
%TO.C,D1*%
X113300000Y-75650000D03*
X113300000Y-72350000D03*
X118200000Y-72350000D03*
X118200000Y-75650000D03*
%TD*%
D22*
%TO.C,R3*%
X109500000Y-80912500D03*
X109500000Y-79087500D03*
%TD*%
D23*
%TO.C,R7*%
X109500000Y-83287500D03*
X109500000Y-85112500D03*
%TD*%
D24*
%TO.C,R18*%
X118200000Y-79600000D03*
X119850000Y-79600000D03*
%TD*%
D25*
%TO.C,U6*%
X116600000Y-77790000D03*
X116600000Y-79060000D03*
X116600000Y-80330000D03*
X116600000Y-81600000D03*
X111450000Y-81600000D03*
X111450000Y-80330000D03*
X111450000Y-79060000D03*
X111450000Y-77790000D03*
%TD*%
M02*
