%TF.GenerationSoftware,KiCad,Pcbnew,8.0.1*%
%TF.CreationDate,2024-04-01T21:43:51+02:00*%
%TF.ProjectId,SenseLoraCAM,53656e73-654c-46f7-9261-43414d2e6b69,rev?*%
%TF.SameCoordinates,Original*%
%TF.FileFunction,AssemblyDrawing,Bot*%
%FSLAX46Y46*%
G04 Gerber Fmt 4.6, Leading zero omitted, Abs format (unit mm)*
G04 Created by KiCad (PCBNEW 8.0.1) date 2024-04-01 21:43:51*
%MOMM*%
%LPD*%
G01*
G04 APERTURE LIST*
%ADD10C,0.150000*%
%ADD11C,0.080000*%
%ADD12C,0.060000*%
%ADD13C,0.050000*%
%ADD14C,0.075000*%
%ADD15C,0.100000*%
%ADD16C,0.120000*%
G04 APERTURE END LIST*
D10*
X127509524Y-77029580D02*
X127557143Y-77077200D01*
X127557143Y-77077200D02*
X127700000Y-77124819D01*
X127700000Y-77124819D02*
X127795238Y-77124819D01*
X127795238Y-77124819D02*
X127938095Y-77077200D01*
X127938095Y-77077200D02*
X128033333Y-76981961D01*
X128033333Y-76981961D02*
X128080952Y-76886723D01*
X128080952Y-76886723D02*
X128128571Y-76696247D01*
X128128571Y-76696247D02*
X128128571Y-76553390D01*
X128128571Y-76553390D02*
X128080952Y-76362914D01*
X128080952Y-76362914D02*
X128033333Y-76267676D01*
X128033333Y-76267676D02*
X127938095Y-76172438D01*
X127938095Y-76172438D02*
X127795238Y-76124819D01*
X127795238Y-76124819D02*
X127700000Y-76124819D01*
X127700000Y-76124819D02*
X127557143Y-76172438D01*
X127557143Y-76172438D02*
X127509524Y-76220057D01*
X126938095Y-77124819D02*
X127033333Y-77077200D01*
X127033333Y-77077200D02*
X127080952Y-77029580D01*
X127080952Y-77029580D02*
X127128571Y-76934342D01*
X127128571Y-76934342D02*
X127128571Y-76648628D01*
X127128571Y-76648628D02*
X127080952Y-76553390D01*
X127080952Y-76553390D02*
X127033333Y-76505771D01*
X127033333Y-76505771D02*
X126938095Y-76458152D01*
X126938095Y-76458152D02*
X126795238Y-76458152D01*
X126795238Y-76458152D02*
X126700000Y-76505771D01*
X126700000Y-76505771D02*
X126652381Y-76553390D01*
X126652381Y-76553390D02*
X126604762Y-76648628D01*
X126604762Y-76648628D02*
X126604762Y-76934342D01*
X126604762Y-76934342D02*
X126652381Y-77029580D01*
X126652381Y-77029580D02*
X126700000Y-77077200D01*
X126700000Y-77077200D02*
X126795238Y-77124819D01*
X126795238Y-77124819D02*
X126938095Y-77124819D01*
X126176190Y-76458152D02*
X126176190Y-77124819D01*
X126176190Y-76553390D02*
X126128571Y-76505771D01*
X126128571Y-76505771D02*
X126033333Y-76458152D01*
X126033333Y-76458152D02*
X125890476Y-76458152D01*
X125890476Y-76458152D02*
X125795238Y-76505771D01*
X125795238Y-76505771D02*
X125747619Y-76601009D01*
X125747619Y-76601009D02*
X125747619Y-77124819D01*
X125271428Y-76458152D02*
X125271428Y-77124819D01*
X125271428Y-76553390D02*
X125223809Y-76505771D01*
X125223809Y-76505771D02*
X125128571Y-76458152D01*
X125128571Y-76458152D02*
X124985714Y-76458152D01*
X124985714Y-76458152D02*
X124890476Y-76505771D01*
X124890476Y-76505771D02*
X124842857Y-76601009D01*
X124842857Y-76601009D02*
X124842857Y-77124819D01*
X124604762Y-77220057D02*
X123842857Y-77220057D01*
X123414285Y-76124819D02*
X123319047Y-76124819D01*
X123319047Y-76124819D02*
X123223809Y-76172438D01*
X123223809Y-76172438D02*
X123176190Y-76220057D01*
X123176190Y-76220057D02*
X123128571Y-76315295D01*
X123128571Y-76315295D02*
X123080952Y-76505771D01*
X123080952Y-76505771D02*
X123080952Y-76743866D01*
X123080952Y-76743866D02*
X123128571Y-76934342D01*
X123128571Y-76934342D02*
X123176190Y-77029580D01*
X123176190Y-77029580D02*
X123223809Y-77077200D01*
X123223809Y-77077200D02*
X123319047Y-77124819D01*
X123319047Y-77124819D02*
X123414285Y-77124819D01*
X123414285Y-77124819D02*
X123509523Y-77077200D01*
X123509523Y-77077200D02*
X123557142Y-77029580D01*
X123557142Y-77029580D02*
X123604761Y-76934342D01*
X123604761Y-76934342D02*
X123652380Y-76743866D01*
X123652380Y-76743866D02*
X123652380Y-76505771D01*
X123652380Y-76505771D02*
X123604761Y-76315295D01*
X123604761Y-76315295D02*
X123557142Y-76220057D01*
X123557142Y-76220057D02*
X123509523Y-76172438D01*
X123509523Y-76172438D02*
X123414285Y-76124819D01*
X122128571Y-77124819D02*
X122699999Y-77124819D01*
X122414285Y-77124819D02*
X122414285Y-76124819D01*
X122414285Y-76124819D02*
X122509523Y-76267676D01*
X122509523Y-76267676D02*
X122604761Y-76362914D01*
X122604761Y-76362914D02*
X122699999Y-76410533D01*
X121795237Y-77124819D02*
X121271428Y-76458152D01*
X121795237Y-76458152D02*
X121271428Y-77124819D01*
X120699999Y-76124819D02*
X120604761Y-76124819D01*
X120604761Y-76124819D02*
X120509523Y-76172438D01*
X120509523Y-76172438D02*
X120461904Y-76220057D01*
X120461904Y-76220057D02*
X120414285Y-76315295D01*
X120414285Y-76315295D02*
X120366666Y-76505771D01*
X120366666Y-76505771D02*
X120366666Y-76743866D01*
X120366666Y-76743866D02*
X120414285Y-76934342D01*
X120414285Y-76934342D02*
X120461904Y-77029580D01*
X120461904Y-77029580D02*
X120509523Y-77077200D01*
X120509523Y-77077200D02*
X120604761Y-77124819D01*
X120604761Y-77124819D02*
X120699999Y-77124819D01*
X120699999Y-77124819D02*
X120795237Y-77077200D01*
X120795237Y-77077200D02*
X120842856Y-77029580D01*
X120842856Y-77029580D02*
X120890475Y-76934342D01*
X120890475Y-76934342D02*
X120938094Y-76743866D01*
X120938094Y-76743866D02*
X120938094Y-76505771D01*
X120938094Y-76505771D02*
X120890475Y-76315295D01*
X120890475Y-76315295D02*
X120842856Y-76220057D01*
X120842856Y-76220057D02*
X120795237Y-76172438D01*
X120795237Y-76172438D02*
X120699999Y-76124819D01*
X120033332Y-76124819D02*
X119366666Y-76124819D01*
X119366666Y-76124819D02*
X119795237Y-77124819D01*
X119223809Y-77220057D02*
X118461904Y-77220057D01*
X118223808Y-77124819D02*
X118223808Y-76124819D01*
X118223808Y-76124819D02*
X117842856Y-76124819D01*
X117842856Y-76124819D02*
X117747618Y-76172438D01*
X117747618Y-76172438D02*
X117699999Y-76220057D01*
X117699999Y-76220057D02*
X117652380Y-76315295D01*
X117652380Y-76315295D02*
X117652380Y-76458152D01*
X117652380Y-76458152D02*
X117699999Y-76553390D01*
X117699999Y-76553390D02*
X117747618Y-76601009D01*
X117747618Y-76601009D02*
X117842856Y-76648628D01*
X117842856Y-76648628D02*
X118223808Y-76648628D01*
X117223808Y-77124819D02*
X117223808Y-76458152D01*
X117223808Y-76124819D02*
X117271427Y-76172438D01*
X117271427Y-76172438D02*
X117223808Y-76220057D01*
X117223808Y-76220057D02*
X117176189Y-76172438D01*
X117176189Y-76172438D02*
X117223808Y-76124819D01*
X117223808Y-76124819D02*
X117223808Y-76220057D01*
X116747618Y-76458152D02*
X116747618Y-77124819D01*
X116747618Y-76553390D02*
X116699999Y-76505771D01*
X116699999Y-76505771D02*
X116604761Y-76458152D01*
X116604761Y-76458152D02*
X116461904Y-76458152D01*
X116461904Y-76458152D02*
X116366666Y-76505771D01*
X116366666Y-76505771D02*
X116319047Y-76601009D01*
X116319047Y-76601009D02*
X116319047Y-77124819D01*
X121654819Y-86286666D02*
X122369104Y-86286666D01*
X122369104Y-86286666D02*
X122511961Y-86239047D01*
X122511961Y-86239047D02*
X122607200Y-86143809D01*
X122607200Y-86143809D02*
X122654819Y-86000952D01*
X122654819Y-86000952D02*
X122654819Y-85905714D01*
X121654819Y-86667619D02*
X121654819Y-87286666D01*
X121654819Y-87286666D02*
X122035771Y-86953333D01*
X122035771Y-86953333D02*
X122035771Y-87096190D01*
X122035771Y-87096190D02*
X122083390Y-87191428D01*
X122083390Y-87191428D02*
X122131009Y-87239047D01*
X122131009Y-87239047D02*
X122226247Y-87286666D01*
X122226247Y-87286666D02*
X122464342Y-87286666D01*
X122464342Y-87286666D02*
X122559580Y-87239047D01*
X122559580Y-87239047D02*
X122607200Y-87191428D01*
X122607200Y-87191428D02*
X122654819Y-87096190D01*
X122654819Y-87096190D02*
X122654819Y-86810476D01*
X122654819Y-86810476D02*
X122607200Y-86715238D01*
X122607200Y-86715238D02*
X122559580Y-86667619D01*
X113734819Y-85252380D02*
X113734819Y-84680952D01*
X113734819Y-84966666D02*
X112734819Y-84966666D01*
X112734819Y-84966666D02*
X112877676Y-84871428D01*
X112877676Y-84871428D02*
X112972914Y-84776190D01*
X112972914Y-84776190D02*
X113020533Y-84680952D01*
X112734819Y-85871428D02*
X112734819Y-85966666D01*
X112734819Y-85966666D02*
X112782438Y-86061904D01*
X112782438Y-86061904D02*
X112830057Y-86109523D01*
X112830057Y-86109523D02*
X112925295Y-86157142D01*
X112925295Y-86157142D02*
X113115771Y-86204761D01*
X113115771Y-86204761D02*
X113353866Y-86204761D01*
X113353866Y-86204761D02*
X113544342Y-86157142D01*
X113544342Y-86157142D02*
X113639580Y-86109523D01*
X113639580Y-86109523D02*
X113687200Y-86061904D01*
X113687200Y-86061904D02*
X113734819Y-85966666D01*
X113734819Y-85966666D02*
X113734819Y-85871428D01*
X113734819Y-85871428D02*
X113687200Y-85776190D01*
X113687200Y-85776190D02*
X113639580Y-85728571D01*
X113639580Y-85728571D02*
X113544342Y-85680952D01*
X113544342Y-85680952D02*
X113353866Y-85633333D01*
X113353866Y-85633333D02*
X113115771Y-85633333D01*
X113115771Y-85633333D02*
X112925295Y-85680952D01*
X112925295Y-85680952D02*
X112830057Y-85728571D01*
X112830057Y-85728571D02*
X112782438Y-85776190D01*
X112782438Y-85776190D02*
X112734819Y-85871428D01*
X112734819Y-86823809D02*
X112734819Y-86919047D01*
X112734819Y-86919047D02*
X112782438Y-87014285D01*
X112782438Y-87014285D02*
X112830057Y-87061904D01*
X112830057Y-87061904D02*
X112925295Y-87109523D01*
X112925295Y-87109523D02*
X113115771Y-87157142D01*
X113115771Y-87157142D02*
X113353866Y-87157142D01*
X113353866Y-87157142D02*
X113544342Y-87109523D01*
X113544342Y-87109523D02*
X113639580Y-87061904D01*
X113639580Y-87061904D02*
X113687200Y-87014285D01*
X113687200Y-87014285D02*
X113734819Y-86919047D01*
X113734819Y-86919047D02*
X113734819Y-86823809D01*
X113734819Y-86823809D02*
X113687200Y-86728571D01*
X113687200Y-86728571D02*
X113639580Y-86680952D01*
X113639580Y-86680952D02*
X113544342Y-86633333D01*
X113544342Y-86633333D02*
X113353866Y-86585714D01*
X113353866Y-86585714D02*
X113115771Y-86585714D01*
X113115771Y-86585714D02*
X112925295Y-86633333D01*
X112925295Y-86633333D02*
X112830057Y-86680952D01*
X112830057Y-86680952D02*
X112782438Y-86728571D01*
X112782438Y-86728571D02*
X112734819Y-86823809D01*
X113068152Y-87585714D02*
X113734819Y-87585714D01*
X113163390Y-87585714D02*
X113115771Y-87633333D01*
X113115771Y-87633333D02*
X113068152Y-87728571D01*
X113068152Y-87728571D02*
X113068152Y-87871428D01*
X113068152Y-87871428D02*
X113115771Y-87966666D01*
X113115771Y-87966666D02*
X113211009Y-88014285D01*
X113211009Y-88014285D02*
X113734819Y-88014285D01*
X113211009Y-88823809D02*
X113211009Y-88490476D01*
X113734819Y-88490476D02*
X112734819Y-88490476D01*
X112734819Y-88490476D02*
X112734819Y-88966666D01*
D11*
X111779530Y-86716666D02*
X111803340Y-86692857D01*
X111803340Y-86692857D02*
X111827149Y-86621428D01*
X111827149Y-86621428D02*
X111827149Y-86573809D01*
X111827149Y-86573809D02*
X111803340Y-86502381D01*
X111803340Y-86502381D02*
X111755720Y-86454762D01*
X111755720Y-86454762D02*
X111708101Y-86430952D01*
X111708101Y-86430952D02*
X111612863Y-86407143D01*
X111612863Y-86407143D02*
X111541435Y-86407143D01*
X111541435Y-86407143D02*
X111446197Y-86430952D01*
X111446197Y-86430952D02*
X111398578Y-86454762D01*
X111398578Y-86454762D02*
X111350959Y-86502381D01*
X111350959Y-86502381D02*
X111327149Y-86573809D01*
X111327149Y-86573809D02*
X111327149Y-86621428D01*
X111327149Y-86621428D02*
X111350959Y-86692857D01*
X111350959Y-86692857D02*
X111374768Y-86716666D01*
X111327149Y-86883333D02*
X111327149Y-87192857D01*
X111327149Y-87192857D02*
X111517625Y-87026190D01*
X111517625Y-87026190D02*
X111517625Y-87097619D01*
X111517625Y-87097619D02*
X111541435Y-87145238D01*
X111541435Y-87145238D02*
X111565244Y-87169047D01*
X111565244Y-87169047D02*
X111612863Y-87192857D01*
X111612863Y-87192857D02*
X111731911Y-87192857D01*
X111731911Y-87192857D02*
X111779530Y-87169047D01*
X111779530Y-87169047D02*
X111803340Y-87145238D01*
X111803340Y-87145238D02*
X111827149Y-87097619D01*
X111827149Y-87097619D02*
X111827149Y-86954762D01*
X111827149Y-86954762D02*
X111803340Y-86907143D01*
X111803340Y-86907143D02*
X111779530Y-86883333D01*
D10*
X119604819Y-68833333D02*
X119604819Y-68261905D01*
X119604819Y-68547619D02*
X118604819Y-68547619D01*
X118604819Y-68547619D02*
X118747676Y-68452381D01*
X118747676Y-68452381D02*
X118842914Y-68357143D01*
X118842914Y-68357143D02*
X118890533Y-68261905D01*
X118604819Y-69452381D02*
X118604819Y-69547619D01*
X118604819Y-69547619D02*
X118652438Y-69642857D01*
X118652438Y-69642857D02*
X118700057Y-69690476D01*
X118700057Y-69690476D02*
X118795295Y-69738095D01*
X118795295Y-69738095D02*
X118985771Y-69785714D01*
X118985771Y-69785714D02*
X119223866Y-69785714D01*
X119223866Y-69785714D02*
X119414342Y-69738095D01*
X119414342Y-69738095D02*
X119509580Y-69690476D01*
X119509580Y-69690476D02*
X119557200Y-69642857D01*
X119557200Y-69642857D02*
X119604819Y-69547619D01*
X119604819Y-69547619D02*
X119604819Y-69452381D01*
X119604819Y-69452381D02*
X119557200Y-69357143D01*
X119557200Y-69357143D02*
X119509580Y-69309524D01*
X119509580Y-69309524D02*
X119414342Y-69261905D01*
X119414342Y-69261905D02*
X119223866Y-69214286D01*
X119223866Y-69214286D02*
X118985771Y-69214286D01*
X118985771Y-69214286D02*
X118795295Y-69261905D01*
X118795295Y-69261905D02*
X118700057Y-69309524D01*
X118700057Y-69309524D02*
X118652438Y-69357143D01*
X118652438Y-69357143D02*
X118604819Y-69452381D01*
X118604819Y-70404762D02*
X118604819Y-70500000D01*
X118604819Y-70500000D02*
X118652438Y-70595238D01*
X118652438Y-70595238D02*
X118700057Y-70642857D01*
X118700057Y-70642857D02*
X118795295Y-70690476D01*
X118795295Y-70690476D02*
X118985771Y-70738095D01*
X118985771Y-70738095D02*
X119223866Y-70738095D01*
X119223866Y-70738095D02*
X119414342Y-70690476D01*
X119414342Y-70690476D02*
X119509580Y-70642857D01*
X119509580Y-70642857D02*
X119557200Y-70595238D01*
X119557200Y-70595238D02*
X119604819Y-70500000D01*
X119604819Y-70500000D02*
X119604819Y-70404762D01*
X119604819Y-70404762D02*
X119557200Y-70309524D01*
X119557200Y-70309524D02*
X119509580Y-70261905D01*
X119509580Y-70261905D02*
X119414342Y-70214286D01*
X119414342Y-70214286D02*
X119223866Y-70166667D01*
X119223866Y-70166667D02*
X118985771Y-70166667D01*
X118985771Y-70166667D02*
X118795295Y-70214286D01*
X118795295Y-70214286D02*
X118700057Y-70261905D01*
X118700057Y-70261905D02*
X118652438Y-70309524D01*
X118652438Y-70309524D02*
X118604819Y-70404762D01*
X119604819Y-71166667D02*
X118604819Y-71166667D01*
X119604819Y-71738095D02*
X119033390Y-71309524D01*
X118604819Y-71738095D02*
X119176247Y-71166667D01*
D11*
X121121428Y-70227149D02*
X121288094Y-69989054D01*
X121407142Y-70227149D02*
X121407142Y-69727149D01*
X121407142Y-69727149D02*
X121216666Y-69727149D01*
X121216666Y-69727149D02*
X121169047Y-69750959D01*
X121169047Y-69750959D02*
X121145237Y-69774768D01*
X121145237Y-69774768D02*
X121121428Y-69822387D01*
X121121428Y-69822387D02*
X121121428Y-69893816D01*
X121121428Y-69893816D02*
X121145237Y-69941435D01*
X121145237Y-69941435D02*
X121169047Y-69965244D01*
X121169047Y-69965244D02*
X121216666Y-69989054D01*
X121216666Y-69989054D02*
X121407142Y-69989054D01*
X120930951Y-69774768D02*
X120907142Y-69750959D01*
X120907142Y-69750959D02*
X120859523Y-69727149D01*
X120859523Y-69727149D02*
X120740475Y-69727149D01*
X120740475Y-69727149D02*
X120692856Y-69750959D01*
X120692856Y-69750959D02*
X120669047Y-69774768D01*
X120669047Y-69774768D02*
X120645237Y-69822387D01*
X120645237Y-69822387D02*
X120645237Y-69870006D01*
X120645237Y-69870006D02*
X120669047Y-69941435D01*
X120669047Y-69941435D02*
X120954761Y-70227149D01*
X120954761Y-70227149D02*
X120645237Y-70227149D01*
X120169047Y-70227149D02*
X120454761Y-70227149D01*
X120311904Y-70227149D02*
X120311904Y-69727149D01*
X120311904Y-69727149D02*
X120359523Y-69798578D01*
X120359523Y-69798578D02*
X120407142Y-69846197D01*
X120407142Y-69846197D02*
X120454761Y-69870006D01*
D10*
X111609523Y-63604819D02*
X111371428Y-64604819D01*
X111371428Y-64604819D02*
X111180952Y-63890533D01*
X111180952Y-63890533D02*
X110990476Y-64604819D01*
X110990476Y-64604819D02*
X110752381Y-63604819D01*
X110419047Y-64557200D02*
X110276190Y-64604819D01*
X110276190Y-64604819D02*
X110038095Y-64604819D01*
X110038095Y-64604819D02*
X109942857Y-64557200D01*
X109942857Y-64557200D02*
X109895238Y-64509580D01*
X109895238Y-64509580D02*
X109847619Y-64414342D01*
X109847619Y-64414342D02*
X109847619Y-64319104D01*
X109847619Y-64319104D02*
X109895238Y-64223866D01*
X109895238Y-64223866D02*
X109942857Y-64176247D01*
X109942857Y-64176247D02*
X110038095Y-64128628D01*
X110038095Y-64128628D02*
X110228571Y-64081009D01*
X110228571Y-64081009D02*
X110323809Y-64033390D01*
X110323809Y-64033390D02*
X110371428Y-63985771D01*
X110371428Y-63985771D02*
X110419047Y-63890533D01*
X110419047Y-63890533D02*
X110419047Y-63795295D01*
X110419047Y-63795295D02*
X110371428Y-63700057D01*
X110371428Y-63700057D02*
X110323809Y-63652438D01*
X110323809Y-63652438D02*
X110228571Y-63604819D01*
X110228571Y-63604819D02*
X109990476Y-63604819D01*
X109990476Y-63604819D02*
X109847619Y-63652438D01*
X109466666Y-63700057D02*
X109419047Y-63652438D01*
X109419047Y-63652438D02*
X109323809Y-63604819D01*
X109323809Y-63604819D02*
X109085714Y-63604819D01*
X109085714Y-63604819D02*
X108990476Y-63652438D01*
X108990476Y-63652438D02*
X108942857Y-63700057D01*
X108942857Y-63700057D02*
X108895238Y-63795295D01*
X108895238Y-63795295D02*
X108895238Y-63890533D01*
X108895238Y-63890533D02*
X108942857Y-64033390D01*
X108942857Y-64033390D02*
X109514285Y-64604819D01*
X109514285Y-64604819D02*
X108895238Y-64604819D01*
X108323809Y-64033390D02*
X108419047Y-63985771D01*
X108419047Y-63985771D02*
X108466666Y-63938152D01*
X108466666Y-63938152D02*
X108514285Y-63842914D01*
X108514285Y-63842914D02*
X108514285Y-63795295D01*
X108514285Y-63795295D02*
X108466666Y-63700057D01*
X108466666Y-63700057D02*
X108419047Y-63652438D01*
X108419047Y-63652438D02*
X108323809Y-63604819D01*
X108323809Y-63604819D02*
X108133333Y-63604819D01*
X108133333Y-63604819D02*
X108038095Y-63652438D01*
X108038095Y-63652438D02*
X107990476Y-63700057D01*
X107990476Y-63700057D02*
X107942857Y-63795295D01*
X107942857Y-63795295D02*
X107942857Y-63842914D01*
X107942857Y-63842914D02*
X107990476Y-63938152D01*
X107990476Y-63938152D02*
X108038095Y-63985771D01*
X108038095Y-63985771D02*
X108133333Y-64033390D01*
X108133333Y-64033390D02*
X108323809Y-64033390D01*
X108323809Y-64033390D02*
X108419047Y-64081009D01*
X108419047Y-64081009D02*
X108466666Y-64128628D01*
X108466666Y-64128628D02*
X108514285Y-64223866D01*
X108514285Y-64223866D02*
X108514285Y-64414342D01*
X108514285Y-64414342D02*
X108466666Y-64509580D01*
X108466666Y-64509580D02*
X108419047Y-64557200D01*
X108419047Y-64557200D02*
X108323809Y-64604819D01*
X108323809Y-64604819D02*
X108133333Y-64604819D01*
X108133333Y-64604819D02*
X108038095Y-64557200D01*
X108038095Y-64557200D02*
X107990476Y-64509580D01*
X107990476Y-64509580D02*
X107942857Y-64414342D01*
X107942857Y-64414342D02*
X107942857Y-64223866D01*
X107942857Y-64223866D02*
X107990476Y-64128628D01*
X107990476Y-64128628D02*
X108038095Y-64081009D01*
X108038095Y-64081009D02*
X108133333Y-64033390D01*
X106990476Y-64604819D02*
X107561904Y-64604819D01*
X107276190Y-64604819D02*
X107276190Y-63604819D01*
X107276190Y-63604819D02*
X107371428Y-63747676D01*
X107371428Y-63747676D02*
X107466666Y-63842914D01*
X107466666Y-63842914D02*
X107561904Y-63890533D01*
X106609523Y-63700057D02*
X106561904Y-63652438D01*
X106561904Y-63652438D02*
X106466666Y-63604819D01*
X106466666Y-63604819D02*
X106228571Y-63604819D01*
X106228571Y-63604819D02*
X106133333Y-63652438D01*
X106133333Y-63652438D02*
X106085714Y-63700057D01*
X106085714Y-63700057D02*
X106038095Y-63795295D01*
X106038095Y-63795295D02*
X106038095Y-63890533D01*
X106038095Y-63890533D02*
X106085714Y-64033390D01*
X106085714Y-64033390D02*
X106657142Y-64604819D01*
X106657142Y-64604819D02*
X106038095Y-64604819D01*
X105276190Y-64081009D02*
X105133333Y-64128628D01*
X105133333Y-64128628D02*
X105085714Y-64176247D01*
X105085714Y-64176247D02*
X105038095Y-64271485D01*
X105038095Y-64271485D02*
X105038095Y-64414342D01*
X105038095Y-64414342D02*
X105085714Y-64509580D01*
X105085714Y-64509580D02*
X105133333Y-64557200D01*
X105133333Y-64557200D02*
X105228571Y-64604819D01*
X105228571Y-64604819D02*
X105609523Y-64604819D01*
X105609523Y-64604819D02*
X105609523Y-63604819D01*
X105609523Y-63604819D02*
X105276190Y-63604819D01*
X105276190Y-63604819D02*
X105180952Y-63652438D01*
X105180952Y-63652438D02*
X105133333Y-63700057D01*
X105133333Y-63700057D02*
X105085714Y-63795295D01*
X105085714Y-63795295D02*
X105085714Y-63890533D01*
X105085714Y-63890533D02*
X105133333Y-63985771D01*
X105133333Y-63985771D02*
X105180952Y-64033390D01*
X105180952Y-64033390D02*
X105276190Y-64081009D01*
X105276190Y-64081009D02*
X105609523Y-64081009D01*
X108890475Y-68512295D02*
X108890475Y-67712295D01*
X108890475Y-67712295D02*
X108699999Y-67712295D01*
X108699999Y-67712295D02*
X108585713Y-67750390D01*
X108585713Y-67750390D02*
X108509523Y-67826580D01*
X108509523Y-67826580D02*
X108471428Y-67902771D01*
X108471428Y-67902771D02*
X108433332Y-68055152D01*
X108433332Y-68055152D02*
X108433332Y-68169438D01*
X108433332Y-68169438D02*
X108471428Y-68321819D01*
X108471428Y-68321819D02*
X108509523Y-68398009D01*
X108509523Y-68398009D02*
X108585713Y-68474200D01*
X108585713Y-68474200D02*
X108699999Y-68512295D01*
X108699999Y-68512295D02*
X108890475Y-68512295D01*
X107747618Y-67712295D02*
X107899999Y-67712295D01*
X107899999Y-67712295D02*
X107976190Y-67750390D01*
X107976190Y-67750390D02*
X108014285Y-67788485D01*
X108014285Y-67788485D02*
X108090475Y-67902771D01*
X108090475Y-67902771D02*
X108128571Y-68055152D01*
X108128571Y-68055152D02*
X108128571Y-68359914D01*
X108128571Y-68359914D02*
X108090475Y-68436104D01*
X108090475Y-68436104D02*
X108052380Y-68474200D01*
X108052380Y-68474200D02*
X107976190Y-68512295D01*
X107976190Y-68512295D02*
X107823809Y-68512295D01*
X107823809Y-68512295D02*
X107747618Y-68474200D01*
X107747618Y-68474200D02*
X107709523Y-68436104D01*
X107709523Y-68436104D02*
X107671428Y-68359914D01*
X107671428Y-68359914D02*
X107671428Y-68169438D01*
X107671428Y-68169438D02*
X107709523Y-68093247D01*
X107709523Y-68093247D02*
X107747618Y-68055152D01*
X107747618Y-68055152D02*
X107823809Y-68017057D01*
X107823809Y-68017057D02*
X107976190Y-68017057D01*
X107976190Y-68017057D02*
X108052380Y-68055152D01*
X108052380Y-68055152D02*
X108090475Y-68093247D01*
X108090475Y-68093247D02*
X108128571Y-68169438D01*
X118322618Y-88104819D02*
X118227380Y-88104819D01*
X118227380Y-88104819D02*
X118132142Y-88152438D01*
X118132142Y-88152438D02*
X118084523Y-88200057D01*
X118084523Y-88200057D02*
X118036904Y-88295295D01*
X118036904Y-88295295D02*
X117989285Y-88485771D01*
X117989285Y-88485771D02*
X117989285Y-88723866D01*
X117989285Y-88723866D02*
X118036904Y-88914342D01*
X118036904Y-88914342D02*
X118084523Y-89009580D01*
X118084523Y-89009580D02*
X118132142Y-89057200D01*
X118132142Y-89057200D02*
X118227380Y-89104819D01*
X118227380Y-89104819D02*
X118322618Y-89104819D01*
X118322618Y-89104819D02*
X118417856Y-89057200D01*
X118417856Y-89057200D02*
X118465475Y-89009580D01*
X118465475Y-89009580D02*
X118513094Y-88914342D01*
X118513094Y-88914342D02*
X118560713Y-88723866D01*
X118560713Y-88723866D02*
X118560713Y-88485771D01*
X118560713Y-88485771D02*
X118513094Y-88295295D01*
X118513094Y-88295295D02*
X118465475Y-88200057D01*
X118465475Y-88200057D02*
X118417856Y-88152438D01*
X118417856Y-88152438D02*
X118322618Y-88104819D01*
X116989285Y-89104819D02*
X117322618Y-88628628D01*
X117560713Y-89104819D02*
X117560713Y-88104819D01*
X117560713Y-88104819D02*
X117179761Y-88104819D01*
X117179761Y-88104819D02*
X117084523Y-88152438D01*
X117084523Y-88152438D02*
X117036904Y-88200057D01*
X117036904Y-88200057D02*
X116989285Y-88295295D01*
X116989285Y-88295295D02*
X116989285Y-88438152D01*
X116989285Y-88438152D02*
X117036904Y-88533390D01*
X117036904Y-88533390D02*
X117084523Y-88581009D01*
X117084523Y-88581009D02*
X117179761Y-88628628D01*
X117179761Y-88628628D02*
X117560713Y-88628628D01*
D11*
X118096428Y-87227149D02*
X118263094Y-86989054D01*
X118382142Y-87227149D02*
X118382142Y-86727149D01*
X118382142Y-86727149D02*
X118191666Y-86727149D01*
X118191666Y-86727149D02*
X118144047Y-86750959D01*
X118144047Y-86750959D02*
X118120237Y-86774768D01*
X118120237Y-86774768D02*
X118096428Y-86822387D01*
X118096428Y-86822387D02*
X118096428Y-86893816D01*
X118096428Y-86893816D02*
X118120237Y-86941435D01*
X118120237Y-86941435D02*
X118144047Y-86965244D01*
X118144047Y-86965244D02*
X118191666Y-86989054D01*
X118191666Y-86989054D02*
X118382142Y-86989054D01*
X117620237Y-87227149D02*
X117905951Y-87227149D01*
X117763094Y-87227149D02*
X117763094Y-86727149D01*
X117763094Y-86727149D02*
X117810713Y-86798578D01*
X117810713Y-86798578D02*
X117858332Y-86846197D01*
X117858332Y-86846197D02*
X117905951Y-86870006D01*
X117382142Y-87227149D02*
X117286904Y-87227149D01*
X117286904Y-87227149D02*
X117239285Y-87203340D01*
X117239285Y-87203340D02*
X117215476Y-87179530D01*
X117215476Y-87179530D02*
X117167857Y-87108101D01*
X117167857Y-87108101D02*
X117144047Y-87012863D01*
X117144047Y-87012863D02*
X117144047Y-86822387D01*
X117144047Y-86822387D02*
X117167857Y-86774768D01*
X117167857Y-86774768D02*
X117191666Y-86750959D01*
X117191666Y-86750959D02*
X117239285Y-86727149D01*
X117239285Y-86727149D02*
X117334523Y-86727149D01*
X117334523Y-86727149D02*
X117382142Y-86750959D01*
X117382142Y-86750959D02*
X117405952Y-86774768D01*
X117405952Y-86774768D02*
X117429761Y-86822387D01*
X117429761Y-86822387D02*
X117429761Y-86941435D01*
X117429761Y-86941435D02*
X117405952Y-86989054D01*
X117405952Y-86989054D02*
X117382142Y-87012863D01*
X117382142Y-87012863D02*
X117334523Y-87036673D01*
X117334523Y-87036673D02*
X117239285Y-87036673D01*
X117239285Y-87036673D02*
X117191666Y-87012863D01*
X117191666Y-87012863D02*
X117167857Y-86989054D01*
X117167857Y-86989054D02*
X117144047Y-86941435D01*
D10*
X137727438Y-75285713D02*
X137679819Y-75190475D01*
X137679819Y-75190475D02*
X137679819Y-75047618D01*
X137679819Y-75047618D02*
X137727438Y-74904761D01*
X137727438Y-74904761D02*
X137822676Y-74809523D01*
X137822676Y-74809523D02*
X137917914Y-74761904D01*
X137917914Y-74761904D02*
X138108390Y-74714285D01*
X138108390Y-74714285D02*
X138251247Y-74714285D01*
X138251247Y-74714285D02*
X138441723Y-74761904D01*
X138441723Y-74761904D02*
X138536961Y-74809523D01*
X138536961Y-74809523D02*
X138632200Y-74904761D01*
X138632200Y-74904761D02*
X138679819Y-75047618D01*
X138679819Y-75047618D02*
X138679819Y-75142856D01*
X138679819Y-75142856D02*
X138632200Y-75285713D01*
X138632200Y-75285713D02*
X138584580Y-75333332D01*
X138584580Y-75333332D02*
X138251247Y-75333332D01*
X138251247Y-75333332D02*
X138251247Y-75142856D01*
X138584580Y-76333332D02*
X138632200Y-76285713D01*
X138632200Y-76285713D02*
X138679819Y-76142856D01*
X138679819Y-76142856D02*
X138679819Y-76047618D01*
X138679819Y-76047618D02*
X138632200Y-75904761D01*
X138632200Y-75904761D02*
X138536961Y-75809523D01*
X138536961Y-75809523D02*
X138441723Y-75761904D01*
X138441723Y-75761904D02*
X138251247Y-75714285D01*
X138251247Y-75714285D02*
X138108390Y-75714285D01*
X138108390Y-75714285D02*
X137917914Y-75761904D01*
X137917914Y-75761904D02*
X137822676Y-75809523D01*
X137822676Y-75809523D02*
X137727438Y-75904761D01*
X137727438Y-75904761D02*
X137679819Y-76047618D01*
X137679819Y-76047618D02*
X137679819Y-76142856D01*
X137679819Y-76142856D02*
X137727438Y-76285713D01*
X137727438Y-76285713D02*
X137775057Y-76333332D01*
X138679819Y-76809523D02*
X138679819Y-76999999D01*
X138679819Y-76999999D02*
X138632200Y-77095237D01*
X138632200Y-77095237D02*
X138584580Y-77142856D01*
X138584580Y-77142856D02*
X138441723Y-77238094D01*
X138441723Y-77238094D02*
X138251247Y-77285713D01*
X138251247Y-77285713D02*
X137870295Y-77285713D01*
X137870295Y-77285713D02*
X137775057Y-77238094D01*
X137775057Y-77238094D02*
X137727438Y-77190475D01*
X137727438Y-77190475D02*
X137679819Y-77095237D01*
X137679819Y-77095237D02*
X137679819Y-76904761D01*
X137679819Y-76904761D02*
X137727438Y-76809523D01*
X137727438Y-76809523D02*
X137775057Y-76761904D01*
X137775057Y-76761904D02*
X137870295Y-76714285D01*
X137870295Y-76714285D02*
X138108390Y-76714285D01*
X138108390Y-76714285D02*
X138203628Y-76761904D01*
X138203628Y-76761904D02*
X138251247Y-76809523D01*
X138251247Y-76809523D02*
X138298866Y-76904761D01*
X138298866Y-76904761D02*
X138298866Y-77095237D01*
X138298866Y-77095237D02*
X138251247Y-77190475D01*
X138251247Y-77190475D02*
X138203628Y-77238094D01*
X138203628Y-77238094D02*
X138108390Y-77285713D01*
X138394104Y-77666666D02*
X138394104Y-78142856D01*
X138679819Y-77571428D02*
X137679819Y-77904761D01*
X137679819Y-77904761D02*
X138679819Y-78238094D01*
X137679819Y-78761904D02*
X137679819Y-78857142D01*
X137679819Y-78857142D02*
X137727438Y-78952380D01*
X137727438Y-78952380D02*
X137775057Y-78999999D01*
X137775057Y-78999999D02*
X137870295Y-79047618D01*
X137870295Y-79047618D02*
X138060771Y-79095237D01*
X138060771Y-79095237D02*
X138298866Y-79095237D01*
X138298866Y-79095237D02*
X138489342Y-79047618D01*
X138489342Y-79047618D02*
X138584580Y-78999999D01*
X138584580Y-78999999D02*
X138632200Y-78952380D01*
X138632200Y-78952380D02*
X138679819Y-78857142D01*
X138679819Y-78857142D02*
X138679819Y-78761904D01*
X138679819Y-78761904D02*
X138632200Y-78666666D01*
X138632200Y-78666666D02*
X138584580Y-78619047D01*
X138584580Y-78619047D02*
X138489342Y-78571428D01*
X138489342Y-78571428D02*
X138298866Y-78523809D01*
X138298866Y-78523809D02*
X138060771Y-78523809D01*
X138060771Y-78523809D02*
X137870295Y-78571428D01*
X137870295Y-78571428D02*
X137775057Y-78619047D01*
X137775057Y-78619047D02*
X137727438Y-78666666D01*
X137727438Y-78666666D02*
X137679819Y-78761904D01*
X138679819Y-80047618D02*
X138679819Y-79476190D01*
X138679819Y-79761904D02*
X137679819Y-79761904D01*
X137679819Y-79761904D02*
X137822676Y-79666666D01*
X137822676Y-79666666D02*
X137917914Y-79571428D01*
X137917914Y-79571428D02*
X137965533Y-79476190D01*
X138775057Y-80238095D02*
X138775057Y-80999999D01*
X138679819Y-81238095D02*
X137679819Y-81238095D01*
X138679819Y-81714285D02*
X137679819Y-81714285D01*
X137679819Y-81714285D02*
X137679819Y-82095237D01*
X137679819Y-82095237D02*
X137727438Y-82190475D01*
X137727438Y-82190475D02*
X137775057Y-82238094D01*
X137775057Y-82238094D02*
X137870295Y-82285713D01*
X137870295Y-82285713D02*
X138013152Y-82285713D01*
X138013152Y-82285713D02*
X138108390Y-82238094D01*
X138108390Y-82238094D02*
X138156009Y-82190475D01*
X138156009Y-82190475D02*
X138203628Y-82095237D01*
X138203628Y-82095237D02*
X138203628Y-81714285D01*
X138632200Y-82666666D02*
X138679819Y-82809523D01*
X138679819Y-82809523D02*
X138679819Y-83047618D01*
X138679819Y-83047618D02*
X138632200Y-83142856D01*
X138632200Y-83142856D02*
X138584580Y-83190475D01*
X138584580Y-83190475D02*
X138489342Y-83238094D01*
X138489342Y-83238094D02*
X138394104Y-83238094D01*
X138394104Y-83238094D02*
X138298866Y-83190475D01*
X138298866Y-83190475D02*
X138251247Y-83142856D01*
X138251247Y-83142856D02*
X138203628Y-83047618D01*
X138203628Y-83047618D02*
X138156009Y-82857142D01*
X138156009Y-82857142D02*
X138108390Y-82761904D01*
X138108390Y-82761904D02*
X138060771Y-82714285D01*
X138060771Y-82714285D02*
X137965533Y-82666666D01*
X137965533Y-82666666D02*
X137870295Y-82666666D01*
X137870295Y-82666666D02*
X137775057Y-82714285D01*
X137775057Y-82714285D02*
X137727438Y-82761904D01*
X137727438Y-82761904D02*
X137679819Y-82857142D01*
X137679819Y-82857142D02*
X137679819Y-83095237D01*
X137679819Y-83095237D02*
X137727438Y-83238094D01*
X138775057Y-83428571D02*
X138775057Y-84190475D01*
X138679819Y-84857142D02*
X137679819Y-84857142D01*
X138632200Y-84857142D02*
X138679819Y-84761904D01*
X138679819Y-84761904D02*
X138679819Y-84571428D01*
X138679819Y-84571428D02*
X138632200Y-84476190D01*
X138632200Y-84476190D02*
X138584580Y-84428571D01*
X138584580Y-84428571D02*
X138489342Y-84380952D01*
X138489342Y-84380952D02*
X138203628Y-84380952D01*
X138203628Y-84380952D02*
X138108390Y-84428571D01*
X138108390Y-84428571D02*
X138060771Y-84476190D01*
X138060771Y-84476190D02*
X138013152Y-84571428D01*
X138013152Y-84571428D02*
X138013152Y-84761904D01*
X138013152Y-84761904D02*
X138060771Y-84857142D01*
X138679819Y-85333333D02*
X138013152Y-85333333D01*
X137679819Y-85333333D02*
X137727438Y-85285714D01*
X137727438Y-85285714D02*
X137775057Y-85333333D01*
X137775057Y-85333333D02*
X137727438Y-85380952D01*
X137727438Y-85380952D02*
X137679819Y-85333333D01*
X137679819Y-85333333D02*
X137775057Y-85333333D01*
X138632200Y-85761904D02*
X138679819Y-85857142D01*
X138679819Y-85857142D02*
X138679819Y-86047618D01*
X138679819Y-86047618D02*
X138632200Y-86142856D01*
X138632200Y-86142856D02*
X138536961Y-86190475D01*
X138536961Y-86190475D02*
X138489342Y-86190475D01*
X138489342Y-86190475D02*
X138394104Y-86142856D01*
X138394104Y-86142856D02*
X138346485Y-86047618D01*
X138346485Y-86047618D02*
X138346485Y-85904761D01*
X138346485Y-85904761D02*
X138298866Y-85809523D01*
X138298866Y-85809523D02*
X138203628Y-85761904D01*
X138203628Y-85761904D02*
X138156009Y-85761904D01*
X138156009Y-85761904D02*
X138060771Y-85809523D01*
X138060771Y-85809523D02*
X138013152Y-85904761D01*
X138013152Y-85904761D02*
X138013152Y-86047618D01*
X138013152Y-86047618D02*
X138060771Y-86142856D01*
X138013152Y-86619047D02*
X139013152Y-86619047D01*
X138060771Y-86619047D02*
X138013152Y-86714285D01*
X138013152Y-86714285D02*
X138013152Y-86904761D01*
X138013152Y-86904761D02*
X138060771Y-86999999D01*
X138060771Y-86999999D02*
X138108390Y-87047618D01*
X138108390Y-87047618D02*
X138203628Y-87095237D01*
X138203628Y-87095237D02*
X138489342Y-87095237D01*
X138489342Y-87095237D02*
X138584580Y-87047618D01*
X138584580Y-87047618D02*
X138632200Y-86999999D01*
X138632200Y-86999999D02*
X138679819Y-86904761D01*
X138679819Y-86904761D02*
X138679819Y-86714285D01*
X138679819Y-86714285D02*
X138632200Y-86619047D01*
X138679819Y-87666666D02*
X138632200Y-87571428D01*
X138632200Y-87571428D02*
X138536961Y-87523809D01*
X138536961Y-87523809D02*
X137679819Y-87523809D01*
X138679819Y-88476190D02*
X138156009Y-88476190D01*
X138156009Y-88476190D02*
X138060771Y-88428571D01*
X138060771Y-88428571D02*
X138013152Y-88333333D01*
X138013152Y-88333333D02*
X138013152Y-88142857D01*
X138013152Y-88142857D02*
X138060771Y-88047619D01*
X138632200Y-88476190D02*
X138679819Y-88380952D01*
X138679819Y-88380952D02*
X138679819Y-88142857D01*
X138679819Y-88142857D02*
X138632200Y-88047619D01*
X138632200Y-88047619D02*
X138536961Y-88000000D01*
X138536961Y-88000000D02*
X138441723Y-88000000D01*
X138441723Y-88000000D02*
X138346485Y-88047619D01*
X138346485Y-88047619D02*
X138298866Y-88142857D01*
X138298866Y-88142857D02*
X138298866Y-88380952D01*
X138298866Y-88380952D02*
X138251247Y-88476190D01*
X138013152Y-88857143D02*
X138679819Y-89095238D01*
X138013152Y-89333333D02*
X138679819Y-89095238D01*
X138679819Y-89095238D02*
X138917914Y-89000000D01*
X138917914Y-89000000D02*
X138965533Y-88952381D01*
X138965533Y-88952381D02*
X139013152Y-88857143D01*
X123157200Y-66623808D02*
X123204819Y-66766665D01*
X123204819Y-66766665D02*
X123204819Y-67004760D01*
X123204819Y-67004760D02*
X123157200Y-67099998D01*
X123157200Y-67099998D02*
X123109580Y-67147617D01*
X123109580Y-67147617D02*
X123014342Y-67195236D01*
X123014342Y-67195236D02*
X122919104Y-67195236D01*
X122919104Y-67195236D02*
X122823866Y-67147617D01*
X122823866Y-67147617D02*
X122776247Y-67099998D01*
X122776247Y-67099998D02*
X122728628Y-67004760D01*
X122728628Y-67004760D02*
X122681009Y-66814284D01*
X122681009Y-66814284D02*
X122633390Y-66719046D01*
X122633390Y-66719046D02*
X122585771Y-66671427D01*
X122585771Y-66671427D02*
X122490533Y-66623808D01*
X122490533Y-66623808D02*
X122395295Y-66623808D01*
X122395295Y-66623808D02*
X122300057Y-66671427D01*
X122300057Y-66671427D02*
X122252438Y-66719046D01*
X122252438Y-66719046D02*
X122204819Y-66814284D01*
X122204819Y-66814284D02*
X122204819Y-67052379D01*
X122204819Y-67052379D02*
X122252438Y-67195236D01*
X123204819Y-67766665D02*
X123157200Y-67671427D01*
X123157200Y-67671427D02*
X123109580Y-67623808D01*
X123109580Y-67623808D02*
X123014342Y-67576189D01*
X123014342Y-67576189D02*
X122728628Y-67576189D01*
X122728628Y-67576189D02*
X122633390Y-67623808D01*
X122633390Y-67623808D02*
X122585771Y-67671427D01*
X122585771Y-67671427D02*
X122538152Y-67766665D01*
X122538152Y-67766665D02*
X122538152Y-67909522D01*
X122538152Y-67909522D02*
X122585771Y-68004760D01*
X122585771Y-68004760D02*
X122633390Y-68052379D01*
X122633390Y-68052379D02*
X122728628Y-68099998D01*
X122728628Y-68099998D02*
X123014342Y-68099998D01*
X123014342Y-68099998D02*
X123109580Y-68052379D01*
X123109580Y-68052379D02*
X123157200Y-68004760D01*
X123157200Y-68004760D02*
X123204819Y-67909522D01*
X123204819Y-67909522D02*
X123204819Y-67766665D01*
X123204819Y-68671427D02*
X123157200Y-68576189D01*
X123157200Y-68576189D02*
X123061961Y-68528570D01*
X123061961Y-68528570D02*
X122204819Y-68528570D01*
X123204819Y-69480951D02*
X122204819Y-69480951D01*
X123157200Y-69480951D02*
X123204819Y-69385713D01*
X123204819Y-69385713D02*
X123204819Y-69195237D01*
X123204819Y-69195237D02*
X123157200Y-69099999D01*
X123157200Y-69099999D02*
X123109580Y-69052380D01*
X123109580Y-69052380D02*
X123014342Y-69004761D01*
X123014342Y-69004761D02*
X122728628Y-69004761D01*
X122728628Y-69004761D02*
X122633390Y-69052380D01*
X122633390Y-69052380D02*
X122585771Y-69099999D01*
X122585771Y-69099999D02*
X122538152Y-69195237D01*
X122538152Y-69195237D02*
X122538152Y-69385713D01*
X122538152Y-69385713D02*
X122585771Y-69480951D01*
X123157200Y-70338094D02*
X123204819Y-70242856D01*
X123204819Y-70242856D02*
X123204819Y-70052380D01*
X123204819Y-70052380D02*
X123157200Y-69957142D01*
X123157200Y-69957142D02*
X123061961Y-69909523D01*
X123061961Y-69909523D02*
X122681009Y-69909523D01*
X122681009Y-69909523D02*
X122585771Y-69957142D01*
X122585771Y-69957142D02*
X122538152Y-70052380D01*
X122538152Y-70052380D02*
X122538152Y-70242856D01*
X122538152Y-70242856D02*
X122585771Y-70338094D01*
X122585771Y-70338094D02*
X122681009Y-70385713D01*
X122681009Y-70385713D02*
X122776247Y-70385713D01*
X122776247Y-70385713D02*
X122871485Y-69909523D01*
X123204819Y-70814285D02*
X122538152Y-70814285D01*
X122728628Y-70814285D02*
X122633390Y-70861904D01*
X122633390Y-70861904D02*
X122585771Y-70909523D01*
X122585771Y-70909523D02*
X122538152Y-71004761D01*
X122538152Y-71004761D02*
X122538152Y-71099999D01*
X122204819Y-71719047D02*
X122919104Y-71719047D01*
X122919104Y-71719047D02*
X123061961Y-71671428D01*
X123061961Y-71671428D02*
X123157200Y-71576190D01*
X123157200Y-71576190D02*
X123204819Y-71433333D01*
X123204819Y-71433333D02*
X123204819Y-71338095D01*
X122538152Y-72623809D02*
X123204819Y-72623809D01*
X122538152Y-72195238D02*
X123061961Y-72195238D01*
X123061961Y-72195238D02*
X123157200Y-72242857D01*
X123157200Y-72242857D02*
X123204819Y-72338095D01*
X123204819Y-72338095D02*
X123204819Y-72480952D01*
X123204819Y-72480952D02*
X123157200Y-72576190D01*
X123157200Y-72576190D02*
X123109580Y-72623809D01*
X123204819Y-73100000D02*
X122538152Y-73100000D01*
X122633390Y-73100000D02*
X122585771Y-73147619D01*
X122585771Y-73147619D02*
X122538152Y-73242857D01*
X122538152Y-73242857D02*
X122538152Y-73385714D01*
X122538152Y-73385714D02*
X122585771Y-73480952D01*
X122585771Y-73480952D02*
X122681009Y-73528571D01*
X122681009Y-73528571D02*
X123204819Y-73528571D01*
X122681009Y-73528571D02*
X122585771Y-73576190D01*
X122585771Y-73576190D02*
X122538152Y-73671428D01*
X122538152Y-73671428D02*
X122538152Y-73814285D01*
X122538152Y-73814285D02*
X122585771Y-73909524D01*
X122585771Y-73909524D02*
X122681009Y-73957143D01*
X122681009Y-73957143D02*
X123204819Y-73957143D01*
X122538152Y-74433333D02*
X123538152Y-74433333D01*
X122585771Y-74433333D02*
X122538152Y-74528571D01*
X122538152Y-74528571D02*
X122538152Y-74719047D01*
X122538152Y-74719047D02*
X122585771Y-74814285D01*
X122585771Y-74814285D02*
X122633390Y-74861904D01*
X122633390Y-74861904D02*
X122728628Y-74909523D01*
X122728628Y-74909523D02*
X123014342Y-74909523D01*
X123014342Y-74909523D02*
X123109580Y-74861904D01*
X123109580Y-74861904D02*
X123157200Y-74814285D01*
X123157200Y-74814285D02*
X123204819Y-74719047D01*
X123204819Y-74719047D02*
X123204819Y-74528571D01*
X123204819Y-74528571D02*
X123157200Y-74433333D01*
X123157200Y-75719047D02*
X123204819Y-75623809D01*
X123204819Y-75623809D02*
X123204819Y-75433333D01*
X123204819Y-75433333D02*
X123157200Y-75338095D01*
X123157200Y-75338095D02*
X123061961Y-75290476D01*
X123061961Y-75290476D02*
X122681009Y-75290476D01*
X122681009Y-75290476D02*
X122585771Y-75338095D01*
X122585771Y-75338095D02*
X122538152Y-75433333D01*
X122538152Y-75433333D02*
X122538152Y-75623809D01*
X122538152Y-75623809D02*
X122585771Y-75719047D01*
X122585771Y-75719047D02*
X122681009Y-75766666D01*
X122681009Y-75766666D02*
X122776247Y-75766666D01*
X122776247Y-75766666D02*
X122871485Y-75290476D01*
X123204819Y-76195238D02*
X122538152Y-76195238D01*
X122728628Y-76195238D02*
X122633390Y-76242857D01*
X122633390Y-76242857D02*
X122585771Y-76290476D01*
X122585771Y-76290476D02*
X122538152Y-76385714D01*
X122538152Y-76385714D02*
X122538152Y-76480952D01*
X123300057Y-76576191D02*
X123300057Y-77338095D01*
X122300057Y-77528572D02*
X122252438Y-77576191D01*
X122252438Y-77576191D02*
X122204819Y-77671429D01*
X122204819Y-77671429D02*
X122204819Y-77909524D01*
X122204819Y-77909524D02*
X122252438Y-78004762D01*
X122252438Y-78004762D02*
X122300057Y-78052381D01*
X122300057Y-78052381D02*
X122395295Y-78100000D01*
X122395295Y-78100000D02*
X122490533Y-78100000D01*
X122490533Y-78100000D02*
X122633390Y-78052381D01*
X122633390Y-78052381D02*
X123204819Y-77480953D01*
X123204819Y-77480953D02*
X123204819Y-78100000D01*
X123300057Y-78290477D02*
X123300057Y-79052381D01*
X122204819Y-79480953D02*
X122204819Y-79671429D01*
X122204819Y-79671429D02*
X122252438Y-79766667D01*
X122252438Y-79766667D02*
X122347676Y-79861905D01*
X122347676Y-79861905D02*
X122538152Y-79909524D01*
X122538152Y-79909524D02*
X122871485Y-79909524D01*
X122871485Y-79909524D02*
X123061961Y-79861905D01*
X123061961Y-79861905D02*
X123157200Y-79766667D01*
X123157200Y-79766667D02*
X123204819Y-79671429D01*
X123204819Y-79671429D02*
X123204819Y-79480953D01*
X123204819Y-79480953D02*
X123157200Y-79385715D01*
X123157200Y-79385715D02*
X123061961Y-79290477D01*
X123061961Y-79290477D02*
X122871485Y-79242858D01*
X122871485Y-79242858D02*
X122538152Y-79242858D01*
X122538152Y-79242858D02*
X122347676Y-79290477D01*
X122347676Y-79290477D02*
X122252438Y-79385715D01*
X122252438Y-79385715D02*
X122204819Y-79480953D01*
X122538152Y-80338096D02*
X123538152Y-80338096D01*
X122585771Y-80338096D02*
X122538152Y-80433334D01*
X122538152Y-80433334D02*
X122538152Y-80623810D01*
X122538152Y-80623810D02*
X122585771Y-80719048D01*
X122585771Y-80719048D02*
X122633390Y-80766667D01*
X122633390Y-80766667D02*
X122728628Y-80814286D01*
X122728628Y-80814286D02*
X123014342Y-80814286D01*
X123014342Y-80814286D02*
X123109580Y-80766667D01*
X123109580Y-80766667D02*
X123157200Y-80719048D01*
X123157200Y-80719048D02*
X123204819Y-80623810D01*
X123204819Y-80623810D02*
X123204819Y-80433334D01*
X123204819Y-80433334D02*
X123157200Y-80338096D01*
X123157200Y-81623810D02*
X123204819Y-81528572D01*
X123204819Y-81528572D02*
X123204819Y-81338096D01*
X123204819Y-81338096D02*
X123157200Y-81242858D01*
X123157200Y-81242858D02*
X123061961Y-81195239D01*
X123061961Y-81195239D02*
X122681009Y-81195239D01*
X122681009Y-81195239D02*
X122585771Y-81242858D01*
X122585771Y-81242858D02*
X122538152Y-81338096D01*
X122538152Y-81338096D02*
X122538152Y-81528572D01*
X122538152Y-81528572D02*
X122585771Y-81623810D01*
X122585771Y-81623810D02*
X122681009Y-81671429D01*
X122681009Y-81671429D02*
X122776247Y-81671429D01*
X122776247Y-81671429D02*
X122871485Y-81195239D01*
X122538152Y-82100001D02*
X123204819Y-82100001D01*
X122633390Y-82100001D02*
X122585771Y-82147620D01*
X122585771Y-82147620D02*
X122538152Y-82242858D01*
X122538152Y-82242858D02*
X122538152Y-82385715D01*
X122538152Y-82385715D02*
X122585771Y-82480953D01*
X122585771Y-82480953D02*
X122681009Y-82528572D01*
X122681009Y-82528572D02*
X123204819Y-82528572D01*
X124195238Y-74884819D02*
X124766666Y-74884819D01*
X124480952Y-74884819D02*
X124480952Y-73884819D01*
X124480952Y-73884819D02*
X124576190Y-74027676D01*
X124576190Y-74027676D02*
X124671428Y-74122914D01*
X124671428Y-74122914D02*
X124766666Y-74170533D01*
X123576190Y-73884819D02*
X123480952Y-73884819D01*
X123480952Y-73884819D02*
X123385714Y-73932438D01*
X123385714Y-73932438D02*
X123338095Y-73980057D01*
X123338095Y-73980057D02*
X123290476Y-74075295D01*
X123290476Y-74075295D02*
X123242857Y-74265771D01*
X123242857Y-74265771D02*
X123242857Y-74503866D01*
X123242857Y-74503866D02*
X123290476Y-74694342D01*
X123290476Y-74694342D02*
X123338095Y-74789580D01*
X123338095Y-74789580D02*
X123385714Y-74837200D01*
X123385714Y-74837200D02*
X123480952Y-74884819D01*
X123480952Y-74884819D02*
X123576190Y-74884819D01*
X123576190Y-74884819D02*
X123671428Y-74837200D01*
X123671428Y-74837200D02*
X123719047Y-74789580D01*
X123719047Y-74789580D02*
X123766666Y-74694342D01*
X123766666Y-74694342D02*
X123814285Y-74503866D01*
X123814285Y-74503866D02*
X123814285Y-74265771D01*
X123814285Y-74265771D02*
X123766666Y-74075295D01*
X123766666Y-74075295D02*
X123719047Y-73980057D01*
X123719047Y-73980057D02*
X123671428Y-73932438D01*
X123671428Y-73932438D02*
X123576190Y-73884819D01*
X122814285Y-74884819D02*
X122814285Y-73884819D01*
X122719047Y-74503866D02*
X122433333Y-74884819D01*
X122433333Y-74218152D02*
X122814285Y-74599104D01*
D12*
X123857142Y-73181927D02*
X123990475Y-72991451D01*
X124085713Y-73181927D02*
X124085713Y-72781927D01*
X124085713Y-72781927D02*
X123933332Y-72781927D01*
X123933332Y-72781927D02*
X123895237Y-72800975D01*
X123895237Y-72800975D02*
X123876190Y-72820022D01*
X123876190Y-72820022D02*
X123857142Y-72858118D01*
X123857142Y-72858118D02*
X123857142Y-72915260D01*
X123857142Y-72915260D02*
X123876190Y-72953356D01*
X123876190Y-72953356D02*
X123895237Y-72972403D01*
X123895237Y-72972403D02*
X123933332Y-72991451D01*
X123933332Y-72991451D02*
X124085713Y-72991451D01*
X123476190Y-73181927D02*
X123704761Y-73181927D01*
X123590475Y-73181927D02*
X123590475Y-72781927D01*
X123590475Y-72781927D02*
X123628571Y-72839070D01*
X123628571Y-72839070D02*
X123666666Y-72877165D01*
X123666666Y-72877165D02*
X123704761Y-72896213D01*
X123133333Y-72781927D02*
X123209523Y-72781927D01*
X123209523Y-72781927D02*
X123247619Y-72800975D01*
X123247619Y-72800975D02*
X123266666Y-72820022D01*
X123266666Y-72820022D02*
X123304761Y-72877165D01*
X123304761Y-72877165D02*
X123323809Y-72953356D01*
X123323809Y-72953356D02*
X123323809Y-73105737D01*
X123323809Y-73105737D02*
X123304761Y-73143832D01*
X123304761Y-73143832D02*
X123285714Y-73162880D01*
X123285714Y-73162880D02*
X123247619Y-73181927D01*
X123247619Y-73181927D02*
X123171428Y-73181927D01*
X123171428Y-73181927D02*
X123133333Y-73162880D01*
X123133333Y-73162880D02*
X123114285Y-73143832D01*
X123114285Y-73143832D02*
X123095238Y-73105737D01*
X123095238Y-73105737D02*
X123095238Y-73010499D01*
X123095238Y-73010499D02*
X123114285Y-72972403D01*
X123114285Y-72972403D02*
X123133333Y-72953356D01*
X123133333Y-72953356D02*
X123171428Y-72934308D01*
X123171428Y-72934308D02*
X123247619Y-72934308D01*
X123247619Y-72934308D02*
X123285714Y-72953356D01*
X123285714Y-72953356D02*
X123304761Y-72972403D01*
X123304761Y-72972403D02*
X123323809Y-73010499D01*
D10*
X111609523Y-69454819D02*
X111371428Y-70454819D01*
X111371428Y-70454819D02*
X111180952Y-69740533D01*
X111180952Y-69740533D02*
X110990476Y-70454819D01*
X110990476Y-70454819D02*
X110752381Y-69454819D01*
X110419047Y-70407200D02*
X110276190Y-70454819D01*
X110276190Y-70454819D02*
X110038095Y-70454819D01*
X110038095Y-70454819D02*
X109942857Y-70407200D01*
X109942857Y-70407200D02*
X109895238Y-70359580D01*
X109895238Y-70359580D02*
X109847619Y-70264342D01*
X109847619Y-70264342D02*
X109847619Y-70169104D01*
X109847619Y-70169104D02*
X109895238Y-70073866D01*
X109895238Y-70073866D02*
X109942857Y-70026247D01*
X109942857Y-70026247D02*
X110038095Y-69978628D01*
X110038095Y-69978628D02*
X110228571Y-69931009D01*
X110228571Y-69931009D02*
X110323809Y-69883390D01*
X110323809Y-69883390D02*
X110371428Y-69835771D01*
X110371428Y-69835771D02*
X110419047Y-69740533D01*
X110419047Y-69740533D02*
X110419047Y-69645295D01*
X110419047Y-69645295D02*
X110371428Y-69550057D01*
X110371428Y-69550057D02*
X110323809Y-69502438D01*
X110323809Y-69502438D02*
X110228571Y-69454819D01*
X110228571Y-69454819D02*
X109990476Y-69454819D01*
X109990476Y-69454819D02*
X109847619Y-69502438D01*
X109466666Y-69550057D02*
X109419047Y-69502438D01*
X109419047Y-69502438D02*
X109323809Y-69454819D01*
X109323809Y-69454819D02*
X109085714Y-69454819D01*
X109085714Y-69454819D02*
X108990476Y-69502438D01*
X108990476Y-69502438D02*
X108942857Y-69550057D01*
X108942857Y-69550057D02*
X108895238Y-69645295D01*
X108895238Y-69645295D02*
X108895238Y-69740533D01*
X108895238Y-69740533D02*
X108942857Y-69883390D01*
X108942857Y-69883390D02*
X109514285Y-70454819D01*
X109514285Y-70454819D02*
X108895238Y-70454819D01*
X108323809Y-69883390D02*
X108419047Y-69835771D01*
X108419047Y-69835771D02*
X108466666Y-69788152D01*
X108466666Y-69788152D02*
X108514285Y-69692914D01*
X108514285Y-69692914D02*
X108514285Y-69645295D01*
X108514285Y-69645295D02*
X108466666Y-69550057D01*
X108466666Y-69550057D02*
X108419047Y-69502438D01*
X108419047Y-69502438D02*
X108323809Y-69454819D01*
X108323809Y-69454819D02*
X108133333Y-69454819D01*
X108133333Y-69454819D02*
X108038095Y-69502438D01*
X108038095Y-69502438D02*
X107990476Y-69550057D01*
X107990476Y-69550057D02*
X107942857Y-69645295D01*
X107942857Y-69645295D02*
X107942857Y-69692914D01*
X107942857Y-69692914D02*
X107990476Y-69788152D01*
X107990476Y-69788152D02*
X108038095Y-69835771D01*
X108038095Y-69835771D02*
X108133333Y-69883390D01*
X108133333Y-69883390D02*
X108323809Y-69883390D01*
X108323809Y-69883390D02*
X108419047Y-69931009D01*
X108419047Y-69931009D02*
X108466666Y-69978628D01*
X108466666Y-69978628D02*
X108514285Y-70073866D01*
X108514285Y-70073866D02*
X108514285Y-70264342D01*
X108514285Y-70264342D02*
X108466666Y-70359580D01*
X108466666Y-70359580D02*
X108419047Y-70407200D01*
X108419047Y-70407200D02*
X108323809Y-70454819D01*
X108323809Y-70454819D02*
X108133333Y-70454819D01*
X108133333Y-70454819D02*
X108038095Y-70407200D01*
X108038095Y-70407200D02*
X107990476Y-70359580D01*
X107990476Y-70359580D02*
X107942857Y-70264342D01*
X107942857Y-70264342D02*
X107942857Y-70073866D01*
X107942857Y-70073866D02*
X107990476Y-69978628D01*
X107990476Y-69978628D02*
X108038095Y-69931009D01*
X108038095Y-69931009D02*
X108133333Y-69883390D01*
X106990476Y-70454819D02*
X107561904Y-70454819D01*
X107276190Y-70454819D02*
X107276190Y-69454819D01*
X107276190Y-69454819D02*
X107371428Y-69597676D01*
X107371428Y-69597676D02*
X107466666Y-69692914D01*
X107466666Y-69692914D02*
X107561904Y-69740533D01*
X106609523Y-69550057D02*
X106561904Y-69502438D01*
X106561904Y-69502438D02*
X106466666Y-69454819D01*
X106466666Y-69454819D02*
X106228571Y-69454819D01*
X106228571Y-69454819D02*
X106133333Y-69502438D01*
X106133333Y-69502438D02*
X106085714Y-69550057D01*
X106085714Y-69550057D02*
X106038095Y-69645295D01*
X106038095Y-69645295D02*
X106038095Y-69740533D01*
X106038095Y-69740533D02*
X106085714Y-69883390D01*
X106085714Y-69883390D02*
X106657142Y-70454819D01*
X106657142Y-70454819D02*
X106038095Y-70454819D01*
X105276190Y-69931009D02*
X105133333Y-69978628D01*
X105133333Y-69978628D02*
X105085714Y-70026247D01*
X105085714Y-70026247D02*
X105038095Y-70121485D01*
X105038095Y-70121485D02*
X105038095Y-70264342D01*
X105038095Y-70264342D02*
X105085714Y-70359580D01*
X105085714Y-70359580D02*
X105133333Y-70407200D01*
X105133333Y-70407200D02*
X105228571Y-70454819D01*
X105228571Y-70454819D02*
X105609523Y-70454819D01*
X105609523Y-70454819D02*
X105609523Y-69454819D01*
X105609523Y-69454819D02*
X105276190Y-69454819D01*
X105276190Y-69454819D02*
X105180952Y-69502438D01*
X105180952Y-69502438D02*
X105133333Y-69550057D01*
X105133333Y-69550057D02*
X105085714Y-69645295D01*
X105085714Y-69645295D02*
X105085714Y-69740533D01*
X105085714Y-69740533D02*
X105133333Y-69835771D01*
X105133333Y-69835771D02*
X105180952Y-69883390D01*
X105180952Y-69883390D02*
X105276190Y-69931009D01*
X105276190Y-69931009D02*
X105609523Y-69931009D01*
X108890475Y-74362295D02*
X108890475Y-73562295D01*
X108890475Y-73562295D02*
X108699999Y-73562295D01*
X108699999Y-73562295D02*
X108585713Y-73600390D01*
X108585713Y-73600390D02*
X108509523Y-73676580D01*
X108509523Y-73676580D02*
X108471428Y-73752771D01*
X108471428Y-73752771D02*
X108433332Y-73905152D01*
X108433332Y-73905152D02*
X108433332Y-74019438D01*
X108433332Y-74019438D02*
X108471428Y-74171819D01*
X108471428Y-74171819D02*
X108509523Y-74248009D01*
X108509523Y-74248009D02*
X108585713Y-74324200D01*
X108585713Y-74324200D02*
X108699999Y-74362295D01*
X108699999Y-74362295D02*
X108890475Y-74362295D01*
X108128571Y-73638485D02*
X108090475Y-73600390D01*
X108090475Y-73600390D02*
X108014285Y-73562295D01*
X108014285Y-73562295D02*
X107823809Y-73562295D01*
X107823809Y-73562295D02*
X107747618Y-73600390D01*
X107747618Y-73600390D02*
X107709523Y-73638485D01*
X107709523Y-73638485D02*
X107671428Y-73714676D01*
X107671428Y-73714676D02*
X107671428Y-73790866D01*
X107671428Y-73790866D02*
X107709523Y-73905152D01*
X107709523Y-73905152D02*
X108166666Y-74362295D01*
X108166666Y-74362295D02*
X107671428Y-74362295D01*
X112738333Y-90054819D02*
X112738333Y-90769104D01*
X112738333Y-90769104D02*
X112785952Y-90911961D01*
X112785952Y-90911961D02*
X112881190Y-91007200D01*
X112881190Y-91007200D02*
X113024047Y-91054819D01*
X113024047Y-91054819D02*
X113119285Y-91054819D01*
X112309761Y-90150057D02*
X112262142Y-90102438D01*
X112262142Y-90102438D02*
X112166904Y-90054819D01*
X112166904Y-90054819D02*
X111928809Y-90054819D01*
X111928809Y-90054819D02*
X111833571Y-90102438D01*
X111833571Y-90102438D02*
X111785952Y-90150057D01*
X111785952Y-90150057D02*
X111738333Y-90245295D01*
X111738333Y-90245295D02*
X111738333Y-90340533D01*
X111738333Y-90340533D02*
X111785952Y-90483390D01*
X111785952Y-90483390D02*
X112357380Y-91054819D01*
X112357380Y-91054819D02*
X111738333Y-91054819D01*
X135176191Y-67607200D02*
X135033334Y-67654819D01*
X135033334Y-67654819D02*
X134795239Y-67654819D01*
X134795239Y-67654819D02*
X134700001Y-67607200D01*
X134700001Y-67607200D02*
X134652382Y-67559580D01*
X134652382Y-67559580D02*
X134604763Y-67464342D01*
X134604763Y-67464342D02*
X134604763Y-67369104D01*
X134604763Y-67369104D02*
X134652382Y-67273866D01*
X134652382Y-67273866D02*
X134700001Y-67226247D01*
X134700001Y-67226247D02*
X134795239Y-67178628D01*
X134795239Y-67178628D02*
X134985715Y-67131009D01*
X134985715Y-67131009D02*
X135080953Y-67083390D01*
X135080953Y-67083390D02*
X135128572Y-67035771D01*
X135128572Y-67035771D02*
X135176191Y-66940533D01*
X135176191Y-66940533D02*
X135176191Y-66845295D01*
X135176191Y-66845295D02*
X135128572Y-66750057D01*
X135128572Y-66750057D02*
X135080953Y-66702438D01*
X135080953Y-66702438D02*
X134985715Y-66654819D01*
X134985715Y-66654819D02*
X134747620Y-66654819D01*
X134747620Y-66654819D02*
X134604763Y-66702438D01*
X134033334Y-67654819D02*
X134128572Y-67607200D01*
X134128572Y-67607200D02*
X134176191Y-67559580D01*
X134176191Y-67559580D02*
X134223810Y-67464342D01*
X134223810Y-67464342D02*
X134223810Y-67178628D01*
X134223810Y-67178628D02*
X134176191Y-67083390D01*
X134176191Y-67083390D02*
X134128572Y-67035771D01*
X134128572Y-67035771D02*
X134033334Y-66988152D01*
X134033334Y-66988152D02*
X133890477Y-66988152D01*
X133890477Y-66988152D02*
X133795239Y-67035771D01*
X133795239Y-67035771D02*
X133747620Y-67083390D01*
X133747620Y-67083390D02*
X133700001Y-67178628D01*
X133700001Y-67178628D02*
X133700001Y-67464342D01*
X133700001Y-67464342D02*
X133747620Y-67559580D01*
X133747620Y-67559580D02*
X133795239Y-67607200D01*
X133795239Y-67607200D02*
X133890477Y-67654819D01*
X133890477Y-67654819D02*
X134033334Y-67654819D01*
X133128572Y-67654819D02*
X133223810Y-67607200D01*
X133223810Y-67607200D02*
X133271429Y-67511961D01*
X133271429Y-67511961D02*
X133271429Y-66654819D01*
X132319048Y-67654819D02*
X132319048Y-66654819D01*
X132319048Y-67607200D02*
X132414286Y-67654819D01*
X132414286Y-67654819D02*
X132604762Y-67654819D01*
X132604762Y-67654819D02*
X132700000Y-67607200D01*
X132700000Y-67607200D02*
X132747619Y-67559580D01*
X132747619Y-67559580D02*
X132795238Y-67464342D01*
X132795238Y-67464342D02*
X132795238Y-67178628D01*
X132795238Y-67178628D02*
X132747619Y-67083390D01*
X132747619Y-67083390D02*
X132700000Y-67035771D01*
X132700000Y-67035771D02*
X132604762Y-66988152D01*
X132604762Y-66988152D02*
X132414286Y-66988152D01*
X132414286Y-66988152D02*
X132319048Y-67035771D01*
X131461905Y-67607200D02*
X131557143Y-67654819D01*
X131557143Y-67654819D02*
X131747619Y-67654819D01*
X131747619Y-67654819D02*
X131842857Y-67607200D01*
X131842857Y-67607200D02*
X131890476Y-67511961D01*
X131890476Y-67511961D02*
X131890476Y-67131009D01*
X131890476Y-67131009D02*
X131842857Y-67035771D01*
X131842857Y-67035771D02*
X131747619Y-66988152D01*
X131747619Y-66988152D02*
X131557143Y-66988152D01*
X131557143Y-66988152D02*
X131461905Y-67035771D01*
X131461905Y-67035771D02*
X131414286Y-67131009D01*
X131414286Y-67131009D02*
X131414286Y-67226247D01*
X131414286Y-67226247D02*
X131890476Y-67321485D01*
X130985714Y-67654819D02*
X130985714Y-66988152D01*
X130985714Y-67178628D02*
X130938095Y-67083390D01*
X130938095Y-67083390D02*
X130890476Y-67035771D01*
X130890476Y-67035771D02*
X130795238Y-66988152D01*
X130795238Y-66988152D02*
X130700000Y-66988152D01*
X130080952Y-66654819D02*
X130080952Y-67369104D01*
X130080952Y-67369104D02*
X130128571Y-67511961D01*
X130128571Y-67511961D02*
X130223809Y-67607200D01*
X130223809Y-67607200D02*
X130366666Y-67654819D01*
X130366666Y-67654819D02*
X130461904Y-67654819D01*
X129176190Y-66988152D02*
X129176190Y-67654819D01*
X129604761Y-66988152D02*
X129604761Y-67511961D01*
X129604761Y-67511961D02*
X129557142Y-67607200D01*
X129557142Y-67607200D02*
X129461904Y-67654819D01*
X129461904Y-67654819D02*
X129319047Y-67654819D01*
X129319047Y-67654819D02*
X129223809Y-67607200D01*
X129223809Y-67607200D02*
X129176190Y-67559580D01*
X128699999Y-67654819D02*
X128699999Y-66988152D01*
X128699999Y-67083390D02*
X128652380Y-67035771D01*
X128652380Y-67035771D02*
X128557142Y-66988152D01*
X128557142Y-66988152D02*
X128414285Y-66988152D01*
X128414285Y-66988152D02*
X128319047Y-67035771D01*
X128319047Y-67035771D02*
X128271428Y-67131009D01*
X128271428Y-67131009D02*
X128271428Y-67654819D01*
X128271428Y-67131009D02*
X128223809Y-67035771D01*
X128223809Y-67035771D02*
X128128571Y-66988152D01*
X128128571Y-66988152D02*
X127985714Y-66988152D01*
X127985714Y-66988152D02*
X127890475Y-67035771D01*
X127890475Y-67035771D02*
X127842856Y-67131009D01*
X127842856Y-67131009D02*
X127842856Y-67654819D01*
X127366666Y-66988152D02*
X127366666Y-67988152D01*
X127366666Y-67035771D02*
X127271428Y-66988152D01*
X127271428Y-66988152D02*
X127080952Y-66988152D01*
X127080952Y-66988152D02*
X126985714Y-67035771D01*
X126985714Y-67035771D02*
X126938095Y-67083390D01*
X126938095Y-67083390D02*
X126890476Y-67178628D01*
X126890476Y-67178628D02*
X126890476Y-67464342D01*
X126890476Y-67464342D02*
X126938095Y-67559580D01*
X126938095Y-67559580D02*
X126985714Y-67607200D01*
X126985714Y-67607200D02*
X127080952Y-67654819D01*
X127080952Y-67654819D02*
X127271428Y-67654819D01*
X127271428Y-67654819D02*
X127366666Y-67607200D01*
X126080952Y-67607200D02*
X126176190Y-67654819D01*
X126176190Y-67654819D02*
X126366666Y-67654819D01*
X126366666Y-67654819D02*
X126461904Y-67607200D01*
X126461904Y-67607200D02*
X126509523Y-67511961D01*
X126509523Y-67511961D02*
X126509523Y-67131009D01*
X126509523Y-67131009D02*
X126461904Y-67035771D01*
X126461904Y-67035771D02*
X126366666Y-66988152D01*
X126366666Y-66988152D02*
X126176190Y-66988152D01*
X126176190Y-66988152D02*
X126080952Y-67035771D01*
X126080952Y-67035771D02*
X126033333Y-67131009D01*
X126033333Y-67131009D02*
X126033333Y-67226247D01*
X126033333Y-67226247D02*
X126509523Y-67321485D01*
X125604761Y-67654819D02*
X125604761Y-66988152D01*
X125604761Y-67178628D02*
X125557142Y-67083390D01*
X125557142Y-67083390D02*
X125509523Y-67035771D01*
X125509523Y-67035771D02*
X125414285Y-66988152D01*
X125414285Y-66988152D02*
X125319047Y-66988152D01*
X125223809Y-67750057D02*
X124461904Y-67750057D01*
X124271427Y-66750057D02*
X124223808Y-66702438D01*
X124223808Y-66702438D02*
X124128570Y-66654819D01*
X124128570Y-66654819D02*
X123890475Y-66654819D01*
X123890475Y-66654819D02*
X123795237Y-66702438D01*
X123795237Y-66702438D02*
X123747618Y-66750057D01*
X123747618Y-66750057D02*
X123699999Y-66845295D01*
X123699999Y-66845295D02*
X123699999Y-66940533D01*
X123699999Y-66940533D02*
X123747618Y-67083390D01*
X123747618Y-67083390D02*
X124319046Y-67654819D01*
X124319046Y-67654819D02*
X123699999Y-67654819D01*
X123509523Y-67750057D02*
X122747618Y-67750057D01*
X122319046Y-66654819D02*
X122128570Y-66654819D01*
X122128570Y-66654819D02*
X122033332Y-66702438D01*
X122033332Y-66702438D02*
X121938094Y-66797676D01*
X121938094Y-66797676D02*
X121890475Y-66988152D01*
X121890475Y-66988152D02*
X121890475Y-67321485D01*
X121890475Y-67321485D02*
X121938094Y-67511961D01*
X121938094Y-67511961D02*
X122033332Y-67607200D01*
X122033332Y-67607200D02*
X122128570Y-67654819D01*
X122128570Y-67654819D02*
X122319046Y-67654819D01*
X122319046Y-67654819D02*
X122414284Y-67607200D01*
X122414284Y-67607200D02*
X122509522Y-67511961D01*
X122509522Y-67511961D02*
X122557141Y-67321485D01*
X122557141Y-67321485D02*
X122557141Y-66988152D01*
X122557141Y-66988152D02*
X122509522Y-66797676D01*
X122509522Y-66797676D02*
X122414284Y-66702438D01*
X122414284Y-66702438D02*
X122319046Y-66654819D01*
X121461903Y-66988152D02*
X121461903Y-67988152D01*
X121461903Y-67035771D02*
X121366665Y-66988152D01*
X121366665Y-66988152D02*
X121176189Y-66988152D01*
X121176189Y-66988152D02*
X121080951Y-67035771D01*
X121080951Y-67035771D02*
X121033332Y-67083390D01*
X121033332Y-67083390D02*
X120985713Y-67178628D01*
X120985713Y-67178628D02*
X120985713Y-67464342D01*
X120985713Y-67464342D02*
X121033332Y-67559580D01*
X121033332Y-67559580D02*
X121080951Y-67607200D01*
X121080951Y-67607200D02*
X121176189Y-67654819D01*
X121176189Y-67654819D02*
X121366665Y-67654819D01*
X121366665Y-67654819D02*
X121461903Y-67607200D01*
X120176189Y-67607200D02*
X120271427Y-67654819D01*
X120271427Y-67654819D02*
X120461903Y-67654819D01*
X120461903Y-67654819D02*
X120557141Y-67607200D01*
X120557141Y-67607200D02*
X120604760Y-67511961D01*
X120604760Y-67511961D02*
X120604760Y-67131009D01*
X120604760Y-67131009D02*
X120557141Y-67035771D01*
X120557141Y-67035771D02*
X120461903Y-66988152D01*
X120461903Y-66988152D02*
X120271427Y-66988152D01*
X120271427Y-66988152D02*
X120176189Y-67035771D01*
X120176189Y-67035771D02*
X120128570Y-67131009D01*
X120128570Y-67131009D02*
X120128570Y-67226247D01*
X120128570Y-67226247D02*
X120604760Y-67321485D01*
X119699998Y-66988152D02*
X119699998Y-67654819D01*
X119699998Y-67083390D02*
X119652379Y-67035771D01*
X119652379Y-67035771D02*
X119557141Y-66988152D01*
X119557141Y-66988152D02*
X119414284Y-66988152D01*
X119414284Y-66988152D02*
X119319046Y-67035771D01*
X119319046Y-67035771D02*
X119271427Y-67131009D01*
X119271427Y-67131009D02*
X119271427Y-67654819D01*
X129037557Y-69598214D02*
X128989938Y-69645833D01*
X128989938Y-69645833D02*
X128942319Y-69741071D01*
X128942319Y-69741071D02*
X128942319Y-69979166D01*
X128942319Y-69979166D02*
X128989938Y-70074404D01*
X128989938Y-70074404D02*
X129037557Y-70122023D01*
X129037557Y-70122023D02*
X129132795Y-70169642D01*
X129132795Y-70169642D02*
X129228033Y-70169642D01*
X129228033Y-70169642D02*
X129370890Y-70122023D01*
X129370890Y-70122023D02*
X129942319Y-69550595D01*
X129942319Y-69550595D02*
X129942319Y-70169642D01*
X129942319Y-70598214D02*
X128942319Y-70598214D01*
X128942319Y-70598214D02*
X129942319Y-71169642D01*
X129942319Y-71169642D02*
X128942319Y-71169642D01*
X128942319Y-71550595D02*
X128942319Y-72217261D01*
X128942319Y-72217261D02*
X129942319Y-71788690D01*
X128942319Y-72788690D02*
X128942319Y-72883928D01*
X128942319Y-72883928D02*
X128989938Y-72979166D01*
X128989938Y-72979166D02*
X129037557Y-73026785D01*
X129037557Y-73026785D02*
X129132795Y-73074404D01*
X129132795Y-73074404D02*
X129323271Y-73122023D01*
X129323271Y-73122023D02*
X129561366Y-73122023D01*
X129561366Y-73122023D02*
X129751842Y-73074404D01*
X129751842Y-73074404D02*
X129847080Y-73026785D01*
X129847080Y-73026785D02*
X129894700Y-72979166D01*
X129894700Y-72979166D02*
X129942319Y-72883928D01*
X129942319Y-72883928D02*
X129942319Y-72788690D01*
X129942319Y-72788690D02*
X129894700Y-72693452D01*
X129894700Y-72693452D02*
X129847080Y-72645833D01*
X129847080Y-72645833D02*
X129751842Y-72598214D01*
X129751842Y-72598214D02*
X129561366Y-72550595D01*
X129561366Y-72550595D02*
X129323271Y-72550595D01*
X129323271Y-72550595D02*
X129132795Y-72598214D01*
X129132795Y-72598214D02*
X129037557Y-72645833D01*
X129037557Y-72645833D02*
X128989938Y-72693452D01*
X128989938Y-72693452D02*
X128942319Y-72788690D01*
X128942319Y-73741071D02*
X128942319Y-73836309D01*
X128942319Y-73836309D02*
X128989938Y-73931547D01*
X128989938Y-73931547D02*
X129037557Y-73979166D01*
X129037557Y-73979166D02*
X129132795Y-74026785D01*
X129132795Y-74026785D02*
X129323271Y-74074404D01*
X129323271Y-74074404D02*
X129561366Y-74074404D01*
X129561366Y-74074404D02*
X129751842Y-74026785D01*
X129751842Y-74026785D02*
X129847080Y-73979166D01*
X129847080Y-73979166D02*
X129894700Y-73931547D01*
X129894700Y-73931547D02*
X129942319Y-73836309D01*
X129942319Y-73836309D02*
X129942319Y-73741071D01*
X129942319Y-73741071D02*
X129894700Y-73645833D01*
X129894700Y-73645833D02*
X129847080Y-73598214D01*
X129847080Y-73598214D02*
X129751842Y-73550595D01*
X129751842Y-73550595D02*
X129561366Y-73502976D01*
X129561366Y-73502976D02*
X129323271Y-73502976D01*
X129323271Y-73502976D02*
X129132795Y-73550595D01*
X129132795Y-73550595D02*
X129037557Y-73598214D01*
X129037557Y-73598214D02*
X128989938Y-73645833D01*
X128989938Y-73645833D02*
X128942319Y-73741071D01*
X129037557Y-74455357D02*
X128989938Y-74502976D01*
X128989938Y-74502976D02*
X128942319Y-74598214D01*
X128942319Y-74598214D02*
X128942319Y-74836309D01*
X128942319Y-74836309D02*
X128989938Y-74931547D01*
X128989938Y-74931547D02*
X129037557Y-74979166D01*
X129037557Y-74979166D02*
X129132795Y-75026785D01*
X129132795Y-75026785D02*
X129228033Y-75026785D01*
X129228033Y-75026785D02*
X129370890Y-74979166D01*
X129370890Y-74979166D02*
X129942319Y-74407738D01*
X129942319Y-74407738D02*
X129942319Y-75026785D01*
D13*
X127263414Y-72282023D02*
X127248176Y-72251547D01*
X127248176Y-72251547D02*
X127217700Y-72221071D01*
X127217700Y-72221071D02*
X127171985Y-72175357D01*
X127171985Y-72175357D02*
X127156747Y-72144880D01*
X127156747Y-72144880D02*
X127156747Y-72114404D01*
X127232938Y-72129642D02*
X127217700Y-72099166D01*
X127217700Y-72099166D02*
X127187223Y-72068690D01*
X127187223Y-72068690D02*
X127126271Y-72053452D01*
X127126271Y-72053452D02*
X127019604Y-72053452D01*
X127019604Y-72053452D02*
X126958652Y-72068690D01*
X126958652Y-72068690D02*
X126928176Y-72099166D01*
X126928176Y-72099166D02*
X126912938Y-72129642D01*
X126912938Y-72129642D02*
X126912938Y-72190595D01*
X126912938Y-72190595D02*
X126928176Y-72221071D01*
X126928176Y-72221071D02*
X126958652Y-72251547D01*
X126958652Y-72251547D02*
X127019604Y-72266785D01*
X127019604Y-72266785D02*
X127126271Y-72266785D01*
X127126271Y-72266785D02*
X127187223Y-72251547D01*
X127187223Y-72251547D02*
X127217700Y-72221071D01*
X127217700Y-72221071D02*
X127232938Y-72190595D01*
X127232938Y-72190595D02*
X127232938Y-72129642D01*
X127232938Y-72571547D02*
X127232938Y-72388690D01*
X127232938Y-72480118D02*
X126912938Y-72480118D01*
X126912938Y-72480118D02*
X126958652Y-72449642D01*
X126958652Y-72449642D02*
X126989128Y-72419166D01*
X126989128Y-72419166D02*
X127004366Y-72388690D01*
D10*
X117733333Y-64404819D02*
X117161905Y-64404819D01*
X117447619Y-65404819D02*
X117447619Y-64404819D01*
X116447619Y-65357200D02*
X116542857Y-65404819D01*
X116542857Y-65404819D02*
X116733333Y-65404819D01*
X116733333Y-65404819D02*
X116828571Y-65357200D01*
X116828571Y-65357200D02*
X116876190Y-65261961D01*
X116876190Y-65261961D02*
X116876190Y-64881009D01*
X116876190Y-64881009D02*
X116828571Y-64785771D01*
X116828571Y-64785771D02*
X116733333Y-64738152D01*
X116733333Y-64738152D02*
X116542857Y-64738152D01*
X116542857Y-64738152D02*
X116447619Y-64785771D01*
X116447619Y-64785771D02*
X116400000Y-64881009D01*
X116400000Y-64881009D02*
X116400000Y-64976247D01*
X116400000Y-64976247D02*
X116876190Y-65071485D01*
X116019047Y-65357200D02*
X115923809Y-65404819D01*
X115923809Y-65404819D02*
X115733333Y-65404819D01*
X115733333Y-65404819D02*
X115638095Y-65357200D01*
X115638095Y-65357200D02*
X115590476Y-65261961D01*
X115590476Y-65261961D02*
X115590476Y-65214342D01*
X115590476Y-65214342D02*
X115638095Y-65119104D01*
X115638095Y-65119104D02*
X115733333Y-65071485D01*
X115733333Y-65071485D02*
X115876190Y-65071485D01*
X115876190Y-65071485D02*
X115971428Y-65023866D01*
X115971428Y-65023866D02*
X116019047Y-64928628D01*
X116019047Y-64928628D02*
X116019047Y-64881009D01*
X116019047Y-64881009D02*
X115971428Y-64785771D01*
X115971428Y-64785771D02*
X115876190Y-64738152D01*
X115876190Y-64738152D02*
X115733333Y-64738152D01*
X115733333Y-64738152D02*
X115638095Y-64785771D01*
X115304761Y-64738152D02*
X114923809Y-64738152D01*
X115161904Y-64404819D02*
X115161904Y-65261961D01*
X115161904Y-65261961D02*
X115114285Y-65357200D01*
X115114285Y-65357200D02*
X115019047Y-65404819D01*
X115019047Y-65404819D02*
X114923809Y-65404819D01*
X114590475Y-65404819D02*
X114590475Y-64404819D01*
X114590475Y-64404819D02*
X114209523Y-64404819D01*
X114209523Y-64404819D02*
X114114285Y-64452438D01*
X114114285Y-64452438D02*
X114066666Y-64500057D01*
X114066666Y-64500057D02*
X114019047Y-64595295D01*
X114019047Y-64595295D02*
X114019047Y-64738152D01*
X114019047Y-64738152D02*
X114066666Y-64833390D01*
X114066666Y-64833390D02*
X114114285Y-64881009D01*
X114114285Y-64881009D02*
X114209523Y-64928628D01*
X114209523Y-64928628D02*
X114590475Y-64928628D01*
X113447618Y-65404819D02*
X113542856Y-65357200D01*
X113542856Y-65357200D02*
X113590475Y-65309580D01*
X113590475Y-65309580D02*
X113638094Y-65214342D01*
X113638094Y-65214342D02*
X113638094Y-64928628D01*
X113638094Y-64928628D02*
X113590475Y-64833390D01*
X113590475Y-64833390D02*
X113542856Y-64785771D01*
X113542856Y-64785771D02*
X113447618Y-64738152D01*
X113447618Y-64738152D02*
X113304761Y-64738152D01*
X113304761Y-64738152D02*
X113209523Y-64785771D01*
X113209523Y-64785771D02*
X113161904Y-64833390D01*
X113161904Y-64833390D02*
X113114285Y-64928628D01*
X113114285Y-64928628D02*
X113114285Y-65214342D01*
X113114285Y-65214342D02*
X113161904Y-65309580D01*
X113161904Y-65309580D02*
X113209523Y-65357200D01*
X113209523Y-65357200D02*
X113304761Y-65404819D01*
X113304761Y-65404819D02*
X113447618Y-65404819D01*
X112685713Y-65404819D02*
X112685713Y-64738152D01*
X112685713Y-64404819D02*
X112733332Y-64452438D01*
X112733332Y-64452438D02*
X112685713Y-64500057D01*
X112685713Y-64500057D02*
X112638094Y-64452438D01*
X112638094Y-64452438D02*
X112685713Y-64404819D01*
X112685713Y-64404819D02*
X112685713Y-64500057D01*
X112209523Y-64738152D02*
X112209523Y-65404819D01*
X112209523Y-64833390D02*
X112161904Y-64785771D01*
X112161904Y-64785771D02*
X112066666Y-64738152D01*
X112066666Y-64738152D02*
X111923809Y-64738152D01*
X111923809Y-64738152D02*
X111828571Y-64785771D01*
X111828571Y-64785771D02*
X111780952Y-64881009D01*
X111780952Y-64881009D02*
X111780952Y-65404819D01*
X111447618Y-64738152D02*
X111066666Y-64738152D01*
X111304761Y-64404819D02*
X111304761Y-65261961D01*
X111304761Y-65261961D02*
X111257142Y-65357200D01*
X111257142Y-65357200D02*
X111161904Y-65404819D01*
X111161904Y-65404819D02*
X111066666Y-65404819D01*
X112242857Y-63054819D02*
X112719047Y-63054819D01*
X112719047Y-63054819D02*
X112719047Y-62054819D01*
X111909523Y-62531009D02*
X111576190Y-62531009D01*
X111433333Y-63054819D02*
X111909523Y-63054819D01*
X111909523Y-63054819D02*
X111909523Y-62054819D01*
X111909523Y-62054819D02*
X111433333Y-62054819D01*
X111004761Y-63054819D02*
X111004761Y-62054819D01*
X111004761Y-62054819D02*
X110766666Y-62054819D01*
X110766666Y-62054819D02*
X110623809Y-62102438D01*
X110623809Y-62102438D02*
X110528571Y-62197676D01*
X110528571Y-62197676D02*
X110480952Y-62292914D01*
X110480952Y-62292914D02*
X110433333Y-62483390D01*
X110433333Y-62483390D02*
X110433333Y-62626247D01*
X110433333Y-62626247D02*
X110480952Y-62816723D01*
X110480952Y-62816723D02*
X110528571Y-62911961D01*
X110528571Y-62911961D02*
X110623809Y-63007200D01*
X110623809Y-63007200D02*
X110766666Y-63054819D01*
X110766666Y-63054819D02*
X111004761Y-63054819D01*
X127482494Y-65864102D02*
X127338930Y-65818657D01*
X127338930Y-65818657D02*
X127146307Y-65678708D01*
X127146307Y-65678708D02*
X127097248Y-65584204D01*
X127097248Y-65584204D02*
X127086713Y-65517689D01*
X127086713Y-65517689D02*
X127104168Y-65412650D01*
X127104168Y-65412650D02*
X127160147Y-65335601D01*
X127160147Y-65335601D02*
X127254651Y-65286542D01*
X127254651Y-65286542D02*
X127321166Y-65276007D01*
X127321166Y-65276007D02*
X127426205Y-65293462D01*
X127426205Y-65293462D02*
X127608293Y-65366896D01*
X127608293Y-65366896D02*
X127713332Y-65384351D01*
X127713332Y-65384351D02*
X127779846Y-65373816D01*
X127779846Y-65373816D02*
X127874351Y-65324757D01*
X127874351Y-65324757D02*
X127930330Y-65247708D01*
X127930330Y-65247708D02*
X127947785Y-65142669D01*
X127947785Y-65142669D02*
X127937250Y-65076154D01*
X127937250Y-65076154D02*
X127888191Y-64981650D01*
X127888191Y-64981650D02*
X127695568Y-64841701D01*
X127695568Y-64841701D02*
X127552004Y-64796257D01*
X127310321Y-64561804D02*
X126529913Y-65230872D01*
X126529913Y-65230872D02*
X126795661Y-64541043D01*
X126795661Y-64541043D02*
X126221716Y-65006953D01*
X126221716Y-65006953D02*
X126616878Y-64057988D01*
X125857540Y-64860085D02*
X125241146Y-64412248D01*
X125104502Y-64195250D02*
X125692287Y-63386233D01*
X125692287Y-63386233D02*
X125384090Y-63162315D01*
X125384090Y-63162315D02*
X125279051Y-63144860D01*
X125279051Y-63144860D02*
X125212537Y-63155395D01*
X125212537Y-63155395D02*
X125118033Y-63204454D01*
X125118033Y-63204454D02*
X125034064Y-63320028D01*
X125034064Y-63320028D02*
X125016609Y-63425067D01*
X125016609Y-63425067D02*
X125027143Y-63491581D01*
X125027143Y-63491581D02*
X125076203Y-63586086D01*
X125076203Y-63586086D02*
X125384400Y-63810004D01*
X124340620Y-62816212D02*
X123948764Y-63355557D01*
X124687342Y-63068120D02*
X124379454Y-63491891D01*
X124379454Y-63491891D02*
X124284950Y-63540950D01*
X124284950Y-63540950D02*
X124179911Y-63523495D01*
X124179911Y-63523495D02*
X124064337Y-63439526D01*
X124064337Y-63439526D02*
X124015278Y-63345022D01*
X124015278Y-63345022D02*
X124004743Y-63278507D01*
X123630032Y-63065124D02*
X123524993Y-63047669D01*
X123524993Y-63047669D02*
X123370894Y-62935710D01*
X123370894Y-62935710D02*
X123321835Y-62841206D01*
X123321835Y-62841206D02*
X123339290Y-62736167D01*
X123339290Y-62736167D02*
X123367279Y-62697642D01*
X123367279Y-62697642D02*
X123461784Y-62648583D01*
X123461784Y-62648583D02*
X123566823Y-62666038D01*
X123566823Y-62666038D02*
X123682396Y-62750007D01*
X123682396Y-62750007D02*
X123787435Y-62767462D01*
X123787435Y-62767462D02*
X123881940Y-62718403D01*
X123881940Y-62718403D02*
X123909929Y-62679878D01*
X123909929Y-62679878D02*
X123927384Y-62574839D01*
X123927384Y-62574839D02*
X123878325Y-62480335D01*
X123878325Y-62480335D02*
X123762751Y-62396365D01*
X123762751Y-62396365D02*
X123657712Y-62378910D01*
X122908599Y-62599833D02*
X123496384Y-61790816D01*
X122561877Y-62347925D02*
X122869765Y-61924154D01*
X122869765Y-61924154D02*
X122964269Y-61875094D01*
X122964269Y-61875094D02*
X123069308Y-61892549D01*
X123069308Y-61892549D02*
X123184882Y-61976519D01*
X123184882Y-61976519D02*
X123233941Y-62071023D01*
X123233941Y-62071023D02*
X123244476Y-62137537D01*
D14*
X123795022Y-66888752D02*
X123723241Y-66866029D01*
X123723241Y-66866029D02*
X123626929Y-66796055D01*
X123626929Y-66796055D02*
X123602399Y-66748803D01*
X123602399Y-66748803D02*
X123597132Y-66715546D01*
X123597132Y-66715546D02*
X123605859Y-66663026D01*
X123605859Y-66663026D02*
X123633849Y-66624502D01*
X123633849Y-66624502D02*
X123681101Y-66599972D01*
X123681101Y-66599972D02*
X123714358Y-66594704D01*
X123714358Y-66594704D02*
X123766878Y-66603432D01*
X123766878Y-66603432D02*
X123857922Y-66640149D01*
X123857922Y-66640149D02*
X123910442Y-66648877D01*
X123910442Y-66648877D02*
X123943699Y-66643609D01*
X123943699Y-66643609D02*
X123990951Y-66619079D01*
X123990951Y-66619079D02*
X124018941Y-66580555D01*
X124018941Y-66580555D02*
X124027668Y-66528035D01*
X124027668Y-66528035D02*
X124022401Y-66494778D01*
X124022401Y-66494778D02*
X123997871Y-66447526D01*
X123997871Y-66447526D02*
X123901559Y-66377552D01*
X123901559Y-66377552D02*
X123829778Y-66354829D01*
X123708937Y-66237603D02*
X123318733Y-66572137D01*
X123318733Y-66572137D02*
X123451607Y-66227223D01*
X123451607Y-66227223D02*
X123164634Y-66460178D01*
X123164634Y-66460178D02*
X123362215Y-65985695D01*
X123199389Y-65926255D02*
X123194121Y-65892998D01*
X123194121Y-65892998D02*
X123169592Y-65845746D01*
X123169592Y-65845746D02*
X123073280Y-65775771D01*
X123073280Y-65775771D02*
X123020761Y-65767044D01*
X123020761Y-65767044D02*
X122987503Y-65772311D01*
X122987503Y-65772311D02*
X122940251Y-65796841D01*
X122940251Y-65796841D02*
X122912262Y-65835366D01*
X122912262Y-65835366D02*
X122889539Y-65907148D01*
X122889539Y-65907148D02*
X122952748Y-66306234D01*
X122952748Y-66306234D02*
X122702338Y-66124300D01*
D10*
X113004819Y-83804761D02*
X113004819Y-83233333D01*
X113004819Y-83519047D02*
X112004819Y-83519047D01*
X112004819Y-83519047D02*
X112147676Y-83423809D01*
X112147676Y-83423809D02*
X112242914Y-83328571D01*
X112242914Y-83328571D02*
X112290533Y-83233333D01*
X112004819Y-84423809D02*
X112004819Y-84519047D01*
X112004819Y-84519047D02*
X112052438Y-84614285D01*
X112052438Y-84614285D02*
X112100057Y-84661904D01*
X112100057Y-84661904D02*
X112195295Y-84709523D01*
X112195295Y-84709523D02*
X112385771Y-84757142D01*
X112385771Y-84757142D02*
X112623866Y-84757142D01*
X112623866Y-84757142D02*
X112814342Y-84709523D01*
X112814342Y-84709523D02*
X112909580Y-84661904D01*
X112909580Y-84661904D02*
X112957200Y-84614285D01*
X112957200Y-84614285D02*
X113004819Y-84519047D01*
X113004819Y-84519047D02*
X113004819Y-84423809D01*
X113004819Y-84423809D02*
X112957200Y-84328571D01*
X112957200Y-84328571D02*
X112909580Y-84280952D01*
X112909580Y-84280952D02*
X112814342Y-84233333D01*
X112814342Y-84233333D02*
X112623866Y-84185714D01*
X112623866Y-84185714D02*
X112385771Y-84185714D01*
X112385771Y-84185714D02*
X112195295Y-84233333D01*
X112195295Y-84233333D02*
X112100057Y-84280952D01*
X112100057Y-84280952D02*
X112052438Y-84328571D01*
X112052438Y-84328571D02*
X112004819Y-84423809D01*
X113004819Y-85185714D02*
X112004819Y-85185714D01*
X112623866Y-85280952D02*
X113004819Y-85566666D01*
X112338152Y-85566666D02*
X112719104Y-85185714D01*
D11*
X114427149Y-84316666D02*
X114189054Y-84150000D01*
X114427149Y-84030952D02*
X113927149Y-84030952D01*
X113927149Y-84030952D02*
X113927149Y-84221428D01*
X113927149Y-84221428D02*
X113950959Y-84269047D01*
X113950959Y-84269047D02*
X113974768Y-84292857D01*
X113974768Y-84292857D02*
X114022387Y-84316666D01*
X114022387Y-84316666D02*
X114093816Y-84316666D01*
X114093816Y-84316666D02*
X114141435Y-84292857D01*
X114141435Y-84292857D02*
X114165244Y-84269047D01*
X114165244Y-84269047D02*
X114189054Y-84221428D01*
X114189054Y-84221428D02*
X114189054Y-84030952D01*
X113974768Y-84507143D02*
X113950959Y-84530952D01*
X113950959Y-84530952D02*
X113927149Y-84578571D01*
X113927149Y-84578571D02*
X113927149Y-84697619D01*
X113927149Y-84697619D02*
X113950959Y-84745238D01*
X113950959Y-84745238D02*
X113974768Y-84769047D01*
X113974768Y-84769047D02*
X114022387Y-84792857D01*
X114022387Y-84792857D02*
X114070006Y-84792857D01*
X114070006Y-84792857D02*
X114141435Y-84769047D01*
X114141435Y-84769047D02*
X114427149Y-84483333D01*
X114427149Y-84483333D02*
X114427149Y-84792857D01*
D10*
X119159523Y-63604819D02*
X118921428Y-64604819D01*
X118921428Y-64604819D02*
X118730952Y-63890533D01*
X118730952Y-63890533D02*
X118540476Y-64604819D01*
X118540476Y-64604819D02*
X118302381Y-63604819D01*
X117969047Y-64557200D02*
X117826190Y-64604819D01*
X117826190Y-64604819D02*
X117588095Y-64604819D01*
X117588095Y-64604819D02*
X117492857Y-64557200D01*
X117492857Y-64557200D02*
X117445238Y-64509580D01*
X117445238Y-64509580D02*
X117397619Y-64414342D01*
X117397619Y-64414342D02*
X117397619Y-64319104D01*
X117397619Y-64319104D02*
X117445238Y-64223866D01*
X117445238Y-64223866D02*
X117492857Y-64176247D01*
X117492857Y-64176247D02*
X117588095Y-64128628D01*
X117588095Y-64128628D02*
X117778571Y-64081009D01*
X117778571Y-64081009D02*
X117873809Y-64033390D01*
X117873809Y-64033390D02*
X117921428Y-63985771D01*
X117921428Y-63985771D02*
X117969047Y-63890533D01*
X117969047Y-63890533D02*
X117969047Y-63795295D01*
X117969047Y-63795295D02*
X117921428Y-63700057D01*
X117921428Y-63700057D02*
X117873809Y-63652438D01*
X117873809Y-63652438D02*
X117778571Y-63604819D01*
X117778571Y-63604819D02*
X117540476Y-63604819D01*
X117540476Y-63604819D02*
X117397619Y-63652438D01*
X117016666Y-63700057D02*
X116969047Y-63652438D01*
X116969047Y-63652438D02*
X116873809Y-63604819D01*
X116873809Y-63604819D02*
X116635714Y-63604819D01*
X116635714Y-63604819D02*
X116540476Y-63652438D01*
X116540476Y-63652438D02*
X116492857Y-63700057D01*
X116492857Y-63700057D02*
X116445238Y-63795295D01*
X116445238Y-63795295D02*
X116445238Y-63890533D01*
X116445238Y-63890533D02*
X116492857Y-64033390D01*
X116492857Y-64033390D02*
X117064285Y-64604819D01*
X117064285Y-64604819D02*
X116445238Y-64604819D01*
X115873809Y-64033390D02*
X115969047Y-63985771D01*
X115969047Y-63985771D02*
X116016666Y-63938152D01*
X116016666Y-63938152D02*
X116064285Y-63842914D01*
X116064285Y-63842914D02*
X116064285Y-63795295D01*
X116064285Y-63795295D02*
X116016666Y-63700057D01*
X116016666Y-63700057D02*
X115969047Y-63652438D01*
X115969047Y-63652438D02*
X115873809Y-63604819D01*
X115873809Y-63604819D02*
X115683333Y-63604819D01*
X115683333Y-63604819D02*
X115588095Y-63652438D01*
X115588095Y-63652438D02*
X115540476Y-63700057D01*
X115540476Y-63700057D02*
X115492857Y-63795295D01*
X115492857Y-63795295D02*
X115492857Y-63842914D01*
X115492857Y-63842914D02*
X115540476Y-63938152D01*
X115540476Y-63938152D02*
X115588095Y-63985771D01*
X115588095Y-63985771D02*
X115683333Y-64033390D01*
X115683333Y-64033390D02*
X115873809Y-64033390D01*
X115873809Y-64033390D02*
X115969047Y-64081009D01*
X115969047Y-64081009D02*
X116016666Y-64128628D01*
X116016666Y-64128628D02*
X116064285Y-64223866D01*
X116064285Y-64223866D02*
X116064285Y-64414342D01*
X116064285Y-64414342D02*
X116016666Y-64509580D01*
X116016666Y-64509580D02*
X115969047Y-64557200D01*
X115969047Y-64557200D02*
X115873809Y-64604819D01*
X115873809Y-64604819D02*
X115683333Y-64604819D01*
X115683333Y-64604819D02*
X115588095Y-64557200D01*
X115588095Y-64557200D02*
X115540476Y-64509580D01*
X115540476Y-64509580D02*
X115492857Y-64414342D01*
X115492857Y-64414342D02*
X115492857Y-64223866D01*
X115492857Y-64223866D02*
X115540476Y-64128628D01*
X115540476Y-64128628D02*
X115588095Y-64081009D01*
X115588095Y-64081009D02*
X115683333Y-64033390D01*
X114540476Y-64604819D02*
X115111904Y-64604819D01*
X114826190Y-64604819D02*
X114826190Y-63604819D01*
X114826190Y-63604819D02*
X114921428Y-63747676D01*
X114921428Y-63747676D02*
X115016666Y-63842914D01*
X115016666Y-63842914D02*
X115111904Y-63890533D01*
X114159523Y-63700057D02*
X114111904Y-63652438D01*
X114111904Y-63652438D02*
X114016666Y-63604819D01*
X114016666Y-63604819D02*
X113778571Y-63604819D01*
X113778571Y-63604819D02*
X113683333Y-63652438D01*
X113683333Y-63652438D02*
X113635714Y-63700057D01*
X113635714Y-63700057D02*
X113588095Y-63795295D01*
X113588095Y-63795295D02*
X113588095Y-63890533D01*
X113588095Y-63890533D02*
X113635714Y-64033390D01*
X113635714Y-64033390D02*
X114207142Y-64604819D01*
X114207142Y-64604819D02*
X113588095Y-64604819D01*
X112826190Y-64081009D02*
X112683333Y-64128628D01*
X112683333Y-64128628D02*
X112635714Y-64176247D01*
X112635714Y-64176247D02*
X112588095Y-64271485D01*
X112588095Y-64271485D02*
X112588095Y-64414342D01*
X112588095Y-64414342D02*
X112635714Y-64509580D01*
X112635714Y-64509580D02*
X112683333Y-64557200D01*
X112683333Y-64557200D02*
X112778571Y-64604819D01*
X112778571Y-64604819D02*
X113159523Y-64604819D01*
X113159523Y-64604819D02*
X113159523Y-63604819D01*
X113159523Y-63604819D02*
X112826190Y-63604819D01*
X112826190Y-63604819D02*
X112730952Y-63652438D01*
X112730952Y-63652438D02*
X112683333Y-63700057D01*
X112683333Y-63700057D02*
X112635714Y-63795295D01*
X112635714Y-63795295D02*
X112635714Y-63890533D01*
X112635714Y-63890533D02*
X112683333Y-63985771D01*
X112683333Y-63985771D02*
X112730952Y-64033390D01*
X112730952Y-64033390D02*
X112826190Y-64081009D01*
X112826190Y-64081009D02*
X113159523Y-64081009D01*
X116440475Y-68512295D02*
X116440475Y-67712295D01*
X116440475Y-67712295D02*
X116249999Y-67712295D01*
X116249999Y-67712295D02*
X116135713Y-67750390D01*
X116135713Y-67750390D02*
X116059523Y-67826580D01*
X116059523Y-67826580D02*
X116021428Y-67902771D01*
X116021428Y-67902771D02*
X115983332Y-68055152D01*
X115983332Y-68055152D02*
X115983332Y-68169438D01*
X115983332Y-68169438D02*
X116021428Y-68321819D01*
X116021428Y-68321819D02*
X116059523Y-68398009D01*
X116059523Y-68398009D02*
X116135713Y-68474200D01*
X116135713Y-68474200D02*
X116249999Y-68512295D01*
X116249999Y-68512295D02*
X116440475Y-68512295D01*
X115716666Y-67712295D02*
X115183332Y-67712295D01*
X115183332Y-67712295D02*
X115526190Y-68512295D01*
X123910714Y-70004819D02*
X124482142Y-70004819D01*
X124196428Y-70004819D02*
X124196428Y-69004819D01*
X124196428Y-69004819D02*
X124291666Y-69147676D01*
X124291666Y-69147676D02*
X124386904Y-69242914D01*
X124386904Y-69242914D02*
X124482142Y-69290533D01*
X123482142Y-70004819D02*
X123482142Y-69004819D01*
X123482142Y-69004819D02*
X123148809Y-69719104D01*
X123148809Y-69719104D02*
X122815476Y-69004819D01*
X122815476Y-69004819D02*
X122815476Y-70004819D01*
D11*
X123946428Y-71427149D02*
X124113094Y-71189054D01*
X124232142Y-71427149D02*
X124232142Y-70927149D01*
X124232142Y-70927149D02*
X124041666Y-70927149D01*
X124041666Y-70927149D02*
X123994047Y-70950959D01*
X123994047Y-70950959D02*
X123970237Y-70974768D01*
X123970237Y-70974768D02*
X123946428Y-71022387D01*
X123946428Y-71022387D02*
X123946428Y-71093816D01*
X123946428Y-71093816D02*
X123970237Y-71141435D01*
X123970237Y-71141435D02*
X123994047Y-71165244D01*
X123994047Y-71165244D02*
X124041666Y-71189054D01*
X124041666Y-71189054D02*
X124232142Y-71189054D01*
X123470237Y-71427149D02*
X123755951Y-71427149D01*
X123613094Y-71427149D02*
X123613094Y-70927149D01*
X123613094Y-70927149D02*
X123660713Y-70998578D01*
X123660713Y-70998578D02*
X123708332Y-71046197D01*
X123708332Y-71046197D02*
X123755951Y-71070006D01*
X123303571Y-70927149D02*
X122970238Y-70927149D01*
X122970238Y-70927149D02*
X123184523Y-71427149D01*
D10*
X119059523Y-69454819D02*
X118821428Y-70454819D01*
X118821428Y-70454819D02*
X118630952Y-69740533D01*
X118630952Y-69740533D02*
X118440476Y-70454819D01*
X118440476Y-70454819D02*
X118202381Y-69454819D01*
X117869047Y-70407200D02*
X117726190Y-70454819D01*
X117726190Y-70454819D02*
X117488095Y-70454819D01*
X117488095Y-70454819D02*
X117392857Y-70407200D01*
X117392857Y-70407200D02*
X117345238Y-70359580D01*
X117345238Y-70359580D02*
X117297619Y-70264342D01*
X117297619Y-70264342D02*
X117297619Y-70169104D01*
X117297619Y-70169104D02*
X117345238Y-70073866D01*
X117345238Y-70073866D02*
X117392857Y-70026247D01*
X117392857Y-70026247D02*
X117488095Y-69978628D01*
X117488095Y-69978628D02*
X117678571Y-69931009D01*
X117678571Y-69931009D02*
X117773809Y-69883390D01*
X117773809Y-69883390D02*
X117821428Y-69835771D01*
X117821428Y-69835771D02*
X117869047Y-69740533D01*
X117869047Y-69740533D02*
X117869047Y-69645295D01*
X117869047Y-69645295D02*
X117821428Y-69550057D01*
X117821428Y-69550057D02*
X117773809Y-69502438D01*
X117773809Y-69502438D02*
X117678571Y-69454819D01*
X117678571Y-69454819D02*
X117440476Y-69454819D01*
X117440476Y-69454819D02*
X117297619Y-69502438D01*
X116916666Y-69550057D02*
X116869047Y-69502438D01*
X116869047Y-69502438D02*
X116773809Y-69454819D01*
X116773809Y-69454819D02*
X116535714Y-69454819D01*
X116535714Y-69454819D02*
X116440476Y-69502438D01*
X116440476Y-69502438D02*
X116392857Y-69550057D01*
X116392857Y-69550057D02*
X116345238Y-69645295D01*
X116345238Y-69645295D02*
X116345238Y-69740533D01*
X116345238Y-69740533D02*
X116392857Y-69883390D01*
X116392857Y-69883390D02*
X116964285Y-70454819D01*
X116964285Y-70454819D02*
X116345238Y-70454819D01*
X115773809Y-69883390D02*
X115869047Y-69835771D01*
X115869047Y-69835771D02*
X115916666Y-69788152D01*
X115916666Y-69788152D02*
X115964285Y-69692914D01*
X115964285Y-69692914D02*
X115964285Y-69645295D01*
X115964285Y-69645295D02*
X115916666Y-69550057D01*
X115916666Y-69550057D02*
X115869047Y-69502438D01*
X115869047Y-69502438D02*
X115773809Y-69454819D01*
X115773809Y-69454819D02*
X115583333Y-69454819D01*
X115583333Y-69454819D02*
X115488095Y-69502438D01*
X115488095Y-69502438D02*
X115440476Y-69550057D01*
X115440476Y-69550057D02*
X115392857Y-69645295D01*
X115392857Y-69645295D02*
X115392857Y-69692914D01*
X115392857Y-69692914D02*
X115440476Y-69788152D01*
X115440476Y-69788152D02*
X115488095Y-69835771D01*
X115488095Y-69835771D02*
X115583333Y-69883390D01*
X115583333Y-69883390D02*
X115773809Y-69883390D01*
X115773809Y-69883390D02*
X115869047Y-69931009D01*
X115869047Y-69931009D02*
X115916666Y-69978628D01*
X115916666Y-69978628D02*
X115964285Y-70073866D01*
X115964285Y-70073866D02*
X115964285Y-70264342D01*
X115964285Y-70264342D02*
X115916666Y-70359580D01*
X115916666Y-70359580D02*
X115869047Y-70407200D01*
X115869047Y-70407200D02*
X115773809Y-70454819D01*
X115773809Y-70454819D02*
X115583333Y-70454819D01*
X115583333Y-70454819D02*
X115488095Y-70407200D01*
X115488095Y-70407200D02*
X115440476Y-70359580D01*
X115440476Y-70359580D02*
X115392857Y-70264342D01*
X115392857Y-70264342D02*
X115392857Y-70073866D01*
X115392857Y-70073866D02*
X115440476Y-69978628D01*
X115440476Y-69978628D02*
X115488095Y-69931009D01*
X115488095Y-69931009D02*
X115583333Y-69883390D01*
X114440476Y-70454819D02*
X115011904Y-70454819D01*
X114726190Y-70454819D02*
X114726190Y-69454819D01*
X114726190Y-69454819D02*
X114821428Y-69597676D01*
X114821428Y-69597676D02*
X114916666Y-69692914D01*
X114916666Y-69692914D02*
X115011904Y-69740533D01*
X114059523Y-69550057D02*
X114011904Y-69502438D01*
X114011904Y-69502438D02*
X113916666Y-69454819D01*
X113916666Y-69454819D02*
X113678571Y-69454819D01*
X113678571Y-69454819D02*
X113583333Y-69502438D01*
X113583333Y-69502438D02*
X113535714Y-69550057D01*
X113535714Y-69550057D02*
X113488095Y-69645295D01*
X113488095Y-69645295D02*
X113488095Y-69740533D01*
X113488095Y-69740533D02*
X113535714Y-69883390D01*
X113535714Y-69883390D02*
X114107142Y-70454819D01*
X114107142Y-70454819D02*
X113488095Y-70454819D01*
X112726190Y-69931009D02*
X112583333Y-69978628D01*
X112583333Y-69978628D02*
X112535714Y-70026247D01*
X112535714Y-70026247D02*
X112488095Y-70121485D01*
X112488095Y-70121485D02*
X112488095Y-70264342D01*
X112488095Y-70264342D02*
X112535714Y-70359580D01*
X112535714Y-70359580D02*
X112583333Y-70407200D01*
X112583333Y-70407200D02*
X112678571Y-70454819D01*
X112678571Y-70454819D02*
X113059523Y-70454819D01*
X113059523Y-70454819D02*
X113059523Y-69454819D01*
X113059523Y-69454819D02*
X112726190Y-69454819D01*
X112726190Y-69454819D02*
X112630952Y-69502438D01*
X112630952Y-69502438D02*
X112583333Y-69550057D01*
X112583333Y-69550057D02*
X112535714Y-69645295D01*
X112535714Y-69645295D02*
X112535714Y-69740533D01*
X112535714Y-69740533D02*
X112583333Y-69835771D01*
X112583333Y-69835771D02*
X112630952Y-69883390D01*
X112630952Y-69883390D02*
X112726190Y-69931009D01*
X112726190Y-69931009D02*
X113059523Y-69931009D01*
X116340475Y-74362295D02*
X116340475Y-73562295D01*
X116340475Y-73562295D02*
X116149999Y-73562295D01*
X116149999Y-73562295D02*
X116035713Y-73600390D01*
X116035713Y-73600390D02*
X115959523Y-73676580D01*
X115959523Y-73676580D02*
X115921428Y-73752771D01*
X115921428Y-73752771D02*
X115883332Y-73905152D01*
X115883332Y-73905152D02*
X115883332Y-74019438D01*
X115883332Y-74019438D02*
X115921428Y-74171819D01*
X115921428Y-74171819D02*
X115959523Y-74248009D01*
X115959523Y-74248009D02*
X116035713Y-74324200D01*
X116035713Y-74324200D02*
X116149999Y-74362295D01*
X116149999Y-74362295D02*
X116340475Y-74362295D01*
X115121428Y-74362295D02*
X115578571Y-74362295D01*
X115349999Y-74362295D02*
X115349999Y-73562295D01*
X115349999Y-73562295D02*
X115426190Y-73676580D01*
X115426190Y-73676580D02*
X115502380Y-73752771D01*
X115502380Y-73752771D02*
X115578571Y-73790866D01*
X112209524Y-77029580D02*
X112257143Y-77077200D01*
X112257143Y-77077200D02*
X112400000Y-77124819D01*
X112400000Y-77124819D02*
X112495238Y-77124819D01*
X112495238Y-77124819D02*
X112638095Y-77077200D01*
X112638095Y-77077200D02*
X112733333Y-76981961D01*
X112733333Y-76981961D02*
X112780952Y-76886723D01*
X112780952Y-76886723D02*
X112828571Y-76696247D01*
X112828571Y-76696247D02*
X112828571Y-76553390D01*
X112828571Y-76553390D02*
X112780952Y-76362914D01*
X112780952Y-76362914D02*
X112733333Y-76267676D01*
X112733333Y-76267676D02*
X112638095Y-76172438D01*
X112638095Y-76172438D02*
X112495238Y-76124819D01*
X112495238Y-76124819D02*
X112400000Y-76124819D01*
X112400000Y-76124819D02*
X112257143Y-76172438D01*
X112257143Y-76172438D02*
X112209524Y-76220057D01*
X111638095Y-77124819D02*
X111733333Y-77077200D01*
X111733333Y-77077200D02*
X111780952Y-77029580D01*
X111780952Y-77029580D02*
X111828571Y-76934342D01*
X111828571Y-76934342D02*
X111828571Y-76648628D01*
X111828571Y-76648628D02*
X111780952Y-76553390D01*
X111780952Y-76553390D02*
X111733333Y-76505771D01*
X111733333Y-76505771D02*
X111638095Y-76458152D01*
X111638095Y-76458152D02*
X111495238Y-76458152D01*
X111495238Y-76458152D02*
X111400000Y-76505771D01*
X111400000Y-76505771D02*
X111352381Y-76553390D01*
X111352381Y-76553390D02*
X111304762Y-76648628D01*
X111304762Y-76648628D02*
X111304762Y-76934342D01*
X111304762Y-76934342D02*
X111352381Y-77029580D01*
X111352381Y-77029580D02*
X111400000Y-77077200D01*
X111400000Y-77077200D02*
X111495238Y-77124819D01*
X111495238Y-77124819D02*
X111638095Y-77124819D01*
X110876190Y-76458152D02*
X110876190Y-77124819D01*
X110876190Y-76553390D02*
X110828571Y-76505771D01*
X110828571Y-76505771D02*
X110733333Y-76458152D01*
X110733333Y-76458152D02*
X110590476Y-76458152D01*
X110590476Y-76458152D02*
X110495238Y-76505771D01*
X110495238Y-76505771D02*
X110447619Y-76601009D01*
X110447619Y-76601009D02*
X110447619Y-77124819D01*
X109971428Y-76458152D02*
X109971428Y-77124819D01*
X109971428Y-76553390D02*
X109923809Y-76505771D01*
X109923809Y-76505771D02*
X109828571Y-76458152D01*
X109828571Y-76458152D02*
X109685714Y-76458152D01*
X109685714Y-76458152D02*
X109590476Y-76505771D01*
X109590476Y-76505771D02*
X109542857Y-76601009D01*
X109542857Y-76601009D02*
X109542857Y-77124819D01*
X109304762Y-77220057D02*
X108542857Y-77220057D01*
X108114285Y-76124819D02*
X108019047Y-76124819D01*
X108019047Y-76124819D02*
X107923809Y-76172438D01*
X107923809Y-76172438D02*
X107876190Y-76220057D01*
X107876190Y-76220057D02*
X107828571Y-76315295D01*
X107828571Y-76315295D02*
X107780952Y-76505771D01*
X107780952Y-76505771D02*
X107780952Y-76743866D01*
X107780952Y-76743866D02*
X107828571Y-76934342D01*
X107828571Y-76934342D02*
X107876190Y-77029580D01*
X107876190Y-77029580D02*
X107923809Y-77077200D01*
X107923809Y-77077200D02*
X108019047Y-77124819D01*
X108019047Y-77124819D02*
X108114285Y-77124819D01*
X108114285Y-77124819D02*
X108209523Y-77077200D01*
X108209523Y-77077200D02*
X108257142Y-77029580D01*
X108257142Y-77029580D02*
X108304761Y-76934342D01*
X108304761Y-76934342D02*
X108352380Y-76743866D01*
X108352380Y-76743866D02*
X108352380Y-76505771D01*
X108352380Y-76505771D02*
X108304761Y-76315295D01*
X108304761Y-76315295D02*
X108257142Y-76220057D01*
X108257142Y-76220057D02*
X108209523Y-76172438D01*
X108209523Y-76172438D02*
X108114285Y-76124819D01*
X106828571Y-77124819D02*
X107399999Y-77124819D01*
X107114285Y-77124819D02*
X107114285Y-76124819D01*
X107114285Y-76124819D02*
X107209523Y-76267676D01*
X107209523Y-76267676D02*
X107304761Y-76362914D01*
X107304761Y-76362914D02*
X107399999Y-76410533D01*
X106495237Y-77124819D02*
X105971428Y-76458152D01*
X106495237Y-76458152D02*
X105971428Y-77124819D01*
X105399999Y-76124819D02*
X105304761Y-76124819D01*
X105304761Y-76124819D02*
X105209523Y-76172438D01*
X105209523Y-76172438D02*
X105161904Y-76220057D01*
X105161904Y-76220057D02*
X105114285Y-76315295D01*
X105114285Y-76315295D02*
X105066666Y-76505771D01*
X105066666Y-76505771D02*
X105066666Y-76743866D01*
X105066666Y-76743866D02*
X105114285Y-76934342D01*
X105114285Y-76934342D02*
X105161904Y-77029580D01*
X105161904Y-77029580D02*
X105209523Y-77077200D01*
X105209523Y-77077200D02*
X105304761Y-77124819D01*
X105304761Y-77124819D02*
X105399999Y-77124819D01*
X105399999Y-77124819D02*
X105495237Y-77077200D01*
X105495237Y-77077200D02*
X105542856Y-77029580D01*
X105542856Y-77029580D02*
X105590475Y-76934342D01*
X105590475Y-76934342D02*
X105638094Y-76743866D01*
X105638094Y-76743866D02*
X105638094Y-76505771D01*
X105638094Y-76505771D02*
X105590475Y-76315295D01*
X105590475Y-76315295D02*
X105542856Y-76220057D01*
X105542856Y-76220057D02*
X105495237Y-76172438D01*
X105495237Y-76172438D02*
X105399999Y-76124819D01*
X104733332Y-76124819D02*
X104066666Y-76124819D01*
X104066666Y-76124819D02*
X104495237Y-77124819D01*
X103923809Y-77220057D02*
X103161904Y-77220057D01*
X102923808Y-77124819D02*
X102923808Y-76124819D01*
X102923808Y-76124819D02*
X102542856Y-76124819D01*
X102542856Y-76124819D02*
X102447618Y-76172438D01*
X102447618Y-76172438D02*
X102399999Y-76220057D01*
X102399999Y-76220057D02*
X102352380Y-76315295D01*
X102352380Y-76315295D02*
X102352380Y-76458152D01*
X102352380Y-76458152D02*
X102399999Y-76553390D01*
X102399999Y-76553390D02*
X102447618Y-76601009D01*
X102447618Y-76601009D02*
X102542856Y-76648628D01*
X102542856Y-76648628D02*
X102923808Y-76648628D01*
X101923808Y-77124819D02*
X101923808Y-76458152D01*
X101923808Y-76124819D02*
X101971427Y-76172438D01*
X101971427Y-76172438D02*
X101923808Y-76220057D01*
X101923808Y-76220057D02*
X101876189Y-76172438D01*
X101876189Y-76172438D02*
X101923808Y-76124819D01*
X101923808Y-76124819D02*
X101923808Y-76220057D01*
X101447618Y-76458152D02*
X101447618Y-77124819D01*
X101447618Y-76553390D02*
X101399999Y-76505771D01*
X101399999Y-76505771D02*
X101304761Y-76458152D01*
X101304761Y-76458152D02*
X101161904Y-76458152D01*
X101161904Y-76458152D02*
X101066666Y-76505771D01*
X101066666Y-76505771D02*
X101019047Y-76601009D01*
X101019047Y-76601009D02*
X101019047Y-77124819D01*
X106354819Y-86286666D02*
X107069104Y-86286666D01*
X107069104Y-86286666D02*
X107211961Y-86239047D01*
X107211961Y-86239047D02*
X107307200Y-86143809D01*
X107307200Y-86143809D02*
X107354819Y-86000952D01*
X107354819Y-86000952D02*
X107354819Y-85905714D01*
X106688152Y-87191428D02*
X107354819Y-87191428D01*
X106307200Y-86953333D02*
X107021485Y-86715238D01*
X107021485Y-86715238D02*
X107021485Y-87334285D01*
X108524819Y-79404761D02*
X108524819Y-78833333D01*
X108524819Y-79119047D02*
X107524819Y-79119047D01*
X107524819Y-79119047D02*
X107667676Y-79023809D01*
X107667676Y-79023809D02*
X107762914Y-78928571D01*
X107762914Y-78928571D02*
X107810533Y-78833333D01*
X107524819Y-80023809D02*
X107524819Y-80119047D01*
X107524819Y-80119047D02*
X107572438Y-80214285D01*
X107572438Y-80214285D02*
X107620057Y-80261904D01*
X107620057Y-80261904D02*
X107715295Y-80309523D01*
X107715295Y-80309523D02*
X107905771Y-80357142D01*
X107905771Y-80357142D02*
X108143866Y-80357142D01*
X108143866Y-80357142D02*
X108334342Y-80309523D01*
X108334342Y-80309523D02*
X108429580Y-80261904D01*
X108429580Y-80261904D02*
X108477200Y-80214285D01*
X108477200Y-80214285D02*
X108524819Y-80119047D01*
X108524819Y-80119047D02*
X108524819Y-80023809D01*
X108524819Y-80023809D02*
X108477200Y-79928571D01*
X108477200Y-79928571D02*
X108429580Y-79880952D01*
X108429580Y-79880952D02*
X108334342Y-79833333D01*
X108334342Y-79833333D02*
X108143866Y-79785714D01*
X108143866Y-79785714D02*
X107905771Y-79785714D01*
X107905771Y-79785714D02*
X107715295Y-79833333D01*
X107715295Y-79833333D02*
X107620057Y-79880952D01*
X107620057Y-79880952D02*
X107572438Y-79928571D01*
X107572438Y-79928571D02*
X107524819Y-80023809D01*
X108524819Y-80785714D02*
X107524819Y-80785714D01*
X108143866Y-80880952D02*
X108524819Y-81166666D01*
X107858152Y-81166666D02*
X108239104Y-80785714D01*
D12*
X109681927Y-79933333D02*
X109491451Y-79800000D01*
X109681927Y-79704762D02*
X109281927Y-79704762D01*
X109281927Y-79704762D02*
X109281927Y-79857143D01*
X109281927Y-79857143D02*
X109300975Y-79895238D01*
X109300975Y-79895238D02*
X109320022Y-79914285D01*
X109320022Y-79914285D02*
X109358118Y-79933333D01*
X109358118Y-79933333D02*
X109415260Y-79933333D01*
X109415260Y-79933333D02*
X109453356Y-79914285D01*
X109453356Y-79914285D02*
X109472403Y-79895238D01*
X109472403Y-79895238D02*
X109491451Y-79857143D01*
X109491451Y-79857143D02*
X109491451Y-79704762D01*
X109281927Y-80066666D02*
X109281927Y-80314285D01*
X109281927Y-80314285D02*
X109434308Y-80180952D01*
X109434308Y-80180952D02*
X109434308Y-80238095D01*
X109434308Y-80238095D02*
X109453356Y-80276190D01*
X109453356Y-80276190D02*
X109472403Y-80295238D01*
X109472403Y-80295238D02*
X109510499Y-80314285D01*
X109510499Y-80314285D02*
X109605737Y-80314285D01*
X109605737Y-80314285D02*
X109643832Y-80295238D01*
X109643832Y-80295238D02*
X109662880Y-80276190D01*
X109662880Y-80276190D02*
X109681927Y-80238095D01*
X109681927Y-80238095D02*
X109681927Y-80123809D01*
X109681927Y-80123809D02*
X109662880Y-80085714D01*
X109662880Y-80085714D02*
X109643832Y-80066666D01*
D10*
X111384819Y-83604761D02*
X111384819Y-83033333D01*
X111384819Y-83319047D02*
X110384819Y-83319047D01*
X110384819Y-83319047D02*
X110527676Y-83223809D01*
X110527676Y-83223809D02*
X110622914Y-83128571D01*
X110622914Y-83128571D02*
X110670533Y-83033333D01*
X110384819Y-84223809D02*
X110384819Y-84319047D01*
X110384819Y-84319047D02*
X110432438Y-84414285D01*
X110432438Y-84414285D02*
X110480057Y-84461904D01*
X110480057Y-84461904D02*
X110575295Y-84509523D01*
X110575295Y-84509523D02*
X110765771Y-84557142D01*
X110765771Y-84557142D02*
X111003866Y-84557142D01*
X111003866Y-84557142D02*
X111194342Y-84509523D01*
X111194342Y-84509523D02*
X111289580Y-84461904D01*
X111289580Y-84461904D02*
X111337200Y-84414285D01*
X111337200Y-84414285D02*
X111384819Y-84319047D01*
X111384819Y-84319047D02*
X111384819Y-84223809D01*
X111384819Y-84223809D02*
X111337200Y-84128571D01*
X111337200Y-84128571D02*
X111289580Y-84080952D01*
X111289580Y-84080952D02*
X111194342Y-84033333D01*
X111194342Y-84033333D02*
X111003866Y-83985714D01*
X111003866Y-83985714D02*
X110765771Y-83985714D01*
X110765771Y-83985714D02*
X110575295Y-84033333D01*
X110575295Y-84033333D02*
X110480057Y-84080952D01*
X110480057Y-84080952D02*
X110432438Y-84128571D01*
X110432438Y-84128571D02*
X110384819Y-84223809D01*
X111384819Y-84985714D02*
X110384819Y-84985714D01*
X111003866Y-85080952D02*
X111384819Y-85366666D01*
X110718152Y-85366666D02*
X111099104Y-84985714D01*
D12*
X109681927Y-84133333D02*
X109491451Y-84000000D01*
X109681927Y-83904762D02*
X109281927Y-83904762D01*
X109281927Y-83904762D02*
X109281927Y-84057143D01*
X109281927Y-84057143D02*
X109300975Y-84095238D01*
X109300975Y-84095238D02*
X109320022Y-84114285D01*
X109320022Y-84114285D02*
X109358118Y-84133333D01*
X109358118Y-84133333D02*
X109415260Y-84133333D01*
X109415260Y-84133333D02*
X109453356Y-84114285D01*
X109453356Y-84114285D02*
X109472403Y-84095238D01*
X109472403Y-84095238D02*
X109491451Y-84057143D01*
X109491451Y-84057143D02*
X109491451Y-83904762D01*
X109281927Y-84266666D02*
X109281927Y-84533333D01*
X109281927Y-84533333D02*
X109681927Y-84361904D01*
D10*
X119786904Y-77720057D02*
X119739285Y-77672438D01*
X119739285Y-77672438D02*
X119644047Y-77624819D01*
X119644047Y-77624819D02*
X119405952Y-77624819D01*
X119405952Y-77624819D02*
X119310714Y-77672438D01*
X119310714Y-77672438D02*
X119263095Y-77720057D01*
X119263095Y-77720057D02*
X119215476Y-77815295D01*
X119215476Y-77815295D02*
X119215476Y-77910533D01*
X119215476Y-77910533D02*
X119263095Y-78053390D01*
X119263095Y-78053390D02*
X119834523Y-78624819D01*
X119834523Y-78624819D02*
X119215476Y-78624819D01*
X118834523Y-77720057D02*
X118786904Y-77672438D01*
X118786904Y-77672438D02*
X118691666Y-77624819D01*
X118691666Y-77624819D02*
X118453571Y-77624819D01*
X118453571Y-77624819D02*
X118358333Y-77672438D01*
X118358333Y-77672438D02*
X118310714Y-77720057D01*
X118310714Y-77720057D02*
X118263095Y-77815295D01*
X118263095Y-77815295D02*
X118263095Y-77910533D01*
X118263095Y-77910533D02*
X118310714Y-78053390D01*
X118310714Y-78053390D02*
X118882142Y-78624819D01*
X118882142Y-78624819D02*
X118263095Y-78624819D01*
D12*
X119282142Y-79781927D02*
X119415475Y-79591451D01*
X119510713Y-79781927D02*
X119510713Y-79381927D01*
X119510713Y-79381927D02*
X119358332Y-79381927D01*
X119358332Y-79381927D02*
X119320237Y-79400975D01*
X119320237Y-79400975D02*
X119301190Y-79420022D01*
X119301190Y-79420022D02*
X119282142Y-79458118D01*
X119282142Y-79458118D02*
X119282142Y-79515260D01*
X119282142Y-79515260D02*
X119301190Y-79553356D01*
X119301190Y-79553356D02*
X119320237Y-79572403D01*
X119320237Y-79572403D02*
X119358332Y-79591451D01*
X119358332Y-79591451D02*
X119510713Y-79591451D01*
X118901190Y-79781927D02*
X119129761Y-79781927D01*
X119015475Y-79781927D02*
X119015475Y-79381927D01*
X119015475Y-79381927D02*
X119053571Y-79439070D01*
X119053571Y-79439070D02*
X119091666Y-79477165D01*
X119091666Y-79477165D02*
X119129761Y-79496213D01*
X118672619Y-79553356D02*
X118710714Y-79534308D01*
X118710714Y-79534308D02*
X118729761Y-79515260D01*
X118729761Y-79515260D02*
X118748809Y-79477165D01*
X118748809Y-79477165D02*
X118748809Y-79458118D01*
X118748809Y-79458118D02*
X118729761Y-79420022D01*
X118729761Y-79420022D02*
X118710714Y-79400975D01*
X118710714Y-79400975D02*
X118672619Y-79381927D01*
X118672619Y-79381927D02*
X118596428Y-79381927D01*
X118596428Y-79381927D02*
X118558333Y-79400975D01*
X118558333Y-79400975D02*
X118539285Y-79420022D01*
X118539285Y-79420022D02*
X118520238Y-79458118D01*
X118520238Y-79458118D02*
X118520238Y-79477165D01*
X118520238Y-79477165D02*
X118539285Y-79515260D01*
X118539285Y-79515260D02*
X118558333Y-79534308D01*
X118558333Y-79534308D02*
X118596428Y-79553356D01*
X118596428Y-79553356D02*
X118672619Y-79553356D01*
X118672619Y-79553356D02*
X118710714Y-79572403D01*
X118710714Y-79572403D02*
X118729761Y-79591451D01*
X118729761Y-79591451D02*
X118748809Y-79629546D01*
X118748809Y-79629546D02*
X118748809Y-79705737D01*
X118748809Y-79705737D02*
X118729761Y-79743832D01*
X118729761Y-79743832D02*
X118710714Y-79762880D01*
X118710714Y-79762880D02*
X118672619Y-79781927D01*
X118672619Y-79781927D02*
X118596428Y-79781927D01*
X118596428Y-79781927D02*
X118558333Y-79762880D01*
X118558333Y-79762880D02*
X118539285Y-79743832D01*
X118539285Y-79743832D02*
X118520238Y-79705737D01*
X118520238Y-79705737D02*
X118520238Y-79629546D01*
X118520238Y-79629546D02*
X118539285Y-79591451D01*
X118539285Y-79591451D02*
X118558333Y-79572403D01*
X118558333Y-79572403D02*
X118596428Y-79553356D01*
D10*
X117524999Y-83549819D02*
X117524999Y-82549819D01*
X117524999Y-82549819D02*
X117191666Y-83264104D01*
X117191666Y-83264104D02*
X116858333Y-82549819D01*
X116858333Y-82549819D02*
X116858333Y-83549819D01*
X116524999Y-82549819D02*
X115953571Y-82549819D01*
X116239285Y-83549819D02*
X116239285Y-82549819D01*
X115191666Y-82549819D02*
X115382142Y-82549819D01*
X115382142Y-82549819D02*
X115477380Y-82597438D01*
X115477380Y-82597438D02*
X115524999Y-82645057D01*
X115524999Y-82645057D02*
X115620237Y-82787914D01*
X115620237Y-82787914D02*
X115667856Y-82978390D01*
X115667856Y-82978390D02*
X115667856Y-83359342D01*
X115667856Y-83359342D02*
X115620237Y-83454580D01*
X115620237Y-83454580D02*
X115572618Y-83502200D01*
X115572618Y-83502200D02*
X115477380Y-83549819D01*
X115477380Y-83549819D02*
X115286904Y-83549819D01*
X115286904Y-83549819D02*
X115191666Y-83502200D01*
X115191666Y-83502200D02*
X115144047Y-83454580D01*
X115144047Y-83454580D02*
X115096428Y-83359342D01*
X115096428Y-83359342D02*
X115096428Y-83121247D01*
X115096428Y-83121247D02*
X115144047Y-83026009D01*
X115144047Y-83026009D02*
X115191666Y-82978390D01*
X115191666Y-82978390D02*
X115286904Y-82930771D01*
X115286904Y-82930771D02*
X115477380Y-82930771D01*
X115477380Y-82930771D02*
X115572618Y-82978390D01*
X115572618Y-82978390D02*
X115620237Y-83026009D01*
X115620237Y-83026009D02*
X115667856Y-83121247D01*
X114763094Y-82549819D02*
X114096428Y-82549819D01*
X114096428Y-82549819D02*
X114524999Y-83549819D01*
X113524999Y-82549819D02*
X113429761Y-82549819D01*
X113429761Y-82549819D02*
X113334523Y-82597438D01*
X113334523Y-82597438D02*
X113286904Y-82645057D01*
X113286904Y-82645057D02*
X113239285Y-82740295D01*
X113239285Y-82740295D02*
X113191666Y-82930771D01*
X113191666Y-82930771D02*
X113191666Y-83168866D01*
X113191666Y-83168866D02*
X113239285Y-83359342D01*
X113239285Y-83359342D02*
X113286904Y-83454580D01*
X113286904Y-83454580D02*
X113334523Y-83502200D01*
X113334523Y-83502200D02*
X113429761Y-83549819D01*
X113429761Y-83549819D02*
X113524999Y-83549819D01*
X113524999Y-83549819D02*
X113620237Y-83502200D01*
X113620237Y-83502200D02*
X113667856Y-83454580D01*
X113667856Y-83454580D02*
X113715475Y-83359342D01*
X113715475Y-83359342D02*
X113763094Y-83168866D01*
X113763094Y-83168866D02*
X113763094Y-82930771D01*
X113763094Y-82930771D02*
X113715475Y-82740295D01*
X113715475Y-82740295D02*
X113667856Y-82645057D01*
X113667856Y-82645057D02*
X113620237Y-82597438D01*
X113620237Y-82597438D02*
X113524999Y-82549819D01*
X112239285Y-83549819D02*
X112810713Y-83549819D01*
X112524999Y-83549819D02*
X112524999Y-82549819D01*
X112524999Y-82549819D02*
X112620237Y-82692676D01*
X112620237Y-82692676D02*
X112715475Y-82787914D01*
X112715475Y-82787914D02*
X112810713Y-82835533D01*
X111239285Y-83454580D02*
X111286904Y-83502200D01*
X111286904Y-83502200D02*
X111429761Y-83549819D01*
X111429761Y-83549819D02*
X111524999Y-83549819D01*
X111524999Y-83549819D02*
X111667856Y-83502200D01*
X111667856Y-83502200D02*
X111763094Y-83406961D01*
X111763094Y-83406961D02*
X111810713Y-83311723D01*
X111810713Y-83311723D02*
X111858332Y-83121247D01*
X111858332Y-83121247D02*
X111858332Y-82978390D01*
X111858332Y-82978390D02*
X111810713Y-82787914D01*
X111810713Y-82787914D02*
X111763094Y-82692676D01*
X111763094Y-82692676D02*
X111667856Y-82597438D01*
X111667856Y-82597438D02*
X111524999Y-82549819D01*
X111524999Y-82549819D02*
X111429761Y-82549819D01*
X111429761Y-82549819D02*
X111286904Y-82597438D01*
X111286904Y-82597438D02*
X111239285Y-82645057D01*
X110953570Y-82549819D02*
X110382142Y-82549819D01*
X110667856Y-83549819D02*
X110667856Y-82549819D01*
X114771666Y-79160566D02*
X114771666Y-79953900D01*
X114771666Y-79953900D02*
X114725000Y-80047233D01*
X114725000Y-80047233D02*
X114678333Y-80093900D01*
X114678333Y-80093900D02*
X114585000Y-80140566D01*
X114585000Y-80140566D02*
X114398333Y-80140566D01*
X114398333Y-80140566D02*
X114305000Y-80093900D01*
X114305000Y-80093900D02*
X114258333Y-80047233D01*
X114258333Y-80047233D02*
X114211666Y-79953900D01*
X114211666Y-79953900D02*
X114211666Y-79160566D01*
X113324999Y-79160566D02*
X113511666Y-79160566D01*
X113511666Y-79160566D02*
X113604999Y-79207233D01*
X113604999Y-79207233D02*
X113651666Y-79253900D01*
X113651666Y-79253900D02*
X113744999Y-79393900D01*
X113744999Y-79393900D02*
X113791666Y-79580566D01*
X113791666Y-79580566D02*
X113791666Y-79953900D01*
X113791666Y-79953900D02*
X113744999Y-80047233D01*
X113744999Y-80047233D02*
X113698333Y-80093900D01*
X113698333Y-80093900D02*
X113604999Y-80140566D01*
X113604999Y-80140566D02*
X113418333Y-80140566D01*
X113418333Y-80140566D02*
X113324999Y-80093900D01*
X113324999Y-80093900D02*
X113278333Y-80047233D01*
X113278333Y-80047233D02*
X113231666Y-79953900D01*
X113231666Y-79953900D02*
X113231666Y-79720566D01*
X113231666Y-79720566D02*
X113278333Y-79627233D01*
X113278333Y-79627233D02*
X113324999Y-79580566D01*
X113324999Y-79580566D02*
X113418333Y-79533900D01*
X113418333Y-79533900D02*
X113604999Y-79533900D01*
X113604999Y-79533900D02*
X113698333Y-79580566D01*
X113698333Y-79580566D02*
X113744999Y-79627233D01*
X113744999Y-79627233D02*
X113791666Y-79720566D01*
D15*
%TO.C,J3*%
X120930000Y-77730000D02*
X123470000Y-77730000D01*
X120930000Y-94875000D02*
X120930000Y-77730000D01*
X121565000Y-95510000D02*
X120930000Y-94875000D01*
X123470000Y-77730000D02*
X123470000Y-95510000D01*
X123470000Y-95510000D02*
X121565000Y-95510000D01*
%TO.C,C3*%
X110975000Y-85800000D02*
X112225000Y-85800000D01*
X110975000Y-87800000D02*
X110975000Y-85800000D01*
X112225000Y-85800000D02*
X112225000Y-87800000D01*
X112225000Y-87800000D02*
X110975000Y-87800000D01*
%TO.C,R21*%
X120175000Y-69000000D02*
X121425000Y-69000000D01*
X120175000Y-71000000D02*
X120175000Y-69000000D01*
X121425000Y-69000000D02*
X121425000Y-71000000D01*
X121425000Y-71000000D02*
X120175000Y-71000000D01*
%TO.C,D6*%
X105800000Y-65650000D02*
X105800000Y-70650000D01*
X105800000Y-70650000D02*
X110800000Y-70650000D01*
X109800000Y-65650000D02*
X110800000Y-66650000D01*
X110800000Y-65650000D02*
X105800000Y-65650000D01*
X110800000Y-70650000D02*
X110800000Y-65650000D01*
X110300000Y-68150000D02*
G75*
G02*
X106300000Y-68150000I-2000000J0D01*
G01*
X106300000Y-68150000D02*
G75*
G02*
X110300000Y-68150000I2000000J0D01*
G01*
%TO.C,R19*%
X116775000Y-86375000D02*
X118775000Y-86375000D01*
X116775000Y-87625000D02*
X116775000Y-86375000D01*
X118775000Y-86375000D02*
X118775000Y-87625000D01*
X118775000Y-87625000D02*
X116775000Y-87625000D01*
D16*
%TO.C,U5*%
X125475000Y-77150000D02*
X125475000Y-86850000D01*
X127175000Y-77150000D02*
X125475000Y-77150000D01*
X127275000Y-86850000D02*
X125475000Y-86850000D01*
X127575000Y-77550000D02*
X127575000Y-86550000D01*
X127175000Y-77150000D02*
G75*
G02*
X127575000Y-77550000I0J-400000D01*
G01*
X127575000Y-86550000D02*
G75*
G02*
X127275000Y-86850000I-300000J0D01*
G01*
D15*
%TO.C,R16*%
X122800000Y-72587500D02*
X124400000Y-72587500D01*
X122800000Y-73412500D02*
X122800000Y-72587500D01*
X124400000Y-72587500D02*
X124400000Y-73412500D01*
X124400000Y-73412500D02*
X122800000Y-73412500D01*
%TO.C,D2*%
X105800000Y-71500000D02*
X105800000Y-76500000D01*
X105800000Y-76500000D02*
X110800000Y-76500000D01*
X109800000Y-71500000D02*
X110800000Y-72500000D01*
X110800000Y-71500000D02*
X105800000Y-71500000D01*
X110800000Y-76500000D02*
X110800000Y-71500000D01*
X110300000Y-74000000D02*
G75*
G02*
X106300000Y-74000000I-2000000J0D01*
G01*
X106300000Y-74000000D02*
G75*
G02*
X110300000Y-74000000I2000000J0D01*
G01*
%TO.C,J2*%
X109865000Y-89330000D02*
X114945000Y-89330000D01*
X109865000Y-91870000D02*
X109865000Y-89330000D01*
X114310000Y-91870000D02*
X109865000Y-91870000D01*
X114945000Y-89330000D02*
X114945000Y-91235000D01*
X114945000Y-91235000D02*
X114310000Y-91870000D01*
%TO.C,Q1*%
X125637500Y-71987500D02*
X125962500Y-71662500D01*
X125637500Y-72962500D02*
X125637500Y-71987500D01*
X125962500Y-71662500D02*
X128537500Y-71662500D01*
X128537500Y-71662500D02*
X128537500Y-72962500D01*
X128537500Y-72962500D02*
X125637500Y-72962500D01*
%TO.C,SW2*%
X122499316Y-63965207D02*
X120853517Y-66230455D01*
X123627818Y-63858061D02*
X123186979Y-64464825D01*
X124251388Y-68699153D02*
X120853517Y-66230455D01*
X125650362Y-65327525D02*
X123627818Y-63858061D01*
X125650362Y-65327525D02*
X125209523Y-65934288D01*
X125897187Y-66433905D02*
X122499316Y-63965207D01*
X125897187Y-66433905D02*
X124251388Y-68699153D01*
%TO.C,R2*%
X113575000Y-83400000D02*
X114825000Y-83400000D01*
X113575000Y-85400000D02*
X113575000Y-83400000D01*
X114825000Y-83400000D02*
X114825000Y-85400000D01*
X114825000Y-85400000D02*
X113575000Y-85400000D01*
%TO.C,D7*%
X113350000Y-65650000D02*
X113350000Y-70650000D01*
X113350000Y-70650000D02*
X118350000Y-70650000D01*
X117350000Y-65650000D02*
X118350000Y-66650000D01*
X118350000Y-65650000D02*
X113350000Y-65650000D01*
X118350000Y-70650000D02*
X118350000Y-65650000D01*
X117850000Y-68150000D02*
G75*
G02*
X113850000Y-68150000I-2000000J0D01*
G01*
X113850000Y-68150000D02*
G75*
G02*
X117850000Y-68150000I2000000J0D01*
G01*
%TO.C,R17*%
X122625000Y-70575000D02*
X124625000Y-70575000D01*
X122625000Y-71825000D02*
X122625000Y-70575000D01*
X124625000Y-70575000D02*
X124625000Y-71825000D01*
X124625000Y-71825000D02*
X122625000Y-71825000D01*
%TO.C,D1*%
X113250000Y-71500000D02*
X113250000Y-76500000D01*
X113250000Y-76500000D02*
X118250000Y-76500000D01*
X117250000Y-71500000D02*
X118250000Y-72500000D01*
X118250000Y-71500000D02*
X113250000Y-71500000D01*
X118250000Y-76500000D02*
X118250000Y-71500000D01*
X117750000Y-74000000D02*
G75*
G02*
X113750000Y-74000000I-2000000J0D01*
G01*
X113750000Y-74000000D02*
G75*
G02*
X117750000Y-74000000I2000000J0D01*
G01*
%TO.C,J4*%
X105630000Y-77730000D02*
X108170000Y-77730000D01*
X105630000Y-94875000D02*
X105630000Y-77730000D01*
X106265000Y-95510000D02*
X105630000Y-94875000D01*
X108170000Y-77730000D02*
X108170000Y-95510000D01*
X108170000Y-95510000D02*
X106265000Y-95510000D01*
%TO.C,R3*%
X109087500Y-79200000D02*
X109912500Y-79200000D01*
X109087500Y-80800000D02*
X109087500Y-79200000D01*
X109912500Y-79200000D02*
X109912500Y-80800000D01*
X109912500Y-80800000D02*
X109087500Y-80800000D01*
%TO.C,R7*%
X109087500Y-83400000D02*
X109912500Y-83400000D01*
X109087500Y-85000000D02*
X109087500Y-83400000D01*
X109912500Y-83400000D02*
X109912500Y-85000000D01*
X109912500Y-85000000D02*
X109087500Y-85000000D01*
%TO.C,R18*%
X118225000Y-79187500D02*
X119825000Y-79187500D01*
X118225000Y-80012500D02*
X118225000Y-79187500D01*
X119825000Y-79187500D02*
X119825000Y-80012500D01*
X119825000Y-80012500D02*
X118225000Y-80012500D01*
%TO.C,U6*%
X112075000Y-77245000D02*
X115000000Y-77245000D01*
X112075000Y-82145000D02*
X112075000Y-77245000D01*
X115000000Y-77245000D02*
X115975000Y-78220000D01*
X115975000Y-78220000D02*
X115975000Y-82145000D01*
X115975000Y-82145000D02*
X112075000Y-82145000D01*
%TD*%
M02*
