%TF.GenerationSoftware,KiCad,Pcbnew,8.0.1*%
%TF.CreationDate,2024-04-01T21:43:51+02:00*%
%TF.ProjectId,SenseLoraCAM,53656e73-654c-46f7-9261-43414d2e6b69,rev?*%
%TF.SameCoordinates,Original*%
%TF.FileFunction,AssemblyDrawing,Top*%
%FSLAX46Y46*%
G04 Gerber Fmt 4.6, Leading zero omitted, Abs format (unit mm)*
G04 Created by KiCad (PCBNEW 8.0.1) date 2024-04-01 21:43:51*
%MOMM*%
%LPD*%
G01*
G04 APERTURE LIST*
%ADD10C,0.150000*%
%ADD11C,0.080000*%
%ADD12C,0.100000*%
G04 APERTURE END LIST*
D10*
X96011905Y-85354819D02*
X96011905Y-84354819D01*
X96011905Y-84354819D02*
X96345238Y-85069104D01*
X96345238Y-85069104D02*
X96678571Y-84354819D01*
X96678571Y-84354819D02*
X96678571Y-85354819D01*
X97488095Y-84831009D02*
X97630952Y-84878628D01*
X97630952Y-84878628D02*
X97678571Y-84926247D01*
X97678571Y-84926247D02*
X97726190Y-85021485D01*
X97726190Y-85021485D02*
X97726190Y-85164342D01*
X97726190Y-85164342D02*
X97678571Y-85259580D01*
X97678571Y-85259580D02*
X97630952Y-85307200D01*
X97630952Y-85307200D02*
X97535714Y-85354819D01*
X97535714Y-85354819D02*
X97154762Y-85354819D01*
X97154762Y-85354819D02*
X97154762Y-84354819D01*
X97154762Y-84354819D02*
X97488095Y-84354819D01*
X97488095Y-84354819D02*
X97583333Y-84402438D01*
X97583333Y-84402438D02*
X97630952Y-84450057D01*
X97630952Y-84450057D02*
X97678571Y-84545295D01*
X97678571Y-84545295D02*
X97678571Y-84640533D01*
X97678571Y-84640533D02*
X97630952Y-84735771D01*
X97630952Y-84735771D02*
X97583333Y-84783390D01*
X97583333Y-84783390D02*
X97488095Y-84831009D01*
X97488095Y-84831009D02*
X97154762Y-84831009D01*
X98726190Y-85354819D02*
X98392857Y-84878628D01*
X98154762Y-85354819D02*
X98154762Y-84354819D01*
X98154762Y-84354819D02*
X98535714Y-84354819D01*
X98535714Y-84354819D02*
X98630952Y-84402438D01*
X98630952Y-84402438D02*
X98678571Y-84450057D01*
X98678571Y-84450057D02*
X98726190Y-84545295D01*
X98726190Y-84545295D02*
X98726190Y-84688152D01*
X98726190Y-84688152D02*
X98678571Y-84783390D01*
X98678571Y-84783390D02*
X98630952Y-84831009D01*
X98630952Y-84831009D02*
X98535714Y-84878628D01*
X98535714Y-84878628D02*
X98154762Y-84878628D01*
X99345238Y-84354819D02*
X99440476Y-84354819D01*
X99440476Y-84354819D02*
X99535714Y-84402438D01*
X99535714Y-84402438D02*
X99583333Y-84450057D01*
X99583333Y-84450057D02*
X99630952Y-84545295D01*
X99630952Y-84545295D02*
X99678571Y-84735771D01*
X99678571Y-84735771D02*
X99678571Y-84973866D01*
X99678571Y-84973866D02*
X99630952Y-85164342D01*
X99630952Y-85164342D02*
X99583333Y-85259580D01*
X99583333Y-85259580D02*
X99535714Y-85307200D01*
X99535714Y-85307200D02*
X99440476Y-85354819D01*
X99440476Y-85354819D02*
X99345238Y-85354819D01*
X99345238Y-85354819D02*
X99250000Y-85307200D01*
X99250000Y-85307200D02*
X99202381Y-85259580D01*
X99202381Y-85259580D02*
X99154762Y-85164342D01*
X99154762Y-85164342D02*
X99107143Y-84973866D01*
X99107143Y-84973866D02*
X99107143Y-84735771D01*
X99107143Y-84735771D02*
X99154762Y-84545295D01*
X99154762Y-84545295D02*
X99202381Y-84450057D01*
X99202381Y-84450057D02*
X99250000Y-84402438D01*
X99250000Y-84402438D02*
X99345238Y-84354819D01*
X100583333Y-84354819D02*
X100107143Y-84354819D01*
X100107143Y-84354819D02*
X100059524Y-84831009D01*
X100059524Y-84831009D02*
X100107143Y-84783390D01*
X100107143Y-84783390D02*
X100202381Y-84735771D01*
X100202381Y-84735771D02*
X100440476Y-84735771D01*
X100440476Y-84735771D02*
X100535714Y-84783390D01*
X100535714Y-84783390D02*
X100583333Y-84831009D01*
X100583333Y-84831009D02*
X100630952Y-84926247D01*
X100630952Y-84926247D02*
X100630952Y-85164342D01*
X100630952Y-85164342D02*
X100583333Y-85259580D01*
X100583333Y-85259580D02*
X100535714Y-85307200D01*
X100535714Y-85307200D02*
X100440476Y-85354819D01*
X100440476Y-85354819D02*
X100202381Y-85354819D01*
X100202381Y-85354819D02*
X100107143Y-85307200D01*
X100107143Y-85307200D02*
X100059524Y-85259580D01*
X100964286Y-84354819D02*
X101583333Y-84354819D01*
X101583333Y-84354819D02*
X101250000Y-84735771D01*
X101250000Y-84735771D02*
X101392857Y-84735771D01*
X101392857Y-84735771D02*
X101488095Y-84783390D01*
X101488095Y-84783390D02*
X101535714Y-84831009D01*
X101535714Y-84831009D02*
X101583333Y-84926247D01*
X101583333Y-84926247D02*
X101583333Y-85164342D01*
X101583333Y-85164342D02*
X101535714Y-85259580D01*
X101535714Y-85259580D02*
X101488095Y-85307200D01*
X101488095Y-85307200D02*
X101392857Y-85354819D01*
X101392857Y-85354819D02*
X101107143Y-85354819D01*
X101107143Y-85354819D02*
X101011905Y-85307200D01*
X101011905Y-85307200D02*
X100964286Y-85259580D01*
X102202381Y-84354819D02*
X102297619Y-84354819D01*
X102297619Y-84354819D02*
X102392857Y-84402438D01*
X102392857Y-84402438D02*
X102440476Y-84450057D01*
X102440476Y-84450057D02*
X102488095Y-84545295D01*
X102488095Y-84545295D02*
X102535714Y-84735771D01*
X102535714Y-84735771D02*
X102535714Y-84973866D01*
X102535714Y-84973866D02*
X102488095Y-85164342D01*
X102488095Y-85164342D02*
X102440476Y-85259580D01*
X102440476Y-85259580D02*
X102392857Y-85307200D01*
X102392857Y-85307200D02*
X102297619Y-85354819D01*
X102297619Y-85354819D02*
X102202381Y-85354819D01*
X102202381Y-85354819D02*
X102107143Y-85307200D01*
X102107143Y-85307200D02*
X102059524Y-85259580D01*
X102059524Y-85259580D02*
X102011905Y-85164342D01*
X102011905Y-85164342D02*
X101964286Y-84973866D01*
X101964286Y-84973866D02*
X101964286Y-84735771D01*
X101964286Y-84735771D02*
X102011905Y-84545295D01*
X102011905Y-84545295D02*
X102059524Y-84450057D01*
X102059524Y-84450057D02*
X102107143Y-84402438D01*
X102107143Y-84402438D02*
X102202381Y-84354819D01*
X98411905Y-81604819D02*
X98411905Y-80604819D01*
X98411905Y-80604819D02*
X98650000Y-80604819D01*
X98650000Y-80604819D02*
X98792857Y-80652438D01*
X98792857Y-80652438D02*
X98888095Y-80747676D01*
X98888095Y-80747676D02*
X98935714Y-80842914D01*
X98935714Y-80842914D02*
X98983333Y-81033390D01*
X98983333Y-81033390D02*
X98983333Y-81176247D01*
X98983333Y-81176247D02*
X98935714Y-81366723D01*
X98935714Y-81366723D02*
X98888095Y-81461961D01*
X98888095Y-81461961D02*
X98792857Y-81557200D01*
X98792857Y-81557200D02*
X98650000Y-81604819D01*
X98650000Y-81604819D02*
X98411905Y-81604819D01*
X99888095Y-80604819D02*
X99411905Y-80604819D01*
X99411905Y-80604819D02*
X99364286Y-81081009D01*
X99364286Y-81081009D02*
X99411905Y-81033390D01*
X99411905Y-81033390D02*
X99507143Y-80985771D01*
X99507143Y-80985771D02*
X99745238Y-80985771D01*
X99745238Y-80985771D02*
X99840476Y-81033390D01*
X99840476Y-81033390D02*
X99888095Y-81081009D01*
X99888095Y-81081009D02*
X99935714Y-81176247D01*
X99935714Y-81176247D02*
X99935714Y-81414342D01*
X99935714Y-81414342D02*
X99888095Y-81509580D01*
X99888095Y-81509580D02*
X99840476Y-81557200D01*
X99840476Y-81557200D02*
X99745238Y-81604819D01*
X99745238Y-81604819D02*
X99507143Y-81604819D01*
X99507143Y-81604819D02*
X99411905Y-81557200D01*
X99411905Y-81557200D02*
X99364286Y-81509580D01*
X85274890Y-72900880D02*
X85460952Y-72462544D01*
X85500679Y-73100185D02*
X84710418Y-72402618D01*
X84710418Y-72402618D02*
X85761166Y-72486515D01*
X85277740Y-71919192D02*
X85891410Y-72179680D01*
X85365407Y-71956405D02*
X85340180Y-71893965D01*
X85340180Y-71893965D02*
X85333559Y-71787691D01*
X85333559Y-71787691D02*
X85389378Y-71656191D01*
X85389378Y-71656191D02*
X85470424Y-71587130D01*
X85470424Y-71587130D02*
X85576697Y-71580509D01*
X85576697Y-71580509D02*
X86058866Y-71785177D01*
X85575440Y-71217855D02*
X85724290Y-70867186D01*
X85324424Y-70956111D02*
X86113428Y-71291023D01*
X86113428Y-71291023D02*
X86219701Y-71284402D01*
X86219701Y-71284402D02*
X86300747Y-71215341D01*
X86300747Y-71215341D02*
X86337960Y-71127674D01*
X86573220Y-70451564D02*
X86579841Y-70557837D01*
X86579841Y-70557837D02*
X86505416Y-70733171D01*
X86505416Y-70733171D02*
X86424370Y-70802232D01*
X86424370Y-70802232D02*
X86318097Y-70808853D01*
X86318097Y-70808853D02*
X85967428Y-70660003D01*
X85967428Y-70660003D02*
X85898367Y-70578957D01*
X85898367Y-70578957D02*
X85891746Y-70472684D01*
X85891746Y-70472684D02*
X85966171Y-70297350D01*
X85966171Y-70297350D02*
X86047217Y-70228289D01*
X86047217Y-70228289D02*
X86153491Y-70221668D01*
X86153491Y-70221668D02*
X86241158Y-70258880D01*
X86241158Y-70258880D02*
X86142763Y-70734428D01*
X86189446Y-69771347D02*
X86803116Y-70031834D01*
X86277113Y-69808559D02*
X86251886Y-69746120D01*
X86251886Y-69746120D02*
X86245265Y-69639846D01*
X86245265Y-69639846D02*
X86301084Y-69508345D01*
X86301084Y-69508345D02*
X86382130Y-69439285D01*
X86382130Y-69439285D02*
X86488403Y-69432663D01*
X86488403Y-69432663D02*
X86970572Y-69637332D01*
X86542965Y-68938509D02*
X87156635Y-69198996D01*
X86630632Y-68975722D02*
X86605405Y-68913282D01*
X86605405Y-68913282D02*
X86598784Y-68807008D01*
X86598784Y-68807008D02*
X86654603Y-68675508D01*
X86654603Y-68675508D02*
X86735649Y-68606447D01*
X86735649Y-68606447D02*
X86841922Y-68599826D01*
X86841922Y-68599826D02*
X87324091Y-68804494D01*
X87677610Y-67971657D02*
X87195441Y-67766988D01*
X87195441Y-67766988D02*
X87089167Y-67773609D01*
X87089167Y-67773609D02*
X87008121Y-67842670D01*
X87008121Y-67842670D02*
X86933696Y-68018004D01*
X86933696Y-68018004D02*
X86940317Y-68124277D01*
X87633776Y-67953050D02*
X87640397Y-68059324D01*
X87640397Y-68059324D02*
X87547366Y-68278491D01*
X87547366Y-68278491D02*
X87466320Y-68347552D01*
X87466320Y-68347552D02*
X87360047Y-68354173D01*
X87360047Y-68354173D02*
X87272380Y-68316961D01*
X87272380Y-68316961D02*
X87203319Y-68235915D01*
X87203319Y-68235915D02*
X87196698Y-68129642D01*
X87196698Y-68129642D02*
X87289729Y-67910474D01*
X87289729Y-67910474D02*
X87283108Y-67804200D01*
X87858308Y-67789701D02*
X88156008Y-67088364D01*
X88098932Y-66857211D02*
X88198585Y-66744316D01*
X88198585Y-66744316D02*
X88291616Y-66525149D01*
X88291616Y-66525149D02*
X88284995Y-66418875D01*
X88284995Y-66418875D02*
X88259768Y-66356435D01*
X88259768Y-66356435D02*
X88190707Y-66275389D01*
X88190707Y-66275389D02*
X88103040Y-66238177D01*
X88103040Y-66238177D02*
X87996766Y-66244798D01*
X87996766Y-66244798D02*
X87934326Y-66270025D01*
X87934326Y-66270025D02*
X87853280Y-66339086D01*
X87853280Y-66339086D02*
X87735022Y-66495814D01*
X87735022Y-66495814D02*
X87653976Y-66564875D01*
X87653976Y-66564875D02*
X87591536Y-66590102D01*
X87591536Y-66590102D02*
X87485263Y-66596723D01*
X87485263Y-66596723D02*
X87397595Y-66559511D01*
X87397595Y-66559511D02*
X87328535Y-66478465D01*
X87328535Y-66478465D02*
X87303307Y-66416025D01*
X87303307Y-66416025D02*
X87296686Y-66309752D01*
X87296686Y-66309752D02*
X87389717Y-66090584D01*
X87389717Y-66090584D02*
X87489370Y-65977689D01*
X88533497Y-65955312D02*
X87612992Y-65564581D01*
X88700953Y-65560810D02*
X88218784Y-65356141D01*
X88218784Y-65356141D02*
X88112511Y-65362763D01*
X88112511Y-65362763D02*
X88031465Y-65431823D01*
X88031465Y-65431823D02*
X87975646Y-65563324D01*
X87975646Y-65563324D02*
X87982267Y-65669597D01*
X87982267Y-65669597D02*
X88007494Y-65732037D01*
X88887016Y-65122474D02*
X88273346Y-64861987D01*
X87966511Y-64731743D02*
X87991738Y-64794183D01*
X87991738Y-64794183D02*
X88054178Y-64768956D01*
X88054178Y-64768956D02*
X88028951Y-64706516D01*
X88028951Y-64706516D02*
X87966511Y-64731743D01*
X87966511Y-64731743D02*
X88054178Y-64768956D01*
X89178095Y-64314864D02*
X89184716Y-64421138D01*
X89184716Y-64421138D02*
X89110291Y-64596472D01*
X89110291Y-64596472D02*
X89029245Y-64665533D01*
X89029245Y-64665533D02*
X88922971Y-64672154D01*
X88922971Y-64672154D02*
X88572303Y-64523304D01*
X88572303Y-64523304D02*
X88503242Y-64442258D01*
X88503242Y-64442258D02*
X88496621Y-64335985D01*
X88496621Y-64335985D02*
X88571046Y-64160650D01*
X88571046Y-64160650D02*
X88652092Y-64091590D01*
X88652092Y-64091590D02*
X88758365Y-64084968D01*
X88758365Y-64084968D02*
X88846032Y-64122181D01*
X88846032Y-64122181D02*
X88747637Y-64597729D01*
X89463809Y-63763634D02*
X89382763Y-63832695D01*
X89382763Y-63832695D02*
X89276490Y-63839316D01*
X89276490Y-63839316D02*
X88487486Y-63504404D01*
X89780116Y-63018463D02*
X88859611Y-62627732D01*
X89736282Y-62999857D02*
X89742903Y-63106130D01*
X89742903Y-63106130D02*
X89668478Y-63281465D01*
X89668478Y-63281465D02*
X89587432Y-63350525D01*
X89587432Y-63350525D02*
X89524992Y-63375753D01*
X89524992Y-63375753D02*
X89418719Y-63382374D01*
X89418719Y-63382374D02*
X89155718Y-63270736D01*
X89155718Y-63270736D02*
X89086657Y-63189690D01*
X89086657Y-63189690D02*
X89061429Y-63127251D01*
X89061429Y-63127251D02*
X89054808Y-63020977D01*
X89054808Y-63020977D02*
X89129233Y-62845643D01*
X89129233Y-62845643D02*
X89210279Y-62776582D01*
X94506796Y-72163763D02*
X94692859Y-71725428D01*
X94732585Y-72363068D02*
X93942324Y-71665502D01*
X93942324Y-71665502D02*
X94993073Y-71749398D01*
X94641147Y-71237894D02*
X94771391Y-70931059D01*
X95309379Y-71004227D02*
X95123316Y-71442563D01*
X95123316Y-71442563D02*
X94202811Y-71051832D01*
X94202811Y-71051832D02*
X94388874Y-70613496D01*
X95681504Y-70127556D02*
X95458229Y-70653559D01*
X95569866Y-70390557D02*
X94649361Y-69999826D01*
X94649361Y-69999826D02*
X94743650Y-70143312D01*
X94743650Y-70143312D02*
X94794104Y-70268192D01*
X94794104Y-70268192D02*
X94800725Y-70374465D01*
X116452380Y-95534819D02*
X115880952Y-95534819D01*
X116166666Y-95534819D02*
X116166666Y-94534819D01*
X116166666Y-94534819D02*
X116071428Y-94677676D01*
X116071428Y-94677676D02*
X115976190Y-94772914D01*
X115976190Y-94772914D02*
X115880952Y-94820533D01*
X117071428Y-94534819D02*
X117166666Y-94534819D01*
X117166666Y-94534819D02*
X117261904Y-94582438D01*
X117261904Y-94582438D02*
X117309523Y-94630057D01*
X117309523Y-94630057D02*
X117357142Y-94725295D01*
X117357142Y-94725295D02*
X117404761Y-94915771D01*
X117404761Y-94915771D02*
X117404761Y-95153866D01*
X117404761Y-95153866D02*
X117357142Y-95344342D01*
X117357142Y-95344342D02*
X117309523Y-95439580D01*
X117309523Y-95439580D02*
X117261904Y-95487200D01*
X117261904Y-95487200D02*
X117166666Y-95534819D01*
X117166666Y-95534819D02*
X117071428Y-95534819D01*
X117071428Y-95534819D02*
X116976190Y-95487200D01*
X116976190Y-95487200D02*
X116928571Y-95439580D01*
X116928571Y-95439580D02*
X116880952Y-95344342D01*
X116880952Y-95344342D02*
X116833333Y-95153866D01*
X116833333Y-95153866D02*
X116833333Y-94915771D01*
X116833333Y-94915771D02*
X116880952Y-94725295D01*
X116880952Y-94725295D02*
X116928571Y-94630057D01*
X116928571Y-94630057D02*
X116976190Y-94582438D01*
X116976190Y-94582438D02*
X117071428Y-94534819D01*
X118023809Y-94534819D02*
X118119047Y-94534819D01*
X118119047Y-94534819D02*
X118214285Y-94582438D01*
X118214285Y-94582438D02*
X118261904Y-94630057D01*
X118261904Y-94630057D02*
X118309523Y-94725295D01*
X118309523Y-94725295D02*
X118357142Y-94915771D01*
X118357142Y-94915771D02*
X118357142Y-95153866D01*
X118357142Y-95153866D02*
X118309523Y-95344342D01*
X118309523Y-95344342D02*
X118261904Y-95439580D01*
X118261904Y-95439580D02*
X118214285Y-95487200D01*
X118214285Y-95487200D02*
X118119047Y-95534819D01*
X118119047Y-95534819D02*
X118023809Y-95534819D01*
X118023809Y-95534819D02*
X117928571Y-95487200D01*
X117928571Y-95487200D02*
X117880952Y-95439580D01*
X117880952Y-95439580D02*
X117833333Y-95344342D01*
X117833333Y-95344342D02*
X117785714Y-95153866D01*
X117785714Y-95153866D02*
X117785714Y-94915771D01*
X117785714Y-94915771D02*
X117833333Y-94725295D01*
X117833333Y-94725295D02*
X117880952Y-94630057D01*
X117880952Y-94630057D02*
X117928571Y-94582438D01*
X117928571Y-94582438D02*
X118023809Y-94534819D01*
X118785714Y-94868152D02*
X118785714Y-95534819D01*
X118785714Y-94963390D02*
X118833333Y-94915771D01*
X118833333Y-94915771D02*
X118928571Y-94868152D01*
X118928571Y-94868152D02*
X119071428Y-94868152D01*
X119071428Y-94868152D02*
X119166666Y-94915771D01*
X119166666Y-94915771D02*
X119214285Y-95011009D01*
X119214285Y-95011009D02*
X119214285Y-95534819D01*
X120023809Y-95011009D02*
X119690476Y-95011009D01*
X119690476Y-95534819D02*
X119690476Y-94534819D01*
X119690476Y-94534819D02*
X120166666Y-94534819D01*
D11*
X117916666Y-93579530D02*
X117892857Y-93603340D01*
X117892857Y-93603340D02*
X117821428Y-93627149D01*
X117821428Y-93627149D02*
X117773809Y-93627149D01*
X117773809Y-93627149D02*
X117702381Y-93603340D01*
X117702381Y-93603340D02*
X117654762Y-93555720D01*
X117654762Y-93555720D02*
X117630952Y-93508101D01*
X117630952Y-93508101D02*
X117607143Y-93412863D01*
X117607143Y-93412863D02*
X117607143Y-93341435D01*
X117607143Y-93341435D02*
X117630952Y-93246197D01*
X117630952Y-93246197D02*
X117654762Y-93198578D01*
X117654762Y-93198578D02*
X117702381Y-93150959D01*
X117702381Y-93150959D02*
X117773809Y-93127149D01*
X117773809Y-93127149D02*
X117821428Y-93127149D01*
X117821428Y-93127149D02*
X117892857Y-93150959D01*
X117892857Y-93150959D02*
X117916666Y-93174768D01*
X118107143Y-93174768D02*
X118130952Y-93150959D01*
X118130952Y-93150959D02*
X118178571Y-93127149D01*
X118178571Y-93127149D02*
X118297619Y-93127149D01*
X118297619Y-93127149D02*
X118345238Y-93150959D01*
X118345238Y-93150959D02*
X118369047Y-93174768D01*
X118369047Y-93174768D02*
X118392857Y-93222387D01*
X118392857Y-93222387D02*
X118392857Y-93270006D01*
X118392857Y-93270006D02*
X118369047Y-93341435D01*
X118369047Y-93341435D02*
X118083333Y-93627149D01*
X118083333Y-93627149D02*
X118392857Y-93627149D01*
D10*
X101689284Y-64009580D02*
X101641665Y-64057200D01*
X101641665Y-64057200D02*
X101498808Y-64104819D01*
X101498808Y-64104819D02*
X101403570Y-64104819D01*
X101403570Y-64104819D02*
X101260713Y-64057200D01*
X101260713Y-64057200D02*
X101165475Y-63961961D01*
X101165475Y-63961961D02*
X101117856Y-63866723D01*
X101117856Y-63866723D02*
X101070237Y-63676247D01*
X101070237Y-63676247D02*
X101070237Y-63533390D01*
X101070237Y-63533390D02*
X101117856Y-63342914D01*
X101117856Y-63342914D02*
X101165475Y-63247676D01*
X101165475Y-63247676D02*
X101260713Y-63152438D01*
X101260713Y-63152438D02*
X101403570Y-63104819D01*
X101403570Y-63104819D02*
X101498808Y-63104819D01*
X101498808Y-63104819D02*
X101641665Y-63152438D01*
X101641665Y-63152438D02*
X101689284Y-63200057D01*
X102260713Y-64104819D02*
X102165475Y-64057200D01*
X102165475Y-64057200D02*
X102117856Y-64009580D01*
X102117856Y-64009580D02*
X102070237Y-63914342D01*
X102070237Y-63914342D02*
X102070237Y-63628628D01*
X102070237Y-63628628D02*
X102117856Y-63533390D01*
X102117856Y-63533390D02*
X102165475Y-63485771D01*
X102165475Y-63485771D02*
X102260713Y-63438152D01*
X102260713Y-63438152D02*
X102403570Y-63438152D01*
X102403570Y-63438152D02*
X102498808Y-63485771D01*
X102498808Y-63485771D02*
X102546427Y-63533390D01*
X102546427Y-63533390D02*
X102594046Y-63628628D01*
X102594046Y-63628628D02*
X102594046Y-63914342D01*
X102594046Y-63914342D02*
X102546427Y-64009580D01*
X102546427Y-64009580D02*
X102498808Y-64057200D01*
X102498808Y-64057200D02*
X102403570Y-64104819D01*
X102403570Y-64104819D02*
X102260713Y-64104819D01*
X103022618Y-63438152D02*
X103022618Y-64104819D01*
X103022618Y-63533390D02*
X103070237Y-63485771D01*
X103070237Y-63485771D02*
X103165475Y-63438152D01*
X103165475Y-63438152D02*
X103308332Y-63438152D01*
X103308332Y-63438152D02*
X103403570Y-63485771D01*
X103403570Y-63485771D02*
X103451189Y-63581009D01*
X103451189Y-63581009D02*
X103451189Y-64104819D01*
X103927380Y-63438152D02*
X103927380Y-64104819D01*
X103927380Y-63533390D02*
X103974999Y-63485771D01*
X103974999Y-63485771D02*
X104070237Y-63438152D01*
X104070237Y-63438152D02*
X104213094Y-63438152D01*
X104213094Y-63438152D02*
X104308332Y-63485771D01*
X104308332Y-63485771D02*
X104355951Y-63581009D01*
X104355951Y-63581009D02*
X104355951Y-64104819D01*
X104594047Y-64200057D02*
X105355951Y-64200057D01*
X105784523Y-63104819D02*
X105879761Y-63104819D01*
X105879761Y-63104819D02*
X105974999Y-63152438D01*
X105974999Y-63152438D02*
X106022618Y-63200057D01*
X106022618Y-63200057D02*
X106070237Y-63295295D01*
X106070237Y-63295295D02*
X106117856Y-63485771D01*
X106117856Y-63485771D02*
X106117856Y-63723866D01*
X106117856Y-63723866D02*
X106070237Y-63914342D01*
X106070237Y-63914342D02*
X106022618Y-64009580D01*
X106022618Y-64009580D02*
X105974999Y-64057200D01*
X105974999Y-64057200D02*
X105879761Y-64104819D01*
X105879761Y-64104819D02*
X105784523Y-64104819D01*
X105784523Y-64104819D02*
X105689285Y-64057200D01*
X105689285Y-64057200D02*
X105641666Y-64009580D01*
X105641666Y-64009580D02*
X105594047Y-63914342D01*
X105594047Y-63914342D02*
X105546428Y-63723866D01*
X105546428Y-63723866D02*
X105546428Y-63485771D01*
X105546428Y-63485771D02*
X105594047Y-63295295D01*
X105594047Y-63295295D02*
X105641666Y-63200057D01*
X105641666Y-63200057D02*
X105689285Y-63152438D01*
X105689285Y-63152438D02*
X105784523Y-63104819D01*
X107070237Y-64104819D02*
X106498809Y-64104819D01*
X106784523Y-64104819D02*
X106784523Y-63104819D01*
X106784523Y-63104819D02*
X106689285Y-63247676D01*
X106689285Y-63247676D02*
X106594047Y-63342914D01*
X106594047Y-63342914D02*
X106498809Y-63390533D01*
X107403571Y-64104819D02*
X107927380Y-63438152D01*
X107403571Y-63438152D02*
X107927380Y-64104819D01*
X108498809Y-63104819D02*
X108594047Y-63104819D01*
X108594047Y-63104819D02*
X108689285Y-63152438D01*
X108689285Y-63152438D02*
X108736904Y-63200057D01*
X108736904Y-63200057D02*
X108784523Y-63295295D01*
X108784523Y-63295295D02*
X108832142Y-63485771D01*
X108832142Y-63485771D02*
X108832142Y-63723866D01*
X108832142Y-63723866D02*
X108784523Y-63914342D01*
X108784523Y-63914342D02*
X108736904Y-64009580D01*
X108736904Y-64009580D02*
X108689285Y-64057200D01*
X108689285Y-64057200D02*
X108594047Y-64104819D01*
X108594047Y-64104819D02*
X108498809Y-64104819D01*
X108498809Y-64104819D02*
X108403571Y-64057200D01*
X108403571Y-64057200D02*
X108355952Y-64009580D01*
X108355952Y-64009580D02*
X108308333Y-63914342D01*
X108308333Y-63914342D02*
X108260714Y-63723866D01*
X108260714Y-63723866D02*
X108260714Y-63485771D01*
X108260714Y-63485771D02*
X108308333Y-63295295D01*
X108308333Y-63295295D02*
X108355952Y-63200057D01*
X108355952Y-63200057D02*
X108403571Y-63152438D01*
X108403571Y-63152438D02*
X108498809Y-63104819D01*
X109213095Y-63200057D02*
X109260714Y-63152438D01*
X109260714Y-63152438D02*
X109355952Y-63104819D01*
X109355952Y-63104819D02*
X109594047Y-63104819D01*
X109594047Y-63104819D02*
X109689285Y-63152438D01*
X109689285Y-63152438D02*
X109736904Y-63200057D01*
X109736904Y-63200057D02*
X109784523Y-63295295D01*
X109784523Y-63295295D02*
X109784523Y-63390533D01*
X109784523Y-63390533D02*
X109736904Y-63533390D01*
X109736904Y-63533390D02*
X109165476Y-64104819D01*
X109165476Y-64104819D02*
X109784523Y-64104819D01*
X109975000Y-64200057D02*
X110736904Y-64200057D01*
X111308333Y-63581009D02*
X110975000Y-63581009D01*
X110975000Y-64104819D02*
X110975000Y-63104819D01*
X110975000Y-63104819D02*
X111451190Y-63104819D01*
X112213095Y-64057200D02*
X112117857Y-64104819D01*
X112117857Y-64104819D02*
X111927381Y-64104819D01*
X111927381Y-64104819D02*
X111832143Y-64057200D01*
X111832143Y-64057200D02*
X111784524Y-63961961D01*
X111784524Y-63961961D02*
X111784524Y-63581009D01*
X111784524Y-63581009D02*
X111832143Y-63485771D01*
X111832143Y-63485771D02*
X111927381Y-63438152D01*
X111927381Y-63438152D02*
X112117857Y-63438152D01*
X112117857Y-63438152D02*
X112213095Y-63485771D01*
X112213095Y-63485771D02*
X112260714Y-63581009D01*
X112260714Y-63581009D02*
X112260714Y-63676247D01*
X112260714Y-63676247D02*
X111784524Y-63771485D01*
X112689286Y-64104819D02*
X112689286Y-63438152D01*
X112689286Y-63533390D02*
X112736905Y-63485771D01*
X112736905Y-63485771D02*
X112832143Y-63438152D01*
X112832143Y-63438152D02*
X112975000Y-63438152D01*
X112975000Y-63438152D02*
X113070238Y-63485771D01*
X113070238Y-63485771D02*
X113117857Y-63581009D01*
X113117857Y-63581009D02*
X113117857Y-64104819D01*
X113117857Y-63581009D02*
X113165476Y-63485771D01*
X113165476Y-63485771D02*
X113260714Y-63438152D01*
X113260714Y-63438152D02*
X113403571Y-63438152D01*
X113403571Y-63438152D02*
X113498810Y-63485771D01*
X113498810Y-63485771D02*
X113546429Y-63581009D01*
X113546429Y-63581009D02*
X113546429Y-64104819D01*
X114451190Y-64104819D02*
X114451190Y-63581009D01*
X114451190Y-63581009D02*
X114403571Y-63485771D01*
X114403571Y-63485771D02*
X114308333Y-63438152D01*
X114308333Y-63438152D02*
X114117857Y-63438152D01*
X114117857Y-63438152D02*
X114022619Y-63485771D01*
X114451190Y-64057200D02*
X114355952Y-64104819D01*
X114355952Y-64104819D02*
X114117857Y-64104819D01*
X114117857Y-64104819D02*
X114022619Y-64057200D01*
X114022619Y-64057200D02*
X113975000Y-63961961D01*
X113975000Y-63961961D02*
X113975000Y-63866723D01*
X113975000Y-63866723D02*
X114022619Y-63771485D01*
X114022619Y-63771485D02*
X114117857Y-63723866D01*
X114117857Y-63723866D02*
X114355952Y-63723866D01*
X114355952Y-63723866D02*
X114451190Y-63676247D01*
X115070238Y-64104819D02*
X114975000Y-64057200D01*
X114975000Y-64057200D02*
X114927381Y-63961961D01*
X114927381Y-63961961D02*
X114927381Y-63104819D01*
X115832143Y-64057200D02*
X115736905Y-64104819D01*
X115736905Y-64104819D02*
X115546429Y-64104819D01*
X115546429Y-64104819D02*
X115451191Y-64057200D01*
X115451191Y-64057200D02*
X115403572Y-63961961D01*
X115403572Y-63961961D02*
X115403572Y-63581009D01*
X115403572Y-63581009D02*
X115451191Y-63485771D01*
X115451191Y-63485771D02*
X115546429Y-63438152D01*
X115546429Y-63438152D02*
X115736905Y-63438152D01*
X115736905Y-63438152D02*
X115832143Y-63485771D01*
X115832143Y-63485771D02*
X115879762Y-63581009D01*
X115879762Y-63581009D02*
X115879762Y-63676247D01*
X115879762Y-63676247D02*
X115403572Y-63771485D01*
X108141666Y-67004819D02*
X108141666Y-67719104D01*
X108141666Y-67719104D02*
X108094047Y-67861961D01*
X108094047Y-67861961D02*
X107998809Y-67957200D01*
X107998809Y-67957200D02*
X107855952Y-68004819D01*
X107855952Y-68004819D02*
X107760714Y-68004819D01*
X109141666Y-68004819D02*
X108570238Y-68004819D01*
X108855952Y-68004819D02*
X108855952Y-67004819D01*
X108855952Y-67004819D02*
X108760714Y-67147676D01*
X108760714Y-67147676D02*
X108665476Y-67242914D01*
X108665476Y-67242914D02*
X108570238Y-67290533D01*
X96061905Y-87354819D02*
X96061905Y-86354819D01*
X96061905Y-86354819D02*
X96395238Y-87069104D01*
X96395238Y-87069104D02*
X96728571Y-86354819D01*
X96728571Y-86354819D02*
X96728571Y-87354819D01*
X97538095Y-86831009D02*
X97680952Y-86878628D01*
X97680952Y-86878628D02*
X97728571Y-86926247D01*
X97728571Y-86926247D02*
X97776190Y-87021485D01*
X97776190Y-87021485D02*
X97776190Y-87164342D01*
X97776190Y-87164342D02*
X97728571Y-87259580D01*
X97728571Y-87259580D02*
X97680952Y-87307200D01*
X97680952Y-87307200D02*
X97585714Y-87354819D01*
X97585714Y-87354819D02*
X97204762Y-87354819D01*
X97204762Y-87354819D02*
X97204762Y-86354819D01*
X97204762Y-86354819D02*
X97538095Y-86354819D01*
X97538095Y-86354819D02*
X97633333Y-86402438D01*
X97633333Y-86402438D02*
X97680952Y-86450057D01*
X97680952Y-86450057D02*
X97728571Y-86545295D01*
X97728571Y-86545295D02*
X97728571Y-86640533D01*
X97728571Y-86640533D02*
X97680952Y-86735771D01*
X97680952Y-86735771D02*
X97633333Y-86783390D01*
X97633333Y-86783390D02*
X97538095Y-86831009D01*
X97538095Y-86831009D02*
X97204762Y-86831009D01*
X98776190Y-87354819D02*
X98442857Y-86878628D01*
X98204762Y-87354819D02*
X98204762Y-86354819D01*
X98204762Y-86354819D02*
X98585714Y-86354819D01*
X98585714Y-86354819D02*
X98680952Y-86402438D01*
X98680952Y-86402438D02*
X98728571Y-86450057D01*
X98728571Y-86450057D02*
X98776190Y-86545295D01*
X98776190Y-86545295D02*
X98776190Y-86688152D01*
X98776190Y-86688152D02*
X98728571Y-86783390D01*
X98728571Y-86783390D02*
X98680952Y-86831009D01*
X98680952Y-86831009D02*
X98585714Y-86878628D01*
X98585714Y-86878628D02*
X98204762Y-86878628D01*
X99395238Y-86354819D02*
X99490476Y-86354819D01*
X99490476Y-86354819D02*
X99585714Y-86402438D01*
X99585714Y-86402438D02*
X99633333Y-86450057D01*
X99633333Y-86450057D02*
X99680952Y-86545295D01*
X99680952Y-86545295D02*
X99728571Y-86735771D01*
X99728571Y-86735771D02*
X99728571Y-86973866D01*
X99728571Y-86973866D02*
X99680952Y-87164342D01*
X99680952Y-87164342D02*
X99633333Y-87259580D01*
X99633333Y-87259580D02*
X99585714Y-87307200D01*
X99585714Y-87307200D02*
X99490476Y-87354819D01*
X99490476Y-87354819D02*
X99395238Y-87354819D01*
X99395238Y-87354819D02*
X99300000Y-87307200D01*
X99300000Y-87307200D02*
X99252381Y-87259580D01*
X99252381Y-87259580D02*
X99204762Y-87164342D01*
X99204762Y-87164342D02*
X99157143Y-86973866D01*
X99157143Y-86973866D02*
X99157143Y-86735771D01*
X99157143Y-86735771D02*
X99204762Y-86545295D01*
X99204762Y-86545295D02*
X99252381Y-86450057D01*
X99252381Y-86450057D02*
X99300000Y-86402438D01*
X99300000Y-86402438D02*
X99395238Y-86354819D01*
X100633333Y-86354819D02*
X100157143Y-86354819D01*
X100157143Y-86354819D02*
X100109524Y-86831009D01*
X100109524Y-86831009D02*
X100157143Y-86783390D01*
X100157143Y-86783390D02*
X100252381Y-86735771D01*
X100252381Y-86735771D02*
X100490476Y-86735771D01*
X100490476Y-86735771D02*
X100585714Y-86783390D01*
X100585714Y-86783390D02*
X100633333Y-86831009D01*
X100633333Y-86831009D02*
X100680952Y-86926247D01*
X100680952Y-86926247D02*
X100680952Y-87164342D01*
X100680952Y-87164342D02*
X100633333Y-87259580D01*
X100633333Y-87259580D02*
X100585714Y-87307200D01*
X100585714Y-87307200D02*
X100490476Y-87354819D01*
X100490476Y-87354819D02*
X100252381Y-87354819D01*
X100252381Y-87354819D02*
X100157143Y-87307200D01*
X100157143Y-87307200D02*
X100109524Y-87259580D01*
X101014286Y-86354819D02*
X101633333Y-86354819D01*
X101633333Y-86354819D02*
X101300000Y-86735771D01*
X101300000Y-86735771D02*
X101442857Y-86735771D01*
X101442857Y-86735771D02*
X101538095Y-86783390D01*
X101538095Y-86783390D02*
X101585714Y-86831009D01*
X101585714Y-86831009D02*
X101633333Y-86926247D01*
X101633333Y-86926247D02*
X101633333Y-87164342D01*
X101633333Y-87164342D02*
X101585714Y-87259580D01*
X101585714Y-87259580D02*
X101538095Y-87307200D01*
X101538095Y-87307200D02*
X101442857Y-87354819D01*
X101442857Y-87354819D02*
X101157143Y-87354819D01*
X101157143Y-87354819D02*
X101061905Y-87307200D01*
X101061905Y-87307200D02*
X101014286Y-87259580D01*
X102252381Y-86354819D02*
X102347619Y-86354819D01*
X102347619Y-86354819D02*
X102442857Y-86402438D01*
X102442857Y-86402438D02*
X102490476Y-86450057D01*
X102490476Y-86450057D02*
X102538095Y-86545295D01*
X102538095Y-86545295D02*
X102585714Y-86735771D01*
X102585714Y-86735771D02*
X102585714Y-86973866D01*
X102585714Y-86973866D02*
X102538095Y-87164342D01*
X102538095Y-87164342D02*
X102490476Y-87259580D01*
X102490476Y-87259580D02*
X102442857Y-87307200D01*
X102442857Y-87307200D02*
X102347619Y-87354819D01*
X102347619Y-87354819D02*
X102252381Y-87354819D01*
X102252381Y-87354819D02*
X102157143Y-87307200D01*
X102157143Y-87307200D02*
X102109524Y-87259580D01*
X102109524Y-87259580D02*
X102061905Y-87164342D01*
X102061905Y-87164342D02*
X102014286Y-86973866D01*
X102014286Y-86973866D02*
X102014286Y-86735771D01*
X102014286Y-86735771D02*
X102061905Y-86545295D01*
X102061905Y-86545295D02*
X102109524Y-86450057D01*
X102109524Y-86450057D02*
X102157143Y-86402438D01*
X102157143Y-86402438D02*
X102252381Y-86354819D01*
X98461905Y-83604819D02*
X98461905Y-82604819D01*
X98461905Y-82604819D02*
X98700000Y-82604819D01*
X98700000Y-82604819D02*
X98842857Y-82652438D01*
X98842857Y-82652438D02*
X98938095Y-82747676D01*
X98938095Y-82747676D02*
X98985714Y-82842914D01*
X98985714Y-82842914D02*
X99033333Y-83033390D01*
X99033333Y-83033390D02*
X99033333Y-83176247D01*
X99033333Y-83176247D02*
X98985714Y-83366723D01*
X98985714Y-83366723D02*
X98938095Y-83461961D01*
X98938095Y-83461961D02*
X98842857Y-83557200D01*
X98842857Y-83557200D02*
X98700000Y-83604819D01*
X98700000Y-83604819D02*
X98461905Y-83604819D01*
X99890476Y-82938152D02*
X99890476Y-83604819D01*
X99652381Y-82557200D02*
X99414286Y-83271485D01*
X99414286Y-83271485D02*
X100033333Y-83271485D01*
X118309523Y-73104819D02*
X117738095Y-73104819D01*
X118023809Y-73104819D02*
X118023809Y-72104819D01*
X118023809Y-72104819D02*
X117928571Y-72247676D01*
X117928571Y-72247676D02*
X117833333Y-72342914D01*
X117833333Y-72342914D02*
X117738095Y-72390533D01*
X118928571Y-72104819D02*
X119023809Y-72104819D01*
X119023809Y-72104819D02*
X119119047Y-72152438D01*
X119119047Y-72152438D02*
X119166666Y-72200057D01*
X119166666Y-72200057D02*
X119214285Y-72295295D01*
X119214285Y-72295295D02*
X119261904Y-72485771D01*
X119261904Y-72485771D02*
X119261904Y-72723866D01*
X119261904Y-72723866D02*
X119214285Y-72914342D01*
X119214285Y-72914342D02*
X119166666Y-73009580D01*
X119166666Y-73009580D02*
X119119047Y-73057200D01*
X119119047Y-73057200D02*
X119023809Y-73104819D01*
X119023809Y-73104819D02*
X118928571Y-73104819D01*
X118928571Y-73104819D02*
X118833333Y-73057200D01*
X118833333Y-73057200D02*
X118785714Y-73009580D01*
X118785714Y-73009580D02*
X118738095Y-72914342D01*
X118738095Y-72914342D02*
X118690476Y-72723866D01*
X118690476Y-72723866D02*
X118690476Y-72485771D01*
X118690476Y-72485771D02*
X118738095Y-72295295D01*
X118738095Y-72295295D02*
X118785714Y-72200057D01*
X118785714Y-72200057D02*
X118833333Y-72152438D01*
X118833333Y-72152438D02*
X118928571Y-72104819D01*
X119690476Y-73104819D02*
X119690476Y-72104819D01*
X120261904Y-73104819D02*
X119833333Y-72533390D01*
X120261904Y-72104819D02*
X119690476Y-72676247D01*
D11*
X118916666Y-71227149D02*
X118750000Y-70989054D01*
X118630952Y-71227149D02*
X118630952Y-70727149D01*
X118630952Y-70727149D02*
X118821428Y-70727149D01*
X118821428Y-70727149D02*
X118869047Y-70750959D01*
X118869047Y-70750959D02*
X118892857Y-70774768D01*
X118892857Y-70774768D02*
X118916666Y-70822387D01*
X118916666Y-70822387D02*
X118916666Y-70893816D01*
X118916666Y-70893816D02*
X118892857Y-70941435D01*
X118892857Y-70941435D02*
X118869047Y-70965244D01*
X118869047Y-70965244D02*
X118821428Y-70989054D01*
X118821428Y-70989054D02*
X118630952Y-70989054D01*
X119369047Y-70727149D02*
X119130952Y-70727149D01*
X119130952Y-70727149D02*
X119107143Y-70965244D01*
X119107143Y-70965244D02*
X119130952Y-70941435D01*
X119130952Y-70941435D02*
X119178571Y-70917625D01*
X119178571Y-70917625D02*
X119297619Y-70917625D01*
X119297619Y-70917625D02*
X119345238Y-70941435D01*
X119345238Y-70941435D02*
X119369047Y-70965244D01*
X119369047Y-70965244D02*
X119392857Y-71012863D01*
X119392857Y-71012863D02*
X119392857Y-71131911D01*
X119392857Y-71131911D02*
X119369047Y-71179530D01*
X119369047Y-71179530D02*
X119345238Y-71203340D01*
X119345238Y-71203340D02*
X119297619Y-71227149D01*
X119297619Y-71227149D02*
X119178571Y-71227149D01*
X119178571Y-71227149D02*
X119130952Y-71203340D01*
X119130952Y-71203340D02*
X119107143Y-71179530D01*
D10*
X108004819Y-95614285D02*
X108004819Y-96185713D01*
X108004819Y-95899999D02*
X107004819Y-95899999D01*
X107004819Y-95899999D02*
X107147676Y-95995237D01*
X107147676Y-95995237D02*
X107242914Y-96090475D01*
X107242914Y-96090475D02*
X107290533Y-96185713D01*
X108004819Y-95185713D02*
X107004819Y-95185713D01*
X108004819Y-94614285D02*
X107433390Y-95042856D01*
X107004819Y-94614285D02*
X107576247Y-95185713D01*
D11*
X109427149Y-95483333D02*
X109189054Y-95649999D01*
X109427149Y-95769047D02*
X108927149Y-95769047D01*
X108927149Y-95769047D02*
X108927149Y-95578571D01*
X108927149Y-95578571D02*
X108950959Y-95530952D01*
X108950959Y-95530952D02*
X108974768Y-95507142D01*
X108974768Y-95507142D02*
X109022387Y-95483333D01*
X109022387Y-95483333D02*
X109093816Y-95483333D01*
X109093816Y-95483333D02*
X109141435Y-95507142D01*
X109141435Y-95507142D02*
X109165244Y-95530952D01*
X109165244Y-95530952D02*
X109189054Y-95578571D01*
X109189054Y-95578571D02*
X109189054Y-95769047D01*
X109427149Y-95007142D02*
X109427149Y-95292856D01*
X109427149Y-95149999D02*
X108927149Y-95149999D01*
X108927149Y-95149999D02*
X108998578Y-95197618D01*
X108998578Y-95197618D02*
X109046197Y-95245237D01*
X109046197Y-95245237D02*
X109070006Y-95292856D01*
D10*
X116452380Y-93334819D02*
X115880952Y-93334819D01*
X116166666Y-93334819D02*
X116166666Y-92334819D01*
X116166666Y-92334819D02*
X116071428Y-92477676D01*
X116071428Y-92477676D02*
X115976190Y-92572914D01*
X115976190Y-92572914D02*
X115880952Y-92620533D01*
X117071428Y-92334819D02*
X117166666Y-92334819D01*
X117166666Y-92334819D02*
X117261904Y-92382438D01*
X117261904Y-92382438D02*
X117309523Y-92430057D01*
X117309523Y-92430057D02*
X117357142Y-92525295D01*
X117357142Y-92525295D02*
X117404761Y-92715771D01*
X117404761Y-92715771D02*
X117404761Y-92953866D01*
X117404761Y-92953866D02*
X117357142Y-93144342D01*
X117357142Y-93144342D02*
X117309523Y-93239580D01*
X117309523Y-93239580D02*
X117261904Y-93287200D01*
X117261904Y-93287200D02*
X117166666Y-93334819D01*
X117166666Y-93334819D02*
X117071428Y-93334819D01*
X117071428Y-93334819D02*
X116976190Y-93287200D01*
X116976190Y-93287200D02*
X116928571Y-93239580D01*
X116928571Y-93239580D02*
X116880952Y-93144342D01*
X116880952Y-93144342D02*
X116833333Y-92953866D01*
X116833333Y-92953866D02*
X116833333Y-92715771D01*
X116833333Y-92715771D02*
X116880952Y-92525295D01*
X116880952Y-92525295D02*
X116928571Y-92430057D01*
X116928571Y-92430057D02*
X116976190Y-92382438D01*
X116976190Y-92382438D02*
X117071428Y-92334819D01*
X118023809Y-92334819D02*
X118119047Y-92334819D01*
X118119047Y-92334819D02*
X118214285Y-92382438D01*
X118214285Y-92382438D02*
X118261904Y-92430057D01*
X118261904Y-92430057D02*
X118309523Y-92525295D01*
X118309523Y-92525295D02*
X118357142Y-92715771D01*
X118357142Y-92715771D02*
X118357142Y-92953866D01*
X118357142Y-92953866D02*
X118309523Y-93144342D01*
X118309523Y-93144342D02*
X118261904Y-93239580D01*
X118261904Y-93239580D02*
X118214285Y-93287200D01*
X118214285Y-93287200D02*
X118119047Y-93334819D01*
X118119047Y-93334819D02*
X118023809Y-93334819D01*
X118023809Y-93334819D02*
X117928571Y-93287200D01*
X117928571Y-93287200D02*
X117880952Y-93239580D01*
X117880952Y-93239580D02*
X117833333Y-93144342D01*
X117833333Y-93144342D02*
X117785714Y-92953866D01*
X117785714Y-92953866D02*
X117785714Y-92715771D01*
X117785714Y-92715771D02*
X117833333Y-92525295D01*
X117833333Y-92525295D02*
X117880952Y-92430057D01*
X117880952Y-92430057D02*
X117928571Y-92382438D01*
X117928571Y-92382438D02*
X118023809Y-92334819D01*
X118785714Y-92668152D02*
X118785714Y-93334819D01*
X118785714Y-92763390D02*
X118833333Y-92715771D01*
X118833333Y-92715771D02*
X118928571Y-92668152D01*
X118928571Y-92668152D02*
X119071428Y-92668152D01*
X119071428Y-92668152D02*
X119166666Y-92715771D01*
X119166666Y-92715771D02*
X119214285Y-92811009D01*
X119214285Y-92811009D02*
X119214285Y-93334819D01*
X120023809Y-92811009D02*
X119690476Y-92811009D01*
X119690476Y-93334819D02*
X119690476Y-92334819D01*
X119690476Y-92334819D02*
X120166666Y-92334819D01*
D11*
X117916666Y-91379530D02*
X117892857Y-91403340D01*
X117892857Y-91403340D02*
X117821428Y-91427149D01*
X117821428Y-91427149D02*
X117773809Y-91427149D01*
X117773809Y-91427149D02*
X117702381Y-91403340D01*
X117702381Y-91403340D02*
X117654762Y-91355720D01*
X117654762Y-91355720D02*
X117630952Y-91308101D01*
X117630952Y-91308101D02*
X117607143Y-91212863D01*
X117607143Y-91212863D02*
X117607143Y-91141435D01*
X117607143Y-91141435D02*
X117630952Y-91046197D01*
X117630952Y-91046197D02*
X117654762Y-90998578D01*
X117654762Y-90998578D02*
X117702381Y-90950959D01*
X117702381Y-90950959D02*
X117773809Y-90927149D01*
X117773809Y-90927149D02*
X117821428Y-90927149D01*
X117821428Y-90927149D02*
X117892857Y-90950959D01*
X117892857Y-90950959D02*
X117916666Y-90974768D01*
X118392857Y-91427149D02*
X118107143Y-91427149D01*
X118250000Y-91427149D02*
X118250000Y-90927149D01*
X118250000Y-90927149D02*
X118202381Y-90998578D01*
X118202381Y-90998578D02*
X118154762Y-91046197D01*
X118154762Y-91046197D02*
X118107143Y-91070006D01*
D10*
X108652381Y-69804819D02*
X108747619Y-69804819D01*
X108747619Y-69804819D02*
X108842857Y-69852438D01*
X108842857Y-69852438D02*
X108890476Y-69900057D01*
X108890476Y-69900057D02*
X108938095Y-69995295D01*
X108938095Y-69995295D02*
X108985714Y-70185771D01*
X108985714Y-70185771D02*
X108985714Y-70423866D01*
X108985714Y-70423866D02*
X108938095Y-70614342D01*
X108938095Y-70614342D02*
X108890476Y-70709580D01*
X108890476Y-70709580D02*
X108842857Y-70757200D01*
X108842857Y-70757200D02*
X108747619Y-70804819D01*
X108747619Y-70804819D02*
X108652381Y-70804819D01*
X108652381Y-70804819D02*
X108557143Y-70757200D01*
X108557143Y-70757200D02*
X108509524Y-70709580D01*
X108509524Y-70709580D02*
X108461905Y-70614342D01*
X108461905Y-70614342D02*
X108414286Y-70423866D01*
X108414286Y-70423866D02*
X108414286Y-70185771D01*
X108414286Y-70185771D02*
X108461905Y-69995295D01*
X108461905Y-69995295D02*
X108509524Y-69900057D01*
X108509524Y-69900057D02*
X108557143Y-69852438D01*
X108557143Y-69852438D02*
X108652381Y-69804819D01*
X109985714Y-70804819D02*
X109652381Y-70328628D01*
X109414286Y-70804819D02*
X109414286Y-69804819D01*
X109414286Y-69804819D02*
X109795238Y-69804819D01*
X109795238Y-69804819D02*
X109890476Y-69852438D01*
X109890476Y-69852438D02*
X109938095Y-69900057D01*
X109938095Y-69900057D02*
X109985714Y-69995295D01*
X109985714Y-69995295D02*
X109985714Y-70138152D01*
X109985714Y-70138152D02*
X109938095Y-70233390D01*
X109938095Y-70233390D02*
X109890476Y-70281009D01*
X109890476Y-70281009D02*
X109795238Y-70328628D01*
X109795238Y-70328628D02*
X109414286Y-70328628D01*
D11*
X109116666Y-72227149D02*
X108950000Y-71989054D01*
X108830952Y-72227149D02*
X108830952Y-71727149D01*
X108830952Y-71727149D02*
X109021428Y-71727149D01*
X109021428Y-71727149D02*
X109069047Y-71750959D01*
X109069047Y-71750959D02*
X109092857Y-71774768D01*
X109092857Y-71774768D02*
X109116666Y-71822387D01*
X109116666Y-71822387D02*
X109116666Y-71893816D01*
X109116666Y-71893816D02*
X109092857Y-71941435D01*
X109092857Y-71941435D02*
X109069047Y-71965244D01*
X109069047Y-71965244D02*
X109021428Y-71989054D01*
X109021428Y-71989054D02*
X108830952Y-71989054D01*
X109402381Y-71941435D02*
X109354762Y-71917625D01*
X109354762Y-71917625D02*
X109330952Y-71893816D01*
X109330952Y-71893816D02*
X109307143Y-71846197D01*
X109307143Y-71846197D02*
X109307143Y-71822387D01*
X109307143Y-71822387D02*
X109330952Y-71774768D01*
X109330952Y-71774768D02*
X109354762Y-71750959D01*
X109354762Y-71750959D02*
X109402381Y-71727149D01*
X109402381Y-71727149D02*
X109497619Y-71727149D01*
X109497619Y-71727149D02*
X109545238Y-71750959D01*
X109545238Y-71750959D02*
X109569047Y-71774768D01*
X109569047Y-71774768D02*
X109592857Y-71822387D01*
X109592857Y-71822387D02*
X109592857Y-71846197D01*
X109592857Y-71846197D02*
X109569047Y-71893816D01*
X109569047Y-71893816D02*
X109545238Y-71917625D01*
X109545238Y-71917625D02*
X109497619Y-71941435D01*
X109497619Y-71941435D02*
X109402381Y-71941435D01*
X109402381Y-71941435D02*
X109354762Y-71965244D01*
X109354762Y-71965244D02*
X109330952Y-71989054D01*
X109330952Y-71989054D02*
X109307143Y-72036673D01*
X109307143Y-72036673D02*
X109307143Y-72131911D01*
X109307143Y-72131911D02*
X109330952Y-72179530D01*
X109330952Y-72179530D02*
X109354762Y-72203340D01*
X109354762Y-72203340D02*
X109402381Y-72227149D01*
X109402381Y-72227149D02*
X109497619Y-72227149D01*
X109497619Y-72227149D02*
X109545238Y-72203340D01*
X109545238Y-72203340D02*
X109569047Y-72179530D01*
X109569047Y-72179530D02*
X109592857Y-72131911D01*
X109592857Y-72131911D02*
X109592857Y-72036673D01*
X109592857Y-72036673D02*
X109569047Y-71989054D01*
X109569047Y-71989054D02*
X109545238Y-71965244D01*
X109545238Y-71965244D02*
X109497619Y-71941435D01*
D10*
X96061905Y-89354819D02*
X96061905Y-88354819D01*
X96061905Y-88354819D02*
X96395238Y-89069104D01*
X96395238Y-89069104D02*
X96728571Y-88354819D01*
X96728571Y-88354819D02*
X96728571Y-89354819D01*
X97538095Y-88831009D02*
X97680952Y-88878628D01*
X97680952Y-88878628D02*
X97728571Y-88926247D01*
X97728571Y-88926247D02*
X97776190Y-89021485D01*
X97776190Y-89021485D02*
X97776190Y-89164342D01*
X97776190Y-89164342D02*
X97728571Y-89259580D01*
X97728571Y-89259580D02*
X97680952Y-89307200D01*
X97680952Y-89307200D02*
X97585714Y-89354819D01*
X97585714Y-89354819D02*
X97204762Y-89354819D01*
X97204762Y-89354819D02*
X97204762Y-88354819D01*
X97204762Y-88354819D02*
X97538095Y-88354819D01*
X97538095Y-88354819D02*
X97633333Y-88402438D01*
X97633333Y-88402438D02*
X97680952Y-88450057D01*
X97680952Y-88450057D02*
X97728571Y-88545295D01*
X97728571Y-88545295D02*
X97728571Y-88640533D01*
X97728571Y-88640533D02*
X97680952Y-88735771D01*
X97680952Y-88735771D02*
X97633333Y-88783390D01*
X97633333Y-88783390D02*
X97538095Y-88831009D01*
X97538095Y-88831009D02*
X97204762Y-88831009D01*
X98776190Y-89354819D02*
X98442857Y-88878628D01*
X98204762Y-89354819D02*
X98204762Y-88354819D01*
X98204762Y-88354819D02*
X98585714Y-88354819D01*
X98585714Y-88354819D02*
X98680952Y-88402438D01*
X98680952Y-88402438D02*
X98728571Y-88450057D01*
X98728571Y-88450057D02*
X98776190Y-88545295D01*
X98776190Y-88545295D02*
X98776190Y-88688152D01*
X98776190Y-88688152D02*
X98728571Y-88783390D01*
X98728571Y-88783390D02*
X98680952Y-88831009D01*
X98680952Y-88831009D02*
X98585714Y-88878628D01*
X98585714Y-88878628D02*
X98204762Y-88878628D01*
X99395238Y-88354819D02*
X99490476Y-88354819D01*
X99490476Y-88354819D02*
X99585714Y-88402438D01*
X99585714Y-88402438D02*
X99633333Y-88450057D01*
X99633333Y-88450057D02*
X99680952Y-88545295D01*
X99680952Y-88545295D02*
X99728571Y-88735771D01*
X99728571Y-88735771D02*
X99728571Y-88973866D01*
X99728571Y-88973866D02*
X99680952Y-89164342D01*
X99680952Y-89164342D02*
X99633333Y-89259580D01*
X99633333Y-89259580D02*
X99585714Y-89307200D01*
X99585714Y-89307200D02*
X99490476Y-89354819D01*
X99490476Y-89354819D02*
X99395238Y-89354819D01*
X99395238Y-89354819D02*
X99300000Y-89307200D01*
X99300000Y-89307200D02*
X99252381Y-89259580D01*
X99252381Y-89259580D02*
X99204762Y-89164342D01*
X99204762Y-89164342D02*
X99157143Y-88973866D01*
X99157143Y-88973866D02*
X99157143Y-88735771D01*
X99157143Y-88735771D02*
X99204762Y-88545295D01*
X99204762Y-88545295D02*
X99252381Y-88450057D01*
X99252381Y-88450057D02*
X99300000Y-88402438D01*
X99300000Y-88402438D02*
X99395238Y-88354819D01*
X100633333Y-88354819D02*
X100157143Y-88354819D01*
X100157143Y-88354819D02*
X100109524Y-88831009D01*
X100109524Y-88831009D02*
X100157143Y-88783390D01*
X100157143Y-88783390D02*
X100252381Y-88735771D01*
X100252381Y-88735771D02*
X100490476Y-88735771D01*
X100490476Y-88735771D02*
X100585714Y-88783390D01*
X100585714Y-88783390D02*
X100633333Y-88831009D01*
X100633333Y-88831009D02*
X100680952Y-88926247D01*
X100680952Y-88926247D02*
X100680952Y-89164342D01*
X100680952Y-89164342D02*
X100633333Y-89259580D01*
X100633333Y-89259580D02*
X100585714Y-89307200D01*
X100585714Y-89307200D02*
X100490476Y-89354819D01*
X100490476Y-89354819D02*
X100252381Y-89354819D01*
X100252381Y-89354819D02*
X100157143Y-89307200D01*
X100157143Y-89307200D02*
X100109524Y-89259580D01*
X101014286Y-88354819D02*
X101633333Y-88354819D01*
X101633333Y-88354819D02*
X101300000Y-88735771D01*
X101300000Y-88735771D02*
X101442857Y-88735771D01*
X101442857Y-88735771D02*
X101538095Y-88783390D01*
X101538095Y-88783390D02*
X101585714Y-88831009D01*
X101585714Y-88831009D02*
X101633333Y-88926247D01*
X101633333Y-88926247D02*
X101633333Y-89164342D01*
X101633333Y-89164342D02*
X101585714Y-89259580D01*
X101585714Y-89259580D02*
X101538095Y-89307200D01*
X101538095Y-89307200D02*
X101442857Y-89354819D01*
X101442857Y-89354819D02*
X101157143Y-89354819D01*
X101157143Y-89354819D02*
X101061905Y-89307200D01*
X101061905Y-89307200D02*
X101014286Y-89259580D01*
X102252381Y-88354819D02*
X102347619Y-88354819D01*
X102347619Y-88354819D02*
X102442857Y-88402438D01*
X102442857Y-88402438D02*
X102490476Y-88450057D01*
X102490476Y-88450057D02*
X102538095Y-88545295D01*
X102538095Y-88545295D02*
X102585714Y-88735771D01*
X102585714Y-88735771D02*
X102585714Y-88973866D01*
X102585714Y-88973866D02*
X102538095Y-89164342D01*
X102538095Y-89164342D02*
X102490476Y-89259580D01*
X102490476Y-89259580D02*
X102442857Y-89307200D01*
X102442857Y-89307200D02*
X102347619Y-89354819D01*
X102347619Y-89354819D02*
X102252381Y-89354819D01*
X102252381Y-89354819D02*
X102157143Y-89307200D01*
X102157143Y-89307200D02*
X102109524Y-89259580D01*
X102109524Y-89259580D02*
X102061905Y-89164342D01*
X102061905Y-89164342D02*
X102014286Y-88973866D01*
X102014286Y-88973866D02*
X102014286Y-88735771D01*
X102014286Y-88735771D02*
X102061905Y-88545295D01*
X102061905Y-88545295D02*
X102109524Y-88450057D01*
X102109524Y-88450057D02*
X102157143Y-88402438D01*
X102157143Y-88402438D02*
X102252381Y-88354819D01*
X98461905Y-85604819D02*
X98461905Y-84604819D01*
X98461905Y-84604819D02*
X98700000Y-84604819D01*
X98700000Y-84604819D02*
X98842857Y-84652438D01*
X98842857Y-84652438D02*
X98938095Y-84747676D01*
X98938095Y-84747676D02*
X98985714Y-84842914D01*
X98985714Y-84842914D02*
X99033333Y-85033390D01*
X99033333Y-85033390D02*
X99033333Y-85176247D01*
X99033333Y-85176247D02*
X98985714Y-85366723D01*
X98985714Y-85366723D02*
X98938095Y-85461961D01*
X98938095Y-85461961D02*
X98842857Y-85557200D01*
X98842857Y-85557200D02*
X98700000Y-85604819D01*
X98700000Y-85604819D02*
X98461905Y-85604819D01*
X99366667Y-84604819D02*
X99985714Y-84604819D01*
X99985714Y-84604819D02*
X99652381Y-84985771D01*
X99652381Y-84985771D02*
X99795238Y-84985771D01*
X99795238Y-84985771D02*
X99890476Y-85033390D01*
X99890476Y-85033390D02*
X99938095Y-85081009D01*
X99938095Y-85081009D02*
X99985714Y-85176247D01*
X99985714Y-85176247D02*
X99985714Y-85414342D01*
X99985714Y-85414342D02*
X99938095Y-85509580D01*
X99938095Y-85509580D02*
X99890476Y-85557200D01*
X99890476Y-85557200D02*
X99795238Y-85604819D01*
X99795238Y-85604819D02*
X99509524Y-85604819D01*
X99509524Y-85604819D02*
X99414286Y-85557200D01*
X99414286Y-85557200D02*
X99366667Y-85509580D01*
X113052380Y-71534819D02*
X112480952Y-71534819D01*
X112766666Y-71534819D02*
X112766666Y-70534819D01*
X112766666Y-70534819D02*
X112671428Y-70677676D01*
X112671428Y-70677676D02*
X112576190Y-70772914D01*
X112576190Y-70772914D02*
X112480952Y-70820533D01*
X113671428Y-70534819D02*
X113766666Y-70534819D01*
X113766666Y-70534819D02*
X113861904Y-70582438D01*
X113861904Y-70582438D02*
X113909523Y-70630057D01*
X113909523Y-70630057D02*
X113957142Y-70725295D01*
X113957142Y-70725295D02*
X114004761Y-70915771D01*
X114004761Y-70915771D02*
X114004761Y-71153866D01*
X114004761Y-71153866D02*
X113957142Y-71344342D01*
X113957142Y-71344342D02*
X113909523Y-71439580D01*
X113909523Y-71439580D02*
X113861904Y-71487200D01*
X113861904Y-71487200D02*
X113766666Y-71534819D01*
X113766666Y-71534819D02*
X113671428Y-71534819D01*
X113671428Y-71534819D02*
X113576190Y-71487200D01*
X113576190Y-71487200D02*
X113528571Y-71439580D01*
X113528571Y-71439580D02*
X113480952Y-71344342D01*
X113480952Y-71344342D02*
X113433333Y-71153866D01*
X113433333Y-71153866D02*
X113433333Y-70915771D01*
X113433333Y-70915771D02*
X113480952Y-70725295D01*
X113480952Y-70725295D02*
X113528571Y-70630057D01*
X113528571Y-70630057D02*
X113576190Y-70582438D01*
X113576190Y-70582438D02*
X113671428Y-70534819D01*
X114623809Y-70534819D02*
X114719047Y-70534819D01*
X114719047Y-70534819D02*
X114814285Y-70582438D01*
X114814285Y-70582438D02*
X114861904Y-70630057D01*
X114861904Y-70630057D02*
X114909523Y-70725295D01*
X114909523Y-70725295D02*
X114957142Y-70915771D01*
X114957142Y-70915771D02*
X114957142Y-71153866D01*
X114957142Y-71153866D02*
X114909523Y-71344342D01*
X114909523Y-71344342D02*
X114861904Y-71439580D01*
X114861904Y-71439580D02*
X114814285Y-71487200D01*
X114814285Y-71487200D02*
X114719047Y-71534819D01*
X114719047Y-71534819D02*
X114623809Y-71534819D01*
X114623809Y-71534819D02*
X114528571Y-71487200D01*
X114528571Y-71487200D02*
X114480952Y-71439580D01*
X114480952Y-71439580D02*
X114433333Y-71344342D01*
X114433333Y-71344342D02*
X114385714Y-71153866D01*
X114385714Y-71153866D02*
X114385714Y-70915771D01*
X114385714Y-70915771D02*
X114433333Y-70725295D01*
X114433333Y-70725295D02*
X114480952Y-70630057D01*
X114480952Y-70630057D02*
X114528571Y-70582438D01*
X114528571Y-70582438D02*
X114623809Y-70534819D01*
X115385714Y-70868152D02*
X115385714Y-71534819D01*
X115385714Y-70963390D02*
X115433333Y-70915771D01*
X115433333Y-70915771D02*
X115528571Y-70868152D01*
X115528571Y-70868152D02*
X115671428Y-70868152D01*
X115671428Y-70868152D02*
X115766666Y-70915771D01*
X115766666Y-70915771D02*
X115814285Y-71011009D01*
X115814285Y-71011009D02*
X115814285Y-71534819D01*
X116623809Y-71011009D02*
X116290476Y-71011009D01*
X116290476Y-71534819D02*
X116290476Y-70534819D01*
X116290476Y-70534819D02*
X116766666Y-70534819D01*
D11*
X114516666Y-69579530D02*
X114492857Y-69603340D01*
X114492857Y-69603340D02*
X114421428Y-69627149D01*
X114421428Y-69627149D02*
X114373809Y-69627149D01*
X114373809Y-69627149D02*
X114302381Y-69603340D01*
X114302381Y-69603340D02*
X114254762Y-69555720D01*
X114254762Y-69555720D02*
X114230952Y-69508101D01*
X114230952Y-69508101D02*
X114207143Y-69412863D01*
X114207143Y-69412863D02*
X114207143Y-69341435D01*
X114207143Y-69341435D02*
X114230952Y-69246197D01*
X114230952Y-69246197D02*
X114254762Y-69198578D01*
X114254762Y-69198578D02*
X114302381Y-69150959D01*
X114302381Y-69150959D02*
X114373809Y-69127149D01*
X114373809Y-69127149D02*
X114421428Y-69127149D01*
X114421428Y-69127149D02*
X114492857Y-69150959D01*
X114492857Y-69150959D02*
X114516666Y-69174768D01*
X114945238Y-69293816D02*
X114945238Y-69627149D01*
X114826190Y-69103340D02*
X114707143Y-69460482D01*
X114707143Y-69460482D02*
X115016666Y-69460482D01*
D10*
X117585714Y-94604819D02*
X117014286Y-94604819D01*
X117300000Y-94604819D02*
X117300000Y-93604819D01*
X117300000Y-93604819D02*
X117204762Y-93747676D01*
X117204762Y-93747676D02*
X117109524Y-93842914D01*
X117109524Y-93842914D02*
X117014286Y-93890533D01*
X118014286Y-94604819D02*
X118014286Y-93604819D01*
X118585714Y-94604819D02*
X118157143Y-94033390D01*
X118585714Y-93604819D02*
X118014286Y-94176247D01*
D11*
X117716666Y-96027149D02*
X117550000Y-95789054D01*
X117430952Y-96027149D02*
X117430952Y-95527149D01*
X117430952Y-95527149D02*
X117621428Y-95527149D01*
X117621428Y-95527149D02*
X117669047Y-95550959D01*
X117669047Y-95550959D02*
X117692857Y-95574768D01*
X117692857Y-95574768D02*
X117716666Y-95622387D01*
X117716666Y-95622387D02*
X117716666Y-95693816D01*
X117716666Y-95693816D02*
X117692857Y-95741435D01*
X117692857Y-95741435D02*
X117669047Y-95765244D01*
X117669047Y-95765244D02*
X117621428Y-95789054D01*
X117621428Y-95789054D02*
X117430952Y-95789054D01*
X118145238Y-95693816D02*
X118145238Y-96027149D01*
X118026190Y-95503340D02*
X117907143Y-95860482D01*
X117907143Y-95860482D02*
X118216666Y-95860482D01*
D10*
X103832738Y-70108152D02*
X103832738Y-70774819D01*
X103594643Y-69727200D02*
X103356548Y-70441485D01*
X103356548Y-70441485D02*
X103975595Y-70441485D01*
X104356548Y-70679580D02*
X104404167Y-70727200D01*
X104404167Y-70727200D02*
X104356548Y-70774819D01*
X104356548Y-70774819D02*
X104308929Y-70727200D01*
X104308929Y-70727200D02*
X104356548Y-70679580D01*
X104356548Y-70679580D02*
X104356548Y-70774819D01*
X104737500Y-69774819D02*
X105404166Y-69774819D01*
X105404166Y-69774819D02*
X104975595Y-70774819D01*
X106213690Y-70108152D02*
X106213690Y-70774819D01*
X105785119Y-70108152D02*
X105785119Y-70631961D01*
X105785119Y-70631961D02*
X105832738Y-70727200D01*
X105832738Y-70727200D02*
X105927976Y-70774819D01*
X105927976Y-70774819D02*
X106070833Y-70774819D01*
X106070833Y-70774819D02*
X106166071Y-70727200D01*
X106166071Y-70727200D02*
X106213690Y-70679580D01*
X107023214Y-70251009D02*
X106689881Y-70251009D01*
X106689881Y-70774819D02*
X106689881Y-69774819D01*
X106689881Y-69774819D02*
X107166071Y-69774819D01*
D11*
X105154166Y-72179530D02*
X105130357Y-72203340D01*
X105130357Y-72203340D02*
X105058928Y-72227149D01*
X105058928Y-72227149D02*
X105011309Y-72227149D01*
X105011309Y-72227149D02*
X104939881Y-72203340D01*
X104939881Y-72203340D02*
X104892262Y-72155720D01*
X104892262Y-72155720D02*
X104868452Y-72108101D01*
X104868452Y-72108101D02*
X104844643Y-72012863D01*
X104844643Y-72012863D02*
X104844643Y-71941435D01*
X104844643Y-71941435D02*
X104868452Y-71846197D01*
X104868452Y-71846197D02*
X104892262Y-71798578D01*
X104892262Y-71798578D02*
X104939881Y-71750959D01*
X104939881Y-71750959D02*
X105011309Y-71727149D01*
X105011309Y-71727149D02*
X105058928Y-71727149D01*
X105058928Y-71727149D02*
X105130357Y-71750959D01*
X105130357Y-71750959D02*
X105154166Y-71774768D01*
X105606547Y-71727149D02*
X105368452Y-71727149D01*
X105368452Y-71727149D02*
X105344643Y-71965244D01*
X105344643Y-71965244D02*
X105368452Y-71941435D01*
X105368452Y-71941435D02*
X105416071Y-71917625D01*
X105416071Y-71917625D02*
X105535119Y-71917625D01*
X105535119Y-71917625D02*
X105582738Y-71941435D01*
X105582738Y-71941435D02*
X105606547Y-71965244D01*
X105606547Y-71965244D02*
X105630357Y-72012863D01*
X105630357Y-72012863D02*
X105630357Y-72131911D01*
X105630357Y-72131911D02*
X105606547Y-72179530D01*
X105606547Y-72179530D02*
X105582738Y-72203340D01*
X105582738Y-72203340D02*
X105535119Y-72227149D01*
X105535119Y-72227149D02*
X105416071Y-72227149D01*
X105416071Y-72227149D02*
X105368452Y-72203340D01*
X105368452Y-72203340D02*
X105344643Y-72179530D01*
D10*
X98785714Y-83104819D02*
X98214286Y-83104819D01*
X98500000Y-83104819D02*
X98500000Y-82104819D01*
X98500000Y-82104819D02*
X98404762Y-82247676D01*
X98404762Y-82247676D02*
X98309524Y-82342914D01*
X98309524Y-82342914D02*
X98214286Y-82390533D01*
X99214286Y-83104819D02*
X99214286Y-82104819D01*
X99785714Y-83104819D02*
X99357143Y-82533390D01*
X99785714Y-82104819D02*
X99214286Y-82676247D01*
D11*
X98916666Y-81227149D02*
X98750000Y-80989054D01*
X98630952Y-81227149D02*
X98630952Y-80727149D01*
X98630952Y-80727149D02*
X98821428Y-80727149D01*
X98821428Y-80727149D02*
X98869047Y-80750959D01*
X98869047Y-80750959D02*
X98892857Y-80774768D01*
X98892857Y-80774768D02*
X98916666Y-80822387D01*
X98916666Y-80822387D02*
X98916666Y-80893816D01*
X98916666Y-80893816D02*
X98892857Y-80941435D01*
X98892857Y-80941435D02*
X98869047Y-80965244D01*
X98869047Y-80965244D02*
X98821428Y-80989054D01*
X98821428Y-80989054D02*
X98630952Y-80989054D01*
X99345238Y-80727149D02*
X99250000Y-80727149D01*
X99250000Y-80727149D02*
X99202381Y-80750959D01*
X99202381Y-80750959D02*
X99178571Y-80774768D01*
X99178571Y-80774768D02*
X99130952Y-80846197D01*
X99130952Y-80846197D02*
X99107143Y-80941435D01*
X99107143Y-80941435D02*
X99107143Y-81131911D01*
X99107143Y-81131911D02*
X99130952Y-81179530D01*
X99130952Y-81179530D02*
X99154762Y-81203340D01*
X99154762Y-81203340D02*
X99202381Y-81227149D01*
X99202381Y-81227149D02*
X99297619Y-81227149D01*
X99297619Y-81227149D02*
X99345238Y-81203340D01*
X99345238Y-81203340D02*
X99369047Y-81179530D01*
X99369047Y-81179530D02*
X99392857Y-81131911D01*
X99392857Y-81131911D02*
X99392857Y-81012863D01*
X99392857Y-81012863D02*
X99369047Y-80965244D01*
X99369047Y-80965244D02*
X99345238Y-80941435D01*
X99345238Y-80941435D02*
X99297619Y-80917625D01*
X99297619Y-80917625D02*
X99202381Y-80917625D01*
X99202381Y-80917625D02*
X99154762Y-80941435D01*
X99154762Y-80941435D02*
X99130952Y-80965244D01*
X99130952Y-80965244D02*
X99107143Y-81012863D01*
D10*
X106507200Y-99326191D02*
X106554819Y-99183334D01*
X106554819Y-99183334D02*
X106554819Y-98945239D01*
X106554819Y-98945239D02*
X106507200Y-98850001D01*
X106507200Y-98850001D02*
X106459580Y-98802382D01*
X106459580Y-98802382D02*
X106364342Y-98754763D01*
X106364342Y-98754763D02*
X106269104Y-98754763D01*
X106269104Y-98754763D02*
X106173866Y-98802382D01*
X106173866Y-98802382D02*
X106126247Y-98850001D01*
X106126247Y-98850001D02*
X106078628Y-98945239D01*
X106078628Y-98945239D02*
X106031009Y-99135715D01*
X106031009Y-99135715D02*
X105983390Y-99230953D01*
X105983390Y-99230953D02*
X105935771Y-99278572D01*
X105935771Y-99278572D02*
X105840533Y-99326191D01*
X105840533Y-99326191D02*
X105745295Y-99326191D01*
X105745295Y-99326191D02*
X105650057Y-99278572D01*
X105650057Y-99278572D02*
X105602438Y-99230953D01*
X105602438Y-99230953D02*
X105554819Y-99135715D01*
X105554819Y-99135715D02*
X105554819Y-98897620D01*
X105554819Y-98897620D02*
X105602438Y-98754763D01*
X106554819Y-98183334D02*
X106507200Y-98278572D01*
X106507200Y-98278572D02*
X106459580Y-98326191D01*
X106459580Y-98326191D02*
X106364342Y-98373810D01*
X106364342Y-98373810D02*
X106078628Y-98373810D01*
X106078628Y-98373810D02*
X105983390Y-98326191D01*
X105983390Y-98326191D02*
X105935771Y-98278572D01*
X105935771Y-98278572D02*
X105888152Y-98183334D01*
X105888152Y-98183334D02*
X105888152Y-98040477D01*
X105888152Y-98040477D02*
X105935771Y-97945239D01*
X105935771Y-97945239D02*
X105983390Y-97897620D01*
X105983390Y-97897620D02*
X106078628Y-97850001D01*
X106078628Y-97850001D02*
X106364342Y-97850001D01*
X106364342Y-97850001D02*
X106459580Y-97897620D01*
X106459580Y-97897620D02*
X106507200Y-97945239D01*
X106507200Y-97945239D02*
X106554819Y-98040477D01*
X106554819Y-98040477D02*
X106554819Y-98183334D01*
X106554819Y-97278572D02*
X106507200Y-97373810D01*
X106507200Y-97373810D02*
X106411961Y-97421429D01*
X106411961Y-97421429D02*
X105554819Y-97421429D01*
X106554819Y-96469048D02*
X105554819Y-96469048D01*
X106507200Y-96469048D02*
X106554819Y-96564286D01*
X106554819Y-96564286D02*
X106554819Y-96754762D01*
X106554819Y-96754762D02*
X106507200Y-96850000D01*
X106507200Y-96850000D02*
X106459580Y-96897619D01*
X106459580Y-96897619D02*
X106364342Y-96945238D01*
X106364342Y-96945238D02*
X106078628Y-96945238D01*
X106078628Y-96945238D02*
X105983390Y-96897619D01*
X105983390Y-96897619D02*
X105935771Y-96850000D01*
X105935771Y-96850000D02*
X105888152Y-96754762D01*
X105888152Y-96754762D02*
X105888152Y-96564286D01*
X105888152Y-96564286D02*
X105935771Y-96469048D01*
X106507200Y-95611905D02*
X106554819Y-95707143D01*
X106554819Y-95707143D02*
X106554819Y-95897619D01*
X106554819Y-95897619D02*
X106507200Y-95992857D01*
X106507200Y-95992857D02*
X106411961Y-96040476D01*
X106411961Y-96040476D02*
X106031009Y-96040476D01*
X106031009Y-96040476D02*
X105935771Y-95992857D01*
X105935771Y-95992857D02*
X105888152Y-95897619D01*
X105888152Y-95897619D02*
X105888152Y-95707143D01*
X105888152Y-95707143D02*
X105935771Y-95611905D01*
X105935771Y-95611905D02*
X106031009Y-95564286D01*
X106031009Y-95564286D02*
X106126247Y-95564286D01*
X106126247Y-95564286D02*
X106221485Y-96040476D01*
X106554819Y-95135714D02*
X105888152Y-95135714D01*
X106078628Y-95135714D02*
X105983390Y-95088095D01*
X105983390Y-95088095D02*
X105935771Y-95040476D01*
X105935771Y-95040476D02*
X105888152Y-94945238D01*
X105888152Y-94945238D02*
X105888152Y-94850000D01*
X105554819Y-94230952D02*
X106269104Y-94230952D01*
X106269104Y-94230952D02*
X106411961Y-94278571D01*
X106411961Y-94278571D02*
X106507200Y-94373809D01*
X106507200Y-94373809D02*
X106554819Y-94516666D01*
X106554819Y-94516666D02*
X106554819Y-94611904D01*
X105888152Y-93326190D02*
X106554819Y-93326190D01*
X105888152Y-93754761D02*
X106411961Y-93754761D01*
X106411961Y-93754761D02*
X106507200Y-93707142D01*
X106507200Y-93707142D02*
X106554819Y-93611904D01*
X106554819Y-93611904D02*
X106554819Y-93469047D01*
X106554819Y-93469047D02*
X106507200Y-93373809D01*
X106507200Y-93373809D02*
X106459580Y-93326190D01*
X106554819Y-92849999D02*
X105888152Y-92849999D01*
X105983390Y-92849999D02*
X105935771Y-92802380D01*
X105935771Y-92802380D02*
X105888152Y-92707142D01*
X105888152Y-92707142D02*
X105888152Y-92564285D01*
X105888152Y-92564285D02*
X105935771Y-92469047D01*
X105935771Y-92469047D02*
X106031009Y-92421428D01*
X106031009Y-92421428D02*
X106554819Y-92421428D01*
X106031009Y-92421428D02*
X105935771Y-92373809D01*
X105935771Y-92373809D02*
X105888152Y-92278571D01*
X105888152Y-92278571D02*
X105888152Y-92135714D01*
X105888152Y-92135714D02*
X105935771Y-92040475D01*
X105935771Y-92040475D02*
X106031009Y-91992856D01*
X106031009Y-91992856D02*
X106554819Y-91992856D01*
X105888152Y-91516666D02*
X106888152Y-91516666D01*
X105935771Y-91516666D02*
X105888152Y-91421428D01*
X105888152Y-91421428D02*
X105888152Y-91230952D01*
X105888152Y-91230952D02*
X105935771Y-91135714D01*
X105935771Y-91135714D02*
X105983390Y-91088095D01*
X105983390Y-91088095D02*
X106078628Y-91040476D01*
X106078628Y-91040476D02*
X106364342Y-91040476D01*
X106364342Y-91040476D02*
X106459580Y-91088095D01*
X106459580Y-91088095D02*
X106507200Y-91135714D01*
X106507200Y-91135714D02*
X106554819Y-91230952D01*
X106554819Y-91230952D02*
X106554819Y-91421428D01*
X106554819Y-91421428D02*
X106507200Y-91516666D01*
X106507200Y-90230952D02*
X106554819Y-90326190D01*
X106554819Y-90326190D02*
X106554819Y-90516666D01*
X106554819Y-90516666D02*
X106507200Y-90611904D01*
X106507200Y-90611904D02*
X106411961Y-90659523D01*
X106411961Y-90659523D02*
X106031009Y-90659523D01*
X106031009Y-90659523D02*
X105935771Y-90611904D01*
X105935771Y-90611904D02*
X105888152Y-90516666D01*
X105888152Y-90516666D02*
X105888152Y-90326190D01*
X105888152Y-90326190D02*
X105935771Y-90230952D01*
X105935771Y-90230952D02*
X106031009Y-90183333D01*
X106031009Y-90183333D02*
X106126247Y-90183333D01*
X106126247Y-90183333D02*
X106221485Y-90659523D01*
X106554819Y-89754761D02*
X105888152Y-89754761D01*
X106078628Y-89754761D02*
X105983390Y-89707142D01*
X105983390Y-89707142D02*
X105935771Y-89659523D01*
X105935771Y-89659523D02*
X105888152Y-89564285D01*
X105888152Y-89564285D02*
X105888152Y-89469047D01*
X106650057Y-89373809D02*
X106650057Y-88611904D01*
X105650057Y-88421427D02*
X105602438Y-88373808D01*
X105602438Y-88373808D02*
X105554819Y-88278570D01*
X105554819Y-88278570D02*
X105554819Y-88040475D01*
X105554819Y-88040475D02*
X105602438Y-87945237D01*
X105602438Y-87945237D02*
X105650057Y-87897618D01*
X105650057Y-87897618D02*
X105745295Y-87849999D01*
X105745295Y-87849999D02*
X105840533Y-87849999D01*
X105840533Y-87849999D02*
X105983390Y-87897618D01*
X105983390Y-87897618D02*
X106554819Y-88469046D01*
X106554819Y-88469046D02*
X106554819Y-87849999D01*
X106650057Y-87659523D02*
X106650057Y-86897618D01*
X105554819Y-86469046D02*
X105554819Y-86278570D01*
X105554819Y-86278570D02*
X105602438Y-86183332D01*
X105602438Y-86183332D02*
X105697676Y-86088094D01*
X105697676Y-86088094D02*
X105888152Y-86040475D01*
X105888152Y-86040475D02*
X106221485Y-86040475D01*
X106221485Y-86040475D02*
X106411961Y-86088094D01*
X106411961Y-86088094D02*
X106507200Y-86183332D01*
X106507200Y-86183332D02*
X106554819Y-86278570D01*
X106554819Y-86278570D02*
X106554819Y-86469046D01*
X106554819Y-86469046D02*
X106507200Y-86564284D01*
X106507200Y-86564284D02*
X106411961Y-86659522D01*
X106411961Y-86659522D02*
X106221485Y-86707141D01*
X106221485Y-86707141D02*
X105888152Y-86707141D01*
X105888152Y-86707141D02*
X105697676Y-86659522D01*
X105697676Y-86659522D02*
X105602438Y-86564284D01*
X105602438Y-86564284D02*
X105554819Y-86469046D01*
X105888152Y-85611903D02*
X106888152Y-85611903D01*
X105935771Y-85611903D02*
X105888152Y-85516665D01*
X105888152Y-85516665D02*
X105888152Y-85326189D01*
X105888152Y-85326189D02*
X105935771Y-85230951D01*
X105935771Y-85230951D02*
X105983390Y-85183332D01*
X105983390Y-85183332D02*
X106078628Y-85135713D01*
X106078628Y-85135713D02*
X106364342Y-85135713D01*
X106364342Y-85135713D02*
X106459580Y-85183332D01*
X106459580Y-85183332D02*
X106507200Y-85230951D01*
X106507200Y-85230951D02*
X106554819Y-85326189D01*
X106554819Y-85326189D02*
X106554819Y-85516665D01*
X106554819Y-85516665D02*
X106507200Y-85611903D01*
X106507200Y-84326189D02*
X106554819Y-84421427D01*
X106554819Y-84421427D02*
X106554819Y-84611903D01*
X106554819Y-84611903D02*
X106507200Y-84707141D01*
X106507200Y-84707141D02*
X106411961Y-84754760D01*
X106411961Y-84754760D02*
X106031009Y-84754760D01*
X106031009Y-84754760D02*
X105935771Y-84707141D01*
X105935771Y-84707141D02*
X105888152Y-84611903D01*
X105888152Y-84611903D02*
X105888152Y-84421427D01*
X105888152Y-84421427D02*
X105935771Y-84326189D01*
X105935771Y-84326189D02*
X106031009Y-84278570D01*
X106031009Y-84278570D02*
X106126247Y-84278570D01*
X106126247Y-84278570D02*
X106221485Y-84754760D01*
X105888152Y-83849998D02*
X106554819Y-83849998D01*
X105983390Y-83849998D02*
X105935771Y-83802379D01*
X105935771Y-83802379D02*
X105888152Y-83707141D01*
X105888152Y-83707141D02*
X105888152Y-83564284D01*
X105888152Y-83564284D02*
X105935771Y-83469046D01*
X105935771Y-83469046D02*
X106031009Y-83421427D01*
X106031009Y-83421427D02*
X106554819Y-83421427D01*
X104985714Y-72354819D02*
X104652381Y-71878628D01*
X104414286Y-72354819D02*
X104414286Y-71354819D01*
X104414286Y-71354819D02*
X104795238Y-71354819D01*
X104795238Y-71354819D02*
X104890476Y-71402438D01*
X104890476Y-71402438D02*
X104938095Y-71450057D01*
X104938095Y-71450057D02*
X104985714Y-71545295D01*
X104985714Y-71545295D02*
X104985714Y-71688152D01*
X104985714Y-71688152D02*
X104938095Y-71783390D01*
X104938095Y-71783390D02*
X104890476Y-71831009D01*
X104890476Y-71831009D02*
X104795238Y-71878628D01*
X104795238Y-71878628D02*
X104414286Y-71878628D01*
X105747619Y-71831009D02*
X105414286Y-71831009D01*
X105414286Y-72354819D02*
X105414286Y-71354819D01*
X105414286Y-71354819D02*
X105890476Y-71354819D01*
X106271429Y-72354819D02*
X106271429Y-71354819D01*
X106271429Y-71354819D02*
X106604762Y-72069104D01*
X106604762Y-72069104D02*
X106938095Y-71354819D01*
X106938095Y-71354819D02*
X106938095Y-72354819D01*
X107461905Y-72354819D02*
X107652381Y-72354819D01*
X107652381Y-72354819D02*
X107747619Y-72307200D01*
X107747619Y-72307200D02*
X107795238Y-72259580D01*
X107795238Y-72259580D02*
X107890476Y-72116723D01*
X107890476Y-72116723D02*
X107938095Y-71926247D01*
X107938095Y-71926247D02*
X107938095Y-71545295D01*
X107938095Y-71545295D02*
X107890476Y-71450057D01*
X107890476Y-71450057D02*
X107842857Y-71402438D01*
X107842857Y-71402438D02*
X107747619Y-71354819D01*
X107747619Y-71354819D02*
X107557143Y-71354819D01*
X107557143Y-71354819D02*
X107461905Y-71402438D01*
X107461905Y-71402438D02*
X107414286Y-71450057D01*
X107414286Y-71450057D02*
X107366667Y-71545295D01*
X107366667Y-71545295D02*
X107366667Y-71783390D01*
X107366667Y-71783390D02*
X107414286Y-71878628D01*
X107414286Y-71878628D02*
X107461905Y-71926247D01*
X107461905Y-71926247D02*
X107557143Y-71973866D01*
X107557143Y-71973866D02*
X107747619Y-71973866D01*
X107747619Y-71973866D02*
X107842857Y-71926247D01*
X107842857Y-71926247D02*
X107890476Y-71878628D01*
X107890476Y-71878628D02*
X107938095Y-71783390D01*
X108842857Y-71354819D02*
X108366667Y-71354819D01*
X108366667Y-71354819D02*
X108319048Y-71831009D01*
X108319048Y-71831009D02*
X108366667Y-71783390D01*
X108366667Y-71783390D02*
X108461905Y-71735771D01*
X108461905Y-71735771D02*
X108700000Y-71735771D01*
X108700000Y-71735771D02*
X108795238Y-71783390D01*
X108795238Y-71783390D02*
X108842857Y-71831009D01*
X108842857Y-71831009D02*
X108890476Y-71926247D01*
X108890476Y-71926247D02*
X108890476Y-72164342D01*
X108890476Y-72164342D02*
X108842857Y-72259580D01*
X108842857Y-72259580D02*
X108795238Y-72307200D01*
X108795238Y-72307200D02*
X108700000Y-72354819D01*
X108700000Y-72354819D02*
X108461905Y-72354819D01*
X108461905Y-72354819D02*
X108366667Y-72307200D01*
X108366667Y-72307200D02*
X108319048Y-72259580D01*
X109223810Y-71354819D02*
X109461905Y-72354819D01*
X109461905Y-72354819D02*
X109652381Y-71640533D01*
X109652381Y-71640533D02*
X109842857Y-72354819D01*
X109842857Y-72354819D02*
X110080953Y-71354819D01*
X110461905Y-71973866D02*
X111223810Y-71973866D01*
X111842857Y-71783390D02*
X111747619Y-71735771D01*
X111747619Y-71735771D02*
X111700000Y-71688152D01*
X111700000Y-71688152D02*
X111652381Y-71592914D01*
X111652381Y-71592914D02*
X111652381Y-71545295D01*
X111652381Y-71545295D02*
X111700000Y-71450057D01*
X111700000Y-71450057D02*
X111747619Y-71402438D01*
X111747619Y-71402438D02*
X111842857Y-71354819D01*
X111842857Y-71354819D02*
X112033333Y-71354819D01*
X112033333Y-71354819D02*
X112128571Y-71402438D01*
X112128571Y-71402438D02*
X112176190Y-71450057D01*
X112176190Y-71450057D02*
X112223809Y-71545295D01*
X112223809Y-71545295D02*
X112223809Y-71592914D01*
X112223809Y-71592914D02*
X112176190Y-71688152D01*
X112176190Y-71688152D02*
X112128571Y-71735771D01*
X112128571Y-71735771D02*
X112033333Y-71783390D01*
X112033333Y-71783390D02*
X111842857Y-71783390D01*
X111842857Y-71783390D02*
X111747619Y-71831009D01*
X111747619Y-71831009D02*
X111700000Y-71878628D01*
X111700000Y-71878628D02*
X111652381Y-71973866D01*
X111652381Y-71973866D02*
X111652381Y-72164342D01*
X111652381Y-72164342D02*
X111700000Y-72259580D01*
X111700000Y-72259580D02*
X111747619Y-72307200D01*
X111747619Y-72307200D02*
X111842857Y-72354819D01*
X111842857Y-72354819D02*
X112033333Y-72354819D01*
X112033333Y-72354819D02*
X112128571Y-72307200D01*
X112128571Y-72307200D02*
X112176190Y-72259580D01*
X112176190Y-72259580D02*
X112223809Y-72164342D01*
X112223809Y-72164342D02*
X112223809Y-71973866D01*
X112223809Y-71973866D02*
X112176190Y-71878628D01*
X112176190Y-71878628D02*
X112128571Y-71831009D01*
X112128571Y-71831009D02*
X112033333Y-71783390D01*
X113080952Y-71354819D02*
X112890476Y-71354819D01*
X112890476Y-71354819D02*
X112795238Y-71402438D01*
X112795238Y-71402438D02*
X112747619Y-71450057D01*
X112747619Y-71450057D02*
X112652381Y-71592914D01*
X112652381Y-71592914D02*
X112604762Y-71783390D01*
X112604762Y-71783390D02*
X112604762Y-72164342D01*
X112604762Y-72164342D02*
X112652381Y-72259580D01*
X112652381Y-72259580D02*
X112700000Y-72307200D01*
X112700000Y-72307200D02*
X112795238Y-72354819D01*
X112795238Y-72354819D02*
X112985714Y-72354819D01*
X112985714Y-72354819D02*
X113080952Y-72307200D01*
X113080952Y-72307200D02*
X113128571Y-72259580D01*
X113128571Y-72259580D02*
X113176190Y-72164342D01*
X113176190Y-72164342D02*
X113176190Y-71926247D01*
X113176190Y-71926247D02*
X113128571Y-71831009D01*
X113128571Y-71831009D02*
X113080952Y-71783390D01*
X113080952Y-71783390D02*
X112985714Y-71735771D01*
X112985714Y-71735771D02*
X112795238Y-71735771D01*
X112795238Y-71735771D02*
X112700000Y-71783390D01*
X112700000Y-71783390D02*
X112652381Y-71831009D01*
X112652381Y-71831009D02*
X112604762Y-71926247D01*
X113747619Y-71783390D02*
X113652381Y-71735771D01*
X113652381Y-71735771D02*
X113604762Y-71688152D01*
X113604762Y-71688152D02*
X113557143Y-71592914D01*
X113557143Y-71592914D02*
X113557143Y-71545295D01*
X113557143Y-71545295D02*
X113604762Y-71450057D01*
X113604762Y-71450057D02*
X113652381Y-71402438D01*
X113652381Y-71402438D02*
X113747619Y-71354819D01*
X113747619Y-71354819D02*
X113938095Y-71354819D01*
X113938095Y-71354819D02*
X114033333Y-71402438D01*
X114033333Y-71402438D02*
X114080952Y-71450057D01*
X114080952Y-71450057D02*
X114128571Y-71545295D01*
X114128571Y-71545295D02*
X114128571Y-71592914D01*
X114128571Y-71592914D02*
X114080952Y-71688152D01*
X114080952Y-71688152D02*
X114033333Y-71735771D01*
X114033333Y-71735771D02*
X113938095Y-71783390D01*
X113938095Y-71783390D02*
X113747619Y-71783390D01*
X113747619Y-71783390D02*
X113652381Y-71831009D01*
X113652381Y-71831009D02*
X113604762Y-71878628D01*
X113604762Y-71878628D02*
X113557143Y-71973866D01*
X113557143Y-71973866D02*
X113557143Y-72164342D01*
X113557143Y-72164342D02*
X113604762Y-72259580D01*
X113604762Y-72259580D02*
X113652381Y-72307200D01*
X113652381Y-72307200D02*
X113747619Y-72354819D01*
X113747619Y-72354819D02*
X113938095Y-72354819D01*
X113938095Y-72354819D02*
X114033333Y-72307200D01*
X114033333Y-72307200D02*
X114080952Y-72259580D01*
X114080952Y-72259580D02*
X114128571Y-72164342D01*
X114128571Y-72164342D02*
X114128571Y-71973866D01*
X114128571Y-71973866D02*
X114080952Y-71878628D01*
X114080952Y-71878628D02*
X114033333Y-71831009D01*
X114033333Y-71831009D02*
X113938095Y-71783390D01*
X114509524Y-72307200D02*
X114652381Y-72354819D01*
X114652381Y-72354819D02*
X114890476Y-72354819D01*
X114890476Y-72354819D02*
X114985714Y-72307200D01*
X114985714Y-72307200D02*
X115033333Y-72259580D01*
X115033333Y-72259580D02*
X115080952Y-72164342D01*
X115080952Y-72164342D02*
X115080952Y-72069104D01*
X115080952Y-72069104D02*
X115033333Y-71973866D01*
X115033333Y-71973866D02*
X114985714Y-71926247D01*
X114985714Y-71926247D02*
X114890476Y-71878628D01*
X114890476Y-71878628D02*
X114700000Y-71831009D01*
X114700000Y-71831009D02*
X114604762Y-71783390D01*
X114604762Y-71783390D02*
X114557143Y-71735771D01*
X114557143Y-71735771D02*
X114509524Y-71640533D01*
X114509524Y-71640533D02*
X114509524Y-71545295D01*
X114509524Y-71545295D02*
X114557143Y-71450057D01*
X114557143Y-71450057D02*
X114604762Y-71402438D01*
X114604762Y-71402438D02*
X114700000Y-71354819D01*
X114700000Y-71354819D02*
X114938095Y-71354819D01*
X114938095Y-71354819D02*
X115080952Y-71402438D01*
X115461905Y-71450057D02*
X115509524Y-71402438D01*
X115509524Y-71402438D02*
X115604762Y-71354819D01*
X115604762Y-71354819D02*
X115842857Y-71354819D01*
X115842857Y-71354819D02*
X115938095Y-71402438D01*
X115938095Y-71402438D02*
X115985714Y-71450057D01*
X115985714Y-71450057D02*
X116033333Y-71545295D01*
X116033333Y-71545295D02*
X116033333Y-71640533D01*
X116033333Y-71640533D02*
X115985714Y-71783390D01*
X115985714Y-71783390D02*
X115414286Y-72354819D01*
X115414286Y-72354819D02*
X116033333Y-72354819D01*
X109438095Y-80854819D02*
X109438095Y-81664342D01*
X109438095Y-81664342D02*
X109485714Y-81759580D01*
X109485714Y-81759580D02*
X109533333Y-81807200D01*
X109533333Y-81807200D02*
X109628571Y-81854819D01*
X109628571Y-81854819D02*
X109819047Y-81854819D01*
X109819047Y-81854819D02*
X109914285Y-81807200D01*
X109914285Y-81807200D02*
X109961904Y-81759580D01*
X109961904Y-81759580D02*
X110009523Y-81664342D01*
X110009523Y-81664342D02*
X110009523Y-80854819D01*
X111009523Y-81854819D02*
X110438095Y-81854819D01*
X110723809Y-81854819D02*
X110723809Y-80854819D01*
X110723809Y-80854819D02*
X110628571Y-80997676D01*
X110628571Y-80997676D02*
X110533333Y-81092914D01*
X110533333Y-81092914D02*
X110438095Y-81140533D01*
D12*
%TO.C,D5*%
X98250000Y-82300000D02*
X100050000Y-82300000D01*
X98250000Y-83700000D02*
X98250000Y-82300000D01*
X98850000Y-82650000D02*
X98850000Y-83350000D01*
X98850000Y-83000000D02*
X98650000Y-83000000D01*
X98850000Y-83000000D02*
X99350000Y-82650000D01*
X99350000Y-82650000D02*
X99350000Y-83350000D01*
X99350000Y-83000000D02*
X99600000Y-83000000D01*
X99350000Y-83350000D02*
X98850000Y-83000000D01*
X100050000Y-82300000D02*
X100050000Y-83700000D01*
X100050000Y-83700000D02*
X98250000Y-83700000D01*
%TO.C,AE1*%
X87283277Y-71268471D02*
X89756606Y-65441675D01*
X96359066Y-74251827D02*
X98207226Y-69897839D01*
X96362643Y-71684101D02*
X97533215Y-71485709D01*
X97033078Y-72663955D02*
X96362643Y-71684101D01*
X98207226Y-69897839D02*
X101714349Y-71386525D01*
X99549699Y-76486121D02*
X87279370Y-71277676D01*
X99549699Y-76486121D02*
X99866191Y-75740512D01*
X99866191Y-75740512D02*
X96359066Y-74251827D01*
X101714349Y-71386525D02*
X102030842Y-70640915D01*
X102030842Y-70640915D02*
X89760513Y-65432469D01*
%TO.C,C2*%
X117000000Y-92775000D02*
X119000000Y-92775000D01*
X117000000Y-94025000D02*
X117000000Y-92775000D01*
X119000000Y-92775000D02*
X119000000Y-94025000D01*
X119000000Y-94025000D02*
X117000000Y-94025000D01*
%TO.C,J1*%
X105600000Y-69150000D02*
X105600000Y-65100000D01*
X109100000Y-68442893D02*
X108600000Y-69150000D01*
X109600000Y-69150000D02*
X109100000Y-68442893D01*
X111350000Y-65100000D02*
X105600000Y-65100000D01*
X111350000Y-69150000D02*
X105600000Y-69150000D01*
X111350000Y-69150000D02*
X111350000Y-65100000D01*
%TO.C,D4*%
X98300000Y-84300000D02*
X100100000Y-84300000D01*
X98300000Y-85700000D02*
X98300000Y-84300000D01*
X98900000Y-84650000D02*
X98900000Y-85350000D01*
X98900000Y-85000000D02*
X98700000Y-85000000D01*
X98900000Y-85000000D02*
X99400000Y-84650000D01*
X99400000Y-84650000D02*
X99400000Y-85350000D01*
X99400000Y-85000000D02*
X99650000Y-85000000D01*
X99400000Y-85350000D02*
X98900000Y-85000000D01*
X100100000Y-84300000D02*
X100100000Y-85700000D01*
X100100000Y-85700000D02*
X98300000Y-85700000D01*
%TO.C,R5*%
X118000000Y-70375000D02*
X120000000Y-70375000D01*
X118000000Y-71625000D02*
X118000000Y-70375000D01*
X120000000Y-70375000D02*
X120000000Y-71625000D01*
X120000000Y-71625000D02*
X118000000Y-71625000D01*
%TO.C,R1*%
X108575000Y-94400000D02*
X109825000Y-94400000D01*
X108575000Y-96400000D02*
X108575000Y-94400000D01*
X109825000Y-94400000D02*
X109825000Y-96400000D01*
X109825000Y-96400000D02*
X108575000Y-96400000D01*
%TO.C,C1*%
X117000000Y-90575000D02*
X119000000Y-90575000D01*
X117000000Y-91825000D02*
X117000000Y-90575000D01*
X119000000Y-90575000D02*
X119000000Y-91825000D01*
X119000000Y-91825000D02*
X117000000Y-91825000D01*
%TO.C,R8*%
X108200000Y-71375000D02*
X110200000Y-71375000D01*
X108200000Y-72625000D02*
X108200000Y-71375000D01*
X110200000Y-71375000D02*
X110200000Y-72625000D01*
X110200000Y-72625000D02*
X108200000Y-72625000D01*
%TO.C,D3*%
X98300000Y-86300000D02*
X100100000Y-86300000D01*
X98300000Y-87700000D02*
X98300000Y-86300000D01*
X98900000Y-86650000D02*
X98900000Y-87350000D01*
X98900000Y-87000000D02*
X98700000Y-87000000D01*
X98900000Y-87000000D02*
X99400000Y-86650000D01*
X99400000Y-86650000D02*
X99400000Y-87350000D01*
X99400000Y-87000000D02*
X99650000Y-87000000D01*
X99400000Y-87350000D02*
X98900000Y-87000000D01*
X100100000Y-86300000D02*
X100100000Y-87700000D01*
X100100000Y-87700000D02*
X98300000Y-87700000D01*
%TO.C,C4*%
X113600000Y-68775000D02*
X115600000Y-68775000D01*
X113600000Y-70025000D02*
X113600000Y-68775000D01*
X115600000Y-68775000D02*
X115600000Y-70025000D01*
X115600000Y-70025000D02*
X113600000Y-70025000D01*
%TO.C,R4*%
X116800000Y-95175000D02*
X118800000Y-95175000D01*
X116800000Y-96425000D02*
X116800000Y-95175000D01*
X118800000Y-95175000D02*
X118800000Y-96425000D01*
X118800000Y-96425000D02*
X116800000Y-96425000D01*
%TO.C,C5*%
X104237500Y-71375000D02*
X106237500Y-71375000D01*
X104237500Y-72625000D02*
X104237500Y-71375000D01*
X106237500Y-71375000D02*
X106237500Y-72625000D01*
X106237500Y-72625000D02*
X104237500Y-72625000D01*
%TO.C,R6*%
X98000000Y-80375000D02*
X100000000Y-80375000D01*
X98000000Y-81625000D02*
X98000000Y-80375000D01*
X100000000Y-80375000D02*
X100000000Y-81625000D01*
X100000000Y-81625000D02*
X98000000Y-81625000D01*
%TO.C,U1*%
X102200000Y-73400000D02*
X102200000Y-89400000D01*
X117200000Y-89400000D02*
X102200000Y-89400000D01*
X117200000Y-89400000D02*
X118200000Y-88400000D01*
X118200000Y-73400000D02*
X102200000Y-73400000D01*
X118200000Y-73400000D02*
X118200000Y-88400000D01*
%TD*%
M02*
