%TF.GenerationSoftware,KiCad,Pcbnew,8.0.1*%
%TF.CreationDate,2024-04-01T21:43:51+02:00*%
%TF.ProjectId,SenseLoraCAM,53656e73-654c-46f7-9261-43414d2e6b69,rev?*%
%TF.SameCoordinates,Original*%
%TF.FileFunction,Copper,L1,Top*%
%TF.FilePolarity,Positive*%
%FSLAX46Y46*%
G04 Gerber Fmt 4.6, Leading zero omitted, Abs format (unit mm)*
G04 Created by KiCad (PCBNEW 8.0.1) date 2024-04-01 21:43:51*
%MOMM*%
%LPD*%
G01*
G04 APERTURE LIST*
G04 Aperture macros list*
%AMRoundRect*
0 Rectangle with rounded corners*
0 $1 Rounding radius*
0 $2 $3 $4 $5 $6 $7 $8 $9 X,Y pos of 4 corners*
0 Add a 4 corners polygon primitive as box body*
4,1,4,$2,$3,$4,$5,$6,$7,$8,$9,$2,$3,0*
0 Add four circle primitives for the rounded corners*
1,1,$1+$1,$2,$3*
1,1,$1+$1,$4,$5*
1,1,$1+$1,$6,$7*
1,1,$1+$1,$8,$9*
0 Add four rect primitives between the rounded corners*
20,1,$1+$1,$2,$3,$4,$5,0*
20,1,$1+$1,$4,$5,$6,$7,0*
20,1,$1+$1,$6,$7,$8,$9,0*
20,1,$1+$1,$8,$9,$2,$3,0*%
%AMRotRect*
0 Rectangle, with rotation*
0 The origin of the aperture is its center*
0 $1 length*
0 $2 width*
0 $3 Rotation angle, in degrees counterclockwise*
0 Add horizontal line*
21,1,$1,$2,0,0,$3*%
%AMFreePoly0*
4,1,19,0.500000,-0.750000,0.000000,-0.750000,0.000000,-0.744911,-0.071157,-0.744911,-0.207708,-0.704816,-0.327430,-0.627875,-0.420627,-0.520320,-0.479746,-0.390866,-0.500000,-0.250000,-0.500000,0.250000,-0.479746,0.390866,-0.420627,0.520320,-0.327430,0.627875,-0.207708,0.704816,-0.071157,0.744911,0.000000,0.744911,0.000000,0.750000,0.500000,0.750000,0.500000,-0.750000,0.500000,-0.750000,
$1*%
%AMFreePoly1*
4,1,19,0.000000,0.744911,0.071157,0.744911,0.207708,0.704816,0.327430,0.627875,0.420627,0.520320,0.479746,0.390866,0.500000,0.250000,0.500000,-0.250000,0.479746,-0.390866,0.420627,-0.520320,0.327430,-0.627875,0.207708,-0.704816,0.071157,-0.744911,0.000000,-0.744911,0.000000,-0.750000,-0.500000,-0.750000,-0.500000,0.750000,0.000000,0.750000,0.000000,0.744911,0.000000,0.744911,
$1*%
G04 Aperture macros list end*
%TA.AperFunction,SMDPad,CuDef*%
%ADD10RoundRect,0.112500X-0.187500X-0.112500X0.187500X-0.112500X0.187500X0.112500X-0.187500X0.112500X0*%
%TD*%
%TA.AperFunction,SMDPad,CuDef*%
%ADD11RotRect,1.270000X3.600000X247.000000*%
%TD*%
%TA.AperFunction,SMDPad,CuDef*%
%ADD12RotRect,1.350000X4.200000X247.000000*%
%TD*%
%TA.AperFunction,SMDPad,CuDef*%
%ADD13RoundRect,0.250000X-0.337500X-0.475000X0.337500X-0.475000X0.337500X0.475000X-0.337500X0.475000X0*%
%TD*%
%TA.AperFunction,SMDPad,CuDef*%
%ADD14RoundRect,0.150000X0.150000X0.700000X-0.150000X0.700000X-0.150000X-0.700000X0.150000X-0.700000X0*%
%TD*%
%TA.AperFunction,SMDPad,CuDef*%
%ADD15RoundRect,0.250000X0.250000X1.100000X-0.250000X1.100000X-0.250000X-1.100000X0.250000X-1.100000X0*%
%TD*%
%TA.AperFunction,SMDPad,CuDef*%
%ADD16FreePoly0,0.000000*%
%TD*%
%TA.AperFunction,SMDPad,CuDef*%
%ADD17FreePoly1,0.000000*%
%TD*%
%TA.AperFunction,SMDPad,CuDef*%
%ADD18RoundRect,0.250000X-0.350000X-0.450000X0.350000X-0.450000X0.350000X0.450000X-0.350000X0.450000X0*%
%TD*%
%TA.AperFunction,SMDPad,CuDef*%
%ADD19RoundRect,0.250000X-0.450000X0.350000X-0.450000X-0.350000X0.450000X-0.350000X0.450000X0.350000X0*%
%TD*%
%TA.AperFunction,SMDPad,CuDef*%
%ADD20RoundRect,0.250000X0.350000X0.450000X-0.350000X0.450000X-0.350000X-0.450000X0.350000X-0.450000X0*%
%TD*%
%TA.AperFunction,SMDPad,CuDef*%
%ADD21RoundRect,0.250000X0.337500X0.475000X-0.337500X0.475000X-0.337500X-0.475000X0.337500X-0.475000X0*%
%TD*%
%TA.AperFunction,SMDPad,CuDef*%
%ADD22FreePoly0,90.000000*%
%TD*%
%TA.AperFunction,SMDPad,CuDef*%
%ADD23FreePoly1,90.000000*%
%TD*%
%TA.AperFunction,SMDPad,CuDef*%
%ADD24R,0.250000X0.600000*%
%TD*%
%TA.AperFunction,SMDPad,CuDef*%
%ADD25R,0.600000X0.250000*%
%TD*%
%TA.AperFunction,SMDPad,CuDef*%
%ADD26R,1.500000X1.500000*%
%TD*%
%TA.AperFunction,SMDPad,CuDef*%
%ADD27RoundRect,0.317500X1.157500X0.317500X-1.157500X0.317500X-1.157500X-0.317500X1.157500X-0.317500X0*%
%TD*%
%TA.AperFunction,ComponentPad*%
%ADD28R,1.700000X1.700000*%
%TD*%
%TA.AperFunction,ComponentPad*%
%ADD29O,1.700000X1.700000*%
%TD*%
%TA.AperFunction,ComponentPad*%
%ADD30C,0.950000*%
%TD*%
%TA.AperFunction,ViaPad*%
%ADD31C,0.500000*%
%TD*%
%TA.AperFunction,ViaPad*%
%ADD32C,0.600000*%
%TD*%
%TA.AperFunction,ViaPad*%
%ADD33C,3.300000*%
%TD*%
%TA.AperFunction,Conductor*%
%ADD34C,0.200000*%
%TD*%
%TA.AperFunction,Conductor*%
%ADD35C,0.500000*%
%TD*%
%TA.AperFunction,Conductor*%
%ADD36C,0.300000*%
%TD*%
%TA.AperFunction,Conductor*%
%ADD37C,0.250000*%
%TD*%
%TA.AperFunction,Conductor*%
%ADD38C,0.400000*%
%TD*%
%TA.AperFunction,Conductor*%
%ADD39C,0.850000*%
%TD*%
G04 APERTURE END LIST*
D10*
%TO.P,D5,1,K*%
%TO.N,Net-(D3-K)*%
X98100000Y-83000000D03*
%TO.P,D5,2,A*%
%TO.N,/DIO0*%
X100200000Y-83000000D03*
%TD*%
D11*
%TO.P,AE1,1,A*%
%TO.N,Net-(AE1-A)*%
X99032106Y-72817221D03*
D12*
%TO.P,AE1,2,Shield*%
%TO.N,GND*%
X100320022Y-70294942D03*
X98112392Y-75495794D03*
%TD*%
D13*
%TO.P,C2,1*%
%TO.N,+BATT*%
X116962500Y-93400000D03*
%TO.P,C2,2*%
%TO.N,GND*%
X119037500Y-93400000D03*
%TD*%
D14*
%TO.P,J1,1,Pin_1*%
%TO.N,Net-(J1-Pin_1)*%
X109100000Y-69400000D03*
%TO.P,J1,2,Pin_2*%
%TO.N,GND*%
X107850000Y-69400000D03*
D15*
%TO.P,J1,MP*%
%TO.N,N/C*%
X110950000Y-66200000D03*
X106000000Y-66200000D03*
%TD*%
D10*
%TO.P,D4,1,K*%
%TO.N,Net-(D3-K)*%
X98150000Y-85000000D03*
%TO.P,D4,2,A*%
%TO.N,Net-(D4-A)*%
X100250000Y-85000000D03*
%TD*%
D16*
%TO.P,JP4,1,A*%
%TO.N,Net-(D3-K)*%
X97600000Y-78800000D03*
D17*
%TO.P,JP4,2,B*%
%TO.N,/GPIO43*%
X98900000Y-78800000D03*
%TD*%
D18*
%TO.P,R5,1*%
%TO.N,Net-(JP3-B)*%
X118000000Y-71000000D03*
%TO.P,R5,2*%
%TO.N,+3.3VP*%
X120000000Y-71000000D03*
%TD*%
D19*
%TO.P,R1,1*%
%TO.N,GND*%
X109200000Y-94400000D03*
%TO.P,R1,2*%
%TO.N,Net-(U3-GAIN)*%
X109200000Y-96400000D03*
%TD*%
D13*
%TO.P,C1,1*%
%TO.N,+BATT*%
X116962500Y-91200000D03*
%TO.P,C1,2*%
%TO.N,GND*%
X119037500Y-91200000D03*
%TD*%
D20*
%TO.P,R8,1*%
%TO.N,Net-(J1-Pin_1)*%
X110200000Y-72000000D03*
%TO.P,R8,2*%
%TO.N,+BATT*%
X108200000Y-72000000D03*
%TD*%
D10*
%TO.P,D3,1,K*%
%TO.N,Net-(D3-K)*%
X98150000Y-87000000D03*
%TO.P,D3,2,A*%
%TO.N,Net-(D3-A)*%
X100250000Y-87000000D03*
%TD*%
D13*
%TO.P,C4,1*%
%TO.N,GND*%
X113562500Y-69400000D03*
%TO.P,C4,2*%
%TO.N,Net-(JP3-B)*%
X115637500Y-69400000D03*
%TD*%
D20*
%TO.P,R4,1*%
%TO.N,+BATT*%
X118800000Y-95800000D03*
%TO.P,R4,2*%
%TO.N,Net-(U3-SD)*%
X116800000Y-95800000D03*
%TD*%
D21*
%TO.P,C5,1*%
%TO.N,+BATT*%
X106275000Y-72000000D03*
%TO.P,C5,2*%
%TO.N,GND*%
X104200000Y-72000000D03*
%TD*%
D18*
%TO.P,R6,1*%
%TO.N,GND*%
X98000000Y-81000000D03*
%TO.P,R6,2*%
%TO.N,Net-(D3-K)*%
X100000000Y-81000000D03*
%TD*%
D22*
%TO.P,JP5,1,A*%
%TO.N,/AUDIO_DIN*%
X104200000Y-92000000D03*
D23*
%TO.P,JP5,2,B*%
%TO.N,/DIO0*%
X104200000Y-90700000D03*
%TD*%
D16*
%TO.P,JP3,1,A*%
%TO.N,/GPIO44*%
X113900000Y-71800000D03*
D17*
%TO.P,JP3,2,B*%
%TO.N,Net-(JP3-B)*%
X115200000Y-71800000D03*
%TD*%
D24*
%TO.P,U3,1,DIN*%
%TO.N,/AUDIO_DIN*%
X112101000Y-96200000D03*
%TO.P,U3,2,GAIN*%
%TO.N,Net-(U3-GAIN)*%
X112600000Y-96200000D03*
%TO.P,U3,3,GND*%
%TO.N,GND*%
X113101000Y-96200000D03*
%TO.P,U3,4,SD*%
%TO.N,Net-(U3-SD)*%
X113600000Y-96200000D03*
D25*
%TO.P,U3,5,N.C.*%
%TO.N,unconnected-(U3-N.C.-Pad5)*%
X114349000Y-95448000D03*
%TO.P,U3,6,N.C.*%
%TO.N,unconnected-(U3-N.C.-Pad6)*%
X114349000Y-94948000D03*
%TO.P,U3,7,VDD*%
%TO.N,+BATT*%
X114349000Y-94448000D03*
%TO.P,U3,8,VDD*%
X114349000Y-93948000D03*
D24*
%TO.P,U3,9,OUTP*%
%TO.N,Net-(J2-Pin_1)*%
X113599000Y-93200000D03*
%TO.P,U3,10,OUTN*%
%TO.N,Net-(J2-Pin_2)*%
X113099000Y-93200000D03*
%TO.P,U3,11,GND*%
%TO.N,GND*%
X112599000Y-93200000D03*
%TO.P,U3,12,N.C.*%
%TO.N,unconnected-(U3-N.C.-Pad12)*%
X112101000Y-93200000D03*
D25*
%TO.P,U3,13,N.C.*%
%TO.N,unconnected-(U3-N.C.-Pad13)*%
X111349000Y-93948000D03*
%TO.P,U3,14,LRCLK*%
%TO.N,/AUDIO_LRC*%
X111349000Y-94448000D03*
%TO.P,U3,15,GND*%
%TO.N,GND*%
X111349000Y-94948000D03*
%TO.P,U3,16,BCLK*%
%TO.N,/AUDIO_BCLK*%
X111349000Y-95448000D03*
D26*
%TO.P,U3,17,GND*%
%TO.N,GND*%
X112849000Y-94700000D03*
%TD*%
D27*
%TO.P,U1,1,GND*%
%TO.N,GND*%
X117725000Y-88400000D03*
%TO.P,U1,2,MISO*%
%TO.N,/GPIO08*%
X117725000Y-86400000D03*
%TO.P,U1,3,MOSI*%
%TO.N,/GPIO09*%
X117725000Y-84400000D03*
%TO.P,U1,4,SCK*%
%TO.N,/GPIO07*%
X117725000Y-82400000D03*
%TO.P,U1,5,NSS*%
%TO.N,/GPIO03*%
X117725000Y-80400000D03*
%TO.P,U1,6,RESET*%
%TO.N,Net-(JP3-B)*%
X117725000Y-78400000D03*
%TO.P,U1,7,DIO5*%
%TO.N,unconnected-(U1-DIO5-Pad7)*%
X117725000Y-76400000D03*
%TO.P,U1,8,GND*%
%TO.N,GND*%
X117725000Y-74400000D03*
%TO.P,U1,9,ANT*%
%TO.N,Net-(AE1-A)*%
X102675000Y-74400000D03*
%TO.P,U1,10,GND*%
%TO.N,GND*%
X102675000Y-76400000D03*
%TO.P,U1,11,DIO3*%
%TO.N,unconnected-(U1-DIO3-Pad11)*%
X102675000Y-78400000D03*
%TO.P,U1,12,DIO4*%
%TO.N,unconnected-(U1-DIO4-Pad12)*%
X102675000Y-80400000D03*
%TO.P,U1,13,3.3V*%
%TO.N,+3.3VP*%
X102675000Y-82400000D03*
%TO.P,U1,14,DIO0*%
%TO.N,/DIO0*%
X102675000Y-84400000D03*
%TO.P,U1,15,DIO1*%
%TO.N,Net-(D4-A)*%
X102675000Y-86400000D03*
%TO.P,U1,16,DIO2*%
%TO.N,Net-(D3-A)*%
X102675000Y-88400000D03*
%TD*%
D28*
%TO.P,J3,1,Pin_1*%
%TO.N,+BATT*%
X122200000Y-94240000D03*
D29*
%TO.P,J3,2,Pin_2*%
%TO.N,GND*%
X122200000Y-91700000D03*
%TO.P,J3,3,Pin_3*%
%TO.N,+3.3VP*%
X122200000Y-89160000D03*
%TO.P,J3,4,Pin_4*%
%TO.N,/GPIO09*%
X122200000Y-86620000D03*
%TO.P,J3,5,Pin_5*%
%TO.N,/GPIO08*%
X122200000Y-84080000D03*
%TO.P,J3,6,Pin_6*%
%TO.N,/GPIO07*%
X122200000Y-81540000D03*
%TO.P,J3,7,Pin_7*%
%TO.N,/GPIO44*%
X122200000Y-79000000D03*
%TD*%
D28*
%TO.P,J2,1,Pin_1*%
%TO.N,Net-(J2-Pin_1)*%
X113675000Y-90600000D03*
D29*
%TO.P,J2,2,Pin_2*%
%TO.N,Net-(J2-Pin_2)*%
X111135000Y-90600000D03*
%TD*%
D30*
%TO.P,SW2,SH*%
%TO.N,N/C*%
X122036353Y-64432289D03*
X125596029Y-67018545D03*
%TD*%
D28*
%TO.P,J4,1,Pin_1*%
%TO.N,/AUDIO_BCLK*%
X106900000Y-94240000D03*
D29*
%TO.P,J4,2,Pin_2*%
%TO.N,/AUDIO_LRC*%
X106900000Y-91700000D03*
%TO.P,J4,3,Pin_3*%
%TO.N,/GPIO03*%
X106900000Y-89160000D03*
%TO.P,J4,4,Pin_4*%
%TO.N,/AUDIO_DIN*%
X106900000Y-86620000D03*
%TO.P,J4,5,Pin_5*%
%TO.N,/GPIO05*%
X106900000Y-84080000D03*
%TO.P,J4,6,Pin_6*%
%TO.N,/GPIO06*%
X106900000Y-81540000D03*
%TO.P,J4,7,Pin_7*%
%TO.N,/GPIO43*%
X106900000Y-79000000D03*
%TD*%
D31*
%TO.N,GND*%
X98200000Y-75600000D03*
D32*
X125800000Y-87200000D03*
X122000000Y-71200000D03*
X124000000Y-81800000D03*
X122400000Y-69800000D03*
D33*
X102800000Y-68600000D03*
D31*
X117000000Y-74200000D03*
X102700000Y-92900000D03*
X109000000Y-89800000D03*
D32*
X128740380Y-81059620D03*
D33*
X125600000Y-90600000D03*
D32*
X110600000Y-92800000D03*
X128400000Y-79600000D03*
X120000000Y-82800000D03*
X117725000Y-88400000D03*
X116200000Y-66400000D03*
X126200000Y-76800000D03*
D31*
X100400000Y-70200000D03*
D32*
X118200000Y-72600000D03*
D31*
X128000000Y-85800000D03*
D32*
X115400000Y-81400000D03*
%TO.N,+3.3VP*%
X120400000Y-71000000D03*
X102675000Y-82400000D03*
%TO.N,+BATT*%
X105850000Y-69800000D03*
%TO.N,/GPIO07*%
X128000000Y-83800000D03*
%TO.N,/GPIO09*%
X120200000Y-84800000D03*
%TO.N,/AUDIO_DIN*%
X110656786Y-96048000D03*
%TO.N,/GPIO03*%
X114200000Y-79800000D03*
%TO.N,/GPIO06*%
X109400000Y-79000000D03*
%TO.N,/GPIO05*%
X111450000Y-80330000D03*
%TO.N,/GPIO43*%
X120850000Y-75250000D03*
X120000000Y-78200000D03*
%TO.N,/GPIO44*%
X129200000Y-82200000D03*
%TD*%
D34*
%TO.N,GND*%
X111349000Y-94948000D02*
X112601000Y-94948000D01*
X112599000Y-92673000D02*
X112326000Y-92400000D01*
D35*
X106897316Y-68447316D02*
X107244632Y-68100000D01*
X102952684Y-68447316D02*
X102800000Y-68600000D01*
D34*
X113101000Y-96200000D02*
X113101000Y-94952000D01*
D36*
X128740380Y-81059620D02*
X128740380Y-79940380D01*
D34*
X112599000Y-93200000D02*
X112599000Y-94450000D01*
X110600000Y-92800000D02*
X110400000Y-92600000D01*
X100000000Y-76200000D02*
X99975000Y-76225000D01*
D36*
X109200000Y-93600000D02*
X109200000Y-94400000D01*
D34*
X112599000Y-93200000D02*
X112599000Y-92673000D01*
X110400000Y-92234314D02*
X109000000Y-90834315D01*
D35*
X106897316Y-68447316D02*
X102952684Y-68447316D01*
D36*
X102700000Y-92900000D02*
X108500000Y-92900000D01*
D34*
X109000000Y-90834315D02*
X109000000Y-89800000D01*
D35*
X107244632Y-68100000D02*
X112262500Y-68100000D01*
X102675000Y-76400000D02*
X100295338Y-76400000D01*
D34*
X110400000Y-92600000D02*
X110400000Y-92234314D01*
X112601000Y-94948000D02*
X112849000Y-94700000D01*
D35*
X107850000Y-69400000D02*
X106897316Y-68447316D01*
D34*
X111349000Y-94948000D02*
X109748000Y-94948000D01*
D35*
X112262500Y-68100000D02*
X113562500Y-69400000D01*
D36*
X108500000Y-92900000D02*
X109200000Y-93600000D01*
D34*
X111000000Y-92400000D02*
X110600000Y-92800000D01*
D36*
X123000000Y-82800000D02*
X120000000Y-82800000D01*
D34*
X109748000Y-94948000D02*
X109200000Y-94400000D01*
X112326000Y-92400000D02*
X111000000Y-92400000D01*
D35*
X100295338Y-76400000D02*
G75*
G02*
X98112384Y-75495802I-38J3087100D01*
G01*
D36*
X128740380Y-79940380D02*
G75*
G03*
X128400000Y-79600020I-340380J-20D01*
G01*
X124000000Y-81800000D02*
G75*
G02*
X123000000Y-82800000I-1000000J0D01*
G01*
D35*
%TO.N,+BATT*%
X118137500Y-94575000D02*
X116962500Y-93400000D01*
X118800000Y-94575000D02*
X118137500Y-94575000D01*
X106600000Y-70550000D02*
X105850000Y-69800000D01*
D37*
X114349000Y-94448000D02*
X115300000Y-94448000D01*
D35*
X106600000Y-72000000D02*
X106600000Y-70550000D01*
X121865000Y-94575000D02*
X118800000Y-94575000D01*
X115800000Y-93948000D02*
X116414500Y-93948000D01*
X116962500Y-91200000D02*
X116962500Y-93400000D01*
X114349000Y-93948000D02*
X115800000Y-93948000D01*
X106275000Y-72000000D02*
X108200000Y-72000000D01*
D37*
X115300000Y-94448000D02*
X115800000Y-93948000D01*
D35*
X116414500Y-93948000D02*
X116962500Y-93400000D01*
X118800000Y-95800000D02*
X118800000Y-94575000D01*
%TO.N,/GPIO07*%
X122140000Y-81600000D02*
X122200000Y-81540000D01*
X122200000Y-81540000D02*
X122740000Y-81000000D01*
X117725000Y-82400000D02*
X118525000Y-81600000D01*
X127800000Y-83600000D02*
X128000000Y-83800000D01*
X126000000Y-81000000D02*
X127800000Y-82800000D01*
X118525000Y-81600000D02*
X122140000Y-81600000D01*
X122740000Y-81000000D02*
X126000000Y-81000000D01*
X127800000Y-82800000D02*
X127800000Y-83600000D01*
D36*
%TO.N,/GPIO09*%
X117725000Y-84400000D02*
X119800000Y-84400000D01*
X119800000Y-84400000D02*
X120200000Y-84800000D01*
D35*
%TO.N,/GPIO08*%
X119880000Y-86400000D02*
X117725000Y-86400000D01*
X122200000Y-84080000D02*
X119880000Y-86400000D01*
D34*
%TO.N,Net-(J2-Pin_1)*%
X113599000Y-93200000D02*
X113599000Y-90676000D01*
%TO.N,Net-(J2-Pin_2)*%
X111135000Y-90600000D02*
X113099000Y-92564000D01*
X113099000Y-92564000D02*
X113099000Y-93200000D01*
%TO.N,Net-(U3-GAIN)*%
X112526000Y-96800000D02*
X112600000Y-96726000D01*
X112600000Y-96726000D02*
X112600000Y-96200000D01*
X109600000Y-96800000D02*
X112526000Y-96800000D01*
%TO.N,Net-(U3-SD)*%
X113600000Y-96200000D02*
X116400000Y-96200000D01*
%TO.N,/AUDIO_LRC*%
X110400000Y-94024000D02*
X110400000Y-93448529D01*
X108651471Y-91700000D02*
X106900000Y-91700000D01*
X110400000Y-93448529D02*
X108651471Y-91700000D01*
X110824000Y-94448000D02*
X110400000Y-94024000D01*
X111349000Y-94448000D02*
X110824000Y-94448000D01*
D36*
%TO.N,/AUDIO_DIN*%
X106900000Y-86620000D02*
X105700000Y-87820000D01*
X110808786Y-96200000D02*
X112101000Y-96200000D01*
X105100000Y-92000000D02*
X104200000Y-92000000D01*
X105700000Y-91400000D02*
X105100000Y-92000000D01*
X110656786Y-96048000D02*
X110808786Y-96200000D01*
X105700000Y-87820000D02*
X105700000Y-91400000D01*
D34*
%TO.N,/AUDIO_BCLK*%
X108108000Y-95448000D02*
X106900000Y-94240000D01*
X111349000Y-95448000D02*
X108108000Y-95448000D01*
D36*
%TO.N,/GPIO03*%
X122697057Y-87820000D02*
X125517057Y-85000000D01*
X110460000Y-85600000D02*
X114506012Y-85600000D01*
X121702943Y-87820000D02*
X122697057Y-87820000D01*
X116291012Y-87385000D02*
X121267943Y-87385000D01*
X125517057Y-85000000D02*
X127791642Y-85000000D01*
X129200000Y-83591642D02*
X129200000Y-83191642D01*
X127791642Y-85000000D02*
X129200000Y-83591642D01*
X106900000Y-89160000D02*
X110460000Y-85600000D01*
X126348358Y-80340000D02*
X117785000Y-80340000D01*
X121267943Y-87385000D02*
X121702943Y-87820000D01*
X129200000Y-83191642D02*
X126348358Y-80340000D01*
D38*
X114800000Y-80400000D02*
X117725000Y-80400000D01*
X114200000Y-79800000D02*
X114800000Y-80400000D01*
D36*
X114506012Y-85600000D02*
X116291012Y-87385000D01*
D35*
%TO.N,/GPIO06*%
X106900000Y-81540000D02*
X106900000Y-81500000D01*
X106900000Y-81500000D02*
X109400000Y-79000000D01*
%TO.N,/GPIO05*%
X106900000Y-84080000D02*
X110650000Y-80330000D01*
X110650000Y-80330000D02*
X111450000Y-80330000D01*
D36*
%TO.N,/GPIO43*%
X106000000Y-79000000D02*
X106900000Y-79000000D01*
X99500000Y-78900000D02*
X100285000Y-78900000D01*
X120000000Y-76100000D02*
X120850000Y-75250000D01*
X99400000Y-78800000D02*
X99500000Y-78900000D01*
X120000000Y-78200000D02*
X120000000Y-76100000D01*
X105585000Y-79415000D02*
X106000000Y-79000000D01*
X105585000Y-79415000D02*
X100800000Y-79415000D01*
X100285000Y-78900000D02*
X100800000Y-79415000D01*
D34*
%TO.N,Net-(D3-A)*%
X101650000Y-88400000D02*
X100250000Y-87000000D01*
%TO.N,Net-(D4-A)*%
X101650000Y-86400000D02*
X100250000Y-85000000D01*
D35*
%TO.N,/DIO0*%
X104659496Y-84909496D02*
X104150000Y-84400000D01*
X104150000Y-84400000D02*
X102675000Y-84400000D01*
X104200000Y-90700000D02*
X104659496Y-90240504D01*
D34*
X101600000Y-84400000D02*
X100200000Y-83000000D01*
D35*
X104659496Y-90240504D02*
X104659496Y-84909496D01*
D36*
%TO.N,/GPIO44*%
X129390380Y-79190380D02*
X128600000Y-78400000D01*
X115900000Y-79385000D02*
X115585000Y-79385000D01*
D35*
X113900000Y-71800000D02*
X113900000Y-77700000D01*
D36*
X115585000Y-79385000D02*
X113900000Y-77700000D01*
X122800000Y-78400000D02*
X122200000Y-79000000D01*
X129390380Y-82009620D02*
X129390380Y-79190380D01*
X121815000Y-79385000D02*
X115900000Y-79385000D01*
X122200000Y-79000000D02*
X121815000Y-79385000D01*
X128600000Y-78400000D02*
X122800000Y-78400000D01*
X129200000Y-82200000D02*
X129390380Y-82009620D01*
D35*
%TO.N,Net-(JP3-B)*%
X115200000Y-69837500D02*
X115637500Y-69400000D01*
X115637500Y-69400000D02*
X116400000Y-69400000D01*
X116400000Y-69400000D02*
X118000000Y-71000000D01*
X117725000Y-78400000D02*
X116250000Y-78400000D01*
X115200000Y-77350000D02*
X115200000Y-71800000D01*
X115200000Y-71800000D02*
X115200000Y-69837500D01*
X116250000Y-78400000D02*
X115200000Y-77350000D01*
D39*
%TO.N,Net-(AE1-A)*%
X102548943Y-74273942D02*
X102675000Y-74400000D01*
X100412949Y-73389185D02*
X101200000Y-74176236D01*
X99032106Y-72817221D02*
G75*
G02*
X102548944Y-74273941I-6J-4973579D01*
G01*
X99032106Y-72817221D02*
G75*
G02*
X100412940Y-73389194I-6J-1952779D01*
G01*
D35*
%TO.N,Net-(D3-K)*%
X98100000Y-82900000D02*
X100000000Y-81000000D01*
D36*
X98950000Y-79950000D02*
X100000000Y-81000000D01*
D35*
X98100000Y-83000000D02*
X98100000Y-82900000D01*
X98150000Y-86000000D02*
X98150000Y-85000000D01*
X98100000Y-84000000D02*
X98100000Y-83000000D01*
D36*
X97600000Y-78800000D02*
X97600000Y-79555000D01*
D35*
X98150000Y-87000000D02*
X98150000Y-86000000D01*
D36*
X97600000Y-79555000D02*
X97995000Y-79950000D01*
D35*
X98150000Y-85600000D02*
X98100000Y-85550000D01*
D36*
X97995000Y-79950000D02*
X98950000Y-79950000D01*
D35*
X98150000Y-86000000D02*
X98150000Y-85600000D01*
X98100000Y-85550000D02*
X98100000Y-84000000D01*
%TO.N,Net-(J1-Pin_1)*%
X109100000Y-69400000D02*
X110400000Y-70700000D01*
X110400000Y-70700000D02*
X110400000Y-71800000D01*
X110400000Y-71800000D02*
X110200000Y-72000000D01*
%TD*%
%TA.AperFunction,Conductor*%
%TO.N,GND*%
G36*
X99318834Y-82845046D02*
G01*
X99374767Y-82886918D01*
X99399184Y-82952382D01*
X99399500Y-82961227D01*
X99399500Y-83174393D01*
X99399501Y-83174415D01*
X99402234Y-83209152D01*
X99402234Y-83209155D01*
X99402235Y-83209156D01*
X99445445Y-83357887D01*
X99464137Y-83389493D01*
X99524282Y-83491194D01*
X99524289Y-83491203D01*
X99633796Y-83600710D01*
X99633800Y-83600713D01*
X99633802Y-83600715D01*
X99767113Y-83679555D01*
X99915844Y-83722765D01*
X99950595Y-83725500D01*
X100024901Y-83725499D01*
X100091940Y-83745183D01*
X100112583Y-83761818D01*
X100413584Y-84062819D01*
X100447069Y-84124142D01*
X100442085Y-84193834D01*
X100400213Y-84249767D01*
X100334749Y-84274184D01*
X100325903Y-84274500D01*
X100000606Y-84274500D01*
X100000584Y-84274501D01*
X99965847Y-84277234D01*
X99965844Y-84277235D01*
X99817113Y-84320445D01*
X99817111Y-84320445D01*
X99817111Y-84320446D01*
X99683805Y-84399282D01*
X99683796Y-84399289D01*
X99574289Y-84508796D01*
X99574282Y-84508805D01*
X99495448Y-84642108D01*
X99495445Y-84642113D01*
X99478583Y-84700153D01*
X99452234Y-84790847D01*
X99452234Y-84790849D01*
X99449500Y-84825589D01*
X99449500Y-85174393D01*
X99449501Y-85174415D01*
X99452234Y-85209152D01*
X99452234Y-85209155D01*
X99452235Y-85209156D01*
X99495445Y-85357887D01*
X99514137Y-85389493D01*
X99574282Y-85491194D01*
X99574289Y-85491203D01*
X99683796Y-85600710D01*
X99683800Y-85600713D01*
X99683802Y-85600715D01*
X99817113Y-85679555D01*
X99965844Y-85722765D01*
X100000595Y-85725500D01*
X100074901Y-85725499D01*
X100141940Y-85745183D01*
X100162583Y-85761818D01*
X100463584Y-86062819D01*
X100497069Y-86124142D01*
X100492085Y-86193834D01*
X100450213Y-86249767D01*
X100384749Y-86274184D01*
X100375903Y-86274500D01*
X100000606Y-86274500D01*
X100000584Y-86274501D01*
X99965847Y-86277234D01*
X99965844Y-86277235D01*
X99817113Y-86320445D01*
X99817111Y-86320445D01*
X99817111Y-86320446D01*
X99683805Y-86399282D01*
X99683796Y-86399289D01*
X99574289Y-86508796D01*
X99574282Y-86508805D01*
X99499500Y-86635256D01*
X99495445Y-86642113D01*
X99477584Y-86703591D01*
X99452234Y-86790847D01*
X99452234Y-86790849D01*
X99449500Y-86825589D01*
X99449500Y-87174393D01*
X99449501Y-87174415D01*
X99452234Y-87209152D01*
X99452234Y-87209155D01*
X99452235Y-87209156D01*
X99495445Y-87357887D01*
X99495446Y-87357888D01*
X99574282Y-87491194D01*
X99574289Y-87491203D01*
X99683796Y-87600710D01*
X99683800Y-87600713D01*
X99683802Y-87600715D01*
X99817113Y-87679555D01*
X99965844Y-87722765D01*
X100000595Y-87725500D01*
X100074901Y-87725499D01*
X100141940Y-87745183D01*
X100162583Y-87761818D01*
X100663181Y-88262416D01*
X100696666Y-88323739D01*
X100699500Y-88350097D01*
X100699500Y-88763442D01*
X100714961Y-88900671D01*
X100761229Y-89032896D01*
X100775844Y-89074663D01*
X100873915Y-89230742D01*
X101004258Y-89361085D01*
X101160337Y-89459156D01*
X101292559Y-89505422D01*
X101334328Y-89520038D01*
X101422090Y-89529925D01*
X101471557Y-89535499D01*
X101471558Y-89535500D01*
X103509409Y-89535500D01*
X103576448Y-89555185D01*
X103622203Y-89607989D01*
X103632147Y-89677147D01*
X103603122Y-89740703D01*
X103560921Y-89772294D01*
X103466918Y-89815223D01*
X103466908Y-89815228D01*
X103466906Y-89815230D01*
X103433253Y-89836857D01*
X103345867Y-89893015D01*
X103345863Y-89893018D01*
X103237226Y-89987152D01*
X103237207Y-89987169D01*
X103237206Y-89987171D01*
X103142985Y-90095909D01*
X103142983Y-90095911D01*
X103142983Y-90095912D01*
X103142981Y-90095915D01*
X103065255Y-90216857D01*
X103065252Y-90216863D01*
X103005483Y-90347741D01*
X102964977Y-90485691D01*
X102964974Y-90485703D01*
X102944500Y-90628110D01*
X102944500Y-91200002D01*
X102949644Y-91271939D01*
X102960603Y-91309262D01*
X102964363Y-91361841D01*
X102944500Y-91499998D01*
X102944500Y-92071889D01*
X102964974Y-92214296D01*
X102964976Y-92214304D01*
X103005483Y-92352259D01*
X103021660Y-92387681D01*
X103065252Y-92483136D01*
X103065253Y-92483138D01*
X103139376Y-92598476D01*
X103140196Y-92599917D01*
X103142988Y-92604098D01*
X103237207Y-92712830D01*
X103237210Y-92712833D01*
X103345864Y-92806981D01*
X103345867Y-92806984D01*
X103345869Y-92806985D01*
X103345870Y-92806986D01*
X103466906Y-92884770D01*
X103466914Y-92884774D01*
X103466923Y-92884779D01*
X103591642Y-92941736D01*
X103595941Y-92943985D01*
X103603505Y-92946206D01*
X103735744Y-92985035D01*
X103735745Y-92985035D01*
X103735748Y-92985036D01*
X103778183Y-92991136D01*
X103878059Y-93005497D01*
X103934399Y-93005497D01*
X103934409Y-93005500D01*
X103985764Y-93005500D01*
X104465573Y-93005500D01*
X104465601Y-93005497D01*
X104521940Y-93005497D01*
X104521941Y-93005497D01*
X104655479Y-92986297D01*
X104655481Y-92986297D01*
X104661612Y-92985415D01*
X104664256Y-92985035D01*
X104664257Y-92985035D01*
X104802309Y-92944498D01*
X104933094Y-92884770D01*
X105054130Y-92806986D01*
X105162791Y-92712832D01*
X105162794Y-92712829D01*
X105199949Y-92669947D01*
X105258723Y-92632174D01*
X105269459Y-92629535D01*
X105289744Y-92625501D01*
X105408127Y-92576465D01*
X105412111Y-92573803D01*
X105415708Y-92571400D01*
X105459032Y-92542452D01*
X105514669Y-92505277D01*
X105586938Y-92433007D01*
X105648259Y-92399522D01*
X105717951Y-92404506D01*
X105773885Y-92446376D01*
X105776186Y-92449552D01*
X105841235Y-92542452D01*
X105861505Y-92571401D01*
X105983430Y-92693326D01*
X106016915Y-92754649D01*
X106011931Y-92824341D01*
X105970059Y-92880274D01*
X105939083Y-92897189D01*
X105807669Y-92946203D01*
X105807664Y-92946206D01*
X105692455Y-93032452D01*
X105692452Y-93032455D01*
X105606206Y-93147664D01*
X105606202Y-93147671D01*
X105555908Y-93282517D01*
X105549501Y-93342116D01*
X105549501Y-93342123D01*
X105549500Y-93342135D01*
X105549500Y-95137870D01*
X105549501Y-95137876D01*
X105555908Y-95197483D01*
X105606202Y-95332328D01*
X105606204Y-95332331D01*
X105633600Y-95368927D01*
X105658018Y-95434391D01*
X105643167Y-95502665D01*
X105593762Y-95552070D01*
X105525489Y-95566923D01*
X105473175Y-95551107D01*
X104850384Y-95198000D01*
X104760246Y-95146893D01*
X104755275Y-95143919D01*
X104046360Y-94696820D01*
X104041524Y-94693609D01*
X103937356Y-94620872D01*
X103354378Y-94213796D01*
X103349692Y-94210358D01*
X103077302Y-94000499D01*
X102685784Y-93698859D01*
X102681267Y-93695208D01*
X102364555Y-93426631D01*
X102042053Y-93153143D01*
X102037736Y-93149306D01*
X101424616Y-92577860D01*
X101420463Y-92573803D01*
X101389841Y-92542455D01*
X100867245Y-92007460D01*
X100834834Y-91974280D01*
X100830886Y-91970045D01*
X100273952Y-91343677D01*
X100270218Y-91339272D01*
X100269474Y-91338352D01*
X99862845Y-90835403D01*
X99743301Y-90687542D01*
X99739753Y-90682937D01*
X99588649Y-90476998D01*
X99243950Y-90007209D01*
X99240643Y-90002474D01*
X98777045Y-89304228D01*
X98773952Y-89299324D01*
X98753375Y-89264937D01*
X98343601Y-88580133D01*
X98340738Y-88575081D01*
X98290901Y-88482171D01*
X98173026Y-88262416D01*
X97996389Y-87933113D01*
X97982046Y-87864731D01*
X98006951Y-87799451D01*
X98063195Y-87757998D01*
X98105661Y-87750500D01*
X98223919Y-87750500D01*
X98273781Y-87740581D01*
X98337623Y-87727881D01*
X98361814Y-87725499D01*
X98399394Y-87725499D01*
X98399404Y-87725499D01*
X98434156Y-87722765D01*
X98582887Y-87679555D01*
X98716198Y-87600715D01*
X98825715Y-87491198D01*
X98904555Y-87357887D01*
X98947765Y-87209156D01*
X98950500Y-87174405D01*
X98950499Y-86825596D01*
X98947765Y-86790844D01*
X98905422Y-86645098D01*
X98900500Y-86610508D01*
X98900500Y-85389493D01*
X98905423Y-85354899D01*
X98913383Y-85327500D01*
X98947765Y-85209156D01*
X98950500Y-85174405D01*
X98950499Y-84825596D01*
X98947765Y-84790844D01*
X98904555Y-84642113D01*
X98902942Y-84639386D01*
X98867768Y-84579908D01*
X98850500Y-84516788D01*
X98850500Y-83389493D01*
X98855423Y-83354899D01*
X98897765Y-83209156D01*
X98898067Y-83205320D01*
X98898831Y-83203312D01*
X98898904Y-83202918D01*
X98898977Y-83202931D01*
X98922948Y-83140030D01*
X98933997Y-83127369D01*
X99187821Y-82873545D01*
X99249142Y-82840062D01*
X99318834Y-82845046D01*
G37*
%TD.AperFunction*%
%TA.AperFunction,Conductor*%
G36*
X114424853Y-61705583D02*
G01*
X115262041Y-61744866D01*
X115267838Y-61745275D01*
X115333551Y-61751455D01*
X116102267Y-61823757D01*
X116107987Y-61824430D01*
X116937837Y-61941941D01*
X116943572Y-61942891D01*
X117766953Y-62099159D01*
X117772630Y-62100374D01*
X118587830Y-62295076D01*
X118593433Y-62296554D01*
X119398595Y-62529248D01*
X119404122Y-62530987D01*
X120197481Y-62801160D01*
X120202909Y-62803151D01*
X120981530Y-63109740D01*
X120982767Y-63110228D01*
X120988125Y-63112485D01*
X121541910Y-63361123D01*
X121595005Y-63406538D01*
X121615117Y-63473450D01*
X121595862Y-63540614D01*
X121560012Y-63577344D01*
X121539304Y-63591181D01*
X121528867Y-63597437D01*
X121491778Y-63617262D01*
X121491774Y-63617264D01*
X121459260Y-63643947D01*
X121449493Y-63651190D01*
X121414515Y-63674563D01*
X121414503Y-63674573D01*
X121384755Y-63704319D01*
X121375746Y-63712485D01*
X121343233Y-63739169D01*
X121316549Y-63771682D01*
X121308383Y-63780691D01*
X121278637Y-63810439D01*
X121278627Y-63810451D01*
X121255254Y-63845429D01*
X121248011Y-63855196D01*
X121221328Y-63887710D01*
X121221326Y-63887714D01*
X121201501Y-63924803D01*
X121195247Y-63935237D01*
X121171875Y-63970215D01*
X121171875Y-63970216D01*
X121155774Y-64009086D01*
X121150574Y-64020081D01*
X121130748Y-64057174D01*
X121130747Y-64057176D01*
X121118539Y-64097421D01*
X121114442Y-64108873D01*
X121098339Y-64147750D01*
X121090132Y-64189010D01*
X121087177Y-64200808D01*
X121074967Y-64241061D01*
X121070844Y-64282922D01*
X121069059Y-64294956D01*
X121060853Y-64336212D01*
X121060853Y-64378274D01*
X121060256Y-64390428D01*
X121056133Y-64432288D01*
X121060256Y-64474149D01*
X121060853Y-64486303D01*
X121060853Y-64528371D01*
X121069058Y-64569619D01*
X121070844Y-64581654D01*
X121074967Y-64623516D01*
X121074968Y-64623521D01*
X121087177Y-64663769D01*
X121090133Y-64675571D01*
X121098339Y-64716826D01*
X121098341Y-64716834D01*
X121114435Y-64755688D01*
X121118534Y-64767141D01*
X121118540Y-64767160D01*
X121130748Y-64807403D01*
X121130749Y-64807406D01*
X121130750Y-64807407D01*
X121150572Y-64844492D01*
X121155775Y-64855492D01*
X121171875Y-64894361D01*
X121195243Y-64929333D01*
X121201498Y-64939768D01*
X121221328Y-64976867D01*
X121221332Y-64976873D01*
X121248010Y-65009380D01*
X121255257Y-65019151D01*
X121264927Y-65033622D01*
X121278633Y-65054134D01*
X121308380Y-65083881D01*
X121316547Y-65092892D01*
X121343232Y-65125409D01*
X121367918Y-65145668D01*
X121375735Y-65152083D01*
X121375748Y-65152093D01*
X121384756Y-65160257D01*
X121414508Y-65190009D01*
X121449481Y-65213377D01*
X121459252Y-65220624D01*
X121474419Y-65233071D01*
X121491769Y-65247310D01*
X121491777Y-65247315D01*
X121528860Y-65267136D01*
X121539299Y-65273392D01*
X121574280Y-65296766D01*
X121574286Y-65296768D01*
X121574287Y-65296769D01*
X121613144Y-65312864D01*
X121624146Y-65318067D01*
X121661239Y-65337894D01*
X121701494Y-65350104D01*
X121712941Y-65354200D01*
X121751810Y-65370301D01*
X121793078Y-65378509D01*
X121804864Y-65381462D01*
X121845115Y-65393672D01*
X121845122Y-65393674D01*
X121886985Y-65397796D01*
X121898996Y-65399577D01*
X121940275Y-65407789D01*
X121982338Y-65407789D01*
X121994492Y-65408386D01*
X122036353Y-65412509D01*
X122078214Y-65408386D01*
X122090368Y-65407789D01*
X122132429Y-65407789D01*
X122132431Y-65407789D01*
X122173706Y-65399578D01*
X122185721Y-65397796D01*
X122227584Y-65393674D01*
X122267852Y-65381458D01*
X122279621Y-65378510D01*
X122320896Y-65370301D01*
X122359779Y-65354194D01*
X122371209Y-65350105D01*
X122403948Y-65340174D01*
X122411461Y-65337896D01*
X122411461Y-65337895D01*
X122411467Y-65337894D01*
X122448564Y-65318063D01*
X122459553Y-65312866D01*
X122498426Y-65296766D01*
X122533405Y-65273393D01*
X122543839Y-65267139D01*
X122543845Y-65267136D01*
X122580934Y-65247312D01*
X122613462Y-65220615D01*
X122623215Y-65213383D01*
X122658198Y-65190009D01*
X122687957Y-65160249D01*
X122696957Y-65152093D01*
X122729473Y-65125409D01*
X122756161Y-65092888D01*
X122764313Y-65083893D01*
X122794073Y-65054134D01*
X122817447Y-65019151D01*
X122824679Y-65009398D01*
X122851376Y-64976870D01*
X122871207Y-64939768D01*
X122877462Y-64929333D01*
X122900830Y-64894362D01*
X122916930Y-64855489D01*
X122922127Y-64844500D01*
X122941958Y-64807403D01*
X122954171Y-64767141D01*
X122958258Y-64755715D01*
X122974365Y-64716832D01*
X122982574Y-64675557D01*
X122985522Y-64663788D01*
X122997738Y-64623520D01*
X123001861Y-64581654D01*
X123003642Y-64569642D01*
X123011853Y-64528367D01*
X123011853Y-64486303D01*
X123012450Y-64474149D01*
X123012520Y-64473432D01*
X123016573Y-64432289D01*
X123012450Y-64390428D01*
X123011853Y-64378274D01*
X123011853Y-64336740D01*
X123031538Y-64269701D01*
X123084342Y-64223946D01*
X123153500Y-64214002D01*
X123197009Y-64228871D01*
X123239766Y-64253113D01*
X123244711Y-64256072D01*
X123953649Y-64703185D01*
X123958458Y-64706379D01*
X124608468Y-65160260D01*
X124645620Y-65186202D01*
X124650298Y-65189634D01*
X124915132Y-65393672D01*
X125314211Y-65701136D01*
X125318732Y-65704791D01*
X125476756Y-65838798D01*
X125515155Y-65897170D01*
X125515900Y-65967036D01*
X125478754Y-66026213D01*
X125415511Y-66055914D01*
X125408717Y-66056773D01*
X125404805Y-66057158D01*
X125364548Y-66069369D01*
X125352750Y-66072324D01*
X125311490Y-66080531D01*
X125272613Y-66096634D01*
X125261161Y-66100731D01*
X125220916Y-66112939D01*
X125220914Y-66112940D01*
X125183821Y-66132766D01*
X125172826Y-66137966D01*
X125133956Y-66154067D01*
X125133955Y-66154067D01*
X125098977Y-66177439D01*
X125088543Y-66183693D01*
X125051454Y-66203518D01*
X125051450Y-66203520D01*
X125018936Y-66230203D01*
X125009169Y-66237446D01*
X124974191Y-66260819D01*
X124974179Y-66260829D01*
X124944431Y-66290575D01*
X124935422Y-66298741D01*
X124902909Y-66325425D01*
X124876225Y-66357938D01*
X124868059Y-66366947D01*
X124838313Y-66396695D01*
X124838303Y-66396707D01*
X124814930Y-66431685D01*
X124807687Y-66441452D01*
X124781004Y-66473966D01*
X124781002Y-66473970D01*
X124761177Y-66511059D01*
X124754923Y-66521493D01*
X124731551Y-66556471D01*
X124731551Y-66556472D01*
X124715450Y-66595342D01*
X124710250Y-66606337D01*
X124690424Y-66643430D01*
X124690423Y-66643432D01*
X124678215Y-66683677D01*
X124674118Y-66695129D01*
X124658015Y-66734006D01*
X124649808Y-66775266D01*
X124646853Y-66787064D01*
X124634643Y-66827317D01*
X124630520Y-66869178D01*
X124628735Y-66881212D01*
X124620529Y-66922468D01*
X124620529Y-66964530D01*
X124619932Y-66976684D01*
X124615809Y-67018544D01*
X124619932Y-67060405D01*
X124620529Y-67072559D01*
X124620529Y-67114627D01*
X124628734Y-67155875D01*
X124630520Y-67167910D01*
X124634643Y-67209772D01*
X124634644Y-67209777D01*
X124646853Y-67250025D01*
X124649809Y-67261827D01*
X124658015Y-67303082D01*
X124658017Y-67303090D01*
X124674111Y-67341944D01*
X124678210Y-67353397D01*
X124678216Y-67353416D01*
X124690424Y-67393659D01*
X124690425Y-67393662D01*
X124690426Y-67393663D01*
X124710248Y-67430748D01*
X124715451Y-67441748D01*
X124731551Y-67480617D01*
X124754919Y-67515589D01*
X124761174Y-67526024D01*
X124781004Y-67563123D01*
X124781008Y-67563129D01*
X124807686Y-67595636D01*
X124814933Y-67605407D01*
X124824238Y-67619331D01*
X124838309Y-67640390D01*
X124868056Y-67670137D01*
X124876223Y-67679148D01*
X124902908Y-67711665D01*
X124927594Y-67731924D01*
X124935411Y-67738339D01*
X124935424Y-67738349D01*
X124944432Y-67746513D01*
X124974184Y-67776265D01*
X125009157Y-67799633D01*
X125018928Y-67806880D01*
X125034095Y-67819327D01*
X125051445Y-67833566D01*
X125051453Y-67833571D01*
X125088536Y-67853392D01*
X125098975Y-67859648D01*
X125133956Y-67883022D01*
X125133962Y-67883024D01*
X125133963Y-67883025D01*
X125172820Y-67899120D01*
X125183822Y-67904323D01*
X125220915Y-67924150D01*
X125261170Y-67936360D01*
X125272617Y-67940456D01*
X125311486Y-67956557D01*
X125352754Y-67964765D01*
X125364540Y-67967718D01*
X125404791Y-67979928D01*
X125404798Y-67979930D01*
X125446661Y-67984052D01*
X125458672Y-67985833D01*
X125499951Y-67994045D01*
X125542014Y-67994045D01*
X125554168Y-67994642D01*
X125596029Y-67998765D01*
X125637890Y-67994642D01*
X125650044Y-67994045D01*
X125692105Y-67994045D01*
X125692107Y-67994045D01*
X125733382Y-67985834D01*
X125745397Y-67984052D01*
X125787260Y-67979930D01*
X125827528Y-67967714D01*
X125839297Y-67964766D01*
X125880572Y-67956557D01*
X125919455Y-67940450D01*
X125930885Y-67936361D01*
X125963624Y-67926430D01*
X125971137Y-67924152D01*
X125971137Y-67924151D01*
X125971143Y-67924150D01*
X126008240Y-67904319D01*
X126019229Y-67899122D01*
X126058102Y-67883022D01*
X126093081Y-67859649D01*
X126103515Y-67853395D01*
X126103521Y-67853392D01*
X126140610Y-67833568D01*
X126173138Y-67806871D01*
X126182891Y-67799639D01*
X126217874Y-67776265D01*
X126247633Y-67746505D01*
X126256633Y-67738349D01*
X126289149Y-67711665D01*
X126315837Y-67679144D01*
X126323989Y-67670149D01*
X126353749Y-67640390D01*
X126377123Y-67605407D01*
X126384355Y-67595654D01*
X126411052Y-67563126D01*
X126430883Y-67526024D01*
X126437138Y-67515589D01*
X126460506Y-67480618D01*
X126476606Y-67441745D01*
X126481803Y-67430756D01*
X126501634Y-67393659D01*
X126513847Y-67353397D01*
X126517934Y-67341971D01*
X126534041Y-67303088D01*
X126542250Y-67261813D01*
X126545198Y-67250044D01*
X126557414Y-67209776D01*
X126561537Y-67167910D01*
X126563318Y-67155898D01*
X126571529Y-67114623D01*
X126571529Y-67114621D01*
X126571974Y-67110099D01*
X126598129Y-67045309D01*
X126655159Y-67004945D01*
X126724959Y-67001821D01*
X126784081Y-67035594D01*
X127165165Y-67425719D01*
X127169114Y-67429955D01*
X127726043Y-68056319D01*
X127729776Y-68060722D01*
X127822170Y-68175001D01*
X128256698Y-68712457D01*
X128260246Y-68717062D01*
X128756038Y-69392774D01*
X128759362Y-69397534D01*
X129213376Y-70081344D01*
X129222946Y-70095758D01*
X129226047Y-70100675D01*
X129656394Y-70819860D01*
X129659261Y-70824918D01*
X130055403Y-71563442D01*
X130058031Y-71568628D01*
X130419146Y-72324960D01*
X130421527Y-72330264D01*
X130746780Y-73102660D01*
X130748910Y-73108069D01*
X131037609Y-73894879D01*
X131039483Y-73900383D01*
X131290980Y-74699846D01*
X131292594Y-74705431D01*
X131506341Y-75515796D01*
X131507692Y-75521450D01*
X131683226Y-76340970D01*
X131684310Y-76346682D01*
X131821235Y-77173514D01*
X131822050Y-77179270D01*
X131920071Y-78011622D01*
X131920615Y-78017411D01*
X131979511Y-78853411D01*
X131979784Y-78859218D01*
X131999431Y-79697093D01*
X131999431Y-79702907D01*
X131979784Y-80540781D01*
X131979511Y-80546588D01*
X131920615Y-81382588D01*
X131920071Y-81388377D01*
X131822050Y-82220729D01*
X131821235Y-82226485D01*
X131684310Y-83053317D01*
X131683226Y-83059029D01*
X131507692Y-83878549D01*
X131506341Y-83884203D01*
X131292594Y-84694568D01*
X131290980Y-84700153D01*
X131039483Y-85499616D01*
X131037609Y-85505120D01*
X130748910Y-86291930D01*
X130746780Y-86297339D01*
X130421527Y-87069735D01*
X130419146Y-87075039D01*
X130058031Y-87831371D01*
X130055403Y-87836557D01*
X129659261Y-88575081D01*
X129656394Y-88580139D01*
X129226047Y-89299324D01*
X129222946Y-89304241D01*
X128759367Y-90002458D01*
X128756038Y-90007225D01*
X128260246Y-90682937D01*
X128256698Y-90687542D01*
X127729781Y-91339272D01*
X127726025Y-91343701D01*
X127467753Y-91634174D01*
X127169129Y-91970028D01*
X127165165Y-91974280D01*
X126579536Y-92573803D01*
X126575377Y-92577866D01*
X125962277Y-93149293D01*
X125957932Y-93153156D01*
X125318732Y-93695208D01*
X125314211Y-93698863D01*
X124650307Y-94210358D01*
X124645620Y-94213797D01*
X123958475Y-94693609D01*
X123953632Y-94696825D01*
X123740647Y-94831150D01*
X123673442Y-94850262D01*
X123606573Y-94830007D01*
X123561270Y-94776815D01*
X123550499Y-94726267D01*
X123550499Y-93342129D01*
X123550498Y-93342123D01*
X123550497Y-93342116D01*
X123544091Y-93282517D01*
X123544090Y-93282515D01*
X123493797Y-93147671D01*
X123493793Y-93147664D01*
X123407547Y-93032455D01*
X123407544Y-93032452D01*
X123292335Y-92946206D01*
X123292328Y-92946202D01*
X123160401Y-92896997D01*
X123104467Y-92855126D01*
X123080050Y-92789662D01*
X123094902Y-92721389D01*
X123116053Y-92693133D01*
X123238108Y-92571078D01*
X123373600Y-92377578D01*
X123473429Y-92163492D01*
X123473432Y-92163486D01*
X123530636Y-91950000D01*
X122633012Y-91950000D01*
X122665925Y-91892993D01*
X122700000Y-91765826D01*
X122700000Y-91634174D01*
X122665925Y-91507007D01*
X122633012Y-91450000D01*
X123530636Y-91450000D01*
X123530635Y-91449999D01*
X123473432Y-91236513D01*
X123473429Y-91236507D01*
X123373600Y-91022422D01*
X123373599Y-91022420D01*
X123238113Y-90828926D01*
X123238108Y-90828920D01*
X123071078Y-90661890D01*
X122885405Y-90531879D01*
X122841780Y-90477302D01*
X122834588Y-90407804D01*
X122866110Y-90345449D01*
X122885406Y-90328730D01*
X122921047Y-90303774D01*
X123071401Y-90198495D01*
X123238495Y-90031401D01*
X123374035Y-89837830D01*
X123473903Y-89623663D01*
X123535063Y-89395408D01*
X123555659Y-89160000D01*
X123535063Y-88924592D01*
X123473903Y-88696337D01*
X123374035Y-88482171D01*
X123374034Y-88482169D01*
X123261071Y-88320840D01*
X123238744Y-88254634D01*
X123255754Y-88186867D01*
X123274961Y-88162040D01*
X125750184Y-85686819D01*
X125811507Y-85653334D01*
X125837865Y-85650500D01*
X127855713Y-85650500D01*
X127940257Y-85633682D01*
X127981386Y-85625501D01*
X128099769Y-85576465D01*
X128103302Y-85574104D01*
X128110553Y-85569260D01*
X128110555Y-85569259D01*
X128182209Y-85521381D01*
X128206311Y-85505277D01*
X129705277Y-84006311D01*
X129776465Y-83899769D01*
X129825501Y-83781386D01*
X129831843Y-83749501D01*
X129850500Y-83655711D01*
X129850500Y-83127573D01*
X129850500Y-83127570D01*
X129825502Y-83001903D01*
X129825501Y-83001902D01*
X129825501Y-83001898D01*
X129776465Y-82883515D01*
X129776462Y-82883511D01*
X129775265Y-82881270D01*
X129774991Y-82879957D01*
X129774134Y-82877887D01*
X129774526Y-82877724D01*
X129761023Y-82812868D01*
X129786022Y-82747624D01*
X129796932Y-82735145D01*
X129829816Y-82702262D01*
X129925789Y-82549522D01*
X129985368Y-82379255D01*
X129999848Y-82250725D01*
X130008507Y-82217164D01*
X130015881Y-82199364D01*
X130019516Y-82181088D01*
X130040880Y-82073689D01*
X130040880Y-79126311D01*
X130040880Y-79126308D01*
X130015882Y-79000641D01*
X130015881Y-79000640D01*
X130015881Y-79000636D01*
X129966845Y-78882253D01*
X129949519Y-78856323D01*
X129895657Y-78775711D01*
X129895655Y-78775709D01*
X129895653Y-78775706D01*
X129014673Y-77894726D01*
X128948455Y-77850481D01*
X128908127Y-77823535D01*
X128789744Y-77774499D01*
X128789742Y-77774498D01*
X128789735Y-77774496D01*
X128786822Y-77773917D01*
X128786820Y-77773917D01*
X128664071Y-77749500D01*
X128664069Y-77749500D01*
X122741343Y-77749500D01*
X122688940Y-77737883D01*
X122663663Y-77726096D01*
X122435413Y-77664938D01*
X122435403Y-77664936D01*
X122200001Y-77644341D01*
X122199999Y-77644341D01*
X121964596Y-77664936D01*
X121964586Y-77664938D01*
X121736344Y-77726094D01*
X121736335Y-77726098D01*
X121522171Y-77825964D01*
X121522169Y-77825965D01*
X121328597Y-77961505D01*
X121161508Y-78128594D01*
X121026212Y-78321817D01*
X120971635Y-78365441D01*
X120902136Y-78372634D01*
X120839782Y-78341112D01*
X120804368Y-78280882D01*
X120801417Y-78236811D01*
X120805565Y-78200000D01*
X120805107Y-78195939D01*
X120785369Y-78020750D01*
X120785366Y-78020737D01*
X120725790Y-77850481D01*
X120725789Y-77850478D01*
X120678049Y-77774500D01*
X120669506Y-77760903D01*
X120650500Y-77694931D01*
X120650500Y-76420807D01*
X120670185Y-76353768D01*
X120686815Y-76333130D01*
X120948224Y-76071720D01*
X121009545Y-76038237D01*
X121022019Y-76036183D01*
X121029255Y-76035368D01*
X121199522Y-75975789D01*
X121352262Y-75879816D01*
X121479816Y-75752262D01*
X121575789Y-75599522D01*
X121635368Y-75429255D01*
X121635655Y-75426711D01*
X121655565Y-75250003D01*
X121655565Y-75249996D01*
X121635369Y-75070750D01*
X121635368Y-75070745D01*
X121597284Y-74961908D01*
X121575789Y-74900478D01*
X121479816Y-74747738D01*
X121352262Y-74620184D01*
X121199523Y-74524211D01*
X121029254Y-74464631D01*
X121029249Y-74464630D01*
X120850004Y-74444435D01*
X120849996Y-74444435D01*
X120670750Y-74464630D01*
X120670745Y-74464631D01*
X120500476Y-74524211D01*
X120347737Y-74620184D01*
X120220184Y-74747737D01*
X120124210Y-74900478D01*
X120064632Y-75070744D01*
X120064630Y-75070752D01*
X120063815Y-75077988D01*
X120036743Y-75142400D01*
X120028277Y-75151775D01*
X119656121Y-75523932D01*
X119594798Y-75557417D01*
X119525107Y-75552433D01*
X119480759Y-75523932D01*
X119444154Y-75487327D01*
X119410669Y-75426004D01*
X119415653Y-75356312D01*
X119444154Y-75311964D01*
X119525693Y-75230425D01*
X119623703Y-75074443D01*
X119684547Y-74900559D01*
X119684548Y-74900553D01*
X119699999Y-74763418D01*
X119700000Y-74763414D01*
X119700000Y-74650000D01*
X117599000Y-74650000D01*
X117531961Y-74630315D01*
X117486206Y-74577511D01*
X117475000Y-74526000D01*
X117475000Y-73265000D01*
X117975000Y-73265000D01*
X117975000Y-74150000D01*
X119700000Y-74150000D01*
X119700000Y-74036585D01*
X119699999Y-74036581D01*
X119684548Y-73899446D01*
X119684547Y-73899440D01*
X119623703Y-73725556D01*
X119525691Y-73569571D01*
X119395428Y-73439308D01*
X119239443Y-73341296D01*
X119065559Y-73280452D01*
X119065553Y-73280451D01*
X118928418Y-73265000D01*
X117975000Y-73265000D01*
X117475000Y-73265000D01*
X116521581Y-73265000D01*
X116384446Y-73280451D01*
X116384440Y-73280452D01*
X116210555Y-73341296D01*
X116140472Y-73385333D01*
X116073235Y-73404333D01*
X116006400Y-73383965D01*
X115961186Y-73330697D01*
X115950500Y-73280339D01*
X115950500Y-72765568D01*
X115970185Y-72698529D01*
X115980787Y-72684365D01*
X116006986Y-72654130D01*
X116084770Y-72533094D01*
X116141742Y-72408342D01*
X116143986Y-72404053D01*
X116144498Y-72402308D01*
X116144499Y-72402308D01*
X116185035Y-72264256D01*
X116205497Y-72121941D01*
X116205497Y-72065601D01*
X116205500Y-72065590D01*
X116205500Y-71534426D01*
X116205497Y-71534399D01*
X116205497Y-71478060D01*
X116193871Y-71397203D01*
X116185035Y-71335744D01*
X116185035Y-71335743D01*
X116144498Y-71197691D01*
X116136082Y-71179262D01*
X116084776Y-71066918D01*
X116084773Y-71066914D01*
X116084770Y-71066906D01*
X116006986Y-70945870D01*
X116006985Y-70945869D01*
X116006984Y-70945867D01*
X116006982Y-70945865D01*
X115980785Y-70915630D01*
X115951762Y-70852074D01*
X115950500Y-70834430D01*
X115950500Y-70745088D01*
X115970185Y-70678049D01*
X116022989Y-70632294D01*
X116061897Y-70621730D01*
X116127797Y-70614999D01*
X116294334Y-70559814D01*
X116319162Y-70544500D01*
X116337129Y-70533418D01*
X116404521Y-70514977D01*
X116471185Y-70535899D01*
X116489907Y-70551275D01*
X116863181Y-70924549D01*
X116896666Y-70985872D01*
X116899500Y-71012230D01*
X116899500Y-71500001D01*
X116899501Y-71500019D01*
X116910000Y-71602796D01*
X116910001Y-71602799D01*
X116958779Y-71750000D01*
X116965186Y-71769334D01*
X117057288Y-71918656D01*
X117181344Y-72042712D01*
X117330666Y-72134814D01*
X117497203Y-72189999D01*
X117599991Y-72200500D01*
X118400008Y-72200499D01*
X118400016Y-72200498D01*
X118400019Y-72200498D01*
X118473037Y-72193039D01*
X118502797Y-72189999D01*
X118669334Y-72134814D01*
X118818656Y-72042712D01*
X118912319Y-71949049D01*
X118973642Y-71915564D01*
X119043334Y-71920548D01*
X119087681Y-71949049D01*
X119181344Y-72042712D01*
X119330666Y-72134814D01*
X119497203Y-72189999D01*
X119599991Y-72200500D01*
X120400008Y-72200499D01*
X120400016Y-72200498D01*
X120400019Y-72200498D01*
X120473037Y-72193039D01*
X120502797Y-72189999D01*
X120669334Y-72134814D01*
X120818656Y-72042712D01*
X120942712Y-71918656D01*
X121034814Y-71769334D01*
X121089999Y-71602797D01*
X121100500Y-71500009D01*
X121100499Y-71425493D01*
X121119509Y-71359516D01*
X121125786Y-71349526D01*
X121125789Y-71349522D01*
X121167506Y-71230300D01*
X121185366Y-71179262D01*
X121185369Y-71179249D01*
X121205565Y-71000003D01*
X121205565Y-70999996D01*
X121185369Y-70820750D01*
X121185366Y-70820737D01*
X121125790Y-70650480D01*
X121119504Y-70640475D01*
X121100499Y-70574505D01*
X121100499Y-70499998D01*
X121100498Y-70499981D01*
X121089999Y-70397203D01*
X121089998Y-70397200D01*
X121072537Y-70344507D01*
X121034814Y-70230666D01*
X120942712Y-70081344D01*
X120818656Y-69957288D01*
X120669334Y-69865186D01*
X120502797Y-69810001D01*
X120502795Y-69810000D01*
X120400010Y-69799500D01*
X119599998Y-69799500D01*
X119599980Y-69799501D01*
X119497203Y-69810000D01*
X119497200Y-69810001D01*
X119330668Y-69865185D01*
X119330663Y-69865187D01*
X119181342Y-69957289D01*
X119087681Y-70050951D01*
X119026358Y-70084436D01*
X118956666Y-70079452D01*
X118912319Y-70050951D01*
X118818657Y-69957289D01*
X118818656Y-69957288D01*
X118669334Y-69865186D01*
X118502797Y-69810001D01*
X118502795Y-69810000D01*
X118400016Y-69799500D01*
X118400009Y-69799500D01*
X117912230Y-69799500D01*
X117845191Y-69779815D01*
X117824549Y-69763181D01*
X116878421Y-68817052D01*
X116878414Y-68817046D01*
X116804729Y-68767812D01*
X116804729Y-68767813D01*
X116755494Y-68734915D01*
X116746642Y-68731249D01*
X116692239Y-68687407D01*
X116676390Y-68655692D01*
X116659885Y-68605880D01*
X116659815Y-68605668D01*
X116654783Y-68597510D01*
X116567712Y-68456344D01*
X116443656Y-68332288D01*
X116294334Y-68240186D01*
X116127797Y-68185001D01*
X116127795Y-68185000D01*
X116025010Y-68174500D01*
X115249998Y-68174500D01*
X115249980Y-68174501D01*
X115147203Y-68185000D01*
X115147200Y-68185001D01*
X114980668Y-68240185D01*
X114980663Y-68240187D01*
X114831342Y-68332289D01*
X114707288Y-68456343D01*
X114707283Y-68456349D01*
X114705241Y-68459661D01*
X114703247Y-68461453D01*
X114702807Y-68462011D01*
X114702711Y-68461935D01*
X114653291Y-68506383D01*
X114584328Y-68517602D01*
X114520247Y-68489755D01*
X114494168Y-68459656D01*
X114492319Y-68456659D01*
X114492316Y-68456655D01*
X114368345Y-68332684D01*
X114219124Y-68240643D01*
X114219119Y-68240641D01*
X114052697Y-68185494D01*
X114052690Y-68185493D01*
X113949986Y-68175000D01*
X113812500Y-68175000D01*
X113812500Y-69526000D01*
X113792815Y-69593039D01*
X113740011Y-69638794D01*
X113688500Y-69650000D01*
X112475001Y-69650000D01*
X112475001Y-69924986D01*
X112485494Y-70027697D01*
X112540641Y-70194119D01*
X112540643Y-70194124D01*
X112632684Y-70343345D01*
X112756654Y-70467315D01*
X112905875Y-70559356D01*
X112905880Y-70559358D01*
X113072302Y-70614505D01*
X113072310Y-70614506D01*
X113119502Y-70619328D01*
X113184194Y-70645724D01*
X113224346Y-70702905D01*
X113227209Y-70772716D01*
X113191875Y-70832993D01*
X113188111Y-70836392D01*
X113187166Y-70837210D01*
X113093018Y-70945864D01*
X113093015Y-70945867D01*
X113036857Y-71033253D01*
X113018735Y-71061453D01*
X113015231Y-71066905D01*
X113015223Y-71066918D01*
X112958263Y-71191643D01*
X112956015Y-71195939D01*
X112914966Y-71335738D01*
X112914965Y-71335744D01*
X112894503Y-71478059D01*
X112894503Y-71534399D01*
X112894500Y-71534409D01*
X112894500Y-72065573D01*
X112894503Y-72065601D01*
X112894503Y-72121941D01*
X112905798Y-72200498D01*
X112913703Y-72255478D01*
X112913703Y-72255481D01*
X112914964Y-72264255D01*
X112955503Y-72402313D01*
X113015223Y-72533081D01*
X113015227Y-72533087D01*
X113015230Y-72533094D01*
X113060025Y-72602797D01*
X113093014Y-72654130D01*
X113119213Y-72684365D01*
X113148238Y-72747921D01*
X113149500Y-72765568D01*
X113149500Y-77773916D01*
X113149499Y-77773920D01*
X113178340Y-77918907D01*
X113178343Y-77918917D01*
X113234912Y-78055488D01*
X113234919Y-78055501D01*
X113317048Y-78178415D01*
X113317051Y-78178419D01*
X113421580Y-78282948D01*
X113421584Y-78282951D01*
X113544498Y-78365080D01*
X113544511Y-78365087D01*
X113686715Y-78423989D01*
X113686357Y-78424853D01*
X113732655Y-78452601D01*
X114085132Y-78805078D01*
X114118617Y-78866401D01*
X114113633Y-78936093D01*
X114071761Y-78992026D01*
X114025046Y-79013650D01*
X114020746Y-79014631D01*
X113850476Y-79074211D01*
X113697737Y-79170184D01*
X113570184Y-79297737D01*
X113474211Y-79450476D01*
X113414631Y-79620745D01*
X113414630Y-79620750D01*
X113394435Y-79799996D01*
X113394435Y-79800003D01*
X113414630Y-79979249D01*
X113414631Y-79979254D01*
X113474211Y-80149523D01*
X113549912Y-80270000D01*
X113570184Y-80302262D01*
X113697738Y-80429816D01*
X113788080Y-80486582D01*
X113824162Y-80509254D01*
X113850478Y-80525789D01*
X113953984Y-80562007D01*
X114000710Y-80591367D01*
X114353453Y-80944111D01*
X114353454Y-80944112D01*
X114353457Y-80944114D01*
X114468189Y-81020775D01*
X114595671Y-81073580D01*
X114595674Y-81073580D01*
X114595675Y-81073581D01*
X114609505Y-81076332D01*
X114609518Y-81076334D01*
X114609532Y-81076337D01*
X114658122Y-81086002D01*
X114731004Y-81100500D01*
X114731007Y-81100500D01*
X115773545Y-81100500D01*
X115840584Y-81120185D01*
X115878538Y-81158527D01*
X115923912Y-81230738D01*
X115923913Y-81230740D01*
X116005492Y-81312319D01*
X116038977Y-81373642D01*
X116033993Y-81443334D01*
X116005492Y-81487681D01*
X115923915Y-81569257D01*
X115825845Y-81725334D01*
X115764961Y-81899328D01*
X115749500Y-82036557D01*
X115749500Y-82763442D01*
X115764961Y-82900671D01*
X115800384Y-83001903D01*
X115820373Y-83059029D01*
X115825845Y-83074665D01*
X115923915Y-83230742D01*
X116005492Y-83312319D01*
X116038977Y-83373642D01*
X116033993Y-83443334D01*
X116005492Y-83487681D01*
X115923915Y-83569257D01*
X115825845Y-83725334D01*
X115764961Y-83899328D01*
X115749500Y-84036557D01*
X115749500Y-84763442D01*
X115764961Y-84900671D01*
X115825845Y-85074665D01*
X115923915Y-85230742D01*
X116005492Y-85312319D01*
X116038977Y-85373642D01*
X116033993Y-85443334D01*
X116005492Y-85487681D01*
X115923915Y-85569257D01*
X115825843Y-85725336D01*
X115825843Y-85725338D01*
X115819855Y-85742451D01*
X115779133Y-85799226D01*
X115714180Y-85824973D01*
X115645618Y-85811516D01*
X115615133Y-85789176D01*
X114920686Y-85094727D01*
X114920685Y-85094726D01*
X114920681Y-85094723D01*
X114814139Y-85023535D01*
X114695756Y-84974499D01*
X114695750Y-84974497D01*
X114570083Y-84949500D01*
X114570081Y-84949500D01*
X110395931Y-84949500D01*
X110395929Y-84949500D01*
X110270261Y-84974497D01*
X110270255Y-84974499D01*
X110151870Y-85023535D01*
X110045331Y-85094722D01*
X110045324Y-85094728D01*
X108464962Y-86675090D01*
X108403639Y-86708575D01*
X108333947Y-86703591D01*
X108278014Y-86661719D01*
X108253753Y-86598217D01*
X108245930Y-86508802D01*
X108235063Y-86384592D01*
X108173903Y-86156337D01*
X108074035Y-85942171D01*
X108074032Y-85942166D01*
X107938494Y-85748597D01*
X107771402Y-85581506D01*
X107771396Y-85581501D01*
X107585842Y-85451575D01*
X107542217Y-85396998D01*
X107535023Y-85327500D01*
X107566546Y-85265145D01*
X107585842Y-85248425D01*
X107641925Y-85209155D01*
X107771401Y-85118495D01*
X107938495Y-84951401D01*
X108074035Y-84757830D01*
X108173903Y-84543663D01*
X108235063Y-84315408D01*
X108255659Y-84080000D01*
X108255152Y-84074210D01*
X108244765Y-83955488D01*
X108237022Y-83866985D01*
X108250788Y-83798486D01*
X108272866Y-83768500D01*
X110924549Y-81116819D01*
X110985872Y-81083334D01*
X111012230Y-81080500D01*
X111150028Y-81080500D01*
X111190983Y-81087458D01*
X111270745Y-81115368D01*
X111270750Y-81115369D01*
X111449996Y-81135565D01*
X111450000Y-81135565D01*
X111450004Y-81135565D01*
X111629249Y-81115369D01*
X111629252Y-81115368D01*
X111629255Y-81115368D01*
X111799522Y-81055789D01*
X111952262Y-80959816D01*
X112079816Y-80832262D01*
X112175789Y-80679522D01*
X112235368Y-80509255D01*
X112235369Y-80509249D01*
X112255565Y-80330003D01*
X112255565Y-80329996D01*
X112235369Y-80150750D01*
X112235368Y-80150745D01*
X112189993Y-80021072D01*
X112175789Y-79980478D01*
X112079816Y-79827738D01*
X111952262Y-79700184D01*
X111896138Y-79664919D01*
X111799523Y-79604211D01*
X111629254Y-79544631D01*
X111629249Y-79544630D01*
X111450004Y-79524435D01*
X111449996Y-79524435D01*
X111270750Y-79544630D01*
X111270745Y-79544631D01*
X111190983Y-79572542D01*
X111150028Y-79579500D01*
X110576080Y-79579500D01*
X110431092Y-79608340D01*
X110431082Y-79608343D01*
X110294511Y-79664912D01*
X110294499Y-79664919D01*
X110257712Y-79689500D01*
X110257711Y-79689501D01*
X110171579Y-79747051D01*
X108453584Y-81465046D01*
X108392261Y-81498531D01*
X108322569Y-81493547D01*
X108266636Y-81451675D01*
X108242375Y-81388172D01*
X108235063Y-81304592D01*
X108235059Y-81304580D01*
X108234538Y-81301620D01*
X108234686Y-81300288D01*
X108234591Y-81299198D01*
X108234809Y-81299178D01*
X108242275Y-81232180D01*
X108268968Y-81192398D01*
X109708061Y-79753305D01*
X109744134Y-79730655D01*
X109743246Y-79728811D01*
X109749518Y-79725790D01*
X109749522Y-79725789D01*
X109902262Y-79629816D01*
X110029816Y-79502262D01*
X110125789Y-79349522D01*
X110185368Y-79179255D01*
X110186390Y-79170184D01*
X110205565Y-79000003D01*
X110205565Y-78999996D01*
X110185369Y-78820750D01*
X110185368Y-78820745D01*
X110158799Y-78744815D01*
X110125789Y-78650478D01*
X110119519Y-78640500D01*
X110052858Y-78534409D01*
X110029816Y-78497738D01*
X109902262Y-78370184D01*
X109894139Y-78365080D01*
X109749523Y-78274211D01*
X109579254Y-78214631D01*
X109579249Y-78214630D01*
X109400004Y-78194435D01*
X109399996Y-78194435D01*
X109220750Y-78214630D01*
X109220745Y-78214631D01*
X109050476Y-78274211D01*
X108897737Y-78370184D01*
X108770184Y-78497737D01*
X108674211Y-78650478D01*
X108671188Y-78656756D01*
X108669362Y-78655876D01*
X108646693Y-78691937D01*
X108450366Y-78888264D01*
X108389043Y-78921749D01*
X108319351Y-78916765D01*
X108263418Y-78874893D01*
X108239157Y-78811390D01*
X108238605Y-78805078D01*
X108235063Y-78764592D01*
X108173903Y-78536337D01*
X108074035Y-78322171D01*
X108073788Y-78321817D01*
X107938494Y-78128597D01*
X107771402Y-77961506D01*
X107771395Y-77961501D01*
X107577834Y-77825967D01*
X107577830Y-77825965D01*
X107467461Y-77774499D01*
X107363663Y-77726097D01*
X107363659Y-77726096D01*
X107363655Y-77726094D01*
X107135413Y-77664938D01*
X107135403Y-77664936D01*
X106900001Y-77644341D01*
X106899999Y-77644341D01*
X106664596Y-77664936D01*
X106664586Y-77664938D01*
X106436344Y-77726094D01*
X106436335Y-77726098D01*
X106222171Y-77825964D01*
X106222169Y-77825965D01*
X106028597Y-77961505D01*
X105861505Y-78128597D01*
X105725965Y-78322169D01*
X105725964Y-78322171D01*
X105687391Y-78404892D01*
X105643900Y-78455588D01*
X105622909Y-78469614D01*
X105585328Y-78494724D01*
X105585327Y-78494725D01*
X105351873Y-78728181D01*
X105290550Y-78761666D01*
X105264192Y-78764500D01*
X104774500Y-78764500D01*
X104707461Y-78744815D01*
X104661706Y-78692011D01*
X104650500Y-78640500D01*
X104650500Y-78036558D01*
X104650499Y-78036557D01*
X104635038Y-77899328D01*
X104620422Y-77857559D01*
X104574156Y-77725337D01*
X104476085Y-77569258D01*
X104394154Y-77487327D01*
X104360669Y-77426004D01*
X104365653Y-77356312D01*
X104394154Y-77311964D01*
X104475693Y-77230425D01*
X104573703Y-77074443D01*
X104634547Y-76900559D01*
X104634548Y-76900553D01*
X104649999Y-76763418D01*
X104650000Y-76763414D01*
X104650000Y-76650000D01*
X102549000Y-76650000D01*
X102481961Y-76630315D01*
X102436206Y-76577511D01*
X102425000Y-76526000D01*
X102425000Y-76274000D01*
X102444685Y-76206961D01*
X102497489Y-76161206D01*
X102549000Y-76150000D01*
X104650000Y-76150000D01*
X104650000Y-76036585D01*
X104649999Y-76036581D01*
X104634548Y-75899446D01*
X104634547Y-75899440D01*
X104573703Y-75725556D01*
X104475691Y-75569571D01*
X104394154Y-75488034D01*
X104360669Y-75426711D01*
X104365653Y-75357019D01*
X104394150Y-75312676D01*
X104476085Y-75230742D01*
X104574156Y-75074663D01*
X104635037Y-74900674D01*
X104635037Y-74900673D01*
X104635038Y-74900671D01*
X104643487Y-74825673D01*
X104650500Y-74763438D01*
X104650500Y-74036562D01*
X104644925Y-73987090D01*
X104635038Y-73899328D01*
X104600048Y-73799333D01*
X104574156Y-73725337D01*
X104476085Y-73569258D01*
X104345742Y-73438915D01*
X104343507Y-73436680D01*
X104310022Y-73375357D01*
X104315006Y-73305665D01*
X104356878Y-73249732D01*
X104422342Y-73225315D01*
X104431188Y-73224999D01*
X104587471Y-73224999D01*
X104587487Y-73224998D01*
X104690197Y-73214505D01*
X104856619Y-73159358D01*
X104856624Y-73159356D01*
X105005845Y-73067315D01*
X105129818Y-72943342D01*
X105131665Y-72940348D01*
X105133469Y-72938724D01*
X105134298Y-72937677D01*
X105134476Y-72937818D01*
X105183610Y-72893621D01*
X105252573Y-72882396D01*
X105316656Y-72910236D01*
X105342743Y-72940341D01*
X105344788Y-72943656D01*
X105468844Y-73067712D01*
X105618166Y-73159814D01*
X105784703Y-73214999D01*
X105887491Y-73225500D01*
X106662508Y-73225499D01*
X106662516Y-73225498D01*
X106662519Y-73225498D01*
X106718802Y-73219748D01*
X106765297Y-73214999D01*
X106931834Y-73159814D01*
X107081156Y-73067712D01*
X107156069Y-72992799D01*
X107217392Y-72959314D01*
X107287084Y-72964298D01*
X107331431Y-72992799D01*
X107381344Y-73042712D01*
X107530666Y-73134814D01*
X107697203Y-73189999D01*
X107799991Y-73200500D01*
X108600008Y-73200499D01*
X108600016Y-73200498D01*
X108600019Y-73200498D01*
X108657815Y-73194594D01*
X108702797Y-73189999D01*
X108869334Y-73134814D01*
X109018656Y-73042712D01*
X109112319Y-72949049D01*
X109173642Y-72915564D01*
X109243334Y-72920548D01*
X109287681Y-72949049D01*
X109381344Y-73042712D01*
X109530666Y-73134814D01*
X109697203Y-73189999D01*
X109799991Y-73200500D01*
X110600008Y-73200499D01*
X110600016Y-73200498D01*
X110600019Y-73200498D01*
X110657815Y-73194594D01*
X110702797Y-73189999D01*
X110869334Y-73134814D01*
X111018656Y-73042712D01*
X111142712Y-72918656D01*
X111234814Y-72769334D01*
X111289999Y-72602797D01*
X111300500Y-72500009D01*
X111300499Y-71499992D01*
X111297947Y-71475013D01*
X111289999Y-71397203D01*
X111289998Y-71397200D01*
X111274198Y-71349519D01*
X111234814Y-71230666D01*
X111223705Y-71212656D01*
X111168961Y-71123900D01*
X111150500Y-71058804D01*
X111150500Y-70626079D01*
X111137188Y-70559159D01*
X111137188Y-70559158D01*
X111121659Y-70481088D01*
X111082812Y-70387304D01*
X111065084Y-70344505D01*
X111065083Y-70344504D01*
X111065080Y-70344498D01*
X110991601Y-70234530D01*
X110991597Y-70234524D01*
X110982953Y-70221586D01*
X109936819Y-69175451D01*
X109922922Y-69150000D01*
X112475000Y-69150000D01*
X113312500Y-69150000D01*
X113312500Y-68175000D01*
X113175027Y-68175000D01*
X113175012Y-68175001D01*
X113072302Y-68185494D01*
X112905880Y-68240641D01*
X112905875Y-68240643D01*
X112756654Y-68332684D01*
X112632684Y-68456654D01*
X112540643Y-68605875D01*
X112540641Y-68605880D01*
X112485494Y-68772302D01*
X112485493Y-68772309D01*
X112475000Y-68875013D01*
X112475000Y-69150000D01*
X109922922Y-69150000D01*
X109903334Y-69114128D01*
X109900500Y-69087770D01*
X109900500Y-68634313D01*
X109900499Y-68634298D01*
X109898262Y-68605875D01*
X109897598Y-68597431D01*
X109851744Y-68439602D01*
X109768081Y-68298135D01*
X109768079Y-68298133D01*
X109768076Y-68298129D01*
X109651870Y-68181923D01*
X109651862Y-68181917D01*
X109573681Y-68135681D01*
X109510398Y-68098256D01*
X109510397Y-68098255D01*
X109510396Y-68098255D01*
X109510393Y-68098254D01*
X109352573Y-68052402D01*
X109352567Y-68052401D01*
X109315701Y-68049500D01*
X109315694Y-68049500D01*
X108884306Y-68049500D01*
X108884298Y-68049500D01*
X108847432Y-68052401D01*
X108847426Y-68052402D01*
X108689606Y-68098254D01*
X108689603Y-68098255D01*
X108541420Y-68185890D01*
X108540329Y-68184045D01*
X108485537Y-68205551D01*
X108417021Y-68191862D01*
X108408292Y-68186252D01*
X108408271Y-68186288D01*
X108260196Y-68098717D01*
X108260193Y-68098716D01*
X108102494Y-68052900D01*
X108102497Y-68052900D01*
X108100000Y-68052703D01*
X108100000Y-69526000D01*
X108080315Y-69593039D01*
X108027511Y-69638794D01*
X107976000Y-69650000D01*
X107050000Y-69650000D01*
X107045539Y-69654460D01*
X107030315Y-69706309D01*
X106977511Y-69752064D01*
X106908353Y-69762008D01*
X106844797Y-69732983D01*
X106838319Y-69726951D01*
X106603307Y-69491939D01*
X106580652Y-69455866D01*
X106578812Y-69456753D01*
X106575792Y-69450483D01*
X106539531Y-69392774D01*
X106479816Y-69297738D01*
X106352262Y-69170184D01*
X106320140Y-69150000D01*
X107050000Y-69150000D01*
X107600000Y-69150000D01*
X107600000Y-68052703D01*
X107597503Y-68052900D01*
X107439806Y-68098716D01*
X107439803Y-68098717D01*
X107298447Y-68182314D01*
X107298438Y-68182321D01*
X107182321Y-68298438D01*
X107182314Y-68298447D01*
X107098717Y-68439803D01*
X107098716Y-68439806D01*
X107052900Y-68597504D01*
X107052899Y-68597510D01*
X107050000Y-68634350D01*
X107050000Y-69150000D01*
X106320140Y-69150000D01*
X106199523Y-69074211D01*
X106029254Y-69014631D01*
X106029249Y-69014630D01*
X105850004Y-68994435D01*
X105849996Y-68994435D01*
X105670750Y-69014630D01*
X105670745Y-69014631D01*
X105500476Y-69074211D01*
X105347737Y-69170184D01*
X105220184Y-69297737D01*
X105124211Y-69450476D01*
X105064631Y-69620745D01*
X105064630Y-69620750D01*
X105044435Y-69799996D01*
X105044435Y-69800003D01*
X105064630Y-69979249D01*
X105064631Y-69979254D01*
X105124211Y-70149523D01*
X105169491Y-70221585D01*
X105220184Y-70302262D01*
X105347738Y-70429816D01*
X105483271Y-70514977D01*
X105500483Y-70525792D01*
X105506753Y-70528812D01*
X105505866Y-70530652D01*
X105541939Y-70553307D01*
X105637563Y-70648931D01*
X105671048Y-70710254D01*
X105666064Y-70779946D01*
X105624192Y-70835879D01*
X105614979Y-70842150D01*
X105468847Y-70932285D01*
X105468843Y-70932288D01*
X105344788Y-71056343D01*
X105344783Y-71056349D01*
X105342741Y-71059661D01*
X105340747Y-71061453D01*
X105340307Y-71062011D01*
X105340211Y-71061935D01*
X105290791Y-71106383D01*
X105221828Y-71117602D01*
X105157747Y-71089755D01*
X105131668Y-71059656D01*
X105129819Y-71056659D01*
X105129816Y-71056655D01*
X105005845Y-70932684D01*
X104856624Y-70840643D01*
X104856619Y-70840641D01*
X104690197Y-70785494D01*
X104690190Y-70785493D01*
X104587486Y-70775000D01*
X104450000Y-70775000D01*
X104450000Y-72126000D01*
X104430315Y-72193039D01*
X104377511Y-72238794D01*
X104326000Y-72250000D01*
X103112501Y-72250000D01*
X103112501Y-72524986D01*
X103122994Y-72627697D01*
X103178141Y-72794119D01*
X103178143Y-72794124D01*
X103270184Y-72943345D01*
X103379658Y-73052819D01*
X103413143Y-73114142D01*
X103408159Y-73183834D01*
X103366287Y-73239767D01*
X103300823Y-73264184D01*
X103291977Y-73264500D01*
X102862863Y-73264500D01*
X102795824Y-73244815D01*
X102781661Y-73234213D01*
X102735940Y-73194596D01*
X102735938Y-73194594D01*
X102398621Y-72942082D01*
X102398616Y-72942079D01*
X102168719Y-72794334D01*
X102044137Y-72714270D01*
X102044130Y-72714266D01*
X101674304Y-72512326D01*
X101674297Y-72512322D01*
X101291030Y-72337291D01*
X101264988Y-72327578D01*
X100896214Y-72190032D01*
X100896102Y-72189999D01*
X100491914Y-72071318D01*
X100491904Y-72071315D01*
X100080176Y-71981749D01*
X99929450Y-71960078D01*
X99898646Y-71951483D01*
X98262473Y-71256970D01*
X98208455Y-71212656D01*
X98186969Y-71146171D01*
X98201651Y-71084216D01*
X98328147Y-70848391D01*
X98377181Y-70798621D01*
X98445342Y-70783260D01*
X98485869Y-70792864D01*
X101838007Y-72215760D01*
X101895311Y-72233132D01*
X102038949Y-72239518D01*
X102038950Y-72239517D01*
X102178566Y-72205177D01*
X102302855Y-72132894D01*
X102302859Y-72132891D01*
X102401741Y-72028524D01*
X102430903Y-71976209D01*
X102526923Y-71750000D01*
X103112500Y-71750000D01*
X103950000Y-71750000D01*
X103950000Y-70775000D01*
X103812527Y-70775000D01*
X103812512Y-70775001D01*
X103709802Y-70785494D01*
X103543380Y-70840641D01*
X103543375Y-70840643D01*
X103394154Y-70932684D01*
X103270184Y-71056654D01*
X103178143Y-71205875D01*
X103178141Y-71205880D01*
X103122994Y-71372302D01*
X103122993Y-71372309D01*
X103112500Y-71475013D01*
X103112500Y-71750000D01*
X102526923Y-71750000D01*
X102615651Y-71540968D01*
X100391134Y-70596717D01*
X100391134Y-70596716D01*
X100391133Y-70596716D01*
X100106355Y-70475834D01*
X100052336Y-70431520D01*
X100030851Y-70365036D01*
X100040663Y-70313241D01*
X100104650Y-70162497D01*
X100647830Y-70162497D01*
X102811016Y-71080715D01*
X102995765Y-70645474D01*
X102995769Y-70645465D01*
X103013138Y-70588165D01*
X103013139Y-70588163D01*
X103019525Y-70444524D01*
X102985185Y-70304907D01*
X102912898Y-70180616D01*
X102808530Y-70081733D01*
X102756222Y-70052575D01*
X101009256Y-69311031D01*
X100647830Y-70162497D01*
X100104650Y-70162497D01*
X100549003Y-69115666D01*
X99857808Y-68822270D01*
X99803789Y-68777955D01*
X99782304Y-68711471D01*
X99800174Y-68643925D01*
X99809832Y-68630167D01*
X99829472Y-68605875D01*
X100270243Y-68060696D01*
X100273934Y-68056343D01*
X100830905Y-67429932D01*
X100834817Y-67425736D01*
X100908797Y-67350001D01*
X104999500Y-67350001D01*
X104999501Y-67350018D01*
X105010000Y-67452796D01*
X105010001Y-67452799D01*
X105057333Y-67595636D01*
X105065186Y-67619334D01*
X105157288Y-67768656D01*
X105281344Y-67892712D01*
X105430666Y-67984814D01*
X105597203Y-68039999D01*
X105699991Y-68050500D01*
X106300008Y-68050499D01*
X106300016Y-68050498D01*
X106300019Y-68050498D01*
X106356302Y-68044748D01*
X106402797Y-68039999D01*
X106569334Y-67984814D01*
X106718656Y-67892712D01*
X106842712Y-67768656D01*
X106934814Y-67619334D01*
X106989999Y-67452797D01*
X107000500Y-67350009D01*
X107000500Y-67350001D01*
X109949500Y-67350001D01*
X109949501Y-67350018D01*
X109960000Y-67452796D01*
X109960001Y-67452799D01*
X110007333Y-67595636D01*
X110015186Y-67619334D01*
X110107288Y-67768656D01*
X110231344Y-67892712D01*
X110380666Y-67984814D01*
X110547203Y-68039999D01*
X110649991Y-68050500D01*
X111250008Y-68050499D01*
X111250016Y-68050498D01*
X111250019Y-68050498D01*
X111306302Y-68044748D01*
X111352797Y-68039999D01*
X111519334Y-67984814D01*
X111668656Y-67892712D01*
X111792712Y-67768656D01*
X111884814Y-67619334D01*
X111939999Y-67452797D01*
X111950500Y-67350009D01*
X111950499Y-65049992D01*
X111946350Y-65009380D01*
X111939999Y-64947203D01*
X111939998Y-64947200D01*
X111907745Y-64849868D01*
X111884814Y-64780666D01*
X111792712Y-64631344D01*
X111668656Y-64507288D01*
X111519334Y-64415186D01*
X111352797Y-64360001D01*
X111352795Y-64360000D01*
X111250010Y-64349500D01*
X110649998Y-64349500D01*
X110649980Y-64349501D01*
X110547203Y-64360000D01*
X110547200Y-64360001D01*
X110380668Y-64415185D01*
X110380663Y-64415187D01*
X110231342Y-64507289D01*
X110107289Y-64631342D01*
X110015187Y-64780663D01*
X110015186Y-64780666D01*
X109960001Y-64947203D01*
X109960001Y-64947204D01*
X109960000Y-64947204D01*
X109949500Y-65049983D01*
X109949500Y-67350001D01*
X107000500Y-67350001D01*
X107000499Y-65049992D01*
X106996350Y-65009380D01*
X106989999Y-64947203D01*
X106989998Y-64947200D01*
X106957745Y-64849868D01*
X106934814Y-64780666D01*
X106842712Y-64631344D01*
X106718656Y-64507288D01*
X106569334Y-64415186D01*
X106402797Y-64360001D01*
X106402795Y-64360000D01*
X106300010Y-64349500D01*
X105699998Y-64349500D01*
X105699980Y-64349501D01*
X105597203Y-64360000D01*
X105597200Y-64360001D01*
X105430668Y-64415185D01*
X105430663Y-64415187D01*
X105281342Y-64507289D01*
X105157289Y-64631342D01*
X105065187Y-64780663D01*
X105065186Y-64780666D01*
X105010001Y-64947203D01*
X105010001Y-64947204D01*
X105010000Y-64947204D01*
X104999500Y-65049983D01*
X104999500Y-67350001D01*
X100908797Y-67350001D01*
X101420491Y-66826168D01*
X101424594Y-66822159D01*
X102037759Y-66250672D01*
X102042029Y-66246876D01*
X102681297Y-65704766D01*
X102685757Y-65701160D01*
X103349721Y-65189619D01*
X103354350Y-65186223D01*
X104041560Y-64706365D01*
X104046330Y-64703197D01*
X104755306Y-64256060D01*
X104760214Y-64253124D01*
X105489327Y-63839734D01*
X105494420Y-63837002D01*
X106242095Y-63458248D01*
X106247306Y-63455760D01*
X107011889Y-63112478D01*
X107017217Y-63110234D01*
X107797104Y-62803146D01*
X107802504Y-62801165D01*
X108595889Y-62530983D01*
X108601392Y-62529251D01*
X109406576Y-62296551D01*
X109412159Y-62295078D01*
X110227378Y-62100372D01*
X110233037Y-62099160D01*
X111056434Y-61942889D01*
X111062154Y-61941942D01*
X111892017Y-61824429D01*
X111897727Y-61823757D01*
X112732162Y-61745274D01*
X112737955Y-61744866D01*
X113575147Y-61705583D01*
X113580959Y-61705447D01*
X114419041Y-61705447D01*
X114424853Y-61705583D01*
G37*
%TD.AperFunction*%
%TA.AperFunction,Conductor*%
G36*
X108418413Y-92320185D02*
G01*
X108439055Y-92336819D01*
X109413681Y-93311445D01*
X109447166Y-93372768D01*
X109450000Y-93399126D01*
X109450000Y-94526000D01*
X109430315Y-94593039D01*
X109377511Y-94638794D01*
X109326000Y-94650000D01*
X109074000Y-94650000D01*
X109006961Y-94630315D01*
X108961206Y-94577511D01*
X108950000Y-94526000D01*
X108950000Y-93300000D01*
X108700029Y-93300000D01*
X108700012Y-93300001D01*
X108597302Y-93310494D01*
X108430880Y-93365641D01*
X108424330Y-93368696D01*
X108423755Y-93367464D01*
X108363847Y-93383851D01*
X108297185Y-93362921D01*
X108252421Y-93309275D01*
X108245478Y-93288387D01*
X108244091Y-93282521D01*
X108244091Y-93282517D01*
X108195140Y-93151272D01*
X108193797Y-93147671D01*
X108193793Y-93147664D01*
X108107547Y-93032455D01*
X108107544Y-93032452D01*
X107992335Y-92946206D01*
X107992328Y-92946202D01*
X107860917Y-92897189D01*
X107804983Y-92855318D01*
X107780566Y-92789853D01*
X107795418Y-92721580D01*
X107816563Y-92693332D01*
X107938495Y-92571401D01*
X108074035Y-92377830D01*
X108076707Y-92372097D01*
X108122878Y-92319658D01*
X108189091Y-92300500D01*
X108351374Y-92300500D01*
X108418413Y-92320185D01*
G37*
%TD.AperFunction*%
%TA.AperFunction,Conductor*%
G36*
X114252243Y-86270185D02*
G01*
X114272885Y-86286819D01*
X115741477Y-87755410D01*
X115774962Y-87816733D01*
X115770839Y-87884041D01*
X115765454Y-87899430D01*
X115765451Y-87899443D01*
X115750000Y-88036581D01*
X115750000Y-88150000D01*
X119700000Y-88150000D01*
X119703949Y-88146050D01*
X119719685Y-88092461D01*
X119772489Y-88046706D01*
X119824000Y-88035500D01*
X120947135Y-88035500D01*
X121014174Y-88055185D01*
X121034816Y-88071819D01*
X121125034Y-88162037D01*
X121158519Y-88223360D01*
X121153535Y-88293052D01*
X121138928Y-88320841D01*
X121025965Y-88482169D01*
X121025964Y-88482171D01*
X120926098Y-88696335D01*
X120926094Y-88696344D01*
X120864938Y-88924586D01*
X120864936Y-88924596D01*
X120844341Y-89159999D01*
X120844341Y-89160000D01*
X120864936Y-89395403D01*
X120864938Y-89395413D01*
X120926094Y-89623655D01*
X120926096Y-89623659D01*
X120926097Y-89623663D01*
X120975029Y-89728597D01*
X121025965Y-89837830D01*
X121025967Y-89837834D01*
X121161501Y-90031395D01*
X121161506Y-90031402D01*
X121328597Y-90198493D01*
X121328603Y-90198498D01*
X121354831Y-90216863D01*
X121458927Y-90289752D01*
X121514594Y-90328730D01*
X121558219Y-90383307D01*
X121565413Y-90452805D01*
X121533890Y-90515160D01*
X121514595Y-90531880D01*
X121328922Y-90661890D01*
X121328920Y-90661891D01*
X121161891Y-90828920D01*
X121161886Y-90828926D01*
X121026400Y-91022420D01*
X121026399Y-91022422D01*
X120926570Y-91236507D01*
X120926567Y-91236513D01*
X120869364Y-91449999D01*
X120869364Y-91450000D01*
X121766988Y-91450000D01*
X121734075Y-91507007D01*
X121700000Y-91634174D01*
X121700000Y-91765826D01*
X121734075Y-91892993D01*
X121766988Y-91950000D01*
X120869364Y-91950000D01*
X120926567Y-92163486D01*
X120926570Y-92163492D01*
X121026399Y-92377578D01*
X121161894Y-92571082D01*
X121283946Y-92693134D01*
X121317431Y-92754457D01*
X121312447Y-92824149D01*
X121270575Y-92880082D01*
X121239598Y-92896997D01*
X121107671Y-92946202D01*
X121107664Y-92946206D01*
X120992455Y-93032452D01*
X120992452Y-93032455D01*
X120906206Y-93147664D01*
X120906202Y-93147671D01*
X120855908Y-93282517D01*
X120849501Y-93342116D01*
X120849501Y-93342123D01*
X120849500Y-93342135D01*
X120849500Y-93700500D01*
X120829815Y-93767539D01*
X120777011Y-93813294D01*
X120725500Y-93824500D01*
X120249000Y-93824500D01*
X120181961Y-93804815D01*
X120136206Y-93752011D01*
X120125000Y-93700500D01*
X120125000Y-93650000D01*
X118911500Y-93650000D01*
X118844461Y-93630315D01*
X118798706Y-93577511D01*
X118787500Y-93526000D01*
X118787500Y-91450000D01*
X119287500Y-91450000D01*
X119287500Y-93150000D01*
X120124999Y-93150000D01*
X120124999Y-92875028D01*
X120124998Y-92875013D01*
X120114505Y-92772302D01*
X120059358Y-92605880D01*
X120059356Y-92605875D01*
X119967315Y-92456654D01*
X119898342Y-92387681D01*
X119864857Y-92326358D01*
X119869841Y-92256666D01*
X119898342Y-92212319D01*
X119967315Y-92143345D01*
X120059356Y-91994124D01*
X120059358Y-91994119D01*
X120114505Y-91827697D01*
X120114506Y-91827690D01*
X120124999Y-91724986D01*
X120125000Y-91724973D01*
X120125000Y-91450000D01*
X119287500Y-91450000D01*
X118787500Y-91450000D01*
X118787500Y-89975000D01*
X119287500Y-89975000D01*
X119287500Y-90950000D01*
X120124999Y-90950000D01*
X120124999Y-90675028D01*
X120124998Y-90675013D01*
X120114505Y-90572302D01*
X120059358Y-90405880D01*
X120059356Y-90405875D01*
X119967315Y-90256654D01*
X119843345Y-90132684D01*
X119694124Y-90040643D01*
X119694119Y-90040641D01*
X119527697Y-89985494D01*
X119527690Y-89985493D01*
X119424986Y-89975000D01*
X119287500Y-89975000D01*
X118787500Y-89975000D01*
X118650027Y-89975000D01*
X118650012Y-89975001D01*
X118547302Y-89985494D01*
X118380880Y-90040641D01*
X118380875Y-90040643D01*
X118231654Y-90132684D01*
X118107683Y-90256655D01*
X118107679Y-90256660D01*
X118105826Y-90259665D01*
X118104018Y-90261290D01*
X118103202Y-90262323D01*
X118103025Y-90262183D01*
X118053874Y-90306385D01*
X117984911Y-90317601D01*
X117920831Y-90289752D01*
X117894753Y-90259653D01*
X117894737Y-90259628D01*
X117892712Y-90256344D01*
X117768656Y-90132288D01*
X117619334Y-90040186D01*
X117452797Y-89985001D01*
X117452795Y-89985000D01*
X117350010Y-89974500D01*
X116574998Y-89974500D01*
X116574980Y-89974501D01*
X116472203Y-89985000D01*
X116472200Y-89985001D01*
X116305668Y-90040185D01*
X116305663Y-90040187D01*
X116156342Y-90132289D01*
X116032289Y-90256342D01*
X115940187Y-90405663D01*
X115940185Y-90405668D01*
X115932122Y-90430000D01*
X115885001Y-90572203D01*
X115885001Y-90572204D01*
X115885000Y-90572204D01*
X115874500Y-90674983D01*
X115874500Y-91725001D01*
X115874501Y-91725019D01*
X115885000Y-91827796D01*
X115885001Y-91827799D01*
X115933541Y-91974280D01*
X115940186Y-91994334D01*
X116032096Y-92143345D01*
X116032289Y-92143657D01*
X116100951Y-92212319D01*
X116134436Y-92273642D01*
X116129452Y-92343334D01*
X116100951Y-92387681D01*
X116032289Y-92456342D01*
X115940187Y-92605663D01*
X115940185Y-92605668D01*
X115922954Y-92657669D01*
X115885001Y-92772203D01*
X115885001Y-92772204D01*
X115885000Y-92772204D01*
X115874500Y-92874983D01*
X115874500Y-93073500D01*
X115854815Y-93140539D01*
X115802011Y-93186294D01*
X115750500Y-93197500D01*
X114348499Y-93197500D01*
X114281460Y-93177815D01*
X114235705Y-93125011D01*
X114224499Y-93073500D01*
X114224499Y-92852129D01*
X114224498Y-92852123D01*
X114224497Y-92852116D01*
X114218091Y-92792517D01*
X114207317Y-92763632D01*
X114199500Y-92720300D01*
X114199500Y-92074499D01*
X114219185Y-92007460D01*
X114271989Y-91961705D01*
X114323500Y-91950499D01*
X114572871Y-91950499D01*
X114572872Y-91950499D01*
X114632483Y-91944091D01*
X114767331Y-91893796D01*
X114882546Y-91807546D01*
X114968796Y-91692331D01*
X115019091Y-91557483D01*
X115025500Y-91497873D01*
X115025499Y-89702128D01*
X115019091Y-89642517D01*
X115017810Y-89639083D01*
X114968797Y-89507671D01*
X114968793Y-89507664D01*
X114882547Y-89392455D01*
X114882544Y-89392452D01*
X114767335Y-89306206D01*
X114767328Y-89306202D01*
X114632482Y-89255908D01*
X114632483Y-89255908D01*
X114572883Y-89249501D01*
X114572881Y-89249500D01*
X114572873Y-89249500D01*
X114572864Y-89249500D01*
X112777129Y-89249500D01*
X112777123Y-89249501D01*
X112717516Y-89255908D01*
X112582671Y-89306202D01*
X112582664Y-89306206D01*
X112467455Y-89392452D01*
X112467452Y-89392455D01*
X112381206Y-89507664D01*
X112381203Y-89507669D01*
X112332189Y-89639083D01*
X112290317Y-89695016D01*
X112224853Y-89719433D01*
X112156580Y-89704581D01*
X112128326Y-89683430D01*
X112006402Y-89561506D01*
X112006395Y-89561501D01*
X111812834Y-89425967D01*
X111812830Y-89425965D01*
X111747300Y-89395408D01*
X111598663Y-89326097D01*
X111598659Y-89326096D01*
X111598655Y-89326094D01*
X111370413Y-89264938D01*
X111370403Y-89264936D01*
X111135001Y-89244341D01*
X111134999Y-89244341D01*
X110899596Y-89264936D01*
X110899586Y-89264938D01*
X110671344Y-89326094D01*
X110671335Y-89326098D01*
X110457171Y-89425964D01*
X110457169Y-89425965D01*
X110263597Y-89561505D01*
X110096505Y-89728597D01*
X109960965Y-89922169D01*
X109960964Y-89922171D01*
X109861098Y-90136335D01*
X109861094Y-90136344D01*
X109799938Y-90364586D01*
X109799936Y-90364596D01*
X109779341Y-90599999D01*
X109779341Y-90600000D01*
X109799936Y-90835403D01*
X109799938Y-90835413D01*
X109861094Y-91063655D01*
X109861096Y-91063659D01*
X109861097Y-91063663D01*
X109933756Y-91219480D01*
X109960965Y-91277830D01*
X109960967Y-91277834D01*
X110016809Y-91357584D01*
X110096505Y-91471401D01*
X110263599Y-91638495D01*
X110343004Y-91694095D01*
X110457165Y-91774032D01*
X110457167Y-91774033D01*
X110457170Y-91774035D01*
X110671337Y-91873903D01*
X110899592Y-91935063D01*
X111087918Y-91951539D01*
X111134999Y-91955659D01*
X111135000Y-91955659D01*
X111135001Y-91955659D01*
X111174234Y-91952226D01*
X111370408Y-91935063D01*
X111498757Y-91900672D01*
X111568606Y-91902335D01*
X111618531Y-91932766D01*
X111894616Y-92208851D01*
X111928101Y-92270174D01*
X111923117Y-92339866D01*
X111881245Y-92395799D01*
X111850269Y-92412714D01*
X111733669Y-92456203D01*
X111733664Y-92456206D01*
X111618455Y-92542452D01*
X111618452Y-92542455D01*
X111532206Y-92657664D01*
X111532202Y-92657671D01*
X111481908Y-92792517D01*
X111480353Y-92806986D01*
X111475501Y-92852123D01*
X111475500Y-92852135D01*
X111475500Y-93198500D01*
X111455815Y-93265539D01*
X111403011Y-93311294D01*
X111351500Y-93322500D01*
X111083062Y-93322500D01*
X111016023Y-93302815D01*
X110970268Y-93250011D01*
X110963287Y-93230592D01*
X110959577Y-93216746D01*
X110959573Y-93216738D01*
X110880524Y-93079819D01*
X110880521Y-93079815D01*
X110880520Y-93079813D01*
X110768716Y-92968009D01*
X110768715Y-92968008D01*
X110764385Y-92963678D01*
X110764374Y-92963668D01*
X109139061Y-91338355D01*
X109139059Y-91338352D01*
X109020188Y-91219481D01*
X109020187Y-91219480D01*
X108932697Y-91168968D01*
X108932696Y-91168967D01*
X108883261Y-91140425D01*
X108883260Y-91140424D01*
X108870734Y-91137067D01*
X108730528Y-91099499D01*
X108572414Y-91099499D01*
X108564818Y-91099499D01*
X108564802Y-91099500D01*
X108189091Y-91099500D01*
X108122052Y-91079815D01*
X108076711Y-91027909D01*
X108074037Y-91022175D01*
X108074034Y-91022170D01*
X108023500Y-90950000D01*
X108016002Y-90939290D01*
X107938494Y-90828597D01*
X107771402Y-90661506D01*
X107771396Y-90661501D01*
X107585842Y-90531575D01*
X107542217Y-90476998D01*
X107535023Y-90407500D01*
X107566546Y-90345145D01*
X107585842Y-90328425D01*
X107621047Y-90303774D01*
X107771401Y-90198495D01*
X107938495Y-90031401D01*
X108074035Y-89837830D01*
X108173903Y-89623663D01*
X108235063Y-89395408D01*
X108255659Y-89160000D01*
X108235063Y-88924592D01*
X108215614Y-88852007D01*
X108217277Y-88782162D01*
X108247706Y-88732238D01*
X108329944Y-88650000D01*
X115750000Y-88650000D01*
X115750000Y-88763418D01*
X115765451Y-88900553D01*
X115765452Y-88900559D01*
X115826296Y-89074443D01*
X115924308Y-89230428D01*
X116054571Y-89360691D01*
X116210556Y-89458703D01*
X116384440Y-89519547D01*
X116384446Y-89519548D01*
X116521581Y-89534999D01*
X116521585Y-89535000D01*
X117475000Y-89535000D01*
X117475000Y-88650000D01*
X117975000Y-88650000D01*
X117975000Y-89535000D01*
X118928415Y-89535000D01*
X118928418Y-89534999D01*
X119065553Y-89519548D01*
X119065559Y-89519547D01*
X119239443Y-89458703D01*
X119395428Y-89360691D01*
X119525691Y-89230428D01*
X119623703Y-89074443D01*
X119684547Y-88900559D01*
X119684548Y-88900553D01*
X119699999Y-88763418D01*
X119700000Y-88763414D01*
X119700000Y-88650000D01*
X117975000Y-88650000D01*
X117475000Y-88650000D01*
X115750000Y-88650000D01*
X108329944Y-88650000D01*
X110693127Y-86286819D01*
X110754450Y-86253334D01*
X110780808Y-86250500D01*
X114185204Y-86250500D01*
X114252243Y-86270185D01*
G37*
%TD.AperFunction*%
%TA.AperFunction,Conductor*%
G36*
X98094092Y-75216436D02*
G01*
X98326058Y-75314900D01*
X98380077Y-75359215D01*
X98401562Y-75425699D01*
X98391750Y-75477494D01*
X97883409Y-76675068D01*
X99630377Y-77416612D01*
X99687681Y-77433984D01*
X99831319Y-77440370D01*
X99831320Y-77440369D01*
X99970936Y-77406029D01*
X100095225Y-77333746D01*
X100095229Y-77333743D01*
X100194111Y-77229376D01*
X100223273Y-77177061D01*
X100461857Y-76614992D01*
X100506172Y-76560974D01*
X100572656Y-76539488D01*
X100640202Y-76557357D01*
X100687364Y-76608908D01*
X100700000Y-76663443D01*
X100700000Y-76763418D01*
X100715451Y-76900553D01*
X100715452Y-76900559D01*
X100776296Y-77074443D01*
X100874308Y-77230428D01*
X100955845Y-77311965D01*
X100989330Y-77373288D01*
X100984346Y-77442980D01*
X100955846Y-77487327D01*
X100873914Y-77569259D01*
X100775845Y-77725334D01*
X100714961Y-77899328D01*
X100699500Y-78036557D01*
X100699500Y-78182017D01*
X100679815Y-78249056D01*
X100627011Y-78294811D01*
X100557853Y-78304755D01*
X100528048Y-78296578D01*
X100474749Y-78274501D01*
X100474748Y-78274500D01*
X100474744Y-78274499D01*
X100474741Y-78274498D01*
X100474737Y-78274497D01*
X100473286Y-78274209D01*
X100473286Y-78274208D01*
X100349071Y-78249500D01*
X100349069Y-78249500D01*
X99947849Y-78249500D01*
X99880810Y-78229815D01*
X99835055Y-78177012D01*
X99784776Y-78066918D01*
X99784773Y-78066914D01*
X99784770Y-78066906D01*
X99706986Y-77945870D01*
X99706985Y-77945869D01*
X99706984Y-77945867D01*
X99706981Y-77945863D01*
X99612847Y-77837226D01*
X99612830Y-77837207D01*
X99612829Y-77837206D01*
X99504091Y-77742985D01*
X99468858Y-77720342D01*
X99383142Y-77665255D01*
X99383136Y-77665252D01*
X99312028Y-77632778D01*
X99252259Y-77605483D01*
X99128891Y-77569259D01*
X99114308Y-77564977D01*
X99114296Y-77564974D01*
X98971889Y-77544500D01*
X98400000Y-77544500D01*
X98399997Y-77544500D01*
X98328061Y-77549644D01*
X98328056Y-77549645D01*
X98290735Y-77560603D01*
X98238158Y-77564363D01*
X98100001Y-77544500D01*
X98100000Y-77544500D01*
X97528111Y-77544500D01*
X97528110Y-77544500D01*
X97385703Y-77564974D01*
X97385691Y-77564977D01*
X97247741Y-77605483D01*
X97116863Y-77665252D01*
X97116861Y-77665254D01*
X97001523Y-77739376D01*
X97000083Y-77740196D01*
X96995901Y-77742988D01*
X96887169Y-77837207D01*
X96887166Y-77837210D01*
X96793018Y-77945864D01*
X96793015Y-77945867D01*
X96744895Y-78020745D01*
X96722560Y-78055501D01*
X96715231Y-78066905D01*
X96715223Y-78066918D01*
X96658263Y-78191643D01*
X96656015Y-78195939D01*
X96614966Y-78335738D01*
X96614963Y-78335748D01*
X96594503Y-78478059D01*
X96594503Y-78534399D01*
X96594500Y-78534409D01*
X96594500Y-79065573D01*
X96594503Y-79065601D01*
X96594503Y-79121941D01*
X96610817Y-79235408D01*
X96613703Y-79255478D01*
X96613703Y-79255481D01*
X96614964Y-79264255D01*
X96655503Y-79402313D01*
X96715223Y-79533081D01*
X96715227Y-79533087D01*
X96715230Y-79533094D01*
X96771559Y-79620745D01*
X96793015Y-79654132D01*
X96793018Y-79654136D01*
X96873529Y-79747051D01*
X96887168Y-79762791D01*
X96887171Y-79762794D01*
X96995909Y-79857015D01*
X97015448Y-79869572D01*
X97051511Y-79904998D01*
X97068206Y-79929985D01*
X97089082Y-79996662D01*
X97070596Y-80064042D01*
X97061550Y-80075502D01*
X97062164Y-80075988D01*
X97057686Y-80081651D01*
X96965643Y-80230875D01*
X96965641Y-80230880D01*
X96910494Y-80397302D01*
X96910493Y-80397309D01*
X96900000Y-80500013D01*
X96900000Y-80750000D01*
X98126000Y-80750000D01*
X98193039Y-80769685D01*
X98238794Y-80822489D01*
X98250000Y-80874000D01*
X98250000Y-81126000D01*
X98230315Y-81193039D01*
X98177511Y-81238794D01*
X98126000Y-81250000D01*
X96900001Y-81250000D01*
X96900001Y-81499986D01*
X96910494Y-81602697D01*
X96965641Y-81769119D01*
X96965643Y-81769124D01*
X97057684Y-81918345D01*
X97181654Y-82042315D01*
X97330875Y-82134356D01*
X97330880Y-82134358D01*
X97491619Y-82187622D01*
X97549064Y-82227395D01*
X97575887Y-82291910D01*
X97563572Y-82360686D01*
X97537741Y-82392193D01*
X97539317Y-82393769D01*
X97424289Y-82508796D01*
X97424282Y-82508805D01*
X97345446Y-82642111D01*
X97302234Y-82790847D01*
X97302234Y-82790849D01*
X97299500Y-82825589D01*
X97299500Y-83174393D01*
X97299501Y-83174415D01*
X97302234Y-83209153D01*
X97344577Y-83354899D01*
X97349500Y-83389493D01*
X97349500Y-83926082D01*
X97349500Y-85623918D01*
X97349500Y-85623920D01*
X97349499Y-85623920D01*
X97378340Y-85768907D01*
X97378343Y-85768917D01*
X97390061Y-85797206D01*
X97399500Y-85844658D01*
X97399500Y-85998481D01*
X97379815Y-86065520D01*
X97327011Y-86111275D01*
X97257853Y-86121219D01*
X97194297Y-86092194D01*
X97159089Y-86041195D01*
X97016773Y-85653334D01*
X96962388Y-85505114D01*
X96960516Y-85499616D01*
X96957869Y-85491203D01*
X96709018Y-84700152D01*
X96707405Y-84694568D01*
X96654693Y-84494724D01*
X96493652Y-83884178D01*
X96492313Y-83878574D01*
X96316768Y-83059007D01*
X96315693Y-83053340D01*
X96178759Y-82226452D01*
X96177953Y-82220761D01*
X96079924Y-81388343D01*
X96079387Y-81382624D01*
X96020487Y-80546584D01*
X96020215Y-80540781D01*
X96019879Y-80526465D01*
X96000568Y-79702899D01*
X96000568Y-79697093D01*
X96001323Y-79664919D01*
X96020215Y-78859213D01*
X96020488Y-78853411D01*
X96022789Y-78820745D01*
X96079387Y-78017371D01*
X96079924Y-78011660D01*
X96177954Y-77179232D01*
X96178758Y-77173553D01*
X96315694Y-76346654D01*
X96316767Y-76340997D01*
X96350288Y-76184501D01*
X96383576Y-76123073D01*
X96444792Y-76089393D01*
X96514499Y-76094154D01*
X96519988Y-76096331D01*
X97423156Y-76479703D01*
X97931498Y-75282128D01*
X97975813Y-75228110D01*
X98042297Y-75206624D01*
X98094092Y-75216436D01*
G37*
%TD.AperFunction*%
%TA.AperFunction,Conductor*%
G36*
X125704809Y-81770185D02*
G01*
X125725451Y-81786819D01*
X127013181Y-83074548D01*
X127046666Y-83135871D01*
X127049500Y-83162229D01*
X127049500Y-83673918D01*
X127049500Y-83673920D01*
X127049499Y-83673920D01*
X127078340Y-83818907D01*
X127078343Y-83818917D01*
X127134912Y-83955488D01*
X127134921Y-83955504D01*
X127150789Y-83979251D01*
X127150790Y-83979255D01*
X127150792Y-83979255D01*
X127217048Y-84078416D01*
X127246692Y-84108060D01*
X127269356Y-84144129D01*
X127271188Y-84143247D01*
X127274208Y-84149519D01*
X127280497Y-84159527D01*
X127299498Y-84226764D01*
X127279131Y-84293599D01*
X127225863Y-84338814D01*
X127175504Y-84349500D01*
X125452986Y-84349500D01*
X125327318Y-84374497D01*
X125327312Y-84374499D01*
X125208927Y-84423535D01*
X125102388Y-84494722D01*
X125102381Y-84494728D01*
X123588588Y-86008521D01*
X123527265Y-86042006D01*
X123457573Y-86037022D01*
X123401640Y-85995150D01*
X123388525Y-85973245D01*
X123374035Y-85942171D01*
X123374032Y-85942167D01*
X123374032Y-85942166D01*
X123238494Y-85748597D01*
X123071402Y-85581506D01*
X123071396Y-85581501D01*
X122885842Y-85451575D01*
X122842217Y-85396998D01*
X122835023Y-85327500D01*
X122866546Y-85265145D01*
X122885842Y-85248425D01*
X122941925Y-85209155D01*
X123071401Y-85118495D01*
X123238495Y-84951401D01*
X123374035Y-84757830D01*
X123473903Y-84543663D01*
X123535063Y-84315408D01*
X123555659Y-84080000D01*
X123555152Y-84074210D01*
X123544765Y-83955488D01*
X123535063Y-83844592D01*
X123473903Y-83616337D01*
X123374035Y-83402171D01*
X123345267Y-83361085D01*
X123238494Y-83208597D01*
X123071402Y-83041506D01*
X123071396Y-83041501D01*
X122885842Y-82911575D01*
X122842217Y-82856998D01*
X122835023Y-82787500D01*
X122866546Y-82725145D01*
X122885842Y-82708425D01*
X122980548Y-82642111D01*
X123071401Y-82578495D01*
X123238495Y-82411401D01*
X123374035Y-82217830D01*
X123473903Y-82003663D01*
X123517111Y-81842407D01*
X123553476Y-81782746D01*
X123616323Y-81752217D01*
X123636886Y-81750500D01*
X125637770Y-81750500D01*
X125704809Y-81770185D01*
G37*
%TD.AperFunction*%
%TA.AperFunction,Conductor*%
G36*
X121121350Y-82370185D02*
G01*
X121155885Y-82403376D01*
X121161504Y-82411401D01*
X121328597Y-82578493D01*
X121328603Y-82578498D01*
X121514158Y-82708425D01*
X121557783Y-82763002D01*
X121564977Y-82832500D01*
X121533454Y-82894855D01*
X121514158Y-82911575D01*
X121328597Y-83041505D01*
X121161505Y-83208597D01*
X121025965Y-83402169D01*
X121025964Y-83402171D01*
X120926098Y-83616335D01*
X120926094Y-83616344D01*
X120864938Y-83844586D01*
X120864936Y-83844596D01*
X120847143Y-84047962D01*
X120821690Y-84113031D01*
X120765099Y-84154009D01*
X120695337Y-84157887D01*
X120657643Y-84142148D01*
X120549521Y-84074210D01*
X120379255Y-84014632D01*
X120379246Y-84014630D01*
X120372012Y-84013815D01*
X120307600Y-83986743D01*
X120298224Y-83978277D01*
X120214673Y-83894726D01*
X120194699Y-83881380D01*
X120108127Y-83823535D01*
X120096978Y-83818917D01*
X119989744Y-83774499D01*
X119989738Y-83774497D01*
X119864071Y-83749500D01*
X119864069Y-83749500D01*
X119707871Y-83749500D01*
X119640832Y-83729815D01*
X119602877Y-83691472D01*
X119595388Y-83679553D01*
X119526085Y-83569258D01*
X119444508Y-83487681D01*
X119411023Y-83426358D01*
X119416007Y-83356666D01*
X119444508Y-83312319D01*
X119526085Y-83230742D01*
X119624156Y-83074663D01*
X119685037Y-82900674D01*
X119685037Y-82900673D01*
X119685038Y-82900671D01*
X119697411Y-82790849D01*
X119700500Y-82763438D01*
X119700500Y-82474500D01*
X119720185Y-82407461D01*
X119772989Y-82361706D01*
X119824500Y-82350500D01*
X121054311Y-82350500D01*
X121121350Y-82370185D01*
G37*
%TD.AperFunction*%
%TA.AperFunction,Conductor*%
G36*
X128346231Y-79070185D02*
G01*
X128366873Y-79086819D01*
X128703561Y-79423507D01*
X128737046Y-79484830D01*
X128739880Y-79511188D01*
X128739880Y-81476862D01*
X128720195Y-81543901D01*
X128701739Y-81564342D01*
X128702660Y-81565263D01*
X128697739Y-81570182D01*
X128697738Y-81570184D01*
X128685795Y-81582127D01*
X128685792Y-81582130D01*
X128624468Y-81615613D01*
X128554776Y-81610626D01*
X128510432Y-81582127D01*
X126763031Y-79834726D01*
X126752573Y-79827738D01*
X126656485Y-79763535D01*
X126654691Y-79762792D01*
X126538102Y-79714499D01*
X126538096Y-79714497D01*
X126412429Y-79689500D01*
X126412427Y-79689500D01*
X123563234Y-79689500D01*
X123496195Y-79669815D01*
X123450440Y-79617011D01*
X123440496Y-79547853D01*
X123450852Y-79513095D01*
X123473903Y-79463663D01*
X123535063Y-79235408D01*
X123541337Y-79163691D01*
X123566789Y-79098624D01*
X123623380Y-79057645D01*
X123664865Y-79050500D01*
X128279192Y-79050500D01*
X128346231Y-79070185D01*
G37*
%TD.AperFunction*%
%TD*%
M02*
