%TF.GenerationSoftware,KiCad,Pcbnew,8.0.1*%
%TF.CreationDate,2024-04-01T21:43:51+02:00*%
%TF.ProjectId,SenseLoraCAM,53656e73-654c-46f7-9261-43414d2e6b69,rev?*%
%TF.SameCoordinates,Original*%
%TF.FileFunction,Copper,L2,Bot*%
%TF.FilePolarity,Positive*%
%FSLAX46Y46*%
G04 Gerber Fmt 4.6, Leading zero omitted, Abs format (unit mm)*
G04 Created by KiCad (PCBNEW 8.0.1) date 2024-04-01 21:43:51*
%MOMM*%
%LPD*%
G01*
G04 APERTURE LIST*
G04 Aperture macros list*
%AMRoundRect*
0 Rectangle with rounded corners*
0 $1 Rounding radius*
0 $2 $3 $4 $5 $6 $7 $8 $9 X,Y pos of 4 corners*
0 Add a 4 corners polygon primitive as box body*
4,1,4,$2,$3,$4,$5,$6,$7,$8,$9,$2,$3,0*
0 Add four circle primitives for the rounded corners*
1,1,$1+$1,$2,$3*
1,1,$1+$1,$4,$5*
1,1,$1+$1,$6,$7*
1,1,$1+$1,$8,$9*
0 Add four rect primitives between the rounded corners*
20,1,$1+$1,$2,$3,$4,$5,0*
20,1,$1+$1,$4,$5,$6,$7,0*
20,1,$1+$1,$6,$7,$8,$9,0*
20,1,$1+$1,$8,$9,$2,$3,0*%
%AMRotRect*
0 Rectangle, with rotation*
0 The origin of the aperture is its center*
0 $1 length*
0 $2 width*
0 $3 Rotation angle, in degrees counterclockwise*
0 Add horizontal line*
21,1,$1,$2,0,0,$3*%
%AMFreePoly0*
4,1,19,0.500000,-0.750000,0.000000,-0.750000,0.000000,-0.744911,-0.071157,-0.744911,-0.207708,-0.704816,-0.327430,-0.627875,-0.420627,-0.520320,-0.479746,-0.390866,-0.500000,-0.250000,-0.500000,0.250000,-0.479746,0.390866,-0.420627,0.520320,-0.327430,0.627875,-0.207708,0.704816,-0.071157,0.744911,0.000000,0.744911,0.000000,0.750000,0.500000,0.750000,0.500000,-0.750000,0.500000,-0.750000,
$1*%
%AMFreePoly1*
4,1,19,0.000000,0.744911,0.071157,0.744911,0.207708,0.704816,0.327430,0.627875,0.420627,0.520320,0.479746,0.390866,0.500000,0.250000,0.500000,-0.250000,0.479746,-0.390866,0.420627,-0.520320,0.327430,-0.627875,0.207708,-0.704816,0.071157,-0.744911,0.000000,-0.744911,0.000000,-0.750000,-0.500000,-0.750000,-0.500000,0.750000,0.000000,0.750000,0.000000,0.744911,0.000000,0.744911,
$1*%
G04 Aperture macros list end*
%TA.AperFunction,SMDPad,CuDef*%
%ADD10RotRect,1.350000X4.200000X247.000000*%
%TD*%
%TA.AperFunction,ComponentPad*%
%ADD11R,1.700000X1.700000*%
%TD*%
%TA.AperFunction,ComponentPad*%
%ADD12O,1.700000X1.700000*%
%TD*%
%TA.AperFunction,SMDPad,CuDef*%
%ADD13RoundRect,0.250000X-0.475000X0.337500X-0.475000X-0.337500X0.475000X-0.337500X0.475000X0.337500X0*%
%TD*%
%TA.AperFunction,SMDPad,CuDef*%
%ADD14RoundRect,0.250000X0.450000X-0.350000X0.450000X0.350000X-0.450000X0.350000X-0.450000X-0.350000X0*%
%TD*%
%TA.AperFunction,SMDPad,CuDef*%
%ADD15R,1.500000X0.900000*%
%TD*%
%TA.AperFunction,SMDPad,CuDef*%
%ADD16RoundRect,0.250000X0.350000X0.450000X-0.350000X0.450000X-0.350000X-0.450000X0.350000X-0.450000X0*%
%TD*%
%TA.AperFunction,SMDPad,CuDef*%
%ADD17R,2.500000X0.350000*%
%TD*%
%TA.AperFunction,SMDPad,CuDef*%
%ADD18FreePoly0,270.000000*%
%TD*%
%TA.AperFunction,SMDPad,CuDef*%
%ADD19FreePoly1,270.000000*%
%TD*%
%TA.AperFunction,SMDPad,CuDef*%
%ADD20RoundRect,0.200000X0.200000X0.275000X-0.200000X0.275000X-0.200000X-0.275000X0.200000X-0.275000X0*%
%TD*%
%TA.AperFunction,SMDPad,CuDef*%
%ADD21FreePoly0,0.000000*%
%TD*%
%TA.AperFunction,SMDPad,CuDef*%
%ADD22FreePoly1,0.000000*%
%TD*%
%TA.AperFunction,SMDPad,CuDef*%
%ADD23RoundRect,0.150000X-0.150000X0.587500X-0.150000X-0.587500X0.150000X-0.587500X0.150000X0.587500X0*%
%TD*%
%TA.AperFunction,SMDPad,CuDef*%
%ADD24R,1.500000X1.500000*%
%TD*%
%TA.AperFunction,SMDPad,CuDef*%
%ADD25RoundRect,0.165000X-0.567158X-0.125625X0.055785X-0.578220X0.567158X0.125625X-0.055785X0.578220X0*%
%TD*%
%TA.AperFunction,ComponentPad*%
%ADD26C,0.950000*%
%TD*%
%TA.AperFunction,SMDPad,CuDef*%
%ADD27RoundRect,0.180000X-0.586657X-0.092917X0.092917X-0.586657X0.586657X0.092917X-0.092917X0.586657X0*%
%TD*%
%TA.AperFunction,SMDPad,CuDef*%
%ADD28RoundRect,0.210000X-0.724884X-0.079014X0.148854X-0.713822X0.724884X0.079014X-0.148854X0.713822X0*%
%TD*%
%TA.AperFunction,SMDPad,CuDef*%
%ADD29RoundRect,0.250000X-0.350000X-0.450000X0.350000X-0.450000X0.350000X0.450000X-0.350000X0.450000X0*%
%TD*%
%TA.AperFunction,SMDPad,CuDef*%
%ADD30RoundRect,0.237500X0.237500X-0.250000X0.237500X0.250000X-0.237500X0.250000X-0.237500X-0.250000X0*%
%TD*%
%TA.AperFunction,SMDPad,CuDef*%
%ADD31RoundRect,0.237500X-0.237500X0.250000X-0.237500X-0.250000X0.237500X-0.250000X0.237500X0.250000X0*%
%TD*%
%TA.AperFunction,SMDPad,CuDef*%
%ADD32RoundRect,0.200000X-0.200000X-0.275000X0.200000X-0.275000X0.200000X0.275000X-0.200000X0.275000X0*%
%TD*%
%TA.AperFunction,SMDPad,CuDef*%
%ADD33RoundRect,0.150000X0.725000X0.150000X-0.725000X0.150000X-0.725000X-0.150000X0.725000X-0.150000X0*%
%TD*%
%TA.AperFunction,ViaPad*%
%ADD34C,0.500000*%
%TD*%
%TA.AperFunction,ViaPad*%
%ADD35C,0.600000*%
%TD*%
%TA.AperFunction,ViaPad*%
%ADD36C,3.300000*%
%TD*%
%TA.AperFunction,Conductor*%
%ADD37C,0.300000*%
%TD*%
%TA.AperFunction,Conductor*%
%ADD38C,0.400000*%
%TD*%
%TA.AperFunction,Conductor*%
%ADD39C,0.500000*%
%TD*%
%TA.AperFunction,Conductor*%
%ADD40C,0.200000*%
%TD*%
G04 APERTURE END LIST*
D10*
%TO.P,AE1,2,Shield*%
%TO.N,GND*%
X100320022Y-70294942D03*
X98112392Y-75495794D03*
%TD*%
D11*
%TO.P,J3,1,Pin_1*%
%TO.N,+BATT*%
X122200000Y-94240000D03*
D12*
%TO.P,J3,2,Pin_2*%
%TO.N,GND*%
X122200000Y-91700000D03*
%TO.P,J3,3,Pin_3*%
%TO.N,+3.3VP*%
X122200000Y-89160000D03*
%TO.P,J3,4,Pin_4*%
%TO.N,/GPIO09*%
X122200000Y-86620000D03*
%TO.P,J3,5,Pin_5*%
%TO.N,/GPIO08*%
X122200000Y-84080000D03*
%TO.P,J3,6,Pin_6*%
%TO.N,/GPIO07*%
X122200000Y-81540000D03*
%TO.P,J3,7,Pin_7*%
%TO.N,/GPIO44*%
X122200000Y-79000000D03*
%TD*%
D13*
%TO.P,C3,1*%
%TO.N,Net-(C3-Pad1)*%
X111600000Y-85762500D03*
%TO.P,C3,2*%
%TO.N,GND*%
X111600000Y-87837500D03*
%TD*%
D14*
%TO.P,R21,1*%
%TO.N,+3.3VP*%
X120800000Y-71000000D03*
%TO.P,R21,2*%
%TO.N,Net-(R21-Pad2)*%
X120800000Y-69000000D03*
%TD*%
D15*
%TO.P,D6,1,VDD*%
%TO.N,+BATT*%
X105850000Y-69800000D03*
%TO.P,D6,2,DOUT*%
%TO.N,Net-(D6-DOUT)*%
X105850000Y-66500000D03*
%TO.P,D6,3,VSS*%
%TO.N,GND*%
X110750000Y-66500000D03*
%TO.P,D6,4,DIN*%
%TO.N,Net-(D2-DOUT)*%
X110750000Y-69800000D03*
%TD*%
D16*
%TO.P,R19,1*%
%TO.N,Net-(U5-~{RESET})*%
X118775000Y-87000000D03*
%TO.P,R19,2*%
%TO.N,Net-(C3-Pad1)*%
X116775000Y-87000000D03*
%TD*%
D17*
%TO.P,U5,1,GND*%
%TO.N,GND*%
X126275000Y-78150000D03*
%TO.P,U5,2,LEDK*%
%TO.N,/LEDK*%
X126275000Y-78850000D03*
%TO.P,U5,3,LEDA*%
%TO.N,Net-(U5-LEDA)*%
X126275000Y-79550000D03*
%TO.P,U5,4,VDD*%
%TO.N,+3.3VP*%
X126275000Y-80250000D03*
%TO.P,U5,5,GND*%
%TO.N,GND*%
X126275000Y-80950000D03*
%TO.P,U5,6,GND*%
X126275000Y-81650000D03*
%TO.P,U5,7,D/C*%
%TO.N,/GPIO43*%
X126275000Y-82350000D03*
%TO.P,U5,8,~{CS}*%
%TO.N,/GPIO44*%
X126275000Y-83050000D03*
%TO.P,U5,9,SCK*%
%TO.N,/GPIO07*%
X126275000Y-83750000D03*
%TO.P,U5,10,SDI*%
%TO.N,/GPIO09*%
X126275000Y-84450000D03*
%TO.P,U5,11,~{RESET}*%
%TO.N,Net-(U5-~{RESET})*%
X126275000Y-85150000D03*
%TO.P,U5,12,GND*%
%TO.N,GND*%
X126275000Y-85850000D03*
%TD*%
D18*
%TO.P,JP1,1,A*%
%TO.N,/LED_WS2812*%
X120850000Y-73950000D03*
D19*
%TO.P,JP1,2,B*%
%TO.N,/GPIO43*%
X120850000Y-75250000D03*
%TD*%
D20*
%TO.P,R16,1*%
%TO.N,Net-(Q1-G)*%
X124425000Y-73000000D03*
%TO.P,R16,2*%
%TO.N,+3.3VP*%
X122775000Y-73000000D03*
%TD*%
D15*
%TO.P,D2,1,VDD*%
%TO.N,+BATT*%
X105850000Y-75650000D03*
%TO.P,D2,2,DOUT*%
%TO.N,Net-(D2-DOUT)*%
X105850000Y-72350000D03*
%TO.P,D2,3,VSS*%
%TO.N,GND*%
X110750000Y-72350000D03*
%TO.P,D2,4,DIN*%
%TO.N,Net-(D1-DOUT)*%
X110750000Y-75650000D03*
%TD*%
D11*
%TO.P,J2,1,Pin_1*%
%TO.N,Net-(J2-Pin_1)*%
X113675000Y-90600000D03*
D12*
%TO.P,J2,2,Pin_2*%
%TO.N,Net-(J2-Pin_2)*%
X111135000Y-90600000D03*
%TD*%
D21*
%TO.P,JP2,1,A*%
%TO.N,/GPIO44*%
X126550000Y-69100000D03*
D22*
%TO.P,JP2,2,B*%
%TO.N,/SW_X*%
X127850000Y-69100000D03*
%TD*%
D23*
%TO.P,Q1,1,G*%
%TO.N,Net-(Q1-G)*%
X126137500Y-71375000D03*
%TO.P,Q1,2,S*%
%TO.N,GND*%
X128037500Y-71375000D03*
%TO.P,Q1,3,D*%
%TO.N,/LEDK*%
X127087500Y-73250000D03*
%TD*%
D24*
%TO.P,LED1,1,1*%
%TO.N,Net-(D7-DOUT)*%
X114400000Y-63200000D03*
%TD*%
D25*
%TO.P,SW2,1,1*%
%TO.N,Net-(R21-Pad2)*%
X121246640Y-65774433D03*
%TO.P,SW2,2,2*%
%TO.N,/SW_X*%
X124563608Y-68184353D03*
D26*
%TO.P,SW2,SH*%
%TO.N,N/C*%
X122036353Y-64432289D03*
D27*
X122065743Y-64391839D03*
D28*
X122537758Y-67485029D03*
D27*
X125625418Y-66978094D03*
D26*
X125596029Y-67018545D03*
%TD*%
D14*
%TO.P,R2,1*%
%TO.N,+3.3VP*%
X114200000Y-85400000D03*
%TO.P,R2,2*%
%TO.N,/GPIO05*%
X114200000Y-83400000D03*
%TD*%
D15*
%TO.P,D7,1,VDD*%
%TO.N,+BATT*%
X113400000Y-69800000D03*
%TO.P,D7,2,DOUT*%
%TO.N,Net-(D7-DOUT)*%
X113400000Y-66500000D03*
%TO.P,D7,3,VSS*%
%TO.N,GND*%
X118300000Y-66500000D03*
%TO.P,D7,4,DIN*%
%TO.N,Net-(D6-DOUT)*%
X118300000Y-69800000D03*
%TD*%
D29*
%TO.P,R17,1*%
%TO.N,GND*%
X122625000Y-71200000D03*
%TO.P,R17,2*%
%TO.N,Net-(Q1-G)*%
X124625000Y-71200000D03*
%TD*%
D15*
%TO.P,D1,1,VDD*%
%TO.N,+BATT*%
X113300000Y-75650000D03*
%TO.P,D1,2,DOUT*%
%TO.N,Net-(D1-DOUT)*%
X113300000Y-72350000D03*
%TO.P,D1,3,VSS*%
%TO.N,GND*%
X118200000Y-72350000D03*
%TO.P,D1,4,DIN*%
%TO.N,/LED_WS2812*%
X118200000Y-75650000D03*
%TD*%
D11*
%TO.P,J4,1,Pin_1*%
%TO.N,/AUDIO_BCLK*%
X106900000Y-94240000D03*
D12*
%TO.P,J4,2,Pin_2*%
%TO.N,/AUDIO_LRC*%
X106900000Y-91700000D03*
%TO.P,J4,3,Pin_3*%
%TO.N,/GPIO03*%
X106900000Y-89160000D03*
%TO.P,J4,4,Pin_4*%
%TO.N,/AUDIO_DIN*%
X106900000Y-86620000D03*
%TO.P,J4,5,Pin_5*%
%TO.N,/GPIO05*%
X106900000Y-84080000D03*
%TO.P,J4,6,Pin_6*%
%TO.N,/GPIO06*%
X106900000Y-81540000D03*
%TO.P,J4,7,Pin_7*%
%TO.N,/GPIO43*%
X106900000Y-79000000D03*
%TD*%
D30*
%TO.P,R3,1*%
%TO.N,+3.3VP*%
X109500000Y-80912500D03*
%TO.P,R3,2*%
%TO.N,/GPIO06*%
X109500000Y-79087500D03*
%TD*%
D31*
%TO.P,R7,1*%
%TO.N,+3.3VP*%
X109500000Y-83287500D03*
%TO.P,R7,2*%
%TO.N,Net-(C3-Pad1)*%
X109500000Y-85112500D03*
%TD*%
D32*
%TO.P,R18,1*%
%TO.N,+3.3VP*%
X118200000Y-79600000D03*
%TO.P,R18,2*%
%TO.N,Net-(U5-LEDA)*%
X119850000Y-79600000D03*
%TD*%
D33*
%TO.P,U6,1,VDD*%
%TO.N,+3.3VP*%
X116600000Y-77790000D03*
%TO.P,U6,2,MODE*%
X116600000Y-79060000D03*
%TO.P,U6,3,OUT*%
%TO.N,unconnected-(U6-OUT-Pad3)*%
X116600000Y-80330000D03*
%TO.P,U6,4,GND*%
%TO.N,GND*%
X116600000Y-81600000D03*
%TO.P,U6,5,PUSH*%
%TO.N,unconnected-(U6-PUSH-Pad5)*%
X111450000Y-81600000D03*
%TO.P,U6,6,A*%
%TO.N,/GPIO05*%
X111450000Y-80330000D03*
%TO.P,U6,7,B*%
%TO.N,/GPIO06*%
X111450000Y-79060000D03*
%TO.P,U6,8,Z*%
%TO.N,/GPIO03*%
X111450000Y-77790000D03*
%TD*%
D34*
%TO.N,GND*%
X98200000Y-75600000D03*
D35*
X125800000Y-87200000D03*
X122000000Y-71200000D03*
X124000000Y-81800000D03*
X122400000Y-69800000D03*
D36*
X102800000Y-68600000D03*
D34*
X117000000Y-74200000D03*
X102700000Y-92900000D03*
X109000000Y-89800000D03*
D35*
X128740380Y-81059620D03*
D36*
X125600000Y-90600000D03*
D35*
X110600000Y-92800000D03*
X128400000Y-79600000D03*
X120000000Y-82800000D03*
X117725000Y-88400000D03*
X116200000Y-66400000D03*
X126200000Y-76800000D03*
D34*
X100400000Y-70200000D03*
D35*
X118200000Y-72600000D03*
D34*
X128000000Y-85800000D03*
D35*
X115400000Y-81400000D03*
%TO.N,+3.3VP*%
X120400000Y-71000000D03*
X102675000Y-82400000D03*
%TO.N,+BATT*%
X105850000Y-69800000D03*
%TO.N,/GPIO07*%
X128000000Y-83800000D03*
%TO.N,/GPIO09*%
X120200000Y-84800000D03*
%TO.N,/AUDIO_DIN*%
X110656786Y-96048000D03*
%TO.N,/GPIO03*%
X114200000Y-79800000D03*
%TO.N,/GPIO06*%
X109400000Y-79000000D03*
%TO.N,/GPIO05*%
X111450000Y-80330000D03*
%TO.N,/GPIO43*%
X120850000Y-75250000D03*
X120000000Y-78200000D03*
%TO.N,/GPIO44*%
X129200000Y-82200000D03*
%TD*%
D37*
%TO.N,GND*%
X122800000Y-71200000D02*
X122800000Y-70200000D01*
X122000000Y-71200000D02*
X122800000Y-71200000D01*
X126200000Y-77000000D02*
X126200000Y-76800000D01*
X111562500Y-88400000D02*
X117725000Y-88400000D01*
X128000000Y-85800000D02*
X126325000Y-85800000D01*
X126275000Y-81650000D02*
X128150000Y-81650000D01*
X111000000Y-87837500D02*
X111562500Y-88400000D01*
X115600000Y-81600000D02*
X115400000Y-81400000D01*
X124400000Y-77000000D02*
X126200000Y-77000000D01*
X126275000Y-78150000D02*
X126275000Y-78000000D01*
X124400000Y-78000000D02*
X124400000Y-77000000D01*
X126325000Y-85800000D02*
X126275000Y-85850000D01*
X128630760Y-80950000D02*
X128740380Y-81059620D01*
X124000000Y-81650000D02*
X124000000Y-81800000D01*
X126275000Y-81650000D02*
X124000000Y-81650000D01*
X126275000Y-78000000D02*
X124400000Y-78000000D01*
X126275000Y-80950000D02*
X128630760Y-80950000D01*
X128150000Y-81650000D02*
X128740380Y-81059620D01*
X116600000Y-81600000D02*
X115600000Y-81600000D01*
X122800000Y-70200000D02*
G75*
G03*
X122400000Y-69800000I-400000J0D01*
G01*
%TO.N,+3.3VP*%
X122775000Y-73000000D02*
X122775000Y-75625000D01*
D38*
X115100000Y-82300000D02*
X114200000Y-81400000D01*
D37*
X121800000Y-73000000D02*
X122775000Y-73000000D01*
X119407106Y-77400000D02*
X119017106Y-77790000D01*
X110559999Y-89160000D02*
X108100000Y-86700001D01*
X130200000Y-82600000D02*
X129200000Y-83600000D01*
X129200000Y-85828428D02*
X126428428Y-88600000D01*
X102675000Y-83575000D02*
X102675000Y-82400000D01*
X128850000Y-80250000D02*
X130200000Y-81600000D01*
X126428428Y-88600000D02*
X122760000Y-88600000D01*
X109600000Y-81012500D02*
X109500000Y-80912500D01*
X112000000Y-83200000D02*
X109000000Y-83200000D01*
X105362943Y-82600000D02*
X102875000Y-82600000D01*
X129200000Y-83600000D02*
X129200000Y-85828428D01*
D38*
X114200000Y-80800000D02*
X115940000Y-79060000D01*
X115800000Y-84126166D02*
X115800000Y-82673834D01*
D37*
X102875000Y-82600000D02*
X102675000Y-82400000D01*
X107800000Y-82800000D02*
X105562943Y-82800000D01*
D38*
X114200000Y-85400000D02*
X114526166Y-85400000D01*
D37*
X109000000Y-83200000D02*
X109587500Y-83200000D01*
X108100000Y-85955456D02*
X107424544Y-85280000D01*
X120400000Y-71000000D02*
X120800000Y-72000000D01*
D38*
X114526166Y-85400000D02*
X115800000Y-84126166D01*
X116600000Y-79060000D02*
X116896325Y-79060000D01*
X115426166Y-82300000D02*
X115100000Y-82300000D01*
D37*
X114200000Y-85400000D02*
X112000000Y-83200000D01*
D38*
X115940000Y-79060000D02*
X116600000Y-79060000D01*
X116600000Y-79060000D02*
X116600000Y-77790000D01*
D37*
X122760000Y-88600000D02*
X122200000Y-89160000D01*
X104380000Y-85280000D02*
X102675000Y-83575000D01*
X122200000Y-89160000D02*
X110559999Y-89160000D01*
X108100000Y-86700001D02*
X108100000Y-85955456D01*
X119017106Y-77790000D02*
X116600000Y-77790000D01*
X105562943Y-82800000D02*
X105362943Y-82600000D01*
X108200000Y-83200000D02*
X107800000Y-82800000D01*
X109600000Y-83187500D02*
X109600000Y-81012500D01*
D38*
X115800000Y-82673834D02*
X115426166Y-82300000D01*
D37*
X121000000Y-77400000D02*
X119407106Y-77400000D01*
X120800000Y-71000000D02*
X120400000Y-71000000D01*
X107424544Y-85280000D02*
X104380000Y-85280000D01*
X122775000Y-75625000D02*
X121000000Y-77400000D01*
X109000000Y-83200000D02*
X108200000Y-83200000D01*
X109587500Y-83200000D02*
X109600000Y-83187500D01*
X126275000Y-80250000D02*
X128850000Y-80250000D01*
X120800000Y-72000000D02*
X121800000Y-73000000D01*
X130200000Y-81600000D02*
X130200000Y-82600000D01*
D38*
X114200000Y-81400000D02*
X114200000Y-80800000D01*
X116896325Y-79060000D02*
G75*
G02*
X118199993Y-79600007I-25J-1843700D01*
G01*
D39*
%TO.N,Net-(C3-Pad1)*%
X116775000Y-87000000D02*
X116375000Y-87400000D01*
X116375000Y-87400000D02*
X112971878Y-87400000D01*
D37*
X110350000Y-85112500D02*
X111000000Y-85762500D01*
X109500000Y-85112500D02*
X110350000Y-85112500D01*
X109412500Y-85200000D02*
X109500000Y-85112500D01*
D39*
X111334378Y-85762500D02*
X111000000Y-85762500D01*
X112971878Y-87400000D02*
X111334378Y-85762500D01*
D37*
%TO.N,Net-(D1-DOUT)*%
X113300000Y-72400000D02*
X113300000Y-73200000D01*
X113300000Y-73200000D02*
X110850000Y-75650000D01*
D39*
%TO.N,Net-(D2-DOUT)*%
X105950000Y-72350000D02*
X108350000Y-72350000D01*
X108350000Y-72350000D02*
X110900000Y-69800000D01*
D37*
%TO.N,+BATT*%
X122200000Y-94240000D02*
X113384025Y-94240000D01*
X110387547Y-96698000D02*
X110006786Y-96317239D01*
D39*
X115200000Y-73800000D02*
X113300000Y-75700000D01*
D37*
X113384025Y-94240000D02*
X110926025Y-96698000D01*
D39*
X106900000Y-68900000D02*
X112500000Y-68900000D01*
D37*
X102472500Y-79127500D02*
X102472500Y-77400000D01*
X102025000Y-79575000D02*
X102472500Y-79127500D01*
X106750000Y-76450000D02*
X112350000Y-76450000D01*
X113100000Y-75700000D02*
X113300000Y-75700000D01*
X108600000Y-94600000D02*
X108600000Y-93400000D01*
X105950000Y-75650000D02*
X106750000Y-76450000D01*
D39*
X113960661Y-69800000D02*
X115200000Y-71039339D01*
D37*
X110006786Y-96006786D02*
X108600000Y-94600000D01*
X110926025Y-96698000D02*
X110387547Y-96698000D01*
D39*
X106000000Y-69800000D02*
X106900000Y-68900000D01*
D37*
X104222500Y-75650000D02*
X105950000Y-75650000D01*
D39*
X115200000Y-71039339D02*
X115200000Y-73800000D01*
D37*
X105500000Y-92900000D02*
X102025000Y-89425000D01*
X102025000Y-89425000D02*
X102025000Y-79575000D01*
X108600000Y-93400000D02*
X108100000Y-92900000D01*
D39*
X112500000Y-68900000D02*
X113400000Y-69800000D01*
D37*
X110006786Y-96317239D02*
X110006786Y-96006786D01*
X102472500Y-77400000D02*
X104222500Y-75650000D01*
X112350000Y-76450000D02*
X113100000Y-75700000D01*
X108100000Y-92900000D02*
X105500000Y-92900000D01*
D39*
X113400000Y-69800000D02*
X113960661Y-69800000D01*
%TO.N,/GPIO07*%
X128000000Y-83800000D02*
X126275000Y-83800000D01*
D37*
%TO.N,/GPIO09*%
X120200000Y-84800000D02*
X120200000Y-85800000D01*
X126275000Y-84450000D02*
X124370000Y-84450000D01*
X124370000Y-84450000D02*
X122200000Y-86620000D01*
X120200000Y-85800000D02*
X121020000Y-86620000D01*
X121020000Y-86620000D02*
X122200000Y-86620000D01*
D39*
%TO.N,/LEDK*%
X128800000Y-74962500D02*
X127087500Y-73250000D01*
X126275000Y-78850000D02*
X128025000Y-78850000D01*
X128800000Y-78075000D02*
X128800000Y-74962500D01*
X128025000Y-78850000D02*
X128800000Y-78075000D01*
%TO.N,Net-(Q1-G)*%
X124450000Y-71200000D02*
X125962500Y-71200000D01*
X125962500Y-71200000D02*
X126137500Y-71375000D01*
X124425000Y-73000000D02*
X124425000Y-71225000D01*
D37*
%TO.N,Net-(U5-LEDA)*%
X123347057Y-79550000D02*
X122697057Y-80200000D01*
X123347057Y-79550000D02*
X126275000Y-79550000D01*
X122697057Y-80200000D02*
X120450000Y-80200000D01*
X120450000Y-80200000D02*
X119850000Y-79600000D01*
%TO.N,Net-(U5-~{RESET})*%
X124675000Y-85842057D02*
X122697057Y-87820000D01*
X124725000Y-85150000D02*
X124675000Y-85200000D01*
X122697057Y-87820000D02*
X119595000Y-87820000D01*
X119595000Y-87820000D02*
X118600000Y-86825000D01*
X126275000Y-85150000D02*
X124725000Y-85150000D01*
X124675000Y-85200000D02*
X124675000Y-85842057D01*
D39*
%TO.N,Net-(R21-Pad2)*%
X120600000Y-66421072D02*
X121246639Y-65774433D01*
X120600000Y-69000000D02*
X120600000Y-66421072D01*
D37*
%TO.N,/AUDIO_DIN*%
X109950000Y-92809620D02*
X108100000Y-90959620D01*
X110590380Y-93450000D02*
X110330761Y-93450000D01*
X110656786Y-96048000D02*
X110656786Y-93516406D01*
X108100000Y-90959620D02*
X108100000Y-87820000D01*
X109950000Y-93069239D02*
X109950000Y-92809620D01*
X110656786Y-93516406D02*
X110590380Y-93450000D01*
X110330761Y-93450000D02*
X109950000Y-93069239D01*
X108100000Y-87820000D02*
X106900000Y-86620000D01*
D38*
%TO.N,/GPIO03*%
X112190000Y-77790000D02*
X111450000Y-77790000D01*
X114200000Y-79800000D02*
X112190000Y-77790000D01*
D40*
%TO.N,/GPIO06*%
X111450000Y-79060000D02*
X109060000Y-79060000D01*
D37*
%TO.N,/GPIO05*%
X106900000Y-84080000D02*
X106970000Y-84150000D01*
D38*
X112130000Y-80330000D02*
X114200000Y-82400000D01*
X111450000Y-80330000D02*
X112130000Y-80330000D01*
X114200000Y-82400000D02*
X114200000Y-83400000D01*
D37*
%TO.N,/GPIO43*%
X112386262Y-77140000D02*
X112846262Y-77600000D01*
X120000000Y-78200000D02*
X119991642Y-78200000D01*
X108760000Y-77140000D02*
X109200000Y-77140000D01*
X112846262Y-77600000D02*
X115203738Y-77600000D01*
X115663738Y-77140000D02*
X118960000Y-77140000D01*
X115203738Y-77600000D02*
X115663738Y-77140000D01*
X121762943Y-82800000D02*
X121702943Y-82740000D01*
X118950000Y-79241642D02*
X118950000Y-79987057D01*
X106900000Y-79000000D02*
X108760000Y-77140000D01*
X118960000Y-77140000D02*
X120850000Y-75250000D01*
X118950000Y-79987057D02*
X121702943Y-82740000D01*
X126275000Y-82350000D02*
X125050000Y-82350000D01*
X119991642Y-78200000D02*
X118950000Y-79241642D01*
X109200000Y-77140000D02*
X112386262Y-77140000D01*
X124600000Y-82800000D02*
X121762943Y-82800000D01*
X125050000Y-82350000D02*
X124600000Y-82800000D01*
%TO.N,/GPIO44*%
X123575000Y-77625000D02*
X122200000Y-79000000D01*
X123575000Y-70594544D02*
X123575000Y-77625000D01*
X126800000Y-69000000D02*
X125169544Y-69000000D01*
X126275000Y-83050000D02*
X128350000Y-83050000D01*
X128350000Y-83050000D02*
X129200000Y-82200000D01*
X125169544Y-69000000D02*
X123575000Y-70594544D01*
D39*
%TO.N,Net-(D6-DOUT)*%
X107100000Y-67600000D02*
X106000000Y-66500000D01*
X116100000Y-67600000D02*
X107100000Y-67600000D01*
X118300000Y-69800000D02*
X116100000Y-67600000D01*
%TO.N,Net-(D7-DOUT)*%
X113400000Y-66500000D02*
X113400000Y-64200000D01*
X113400000Y-64200000D02*
X114400000Y-63200000D01*
%TO.N,/LED_WS2812*%
X119950000Y-73950000D02*
X120850000Y-73950000D01*
X118200000Y-75700000D02*
X119950000Y-73950000D01*
D40*
%TO.N,/SW_X*%
X128100000Y-68682966D02*
X128100000Y-69000000D01*
X127974134Y-68517942D02*
X128100000Y-68682966D01*
X124563608Y-68184353D02*
X126015647Y-68184353D01*
X127843002Y-68361665D02*
X127974134Y-68517942D01*
X127426337Y-67945000D02*
X127843002Y-68361665D01*
X126255000Y-67945000D02*
X127426337Y-67945000D01*
X126015647Y-68184353D02*
X126255000Y-67945000D01*
%TD*%
%TA.AperFunction,Conductor*%
%TO.N,GND*%
G36*
X113603659Y-61723951D02*
G01*
X113651839Y-61774552D01*
X113665013Y-61843169D01*
X113638999Y-61908015D01*
X113582056Y-61948503D01*
X113554840Y-61954583D01*
X113542519Y-61955907D01*
X113407671Y-62006202D01*
X113407664Y-62006206D01*
X113292455Y-62092452D01*
X113292452Y-62092455D01*
X113206206Y-62207664D01*
X113206202Y-62207671D01*
X113155908Y-62342517D01*
X113149501Y-62402116D01*
X113149501Y-62402123D01*
X113149500Y-62402135D01*
X113149500Y-63337769D01*
X113129815Y-63404808D01*
X113113181Y-63425450D01*
X112817047Y-63721584D01*
X112777539Y-63780712D01*
X112777540Y-63780713D01*
X112734914Y-63844508D01*
X112678343Y-63981082D01*
X112678340Y-63981092D01*
X112649500Y-64126079D01*
X112649500Y-65433023D01*
X112629815Y-65500062D01*
X112577011Y-65545817D01*
X112549865Y-65553266D01*
X112550068Y-65554124D01*
X112542520Y-65555907D01*
X112407671Y-65606202D01*
X112407664Y-65606206D01*
X112292455Y-65692452D01*
X112292452Y-65692455D01*
X112206206Y-65807664D01*
X112206200Y-65807676D01*
X112190914Y-65848659D01*
X112149043Y-65904593D01*
X112083578Y-65929009D01*
X112015305Y-65914157D01*
X111965900Y-65864751D01*
X111958551Y-65848658D01*
X111943354Y-65807913D01*
X111943350Y-65807906D01*
X111857190Y-65692812D01*
X111857187Y-65692809D01*
X111742093Y-65606649D01*
X111742086Y-65606645D01*
X111607379Y-65556403D01*
X111607372Y-65556401D01*
X111547844Y-65550000D01*
X111000000Y-65550000D01*
X111000000Y-66626000D01*
X110980315Y-66693039D01*
X110927511Y-66738794D01*
X110876000Y-66750000D01*
X109500000Y-66750000D01*
X109489815Y-66760184D01*
X109480315Y-66792539D01*
X109427511Y-66838294D01*
X109376000Y-66849500D01*
X107462230Y-66849500D01*
X107395191Y-66829815D01*
X107374549Y-66813181D01*
X107136818Y-66575450D01*
X107103333Y-66514127D01*
X107100499Y-66487769D01*
X107100499Y-66250000D01*
X109500000Y-66250000D01*
X110500000Y-66250000D01*
X110500000Y-65550000D01*
X109952155Y-65550000D01*
X109892627Y-65556401D01*
X109892620Y-65556403D01*
X109757913Y-65606645D01*
X109757906Y-65606649D01*
X109642812Y-65692809D01*
X109642809Y-65692812D01*
X109556649Y-65807906D01*
X109556645Y-65807913D01*
X109506403Y-65942620D01*
X109506401Y-65942627D01*
X109500000Y-66002155D01*
X109500000Y-66250000D01*
X107100499Y-66250000D01*
X107100499Y-66002129D01*
X107100498Y-66002123D01*
X107100497Y-66002116D01*
X107094091Y-65942517D01*
X107088061Y-65926351D01*
X107043797Y-65807671D01*
X107043793Y-65807664D01*
X106957547Y-65692455D01*
X106957544Y-65692452D01*
X106842335Y-65606206D01*
X106842328Y-65606202D01*
X106707482Y-65555908D01*
X106707483Y-65555908D01*
X106647883Y-65549501D01*
X106647881Y-65549500D01*
X106647873Y-65549500D01*
X106647864Y-65549500D01*
X105052129Y-65549500D01*
X105052123Y-65549501D01*
X104992516Y-65555908D01*
X104857671Y-65606202D01*
X104857664Y-65606206D01*
X104742455Y-65692452D01*
X104742452Y-65692455D01*
X104656206Y-65807664D01*
X104656202Y-65807671D01*
X104605908Y-65942517D01*
X104600926Y-65988860D01*
X104599501Y-66002123D01*
X104599500Y-66002135D01*
X104599500Y-66997870D01*
X104599501Y-66997876D01*
X104605908Y-67057483D01*
X104656202Y-67192328D01*
X104656206Y-67192335D01*
X104742452Y-67307544D01*
X104742455Y-67307547D01*
X104857664Y-67393793D01*
X104857671Y-67393797D01*
X104992517Y-67444091D01*
X104992516Y-67444091D01*
X104999444Y-67444835D01*
X105052127Y-67450500D01*
X105837769Y-67450499D01*
X105904808Y-67470183D01*
X105925450Y-67486818D01*
X106515020Y-68076388D01*
X106548505Y-68137711D01*
X106543521Y-68207403D01*
X106501649Y-68263336D01*
X106496230Y-68267171D01*
X106421584Y-68317048D01*
X106421580Y-68317051D01*
X105925450Y-68813181D01*
X105864127Y-68846666D01*
X105837769Y-68849500D01*
X105052129Y-68849500D01*
X105052123Y-68849501D01*
X104992516Y-68855908D01*
X104857671Y-68906202D01*
X104857664Y-68906206D01*
X104742455Y-68992452D01*
X104742452Y-68992455D01*
X104656206Y-69107664D01*
X104656202Y-69107671D01*
X104605908Y-69242517D01*
X104601372Y-69284716D01*
X104599501Y-69302123D01*
X104599500Y-69302135D01*
X104599500Y-70297870D01*
X104599501Y-70297876D01*
X104605908Y-70357483D01*
X104656202Y-70492328D01*
X104656206Y-70492335D01*
X104742452Y-70607544D01*
X104742455Y-70607547D01*
X104857664Y-70693793D01*
X104857671Y-70693797D01*
X104992517Y-70744091D01*
X104992516Y-70744091D01*
X104999444Y-70744835D01*
X105052127Y-70750500D01*
X106647872Y-70750499D01*
X106707483Y-70744091D01*
X106842331Y-70693796D01*
X106957546Y-70607546D01*
X107043796Y-70492331D01*
X107094091Y-70357483D01*
X107100500Y-70297873D01*
X107100499Y-69812229D01*
X107120183Y-69745191D01*
X107136819Y-69724548D01*
X107174550Y-69686818D01*
X107235874Y-69653333D01*
X107262230Y-69650500D01*
X109375500Y-69650500D01*
X109442539Y-69670185D01*
X109488294Y-69722989D01*
X109499500Y-69774500D01*
X109499500Y-70087769D01*
X109479815Y-70154808D01*
X109463181Y-70175450D01*
X108075451Y-71563181D01*
X108014128Y-71596666D01*
X107987770Y-71599500D01*
X107062320Y-71599500D01*
X106995281Y-71579815D01*
X106963052Y-71549809D01*
X106957548Y-71542457D01*
X106957546Y-71542454D01*
X106904574Y-71502799D01*
X106842335Y-71456206D01*
X106842328Y-71456202D01*
X106707482Y-71405908D01*
X106707483Y-71405908D01*
X106647883Y-71399501D01*
X106647881Y-71399500D01*
X106647873Y-71399500D01*
X106647864Y-71399500D01*
X105052129Y-71399500D01*
X105052123Y-71399501D01*
X104992516Y-71405908D01*
X104857671Y-71456202D01*
X104857664Y-71456206D01*
X104742455Y-71542452D01*
X104742452Y-71542455D01*
X104656206Y-71657664D01*
X104656202Y-71657671D01*
X104605908Y-71792517D01*
X104599501Y-71852116D01*
X104599500Y-71852135D01*
X104599500Y-72847870D01*
X104599501Y-72847876D01*
X104605908Y-72907483D01*
X104656202Y-73042328D01*
X104656206Y-73042335D01*
X104742452Y-73157544D01*
X104742455Y-73157547D01*
X104857664Y-73243793D01*
X104857671Y-73243797D01*
X104992517Y-73294091D01*
X104992516Y-73294091D01*
X104999444Y-73294835D01*
X105052127Y-73300500D01*
X106647872Y-73300499D01*
X106707483Y-73294091D01*
X106842331Y-73243796D01*
X106957546Y-73157546D01*
X106963052Y-73150191D01*
X107018985Y-73108319D01*
X107062320Y-73100500D01*
X108423920Y-73100500D01*
X108521462Y-73081096D01*
X108568913Y-73071658D01*
X108705495Y-73015084D01*
X108780504Y-72964965D01*
X108828416Y-72932952D01*
X109288320Y-72473047D01*
X109349642Y-72439563D01*
X109419333Y-72444547D01*
X109475267Y-72486418D01*
X109499684Y-72551883D01*
X109500000Y-72560729D01*
X109500000Y-72847844D01*
X109506401Y-72907372D01*
X109506403Y-72907379D01*
X109556645Y-73042086D01*
X109556649Y-73042093D01*
X109642809Y-73157187D01*
X109642812Y-73157190D01*
X109757906Y-73243350D01*
X109757913Y-73243354D01*
X109892620Y-73293596D01*
X109892627Y-73293598D01*
X109952155Y-73299999D01*
X109952172Y-73300000D01*
X110500000Y-73300000D01*
X110500000Y-71384732D01*
X110484879Y-71357041D01*
X110489863Y-71287349D01*
X110518364Y-71243002D01*
X110974548Y-70786818D01*
X111035871Y-70753333D01*
X111062229Y-70750499D01*
X111547871Y-70750499D01*
X111547872Y-70750499D01*
X111607483Y-70744091D01*
X111742331Y-70693796D01*
X111857546Y-70607546D01*
X111943796Y-70492331D01*
X111943798Y-70492326D01*
X111958818Y-70452056D01*
X112000688Y-70396122D01*
X112066153Y-70371704D01*
X112134426Y-70386555D01*
X112183832Y-70435960D01*
X112191182Y-70452056D01*
X112206201Y-70492326D01*
X112206206Y-70492335D01*
X112292452Y-70607544D01*
X112292455Y-70607547D01*
X112407664Y-70693793D01*
X112407671Y-70693797D01*
X112542517Y-70744091D01*
X112542516Y-70744091D01*
X112549444Y-70744835D01*
X112602127Y-70750500D01*
X113798430Y-70750499D01*
X113865469Y-70770184D01*
X113886111Y-70786818D01*
X114308977Y-71209684D01*
X114342462Y-71271007D01*
X114337478Y-71340699D01*
X114295606Y-71396632D01*
X114230142Y-71421049D01*
X114177964Y-71413547D01*
X114157485Y-71405909D01*
X114157483Y-71405908D01*
X114097883Y-71399501D01*
X114097881Y-71399500D01*
X114097873Y-71399500D01*
X114097864Y-71399500D01*
X112502129Y-71399500D01*
X112502123Y-71399501D01*
X112442516Y-71405908D01*
X112307671Y-71456202D01*
X112307664Y-71456206D01*
X112192455Y-71542452D01*
X112123953Y-71633958D01*
X112068019Y-71675828D01*
X111998327Y-71680812D01*
X111937004Y-71647326D01*
X111925420Y-71633957D01*
X111857186Y-71542808D01*
X111742093Y-71456649D01*
X111742086Y-71456645D01*
X111607379Y-71406403D01*
X111607372Y-71406401D01*
X111547844Y-71400000D01*
X111000000Y-71400000D01*
X111000000Y-73300000D01*
X111547828Y-73300000D01*
X111547844Y-73299999D01*
X111607372Y-73293598D01*
X111607379Y-73293596D01*
X111742086Y-73243354D01*
X111742093Y-73243350D01*
X111857187Y-73157190D01*
X111857188Y-73157189D01*
X111925420Y-73066043D01*
X111981353Y-73024171D01*
X112051045Y-73019187D01*
X112112368Y-73052672D01*
X112123953Y-73066041D01*
X112192454Y-73157546D01*
X112209461Y-73170278D01*
X112251331Y-73226212D01*
X112256314Y-73295904D01*
X112222829Y-73357224D01*
X110916871Y-74663181D01*
X110855548Y-74696666D01*
X110829190Y-74699500D01*
X109952129Y-74699500D01*
X109952123Y-74699501D01*
X109892516Y-74705908D01*
X109757671Y-74756202D01*
X109757664Y-74756206D01*
X109642455Y-74842452D01*
X109642452Y-74842455D01*
X109556206Y-74957664D01*
X109556202Y-74957671D01*
X109505910Y-75092513D01*
X109505909Y-75092517D01*
X109499500Y-75152127D01*
X109499500Y-75474548D01*
X109499501Y-75675500D01*
X109479817Y-75742539D01*
X109427013Y-75788294D01*
X109375501Y-75799500D01*
X107224500Y-75799500D01*
X107157461Y-75779815D01*
X107111706Y-75727011D01*
X107100500Y-75675500D01*
X107100499Y-75152129D01*
X107100498Y-75152123D01*
X107100497Y-75152116D01*
X107094091Y-75092517D01*
X107087011Y-75073535D01*
X107043797Y-74957671D01*
X107043793Y-74957664D01*
X106957547Y-74842455D01*
X106957544Y-74842452D01*
X106842335Y-74756206D01*
X106842328Y-74756202D01*
X106707482Y-74705908D01*
X106707483Y-74705908D01*
X106647883Y-74699501D01*
X106647881Y-74699500D01*
X106647873Y-74699500D01*
X106647864Y-74699500D01*
X105052129Y-74699500D01*
X105052123Y-74699501D01*
X104992516Y-74705908D01*
X104857671Y-74756202D01*
X104857664Y-74756206D01*
X104742456Y-74842452D01*
X104742455Y-74842453D01*
X104742454Y-74842454D01*
X104707925Y-74888579D01*
X104662087Y-74949811D01*
X104606153Y-74991682D01*
X104562820Y-74999500D01*
X104158429Y-74999500D01*
X104032761Y-75024497D01*
X104032755Y-75024499D01*
X103921111Y-75070744D01*
X103921108Y-75070745D01*
X103914377Y-75073532D01*
X103914374Y-75073534D01*
X103807826Y-75144726D01*
X101967227Y-76985325D01*
X101967221Y-76985332D01*
X101924992Y-77048533D01*
X101924993Y-77048534D01*
X101896034Y-77091874D01*
X101846999Y-77210255D01*
X101846997Y-77210261D01*
X101822000Y-77335928D01*
X101822000Y-78806691D01*
X101802315Y-78873730D01*
X101785681Y-78894372D01*
X101519727Y-79160325D01*
X101519726Y-79160326D01*
X101448534Y-79266874D01*
X101399499Y-79385255D01*
X101399497Y-79385261D01*
X101374500Y-79510928D01*
X101374500Y-89489071D01*
X101391576Y-89574914D01*
X101391576Y-89574915D01*
X101399497Y-89614737D01*
X101399498Y-89614742D01*
X101420431Y-89665277D01*
X101448535Y-89733127D01*
X101518497Y-89837834D01*
X101519726Y-89839673D01*
X101519727Y-89839674D01*
X104994724Y-93314669D01*
X105057421Y-93377366D01*
X105085332Y-93405277D01*
X105191866Y-93476461D01*
X105191872Y-93476464D01*
X105191873Y-93476465D01*
X105310256Y-93525501D01*
X105310260Y-93525501D01*
X105310261Y-93525502D01*
X105435924Y-93550499D01*
X105435927Y-93550499D01*
X105435931Y-93550500D01*
X105435934Y-93550500D01*
X105437641Y-93550668D01*
X105438484Y-93551008D01*
X105441906Y-93551689D01*
X105441776Y-93552337D01*
X105502431Y-93576822D01*
X105542796Y-93633852D01*
X105549500Y-93674072D01*
X105549500Y-95137870D01*
X105549501Y-95137876D01*
X105555908Y-95197483D01*
X105606202Y-95332328D01*
X105606204Y-95332331D01*
X105633600Y-95368927D01*
X105658018Y-95434391D01*
X105643167Y-95502665D01*
X105593762Y-95552070D01*
X105525489Y-95566923D01*
X105473175Y-95551107D01*
X104877920Y-95213612D01*
X104760246Y-95146893D01*
X104755275Y-95143919D01*
X104046360Y-94696820D01*
X104041524Y-94693609D01*
X103354379Y-94213797D01*
X103349692Y-94210358D01*
X103182855Y-94081821D01*
X102685784Y-93698859D01*
X102681267Y-93695208D01*
X102656343Y-93674072D01*
X102042053Y-93153143D01*
X102037736Y-93149306D01*
X101424616Y-92577860D01*
X101420463Y-92573803D01*
X100834834Y-91974280D01*
X100830886Y-91970045D01*
X100273952Y-91343677D01*
X100270218Y-91339272D01*
X100187138Y-91236513D01*
X99862845Y-90835403D01*
X99743301Y-90687542D01*
X99739753Y-90682937D01*
X99588872Y-90477302D01*
X99243950Y-90007209D01*
X99240643Y-90002474D01*
X98777045Y-89304228D01*
X98773952Y-89299324D01*
X98729778Y-89225502D01*
X98343601Y-88580133D01*
X98340738Y-88575081D01*
X98292294Y-88484767D01*
X97944590Y-87836547D01*
X97941968Y-87831371D01*
X97939297Y-87825776D01*
X97580845Y-87075021D01*
X97578480Y-87069753D01*
X97253213Y-86297325D01*
X97251089Y-86291930D01*
X97236730Y-86252797D01*
X96962388Y-85505114D01*
X96960516Y-85499616D01*
X96939397Y-85432484D01*
X96709018Y-84700152D01*
X96707405Y-84694568D01*
X96678602Y-84585368D01*
X96493652Y-83884178D01*
X96492313Y-83878574D01*
X96316768Y-83059007D01*
X96315693Y-83053340D01*
X96178759Y-82226452D01*
X96177953Y-82220761D01*
X96079924Y-81388343D01*
X96079387Y-81382624D01*
X96020487Y-80546584D01*
X96020215Y-80540781D01*
X96000568Y-79702899D01*
X96000568Y-79697093D01*
X96001121Y-79673535D01*
X96020215Y-78859213D01*
X96020488Y-78853411D01*
X96023609Y-78809106D01*
X96079387Y-78017371D01*
X96079924Y-78011660D01*
X96177954Y-77179232D01*
X96178758Y-77173553D01*
X96261308Y-76675068D01*
X97883409Y-76675068D01*
X99630377Y-77416612D01*
X99687681Y-77433984D01*
X99831319Y-77440370D01*
X99831320Y-77440369D01*
X99970936Y-77406029D01*
X100095225Y-77333746D01*
X100095229Y-77333743D01*
X100194111Y-77229376D01*
X100223273Y-77177061D01*
X100408021Y-76741820D01*
X98244835Y-75823602D01*
X97883409Y-76675068D01*
X96261308Y-76675068D01*
X96315694Y-76346654D01*
X96316767Y-76340997D01*
X96350288Y-76184501D01*
X96383576Y-76123073D01*
X96444792Y-76089393D01*
X96514499Y-76094154D01*
X96519988Y-76096331D01*
X97423156Y-76479703D01*
X97784583Y-75628237D01*
X97897021Y-75363349D01*
X98440200Y-75363349D01*
X100603386Y-76281567D01*
X100788135Y-75846326D01*
X100788139Y-75846317D01*
X100805508Y-75789017D01*
X100805509Y-75789015D01*
X100811895Y-75645376D01*
X100777555Y-75505759D01*
X100705268Y-75381468D01*
X100600900Y-75282585D01*
X100548592Y-75253427D01*
X98801626Y-74511883D01*
X98440200Y-75363349D01*
X97897021Y-75363349D01*
X98341373Y-74316518D01*
X97122962Y-73799333D01*
X97068944Y-73755018D01*
X97047458Y-73688534D01*
X97055001Y-73642481D01*
X97251100Y-73108040D01*
X97253207Y-73102689D01*
X97578487Y-72330230D01*
X97580837Y-72324994D01*
X97941981Y-71568600D01*
X97944581Y-71563470D01*
X97992456Y-71474217D01*
X100091039Y-71474217D01*
X101838007Y-72215760D01*
X101895311Y-72233132D01*
X102038949Y-72239518D01*
X102038950Y-72239517D01*
X102178566Y-72205177D01*
X102302855Y-72132894D01*
X102302859Y-72132891D01*
X102401741Y-72028524D01*
X102430903Y-71976209D01*
X102615651Y-71540968D01*
X100452465Y-70622750D01*
X100091039Y-71474217D01*
X97992456Y-71474217D01*
X98328147Y-70848391D01*
X98377181Y-70798620D01*
X98445341Y-70783259D01*
X98485869Y-70792863D01*
X99630786Y-71278851D01*
X99992213Y-70427385D01*
X100104651Y-70162497D01*
X100647830Y-70162497D01*
X102811016Y-71080715D01*
X102995765Y-70645474D01*
X102995769Y-70645465D01*
X103013138Y-70588165D01*
X103013139Y-70588163D01*
X103019525Y-70444524D01*
X102985185Y-70304907D01*
X102912898Y-70180616D01*
X102808530Y-70081733D01*
X102756222Y-70052575D01*
X101009256Y-69311031D01*
X100647830Y-70162497D01*
X100104651Y-70162497D01*
X100549003Y-69115666D01*
X99857808Y-68822270D01*
X99803789Y-68777955D01*
X99782304Y-68711471D01*
X99800174Y-68643925D01*
X99809832Y-68630167D01*
X99818484Y-68619466D01*
X100270243Y-68060696D01*
X100273934Y-68056343D01*
X100830905Y-67429932D01*
X100834817Y-67425736D01*
X101420491Y-66826168D01*
X101424594Y-66822159D01*
X102037759Y-66250672D01*
X102042029Y-66246876D01*
X102681297Y-65704766D01*
X102685757Y-65701160D01*
X103349721Y-65189619D01*
X103354350Y-65186223D01*
X104041560Y-64706365D01*
X104046330Y-64703197D01*
X104755306Y-64256060D01*
X104760214Y-64253124D01*
X105489327Y-63839734D01*
X105494420Y-63837002D01*
X106242095Y-63458248D01*
X106247306Y-63455760D01*
X107011889Y-63112478D01*
X107017217Y-63110234D01*
X107797104Y-62803146D01*
X107802504Y-62801165D01*
X108595889Y-62530983D01*
X108601392Y-62529251D01*
X109406576Y-62296551D01*
X109412159Y-62295078D01*
X110227378Y-62100372D01*
X110233037Y-62099160D01*
X111056434Y-61942889D01*
X111062154Y-61941942D01*
X111892017Y-61824429D01*
X111897727Y-61823757D01*
X112732162Y-61745274D01*
X112737955Y-61744866D01*
X113535773Y-61707430D01*
X113603659Y-61723951D01*
G37*
%TD.AperFunction*%
%TA.AperFunction,Conductor*%
G36*
X108955703Y-88476096D02*
G01*
X108962181Y-88482128D01*
X110069117Y-89589065D01*
X110102602Y-89650388D01*
X110097618Y-89720080D01*
X110083011Y-89747869D01*
X109960965Y-89922169D01*
X109960964Y-89922171D01*
X109861098Y-90136335D01*
X109861094Y-90136344D01*
X109799938Y-90364586D01*
X109799936Y-90364596D01*
X109779341Y-90599999D01*
X109779341Y-90600000D01*
X109799936Y-90835403D01*
X109799938Y-90835413D01*
X109861094Y-91063655D01*
X109861096Y-91063659D01*
X109861097Y-91063663D01*
X109941620Y-91236344D01*
X109960965Y-91277830D01*
X109960967Y-91277834D01*
X110041603Y-91392993D01*
X110096505Y-91471401D01*
X110263599Y-91638495D01*
X110343004Y-91694095D01*
X110457165Y-91774032D01*
X110457167Y-91774033D01*
X110457170Y-91774035D01*
X110671337Y-91873903D01*
X110899592Y-91935063D01*
X111076034Y-91950500D01*
X111134999Y-91955659D01*
X111135000Y-91955659D01*
X111135001Y-91955659D01*
X111193966Y-91950500D01*
X111370408Y-91935063D01*
X111598663Y-91873903D01*
X111812830Y-91774035D01*
X112006401Y-91638495D01*
X112128329Y-91516566D01*
X112189648Y-91483084D01*
X112259340Y-91488068D01*
X112315274Y-91529939D01*
X112332189Y-91560917D01*
X112381202Y-91692328D01*
X112381206Y-91692335D01*
X112467452Y-91807544D01*
X112467455Y-91807547D01*
X112582664Y-91893793D01*
X112582671Y-91893797D01*
X112717517Y-91944091D01*
X112717516Y-91944091D01*
X112724444Y-91944835D01*
X112777127Y-91950500D01*
X114572872Y-91950499D01*
X114632483Y-91944091D01*
X114767331Y-91893796D01*
X114882546Y-91807546D01*
X114968796Y-91692331D01*
X115019091Y-91557483D01*
X115025500Y-91497873D01*
X115025499Y-89934499D01*
X115045184Y-89867461D01*
X115097987Y-89821706D01*
X115149499Y-89810500D01*
X120942278Y-89810500D01*
X121009317Y-89830185D01*
X121043853Y-89863377D01*
X121161501Y-90031396D01*
X121161506Y-90031402D01*
X121328597Y-90198493D01*
X121328603Y-90198498D01*
X121514594Y-90328730D01*
X121558219Y-90383307D01*
X121565413Y-90452805D01*
X121533890Y-90515160D01*
X121514595Y-90531880D01*
X121328922Y-90661890D01*
X121328920Y-90661891D01*
X121161891Y-90828920D01*
X121161886Y-90828926D01*
X121026400Y-91022420D01*
X121026399Y-91022422D01*
X120926570Y-91236507D01*
X120926567Y-91236513D01*
X120869364Y-91449999D01*
X120869364Y-91450000D01*
X121766988Y-91450000D01*
X121734075Y-91507007D01*
X121700000Y-91634174D01*
X121700000Y-91765826D01*
X121734075Y-91892993D01*
X121766988Y-91950000D01*
X120869364Y-91950000D01*
X120926567Y-92163486D01*
X120926570Y-92163492D01*
X121026399Y-92377578D01*
X121161894Y-92571082D01*
X121283946Y-92693134D01*
X121317431Y-92754457D01*
X121312447Y-92824149D01*
X121270575Y-92880082D01*
X121239598Y-92896997D01*
X121107671Y-92946202D01*
X121107664Y-92946206D01*
X120992455Y-93032452D01*
X120992452Y-93032455D01*
X120906206Y-93147664D01*
X120906202Y-93147671D01*
X120855908Y-93282517D01*
X120851162Y-93326667D01*
X120849501Y-93342123D01*
X120849500Y-93342135D01*
X120849500Y-93465500D01*
X120829815Y-93532539D01*
X120777011Y-93578294D01*
X120725500Y-93589500D01*
X113319954Y-93589500D01*
X113194286Y-93614497D01*
X113194280Y-93614499D01*
X113075899Y-93663534D01*
X112969351Y-93734726D01*
X112969350Y-93734727D01*
X111518967Y-95185111D01*
X111457644Y-95218596D01*
X111387952Y-95213612D01*
X111332019Y-95171740D01*
X111307602Y-95106276D01*
X111307286Y-95097430D01*
X111307286Y-93452334D01*
X111282288Y-93326667D01*
X111282287Y-93326666D01*
X111282287Y-93326662D01*
X111233251Y-93208279D01*
X111233249Y-93208276D01*
X111233150Y-93208127D01*
X111162063Y-93101737D01*
X111162057Y-93101730D01*
X111005053Y-92944726D01*
X111005049Y-92944723D01*
X110898507Y-92873535D01*
X110780124Y-92824499D01*
X110780122Y-92824498D01*
X110780121Y-92824498D01*
X110775283Y-92823536D01*
X110775278Y-92823535D01*
X110690712Y-92806713D01*
X110628801Y-92774328D01*
X110594227Y-92713612D01*
X110593287Y-92709288D01*
X110575502Y-92619881D01*
X110575501Y-92619880D01*
X110575501Y-92619876D01*
X110526465Y-92501493D01*
X110526463Y-92501490D01*
X110510192Y-92477138D01*
X110510191Y-92477138D01*
X110455277Y-92394951D01*
X110455275Y-92394949D01*
X110455273Y-92394946D01*
X108786819Y-90726492D01*
X108753334Y-90665169D01*
X108750500Y-90638811D01*
X108750500Y-88569809D01*
X108770185Y-88502770D01*
X108822989Y-88457015D01*
X108892147Y-88447071D01*
X108955703Y-88476096D01*
G37*
%TD.AperFunction*%
%TA.AperFunction,Conductor*%
G36*
X128949791Y-69703239D02*
G01*
X128986055Y-69738966D01*
X129202950Y-70065641D01*
X129222946Y-70095758D01*
X129226047Y-70100675D01*
X129656394Y-70819860D01*
X129659261Y-70824918D01*
X130055403Y-71563442D01*
X130058031Y-71568628D01*
X130419146Y-72324960D01*
X130421527Y-72330264D01*
X130746780Y-73102660D01*
X130748910Y-73108069D01*
X131037609Y-73894879D01*
X131039483Y-73900383D01*
X131290980Y-74699846D01*
X131292594Y-74705431D01*
X131506341Y-75515796D01*
X131507692Y-75521450D01*
X131683226Y-76340970D01*
X131684310Y-76346682D01*
X131821235Y-77173514D01*
X131822050Y-77179270D01*
X131920071Y-78011622D01*
X131920615Y-78017411D01*
X131979511Y-78853411D01*
X131979784Y-78859218D01*
X131999431Y-79697093D01*
X131999431Y-79702907D01*
X131979784Y-80540781D01*
X131979511Y-80546588D01*
X131920615Y-81382588D01*
X131920071Y-81388377D01*
X131822050Y-82220729D01*
X131821235Y-82226485D01*
X131684310Y-83053317D01*
X131683226Y-83059029D01*
X131507692Y-83878549D01*
X131506341Y-83884203D01*
X131292594Y-84694568D01*
X131290980Y-84700153D01*
X131039483Y-85499616D01*
X131037609Y-85505120D01*
X130748910Y-86291930D01*
X130746780Y-86297339D01*
X130421527Y-87069735D01*
X130419146Y-87075039D01*
X130058031Y-87831371D01*
X130055403Y-87836557D01*
X129659261Y-88575081D01*
X129656394Y-88580139D01*
X129226047Y-89299324D01*
X129222946Y-89304241D01*
X128759367Y-90002458D01*
X128756038Y-90007225D01*
X128260246Y-90682937D01*
X128256698Y-90687542D01*
X127729781Y-91339272D01*
X127726025Y-91343701D01*
X127532889Y-91560917D01*
X127169129Y-91970028D01*
X127165165Y-91974280D01*
X126579536Y-92573803D01*
X126575377Y-92577866D01*
X125962277Y-93149293D01*
X125957932Y-93153156D01*
X125318732Y-93695208D01*
X125314211Y-93698863D01*
X124650307Y-94210358D01*
X124645620Y-94213797D01*
X123958475Y-94693609D01*
X123953632Y-94696825D01*
X123740647Y-94831150D01*
X123673442Y-94850262D01*
X123606573Y-94830007D01*
X123561270Y-94776815D01*
X123550499Y-94726267D01*
X123550499Y-93342129D01*
X123550498Y-93342123D01*
X123550497Y-93342116D01*
X123544091Y-93282517D01*
X123535313Y-93258983D01*
X123493797Y-93147671D01*
X123493793Y-93147664D01*
X123407547Y-93032455D01*
X123407544Y-93032452D01*
X123292335Y-92946206D01*
X123292328Y-92946202D01*
X123160401Y-92896997D01*
X123104467Y-92855126D01*
X123080050Y-92789662D01*
X123094902Y-92721389D01*
X123116053Y-92693133D01*
X123238108Y-92571078D01*
X123373600Y-92377578D01*
X123473429Y-92163492D01*
X123473432Y-92163486D01*
X123530636Y-91950000D01*
X122633012Y-91950000D01*
X122665925Y-91892993D01*
X122700000Y-91765826D01*
X122700000Y-91634174D01*
X122665925Y-91507007D01*
X122633012Y-91450000D01*
X123530636Y-91450000D01*
X123530635Y-91449999D01*
X123473432Y-91236513D01*
X123473429Y-91236507D01*
X123373600Y-91022422D01*
X123373599Y-91022420D01*
X123238113Y-90828926D01*
X123238108Y-90828920D01*
X123071078Y-90661890D01*
X122885405Y-90531879D01*
X122841780Y-90477302D01*
X122834588Y-90407804D01*
X122866110Y-90345449D01*
X122885406Y-90328730D01*
X122921047Y-90303774D01*
X123071401Y-90198495D01*
X123238495Y-90031401D01*
X123374035Y-89837830D01*
X123473903Y-89623663D01*
X123535063Y-89395408D01*
X123537838Y-89363691D01*
X123563291Y-89298623D01*
X123619882Y-89257645D01*
X123661366Y-89250500D01*
X126492499Y-89250500D01*
X126577043Y-89233682D01*
X126618172Y-89225501D01*
X126736555Y-89176465D01*
X126761197Y-89160000D01*
X126761199Y-89159999D01*
X126788497Y-89141759D01*
X126843097Y-89105277D01*
X129705277Y-86243097D01*
X129776465Y-86136555D01*
X129788240Y-86108127D01*
X129825501Y-86018172D01*
X129847913Y-85905502D01*
X129850500Y-85892499D01*
X129850500Y-83920808D01*
X129870185Y-83853769D01*
X129886819Y-83833127D01*
X130705272Y-83014674D01*
X130705277Y-83014669D01*
X130776466Y-82908126D01*
X130810016Y-82827127D01*
X130825501Y-82789744D01*
X130844402Y-82694726D01*
X130850500Y-82664071D01*
X130850500Y-81535928D01*
X130825502Y-81410261D01*
X130825501Y-81410260D01*
X130825501Y-81410256D01*
X130781735Y-81304596D01*
X130776464Y-81291870D01*
X130705277Y-81185331D01*
X130705271Y-81185324D01*
X129264673Y-79744726D01*
X129264669Y-79744723D01*
X129158127Y-79673535D01*
X129039744Y-79624499D01*
X129039742Y-79624498D01*
X129039741Y-79624498D01*
X129034903Y-79623536D01*
X129034898Y-79623535D01*
X128914071Y-79599500D01*
X128914069Y-79599500D01*
X128636231Y-79599500D01*
X128569192Y-79579815D01*
X128523437Y-79527011D01*
X128513493Y-79457853D01*
X128542518Y-79394297D01*
X128548550Y-79387819D01*
X129382947Y-78553420D01*
X129382950Y-78553417D01*
X129382949Y-78553417D01*
X129382952Y-78553415D01*
X129444890Y-78460717D01*
X129465084Y-78430495D01*
X129494491Y-78359500D01*
X129498457Y-78349927D01*
X129502448Y-78340290D01*
X129521659Y-78293912D01*
X129550500Y-78148917D01*
X129550500Y-78001082D01*
X129550500Y-74888582D01*
X129550500Y-74888579D01*
X129535957Y-74815471D01*
X129535957Y-74815470D01*
X129521659Y-74743588D01*
X129468430Y-74615084D01*
X129465084Y-74607005D01*
X129465084Y-74607004D01*
X129408246Y-74521940D01*
X129408246Y-74521939D01*
X129382950Y-74484081D01*
X127924319Y-73025450D01*
X127890834Y-72964127D01*
X127888000Y-72937769D01*
X127888000Y-72596813D01*
X127887999Y-72596798D01*
X127885437Y-72564245D01*
X127885098Y-72559931D01*
X127873676Y-72520618D01*
X127842895Y-72414669D01*
X127839244Y-72402102D01*
X127804767Y-72343804D01*
X127787500Y-72280684D01*
X127787500Y-71625000D01*
X128287500Y-71625000D01*
X128287500Y-72609795D01*
X128287501Y-72609795D01*
X128289986Y-72609600D01*
X128447698Y-72563781D01*
X128589052Y-72480185D01*
X128589061Y-72480178D01*
X128705178Y-72364061D01*
X128705185Y-72364052D01*
X128788782Y-72222696D01*
X128788783Y-72222693D01*
X128834599Y-72064995D01*
X128834600Y-72064989D01*
X128837499Y-72028149D01*
X128837500Y-72028134D01*
X128837500Y-71625000D01*
X128287500Y-71625000D01*
X127787500Y-71625000D01*
X127237500Y-71625000D01*
X127237500Y-71888000D01*
X127217815Y-71955039D01*
X127165011Y-72000794D01*
X127113500Y-72012000D01*
X127062000Y-72012000D01*
X126994961Y-71992315D01*
X126949206Y-71939511D01*
X126938000Y-71888000D01*
X126938000Y-70721813D01*
X126937999Y-70721798D01*
X126937194Y-70711571D01*
X126935098Y-70684931D01*
X126934784Y-70683850D01*
X126887068Y-70519610D01*
X126888768Y-70519115D01*
X126881395Y-70459411D01*
X126911680Y-70396446D01*
X126971199Y-70359850D01*
X127003757Y-70355500D01*
X127050000Y-70355500D01*
X127121940Y-70350355D01*
X127133083Y-70347083D01*
X127145614Y-70343404D01*
X127215483Y-70343402D01*
X127274262Y-70381175D01*
X127303289Y-70444731D01*
X127293346Y-70513889D01*
X127287285Y-70525498D01*
X127286217Y-70527303D01*
X127286216Y-70527306D01*
X127240400Y-70685004D01*
X127240399Y-70685010D01*
X127237500Y-70721850D01*
X127237500Y-71125000D01*
X128837500Y-71125000D01*
X128837500Y-70721865D01*
X128837499Y-70721850D01*
X128834600Y-70685010D01*
X128834599Y-70685004D01*
X128788783Y-70527306D01*
X128788782Y-70527303D01*
X128705185Y-70385947D01*
X128705178Y-70385938D01*
X128589061Y-70269821D01*
X128589055Y-70269816D01*
X128579703Y-70264286D01*
X128532019Y-70213217D01*
X128519515Y-70144475D01*
X128546160Y-70079886D01*
X128561619Y-70063841D01*
X128562832Y-70062791D01*
X128656986Y-69954130D01*
X128734770Y-69833094D01*
X128769958Y-69756041D01*
X128815712Y-69703240D01*
X128882751Y-69683555D01*
X128949791Y-69703239D01*
G37*
%TD.AperFunction*%
%TA.AperFunction,Conductor*%
G36*
X117818334Y-87920548D02*
G01*
X117862681Y-87949049D01*
X117956344Y-88042712D01*
X118105666Y-88134814D01*
X118272203Y-88189999D01*
X118374991Y-88200500D01*
X119004190Y-88200499D01*
X119071229Y-88220183D01*
X119091871Y-88236818D01*
X119152872Y-88297819D01*
X119186357Y-88359142D01*
X119181373Y-88428834D01*
X119139501Y-88484767D01*
X119074037Y-88509184D01*
X119065191Y-88509500D01*
X112925982Y-88509500D01*
X112858943Y-88489815D01*
X112813188Y-88437011D01*
X112803244Y-88367853D01*
X112808276Y-88346496D01*
X112814505Y-88327697D01*
X112814506Y-88327689D01*
X112821228Y-88261898D01*
X112847624Y-88197206D01*
X112904805Y-88157055D01*
X112944586Y-88150500D01*
X113045796Y-88150500D01*
X116132993Y-88150500D01*
X116171997Y-88156794D01*
X116272203Y-88189999D01*
X116374991Y-88200500D01*
X117175008Y-88200499D01*
X117175016Y-88200498D01*
X117175019Y-88200498D01*
X117231302Y-88194748D01*
X117277797Y-88189999D01*
X117444334Y-88134814D01*
X117593656Y-88042712D01*
X117687319Y-87949049D01*
X117748642Y-87915564D01*
X117818334Y-87920548D01*
G37*
%TD.AperFunction*%
%TA.AperFunction,Conductor*%
G36*
X110260283Y-85992306D02*
G01*
X110305053Y-86045948D01*
X110305886Y-86047911D01*
X110334914Y-86117992D01*
X110334915Y-86117994D01*
X110334916Y-86117995D01*
X110360660Y-86156524D01*
X110380916Y-86212812D01*
X110385001Y-86252797D01*
X110440186Y-86419334D01*
X110532288Y-86568656D01*
X110656344Y-86692712D01*
X110659628Y-86694737D01*
X110659653Y-86694753D01*
X110661445Y-86696746D01*
X110662011Y-86697193D01*
X110661934Y-86697289D01*
X110706379Y-86746699D01*
X110717603Y-86815661D01*
X110689761Y-86879744D01*
X110659665Y-86905826D01*
X110656660Y-86907679D01*
X110656655Y-86907683D01*
X110532684Y-87031654D01*
X110440643Y-87180875D01*
X110440641Y-87180880D01*
X110385494Y-87347302D01*
X110385493Y-87347309D01*
X110375000Y-87450013D01*
X110375000Y-87587500D01*
X111726000Y-87587500D01*
X111793039Y-87607185D01*
X111838794Y-87659989D01*
X111850000Y-87711500D01*
X111850000Y-87963500D01*
X111830315Y-88030539D01*
X111777511Y-88076294D01*
X111726000Y-88087500D01*
X110458807Y-88087500D01*
X110391768Y-88067815D01*
X110371126Y-88051181D01*
X108786819Y-86466874D01*
X108753334Y-86405551D01*
X108750500Y-86379193D01*
X108750500Y-86135964D01*
X108770185Y-86068925D01*
X108822989Y-86023170D01*
X108892147Y-86013226D01*
X108939595Y-86030425D01*
X108948484Y-86035908D01*
X109112247Y-86090174D01*
X109213323Y-86100500D01*
X109786676Y-86100499D01*
X109786684Y-86100498D01*
X109786687Y-86100498D01*
X109842030Y-86094844D01*
X109887753Y-86090174D01*
X110051516Y-86035908D01*
X110126228Y-85989824D01*
X110193620Y-85971384D01*
X110260283Y-85992306D01*
G37*
%TD.AperFunction*%
%TA.AperFunction,Conductor*%
G36*
X126417178Y-85845184D02*
G01*
X126462933Y-85897988D01*
X126472877Y-85967146D01*
X126450000Y-86017239D01*
X126450000Y-86525000D01*
X127284119Y-86525000D01*
X127351158Y-86544685D01*
X127396913Y-86597489D01*
X127406857Y-86666647D01*
X127377832Y-86730203D01*
X127371800Y-86736681D01*
X126195301Y-87913181D01*
X126133978Y-87946666D01*
X126107620Y-87949500D01*
X123786865Y-87949500D01*
X123719826Y-87929815D01*
X123674071Y-87877011D01*
X123664127Y-87807853D01*
X123693152Y-87744297D01*
X123699184Y-87737819D01*
X123986990Y-87450013D01*
X124876382Y-86560620D01*
X124937701Y-86527138D01*
X124973843Y-86525202D01*
X124973851Y-86525064D01*
X124973851Y-86525000D01*
X124973854Y-86525000D01*
X124973864Y-86524822D01*
X124977181Y-86525000D01*
X126100000Y-86525000D01*
X126100000Y-85949499D01*
X126119685Y-85882460D01*
X126172489Y-85836705D01*
X126224000Y-85825499D01*
X126350139Y-85825499D01*
X126417178Y-85845184D01*
G37*
%TD.AperFunction*%
%TA.AperFunction,Conductor*%
G36*
X118602574Y-80574155D02*
G01*
X118644865Y-80601868D01*
X121125034Y-83082037D01*
X121158519Y-83143360D01*
X121153535Y-83213052D01*
X121138928Y-83240841D01*
X121025965Y-83402169D01*
X121025964Y-83402171D01*
X120926098Y-83616335D01*
X120926094Y-83616344D01*
X120864938Y-83844586D01*
X120864936Y-83844596D01*
X120847143Y-84047962D01*
X120821690Y-84113031D01*
X120765099Y-84154009D01*
X120695337Y-84157887D01*
X120657643Y-84142148D01*
X120549523Y-84074211D01*
X120379254Y-84014631D01*
X120379249Y-84014630D01*
X120200004Y-83994435D01*
X120199996Y-83994435D01*
X120020750Y-84014630D01*
X120020745Y-84014631D01*
X119850476Y-84074211D01*
X119697737Y-84170184D01*
X119570184Y-84297737D01*
X119474211Y-84450476D01*
X119414631Y-84620745D01*
X119414630Y-84620750D01*
X119394435Y-84799996D01*
X119394435Y-84800003D01*
X119414630Y-84979249D01*
X119414631Y-84979254D01*
X119474211Y-85149524D01*
X119530493Y-85239094D01*
X119549500Y-85305067D01*
X119549500Y-85728314D01*
X119529815Y-85795353D01*
X119477011Y-85841108D01*
X119407853Y-85851052D01*
X119386497Y-85846020D01*
X119277799Y-85810001D01*
X119277795Y-85810000D01*
X119175010Y-85799500D01*
X118374998Y-85799500D01*
X118374980Y-85799501D01*
X118272203Y-85810000D01*
X118272200Y-85810001D01*
X118105668Y-85865185D01*
X118105663Y-85865187D01*
X117956342Y-85957289D01*
X117862681Y-86050951D01*
X117801358Y-86084436D01*
X117731666Y-86079452D01*
X117687319Y-86050951D01*
X117593657Y-85957289D01*
X117593656Y-85957288D01*
X117488616Y-85892499D01*
X117444336Y-85865187D01*
X117444331Y-85865185D01*
X117418016Y-85856465D01*
X117277797Y-85810001D01*
X117277795Y-85810000D01*
X117175010Y-85799500D01*
X116374998Y-85799500D01*
X116374980Y-85799501D01*
X116272203Y-85810000D01*
X116272200Y-85810001D01*
X116105668Y-85865185D01*
X116105663Y-85865187D01*
X115956342Y-85957289D01*
X115832289Y-86081342D01*
X115740187Y-86230663D01*
X115740185Y-86230668D01*
X115719885Y-86291930D01*
X115685001Y-86397203D01*
X115685001Y-86397204D01*
X115685000Y-86397204D01*
X115674500Y-86499983D01*
X115674500Y-86525500D01*
X115654815Y-86592539D01*
X115602011Y-86638294D01*
X115550500Y-86649500D01*
X115058511Y-86649500D01*
X114991472Y-86629815D01*
X114945717Y-86577011D01*
X114935773Y-86507853D01*
X114964798Y-86444297D01*
X114993412Y-86419962D01*
X115118656Y-86342712D01*
X115242712Y-86218656D01*
X115334814Y-86069334D01*
X115389999Y-85902797D01*
X115400500Y-85800009D01*
X115400499Y-85567684D01*
X115420183Y-85500645D01*
X115436813Y-85480008D01*
X116344113Y-84572709D01*
X116344114Y-84572708D01*
X116420775Y-84457977D01*
X116469749Y-84339744D01*
X116473580Y-84330495D01*
X116480695Y-84294724D01*
X116500500Y-84195159D01*
X116500500Y-82604841D01*
X116500500Y-82604838D01*
X116473581Y-82469511D01*
X116473580Y-82469510D01*
X116473580Y-82469506D01*
X116467429Y-82454657D01*
X116420776Y-82342025D01*
X116420775Y-82342023D01*
X116387266Y-82291873D01*
X116373569Y-82271374D01*
X116370896Y-82267373D01*
X116350020Y-82200695D01*
X116350000Y-82198484D01*
X116350000Y-81850000D01*
X116850000Y-81850000D01*
X116850000Y-82400000D01*
X117390634Y-82400000D01*
X117390649Y-82399999D01*
X117427489Y-82397100D01*
X117427495Y-82397099D01*
X117585193Y-82351283D01*
X117585196Y-82351282D01*
X117726552Y-82267685D01*
X117726561Y-82267678D01*
X117842678Y-82151561D01*
X117842685Y-82151552D01*
X117926281Y-82010198D01*
X117972100Y-81852486D01*
X117972295Y-81850001D01*
X117972295Y-81850000D01*
X116850000Y-81850000D01*
X116350000Y-81850000D01*
X116350000Y-81474000D01*
X116369685Y-81406961D01*
X116422489Y-81361206D01*
X116474000Y-81350000D01*
X117972295Y-81350000D01*
X117972295Y-81349998D01*
X117972100Y-81347513D01*
X117926281Y-81189801D01*
X117842685Y-81048447D01*
X117837900Y-81042278D01*
X117840366Y-81040364D01*
X117813802Y-80991776D01*
X117818749Y-80922082D01*
X117839856Y-80889232D01*
X117838301Y-80888026D01*
X117843077Y-80881868D01*
X117843081Y-80881865D01*
X117926744Y-80740398D01*
X117948677Y-80664904D01*
X117986283Y-80606020D01*
X118049755Y-80576813D01*
X118067753Y-80575500D01*
X118456613Y-80575500D01*
X118456616Y-80575500D01*
X118527196Y-80569086D01*
X118527203Y-80569083D01*
X118532982Y-80567934D01*
X118602574Y-80574155D01*
G37*
%TD.AperFunction*%
%TA.AperFunction,Conductor*%
G36*
X128493599Y-84520869D02*
G01*
X128538814Y-84574137D01*
X128549500Y-84624496D01*
X128549500Y-85507619D01*
X128529815Y-85574658D01*
X128513181Y-85595300D01*
X128119800Y-85988681D01*
X128058477Y-86022166D01*
X128032119Y-86025000D01*
X127767708Y-86025000D01*
X127700669Y-86005315D01*
X127654914Y-85952511D01*
X127644970Y-85883353D01*
X127673995Y-85819797D01*
X127724375Y-85784818D01*
X127767328Y-85768797D01*
X127767327Y-85768797D01*
X127767331Y-85768796D01*
X127859586Y-85699733D01*
X127925050Y-85675316D01*
X127933897Y-85675000D01*
X128025000Y-85675000D01*
X128025000Y-85627172D01*
X128024999Y-85627155D01*
X128018598Y-85567627D01*
X128018597Y-85567623D01*
X128009804Y-85544047D01*
X128004820Y-85474355D01*
X128009802Y-85457387D01*
X128019091Y-85432483D01*
X128025500Y-85372873D01*
X128025499Y-84927128D01*
X128019091Y-84867517D01*
X128010070Y-84843333D01*
X128005085Y-84773644D01*
X128010066Y-84756677D01*
X128019091Y-84732483D01*
X128022512Y-84700666D01*
X128049250Y-84636115D01*
X128106642Y-84596267D01*
X128131910Y-84590702D01*
X128179255Y-84585368D01*
X128349522Y-84525789D01*
X128353494Y-84523292D01*
X128359527Y-84519503D01*
X128426764Y-84500502D01*
X128493599Y-84520869D01*
G37*
%TD.AperFunction*%
%TA.AperFunction,Conductor*%
G36*
X128596231Y-80920185D02*
G01*
X128616873Y-80936819D01*
X128935975Y-81255921D01*
X128969460Y-81317244D01*
X128964476Y-81386936D01*
X128922604Y-81442869D01*
X128889250Y-81460643D01*
X128850479Y-81474209D01*
X128697737Y-81570184D01*
X128570184Y-81697737D01*
X128474210Y-81850478D01*
X128414632Y-82020744D01*
X128414630Y-82020752D01*
X128413815Y-82027988D01*
X128386743Y-82092400D01*
X128378277Y-82101775D01*
X128250551Y-82229503D01*
X128237181Y-82242873D01*
X128175858Y-82276358D01*
X128106166Y-82271374D01*
X128050232Y-82229503D01*
X128025815Y-82164038D01*
X128025499Y-82155192D01*
X128025499Y-82127129D01*
X128025498Y-82127123D01*
X128023999Y-82113181D01*
X128019091Y-82067517D01*
X128009804Y-82042619D01*
X128004820Y-81972928D01*
X128009804Y-81955951D01*
X128018598Y-81932371D01*
X128024999Y-81872844D01*
X128025000Y-81872827D01*
X128025000Y-81825000D01*
X127933897Y-81825000D01*
X127866858Y-81805315D01*
X127859596Y-81800273D01*
X127767331Y-81731204D01*
X127767328Y-81731202D01*
X127724375Y-81715182D01*
X127668441Y-81673311D01*
X127644024Y-81607847D01*
X127658876Y-81539574D01*
X127708281Y-81490168D01*
X127767708Y-81475000D01*
X128025000Y-81475000D01*
X128025000Y-81427172D01*
X128024999Y-81427155D01*
X128018598Y-81367627D01*
X128018597Y-81367624D01*
X128009538Y-81343335D01*
X128004552Y-81273644D01*
X128009538Y-81256665D01*
X128018597Y-81232375D01*
X128018598Y-81232372D01*
X128024999Y-81172844D01*
X128025000Y-81172827D01*
X128025000Y-81125000D01*
X128012181Y-81112181D01*
X127978696Y-81050858D01*
X127983680Y-80981166D01*
X128025552Y-80925233D01*
X128091016Y-80900816D01*
X128099862Y-80900500D01*
X128529192Y-80900500D01*
X128596231Y-80920185D01*
G37*
%TD.AperFunction*%
%TA.AperFunction,Conductor*%
G36*
X124467539Y-80220185D02*
G01*
X124513294Y-80272989D01*
X124524500Y-80324499D01*
X124524500Y-80472869D01*
X124524501Y-80472876D01*
X124530908Y-80532481D01*
X124540196Y-80557383D01*
X124545179Y-80627074D01*
X124540196Y-80644044D01*
X124531402Y-80667623D01*
X124531401Y-80667624D01*
X124525000Y-80727155D01*
X124525000Y-80775000D01*
X124616103Y-80775000D01*
X124683142Y-80794685D01*
X124690403Y-80799726D01*
X124775655Y-80863545D01*
X124782668Y-80868795D01*
X124782671Y-80868797D01*
X124825625Y-80884818D01*
X124881559Y-80926689D01*
X124905976Y-80992153D01*
X124891124Y-81060426D01*
X124841719Y-81109832D01*
X124782292Y-81125000D01*
X124525000Y-81125000D01*
X124525000Y-81172844D01*
X124531401Y-81232372D01*
X124531403Y-81232379D01*
X124540462Y-81256669D01*
X124545445Y-81326361D01*
X124540462Y-81343331D01*
X124531403Y-81367620D01*
X124531401Y-81367627D01*
X124525000Y-81427155D01*
X124525000Y-81475000D01*
X124782292Y-81475000D01*
X124849331Y-81494685D01*
X124895086Y-81547489D01*
X124905030Y-81616647D01*
X124876005Y-81680203D01*
X124825625Y-81715182D01*
X124782671Y-81731202D01*
X124782669Y-81731203D01*
X124690413Y-81800267D01*
X124624949Y-81824684D01*
X124616102Y-81825000D01*
X124525000Y-81825000D01*
X124525000Y-81872833D01*
X124526640Y-81888087D01*
X124514233Y-81956846D01*
X124491032Y-81989021D01*
X124459310Y-82020744D01*
X124366871Y-82113182D01*
X124305551Y-82146666D01*
X124279192Y-82149500D01*
X123596426Y-82149500D01*
X123529387Y-82129815D01*
X123483632Y-82077011D01*
X123473688Y-82007853D01*
X123476651Y-81993407D01*
X123481717Y-81974499D01*
X123535063Y-81775408D01*
X123555659Y-81540000D01*
X123535063Y-81304592D01*
X123473903Y-81076337D01*
X123374035Y-80862171D01*
X123365863Y-80850500D01*
X123261071Y-80700840D01*
X123238744Y-80634634D01*
X123255754Y-80566867D01*
X123274957Y-80542044D01*
X123580186Y-80236816D01*
X123641507Y-80203334D01*
X123667865Y-80200500D01*
X124400500Y-80200500D01*
X124467539Y-80220185D01*
G37*
%TD.AperFunction*%
%TA.AperFunction,Conductor*%
G36*
X126417177Y-80945184D02*
G01*
X126462932Y-80997988D01*
X126472876Y-81067146D01*
X126450000Y-81117237D01*
X126450000Y-81485126D01*
X126471304Y-81524142D01*
X126466320Y-81593834D01*
X126424448Y-81649767D01*
X126358984Y-81674184D01*
X126350138Y-81674500D01*
X126199861Y-81674500D01*
X126132822Y-81654815D01*
X126087067Y-81602011D01*
X126077123Y-81532853D01*
X126100000Y-81482759D01*
X126100000Y-81114874D01*
X126078695Y-81075857D01*
X126083679Y-81006165D01*
X126125551Y-80950232D01*
X126191015Y-80925815D01*
X126199846Y-80925499D01*
X126350139Y-80925499D01*
X126417177Y-80945184D01*
G37*
%TD.AperFunction*%
%TA.AperFunction,Conductor*%
G36*
X115282686Y-80810483D02*
G01*
X115338619Y-80852355D01*
X115346084Y-80863545D01*
X115356914Y-80881859D01*
X115361702Y-80888031D01*
X115359369Y-80889840D01*
X115386210Y-80938995D01*
X115381226Y-81008687D01*
X115360470Y-81041021D01*
X115362097Y-81042283D01*
X115357313Y-81048449D01*
X115273717Y-81189803D01*
X115273714Y-81189809D01*
X115266193Y-81215697D01*
X115228585Y-81274582D01*
X115165112Y-81303786D01*
X115095926Y-81294039D01*
X115059437Y-81268780D01*
X114978337Y-81187680D01*
X114944852Y-81126357D01*
X114949836Y-81056665D01*
X114978333Y-81012323D01*
X115151673Y-80838982D01*
X115212994Y-80805499D01*
X115282686Y-80810483D01*
G37*
%TD.AperFunction*%
%TA.AperFunction,Conductor*%
G36*
X125463065Y-72370100D02*
G01*
X125501100Y-72396047D01*
X125585629Y-72480576D01*
X125585633Y-72480579D01*
X125585635Y-72480581D01*
X125727102Y-72564244D01*
X125768724Y-72576336D01*
X125884926Y-72610097D01*
X125884929Y-72610097D01*
X125884931Y-72610098D01*
X125921806Y-72613000D01*
X126163000Y-72613000D01*
X126230039Y-72632685D01*
X126275794Y-72685489D01*
X126287000Y-72737000D01*
X126287000Y-73903201D01*
X126289901Y-73940067D01*
X126289902Y-73940073D01*
X126335754Y-74097893D01*
X126335755Y-74097896D01*
X126335756Y-74097898D01*
X126369818Y-74155494D01*
X126419417Y-74239362D01*
X126419423Y-74239370D01*
X126535629Y-74355576D01*
X126535633Y-74355579D01*
X126535635Y-74355581D01*
X126677102Y-74439244D01*
X126714124Y-74450000D01*
X126834926Y-74485097D01*
X126834929Y-74485097D01*
X126834931Y-74485098D01*
X126871806Y-74488000D01*
X127212770Y-74488000D01*
X127279809Y-74507685D01*
X127300451Y-74524319D01*
X128013181Y-75237049D01*
X128046666Y-75298372D01*
X128049500Y-75324730D01*
X128049500Y-77495337D01*
X128029815Y-77562376D01*
X127977011Y-77608131D01*
X127907853Y-77618075D01*
X127851189Y-77594604D01*
X127767089Y-77531647D01*
X127767086Y-77531645D01*
X127632379Y-77481403D01*
X127632372Y-77481401D01*
X127572844Y-77475000D01*
X126450000Y-77475000D01*
X126450000Y-77975500D01*
X126430315Y-78042539D01*
X126377511Y-78088294D01*
X126326000Y-78099500D01*
X126224000Y-78099500D01*
X126156961Y-78079815D01*
X126111206Y-78027011D01*
X126100000Y-77975500D01*
X126100000Y-77475000D01*
X124977155Y-77475000D01*
X124917627Y-77481401D01*
X124917620Y-77481403D01*
X124782913Y-77531645D01*
X124782906Y-77531649D01*
X124667812Y-77617809D01*
X124667809Y-77617812D01*
X124581649Y-77732906D01*
X124581645Y-77732913D01*
X124531403Y-77867620D01*
X124531401Y-77867627D01*
X124525000Y-77927155D01*
X124525000Y-77975000D01*
X124782292Y-77975000D01*
X124849331Y-77994685D01*
X124895086Y-78047489D01*
X124905030Y-78116647D01*
X124876005Y-78180203D01*
X124825625Y-78215182D01*
X124782671Y-78231202D01*
X124782668Y-78231204D01*
X124732013Y-78269124D01*
X124690413Y-78300266D01*
X124624950Y-78324684D01*
X124616103Y-78325000D01*
X124525000Y-78325000D01*
X124525000Y-78372844D01*
X124531401Y-78432372D01*
X124531403Y-78432379D01*
X124540195Y-78455952D01*
X124545179Y-78525644D01*
X124540196Y-78542615D01*
X124530909Y-78567516D01*
X124530908Y-78567517D01*
X124529301Y-78582470D01*
X124524500Y-78627127D01*
X124524500Y-78759718D01*
X124524501Y-78775499D01*
X124504817Y-78842539D01*
X124452013Y-78888294D01*
X124400501Y-78899500D01*
X123660491Y-78899500D01*
X123593452Y-78879815D01*
X123547697Y-78827011D01*
X123536963Y-78786309D01*
X123536017Y-78775499D01*
X123535063Y-78764592D01*
X123515614Y-78692007D01*
X123517277Y-78622162D01*
X123547706Y-78572238D01*
X124080277Y-78039669D01*
X124151466Y-77933126D01*
X124200501Y-77814743D01*
X124205324Y-77790500D01*
X124216781Y-77732906D01*
X124225500Y-77689071D01*
X124225500Y-74099500D01*
X124245185Y-74032461D01*
X124297989Y-73986706D01*
X124349500Y-73975500D01*
X124681613Y-73975500D01*
X124681616Y-73975500D01*
X124752196Y-73969086D01*
X124914606Y-73918478D01*
X125060185Y-73830472D01*
X125180472Y-73710185D01*
X125268478Y-73564606D01*
X125319086Y-73402196D01*
X125325500Y-73331616D01*
X125325500Y-72668384D01*
X125319086Y-72597804D01*
X125295033Y-72520616D01*
X125293882Y-72450758D01*
X125330683Y-72391366D01*
X125393752Y-72361298D01*
X125463065Y-72370100D01*
G37*
%TD.AperFunction*%
%TA.AperFunction,Conductor*%
G36*
X115804809Y-68370185D02*
G01*
X115825451Y-68386819D01*
X117013181Y-69574549D01*
X117046666Y-69635872D01*
X117049500Y-69662230D01*
X117049500Y-70297870D01*
X117049501Y-70297876D01*
X117055908Y-70357483D01*
X117106202Y-70492328D01*
X117106206Y-70492335D01*
X117192452Y-70607544D01*
X117192455Y-70607547D01*
X117307664Y-70693793D01*
X117307671Y-70693797D01*
X117442517Y-70744091D01*
X117442516Y-70744091D01*
X117449444Y-70744835D01*
X117502127Y-70750500D01*
X119097872Y-70750499D01*
X119157483Y-70744091D01*
X119292331Y-70693796D01*
X119394852Y-70617049D01*
X119401189Y-70612305D01*
X119466653Y-70587887D01*
X119534926Y-70602738D01*
X119584332Y-70652143D01*
X119599500Y-70711571D01*
X119599500Y-70948082D01*
X119598720Y-70961965D01*
X119594435Y-70999997D01*
X119594435Y-71000002D01*
X119598720Y-71038034D01*
X119599500Y-71051917D01*
X119599501Y-71400000D01*
X119599501Y-71400019D01*
X119610000Y-71502796D01*
X119610001Y-71502799D01*
X119665185Y-71669331D01*
X119665187Y-71669336D01*
X119700069Y-71725888D01*
X119757288Y-71818656D01*
X119881344Y-71942712D01*
X120030666Y-72034814D01*
X120071225Y-72048254D01*
X120128669Y-72088025D01*
X120147351Y-72119904D01*
X120167201Y-72169528D01*
X120170042Y-72176628D01*
X120173572Y-72186688D01*
X120174500Y-72189749D01*
X120197179Y-72244501D01*
X120197748Y-72245897D01*
X120203644Y-72260635D01*
X120219821Y-72301076D01*
X120219826Y-72301083D01*
X120221297Y-72303919D01*
X120221381Y-72304099D01*
X120221923Y-72305129D01*
X120222026Y-72305304D01*
X120223533Y-72308123D01*
X120223535Y-72308127D01*
X120247373Y-72343804D01*
X120256488Y-72357446D01*
X120257317Y-72358704D01*
X120289706Y-72408479D01*
X120291699Y-72410968D01*
X120291815Y-72411126D01*
X120292569Y-72412057D01*
X120292688Y-72412189D01*
X120294724Y-72414670D01*
X120336692Y-72456638D01*
X120337755Y-72457713D01*
X120379201Y-72500182D01*
X120381638Y-72502232D01*
X120389497Y-72509443D01*
X120612876Y-72732822D01*
X120646361Y-72794145D01*
X120641377Y-72863837D01*
X120599505Y-72919770D01*
X120534041Y-72944187D01*
X120530918Y-72944298D01*
X120528059Y-72944503D01*
X120394521Y-72963703D01*
X120394519Y-72963703D01*
X120385744Y-72964964D01*
X120247686Y-73005503D01*
X120116918Y-73065223D01*
X120116908Y-73065228D01*
X120116906Y-73065230D01*
X120073653Y-73093026D01*
X119995869Y-73143014D01*
X119979101Y-73157544D01*
X119965633Y-73169213D01*
X119902079Y-73198238D01*
X119884432Y-73199500D01*
X119876076Y-73199500D01*
X119847242Y-73205234D01*
X119847243Y-73205235D01*
X119731093Y-73228339D01*
X119731083Y-73228342D01*
X119651081Y-73261479D01*
X119651082Y-73261480D01*
X119594504Y-73284916D01*
X119594503Y-73284916D01*
X119571181Y-73300500D01*
X119471585Y-73367046D01*
X119471578Y-73367052D01*
X118175449Y-74663181D01*
X118114126Y-74696666D01*
X118087768Y-74699500D01*
X117402129Y-74699500D01*
X117402123Y-74699501D01*
X117342516Y-74705908D01*
X117207671Y-74756202D01*
X117207664Y-74756206D01*
X117092455Y-74842452D01*
X117092452Y-74842455D01*
X117006206Y-74957664D01*
X117006202Y-74957671D01*
X116955908Y-75092517D01*
X116949501Y-75152116D01*
X116949501Y-75152123D01*
X116949500Y-75152135D01*
X116949500Y-76147870D01*
X116949501Y-76147876D01*
X116955908Y-76207483D01*
X116998683Y-76322167D01*
X117003667Y-76391859D01*
X116970182Y-76453182D01*
X116908858Y-76486666D01*
X116882501Y-76489500D01*
X115599667Y-76489500D01*
X115476164Y-76514066D01*
X115476165Y-76514067D01*
X115474002Y-76514497D01*
X115473997Y-76514498D01*
X115473994Y-76514499D01*
X115473991Y-76514499D01*
X115473988Y-76514501D01*
X115355612Y-76563533D01*
X115355609Y-76563535D01*
X115249069Y-76634722D01*
X115249062Y-76634728D01*
X114970611Y-76913181D01*
X114909288Y-76946666D01*
X114882930Y-76949500D01*
X113167070Y-76949500D01*
X113100031Y-76929815D01*
X113079389Y-76913181D01*
X113030757Y-76864549D01*
X112997272Y-76803226D01*
X113002256Y-76733534D01*
X113030757Y-76689187D01*
X113083126Y-76636818D01*
X113144449Y-76603333D01*
X113170807Y-76600499D01*
X114097871Y-76600499D01*
X114097872Y-76600499D01*
X114157483Y-76594091D01*
X114292331Y-76543796D01*
X114407546Y-76457546D01*
X114493796Y-76342331D01*
X114544091Y-76207483D01*
X114550500Y-76147873D01*
X114550499Y-75562228D01*
X114570183Y-75495190D01*
X114586813Y-75474553D01*
X115782952Y-74278416D01*
X115809047Y-74239362D01*
X115856115Y-74168919D01*
X115856119Y-74168912D01*
X115865084Y-74155495D01*
X115921658Y-74018913D01*
X115937341Y-73940073D01*
X115950500Y-73873920D01*
X115950500Y-72600000D01*
X116950000Y-72600000D01*
X116950000Y-72847844D01*
X116956401Y-72907372D01*
X116956403Y-72907379D01*
X117006645Y-73042086D01*
X117006649Y-73042093D01*
X117092809Y-73157187D01*
X117092812Y-73157190D01*
X117207906Y-73243350D01*
X117207913Y-73243354D01*
X117342620Y-73293596D01*
X117342627Y-73293598D01*
X117402155Y-73299999D01*
X117402172Y-73300000D01*
X117950000Y-73300000D01*
X117950000Y-72600000D01*
X118450000Y-72600000D01*
X118450000Y-73300000D01*
X118997828Y-73300000D01*
X118997844Y-73299999D01*
X119057372Y-73293598D01*
X119057379Y-73293596D01*
X119192086Y-73243354D01*
X119192093Y-73243350D01*
X119307187Y-73157190D01*
X119307190Y-73157187D01*
X119393350Y-73042093D01*
X119393354Y-73042086D01*
X119443596Y-72907379D01*
X119443598Y-72907372D01*
X119449999Y-72847844D01*
X119450000Y-72847827D01*
X119450000Y-72600000D01*
X118450000Y-72600000D01*
X117950000Y-72600000D01*
X116950000Y-72600000D01*
X115950500Y-72600000D01*
X115950500Y-72100000D01*
X116950000Y-72100000D01*
X117950000Y-72100000D01*
X117950000Y-71400000D01*
X118450000Y-71400000D01*
X118450000Y-72100000D01*
X119450000Y-72100000D01*
X119450000Y-71852172D01*
X119449999Y-71852155D01*
X119443598Y-71792627D01*
X119443596Y-71792620D01*
X119393354Y-71657913D01*
X119393350Y-71657906D01*
X119307190Y-71542812D01*
X119307187Y-71542809D01*
X119192093Y-71456649D01*
X119192086Y-71456645D01*
X119057379Y-71406403D01*
X119057372Y-71406401D01*
X118997844Y-71400000D01*
X118450000Y-71400000D01*
X117950000Y-71400000D01*
X117402155Y-71400000D01*
X117342627Y-71406401D01*
X117342620Y-71406403D01*
X117207913Y-71456645D01*
X117207906Y-71456649D01*
X117092812Y-71542809D01*
X117092809Y-71542812D01*
X117006649Y-71657906D01*
X117006645Y-71657913D01*
X116956403Y-71792620D01*
X116956401Y-71792627D01*
X116950000Y-71852155D01*
X116950000Y-72100000D01*
X115950500Y-72100000D01*
X115950500Y-70965418D01*
X115921659Y-70820431D01*
X115921658Y-70820430D01*
X115921658Y-70820426D01*
X115900847Y-70770184D01*
X115865087Y-70683850D01*
X115865085Y-70683846D01*
X115865084Y-70683844D01*
X115820453Y-70617049D01*
X115782952Y-70560923D01*
X114686818Y-69464789D01*
X114653333Y-69403466D01*
X114650499Y-69377108D01*
X114650499Y-69302129D01*
X114650498Y-69302123D01*
X114650497Y-69302116D01*
X114644091Y-69242517D01*
X114636782Y-69222921D01*
X114593797Y-69107671D01*
X114593793Y-69107664D01*
X114507547Y-68992455D01*
X114507544Y-68992452D01*
X114392335Y-68906206D01*
X114392328Y-68906202D01*
X114257482Y-68855908D01*
X114257483Y-68855908D01*
X114197883Y-68849501D01*
X114197881Y-68849500D01*
X114197873Y-68849500D01*
X114197865Y-68849500D01*
X113562229Y-68849500D01*
X113495190Y-68829815D01*
X113474548Y-68813181D01*
X113223549Y-68562181D01*
X113190064Y-68500858D01*
X113195048Y-68431166D01*
X113236920Y-68375233D01*
X113302384Y-68350816D01*
X113311230Y-68350500D01*
X115737770Y-68350500D01*
X115804809Y-68370185D01*
G37*
%TD.AperFunction*%
%TA.AperFunction,Conductor*%
G36*
X123414965Y-68646052D02*
G01*
X123428002Y-68660909D01*
X123511098Y-68772421D01*
X123561762Y-68816762D01*
X123615642Y-68855908D01*
X123948823Y-69097978D01*
X123991489Y-69153308D01*
X123997468Y-69222921D01*
X123964862Y-69284716D01*
X123963619Y-69285977D01*
X123265457Y-69984139D01*
X123204134Y-70017624D01*
X123138772Y-70014164D01*
X123127697Y-70010494D01*
X123024986Y-70000000D01*
X122875000Y-70000000D01*
X122875000Y-71326000D01*
X122855315Y-71393039D01*
X122802511Y-71438794D01*
X122751000Y-71450000D01*
X122499000Y-71450000D01*
X122431961Y-71430315D01*
X122386206Y-71377511D01*
X122375000Y-71326000D01*
X122375000Y-70000000D01*
X122225027Y-70000000D01*
X122225012Y-70000001D01*
X122122302Y-70010494D01*
X121955880Y-70065641D01*
X121955873Y-70065645D01*
X121918938Y-70088426D01*
X121851545Y-70106865D01*
X121784882Y-70085941D01*
X121740113Y-70032298D01*
X121731453Y-69962968D01*
X121761651Y-69899961D01*
X121766125Y-69895242D01*
X121842712Y-69818656D01*
X121934814Y-69669334D01*
X121989999Y-69502797D01*
X122000500Y-69400009D01*
X122000499Y-68821948D01*
X122020183Y-68754910D01*
X122072987Y-68709155D01*
X122142146Y-68699211D01*
X122197382Y-68721630D01*
X122315444Y-68807407D01*
X122315453Y-68807412D01*
X122315460Y-68807417D01*
X122348300Y-68826999D01*
X122377188Y-68844226D01*
X122540627Y-68899523D01*
X122712551Y-68914099D01*
X122712557Y-68914098D01*
X122712558Y-68914098D01*
X122737510Y-68910145D01*
X122882967Y-68887108D01*
X123041972Y-68820118D01*
X123180324Y-68717022D01*
X123227669Y-68662926D01*
X123228235Y-68662146D01*
X123228381Y-68662033D01*
X123229418Y-68660735D01*
X123229517Y-68660814D01*
X123229521Y-68660811D01*
X123229601Y-68660881D01*
X123229735Y-68660988D01*
X123283549Y-68619466D01*
X123353160Y-68613465D01*
X123414965Y-68646052D01*
G37*
%TD.AperFunction*%
%TA.AperFunction,Conductor*%
G36*
X115431431Y-61760661D02*
G01*
X116102267Y-61823757D01*
X116107987Y-61824430D01*
X116937837Y-61941941D01*
X116943572Y-61942891D01*
X117766953Y-62099159D01*
X117772630Y-62100374D01*
X118587830Y-62295076D01*
X118593433Y-62296554D01*
X119398595Y-62529248D01*
X119404122Y-62530987D01*
X120197481Y-62801160D01*
X120202909Y-62803151D01*
X120981530Y-63109740D01*
X120982767Y-63110228D01*
X120988125Y-63112485D01*
X121336608Y-63268947D01*
X121389704Y-63314363D01*
X121409816Y-63381275D01*
X121390561Y-63448439D01*
X121386137Y-63454953D01*
X120896223Y-64129262D01*
X120860962Y-64188395D01*
X120807999Y-64344932D01*
X120807999Y-64344934D01*
X120807999Y-64344935D01*
X120794220Y-64507460D01*
X120794038Y-64509601D01*
X120794038Y-64509602D01*
X120803895Y-64571839D01*
X120794939Y-64641132D01*
X120755515Y-64690663D01*
X120728420Y-64710853D01*
X120728413Y-64710860D01*
X120684063Y-64761533D01*
X120109461Y-65552406D01*
X120109459Y-65552409D01*
X120074982Y-65610229D01*
X120074980Y-65610234D01*
X120023188Y-65763314D01*
X120023187Y-65763319D01*
X120010400Y-65914157D01*
X120009366Y-65926351D01*
X119988913Y-65984762D01*
X119981097Y-65996462D01*
X119934914Y-66065579D01*
X119878343Y-66202154D01*
X119878340Y-66202164D01*
X119849500Y-66347151D01*
X119849500Y-68037770D01*
X119829815Y-68104809D01*
X119813181Y-68125451D01*
X119757289Y-68181342D01*
X119665187Y-68330663D01*
X119665185Y-68330668D01*
X119650418Y-68375233D01*
X119610001Y-68497203D01*
X119610001Y-68497204D01*
X119610000Y-68497204D01*
X119599500Y-68599983D01*
X119599500Y-68888429D01*
X119579815Y-68955468D01*
X119527011Y-69001223D01*
X119457853Y-69011167D01*
X119401189Y-68987695D01*
X119292335Y-68906206D01*
X119292328Y-68906202D01*
X119157482Y-68855908D01*
X119157483Y-68855908D01*
X119097883Y-68849501D01*
X119097881Y-68849500D01*
X119097873Y-68849500D01*
X119097865Y-68849500D01*
X118462230Y-68849500D01*
X118395191Y-68829815D01*
X118374549Y-68813181D01*
X117129015Y-67567646D01*
X117095530Y-67506323D01*
X117100514Y-67436631D01*
X117142386Y-67380698D01*
X117207850Y-67356281D01*
X117276123Y-67371133D01*
X117291009Y-67380700D01*
X117307909Y-67393352D01*
X117307913Y-67393354D01*
X117442620Y-67443596D01*
X117442627Y-67443598D01*
X117502155Y-67449999D01*
X117502172Y-67450000D01*
X118050000Y-67450000D01*
X118050000Y-66750000D01*
X118550000Y-66750000D01*
X118550000Y-67450000D01*
X119097828Y-67450000D01*
X119097844Y-67449999D01*
X119157372Y-67443598D01*
X119157379Y-67443596D01*
X119292086Y-67393354D01*
X119292093Y-67393350D01*
X119407187Y-67307190D01*
X119407190Y-67307187D01*
X119493350Y-67192093D01*
X119493354Y-67192086D01*
X119543596Y-67057379D01*
X119543598Y-67057372D01*
X119549999Y-66997844D01*
X119550000Y-66997827D01*
X119550000Y-66750000D01*
X118550000Y-66750000D01*
X118050000Y-66750000D01*
X117050000Y-66750000D01*
X117050000Y-66997844D01*
X117056401Y-67057372D01*
X117056403Y-67057379D01*
X117106645Y-67192086D01*
X117106649Y-67192093D01*
X117119299Y-67208991D01*
X117143717Y-67274455D01*
X117128866Y-67342728D01*
X117079461Y-67392134D01*
X117011188Y-67406986D01*
X116945723Y-67382570D01*
X116932352Y-67370983D01*
X116578420Y-67017051D01*
X116549674Y-66997844D01*
X116477827Y-66949838D01*
X116455495Y-66934916D01*
X116455493Y-66934915D01*
X116455490Y-66934913D01*
X116318917Y-66878343D01*
X116318907Y-66878340D01*
X116173920Y-66849500D01*
X116173918Y-66849500D01*
X114774500Y-66849500D01*
X114707461Y-66829815D01*
X114661706Y-66777011D01*
X114650500Y-66725500D01*
X114650499Y-66250000D01*
X117050000Y-66250000D01*
X118050000Y-66250000D01*
X118050000Y-65550000D01*
X118550000Y-65550000D01*
X118550000Y-66250000D01*
X119550000Y-66250000D01*
X119550000Y-66002172D01*
X119549999Y-66002155D01*
X119543598Y-65942627D01*
X119543596Y-65942620D01*
X119493354Y-65807913D01*
X119493350Y-65807906D01*
X119407190Y-65692812D01*
X119407187Y-65692809D01*
X119292093Y-65606649D01*
X119292086Y-65606645D01*
X119157379Y-65556403D01*
X119157372Y-65556401D01*
X119097844Y-65550000D01*
X118550000Y-65550000D01*
X118050000Y-65550000D01*
X117502155Y-65550000D01*
X117442627Y-65556401D01*
X117442620Y-65556403D01*
X117307913Y-65606645D01*
X117307906Y-65606649D01*
X117192812Y-65692809D01*
X117192809Y-65692812D01*
X117106649Y-65807906D01*
X117106645Y-65807913D01*
X117056403Y-65942620D01*
X117056401Y-65942627D01*
X117050000Y-66002155D01*
X117050000Y-66250000D01*
X114650499Y-66250000D01*
X114650499Y-66002129D01*
X114650498Y-66002123D01*
X114650497Y-66002116D01*
X114644091Y-65942517D01*
X114638061Y-65926351D01*
X114593797Y-65807671D01*
X114593793Y-65807664D01*
X114507547Y-65692455D01*
X114507544Y-65692452D01*
X114392335Y-65606206D01*
X114392328Y-65606202D01*
X114257482Y-65555908D01*
X114249938Y-65554126D01*
X114250474Y-65551853D01*
X114196688Y-65529571D01*
X114156843Y-65472177D01*
X114150500Y-65433024D01*
X114150500Y-64574499D01*
X114170185Y-64507460D01*
X114222989Y-64461705D01*
X114274500Y-64450499D01*
X115197871Y-64450499D01*
X115197872Y-64450499D01*
X115257483Y-64444091D01*
X115392331Y-64393796D01*
X115507546Y-64307546D01*
X115593796Y-64192331D01*
X115644091Y-64057483D01*
X115650500Y-63997873D01*
X115650499Y-62402128D01*
X115644091Y-62342517D01*
X115626647Y-62295748D01*
X115593797Y-62207671D01*
X115593793Y-62207664D01*
X115507547Y-62092455D01*
X115507544Y-62092452D01*
X115392335Y-62006206D01*
X115392330Y-62006203D01*
X115376502Y-62000300D01*
X115320569Y-61958428D01*
X115296152Y-61892964D01*
X115311004Y-61824691D01*
X115360409Y-61775286D01*
X115428682Y-61760434D01*
X115431431Y-61760661D01*
G37*
%TD.AperFunction*%
%TD*%
M02*
