%TF.GenerationSoftware,KiCad,Pcbnew,8.0.1*%
%TF.CreationDate,2024-04-01T21:43:51+02:00*%
%TF.ProjectId,SenseLoraCAM,53656e73-654c-46f7-9261-43414d2e6b69,rev?*%
%TF.SameCoordinates,Original*%
%TF.FileFunction,Legend,Bot*%
%TF.FilePolarity,Positive*%
%FSLAX46Y46*%
G04 Gerber Fmt 4.6, Leading zero omitted, Abs format (unit mm)*
G04 Created by KiCad (PCBNEW 8.0.1) date 2024-04-01 21:43:51*
%MOMM*%
%LPD*%
G01*
G04 APERTURE LIST*
%ADD10C,0.150000*%
%ADD11C,0.120000*%
G04 APERTURE END LIST*
D10*
X120044173Y-63393628D02*
X120091792Y-63346009D01*
X120091792Y-63346009D02*
X120187030Y-63298390D01*
X120187030Y-63298390D02*
X120282268Y-63298390D01*
X120282268Y-63298390D02*
X120377506Y-63346009D01*
X120377506Y-63346009D02*
X120425125Y-63393628D01*
X120425125Y-63393628D02*
X120472744Y-63488866D01*
X120472744Y-63488866D02*
X120472744Y-63584104D01*
X120472744Y-63584104D02*
X120425125Y-63679342D01*
X120425125Y-63679342D02*
X120377506Y-63726961D01*
X120377506Y-63726961D02*
X120282268Y-63774580D01*
X120282268Y-63774580D02*
X120187030Y-63774580D01*
X120187030Y-63774580D02*
X120091792Y-63726961D01*
X120091792Y-63726961D02*
X120044173Y-63679342D01*
X120044173Y-63298390D02*
X120044173Y-63679342D01*
X120044173Y-63679342D02*
X119996554Y-63726961D01*
X119996554Y-63726961D02*
X119948935Y-63726961D01*
X119948935Y-63726961D02*
X119853696Y-63679342D01*
X119853696Y-63679342D02*
X119806077Y-63584104D01*
X119806077Y-63584104D02*
X119806077Y-63346009D01*
X119806077Y-63346009D02*
X119901316Y-63203152D01*
X119901316Y-63203152D02*
X120044173Y-63107914D01*
X120044173Y-63107914D02*
X120234649Y-63060295D01*
X120234649Y-63060295D02*
X120425125Y-63107914D01*
X120425125Y-63107914D02*
X120567982Y-63203152D01*
X120567982Y-63203152D02*
X120663220Y-63346009D01*
X120663220Y-63346009D02*
X120710839Y-63536485D01*
X120710839Y-63536485D02*
X120663220Y-63726961D01*
X120663220Y-63726961D02*
X120567982Y-63869819D01*
X120567982Y-63869819D02*
X120425125Y-63965057D01*
X120425125Y-63965057D02*
X120234649Y-64012676D01*
X120234649Y-64012676D02*
X120044173Y-63965057D01*
X120044173Y-63965057D02*
X119901316Y-63869819D01*
X119425125Y-62965057D02*
X119377506Y-62917438D01*
X119377506Y-62917438D02*
X119282268Y-62869819D01*
X119282268Y-62869819D02*
X119044173Y-62869819D01*
X119044173Y-62869819D02*
X118948935Y-62917438D01*
X118948935Y-62917438D02*
X118901316Y-62965057D01*
X118901316Y-62965057D02*
X118853697Y-63060295D01*
X118853697Y-63060295D02*
X118853697Y-63155533D01*
X118853697Y-63155533D02*
X118901316Y-63298390D01*
X118901316Y-63298390D02*
X119472744Y-63869819D01*
X119472744Y-63869819D02*
X118853697Y-63869819D01*
X118234649Y-62869819D02*
X118139411Y-62869819D01*
X118139411Y-62869819D02*
X118044173Y-62917438D01*
X118044173Y-62917438D02*
X117996554Y-62965057D01*
X117996554Y-62965057D02*
X117948935Y-63060295D01*
X117948935Y-63060295D02*
X117901316Y-63250771D01*
X117901316Y-63250771D02*
X117901316Y-63488866D01*
X117901316Y-63488866D02*
X117948935Y-63679342D01*
X117948935Y-63679342D02*
X117996554Y-63774580D01*
X117996554Y-63774580D02*
X118044173Y-63822200D01*
X118044173Y-63822200D02*
X118139411Y-63869819D01*
X118139411Y-63869819D02*
X118234649Y-63869819D01*
X118234649Y-63869819D02*
X118329887Y-63822200D01*
X118329887Y-63822200D02*
X118377506Y-63774580D01*
X118377506Y-63774580D02*
X118425125Y-63679342D01*
X118425125Y-63679342D02*
X118472744Y-63488866D01*
X118472744Y-63488866D02*
X118472744Y-63250771D01*
X118472744Y-63250771D02*
X118425125Y-63060295D01*
X118425125Y-63060295D02*
X118377506Y-62965057D01*
X118377506Y-62965057D02*
X118329887Y-62917438D01*
X118329887Y-62917438D02*
X118234649Y-62869819D01*
X117520363Y-62965057D02*
X117472744Y-62917438D01*
X117472744Y-62917438D02*
X117377506Y-62869819D01*
X117377506Y-62869819D02*
X117139411Y-62869819D01*
X117139411Y-62869819D02*
X117044173Y-62917438D01*
X117044173Y-62917438D02*
X116996554Y-62965057D01*
X116996554Y-62965057D02*
X116948935Y-63060295D01*
X116948935Y-63060295D02*
X116948935Y-63155533D01*
X116948935Y-63155533D02*
X116996554Y-63298390D01*
X116996554Y-63298390D02*
X117567982Y-63869819D01*
X117567982Y-63869819D02*
X116948935Y-63869819D01*
X116091792Y-63203152D02*
X116091792Y-63869819D01*
X116329887Y-62822200D02*
X116567982Y-63536485D01*
X116567982Y-63536485D02*
X115948935Y-63536485D01*
X111444173Y-63993628D02*
X111491792Y-63946009D01*
X111491792Y-63946009D02*
X111587030Y-63898390D01*
X111587030Y-63898390D02*
X111682268Y-63898390D01*
X111682268Y-63898390D02*
X111777506Y-63946009D01*
X111777506Y-63946009D02*
X111825125Y-63993628D01*
X111825125Y-63993628D02*
X111872744Y-64088866D01*
X111872744Y-64088866D02*
X111872744Y-64184104D01*
X111872744Y-64184104D02*
X111825125Y-64279342D01*
X111825125Y-64279342D02*
X111777506Y-64326961D01*
X111777506Y-64326961D02*
X111682268Y-64374580D01*
X111682268Y-64374580D02*
X111587030Y-64374580D01*
X111587030Y-64374580D02*
X111491792Y-64326961D01*
X111491792Y-64326961D02*
X111444173Y-64279342D01*
X111444173Y-63898390D02*
X111444173Y-64279342D01*
X111444173Y-64279342D02*
X111396554Y-64326961D01*
X111396554Y-64326961D02*
X111348935Y-64326961D01*
X111348935Y-64326961D02*
X111253696Y-64279342D01*
X111253696Y-64279342D02*
X111206077Y-64184104D01*
X111206077Y-64184104D02*
X111206077Y-63946009D01*
X111206077Y-63946009D02*
X111301316Y-63803152D01*
X111301316Y-63803152D02*
X111444173Y-63707914D01*
X111444173Y-63707914D02*
X111634649Y-63660295D01*
X111634649Y-63660295D02*
X111825125Y-63707914D01*
X111825125Y-63707914D02*
X111967982Y-63803152D01*
X111967982Y-63803152D02*
X112063220Y-63946009D01*
X112063220Y-63946009D02*
X112110839Y-64136485D01*
X112110839Y-64136485D02*
X112063220Y-64326961D01*
X112063220Y-64326961D02*
X111967982Y-64469819D01*
X111967982Y-64469819D02*
X111825125Y-64565057D01*
X111825125Y-64565057D02*
X111634649Y-64612676D01*
X111634649Y-64612676D02*
X111444173Y-64565057D01*
X111444173Y-64565057D02*
X111301316Y-64469819D01*
X110825125Y-64422200D02*
X110682268Y-64469819D01*
X110682268Y-64469819D02*
X110444173Y-64469819D01*
X110444173Y-64469819D02*
X110348935Y-64422200D01*
X110348935Y-64422200D02*
X110301316Y-64374580D01*
X110301316Y-64374580D02*
X110253697Y-64279342D01*
X110253697Y-64279342D02*
X110253697Y-64184104D01*
X110253697Y-64184104D02*
X110301316Y-64088866D01*
X110301316Y-64088866D02*
X110348935Y-64041247D01*
X110348935Y-64041247D02*
X110444173Y-63993628D01*
X110444173Y-63993628D02*
X110634649Y-63946009D01*
X110634649Y-63946009D02*
X110729887Y-63898390D01*
X110729887Y-63898390D02*
X110777506Y-63850771D01*
X110777506Y-63850771D02*
X110825125Y-63755533D01*
X110825125Y-63755533D02*
X110825125Y-63660295D01*
X110825125Y-63660295D02*
X110777506Y-63565057D01*
X110777506Y-63565057D02*
X110729887Y-63517438D01*
X110729887Y-63517438D02*
X110634649Y-63469819D01*
X110634649Y-63469819D02*
X110396554Y-63469819D01*
X110396554Y-63469819D02*
X110253697Y-63517438D01*
X109825125Y-64469819D02*
X109825125Y-63469819D01*
X109825125Y-63469819D02*
X109444173Y-63469819D01*
X109444173Y-63469819D02*
X109348935Y-63517438D01*
X109348935Y-63517438D02*
X109301316Y-63565057D01*
X109301316Y-63565057D02*
X109253697Y-63660295D01*
X109253697Y-63660295D02*
X109253697Y-63803152D01*
X109253697Y-63803152D02*
X109301316Y-63898390D01*
X109301316Y-63898390D02*
X109348935Y-63946009D01*
X109348935Y-63946009D02*
X109444173Y-63993628D01*
X109444173Y-63993628D02*
X109825125Y-63993628D01*
X108825125Y-64469819D02*
X108825125Y-63469819D01*
X108444173Y-63469819D02*
X107777507Y-63469819D01*
X107777507Y-63469819D02*
X108444173Y-64469819D01*
X108444173Y-64469819D02*
X107777507Y-64469819D01*
X107396554Y-64469819D02*
X107396554Y-63469819D01*
X106396555Y-63517438D02*
X106491793Y-63469819D01*
X106491793Y-63469819D02*
X106634650Y-63469819D01*
X106634650Y-63469819D02*
X106777507Y-63517438D01*
X106777507Y-63517438D02*
X106872745Y-63612676D01*
X106872745Y-63612676D02*
X106920364Y-63707914D01*
X106920364Y-63707914D02*
X106967983Y-63898390D01*
X106967983Y-63898390D02*
X106967983Y-64041247D01*
X106967983Y-64041247D02*
X106920364Y-64231723D01*
X106920364Y-64231723D02*
X106872745Y-64326961D01*
X106872745Y-64326961D02*
X106777507Y-64422200D01*
X106777507Y-64422200D02*
X106634650Y-64469819D01*
X106634650Y-64469819D02*
X106539412Y-64469819D01*
X106539412Y-64469819D02*
X106396555Y-64422200D01*
X106396555Y-64422200D02*
X106348936Y-64374580D01*
X106348936Y-64374580D02*
X106348936Y-64041247D01*
X106348936Y-64041247D02*
X106539412Y-64041247D01*
X125133333Y-92454819D02*
X125133333Y-93169104D01*
X125133333Y-93169104D02*
X125180952Y-93311961D01*
X125180952Y-93311961D02*
X125276190Y-93407200D01*
X125276190Y-93407200D02*
X125419047Y-93454819D01*
X125419047Y-93454819D02*
X125514285Y-93454819D01*
X124752380Y-92454819D02*
X124133333Y-92454819D01*
X124133333Y-92454819D02*
X124466666Y-92835771D01*
X124466666Y-92835771D02*
X124323809Y-92835771D01*
X124323809Y-92835771D02*
X124228571Y-92883390D01*
X124228571Y-92883390D02*
X124180952Y-92931009D01*
X124180952Y-92931009D02*
X124133333Y-93026247D01*
X124133333Y-93026247D02*
X124133333Y-93264342D01*
X124133333Y-93264342D02*
X124180952Y-93359580D01*
X124180952Y-93359580D02*
X124228571Y-93407200D01*
X124228571Y-93407200D02*
X124323809Y-93454819D01*
X124323809Y-93454819D02*
X124609523Y-93454819D01*
X124609523Y-93454819D02*
X124704761Y-93407200D01*
X124704761Y-93407200D02*
X124752380Y-93359580D01*
X110279580Y-87033333D02*
X110327200Y-86985714D01*
X110327200Y-86985714D02*
X110374819Y-86842857D01*
X110374819Y-86842857D02*
X110374819Y-86747619D01*
X110374819Y-86747619D02*
X110327200Y-86604762D01*
X110327200Y-86604762D02*
X110231961Y-86509524D01*
X110231961Y-86509524D02*
X110136723Y-86461905D01*
X110136723Y-86461905D02*
X109946247Y-86414286D01*
X109946247Y-86414286D02*
X109803390Y-86414286D01*
X109803390Y-86414286D02*
X109612914Y-86461905D01*
X109612914Y-86461905D02*
X109517676Y-86509524D01*
X109517676Y-86509524D02*
X109422438Y-86604762D01*
X109422438Y-86604762D02*
X109374819Y-86747619D01*
X109374819Y-86747619D02*
X109374819Y-86842857D01*
X109374819Y-86842857D02*
X109422438Y-86985714D01*
X109422438Y-86985714D02*
X109470057Y-87033333D01*
X109374819Y-87366667D02*
X109374819Y-87985714D01*
X109374819Y-87985714D02*
X109755771Y-87652381D01*
X109755771Y-87652381D02*
X109755771Y-87795238D01*
X109755771Y-87795238D02*
X109803390Y-87890476D01*
X109803390Y-87890476D02*
X109851009Y-87938095D01*
X109851009Y-87938095D02*
X109946247Y-87985714D01*
X109946247Y-87985714D02*
X110184342Y-87985714D01*
X110184342Y-87985714D02*
X110279580Y-87938095D01*
X110279580Y-87938095D02*
X110327200Y-87890476D01*
X110327200Y-87890476D02*
X110374819Y-87795238D01*
X110374819Y-87795238D02*
X110374819Y-87509524D01*
X110374819Y-87509524D02*
X110327200Y-87414286D01*
X110327200Y-87414286D02*
X110279580Y-87366667D01*
X119662295Y-67635714D02*
X119281342Y-67369047D01*
X119662295Y-67178571D02*
X118862295Y-67178571D01*
X118862295Y-67178571D02*
X118862295Y-67483333D01*
X118862295Y-67483333D02*
X118900390Y-67559523D01*
X118900390Y-67559523D02*
X118938485Y-67597618D01*
X118938485Y-67597618D02*
X119014676Y-67635714D01*
X119014676Y-67635714D02*
X119128961Y-67635714D01*
X119128961Y-67635714D02*
X119205152Y-67597618D01*
X119205152Y-67597618D02*
X119243247Y-67559523D01*
X119243247Y-67559523D02*
X119281342Y-67483333D01*
X119281342Y-67483333D02*
X119281342Y-67178571D01*
X118938485Y-67940475D02*
X118900390Y-67978571D01*
X118900390Y-67978571D02*
X118862295Y-68054761D01*
X118862295Y-68054761D02*
X118862295Y-68245237D01*
X118862295Y-68245237D02*
X118900390Y-68321428D01*
X118900390Y-68321428D02*
X118938485Y-68359523D01*
X118938485Y-68359523D02*
X119014676Y-68397618D01*
X119014676Y-68397618D02*
X119090866Y-68397618D01*
X119090866Y-68397618D02*
X119205152Y-68359523D01*
X119205152Y-68359523D02*
X119662295Y-67902380D01*
X119662295Y-67902380D02*
X119662295Y-68397618D01*
X119662295Y-69159523D02*
X119662295Y-68702380D01*
X119662295Y-68930952D02*
X118862295Y-68930952D01*
X118862295Y-68930952D02*
X118976580Y-68854761D01*
X118976580Y-68854761D02*
X119052771Y-68778571D01*
X119052771Y-68778571D02*
X119090866Y-68702380D01*
X109038094Y-68604819D02*
X109038094Y-67604819D01*
X109038094Y-67604819D02*
X108799999Y-67604819D01*
X108799999Y-67604819D02*
X108657142Y-67652438D01*
X108657142Y-67652438D02*
X108561904Y-67747676D01*
X108561904Y-67747676D02*
X108514285Y-67842914D01*
X108514285Y-67842914D02*
X108466666Y-68033390D01*
X108466666Y-68033390D02*
X108466666Y-68176247D01*
X108466666Y-68176247D02*
X108514285Y-68366723D01*
X108514285Y-68366723D02*
X108561904Y-68461961D01*
X108561904Y-68461961D02*
X108657142Y-68557200D01*
X108657142Y-68557200D02*
X108799999Y-68604819D01*
X108799999Y-68604819D02*
X109038094Y-68604819D01*
X107609523Y-67604819D02*
X107799999Y-67604819D01*
X107799999Y-67604819D02*
X107895237Y-67652438D01*
X107895237Y-67652438D02*
X107942856Y-67700057D01*
X107942856Y-67700057D02*
X108038094Y-67842914D01*
X108038094Y-67842914D02*
X108085713Y-68033390D01*
X108085713Y-68033390D02*
X108085713Y-68414342D01*
X108085713Y-68414342D02*
X108038094Y-68509580D01*
X108038094Y-68509580D02*
X107990475Y-68557200D01*
X107990475Y-68557200D02*
X107895237Y-68604819D01*
X107895237Y-68604819D02*
X107704761Y-68604819D01*
X107704761Y-68604819D02*
X107609523Y-68557200D01*
X107609523Y-68557200D02*
X107561904Y-68509580D01*
X107561904Y-68509580D02*
X107514285Y-68414342D01*
X107514285Y-68414342D02*
X107514285Y-68176247D01*
X107514285Y-68176247D02*
X107561904Y-68081009D01*
X107561904Y-68081009D02*
X107609523Y-68033390D01*
X107609523Y-68033390D02*
X107704761Y-67985771D01*
X107704761Y-67985771D02*
X107895237Y-67985771D01*
X107895237Y-67985771D02*
X107990475Y-68033390D01*
X107990475Y-68033390D02*
X108038094Y-68081009D01*
X108038094Y-68081009D02*
X108085713Y-68176247D01*
X105564285Y-68854819D02*
X106135713Y-68854819D01*
X105849999Y-68854819D02*
X105849999Y-67854819D01*
X105849999Y-67854819D02*
X105945237Y-67997676D01*
X105945237Y-67997676D02*
X106040475Y-68092914D01*
X106040475Y-68092914D02*
X106135713Y-68140533D01*
X118842857Y-85804819D02*
X119176190Y-85328628D01*
X119414285Y-85804819D02*
X119414285Y-84804819D01*
X119414285Y-84804819D02*
X119033333Y-84804819D01*
X119033333Y-84804819D02*
X118938095Y-84852438D01*
X118938095Y-84852438D02*
X118890476Y-84900057D01*
X118890476Y-84900057D02*
X118842857Y-84995295D01*
X118842857Y-84995295D02*
X118842857Y-85138152D01*
X118842857Y-85138152D02*
X118890476Y-85233390D01*
X118890476Y-85233390D02*
X118938095Y-85281009D01*
X118938095Y-85281009D02*
X119033333Y-85328628D01*
X119033333Y-85328628D02*
X119414285Y-85328628D01*
X117890476Y-85804819D02*
X118461904Y-85804819D01*
X118176190Y-85804819D02*
X118176190Y-84804819D01*
X118176190Y-84804819D02*
X118271428Y-84947676D01*
X118271428Y-84947676D02*
X118366666Y-85042914D01*
X118366666Y-85042914D02*
X118461904Y-85090533D01*
X117414285Y-85804819D02*
X117223809Y-85804819D01*
X117223809Y-85804819D02*
X117128571Y-85757200D01*
X117128571Y-85757200D02*
X117080952Y-85709580D01*
X117080952Y-85709580D02*
X116985714Y-85566723D01*
X116985714Y-85566723D02*
X116938095Y-85376247D01*
X116938095Y-85376247D02*
X116938095Y-84995295D01*
X116938095Y-84995295D02*
X116985714Y-84900057D01*
X116985714Y-84900057D02*
X117033333Y-84852438D01*
X117033333Y-84852438D02*
X117128571Y-84804819D01*
X117128571Y-84804819D02*
X117319047Y-84804819D01*
X117319047Y-84804819D02*
X117414285Y-84852438D01*
X117414285Y-84852438D02*
X117461904Y-84900057D01*
X117461904Y-84900057D02*
X117509523Y-84995295D01*
X117509523Y-84995295D02*
X117509523Y-85233390D01*
X117509523Y-85233390D02*
X117461904Y-85328628D01*
X117461904Y-85328628D02*
X117414285Y-85376247D01*
X117414285Y-85376247D02*
X117319047Y-85423866D01*
X117319047Y-85423866D02*
X117128571Y-85423866D01*
X117128571Y-85423866D02*
X117033333Y-85376247D01*
X117033333Y-85376247D02*
X116985714Y-85328628D01*
X116985714Y-85328628D02*
X116938095Y-85233390D01*
X129254819Y-81238095D02*
X130064342Y-81238095D01*
X130064342Y-81238095D02*
X130159580Y-81285714D01*
X130159580Y-81285714D02*
X130207200Y-81333333D01*
X130207200Y-81333333D02*
X130254819Y-81428571D01*
X130254819Y-81428571D02*
X130254819Y-81619047D01*
X130254819Y-81619047D02*
X130207200Y-81714285D01*
X130207200Y-81714285D02*
X130159580Y-81761904D01*
X130159580Y-81761904D02*
X130064342Y-81809523D01*
X130064342Y-81809523D02*
X129254819Y-81809523D01*
X129254819Y-82761904D02*
X129254819Y-82285714D01*
X129254819Y-82285714D02*
X129731009Y-82238095D01*
X129731009Y-82238095D02*
X129683390Y-82285714D01*
X129683390Y-82285714D02*
X129635771Y-82380952D01*
X129635771Y-82380952D02*
X129635771Y-82619047D01*
X129635771Y-82619047D02*
X129683390Y-82714285D01*
X129683390Y-82714285D02*
X129731009Y-82761904D01*
X129731009Y-82761904D02*
X129826247Y-82809523D01*
X129826247Y-82809523D02*
X130064342Y-82809523D01*
X130064342Y-82809523D02*
X130159580Y-82761904D01*
X130159580Y-82761904D02*
X130207200Y-82714285D01*
X130207200Y-82714285D02*
X130254819Y-82619047D01*
X130254819Y-82619047D02*
X130254819Y-82380952D01*
X130254819Y-82380952D02*
X130207200Y-82285714D01*
X130207200Y-82285714D02*
X130159580Y-82238095D01*
X129454819Y-79085714D02*
X129454819Y-78514286D01*
X129454819Y-78800000D02*
X128454819Y-78800000D01*
X128454819Y-78800000D02*
X128597676Y-78704762D01*
X128597676Y-78704762D02*
X128692914Y-78609524D01*
X128692914Y-78609524D02*
X128740533Y-78514286D01*
X129654819Y-86009523D02*
X129654819Y-85438095D01*
X129654819Y-85723809D02*
X128654819Y-85723809D01*
X128654819Y-85723809D02*
X128797676Y-85628571D01*
X128797676Y-85628571D02*
X128892914Y-85533333D01*
X128892914Y-85533333D02*
X128940533Y-85438095D01*
X128750057Y-86390476D02*
X128702438Y-86438095D01*
X128702438Y-86438095D02*
X128654819Y-86533333D01*
X128654819Y-86533333D02*
X128654819Y-86771428D01*
X128654819Y-86771428D02*
X128702438Y-86866666D01*
X128702438Y-86866666D02*
X128750057Y-86914285D01*
X128750057Y-86914285D02*
X128845295Y-86961904D01*
X128845295Y-86961904D02*
X128940533Y-86961904D01*
X128940533Y-86961904D02*
X129083390Y-86914285D01*
X129083390Y-86914285D02*
X129654819Y-86342857D01*
X129654819Y-86342857D02*
X129654819Y-86961904D01*
X118454819Y-73166666D02*
X119169104Y-73166666D01*
X119169104Y-73166666D02*
X119311961Y-73119047D01*
X119311961Y-73119047D02*
X119407200Y-73023809D01*
X119407200Y-73023809D02*
X119454819Y-72880952D01*
X119454819Y-72880952D02*
X119454819Y-72785714D01*
X119454819Y-73642857D02*
X118454819Y-73642857D01*
X118454819Y-73642857D02*
X118454819Y-74023809D01*
X118454819Y-74023809D02*
X118502438Y-74119047D01*
X118502438Y-74119047D02*
X118550057Y-74166666D01*
X118550057Y-74166666D02*
X118645295Y-74214285D01*
X118645295Y-74214285D02*
X118788152Y-74214285D01*
X118788152Y-74214285D02*
X118883390Y-74166666D01*
X118883390Y-74166666D02*
X118931009Y-74119047D01*
X118931009Y-74119047D02*
X118978628Y-74023809D01*
X118978628Y-74023809D02*
X118978628Y-73642857D01*
X119454819Y-75166666D02*
X119454819Y-74595238D01*
X119454819Y-74880952D02*
X118454819Y-74880952D01*
X118454819Y-74880952D02*
X118597676Y-74785714D01*
X118597676Y-74785714D02*
X118692914Y-74690476D01*
X118692914Y-74690476D02*
X118740533Y-74595238D01*
X124114285Y-74962295D02*
X124380952Y-74581342D01*
X124571428Y-74962295D02*
X124571428Y-74162295D01*
X124571428Y-74162295D02*
X124266666Y-74162295D01*
X124266666Y-74162295D02*
X124190476Y-74200390D01*
X124190476Y-74200390D02*
X124152381Y-74238485D01*
X124152381Y-74238485D02*
X124114285Y-74314676D01*
X124114285Y-74314676D02*
X124114285Y-74428961D01*
X124114285Y-74428961D02*
X124152381Y-74505152D01*
X124152381Y-74505152D02*
X124190476Y-74543247D01*
X124190476Y-74543247D02*
X124266666Y-74581342D01*
X124266666Y-74581342D02*
X124571428Y-74581342D01*
X123352381Y-74962295D02*
X123809524Y-74962295D01*
X123580952Y-74962295D02*
X123580952Y-74162295D01*
X123580952Y-74162295D02*
X123657143Y-74276580D01*
X123657143Y-74276580D02*
X123733333Y-74352771D01*
X123733333Y-74352771D02*
X123809524Y-74390866D01*
X122666666Y-74162295D02*
X122819047Y-74162295D01*
X122819047Y-74162295D02*
X122895238Y-74200390D01*
X122895238Y-74200390D02*
X122933333Y-74238485D01*
X122933333Y-74238485D02*
X123009523Y-74352771D01*
X123009523Y-74352771D02*
X123047619Y-74505152D01*
X123047619Y-74505152D02*
X123047619Y-74809914D01*
X123047619Y-74809914D02*
X123009523Y-74886104D01*
X123009523Y-74886104D02*
X122971428Y-74924200D01*
X122971428Y-74924200D02*
X122895238Y-74962295D01*
X122895238Y-74962295D02*
X122742857Y-74962295D01*
X122742857Y-74962295D02*
X122666666Y-74924200D01*
X122666666Y-74924200D02*
X122628571Y-74886104D01*
X122628571Y-74886104D02*
X122590476Y-74809914D01*
X122590476Y-74809914D02*
X122590476Y-74619438D01*
X122590476Y-74619438D02*
X122628571Y-74543247D01*
X122628571Y-74543247D02*
X122666666Y-74505152D01*
X122666666Y-74505152D02*
X122742857Y-74467057D01*
X122742857Y-74467057D02*
X122895238Y-74467057D01*
X122895238Y-74467057D02*
X122971428Y-74505152D01*
X122971428Y-74505152D02*
X123009523Y-74543247D01*
X123009523Y-74543247D02*
X123047619Y-74619438D01*
X109038094Y-74454819D02*
X109038094Y-73454819D01*
X109038094Y-73454819D02*
X108799999Y-73454819D01*
X108799999Y-73454819D02*
X108657142Y-73502438D01*
X108657142Y-73502438D02*
X108561904Y-73597676D01*
X108561904Y-73597676D02*
X108514285Y-73692914D01*
X108514285Y-73692914D02*
X108466666Y-73883390D01*
X108466666Y-73883390D02*
X108466666Y-74026247D01*
X108466666Y-74026247D02*
X108514285Y-74216723D01*
X108514285Y-74216723D02*
X108561904Y-74311961D01*
X108561904Y-74311961D02*
X108657142Y-74407200D01*
X108657142Y-74407200D02*
X108799999Y-74454819D01*
X108799999Y-74454819D02*
X109038094Y-74454819D01*
X108085713Y-73550057D02*
X108038094Y-73502438D01*
X108038094Y-73502438D02*
X107942856Y-73454819D01*
X107942856Y-73454819D02*
X107704761Y-73454819D01*
X107704761Y-73454819D02*
X107609523Y-73502438D01*
X107609523Y-73502438D02*
X107561904Y-73550057D01*
X107561904Y-73550057D02*
X107514285Y-73645295D01*
X107514285Y-73645295D02*
X107514285Y-73740533D01*
X107514285Y-73740533D02*
X107561904Y-73883390D01*
X107561904Y-73883390D02*
X108133332Y-74454819D01*
X108133332Y-74454819D02*
X107514285Y-74454819D01*
X105614285Y-74854819D02*
X106185713Y-74854819D01*
X105899999Y-74854819D02*
X105899999Y-73854819D01*
X105899999Y-73854819D02*
X105995237Y-73997676D01*
X105995237Y-73997676D02*
X106090475Y-74092914D01*
X106090475Y-74092914D02*
X106185713Y-74140533D01*
X113533333Y-92254819D02*
X113533333Y-92969104D01*
X113533333Y-92969104D02*
X113580952Y-93111961D01*
X113580952Y-93111961D02*
X113676190Y-93207200D01*
X113676190Y-93207200D02*
X113819047Y-93254819D01*
X113819047Y-93254819D02*
X113914285Y-93254819D01*
X113104761Y-92350057D02*
X113057142Y-92302438D01*
X113057142Y-92302438D02*
X112961904Y-92254819D01*
X112961904Y-92254819D02*
X112723809Y-92254819D01*
X112723809Y-92254819D02*
X112628571Y-92302438D01*
X112628571Y-92302438D02*
X112580952Y-92350057D01*
X112580952Y-92350057D02*
X112533333Y-92445295D01*
X112533333Y-92445295D02*
X112533333Y-92540533D01*
X112533333Y-92540533D02*
X112580952Y-92683390D01*
X112580952Y-92683390D02*
X113152380Y-93254819D01*
X113152380Y-93254819D02*
X112533333Y-93254819D01*
X128804819Y-71466666D02*
X129519104Y-71466666D01*
X129519104Y-71466666D02*
X129661961Y-71419047D01*
X129661961Y-71419047D02*
X129757200Y-71323809D01*
X129757200Y-71323809D02*
X129804819Y-71180952D01*
X129804819Y-71180952D02*
X129804819Y-71085714D01*
X129804819Y-71942857D02*
X128804819Y-71942857D01*
X128804819Y-71942857D02*
X128804819Y-72323809D01*
X128804819Y-72323809D02*
X128852438Y-72419047D01*
X128852438Y-72419047D02*
X128900057Y-72466666D01*
X128900057Y-72466666D02*
X128995295Y-72514285D01*
X128995295Y-72514285D02*
X129138152Y-72514285D01*
X129138152Y-72514285D02*
X129233390Y-72466666D01*
X129233390Y-72466666D02*
X129281009Y-72419047D01*
X129281009Y-72419047D02*
X129328628Y-72323809D01*
X129328628Y-72323809D02*
X129328628Y-71942857D01*
X128900057Y-72895238D02*
X128852438Y-72942857D01*
X128852438Y-72942857D02*
X128804819Y-73038095D01*
X128804819Y-73038095D02*
X128804819Y-73276190D01*
X128804819Y-73276190D02*
X128852438Y-73371428D01*
X128852438Y-73371428D02*
X128900057Y-73419047D01*
X128900057Y-73419047D02*
X128995295Y-73466666D01*
X128995295Y-73466666D02*
X129090533Y-73466666D01*
X129090533Y-73466666D02*
X129233390Y-73419047D01*
X129233390Y-73419047D02*
X129804819Y-72847619D01*
X129804819Y-72847619D02*
X129804819Y-73466666D01*
X127637557Y-71554761D02*
X127589938Y-71459523D01*
X127589938Y-71459523D02*
X127494700Y-71364285D01*
X127494700Y-71364285D02*
X127351842Y-71221428D01*
X127351842Y-71221428D02*
X127304223Y-71126190D01*
X127304223Y-71126190D02*
X127304223Y-71030952D01*
X127542319Y-71078571D02*
X127494700Y-70983333D01*
X127494700Y-70983333D02*
X127399461Y-70888095D01*
X127399461Y-70888095D02*
X127208985Y-70840476D01*
X127208985Y-70840476D02*
X126875652Y-70840476D01*
X126875652Y-70840476D02*
X126685176Y-70888095D01*
X126685176Y-70888095D02*
X126589938Y-70983333D01*
X126589938Y-70983333D02*
X126542319Y-71078571D01*
X126542319Y-71078571D02*
X126542319Y-71269047D01*
X126542319Y-71269047D02*
X126589938Y-71364285D01*
X126589938Y-71364285D02*
X126685176Y-71459523D01*
X126685176Y-71459523D02*
X126875652Y-71507142D01*
X126875652Y-71507142D02*
X127208985Y-71507142D01*
X127208985Y-71507142D02*
X127399461Y-71459523D01*
X127399461Y-71459523D02*
X127494700Y-71364285D01*
X127494700Y-71364285D02*
X127542319Y-71269047D01*
X127542319Y-71269047D02*
X127542319Y-71078571D01*
X127542319Y-72459523D02*
X127542319Y-71888095D01*
X127542319Y-72173809D02*
X126542319Y-72173809D01*
X126542319Y-72173809D02*
X126685176Y-72078571D01*
X126685176Y-72078571D02*
X126780414Y-71983333D01*
X126780414Y-71983333D02*
X126828033Y-71888095D01*
X112719047Y-63054819D02*
X113195237Y-63054819D01*
X113195237Y-63054819D02*
X113195237Y-62054819D01*
X112385713Y-62531009D02*
X112052380Y-62531009D01*
X111909523Y-63054819D02*
X112385713Y-63054819D01*
X112385713Y-63054819D02*
X112385713Y-62054819D01*
X112385713Y-62054819D02*
X111909523Y-62054819D01*
X111480951Y-63054819D02*
X111480951Y-62054819D01*
X111480951Y-62054819D02*
X111242856Y-62054819D01*
X111242856Y-62054819D02*
X111099999Y-62102438D01*
X111099999Y-62102438D02*
X111004761Y-62197676D01*
X111004761Y-62197676D02*
X110957142Y-62292914D01*
X110957142Y-62292914D02*
X110909523Y-62483390D01*
X110909523Y-62483390D02*
X110909523Y-62626247D01*
X110909523Y-62626247D02*
X110957142Y-62816723D01*
X110957142Y-62816723D02*
X111004761Y-62911961D01*
X111004761Y-62911961D02*
X111099999Y-63007200D01*
X111099999Y-63007200D02*
X111242856Y-63054819D01*
X111242856Y-63054819D02*
X111480951Y-63054819D01*
X109957142Y-63054819D02*
X110528570Y-63054819D01*
X110242856Y-63054819D02*
X110242856Y-62054819D01*
X110242856Y-62054819D02*
X110338094Y-62197676D01*
X110338094Y-62197676D02*
X110433332Y-62292914D01*
X110433332Y-62292914D02*
X110528570Y-62340533D01*
X124431480Y-67232008D02*
X124287917Y-67186563D01*
X124287917Y-67186563D02*
X124095294Y-67046614D01*
X124095294Y-67046614D02*
X124046234Y-66952110D01*
X124046234Y-66952110D02*
X124035699Y-66885595D01*
X124035699Y-66885595D02*
X124053154Y-66780556D01*
X124053154Y-66780556D02*
X124109134Y-66703507D01*
X124109134Y-66703507D02*
X124203638Y-66654448D01*
X124203638Y-66654448D02*
X124270152Y-66643913D01*
X124270152Y-66643913D02*
X124375191Y-66661368D01*
X124375191Y-66661368D02*
X124557280Y-66734802D01*
X124557280Y-66734802D02*
X124662319Y-66752257D01*
X124662319Y-66752257D02*
X124728833Y-66741722D01*
X124728833Y-66741722D02*
X124823337Y-66692663D01*
X124823337Y-66692663D02*
X124879317Y-66615614D01*
X124879317Y-66615614D02*
X124896772Y-66510575D01*
X124896772Y-66510575D02*
X124886237Y-66444060D01*
X124886237Y-66444060D02*
X124837177Y-66349556D01*
X124837177Y-66349556D02*
X124644554Y-66209607D01*
X124644554Y-66209607D02*
X124500991Y-66164163D01*
X124259308Y-65929709D02*
X123478900Y-66598778D01*
X123478900Y-66598778D02*
X123744648Y-65908949D01*
X123744648Y-65908949D02*
X123170703Y-66374859D01*
X123170703Y-66374859D02*
X123565865Y-65425894D01*
X123240213Y-65307014D02*
X123229678Y-65240500D01*
X123229678Y-65240500D02*
X123180619Y-65145996D01*
X123180619Y-65145996D02*
X122987996Y-65006047D01*
X122987996Y-65006047D02*
X122882957Y-64988592D01*
X122882957Y-64988592D02*
X122816442Y-64999127D01*
X122816442Y-64999127D02*
X122721938Y-65048186D01*
X122721938Y-65048186D02*
X122665959Y-65125236D01*
X122665959Y-65125236D02*
X122620514Y-65268799D01*
X122620514Y-65268799D02*
X122746932Y-66066972D01*
X122746932Y-66066972D02*
X122246112Y-65703105D01*
X116254819Y-84433333D02*
X115778628Y-84100000D01*
X116254819Y-83861905D02*
X115254819Y-83861905D01*
X115254819Y-83861905D02*
X115254819Y-84242857D01*
X115254819Y-84242857D02*
X115302438Y-84338095D01*
X115302438Y-84338095D02*
X115350057Y-84385714D01*
X115350057Y-84385714D02*
X115445295Y-84433333D01*
X115445295Y-84433333D02*
X115588152Y-84433333D01*
X115588152Y-84433333D02*
X115683390Y-84385714D01*
X115683390Y-84385714D02*
X115731009Y-84338095D01*
X115731009Y-84338095D02*
X115778628Y-84242857D01*
X115778628Y-84242857D02*
X115778628Y-83861905D01*
X115350057Y-84814286D02*
X115302438Y-84861905D01*
X115302438Y-84861905D02*
X115254819Y-84957143D01*
X115254819Y-84957143D02*
X115254819Y-85195238D01*
X115254819Y-85195238D02*
X115302438Y-85290476D01*
X115302438Y-85290476D02*
X115350057Y-85338095D01*
X115350057Y-85338095D02*
X115445295Y-85385714D01*
X115445295Y-85385714D02*
X115540533Y-85385714D01*
X115540533Y-85385714D02*
X115683390Y-85338095D01*
X115683390Y-85338095D02*
X116254819Y-84766667D01*
X116254819Y-84766667D02*
X116254819Y-85385714D01*
X116938094Y-68654819D02*
X116938094Y-67654819D01*
X116938094Y-67654819D02*
X116699999Y-67654819D01*
X116699999Y-67654819D02*
X116557142Y-67702438D01*
X116557142Y-67702438D02*
X116461904Y-67797676D01*
X116461904Y-67797676D02*
X116414285Y-67892914D01*
X116414285Y-67892914D02*
X116366666Y-68083390D01*
X116366666Y-68083390D02*
X116366666Y-68226247D01*
X116366666Y-68226247D02*
X116414285Y-68416723D01*
X116414285Y-68416723D02*
X116461904Y-68511961D01*
X116461904Y-68511961D02*
X116557142Y-68607200D01*
X116557142Y-68607200D02*
X116699999Y-68654819D01*
X116699999Y-68654819D02*
X116938094Y-68654819D01*
X116033332Y-67654819D02*
X115366666Y-67654819D01*
X115366666Y-67654819D02*
X115795237Y-68654819D01*
X113114285Y-69054819D02*
X113685713Y-69054819D01*
X113399999Y-69054819D02*
X113399999Y-68054819D01*
X113399999Y-68054819D02*
X113495237Y-68197676D01*
X113495237Y-68197676D02*
X113590475Y-68292914D01*
X113590475Y-68292914D02*
X113685713Y-68340533D01*
X123314285Y-69962295D02*
X123580952Y-69581342D01*
X123771428Y-69962295D02*
X123771428Y-69162295D01*
X123771428Y-69162295D02*
X123466666Y-69162295D01*
X123466666Y-69162295D02*
X123390476Y-69200390D01*
X123390476Y-69200390D02*
X123352381Y-69238485D01*
X123352381Y-69238485D02*
X123314285Y-69314676D01*
X123314285Y-69314676D02*
X123314285Y-69428961D01*
X123314285Y-69428961D02*
X123352381Y-69505152D01*
X123352381Y-69505152D02*
X123390476Y-69543247D01*
X123390476Y-69543247D02*
X123466666Y-69581342D01*
X123466666Y-69581342D02*
X123771428Y-69581342D01*
X122552381Y-69962295D02*
X123009524Y-69962295D01*
X122780952Y-69962295D02*
X122780952Y-69162295D01*
X122780952Y-69162295D02*
X122857143Y-69276580D01*
X122857143Y-69276580D02*
X122933333Y-69352771D01*
X122933333Y-69352771D02*
X123009524Y-69390866D01*
X122285714Y-69162295D02*
X121752380Y-69162295D01*
X121752380Y-69162295D02*
X122095238Y-69962295D01*
X116488094Y-74454819D02*
X116488094Y-73454819D01*
X116488094Y-73454819D02*
X116249999Y-73454819D01*
X116249999Y-73454819D02*
X116107142Y-73502438D01*
X116107142Y-73502438D02*
X116011904Y-73597676D01*
X116011904Y-73597676D02*
X115964285Y-73692914D01*
X115964285Y-73692914D02*
X115916666Y-73883390D01*
X115916666Y-73883390D02*
X115916666Y-74026247D01*
X115916666Y-74026247D02*
X115964285Y-74216723D01*
X115964285Y-74216723D02*
X116011904Y-74311961D01*
X116011904Y-74311961D02*
X116107142Y-74407200D01*
X116107142Y-74407200D02*
X116249999Y-74454819D01*
X116249999Y-74454819D02*
X116488094Y-74454819D01*
X114964285Y-74454819D02*
X115535713Y-74454819D01*
X115249999Y-74454819D02*
X115249999Y-73454819D01*
X115249999Y-73454819D02*
X115345237Y-73597676D01*
X115345237Y-73597676D02*
X115440475Y-73692914D01*
X115440475Y-73692914D02*
X115535713Y-73740533D01*
X112914285Y-75004819D02*
X113485713Y-75004819D01*
X113199999Y-75004819D02*
X113199999Y-74004819D01*
X113199999Y-74004819D02*
X113295237Y-74147676D01*
X113295237Y-74147676D02*
X113390475Y-74242914D01*
X113390475Y-74242914D02*
X113485713Y-74290533D01*
X104633333Y-92454819D02*
X104633333Y-93169104D01*
X104633333Y-93169104D02*
X104680952Y-93311961D01*
X104680952Y-93311961D02*
X104776190Y-93407200D01*
X104776190Y-93407200D02*
X104919047Y-93454819D01*
X104919047Y-93454819D02*
X105014285Y-93454819D01*
X103728571Y-92788152D02*
X103728571Y-93454819D01*
X103966666Y-92407200D02*
X104204761Y-93121485D01*
X104204761Y-93121485D02*
X103585714Y-93121485D01*
X109654819Y-76583333D02*
X109178628Y-76250000D01*
X109654819Y-76011905D02*
X108654819Y-76011905D01*
X108654819Y-76011905D02*
X108654819Y-76392857D01*
X108654819Y-76392857D02*
X108702438Y-76488095D01*
X108702438Y-76488095D02*
X108750057Y-76535714D01*
X108750057Y-76535714D02*
X108845295Y-76583333D01*
X108845295Y-76583333D02*
X108988152Y-76583333D01*
X108988152Y-76583333D02*
X109083390Y-76535714D01*
X109083390Y-76535714D02*
X109131009Y-76488095D01*
X109131009Y-76488095D02*
X109178628Y-76392857D01*
X109178628Y-76392857D02*
X109178628Y-76011905D01*
X108654819Y-76916667D02*
X108654819Y-77535714D01*
X108654819Y-77535714D02*
X109035771Y-77202381D01*
X109035771Y-77202381D02*
X109035771Y-77345238D01*
X109035771Y-77345238D02*
X109083390Y-77440476D01*
X109083390Y-77440476D02*
X109131009Y-77488095D01*
X109131009Y-77488095D02*
X109226247Y-77535714D01*
X109226247Y-77535714D02*
X109464342Y-77535714D01*
X109464342Y-77535714D02*
X109559580Y-77488095D01*
X109559580Y-77488095D02*
X109607200Y-77440476D01*
X109607200Y-77440476D02*
X109654819Y-77345238D01*
X109654819Y-77345238D02*
X109654819Y-77059524D01*
X109654819Y-77059524D02*
X109607200Y-76964286D01*
X109607200Y-76964286D02*
X109559580Y-76916667D01*
X111654819Y-83433333D02*
X111178628Y-83100000D01*
X111654819Y-82861905D02*
X110654819Y-82861905D01*
X110654819Y-82861905D02*
X110654819Y-83242857D01*
X110654819Y-83242857D02*
X110702438Y-83338095D01*
X110702438Y-83338095D02*
X110750057Y-83385714D01*
X110750057Y-83385714D02*
X110845295Y-83433333D01*
X110845295Y-83433333D02*
X110988152Y-83433333D01*
X110988152Y-83433333D02*
X111083390Y-83385714D01*
X111083390Y-83385714D02*
X111131009Y-83338095D01*
X111131009Y-83338095D02*
X111178628Y-83242857D01*
X111178628Y-83242857D02*
X111178628Y-82861905D01*
X110654819Y-83766667D02*
X110654819Y-84433333D01*
X110654819Y-84433333D02*
X111654819Y-84004762D01*
X119642857Y-81454819D02*
X119976190Y-80978628D01*
X120214285Y-81454819D02*
X120214285Y-80454819D01*
X120214285Y-80454819D02*
X119833333Y-80454819D01*
X119833333Y-80454819D02*
X119738095Y-80502438D01*
X119738095Y-80502438D02*
X119690476Y-80550057D01*
X119690476Y-80550057D02*
X119642857Y-80645295D01*
X119642857Y-80645295D02*
X119642857Y-80788152D01*
X119642857Y-80788152D02*
X119690476Y-80883390D01*
X119690476Y-80883390D02*
X119738095Y-80931009D01*
X119738095Y-80931009D02*
X119833333Y-80978628D01*
X119833333Y-80978628D02*
X120214285Y-80978628D01*
X118690476Y-81454819D02*
X119261904Y-81454819D01*
X118976190Y-81454819D02*
X118976190Y-80454819D01*
X118976190Y-80454819D02*
X119071428Y-80597676D01*
X119071428Y-80597676D02*
X119166666Y-80692914D01*
X119166666Y-80692914D02*
X119261904Y-80740533D01*
X118119047Y-80883390D02*
X118214285Y-80835771D01*
X118214285Y-80835771D02*
X118261904Y-80788152D01*
X118261904Y-80788152D02*
X118309523Y-80692914D01*
X118309523Y-80692914D02*
X118309523Y-80645295D01*
X118309523Y-80645295D02*
X118261904Y-80550057D01*
X118261904Y-80550057D02*
X118214285Y-80502438D01*
X118214285Y-80502438D02*
X118119047Y-80454819D01*
X118119047Y-80454819D02*
X117928571Y-80454819D01*
X117928571Y-80454819D02*
X117833333Y-80502438D01*
X117833333Y-80502438D02*
X117785714Y-80550057D01*
X117785714Y-80550057D02*
X117738095Y-80645295D01*
X117738095Y-80645295D02*
X117738095Y-80692914D01*
X117738095Y-80692914D02*
X117785714Y-80788152D01*
X117785714Y-80788152D02*
X117833333Y-80835771D01*
X117833333Y-80835771D02*
X117928571Y-80883390D01*
X117928571Y-80883390D02*
X118119047Y-80883390D01*
X118119047Y-80883390D02*
X118214285Y-80931009D01*
X118214285Y-80931009D02*
X118261904Y-80978628D01*
X118261904Y-80978628D02*
X118309523Y-81073866D01*
X118309523Y-81073866D02*
X118309523Y-81264342D01*
X118309523Y-81264342D02*
X118261904Y-81359580D01*
X118261904Y-81359580D02*
X118214285Y-81407200D01*
X118214285Y-81407200D02*
X118119047Y-81454819D01*
X118119047Y-81454819D02*
X117928571Y-81454819D01*
X117928571Y-81454819D02*
X117833333Y-81407200D01*
X117833333Y-81407200D02*
X117785714Y-81359580D01*
X117785714Y-81359580D02*
X117738095Y-81264342D01*
X117738095Y-81264342D02*
X117738095Y-81073866D01*
X117738095Y-81073866D02*
X117785714Y-80978628D01*
X117785714Y-80978628D02*
X117833333Y-80931009D01*
X117833333Y-80931009D02*
X117928571Y-80883390D01*
X114786904Y-77654819D02*
X114786904Y-78464342D01*
X114786904Y-78464342D02*
X114739285Y-78559580D01*
X114739285Y-78559580D02*
X114691666Y-78607200D01*
X114691666Y-78607200D02*
X114596428Y-78654819D01*
X114596428Y-78654819D02*
X114405952Y-78654819D01*
X114405952Y-78654819D02*
X114310714Y-78607200D01*
X114310714Y-78607200D02*
X114263095Y-78559580D01*
X114263095Y-78559580D02*
X114215476Y-78464342D01*
X114215476Y-78464342D02*
X114215476Y-77654819D01*
X113310714Y-77654819D02*
X113501190Y-77654819D01*
X113501190Y-77654819D02*
X113596428Y-77702438D01*
X113596428Y-77702438D02*
X113644047Y-77750057D01*
X113644047Y-77750057D02*
X113739285Y-77892914D01*
X113739285Y-77892914D02*
X113786904Y-78083390D01*
X113786904Y-78083390D02*
X113786904Y-78464342D01*
X113786904Y-78464342D02*
X113739285Y-78559580D01*
X113739285Y-78559580D02*
X113691666Y-78607200D01*
X113691666Y-78607200D02*
X113596428Y-78654819D01*
X113596428Y-78654819D02*
X113405952Y-78654819D01*
X113405952Y-78654819D02*
X113310714Y-78607200D01*
X113310714Y-78607200D02*
X113263095Y-78559580D01*
X113263095Y-78559580D02*
X113215476Y-78464342D01*
X113215476Y-78464342D02*
X113215476Y-78226247D01*
X113215476Y-78226247D02*
X113263095Y-78131009D01*
X113263095Y-78131009D02*
X113310714Y-78083390D01*
X113310714Y-78083390D02*
X113405952Y-78035771D01*
X113405952Y-78035771D02*
X113596428Y-78035771D01*
X113596428Y-78035771D02*
X113691666Y-78083390D01*
X113691666Y-78083390D02*
X113739285Y-78131009D01*
X113739285Y-78131009D02*
X113786904Y-78226247D01*
D11*
%TO.C,J3*%
X120870000Y-77670000D02*
X120870000Y-92970000D01*
X120870000Y-95570000D02*
X120870000Y-94240000D01*
X122200000Y-95570000D02*
X120870000Y-95570000D01*
X123530000Y-77670000D02*
X120870000Y-77670000D01*
X123530000Y-77670000D02*
X123530000Y-92970000D01*
X123530000Y-92970000D02*
X120870000Y-92970000D01*
%TO.C,C3*%
X110865000Y-87061252D02*
X110865000Y-86538748D01*
X112335000Y-87061252D02*
X112335000Y-86538748D01*
%TO.C,R21*%
X120065000Y-69772936D02*
X120065000Y-70227064D01*
X121535000Y-69772936D02*
X121535000Y-70227064D01*
%TO.C,D6*%
X111950000Y-65400000D02*
X104650000Y-65400000D01*
X111950000Y-66550000D02*
X111950000Y-65400000D01*
X111950000Y-70900000D02*
X104650000Y-70900000D01*
%TO.C,R19*%
X117547936Y-86265000D02*
X118002064Y-86265000D01*
X117547936Y-87735000D02*
X118002064Y-87735000D01*
D10*
%TO.C,U5*%
X125325000Y-76700000D02*
X125325000Y-77700000D01*
X125325000Y-86300000D02*
X125325000Y-87300000D01*
X125675000Y-76300000D02*
X128275000Y-76300000D01*
X125725000Y-87700000D02*
X135325000Y-87700000D01*
X129075000Y-75500000D02*
X135325000Y-75500000D01*
X135725000Y-87300000D02*
X135725000Y-75900000D01*
X125325000Y-76700000D02*
G75*
G02*
X125725000Y-76300000I400000J0D01*
G01*
X125725000Y-87700000D02*
G75*
G02*
X125325000Y-87300000I-1J399999D01*
G01*
X128675000Y-75900000D02*
G75*
G02*
X128275000Y-76300000I-400000J0D01*
G01*
X128675000Y-75900000D02*
G75*
G02*
X129075000Y-75500000I400000J0D01*
G01*
X135325000Y-75500000D02*
G75*
G02*
X135725000Y-75900000I0J-400000D01*
G01*
X135725000Y-87300000D02*
G75*
G02*
X135325000Y-87700000I-399999J-1D01*
G01*
D11*
%TO.C,JP1*%
X119850000Y-75300000D02*
X119850000Y-73900000D01*
X120550000Y-73200000D02*
X121150000Y-73200000D01*
X121150000Y-76000000D02*
X120550000Y-76000000D01*
X121850000Y-73900000D02*
X121850000Y-75300000D01*
X119850000Y-73900000D02*
G75*
G02*
X120550000Y-73200000I699999J1D01*
G01*
X120550000Y-76000000D02*
G75*
G02*
X119850000Y-75300000I0J700000D01*
G01*
X121150000Y-73200000D02*
G75*
G02*
X121850000Y-73900000I1J-699999D01*
G01*
X121850000Y-75300000D02*
G75*
G02*
X121150000Y-76000000I-700000J0D01*
G01*
%TO.C,R16*%
X123362742Y-72477500D02*
X123837258Y-72477500D01*
X123362742Y-73522500D02*
X123837258Y-73522500D01*
%TO.C,D2*%
X111950000Y-71250000D02*
X104650000Y-71250000D01*
X111950000Y-72400000D02*
X111950000Y-71250000D01*
X111950000Y-76750000D02*
X104650000Y-76750000D01*
%TO.C,J2*%
X109805000Y-89270000D02*
X109805000Y-91930000D01*
X109805000Y-89270000D02*
X112405000Y-89270000D01*
X109805000Y-91930000D02*
X112405000Y-91930000D01*
X112405000Y-89270000D02*
X112405000Y-91930000D01*
X115005000Y-90600000D02*
X115005000Y-91930000D01*
X115005000Y-91930000D02*
X113675000Y-91930000D01*
%TO.C,JP2*%
X125800000Y-69400000D02*
X125800000Y-68800000D01*
X126500000Y-68100000D02*
X127900000Y-68100000D01*
X127900000Y-70100000D02*
X126500000Y-70100000D01*
X128600000Y-68800000D02*
X128600000Y-69400000D01*
X125800000Y-68800000D02*
G75*
G02*
X126500000Y-68100000I699999J1D01*
G01*
X126500000Y-70100000D02*
G75*
G02*
X125800000Y-69400000I-1J699999D01*
G01*
X127900000Y-68100000D02*
G75*
G02*
X128600000Y-68800000I0J-700000D01*
G01*
X128600000Y-69400000D02*
G75*
G02*
X127900000Y-70100000I-700000J0D01*
G01*
%TO.C,Q1*%
X125527500Y-71662500D02*
X125527500Y-72312500D01*
X125527500Y-72962500D02*
X125527500Y-72312500D01*
X128647500Y-71662500D02*
X128647500Y-72312500D01*
X128647500Y-72962500D02*
X128647500Y-72312500D01*
X125577500Y-71150000D02*
X125247500Y-71390000D01*
X125247500Y-70910000D01*
X125577500Y-71150000D01*
G36*
X125577500Y-71150000D02*
G01*
X125247500Y-71390000D01*
X125247500Y-70910000D01*
X125577500Y-71150000D01*
G37*
%TO.C,LED1*%
X113450000Y-62250000D02*
X115350000Y-62250000D01*
X113450000Y-64150000D02*
X113450000Y-62250000D01*
X115350000Y-62250000D02*
X115350000Y-64150000D01*
X115350000Y-64150000D02*
X113450000Y-64150000D01*
%TO.C,SW2*%
X121560398Y-66941805D02*
X120670479Y-66295241D01*
X121610936Y-65000814D02*
X121563912Y-65065536D01*
X124246335Y-68893252D02*
X123356416Y-68246690D01*
X125186792Y-67598824D02*
X125139768Y-67663546D01*
%TO.C,R2*%
X113465000Y-84172936D02*
X113465000Y-84627064D01*
X114935000Y-84172936D02*
X114935000Y-84627064D01*
%TO.C,D7*%
X119500000Y-65400000D02*
X112200000Y-65400000D01*
X119500000Y-66550000D02*
X119500000Y-65400000D01*
X119500000Y-70900000D02*
X112200000Y-70900000D01*
%TO.C,R17*%
X123852064Y-70465000D02*
X123397936Y-70465000D01*
X123852064Y-71935000D02*
X123397936Y-71935000D01*
%TO.C,D1*%
X119400000Y-71250000D02*
X112100000Y-71250000D01*
X119400000Y-72400000D02*
X119400000Y-71250000D01*
X119400000Y-76750000D02*
X112100000Y-76750000D01*
%TO.C,J4*%
X105570000Y-77670000D02*
X105570000Y-92970000D01*
X105570000Y-95570000D02*
X105570000Y-94240000D01*
X106900000Y-95570000D02*
X105570000Y-95570000D01*
X108230000Y-77670000D02*
X105570000Y-77670000D01*
X108230000Y-77670000D02*
X108230000Y-92970000D01*
X108230000Y-92970000D02*
X105570000Y-92970000D01*
%TO.C,R3*%
X108977500Y-79745276D02*
X108977500Y-80254724D01*
X110022500Y-79745276D02*
X110022500Y-80254724D01*
%TO.C,R7*%
X108977500Y-84454724D02*
X108977500Y-83945276D01*
X110022500Y-84454724D02*
X110022500Y-83945276D01*
%TO.C,R18*%
X119262258Y-79077500D02*
X118787742Y-79077500D01*
X119262258Y-80122500D02*
X118787742Y-80122500D01*
%TO.C,U6*%
X112075000Y-77135000D02*
X114025000Y-77135000D01*
X112075000Y-82255000D02*
X114025000Y-82255000D01*
X115975000Y-77135000D02*
X114025000Y-77135000D01*
X115975000Y-82255000D02*
X114025000Y-82255000D01*
X116725000Y-77230000D02*
X116485000Y-76900000D01*
X116965000Y-76900000D01*
X116725000Y-77230000D01*
G36*
X116725000Y-77230000D02*
G01*
X116485000Y-76900000D01*
X116965000Y-76900000D01*
X116725000Y-77230000D01*
G37*
%TD*%
M02*
